<svg xmlns="http://www.w3.org/2000/svg" height="1024" preserveAspectRatio="none" style="display: block;" version="1.1" viewBox="0 0 2048 2048" width="1024">
<path d="M 0 0 L 2048 0 L 2048 2048 L 0 2048 L 0 0 z" fill="rgb(255,255,255)" transform="translate(0,0)"></path>
<path d="M 1154.94 246.562 C 1205.08 252.127 1276.35 272.261 1322.95 290.858 L 1322.9 499.969 C 1322.91 535.603 1321.76 578.986 1323.51 614.056 C 1328.12 718.299 1366.89 818.132 1433.84 898.171 C 1454.38 922.307 1474.73 940.605 1498.18 961.77 C 1495.86 771.793 1499.67 580.268 1497.98 390.28 C 1629.82 493.659 1703.66 586.711 1767.24 743.272 C 1812.16 857.005 1820.92 955.263 1816.43 1075.08 C 1698.38 1075.56 1590.7 1033.34 1498.32 961.378 C 1499.03 1024.26 1497.73 1089.01 1497.96 1152.26 C 1476.25 1139.71 1455.02 1127.14 1434.4 1113.18 C 1284.99 1012.03 1180.49 845.569 1158.88 665.94 C 1152.25 610.851 1155.15 546.872 1155.01 490.687 L 1154.94 246.562 z" fill="rgb(43,34,133)" transform="translate(0,0)"></path>
<path d="M 549.876 1150.96 L 551.283 1151.88 C 550.888 1153.95 550.506 1156.03 550.137 1158.11 L 549.955 1366.13 C 641.97 1330.26 701.634 1296.68 778.462 1233.27 C 793.907 1220.35 808.927 1206.92 823.499 1193.02 C 825.889 1190.76 842.332 1174.68 843.854 1173.68 C 844.914 1250.98 844.14 1330.86 843.898 1408.23 C 937.823 1367.22 1033.34 1358.09 1133.65 1383.29 C 1158.22 1389.46 1180.76 1400.11 1204.13 1408.07 L 1204.37 1173.8 C 1280.64 1250.17 1359.26 1309.78 1459.58 1351.11 C 1471.61 1356.07 1484.4 1359.91 1496.08 1364.74 L 1498.21 1363.93 L 1499.02 1365.79 L 1498.17 1366.58 C 1497.09 1382.75 1497.97 1409.62 1497.97 1426.98 L 1498 1545.64 C 1532.77 1553.38 1581.04 1556.82 1616.58 1557.08 C 1585.7 1590.48 1535.78 1638.87 1497.86 1663.84 C 1497.81 1624.34 1496.96 1585.2 1497.36 1545.64 C 1412.66 1527.03 1348.1 1504.86 1274.51 1457.21 C 1252.25 1442.79 1226.06 1420.87 1204.65 1409.09 L 1204.4 1572.76 C 1201.58 1571.38 1198.73 1570.06 1195.85 1568.82 C 1097.99 1526.35 1005.35 1517.8 902.356 1549.65 C 880.228 1556.49 864.949 1564.38 843.996 1572.66 C 842.85 1645.62 843.554 1722.12 844.028 1795.22 C 796.293 1782.55 751.601 1769.64 706.096 1750.12 C 695.003 1745.36 680.357 1739.77 670.174 1734.07 C 670.023 1706.32 670.014 1678.56 670.149 1650.8 C 717.897 1634.63 762.518 1617.91 805.666 1591.87 C 817.099 1584.97 831.495 1578.26 843.523 1572.11 C 844.06 1518.38 842.314 1462.44 843.435 1409.3 C 833.625 1414.24 820.61 1423.98 811.48 1430.54 C 795.032 1442.35 779.587 1453.77 762.405 1464.59 C 693.793 1507.8 628.333 1528.39 550.384 1546.73 C 550.884 1525.59 550.265 1502.79 550.187 1481.45 L 549.992 1366.09 C 470.286 1394.42 413.196 1401.54 330.093 1402.63 C 300.432 1351.72 276.593 1288.18 262.074 1231.17 C 344.226 1225.34 413.614 1212.28 490.398 1180.27 C 511.634 1171.42 529.435 1164.07 549.43 1152.33 L 549.876 1150.96 z" fill="rgb(43,34,133)" transform="translate(0,0)"></path>
<path d="M 549.876 1150.96 L 551.283 1151.88 C 550.888 1153.95 550.506 1156.03 550.137 1158.11 C 549.89 1156.19 549.654 1154.26 549.43 1152.33 L 549.876 1150.96 z" fill="rgb(125,116,183)" transform="translate(0,0)"></path>
<path d="M 1496.08 1364.74 L 1498.21 1363.93 L 1499.02 1365.79 L 1498.17 1366.58 C 1497.47 1365.97 1496.78 1365.35 1496.08 1364.74 z" fill="rgb(125,116,183)" transform="translate(0,0)"></path>
<path d="M 725.687 291.107 C 779.043 269.637 837.5 256.3 893.883 246.024 L 893.493 503.699 C 893.193 554.092 894.813 604.081 890.311 653.766 C 872.161 854.109 749.314 1034.83 577.736 1137.1 C 571.532 1140.8 557.753 1149.94 551.283 1151.88 L 549.876 1150.96 C 550.575 1088.48 548.577 1023.81 549.833 961.974 C 560.239 953.028 572.181 943.119 581.827 933.49 C 665.68 850.43 716.558 739.774 725.021 622.051 C 727.248 592.053 726.425 558.339 725.906 528.095 C 724.555 449.362 727.733 369.735 725.687 291.107 z" fill="rgb(43,34,133)" transform="translate(0,0)"></path>
<path d="M 343.087 618.661 C 386.21 547.004 440.583 482.753 504.12 428.371 C 514.168 419.711 538.343 399.722 549.883 393.649 L 549.983 783.319 L 549.856 899.308 C 549.863 919.454 550.399 942.068 549.833 961.974 C 473.361 1022.32 389.696 1059.03 292.779 1071.14 C 274.567 1073.41 253.39 1075.26 235.049 1075.01 C 227.97 944.508 245.778 826.007 298.539 705.99 C 312.047 675.263 325.311 647.278 343.087 618.661 z" fill="rgb(43,34,133)" transform="translate(0,0)"></path>
<path d="M 1023.38 784.402 C 1046.16 821.261 1068.48 858.402 1090.33 895.815 L 1151.5 998.158 C 1168.59 1027.19 1185.69 1057.26 1204.18 1085.44 C 1204.42 1115.04 1204.44 1144.65 1204.23 1174.26 C 1120.25 1172.86 1032.13 1174.33 947.748 1174.18 L 879.046 1174.09 C 870.766 1174.07 851.34 1174.51 843.854 1173.68 C 843.412 1149.48 843.945 1124.97 843.239 1100.84 C 842.632 1080.09 852.623 1069.66 862.903 1052.46 L 903.612 984.571 L 991.895 836.912 C 1001.9 820.424 1012.95 800.133 1023.38 784.402 z" fill="rgb(43,34,133)" transform="translate(0,0)"></path>
<path d="M 1498.21 1363.93 C 1496.25 1303.04 1499.19 1240.84 1498.02 1179.84 C 1497.84 1170.62 1497.87 1160.69 1498.14 1151.48 C 1584.29 1199.88 1690.83 1224.78 1788.73 1231.21 C 1772.3 1290.98 1750.72 1349.73 1718.6 1403.07 C 1656.1 1402.58 1595.64 1396 1535.58 1378.01 C 1524.28 1374.63 1509.66 1370.51 1499.02 1365.79 L 1498.21 1363.93 z" fill="rgb(43,34,133)" transform="translate(0,0)"></path>
<path d="M 1204.36 1572.31 C 1228.64 1583.72 1248.72 1596.44 1272.14 1608.42 C 1304.81 1625.14 1341.41 1637.93 1376.09 1649.81 L 1376.06 1735.66 C 1362.72 1742.74 1348.75 1748.17 1334.8 1753.92 C 1286 1773 1254.36 1782.36 1204.32 1796.53 L 1204.36 1572.31 z" fill="rgb(43,34,133)" transform="translate(0,0)"></path>
<path d="M 545.513 1547.31 L 548.593 1546.94 L 549.88 1547.97 C 552.383 1581.51 547.784 1626.91 550.552 1661.69 C 532.65 1649.84 504.73 1626.88 488.454 1612.77 C 469.128 1595.14 450.708 1576.54 433.267 1557.05 C 470.884 1556.84 508.422 1553.58 545.513 1547.31 z" fill="rgb(43,34,133)" transform="translate(0,0)"></path>
<metadata><recraft-signature>{"signed_by": "recraft", "signature_b64": "LRtkZZBSO9XpJ5U5+L8k8CHx8LgNp/uGKxuud/aQW8I35CUZXD3o7UaKmIC4/bKzMV71JJahUYlOZVmQlbt7Ag==", "signing_algo": "Ed25519", "generation_timestamp": 1772807715, "identifier": "5bfb73d5-982e-49fe-bebc-17d6a0596e8d"}</recraft-signature></metadata></svg>