<svg xmlns="http://www.w3.org/2000/svg" height="1024" preserveAspectRatio="none" style="display: block;" version="1.1" viewBox="0 0 2048 2048" width="1024">
<path d="M 0 0 L 978.159 0 L 1066.88 0 L 2048 0 L 2048 975.21 L 2048 1065.65 L 2048 2048 L 1064.86 2048 L 983.458 2048 L 0 2048 L 0 1064.95 L 0 978.464 L 0 0 z" fill="rgb(37,27,141)" transform="translate(0,0)"></path>
<path d="M 0 0 L 978.159 0 C 964.473 1.86939 946.835 2.65169 932.745 3.82996 C 907.957 5.87845 883.247 8.78346 858.659 12.5398 C 694.57 39.4758 539.288 105.212 405.734 204.279 C 417.522 213.022 428.489 222.327 440.129 231.344 C 545.051 312.615 661.583 383.762 793.654 408.866 C 798.521 409.791 804.04 410.729 808.915 411.302 C 807.376 415.768 794.68 412.193 789.345 413.844 C 691.565 414.903 593.776 414.958 495.994 414.011 C 442.845 362.018 390.079 309.636 337.699 256.868 C 310.167 284.548 276.834 319.99 248.555 345.877 C 289.491 387.253 330.983 428.074 373.02 468.332 L 372.798 659.785 L 174.452 660.022 C 199.961 597.186 251.686 507.488 295.377 455.741 C 272.124 435.945 242.914 404.582 220.527 382.817 C 199.466 408.385 178.125 439.662 160.423 467.681 C 102.633 558.018 59.7252 657.051 33.3393 760.995 L 458.002 761.035 C 452.067 743.624 444.739 723.654 439.823 706.145 C 458.931 725.278 478.175 744.275 497.553 763.133 C 507.282 772.581 523.704 787.548 531.966 796.977 L 24.049 797.044 C 16.2525 837.33 9.99038 873.224 5.41755 914.154 C 3.47833 931.512 2.83415 963.678 0 978.464 L 0 0 z" fill="rgb(246,245,245)" transform="translate(0,0)"></path>
<path d="M 0 1064.95 C 1.61438 1075.34 1.93595 1087.25 2.68073 1097.84 C 6.28415 1149.04 12.724 1203.12 25.3639 1252.86 L 529.826 1252.83 C 520.44 1262.02 511.114 1271.31 501.678 1280.44 C 482.342 1299.17 464.641 1318.94 444.346 1336.67 C 449.263 1320.88 453.972 1304.37 459.249 1288.81 L 34.271 1289.1 C 37.873 1308.84 46.5047 1333.04 52.6454 1352.26 C 90.4248 1470.48 148.51 1566.63 220.99 1666.06 C 245.565 1642.53 271.13 1616.5 295.224 1592.36 C 252.76 1533.92 202.102 1460.67 177.397 1392.29 C 242.124 1391.36 308.089 1392.4 372.988 1392.2 C 373.04 1454.18 373.815 1518.02 372.789 1579.84 L 298.46 1654.35 C 282.387 1670.23 264.949 1686.18 249.435 1702.46 L 337.466 1789.7 C 374.221 1753.45 410.777 1716.99 447.132 1680.33 C 461.472 1666.04 481.207 1645.34 495.858 1632.38 C 539.885 1632.1 583.913 1632.07 627.94 1632.29 C 689.081 1632.14 750.223 1632.39 811.36 1633.06 L 810.532 1635.95 C 783.728 1639.53 758.808 1647.18 733.213 1655.13 C 636.353 1685.21 546.788 1735.59 465.317 1795.44 C 450.296 1806.47 417.031 1830.5 404.321 1843.23 C 547.128 1945.42 689.172 2008.51 863.511 2036.72 C 887.548 2040.48 911.736 2043.18 936.007 2044.84 C 947.285 2045.57 973.514 2046.22 983.458 2048 L 0 2048 L 0 1064.95 z" fill="rgb(246,245,245)" transform="translate(0,0)"></path>
<path d="M 1066.88 0 L 2048 0 L 2048 975.21 C 2047.02 970.439 2046.77 956.128 2046.51 950.658 C 2045.87 937.155 2044.9 923.67 2043.62 910.213 C 2039.58 869.944 2033.02 836.73 2025.46 797.232 L 1517.88 797.005 C 1528.85 784.341 1543.84 770.914 1555.7 758.735 C 1572.42 741.558 1588.96 724.646 1606.41 708.189 C 1600.52 724.438 1594.75 744.158 1589.71 760.876 C 1730.49 762.857 1875.19 761.111 2016.3 761.013 C 1980 633.508 1929.66 518.853 1850.4 411.838 C 1843.57 402.624 1837.12 393.584 1829.59 384.895 C 1821.82 391.19 1814.29 400.024 1806.95 407.044 C 1789.89 423.361 1772.78 441.927 1755.1 457.413 C 1764.69 471.386 1776.76 485.609 1786.26 500.011 C 1815.76 544.756 1855.34 608.689 1873 659.144 C 1807.51 658.945 1742.02 659.092 1676.54 659.585 C 1676.72 596.249 1677.69 530.816 1676.2 467.632 C 1714.8 426.641 1758.4 385.338 1798.09 344.477 C 1768.76 316.256 1739.07 286.299 1710.06 257.588 L 1553.73 414.419 C 1461.72 412.815 1367.58 414.226 1275.34 413.831 C 1269.29 413.231 1243.14 415.033 1241.98 411.306 C 1258.55 409.287 1276.39 404.75 1292.48 400.614 C 1379.07 378.351 1459.3 335.49 1533.38 286.211 C 1569.22 262.372 1609.46 233.275 1641.62 204.464 C 1636.52 200.023 1630.46 195.451 1624.82 191.47 C 1474.75 85.4606 1297.35 18.0177 1113.75 3.81685 C 1098.84 2.66359 1082.15 2.26624 1067.93 0.164315 L 1066.88 0 z" fill="rgb(246,245,245)" transform="translate(0,0)"></path>
<path d="M 2023.46 1252.83 C 2024.86 1247.71 2025.95 1241.9 2026.87 1236.63 C 2035.51 1187.31 2044.12 1137.85 2046.26 1087.73 C 2046.56 1080.56 2046.96 1072.66 2048 1065.65 L 2048 2048 L 1064.86 2048 C 1074.19 2046.21 1099.59 2045.62 1110.48 2044.75 C 1140.29 2042.34 1170 2038.77 1199.53 2034.06 C 1355.77 2008.39 1517.5 1937.43 1643.91 1843.03 C 1631.13 1831.66 1612.89 1817.58 1599.18 1807.28 C 1518 1746.34 1425.4 1690.8 1329.14 1658.12 C 1300.65 1648.44 1261.49 1639.75 1232.05 1634.75 L 1232.82 1633.41 C 1236.99 1632.5 1253.96 1632.93 1259.57 1632.96 L 1312.44 1633.05 L 1472.31 1632.69 C 1497.95 1632.62 1525.13 1633.33 1550.55 1632.65 C 1555.03 1634.07 1696.69 1775.3 1710.67 1789.08 C 1740.61 1760.97 1769.84 1732.12 1798.33 1702.55 C 1778.44 1683.1 1759.27 1662.19 1739.06 1642.63 C 1718.61 1622.84 1696.61 1602.26 1677 1581.81 L 1676.88 1392.16 C 1741.58 1391.94 1806.29 1392.15 1870.99 1392.8 C 1832.58 1476.93 1808.77 1518.97 1752.14 1592.13 C 1776.28 1613.32 1802.35 1645.37 1826.52 1665.88 C 1845.63 1643.31 1862.54 1618.27 1878.74 1593.59 C 1940.65 1500.25 1986.81 1397.38 2015.39 1289.08 L 1589.79 1289.02 C 1593.52 1303.39 1600.49 1323.2 1604.91 1338.33 L 1519.21 1252.82 L 2023.46 1252.83 z" fill="rgb(246,245,245)" transform="translate(0,0)"></path>
<path d="M 1215.83 1632.44 C 1241.54 1631.27 1271.31 1631.97 1297.24 1632.02 L 1424.83 1631.94 L 1506.19 1631.76 C 1517.14 1631.74 1540.55 1631.14 1550.55 1632.65 C 1525.13 1633.33 1497.95 1632.62 1472.31 1632.69 L 1312.44 1633.05 L 1259.57 1632.96 C 1253.96 1632.93 1236.99 1632.5 1232.82 1633.41 L 1232.05 1634.75 C 1228.02 1635.06 1219.71 1633.59 1215.83 1632.44 z" fill="rgb(128,119,197)" transform="translate(0,0)"></path>
<path d="M 1227.71 411.973 C 1233.86 412.323 1237.34 411.201 1241.98 411.306 C 1243.14 415.033 1269.29 413.231 1275.34 413.831 C 1259.06 414.684 1239.78 413.091 1224.49 414.079 L 1227.71 411.973 z" fill="rgb(190,184,225)" transform="translate(0,0)"></path>
<path d="M 808.915 411.302 C 812.892 411.412 814.757 412.048 819.21 411.967 L 820.018 414.161 C 810.614 413.503 798.18 414.795 789.345 413.844 C 794.68 412.193 807.376 415.768 808.915 411.302 z" fill="rgb(190,184,225)" transform="translate(0,0)"></path>
<path d="M 811.36 1633.06 C 813.951 1632.98 816.442 1633.02 819.036 1632.91 L 818.972 1635.01 C 815.435 1635.14 814.027 1635.47 810.532 1635.95 L 811.36 1633.06 z" fill="rgb(190,184,225)" transform="translate(0,0)"></path>
<path d="M 1224.49 414.079 C 1223.73 414.06 1220.11 414.252 1219.66 413.437 C 1220.5 411.665 1226.18 411.989 1227.71 411.973 L 1224.49 414.079 z" fill="rgb(98,87,182)" transform="translate(0,0)"></path>
<path d="M 819.21 411.967 C 819.72 411.995 825.751 411.923 825.322 413.444 C 824.597 414.148 821.088 414.103 820.018 414.161 L 819.21 411.967 z" fill="rgb(98,87,182)" transform="translate(0,0)"></path>
<path d="M 819.036 1632.91 L 820.957 1633.04 C 821.984 1633.08 823.23 1633 824.175 1633.49 C 823.396 1634.12 820.085 1634.79 818.972 1635.01 L 819.036 1632.91 z" fill="rgb(128,119,197)" transform="translate(0,0)"></path>
<path d="M 1434.18 893.492 L 1642.4 893.239 C 1654.58 960.736 1658.96 1024 1651.7 1092.48 C 1649.54 1112.86 1645.7 1132.84 1642.54 1153.09 C 1607 1153.51 1571.47 1153.61 1535.93 1153.39 L 1426.34 1152.89 C 1389.37 1120.82 1351.34 1080.55 1314.85 1046.27 C 1314.58 1031.67 1314.57 1017.07 1314.82 1002.47 C 1352.99 966.896 1388.05 928.966 1425.28 893.798 L 1434.18 893.492 z" fill="rgb(246,245,245)" transform="translate(0,0)"></path>
<path d="M 406.328 893.455 C 428.138 892.655 454.348 893.34 476.524 893.368 C 524.904 893.574 573.284 893.525 621.664 893.221 C 658.534 928.751 694.424 965.768 731.391 1000.99 C 731.867 1015.21 732.168 1029.44 732.295 1043.67 C 711.937 1064.18 691.238 1084.36 670.208 1104.18 C 656.245 1117.82 635.282 1140.04 621.111 1152.01 C 551.572 1154.02 475.771 1152.99 406.023 1152.99 C 395.756 1095.15 390.928 1032.23 395.821 973.711 C 397.926 948.532 402.595 918.639 406.328 893.455 z" fill="rgb(246,245,245)" transform="translate(0,0)"></path>
<path d="M 997.92 1709.43 C 1058.23 1706.37 1108.36 1713.99 1167 1724.56 C 1167.46 1794.89 1167.42 1865.21 1166.9 1935.54 C 1128.04 1941.22 1093.45 1946.3 1054.25 1947.98 C 996.506 1949.86 938.728 1945.5 881.924 1934.95 C 881.499 1864.42 882.779 1794.34 881.601 1723.65 C 925.99 1716.34 952.81 1711.77 997.92 1709.43 z" fill="rgb(246,245,245)" transform="translate(0,0)"></path>
<path d="M 1006.56 100.45 C 1056.5 97.9705 1117.57 106.133 1166.97 113.602 L 1167.14 320.889 C 1129.89 328.859 1082.69 332.749 1044.75 334.356 C 999.718 337.916 925.888 330.775 881.897 322.609 L 882.04 113.579 C 912.179 105.819 975.351 101.367 1006.56 100.45 z" fill="rgb(246,245,245)" transform="translate(0,0)"></path>
<path d="M 1007.74 1310.5 C 1019.98 1310.25 1032.58 1310.32 1044.84 1310.25 C 1098.31 1364.89 1152.34 1418.98 1206.91 1472.52 C 1227.95 1493.54 1252.24 1517 1272.19 1538.6 C 1195.14 1539.61 1115.65 1538.23 1038.25 1538.39 L 876.14 1538.52 C 843.343 1538.55 807.951 1539.25 775.358 1538.25 L 933.864 1379.74 L 976.554 1337.5 C 984.614 1329.37 992.882 1320.61 1001.23 1312.76 C 1003.62 1310.51 1004.56 1310.91 1007.74 1310.5 z" fill="rgb(246,245,245)" transform="translate(0,0)"></path>
<path d="M 776.505 510.257 C 819.393 511.363 863.565 510.675 906.545 510.577 L 1067.04 510.694 L 1190.02 510.748 C 1215.81 510.806 1244.73 511.412 1270.28 510.19 C 1232.88 547.87 1195.23 585.289 1157.32 622.446 C 1120.51 660.887 1081.22 697.437 1044.14 735.984 C 1030.23 736.183 1016.33 736.222 1002.43 736.103 C 969.365 701.403 934.835 668.174 900.928 634.302 C 859.852 592.557 818.375 551.206 776.505 510.257 z" fill="rgb(246,245,245)" transform="translate(0,0)"></path>
<path d="M 110.732 893.44 C 174.19 893.998 237.916 893.045 301.167 893.803 C 298.367 906.234 296.622 922.018 294.725 934.656 C 283.734 1007.89 287.878 1078.69 298.536 1151.81 C 286.316 1152.95 251.636 1152.04 237.942 1152.05 L 110.094 1151.97 C 107.92 1140.2 105.935 1119.65 104.683 1107.37 C 97.8762 1046.25 98.4355 984.528 106.349 923.536 C 107.208 916.387 108.166 898.714 110.732 893.44 z" fill="rgb(246,245,245)" transform="translate(0,0)"></path>
<path d="M 1748.8 893.231 C 1768.49 892.958 1789.08 893.676 1808.9 893.708 C 1852.02 893.53 1895.14 893.608 1938.26 893.945 C 1939.14 903.11 1940.27 912.263 1941.28 921.418 C 1949.64 997.264 1950.8 1076.3 1938.2 1151.9 L 1748.68 1152.01 C 1761.42 1091.61 1761.01 1012.87 1755.82 951.667 C 1754.17 932.207 1750.85 912.64 1748.8 893.231 z" fill="rgb(246,245,245)" transform="translate(0,0)"></path>
<path d="M 1574.51 559.799 C 1576.73 562.649 1575.45 603.408 1575.37 610.188 L 1209.05 972.205 C 1208.49 1005.42 1208.47 1038.64 1209 1071.86 C 1223.03 1087.51 1248.5 1111.02 1264.29 1126.85 C 1309.32 1172.15 1354.6 1217.19 1400.13 1261.98 C 1451.01 1312.59 1501.06 1364.08 1552.7 1413.95 C 1560.31 1421.3 1567.25 1429 1575.33 1435.93 C 1575.83 1452.42 1575.34 1469.1 1574.94 1485.59 C 1560.56 1469.77 1541.93 1452.06 1526.54 1436.73 L 1109.04 1023.64 C 1118.47 1013.77 1130.04 1003.41 1139.98 993.473 L 1233.28 900.259 L 1574.51 559.799 z" fill="rgb(246,245,245)" transform="translate(0,0)"></path>
<path d="M 476.451 564.428 C 503.391 589.222 529.629 616.414 555.514 642.375 L 648.858 735.317 L 939.709 1022.63 C 897.581 1061.23 852.565 1108.59 811.592 1149.29 L 526.432 1432.48 C 510.132 1448.77 493.606 1464.84 476.858 1480.67 L 476.977 1432.26 C 495.275 1416.11 515.854 1393.61 533.907 1376.01 L 704.406 1206.68 L 801.316 1110.21 C 809.19 1102.39 835.215 1078.4 840.086 1070.95 C 840.467 1038.72 840.61 1006.49 840.514 974.253 C 830.979 963.597 815.832 949.37 805.359 938.922 L 727.742 862.234 C 643.538 779.597 559.849 696.436 476.68 612.757 L 476.451 564.428 z" fill="rgb(246,245,245)" transform="translate(0,0)"></path>
<path d="M 1024.34 1106.93 C 1041.92 1122.24 1070.66 1153.02 1087.85 1170.16 L 1212.53 1293.65 C 1271.29 1351.57 1329.73 1409.83 1387.84 1468.4 C 1403.09 1483.83 1418.43 1499.15 1433.88 1514.37 C 1442.57 1522.97 1453.53 1533.17 1461.37 1542.11 L 1412.12 1541.92 L 1180.61 1312.52 L 1116.87 1249.15 C 1106.4 1238.71 1090.16 1221.56 1079.19 1212.9 L 1023.5 1212.86 L 967.73 1212.99 C 956.83 1222 946.542 1233.26 936.178 1243 C 912.048 1265.69 889.309 1289.6 865.914 1312.95 L 752.083 1425.73 C 714.201 1463.76 673.724 1505.62 634.826 1542.33 C 619.919 1542.99 601.656 1542.57 586.682 1542.16 C 624.991 1506.2 665.1 1464.37 702.605 1427.05 L 943.28 1188.33 C 969.269 1162.81 997.93 1131.09 1024.34 1106.93 z" fill="rgb(246,245,245)" transform="translate(0,0)"></path>
<path d="M 585.617 501.186 C 601.219 501.644 616.827 501.921 632.436 502.016 C 641.984 510.035 654.725 524.052 664.182 533.403 C 686.168 554.94 708.02 576.612 729.738 598.419 C 788.564 657.49 847.862 716.088 907.626 774.209 C 924.121 790.163 952.44 820.441 968.836 833.925 L 1079.24 833.815 C 1093.54 821.236 1113.87 799.974 1127.98 786.034 L 1232.93 681.473 L 1362.23 553.77 C 1379.87 536.302 1397.95 519.38 1415.09 501.408 L 1463.21 502.032 C 1449.8 517.151 1425.1 539.877 1410 554.563 L 1153.09 810.569 C 1111.74 852.021 1063.9 897.393 1024.28 940.018 C 1001.91 920.092 974.73 890.809 952.949 869.269 L 783.547 700.147 L 657.914 574.378 C 636.993 553.539 604.4 522.915 585.617 501.186 z" fill="rgb(246,245,245)" transform="translate(0,0)"></path>
<path d="M 1273.32 1750.42 C 1341.43 1773.49 1400.4 1797.91 1460.23 1837.99 C 1445.5 1846.43 1426.97 1855 1411.59 1862.12 C 1363.25 1883.6 1323.44 1897.02 1273.17 1910.71 L 1273.32 1750.42 z" fill="rgb(246,245,245)" transform="translate(0,0)"></path>
<path d="M 770.786 1752.15 L 773.234 1752.16 C 775.098 1756.28 773.928 1894.11 773.718 1910.44 C 723.956 1895.36 689.072 1882.62 640.716 1862.29 C 622.073 1854.12 604.224 1844.92 586.174 1835.57 C 602.879 1826.48 619.17 1816.52 636.073 1807.67 C 679.191 1785.1 724.283 1766.51 770.786 1752.15 z" fill="rgb(246,245,245)" transform="translate(0,0)"></path>
<path d="M 1273.22 138.476 C 1320.12 151.093 1365.91 167.522 1410.13 187.599 C 1425.4 194.415 1445.6 203.512 1459.78 212.161 C 1442.38 222.446 1424.76 232.365 1406.94 241.914 C 1367.78 263.006 1315.9 283.173 1273.6 296.085 C 1274.05 243.486 1272.76 190.978 1273.22 138.476 z" fill="rgb(246,245,245)" transform="translate(0,0)"></path>
<path d="M 772.963 138.127 C 775.083 143.321 773.923 280.352 773.887 296.207 C 727.729 282.92 687.439 264.465 644.829 243.057 C 625.34 233.459 605.296 222.792 587.184 210.822 C 650.62 177.766 706.247 159.84 772.963 138.127 z" fill="rgb(246,245,245)" transform="translate(0,0)"></path>
<metadata><recraft-signature>{"signed_by": "recraft", "signature_b64": "a0Mk8YoVSWoNbPLAst/Nh9Hb+LhIB67IlsZfkDgRx6jm+HFQWEgG6/76nKdGf9Oktv/CJyY4W6ms4V5cqYYQBQ==", "signing_algo": "Ed25519", "generation_timestamp": 1772807738, "identifier": "8dd59195-f637-4cea-9e08-5414e6534900"}</recraft-signature></metadata></svg>