<svg xmlns="http://www.w3.org/2000/svg" height="1024" preserveAspectRatio="none" style="display: block;" version="1.1" viewBox="0 0 2048 2048" width="1024">
<path d="M 0 0 L 2048 0 L 2048 2048 L 0 2048 L 0 0 z" fill="rgb(255,255,255)" transform="translate(0,0)"></path>
<path d="M 1022.17 209.837 L 1026.44 210.357 C 1032.58 214.151 1040.59 230.077 1045.09 236.893 L 1120.8 350.941 L 1284.03 596.481 C 1287.55 601.83 1296.81 614.659 1295.65 620.265 C 1289.19 622.988 1179.01 621.984 1162.6 622.181 C 1160.21 680.574 1161.98 750.938 1162.01 810.216 L 1024.45 810.471 C 979.211 810.249 933.002 811.431 888.022 810.634 C 886.699 785.81 886.983 758.058 886.962 733.141 L 887.045 621.396 C 868.548 621.758 762.928 624.405 753.127 619.736 L 752.5 617.34 C 754.986 606.931 834.202 491.079 845.658 473.986 L 935.942 337.959 L 994.688 249.266 C 1000.92 240.011 1015.53 217.258 1022.17 209.837 z" fill="rgb(45,38,132)" transform="translate(0,0)"></path>
<path d="M 864.978 237.546 C 867.824 241.966 864.93 363.356 865.47 379.035 C 865.813 389.004 838.888 394.349 830.493 397.207 C 816.807 401.827 803.229 406.761 789.77 412.005 C 754.851 425.949 703.28 451.999 672.245 472.936 C 660.04 450.65 650.836 438.708 635.695 418.5 C 618.015 394.604 598.382 372.215 576.999 351.565 C 642.661 311.224 701.422 280.582 776.211 258.863 C 807.452 249.791 832.274 242.243 864.978 237.546 z" fill="rgb(45,38,132)" transform="translate(0,0)"></path>
<path d="M 1661.7 1170.61 C 1667.32 1171.4 1673.51 1172.65 1679.07 1173.89 C 1722.13 1183.43 1765.62 1186.43 1809.64 1187.28 C 1797.24 1268.48 1752.02 1378.46 1708.71 1448.43 L 1696 1469.32 C 1658.19 1431.43 1620.31 1406.08 1577.53 1375.62 C 1588.25 1354.56 1600.59 1334.09 1611.41 1312.48 C 1635.35 1264.69 1649.04 1222.13 1661.7 1170.61 z" fill="rgb(45,38,132)" transform="translate(0,0)"></path>
<path d="M 1376.91 1580.26 C 1381.25 1584.38 1391.72 1602.35 1395.93 1608.36 C 1417.95 1639.83 1443.18 1668.31 1469.94 1695.67 C 1415.86 1735.26 1321.39 1776.68 1257.03 1794.9 C 1236.34 1801.64 1202.81 1808.86 1181.32 1811.65 C 1181.44 1762.93 1180.1 1711.16 1181.4 1662.62 C 1225.64 1650.73 1261.53 1640.04 1302.94 1619.98 C 1329.42 1607.15 1351.38 1594.34 1376.91 1580.26 z" fill="rgb(45,38,132)" transform="translate(0,0)"></path>
<path d="M 1181.21 237.662 C 1197.13 238.984 1227.65 246.262 1243.07 250.399 C 1323.52 272.144 1400.25 305.844 1470.69 350.375 C 1449.89 372.005 1433.97 388.434 1414.95 411.612 C 1400.7 430.245 1386.73 449.233 1374.72 469.374 C 1322.85 439.402 1271.38 412.839 1214.05 394.93 C 1201.44 390.991 1191.48 390.052 1181.32 381.012 L 1181.21 237.662 z" fill="rgb(45,38,132)" transform="translate(0,0)"></path>
<path d="M 352.424 582.062 C 376.27 603.834 398.501 624.875 425.13 643.422 C 440.783 654.324 456.068 662.893 472.533 672.406 C 464.501 691.068 445.726 720.411 435.326 741.399 C 411.937 788.603 399.95 828.473 386.228 878.62 C 379.869 877.708 371.642 875.772 365.197 874.432 C 322.331 866.216 285.298 863.029 241.459 860.79 C 248.139 798.787 284.645 703.921 313.524 648.175 C 324.484 627.02 339.726 602.528 352.424 582.062 z" fill="rgb(45,38,132)" transform="translate(0,0)"></path>
<path d="M 382.024 1171.33 L 385.016 1170.87 C 385.514 1171.12 386.013 1171.36 386.511 1171.61 C 389.105 1181.8 394.777 1200.97 397.322 1209.81 C 414.735 1270.27 440.382 1324.17 473.919 1377.23 C 425.221 1402.12 392.211 1429.67 353.532 1467.61 L 346.143 1456.01 C 290.913 1364.47 261.651 1292.91 240.719 1188.08 C 285.802 1187.91 337.656 1179.41 382.024 1171.33 z" fill="rgb(45,38,132)" transform="translate(0,0)"></path>
<path d="M 676.199 1578.78 C 735.271 1615.67 799.363 1643.84 866.488 1662.41 L 866.809 1811.85 C 842.465 1808.34 814.445 1801.28 790.749 1794.38 C 715.476 1772.24 643.946 1738.95 578.542 1695.61 C 612.135 1665.59 654.328 1618.56 676.199 1578.78 z" fill="rgb(45,38,132)" transform="translate(0,0)"></path>
<path d="M 1696.56 581.798 C 1701.07 586.745 1714.63 611.843 1718.44 618.573 C 1761.79 693.787 1792.33 775.69 1808.8 860.928 C 1773.84 861.277 1721.57 867.826 1687.3 874.217 C 1677.9 876.222 1672.2 877.615 1663.13 880.627 C 1642.9 805.781 1618.29 740.93 1578.07 673.897 C 1621.61 648.794 1661.49 617.802 1696.56 581.798 z" fill="rgb(45,38,132)" transform="translate(0,0)"></path>
<path d="M 887.139 850.914 L 1162.43 851.053 C 1161.86 895.609 1161.68 940.17 1161.91 984.73 L 1016.67 984.973 C 974.067 984.993 930.246 985.477 887.746 984.239 C 887.11 939.8 886.908 895.356 887.139 850.914 z" fill="rgb(45,38,132)" transform="translate(0,0)"></path>
<path d="M 891.23 1200.51 L 1158.77 1200.13 C 1158.26 1245.08 1158.02 1290.04 1158.04 1335 L 891.33 1334.73 C 892.562 1291.85 891.606 1243.51 891.23 1200.51 z" fill="rgb(45,38,132)" transform="translate(0,0)"></path>
<path d="M 836.029 1025.52 L 1005.04 1025.17 L 1005.01 1159.41 C 973.635 1159.09 941.044 1159.76 909.5 1159.77 L 743.389 1159.37 C 744.084 1115.87 743.648 1069.09 743.276 1025.57 C 774.193 1025.76 805.112 1025.75 836.029 1025.52 z" fill="rgb(45,38,132)" transform="translate(0,0)"></path>
<path d="M 1046.26 1025.08 C 1132.22 1025.3 1219.55 1025.88 1305.42 1024.98 C 1304.96 1069.68 1306.38 1115.67 1305.43 1159.94 C 1218.97 1159.37 1132.5 1159.47 1046.03 1160.25 L 1046.26 1025.08 z" fill="rgb(45,38,132)" transform="translate(0,0)"></path>
<path d="M 507.075 408.315 C 565.979 400.76 621.482 442.873 637.043 498.941 C 628.191 506.146 617.88 513.376 608.569 520.926 C 571.165 551.256 545.389 578.763 514.719 616.048 C 509.256 623.05 503.662 629.949 497.939 636.741 C 454.128 626.211 415.661 585.407 407.788 541.001 C 402.552 512.051 409.119 482.21 426.025 458.133 C 445.018 431.128 474.74 413.821 507.075 408.315 z" fill="rgb(45,38,132)" transform="translate(0,0)"></path>
<path d="M 498.027 1413.98 C 500.442 1415.79 516.154 1436.18 519.304 1439.82 C 531.589 1454.01 543.959 1468.37 556.816 1482.09 C 581.18 1508.08 608.409 1529.71 635.844 1552.15 C 634.23 1564.6 627.087 1580.01 620.19 1590.39 C 601.61 1618.38 578.189 1632.76 545.918 1639.73 C 428.994 1658.97 357.34 1520.58 447.713 1441.62 C 463.296 1428 479.242 1421.6 498.027 1413.98 z" fill="rgb(45,38,132)" transform="translate(0,0)"></path>
<path d="M 1521.1 408.4 C 1529.43 407.765 1538.25 408.763 1546.57 410.053 C 1623.23 421.954 1663.38 506.737 1628.85 574.988 C 1611.44 609.411 1587.82 625.561 1551.8 637.785 C 1548.98 633.853 1545.73 629.82 1542.75 625.972 C 1505.53 577.194 1461.6 533.931 1412.25 497.475 C 1426.07 447.578 1470.07 413.074 1521.1 408.4 z" fill="rgb(45,38,132)" transform="translate(0,0)"></path>
<path d="M 1551.95 1413.05 C 1581.69 1423.94 1598.67 1433.46 1618.32 1459.19 C 1637.64 1484.5 1644.83 1511.63 1640.33 1543.34 C 1635.84 1574.21 1619.1 1601.98 1593.89 1620.36 C 1566.78 1640.5 1537.46 1644.9 1504.69 1640.2 C 1457.66 1628.77 1426.94 1599.21 1414.14 1552.45 C 1468.88 1508.08 1510.07 1471.1 1551.95 1413.05 z" fill="rgb(45,38,132)" transform="translate(0,0)"></path>
<path d="M 324.813 906.422 C 344.789 906.426 359.328 909.435 377.869 916.57 C 371.862 971.326 366.715 1022.5 372.381 1077.72 C 374.112 1094.58 376.118 1112.07 377.329 1128.91 C 344.32 1142.53 313.879 1141.74 280.841 1129.54 C 267.344 1123.43 258.153 1118.62 246.96 1108.6 C 224.146 1087.83 210.562 1058.81 209.221 1027.98 C 207.707 998.018 218.155 968.676 238.268 946.41 C 263.198 918.763 288.302 908.458 324.813 906.422 z" fill="rgb(45,38,132)" transform="translate(0,0)"></path>
<path d="M 1710.91 909.356 C 1755.36 902.607 1800.84 927.387 1823.93 965.028 C 1839.9 990.842 1844.6 1022.08 1836.92 1051.45 C 1828.63 1084.45 1808.41 1109.1 1779.5 1126.22 C 1772.84 1129.8 1765.86 1132.75 1758.66 1135.04 C 1730.5 1143.95 1698.24 1142.49 1671.8 1128.82 C 1682.17 1056.21 1683.4 993.128 1671.51 920.371 C 1685.19 914.41 1696.27 911.45 1710.91 909.356 z" fill="rgb(45,38,132)" transform="translate(0,0)"></path>
<path d="M 912.415 1672.63 C 967.156 1683.66 1023.26 1686.28 1078.79 1680.42 C 1098.71 1678.38 1117.7 1674.67 1137.11 1672.61 C 1153.34 1719.8 1144.28 1763.82 1110.62 1800.31 C 1102.84 1809.14 1089.35 1818.28 1079.04 1823.82 C 1051.65 1838.54 1019.47 1841.53 989.84 1832.1 C 958.673 1822.48 932.758 1800.6 918.042 1771.49 C 901.27 1739.01 901.665 1706.64 912.415 1672.63 z" fill="rgb(45,38,132)" transform="translate(0,0)"></path>
<path d="M 828.854 1341.64 C 843.675 1348.71 857.68 1356.09 872.828 1362.69 C 918.624 1382.63 956.962 1388.5 1005.86 1393.22 L 1005.38 1501.09 C 989.663 1499.54 975.433 1498.81 959.562 1496.65 C 899.657 1489.22 826.207 1466.27 775.358 1432.89 C 792.568 1405.89 813.038 1369.78 828.854 1341.64 z" fill="rgb(45,38,132)" transform="translate(0,0)"></path>
<path d="M 1217.68 1342.91 C 1224.76 1349.07 1264.47 1420.16 1272.3 1434.03 C 1265.79 1438.73 1254.1 1444.92 1246.66 1448.74 C 1197.86 1473.78 1150.2 1487.69 1096.24 1495.69 C 1079.86 1498.05 1063.41 1499.86 1046.91 1501.12 L 1046.84 1393.22 C 1110.79 1390.75 1161.93 1372.36 1217.68 1342.91 z" fill="rgb(45,38,132)" transform="translate(0,0)"></path>
<path d="M 674.768 1404.67 C 679.535 1408.07 685.38 1413.31 689.832 1417.23 C 731.441 1453.84 776.895 1477.77 826.972 1500.53 C 813.795 1532.18 800.885 1563.93 788.244 1595.8 C 780.787 1592.78 773.375 1589.3 766.044 1585.96 C 709.116 1559.92 648.608 1520.92 604.168 1476.69 C 627.618 1453.61 651.271 1428.27 674.768 1404.67 z" fill="rgb(45,38,132)" transform="translate(0,0)"></path>
<path d="M 1497.31 1231.5 C 1522.32 1240.36 1569.49 1256.98 1592.45 1267.74 C 1560.67 1335.19 1535.96 1380 1485.15 1436.71 L 1472.24 1450.56 C 1468.58 1447.51 1465.25 1444.15 1461.94 1440.73 C 1441.42 1419.54 1420.08 1399.13 1400.11 1377.42 C 1442.82 1329.37 1470.34 1290.37 1497.31 1231.5 z" fill="rgb(45,38,132)" transform="translate(0,0)"></path>
<path d="M 1372.24 1405.53 C 1377.58 1407.72 1437.29 1470.92 1444.12 1478.45 C 1394.76 1525.02 1347.69 1557.95 1286.25 1586.57 C 1278.06 1590.28 1270.56 1593.72 1262.11 1596.86 C 1259.08 1587.7 1252.66 1573.07 1248.95 1563.66 C 1240.91 1542.81 1232.58 1522.07 1223.94 1501.45 C 1277.88 1480.68 1330.78 1445.65 1372.24 1405.53 z" fill="rgb(45,38,132)" transform="translate(0,0)"></path>
<path d="M 551.512 1230.83 C 554.835 1231.73 557.367 1239.39 558.73 1242.61 C 580.488 1293.95 609.586 1336.13 648.098 1376.71 C 627.943 1397.58 597.366 1430.85 576.257 1449.26 L 564.695 1437.04 C 513.938 1377.87 488.697 1337.23 454.751 1267.33 C 485.647 1256.11 521.146 1243.04 551.512 1230.83 z" fill="rgb(45,38,132)" transform="translate(0,0)"></path>
<path d="M 1471.22 598.144 C 1482.45 611.578 1494.53 624.472 1505.49 638.216 C 1538.98 679.9 1566.71 725.896 1587.93 774.97 C 1562.26 783.308 1532.83 795.647 1506.28 804.95 L 1493.06 809.84 C 1465.45 753.992 1439.04 718.571 1394.88 675.578 C 1412.46 659.188 1429.15 641.151 1446.45 624.399 C 1454.85 616.256 1463.8 607.137 1471.22 598.144 z" fill="rgb(45,38,132)" transform="translate(0,0)"></path>
<path d="M 599.829 803.834 C 631.332 822.559 667.983 841.483 698.165 860.917 C 694.407 871.042 687.083 885.142 682.642 896.225 C 668.251 932.142 663.844 960.368 659.36 998.379 L 647.25 998.355 L 546.896 998.103 C 548.17 932.214 569.911 862.229 599.829 803.834 z" fill="rgb(45,38,132)" transform="translate(0,0)"></path>
<path d="M 576.668 600.653 C 580.312 603.388 595.922 618.913 600.159 622.963 C 618.662 640.487 636.953 658.235 655.027 676.202 C 603.334 726.815 590.02 746.785 555.427 809.072 L 542.703 805.031 C 518.4 796.748 483.945 783.653 460.757 773.331 C 485.147 716.882 533.519 644.614 576.668 600.653 z" fill="rgb(45,38,132)" transform="translate(0,0)"></path>
<path d="M 1448.58 807.939 C 1452.81 811.746 1460.24 831.748 1462.83 837.779 C 1485.25 889.984 1496.71 940.462 1499.51 997.091 L 1402.25 997.352 C 1399.48 997.378 1393.6 997.616 1391.61 996.72 C 1389.63 995.827 1387.57 978.02 1387.11 974.864 C 1380.97 932.33 1367.33 898.728 1348.68 860.512 L 1448.58 807.939 z" fill="rgb(45,38,132)" transform="translate(0,0)"></path>
<path d="M 702.929 1210.14 C 710.428 1220.74 717.816 1233.97 725.474 1245.24 C 746.558 1276.27 768.593 1298 797.874 1320.81 C 786.997 1343.43 758.665 1390.14 744.853 1412.38 C 736.411 1407.47 729.749 1402.15 722.035 1396.24 C 690.015 1370.74 661.601 1341.01 637.569 1307.87 C 627.413 1293.78 617.158 1276.97 607.295 1262.24 L 702.929 1210.14 z" fill="rgb(45,38,132)" transform="translate(0,0)"></path>
<path d="M 1345.26 1210.25 C 1350.06 1212.35 1363.7 1220.84 1369.51 1223.83 C 1392.98 1235.91 1415.54 1249.82 1438.49 1262.77 C 1412.73 1313.36 1368.61 1361.43 1325.55 1397.72 C 1319.48 1402.95 1310.95 1409.25 1304.51 1414.33 C 1286.75 1385.82 1266.84 1349.84 1249.79 1320.38 C 1288.04 1292.05 1322.26 1251.94 1345.26 1210.25 z" fill="rgb(45,38,132)" transform="translate(0,0)"></path>
<path d="M 443.962 808.388 C 469.02 815.646 513.611 835.246 539.814 845.566 C 529.906 880.924 519.205 912.963 513.878 949.757 C 512.668 958.118 509.573 1000.02 508.1 1003.43 L 505.25 1003.93 L 406.561 1003.14 C 407.844 936.566 420.493 870.701 443.962 808.388 z" fill="rgb(45,38,132)" transform="translate(0,0)"></path>
<path d="M 546.884 1039.84 C 583.993 1040.31 621.823 1039.97 658.989 1040.01 C 658.862 1072.47 668.41 1149.27 686.36 1175.46 C 675.74 1181.94 664.442 1188.11 653.577 1194.24 C 632.602 1205.86 611.532 1217.31 590.368 1228.58 C 562.39 1164.44 550.098 1109.64 546.884 1039.84 z" fill="rgb(45,38,132)" transform="translate(0,0)"></path>
<path d="M 1601.2 811.059 L 1602.47 811.841 C 1625.94 864.883 1639.12 945.452 1641.23 1003.18 L 1548.64 1003.41 L 1538.95 1003.6 C 1536.44 946.689 1525 899.714 1507.29 846.172 C 1538.6 834.053 1569.97 823.109 1601.2 811.059 z" fill="rgb(45,38,132)" transform="translate(0,0)"></path>
<path d="M 1391 1040.03 L 1499.23 1040.1 C 1497.71 1114.86 1486.22 1151.5 1460.29 1219.72 L 1456.53 1228.51 C 1440.34 1219.22 1424.03 1210.15 1407.59 1201.32 C 1393.38 1193.79 1375.22 1184.84 1361.87 1176.3 C 1365.7 1164.35 1370.82 1152.37 1374.65 1139.96 C 1385.39 1105.12 1389.92 1076.23 1391 1040.03 z" fill="rgb(45,38,132)" transform="translate(0,0)"></path>
<path d="M 406.78 1043.48 C 440.89 1043.65 475.001 1043.62 509.111 1043.4 C 511.253 1089.68 519.523 1151.74 537.369 1194.94 C 528.762 1199.11 518.26 1202.93 509.243 1206.46 C 489.648 1214.71 462.039 1224.01 441.391 1231.93 C 419.249 1174.14 408.958 1109.72 405.184 1048.13 C 404.977 1044.76 404.742 1045.52 406.78 1043.48 z" fill="rgb(45,38,132)" transform="translate(0,0)"></path>
<path d="M 1538.9 1043.73 C 1572.91 1043.97 1606.92 1044.01 1640.93 1043.85 C 1636.27 1115.04 1627.89 1158.47 1607.28 1225.84 C 1606.26 1228.22 1606.06 1228.42 1604.53 1230.55 C 1599.26 1230.46 1519.24 1199.8 1510.24 1195.76 C 1513.08 1183.49 1519.06 1167.34 1522.5 1153.86 C 1532.49 1114.72 1536.69 1083.59 1538.9 1043.73 z" fill="rgb(45,38,132)" transform="translate(0,0)"></path>
<path d="M 860.957 1513.39 C 882.84 1518.98 904.116 1525.42 926.369 1529.82 C 953.011 1535.1 978.624 1537.18 1005.6 1539.2 L 1005.01 1645.11 C 995.505 1645.01 983.416 1643.69 973.765 1642.9 C 931.988 1638.41 863.098 1626.33 824.03 1610.35 C 836.995 1578.04 847.319 1545.55 860.957 1513.39 z" fill="rgb(45,38,132)" transform="translate(0,0)"></path>
<path d="M 1186.94 1514.27 L 1187.6 1514.37 C 1191.66 1518.14 1222.34 1600.39 1224.77 1610.4 C 1178.47 1625.89 1130.71 1636.63 1082.24 1642.44 C 1076.09 1643.86 1054.01 1644.74 1046.96 1645.08 C 1046.69 1609.78 1046.66 1574.48 1046.87 1539.17 C 1093.77 1537.11 1141.5 1524.13 1186.94 1514.27 z" fill="rgb(45,38,132)" transform="translate(0,0)"></path>
<path d="M 1224.76 439.609 C 1230.18 440.396 1250.52 448.619 1256.37 450.887 C 1303.63 469.214 1344.19 492.24 1384.76 522.436 C 1406.49 538.61 1425.2 552.019 1445.11 571.482 C 1433.8 584.288 1418.95 598.453 1406.71 610.708 C 1395.42 622.267 1379.14 640.051 1367.4 650.1 C 1358.69 637.753 1347.09 626.734 1339.03 614.684 C 1300.23 556.688 1263.88 497.417 1224.76 439.609 z" fill="rgb(45,38,132)" transform="translate(0,0)"></path>
<path d="M 821.833 439.982 L 823.276 440.665 C 820.064 449.191 795.722 483.398 789.347 493.135 L 736.889 573.139 C 719.445 599.939 705.811 622.035 685.928 647.051 C 675.3 639.404 656.297 620.365 646.222 610.654 C 632.866 597.419 619.583 584.111 606.373 570.73 C 619.541 561.552 640.551 541.988 655.511 530.682 C 712.545 487.58 756.68 466.344 821.833 439.982 z" fill="rgb(45,38,132)" transform="translate(0,0)"></path>
<path d="M 1196.98 1200.21 L 1305.85 1200.29 C 1290.97 1225.67 1278.39 1243.19 1257.79 1264.62 C 1239.73 1281.56 1218.88 1299.7 1196.99 1311.35 C 1196.18 1275.21 1196.86 1236.49 1196.98 1200.21 z" fill="rgb(45,38,132)" transform="translate(0,0)"></path>
<path d="M 743.001 1200.35 L 851.478 1200.4 C 851.89 1237.06 851.282 1273.57 851.344 1310.23 C 845.525 1307.49 833.911 1299.52 828.536 1295.7 C 793.672 1270.89 763.103 1238.27 743.001 1200.35 z" fill="rgb(45,38,132)" transform="translate(0,0)"></path>
<metadata><recraft-signature>{"signed_by": "recraft", "signature_b64": "VKFLMWJlMNCNNbIocnylCNpvIpf3gIhk4gHVzZckgZJDrCpCb2lOzjLhMNHqk41kxDNAeRP8fIE4qtC64cOOAA==", "signing_algo": "Ed25519", "generation_timestamp": 1772807694, "identifier": "9ce94b69-02f4-4107-a3f8-ee8bf86037f6"}</recraft-signature></metadata></svg>