<svg xmlns="http://www.w3.org/2000/svg" height="1024" preserveAspectRatio="none" style="display: block;" version="1.1" viewBox="0 0 2048 2048" width="1024">
<path d="M 0 0 L 2048 0 L 2048 2048 L 0 2048 L 0 0 z" fill="rgb(255,255,255)" transform="translate(0,0)"></path>
<path d="M 687.53 333.367 C 713.559 338.587 744.331 348.559 769.001 357.836 C 848.685 387.798 923.382 439.227 970.089 511.451 C 986.702 537.138 995.471 556.721 1007.86 584.742 C 1017.54 584.437 1032.72 583.608 1041.99 585.023 C 1050.13 564.189 1060.05 544.097 1071.65 524.97 C 1138.25 415.183 1242.98 362.64 1364.08 333.106 C 1357.23 369.581 1352.87 407.786 1345.36 444.363 C 1342.58 457.893 1340.48 475.431 1336.65 488.212 C 1327.71 490.887 1318.89 493.687 1310.05 496.701 C 1258.16 514.401 1200.47 559.736 1177.49 610.605 C 1228.04 627.085 1272.11 656.312 1314.13 687.988 C 1320.22 675.854 1327.33 655.423 1332.03 642.512 L 1354.59 580.406 C 1358.56 569.429 1362.45 556.907 1367.53 546.561 C 1445.58 532.288 1523.73 518.581 1601.98 505.44 C 1617.08 525.34 1633.18 540.555 1649.08 562.743 C 1776.46 739.052 1822.73 960.359 1782.25 1173.8 C 1746.46 1362.45 1631.14 1542.66 1473.52 1653.23 C 1346.05 1740.61 1215.24 1791.01 1059.45 1797.75 C 804.736 1808.78 566.642 1693.78 412.122 1492.23 C 315.308 1364.43 260.199 1209.92 254.287 1049.7 C 246.391 855.195 316.727 649.647 449.129 505.899 C 527.12 515.787 609.225 533.473 687.909 544.389 C 690.585 555.645 699.22 578.295 703.265 589.862 L 738.297 688.385 C 785.396 651.465 817.742 633.084 872.517 611.083 C 871.906 609.786 871.262 608.505 870.588 607.24 C 849.03 566.404 806.077 526.797 764.244 507.462 C 746.759 499.38 729.75 494.435 711.384 488.969 C 706.336 458.68 701.516 428.354 696.927 397.993 C 693.745 377.215 689.739 353.98 687.53 333.367 z" fill="rgb(245,11,44)" transform="translate(0,0)"></path>
<path d="M 1003.89 723.42 C 1060.08 717.289 1133.06 734.728 1181.75 762.773 C 1255.24 804.627 1308.81 874.267 1330.42 956.029 C 1351.9 1037.82 1340.04 1124.8 1297.44 1197.85 C 1255.27 1269.71 1185.99 1321.6 1105.17 1341.85 C 1102 1292.98 1097.31 1238.65 1093.17 1189.71 C 1105.48 1183.47 1115.5 1177.98 1126.74 1169.75 C 1162.06 1143.95 1185.66 1105.15 1192.32 1061.92 C 1206.53 967.861 1142.78 882.931 1048.83 869.003 C 1023.79 864.831 992.188 869.065 968.451 877.541 C 926.526 892.838 892.415 924.196 873.653 964.689 C 854.726 1004.74 852.527 1050.67 867.54 1092.35 C 883.874 1136.73 915.415 1168.87 958.097 1188.61 C 954.036 1237.67 951.456 1292.93 945.79 1341.25 C 900.023 1329.91 859.853 1310.33 823.674 1279.73 C 759.361 1225.96 719.172 1148.75 712.029 1065.23 C 704.993 980.913 731.502 897.228 785.801 832.345 C 841.584 766.767 918.591 730.248 1003.89 723.42 z" fill="rgb(255,255,255)" transform="translate(0,0)"></path>
<path d="M 1328.19 1372.67 C 1332.95 1374 1423.6 1496.02 1433.52 1509.25 C 1359.71 1570.59 1297.31 1604.92 1205.75 1634.55 C 1177.31 1643.15 1156.33 1647.6 1127.18 1651.87 C 1126.63 1598.28 1115.54 1534.94 1115 1480 C 1174.1 1468.56 1230.21 1445.05 1279.82 1410.95 C 1297.21 1398.78 1311.85 1386.09 1328.19 1372.67 z" fill="rgb(255,255,255)" transform="translate(0,0)"></path>
<path d="M 720.837 1372.44 C 725.392 1374.28 744.596 1390.22 749.559 1394.06 C 804.658 1436.72 865.622 1465.89 933.949 1479.65 C 932.363 1511.83 929.272 1544.57 926.77 1576.7 C 924.821 1601.73 923.325 1626.99 921.118 1651.98 C 895.568 1648.13 872.93 1642.12 848.128 1635.16 C 756.79 1608.38 689.946 1569.08 617.129 1509.09 C 623.765 1501.17 629.85 1492.3 636.206 1484.1 C 664.657 1447.4 691.446 1408.31 720.837 1372.44 z" fill="rgb(255,255,255)" transform="translate(0,0)"></path>
<path d="M 1657.3 1024.91 L 1658.58 1025.63 C 1659.95 1034.63 1656.9 1069.13 1655.99 1079.64 C 1647.97 1171.99 1619.77 1261.46 1573.38 1341.72 C 1559.45 1366.17 1546.38 1387.23 1528.79 1409.06 C 1512.58 1389.86 1496.31 1367.28 1481.24 1347.01 C 1459.04 1318.19 1437.42 1287.37 1415.04 1258.96 C 1441.64 1218.09 1454.01 1180.39 1466.39 1134.22 C 1472.56 1130.07 1480.46 1125.86 1487.02 1122.13 C 1543.8 1089.76 1599.98 1056.25 1657.3 1024.91 z" fill="rgb(255,255,255)" transform="translate(0,0)"></path>
<path d="M 392.071 1023.51 C 398.979 1026.57 412.195 1034.58 419.052 1038.51 L 468.8 1067.15 C 507.354 1089.51 547.959 1111.5 585.451 1135.28 C 598.039 1183.55 609.628 1215.09 635.378 1258.36 C 614.431 1284.17 590.858 1318.14 570.583 1345.46 C 554.252 1366.8 538.106 1388.28 522.15 1409.91 C 502.193 1381.1 485.063 1356.44 468.364 1325.32 C 419.274 1233.82 393.156 1127.16 392.071 1023.51 z" fill="rgb(255,255,255)" transform="translate(0,0)"></path>
<path d="M 505.634 651.985 C 528.317 656.813 560.922 661.054 584.254 664.469 C 599.057 710.611 617.309 755.496 644.891 795.61 C 609.517 853.763 588.875 906.183 578.517 973.952 L 557.125 961.906 C 506.96 934.611 456.93 902 407.769 875.51 C 428.285 793.449 458.539 722.226 505.634 651.985 z" fill="rgb(255,255,255)" transform="translate(0,0)"></path>
<path d="M 1539.8 653.335 C 1542.27 652.773 1542.25 652.883 1544.81 653.151 C 1551.8 658.762 1561.14 675.642 1566 683.982 C 1588.15 721.966 1606.91 761.826 1622.07 803.099 C 1630.52 826.742 1637.34 851.732 1644.26 875.917 L 1499.51 960.236 L 1474.59 974.524 C 1468.49 950.153 1465.79 930.281 1458.16 904.637 C 1444.89 860.025 1429.8 835.957 1408.85 795.913 C 1438.73 748.579 1450.69 720.363 1467.41 666.57 C 1478.63 662.793 1525.72 655.758 1539.8 653.335 z" fill="rgb(255,255,255)" transform="translate(0,0)"></path>
<metadata><recraft-signature>{"signed_by": "recraft", "signature_b64": "RSDVHvDmUJJmMuUBbdXWxKJD3ZSTO7KLdW+ORx1NviSfTs4+0PnLgIq/UG7YH9QmnP6tJoeNlPKqyajH+YYMBQ==", "signing_algo": "Ed25519", "generation_timestamp": 1772807782, "identifier": "3bcdb771-427a-4e62-909b-25d680d855cb"}</recraft-signature></metadata></svg>