<svg xmlns="http://www.w3.org/2000/svg" height="1024" preserveAspectRatio="none" style="display: block;" version="1.1" viewBox="0 0 2048 2048" width="1024">
<path d="M 0 0 L 2048 0 L 2048 2048 L 0 2048 L 0 0 z" fill="rgb(255,255,255)" transform="translate(0,0)"></path>
<path d="M 1004.03 409.964 C 1343.28 398.709 1627.41 664.645 1638.59 1003.9 C 1649.77 1343.16 1383.77 1627.23 1044.51 1638.34 C 705.357 1649.44 421.394 1383.55 410.215 1044.39 C 399.036 705.237 664.873 421.217 1004.03 409.964 z" fill="rgb(228,8,37)" transform="translate(0,0)"></path>
<path d="M 1018.57 427.28 C 1348.32 423.857 1618.36 688.457 1621.66 1018.2 C 1624.96 1347.94 1360.25 1617.89 1030.51 1621.06 C 700.944 1624.22 431.177 1359.7 427.883 1030.13 C 424.588 700.571 689.013 430.702 1018.57 427.28 z" fill="rgb(255,255,255)" transform="translate(0,0)"></path>
<path d="M 629.851 667.73 C 633.701 670.716 645.389 682.847 649.281 686.739 C 661.965 699.527 674.74 712.223 687.607 724.826 C 747.888 783.851 807.849 843.2 867.49 902.871 L 1174.65 1206.79 L 1303.65 1334.19 C 1331.12 1361.18 1358.64 1387.13 1385.46 1414.83 C 1328.95 1465.25 1282.97 1494.88 1212.57 1522.35 C 1149.45 1544.82 1099.41 1556.4 1031.95 1557.05 C 883.684 1558.48 753.938 1504.39 648.595 1400.51 C 549.801 1302.35 493.261 1169.48 491.03 1030.23 C 490.235 901.003 538.149 760.523 629.851 667.73 z" fill="rgb(228,8,37)" transform="translate(0,0)"></path>
<path d="M 828.851 1251.76 C 865.023 1278.49 897.563 1299.13 941.779 1311.46 C 1017.75 1333.29 1099.32 1323.52 1167.98 1284.37 C 1180.76 1296.68 1193.42 1309.13 1205.96 1321.69 C 1195.84 1329.1 1185.26 1335.86 1174.28 1341.94 C 1133.67 1363.6 1079.52 1376.54 1033.39 1377.93 C 944.239 1380.54 857.635 1347.98 792.294 1287.27 C 803.944 1275.04 816.524 1263.29 828.851 1251.76 z" fill="rgb(255,255,255)" transform="translate(0,0)"></path>
<path d="M 725.022 846.486 C 731.847 849.423 758.969 878.017 764.951 884.703 C 703.731 996.594 715.252 1107.12 787.272 1210.05 C 778.994 1218.04 771.503 1225.83 762.956 1233.79 L 751.086 1245.64 C 719.529 1211.96 692.077 1155.21 681.378 1110.48 C 659.549 1019.22 676.574 926.321 725.022 846.486 z" fill="rgb(255,255,255)" transform="translate(0,0)"></path>
<path d="M 751.841 1328.65 C 764.055 1338.34 777.473 1350.89 789.962 1359.64 C 859.813 1408.58 919.036 1429.27 1002.62 1436.49 C 1002.08 1453.84 1002.49 1472.78 1002.55 1490.25 C 990.255 1489.97 982.541 1489.29 970.491 1487.65 C 894.409 1478.72 825.806 1453.96 763.395 1409.35 C 744.477 1395.83 729.506 1384.89 712.703 1368.46 C 726.153 1355.59 739.205 1342.32 751.841 1328.65 z" fill="rgb(255,255,255)" transform="translate(0,0)"></path>
<path d="M 559.089 1049.38 C 576.496 1048.71 595.38 1049.44 612.85 1049.95 C 613.194 1125.32 659.996 1231.59 709.594 1286.92 L 690.331 1306.27 L 670.793 1325.73 C 618.247 1267.57 582.386 1196.3 566.997 1119.44 C 562.799 1097.6 560.45 1071.49 559.089 1049.38 z" fill="rgb(255,255,255)" transform="translate(0,0)"></path>
<path d="M 786.847 1049.79 C 804.099 1049.8 822.269 1050.51 839.581 1050.92 C 847.517 1134.57 919.553 1205.5 1003.03 1213.25 L 1003.18 1261.3 C 892.318 1260.03 792.27 1159.29 786.847 1049.79 z" fill="rgb(255,255,255)" transform="translate(0,0)"></path>
<path d="M 1251.15 1367.76 C 1254.77 1368.06 1287.48 1401.59 1292.49 1406.44 C 1231.94 1449.56 1161.87 1477.41 1088.24 1487.63 C 1075.32 1489.44 1063.56 1490.22 1050.56 1491.14 C 1050.35 1473.31 1050.82 1454.7 1051.03 1436.82 C 1129 1430.31 1184.86 1407.75 1251.15 1367.76 z" fill="rgb(255,255,255)" transform="translate(0,0)"></path>
<path d="M 638.673 763.491 C 647.379 768.857 671.732 794.136 679.498 802.157 C 640.359 863.113 619.954 928.24 613.617 1000.19 L 601.08 1000.06 L 558.933 1000.04 C 561.269 923.566 591.789 824.18 638.673 763.491 z" fill="rgb(255,255,255)" transform="translate(0,0)"></path>
<path d="M 897.253 1012.47 C 902.362 1015.42 943.183 1052.21 944.577 1056.42 C 956.69 1093.02 969.999 1097.7 1002.29 1113.58 C 1006.85 1115.83 1039.74 1150.04 1040.5 1154 C 993.157 1157.05 957.992 1149.58 926.068 1111.98 C 898.276 1079.25 894.252 1053.83 897.253 1012.47 z" fill="rgb(255,255,255)" transform="translate(0,0)"></path>
<path d="M 1081.42 1202.03 C 1085.87 1200.9 1118.14 1233.72 1124.48 1239.08 C 1112.16 1247.14 1100.36 1251.16 1086.22 1255.1 C 1073.89 1258.33 1062.37 1260.32 1049.69 1261.35 C 1049.61 1244.34 1049.88 1227.9 1049.41 1210.85 C 1060.45 1208.09 1070.54 1205.48 1081.42 1202.03 z" fill="rgb(255,255,255)" transform="translate(0,0)"></path>
<path d="M 808.183 930.108 C 815.998 934.664 842.909 960.458 849.996 967.968 C 845.962 979.068 843.029 987.167 839.911 998.863 C 837.389 998.843 835.083 998.245 832.244 998.166 C 816.643 997.204 804.154 996.439 788.289 996.559 C 792.857 969.551 797.702 954.969 808.183 930.108 z" fill="rgb(255,255,255)" transform="translate(0,0)"></path>
<path d="M 1003.68 491.439 C 1026.82 489.744 1055.05 491.888 1078.13 494.155 C 1196.83 505.816 1298.56 555.382 1386.56 635.127 C 1489.01 728.172 1550.84 857.719 1558.75 995.891 C 1566.26 1136.31 1517.25 1273.89 1422.66 1377.94 C 1389.43 1347.42 1354.39 1312.32 1321.96 1280.55 L 847.381 811.588 L 720.627 685.85 C 704.472 669.919 681.648 645.559 665.278 631.685 C 756.271 543.671 878.32 497.777 1003.68 491.439 z" fill="rgb(228,8,37)" transform="translate(0,0)"></path>
<path d="M 1003.67 669.418 C 1008.48 668.769 1019.6 668.737 1024.87 668.596 C 1109.2 666.336 1198.42 701.334 1258.94 760.695 C 1247.39 770.09 1233.17 785.128 1222.36 796.067 C 1195.23 770.865 1157.55 749.374 1122.33 737.93 C 1114.72 735.623 1107.04 733.554 1099.31 731.728 C 1030.29 715.091 943.945 724.792 883.122 762.005 C 871.086 749.307 856.041 735.704 843.238 722.604 C 881.972 693.209 955.668 673.379 1003.67 669.418 z" fill="rgb(255,255,255)" transform="translate(0,0)"></path>
<path d="M 1299.77 801.858 C 1339.86 845.883 1366.62 913.697 1375.53 972.131 C 1386.25 1042.52 1369.89 1143.06 1326.52 1200.78 L 1315.96 1190.44 C 1306.59 1181.22 1297.25 1171.66 1287.97 1162.32 C 1291.78 1155.77 1295.74 1148.99 1299.01 1142.13 C 1339.09 1058.02 1334.07 953.242 1286.35 873.242 C 1279.1 861.073 1271.49 849.442 1263.92 837.687 C 1275.7 825.581 1287.66 813.637 1299.77 801.858 z" fill="rgb(255,255,255)" transform="translate(0,0)"></path>
<path d="M 1049.56 555.918 C 1137.7 559.754 1222.74 589.56 1293.99 641.59 C 1309.68 653.111 1323.8 665.956 1338.33 678.855 C 1332.21 685.482 1325.08 692.436 1318.71 698.917 C 1312.03 705.36 1305.87 712.137 1299.57 718.938 C 1265.06 690.575 1230.87 663.418 1189.84 644.943 C 1146.77 625.542 1096.68 611.313 1049.47 609.808 C 1049.17 591.846 1049.2 573.88 1049.56 555.918 z" fill="rgb(255,255,255)" transform="translate(0,0)"></path>
<path d="M 1380.82 721.728 C 1381.43 722.047 1382.71 722.939 1383.14 723.442 C 1447.28 797.512 1491.02 904.677 1493.11 1001.74 L 1457.34 1001.24 L 1438.09 1001.22 C 1434.61 939.951 1417.26 880.273 1387.33 826.694 C 1373.21 801.944 1358.95 782.818 1341.49 760.585 C 1352.06 748.987 1369.24 731.811 1380.82 721.728 z" fill="rgb(255,255,255)" transform="translate(0,0)"></path>
<path d="M 1049.37 782.828 C 1162.76 788.975 1258.75 888.423 1265.03 1000.94 L 1213.26 1000.88 C 1211.69 987.32 1209.89 975.228 1205.97 962.054 C 1185.67 893.66 1120.95 840.957 1049.83 834.653 L 1049.37 782.828 z" fill="rgb(255,255,255)" transform="translate(0,0)"></path>
<path d="M 994.036 557.459 C 997.388 557.467 998.877 556.796 1000.85 558.437 C 1002.06 571.774 1001.19 596.7 1001.1 610.899 C 925.66 615.068 864.668 637.859 800.897 677.274 L 784.434 662.319 C 776.127 654.268 768.361 646.085 760.378 637.725 C 768.678 630.989 782.618 623.066 792.003 617.499 C 849.001 583.684 927.477 559.172 994.036 557.459 z" fill="rgb(255,255,255)" transform="translate(0,0)"></path>
<path d="M 1438.29 1048.39 C 1455.34 1047.92 1476.35 1048.79 1493.69 1049.03 C 1491.99 1063.05 1491.23 1075.48 1489.04 1089.79 C 1478.54 1158.35 1455.35 1216.38 1418.87 1275.01 L 1413.3 1283.05 C 1398.79 1271.13 1385.97 1256.62 1371.9 1244.01 C 1415.58 1166.96 1426.02 1136.57 1438.29 1048.39 z" fill="rgb(255,255,255)" transform="translate(0,0)"></path>
<path d="M 1021.4 892.382 C 1026.64 891.75 1034.67 891.738 1040.01 891.809 C 1071.89 891.965 1102.4 904.831 1124.77 927.556 C 1149.31 952.843 1159.76 985.647 1158.5 1020.3 C 1158.34 1024.63 1158.73 1033.58 1155.72 1036.52 L 1153.31 1035.23 C 1140.49 1023.7 1123.7 1006.61 1111.54 994.143 C 1103.67 959.592 1087.7 947.537 1055.4 935.86 C 1051.98 934.625 1015.49 899.317 1012.69 894.47 C 1014.89 892.442 1018.18 892.676 1021.4 892.382 z" fill="rgb(255,255,255)" transform="translate(0,0)"></path>
<path d="M 1000.23 784.469 C 1002.72 784.854 1002.04 789.078 1002.07 790.997 C 1002.3 806.32 1001.99 821.657 1002.25 836.979 L 994.478 838.742 C 983.908 841.135 978.799 843.025 968.871 847.156 C 962.885 840.324 956.991 834.382 950.506 828.066 C 942.525 820.888 934.773 813.46 927.262 805.792 L 928.897 804.867 C 948.279 793.703 978.329 786.832 1000.23 784.469 z" fill="rgb(255,255,255)" transform="translate(0,0)"></path>
<path d="M 1212.08 1049.3 C 1229.73 1048.85 1247.38 1049.09 1265.01 1050 C 1264.24 1054.33 1263.44 1058.66 1262.7 1062.99 L 1261.29 1069.53 C 1258.39 1082.88 1253.6 1094.66 1248.55 1107.25 C 1247.01 1110.97 1245.36 1114.57 1243.71 1118.24 C 1231.85 1106.3 1216.08 1089.5 1203.44 1078.64 C 1207.12 1068.17 1209.56 1059.97 1212.08 1049.3 z" fill="rgb(255,255,255)" transform="translate(0,0)"></path>
<metadata><recraft-signature>{"signed_by": "recraft", "signature_b64": "9OXeWJF98g6jU+2Flw4Ic1wxTmKF2eRQ+6Lc5Zoy0my7+LJpY5rCSu+4dn0LyGGUPQdOts1s/AC8sYFCCWEXCA==", "signing_algo": "Ed25519", "generation_timestamp": 1772807761, "identifier": "4ddb665c-7dcd-4289-8a2c-c8b3783dc256"}</recraft-signature></metadata></svg>