<svg xmlns="http://www.w3.org/2000/svg" height="1024" preserveAspectRatio="none" style="display: block;" version="1.1" viewBox="0 0 2048 2048" width="1024">
<path d="M 0 0 L 2048 0 L 2048 2048 L 0 2048 L 0 0 z" fill="rgb(255,255,255)" transform="translate(0,0)"></path>
<path d="M 609.876 369.802 C 626.167 360.141 642.497 350.536 659.111 341.493 C 858.335 233.054 1107.74 221.74 1317.38 306.915 C 1361.31 324.766 1398.92 345.37 1439.83 369.566 C 1430.34 384.023 1417.29 401.037 1406.96 415.214 C 1385.74 444.213 1364.21 472.98 1342.37 501.508 C 1358.82 508.633 1383.51 524.509 1399 534.508 C 1420.52 509.346 1441.79 483.963 1462.79 458.362 C 1474.39 444.495 1489.76 427.311 1500.35 413.081 C 1534.32 438.859 1565.84 467.717 1594.5 499.288 C 1701.43 614.973 1770.29 760.684 1791.77 916.746 C 1853.29 1339.58 1559.17 1733.92 1136 1795.74 C 713.301 1857.48 318.902 1564.29 257.957 1140.58 C 228.534 935.014 281.522 726.145 405.38 559.462 C 452.213 497.06 490.309 460.872 551.145 412.159 C 568.143 433.538 586.682 454.35 604.377 475.271 C 621.297 495.275 637.452 516.007 654.415 535.842 C 673.037 525.408 689.046 513.133 708.634 503.85 C 704.568 498.8 700.909 493.436 697.019 488.252 C 667.609 449.046 639.322 408.977 609.876 369.802 z" fill="rgb(240,57,82)" transform="translate(0,0)"></path>
<path d="M 1342.37 501.508 C 1358.82 508.633 1383.51 524.509 1399 534.508 C 1392.99 543.844 1373.04 566.919 1365.16 576.449 L 1298.79 656.526 C 1261.12 630.089 1229.98 615.445 1187.3 600.011 C 1216.14 580.158 1234.95 572.742 1267.09 559.803 C 1296.5 547.963 1321.19 524.63 1342.37 501.508 z" fill="rgb(0,0,0)" transform="translate(0,0)"></path>
<path d="M 708.634 503.85 C 732.984 529.311 750.333 545.125 783.356 560.49 C 799.363 567.939 815.001 572.563 830.723 579.944 C 840.576 584.57 852.043 593.787 860.827 600.317 C 818.453 613.847 789.869 630.235 752.8 655.057 C 731.825 629.355 710.679 603.794 689.362 578.375 C 677.952 564.534 666.213 549.165 654.415 535.842 C 673.037 525.408 689.046 513.133 708.634 503.85 z" fill="rgb(0,0,0)" transform="translate(0,0)"></path>
<path d="M 997.733 465.43 C 1068.64 459.541 1164.51 476.848 1229.09 506.39 C 1155.06 534.028 1116.24 572.995 1076.27 639.933 C 1085.96 641.303 1095.62 642.823 1105.26 644.492 C 1205.79 662.184 1294.94 719.669 1352.54 803.944 C 1411.21 889.742 1433.84 995.148 1415.56 1097.47 C 1396.42 1203.6 1335.9 1297.78 1247.32 1359.3 C 1155.01 1423.23 1064.81 1437.26 956.112 1417.4 C 956.263 1493.25 955.286 1573.5 956.794 1648.97 C 974.96 1650.72 993.188 1651.75 1011.44 1652.06 C 1179.93 1655.85 1342.7 1590.85 1462.24 1472.04 C 1573.69 1363.24 1647.36 1197.98 1649.19 1041.8 C 1651.69 900.179 1606.26 761.864 1520.29 649.295 C 1497.03 618.818 1476.53 597.724 1450.07 570.648 C 1466.92 550.338 1488 524.419 1505.82 505.502 C 1532.28 524.115 1582.23 586.011 1601.46 612.914 C 1696.42 746.395 1742.69 908.424 1732.52 1071.92 C 1721.84 1263.74 1632.45 1436.75 1490.17 1564.15 C 1349.43 1684.22 1176.01 1747.56 990.6 1737.66 C 959.576 1736.01 923.839 1732.89 893.32 1727.12 C 771.952 1703.83 658.801 1649.16 565.139 1568.54 C 524.309 1533.63 484.717 1491.39 453.088 1447.8 C 357.143 1315.7 309.29 1154.74 317.48 991.669 C 326.752 812.55 410.139 626.621 543.878 505.878 C 560.063 521.623 584.537 553.12 600.741 571.619 C 583.809 588.472 563.174 608.864 548.247 627.557 C 463.276 733.968 409.83 859.99 403.245 996.191 C 397.017 1120.13 427.918 1243.1 491.991 1349.37 C 509.217 1378.41 527.371 1405.69 550.138 1430.76 C 591.777 1373.09 654.276 1324.61 714.156 1287.38 C 673.426 1227.88 640.791 1166.69 630.345 1094.83 C 613.939 981.984 642.968 877.816 711.51 787.073 C 750.915 734.905 810.113 686.34 871.71 662.989 C 897.405 653.248 943.417 644.42 971.106 640.46 C 969.706 637.56 968.415 634.779 966.911 631.912 C 936.022 571.955 882.373 526.894 817.982 506.824 C 876.778 481.625 934.336 469.521 997.733 465.43 z" fill="rgb(0,0,0)" transform="translate(0,0)"></path>
<path d="M 1010.33 721.53 C 1180.13 713.619 1324.29 844.636 1332.6 1014.42 C 1340.92 1184.19 1210.24 1328.67 1040.48 1337.38 C 870.155 1346.13 725.09 1214.92 716.749 1044.57 C 708.408 874.221 839.961 729.468 1010.33 721.53 z" fill="rgb(240,57,82)" transform="translate(0,0)"></path>
<path d="M 1010.86 785.543 C 1145.69 777.818 1261.23 880.902 1268.87 1015.74 C 1276.51 1150.57 1173.35 1266.04 1038.51 1273.6 C 903.797 1281.14 788.45 1178.1 780.818 1043.39 C 773.186 908.675 876.157 793.261 1010.86 785.543 z" fill="rgb(0,0,0)" transform="translate(0,0)"></path>
<path d="M 772.46 1345.79 C 775.98 1347.03 798.133 1365.09 803.951 1368.69 C 826.606 1382.72 846.189 1390.08 871.013 1398.17 L 871.026 1635.14 C 832.381 1626.19 787.67 1608.67 752.381 1590.64 C 709.013 1570.17 643.37 1527.24 608.644 1494.18 C 652.136 1435.22 712.861 1387.32 772.46 1345.79 z" fill="rgb(240,57,82)" transform="translate(0,0)"></path>
<path d="M 760.642 1416.61 C 769.642 1423.84 796.01 1437.69 807.346 1443.95 C 808.227 1476.72 807.691 1511.21 807.657 1544.1 C 795.261 1540.35 775.468 1529.94 763.586 1523.97 C 740.258 1511.02 717.641 1496.83 695.833 1481.46 C 723.311 1466.65 745.843 1444.1 760.642 1416.61 z" fill="rgb(0,0,0)" transform="translate(0,0)"></path>
<path d="M 1410.19 621.985 C 1510.39 711.799 1576.48 860.344 1584.08 994.269 C 1592.11 1144.34 1539.83 1291.4 1438.88 1402.72 C 1357.69 1493.64 1248.85 1555.33 1129.13 1578.27 C 1100.11 1583.64 1079.58 1585.03 1050.25 1586.63 C 1039.82 1586.97 1029.38 1586.94 1018.95 1586.52 C 1018.67 1554.36 1018.59 1522.19 1018.71 1490.03 C 1176.7 1490.18 1308.42 1423.25 1399.39 1293.85 C 1538.2 1096.37 1511.2 869.608 1345.28 698.825 C 1367.46 673.725 1388.2 646.424 1410.19 621.985 z" fill="rgb(0,0,0)" transform="translate(0,0)"></path>
<path d="M 640.395 620.947 C 660.933 643.485 685.513 674.617 705.74 698.677 C 690 717.182 675.065 731.966 659.873 751.745 C 608.714 818.715 576.976 898.473 568.134 982.282 C 559.13 1061.68 569.003 1148.96 602.543 1221.81 C 610.975 1240.13 618.484 1255.74 631.159 1271.64 C 609.84 1281.15 591.023 1295.48 576.194 1313.51 C 569.572 1321.67 565.007 1330.01 559.991 1339.19 C 546.186 1316.45 533.05 1293.38 521.517 1269.35 C 433.62 1086.25 455.021 856.582 576.697 693.77 C 596.595 667.144 617.437 644.783 640.395 620.947 z" fill="rgb(0,0,0)" transform="translate(0,0)"></path>
<path d="M 991.741 317.432 C 1102.92 309.624 1246.05 340.249 1343.9 393.417 C 1327.31 415.393 1307.89 440.369 1292.74 463.1 C 1279.61 457.247 1267.64 451.178 1254.13 445.674 C 1189.24 419.232 1128.88 407.389 1059.57 402.138 C 943.996 398.401 863.407 414.449 757.846 462.825 C 754.482 457.784 750.73 453.016 746.941 448.287 C 732.528 430.301 719.823 410.949 705.135 393.189 C 717.12 386.166 741.942 376.17 755.014 370.794 C 834.311 338.184 906.715 322.983 991.741 317.432 z" fill="rgb(0,0,0)" transform="translate(0,0)"></path>
<metadata><recraft-signature>{"signed_by": "recraft", "signature_b64": "MQ4JJe/cZZgXTWxSTRhdu6w8vM1qXndZ9WB0mERxIpA5QbY1L3zJyf717+P6NnO3jJQ59m+MQM4nz+pyOBkKCA==", "signing_algo": "Ed25519", "generation_timestamp": 1772807804, "identifier": "235016c1-48b2-4885-bd2f-7e1e7e842f08"}</recraft-signature></metadata></svg>