<svg xmlns="http://www.w3.org/2000/svg" height="1024" preserveAspectRatio="none" style="display: block;" version="1.1" viewBox="0 0 2048 2048" width="1024">
<path d="M 0 0 L 2048 0 L 2048 2048 L 0 2048 L 0 0 z" fill="rgb(255,255,255)" transform="translate(0,0)"></path>
<path d="M 740.13 297.215 C 784.902 281.775 820.485 270.786 867.647 261.426 C 1035.82 227.382 1210.52 249.127 1365.22 323.36 C 1519.64 397.989 1645.16 521.428 1722.37 674.579 L 1721.12 676.956 C 1682.16 610.556 1627.49 554.735 1561.93 514.392 C 1464.97 453.737 1347.64 434.806 1236.53 461.89 L 1237.75 465.105 C 1292.9 470.422 1333.01 487.283 1369.83 530.783 C 1399.38 565.686 1410.3 600.884 1413.92 645.742 C 1514.14 644.971 1610.53 684.24 1681.68 754.831 C 1753.16 824.804 1799.18 919.308 1802.34 1019.99 C 1803.01 1025.45 1803.9 1064.58 1802.29 1067.79 C 1798.39 1264.47 1704.93 1457.75 1562.07 1591.1 C 1448.51 1697.09 1303.56 1770.24 1149.6 1793.88 C 1127.5 1797.27 1088.41 1802.51 1066.12 1802.11 C 1058.07 1803.33 1046.8 1802.88 1038.23 1803.26 C 1033.62 1804.49 1000.24 1803.89 994.968 1803.03 C 947.454 1803.24 867.318 1789.34 821.551 1777.24 C 654.834 1732.47 507.655 1633.71 403.028 1496.41 C 364.179 1445.21 331.885 1387.87 306.872 1328.8 C 240.954 1173.13 231.291 981.249 273.306 818.031 C 305.701 692.185 387.062 567.394 501.19 502.018 C 592.688 449.421 701.417 435.589 803.17 463.601 C 896.399 488.264 975.881 549.21 1023.89 632.847 L 1027.28 632.352 C 1025.56 541.443 987.962 454.902 922.677 391.615 C 872.336 343.019 808.883 310.206 740.13 297.215 z" fill="rgb(0,0,0)" transform="translate(0,0)"></path>
<path d="M 1222.25 1231.91 L 1223.88 1230.63 C 1238.41 1333.52 1308.31 1398.69 1412.02 1406.03 C 1404.06 1467.03 1386.01 1511.04 1335.75 1550.67 C 1304.92 1574.97 1267.5 1587.2 1228.15 1588.42 C 1223.91 1652.99 1202.73 1705.59 1153 1749.23 C 1123.16 1775.29 1086.93 1792.94 1048.02 1800.36 C 1045.09 1800.5 1042.01 1800.96 1038.98 1801.2 C 1036.64 1801.23 1028.43 1801.91 1025.96 1802.21 C 1027.19 1784.72 1026.75 1765.43 1026.68 1747.79 L 1026.48 1670.67 L 1026.65 1404.98 C 1039.74 1403.83 1052.43 1402.84 1065.31 1400.07 C 1151.7 1381.47 1207.96 1317.37 1222.25 1231.91 z" fill="rgb(255,255,255)" transform="translate(0,0)"></path>
<path d="M 1448.04 1025.09 L 1801.5 1024.87 C 1801.49 1033.33 1800.5 1040.33 1800.4 1047.81 C 1796.5 1070.88 1792.2 1094.89 1785.04 1117.23 C 1758.36 1200.47 1698.81 1283.37 1627.55 1334.09 C 1579.31 1368.79 1523.56 1391.6 1464.84 1400.67 C 1462.57 1399.67 1462.6 1399.68 1460.68 1398.33 C 1481.4 1391.93 1496.12 1385.51 1514.41 1373.32 C 1556.71 1344.69 1585.96 1300.48 1595.78 1250.35 C 1605.14 1201.06 1594.69 1150.07 1566.7 1108.43 C 1535.16 1062.49 1490.67 1037.22 1436.46 1026.93 C 1440.3 1026.2 1444.18 1025.76 1448.04 1025.09 z" fill="rgb(255,255,255)" transform="translate(0,0)"></path>
<path d="M 1413.92 645.742 C 1414.44 647.761 1415.43 650.636 1414.97 652.705 C 1413.61 658.934 1369.25 700.906 1361.16 709.075 C 1301.2 770.348 1240.82 831.198 1180 891.62 L 1136.52 935.135 C 1130.98 940.676 1124.71 947.145 1118.81 952.402 C 1116.68 954.297 1114.68 953.278 1112.23 952.7 C 1110.52 950.36 1109.82 949.836 1109.26 947.006 C 1111.39 941.203 1161.96 892.479 1170.09 884.248 L 1301.13 751.914 C 1322.85 730.36 1344.43 708.669 1365.87 686.842 C 1378.49 673.965 1391.34 660.416 1404.56 648.129 C 1407.19 645.684 1410.23 645.94 1413.92 645.742 z" fill="rgb(250,179,44)" transform="translate(0,0)"></path>
<path d="M 1802.34 1019.99 C 1803.01 1025.45 1803.9 1064.58 1802.29 1067.79 C 1801 1059.68 1804.35 1053.6 1800.4 1047.81 C 1800.5 1040.33 1801.49 1033.33 1801.5 1024.87 L 1802.34 1019.99 z" fill="rgb(106,106,107)" transform="translate(0,0)"></path>
<path d="M 1025.96 1802.21 C 1028.43 1801.91 1036.64 1801.23 1038.98 1801.2 C 1038.73 1801.89 1038.48 1802.57 1038.23 1803.26 C 1033.62 1804.49 1000.24 1803.89 994.968 1803.03 C 1001.23 1802.51 1022.43 1803.59 1025.96 1802.21 z" fill="rgb(106,106,107)" transform="translate(0,0)"></path>
<path d="M 1464.84 1400.67 C 1462.77 1401.38 1440.41 1404.14 1438.72 1403.27 L 1438.65 1402.95 C 1445.69 1401.49 1453.71 1399.47 1460.68 1398.33 C 1462.6 1399.68 1462.57 1399.67 1464.84 1400.67 z" fill="rgb(146,145,149)" transform="translate(0,0)"></path>
<path d="M 1038.98 1801.2 C 1042.01 1800.96 1045.09 1800.5 1048.02 1800.36 C 1052.32 1802.84 1059.16 1801.3 1066.12 1802.11 C 1058.07 1803.33 1046.8 1802.88 1038.23 1803.26 C 1038.48 1802.57 1038.73 1801.89 1038.98 1801.2 z" fill="rgb(38,35,36)" transform="translate(0,0)"></path>
<path d="M 1225.1 464.532 C 1228.66 464.326 1233.1 462.938 1236.53 461.89 L 1237.75 465.105 L 1236.84 465.222 C 1233.3 465.652 1230.9 465.771 1227.38 466.454 L 1225.1 464.532 z" fill="rgb(214,212,216)" transform="translate(0,0)"></path>
<path d="M 1436.46 1026.93 C 1434.93 1027.08 1429.5 1027.24 1428.47 1026.19 C 1429 1024.03 1445.54 1024.96 1448.04 1025.09 C 1444.18 1025.76 1440.3 1026.2 1436.46 1026.93 z" fill="rgb(106,106,107)" transform="translate(0,0)"></path>
<path d="M 1023.89 632.847 L 1027.28 632.352 C 1027.35 633.367 1027.92 637.416 1027.24 638.234 C 1025.99 638.131 1024.36 633.88 1023.89 632.847 z" fill="rgb(255,255,255)" transform="translate(0,0)"></path>
<path d="M 1227.38 466.454 C 1226.24 466.686 1221.56 467.747 1220.72 466.493 C 1221.28 465.412 1224.21 464.806 1225.1 464.532 L 1227.38 466.454 z" fill="rgb(66,66,71)" transform="translate(0,0)"></path>
<path d="M 1223.84 1226.01 C 1223.95 1227.67 1223.91 1228.97 1223.88 1230.63 L 1222.25 1231.91 C 1222.01 1230.33 1221.79 1228.88 1221.61 1227.28 L 1223.84 1226.01 z" fill="rgb(146,145,149)" transform="translate(0,0)"></path>
<path d="M 1221.61 1227.28 C 1221.7 1226.7 1222.13 1221.24 1223.57 1221.75 C 1224.15 1223.16 1223.89 1224.45 1223.84 1226.01 L 1221.61 1227.28 z" fill="rgb(66,66,71)" transform="translate(0,0)"></path>
<path d="M 256.351 965.996 C 280.613 838.618 368.984 724.269 488.454 672.593 C 528.878 655.276 572.034 645.21 615.948 642.855 C 621.472 642.512 632.539 641.693 637.944 643.542 C 639.296 644.005 639.103 645.571 639.574 647.69 C 639.185 650.993 638.807 653.154 639.057 656.514 C 639.936 731.702 640.099 806.897 639.546 882.088 C 639.65 926.527 641.342 979.235 639.214 1023.18 C 532.057 1019.6 456.036 949.087 447.528 841.778 C 439.598 841.774 431.683 841.726 423.763 842.226 C 347.532 847.038 284.278 894.596 258.798 966.647 L 256.351 965.996 z" fill="rgb(255,255,255)" transform="translate(0,0)"></path>
<path d="M 639.214 1023.18 C 694.377 1025.48 742.951 1043.26 781.07 1084.62 C 815.173 1121.47 833.385 1170.27 831.764 1220.46 C 829.827 1267.71 807.683 1314.23 774.382 1347.52 C 738.124 1383.12 689.747 1403.7 638.954 1405.12 L 638.856 1160.21 L 638.777 1070.09 C 638.808 1056.31 638.389 1036.66 639.214 1023.18 z" fill="rgb(255,255,255)" transform="translate(0,0)"></path>
<path d="M 642.437 1442.22 C 666.038 1536 730.897 1587.94 826.614 1595.16 C 829.054 1659.55 849.002 1703.74 896.349 1749.09 C 918.148 1769.96 951.86 1788.19 980.809 1796.53 L 977.009 1798.59 C 963.728 1796.03 951.04 1794.64 937.767 1791.42 C 879.641 1777.58 825.402 1750.77 779.123 1712.97 C 699.284 1646 649.412 1549.99 640.534 1446.16 L 642.437 1442.22 z" fill="rgb(255,255,255)" transform="translate(0,0)"></path>
<path d="M 255.585 1071.17 C 268.813 1120.62 298.764 1158.37 342.899 1184.4 C 377.329 1204.71 407.43 1209.1 446.327 1210.97 C 448.521 1299.01 502.272 1373.12 587.539 1398.33 L 586.233 1399.27 C 584.774 1400.38 583.991 1400.54 582.177 1400.67 C 520.663 1392.32 462.057 1369.31 411.296 1333.58 C 336.067 1279.09 282.561 1199.72 260.263 1109.55 C 257.4 1098.02 255.462 1085.31 253.497 1073.55 L 255.585 1071.17 z" fill="rgb(255,255,255)" transform="translate(0,0)"></path>
<path d="M 1105.49 1026.03 C 1103.71 1069.34 1067.22 1103.03 1023.91 1101.36 C 980.601 1099.69 946.816 1063.28 948.384 1019.97 C 949.953 976.652 986.283 942.78 1029.6 944.244 C 1072.92 945.709 1106.88 981.958 1105.52 1025.28 C 1105.51 1025.53 1105.5 1025.78 1105.49 1026.03 z" fill="rgb(250,179,44)" transform="translate(0,0)"></path>
<path d="M 1123.49 1025.15 C 1205.37 1023.92 1294.49 1023.64 1376.17 1025.07 L 1375.54 1028.02 C 1340.46 1037.29 1311.71 1049.8 1285.09 1075.28 C 1253.44 1105.57 1229.02 1149.17 1224.76 1193.15 C 1223.77 1191.94 1223.01 1191.01 1222.1 1189.74 C 1217 1121.42 1169.11 1057.16 1108.74 1026.75 C 1107.22 1026.55 1106.94 1026.54 1105.49 1026.03 C 1105.5 1025.78 1105.51 1025.53 1105.52 1025.28 C 1111.5 1024.88 1117.5 1024.84 1123.49 1025.15 z" fill="rgb(255,255,255)" transform="translate(0,0)"></path>
<path d="M 1105.52 1025.28 C 1111.5 1024.88 1117.5 1024.84 1123.49 1025.15 C 1117.99 1025.97 1114.29 1025.65 1108.74 1026.75 C 1107.22 1026.55 1106.94 1026.54 1105.49 1026.03 C 1105.5 1025.78 1105.51 1025.53 1105.52 1025.28 z" fill="rgb(171,171,173)" transform="translate(0,0)"></path>
<path d="M 639.574 647.69 C 643.41 645.896 641.497 646.117 645.487 646.753 C 650.804 650.695 655.358 655.642 660.084 660.26 C 683.02 682.671 704.87 706.164 727.66 728.719 C 776.431 776.891 824.826 825.44 872.843 874.364 C 894.523 896.16 916.24 917.98 938.377 939.307 C 942.854 943.62 944.749 947.36 940.736 952.474 C 939.029 952.927 936.911 953.708 935.399 952.343 C 906.569 926.317 872.19 889.678 845.225 862.781 L 698.993 716.578 L 661.427 678.737 C 654.534 671.922 645.197 663.53 639.057 656.514 C 638.807 653.154 639.185 650.993 639.574 647.69 z" fill="rgb(250,179,44)" transform="translate(0,0)"></path>
<path d="M 1409.1 841.103 C 1413.23 842.879 1414.63 843.245 1414.77 847.955 C 1413.37 850.646 1411.41 852.853 1408.67 854.225 C 1394.72 861.205 1381.18 868.915 1367.53 876.475 C 1325.73 899.738 1283.67 922.527 1241.36 944.837 C 1219.73 956.347 1198.2 968.031 1176.77 979.888 C 1165.52 986.041 1149.75 995.241 1138.35 1000.26 C 1135.23 998.628 1135.44 998.648 1133.18 995.883 C 1132.78 993.618 1132.31 993.505 1133.1 991.748 C 1134.02 989.733 1136.3 987.793 1138.24 986.745 C 1153.7 978.419 1169.36 969.971 1184.77 961.584 L 1287.78 905.819 L 1361.79 865.953 C 1376.17 858.138 1394.51 847.488 1409.1 841.103 z" fill="rgb(250,179,44)" transform="translate(0,0)"></path>
<path d="M 643.735 840.423 C 649.77 841.981 666.004 851.338 672.17 854.644 L 727.632 884.497 L 836.039 943.761 C 847.408 949.895 916.659 985.344 920.368 991.174 C 920.348 994.954 919.65 994.614 917.101 998.442 C 916.902 998.495 916.706 998.563 916.503 998.6 C 910.408 999.708 872.741 977.257 865.576 973.402 L 703.023 884.792 C 689.865 877.562 676.639 870.454 663.348 863.47 C 656.309 859.773 648.902 856.205 642.168 852.073 C 637.645 849.297 641.492 843.258 643.735 840.423 z" fill="rgb(250,179,44)" transform="translate(0,0)"></path>
<path d="M 831.311 644.657 C 832.64 644.757 833.96 644.921 835.213 645.415 C 840.959 647.68 864.065 693.847 868.057 701.156 L 959.983 867.692 C 966.785 880.015 977.518 898.647 984.105 911.868 C 985.213 914.093 982.594 917.177 981.173 919.388 C 978.084 919.098 978.004 918.942 975.064 917.796 C 966.759 909.45 842.951 679.689 827.986 651.954 C 826.895 649.931 829.819 646.736 831.311 644.657 z" fill="rgb(250,179,44)" transform="translate(0,0)"></path>
<path d="M 1218.03 644.581 C 1221.04 645 1221.46 645.458 1224.11 646.878 C 1227.26 651.475 1226.46 652.567 1223.86 657.339 C 1194.75 710.904 1163.85 763.894 1134.68 817.382 L 1097.5 884.814 C 1093.08 892.816 1082 914.166 1076.81 920.543 C 1071.01 919.017 1069.78 918.609 1069.08 912.721 C 1071.89 905.006 1093.36 867.227 1098.86 857.314 L 1167.11 735.133 C 1179.01 713.815 1190.08 691.821 1202.28 670.681 C 1206.37 663.599 1213.03 650.477 1218.03 644.581 z" fill="rgb(250,179,44)" transform="translate(0,0)"></path>
<path d="M 1026.51 642.487 C 1028.98 644.225 1032.8 646.705 1033.03 649.591 C 1034.01 661.436 1033.73 675.026 1033.74 686.922 L 1033.69 767.524 L 1033.92 860.016 C 1033.97 874.857 1034.08 890.083 1033.94 904.943 C 1033.9 908.283 1032.37 910.072 1030.43 912.714 C 1027.18 912.004 1026.04 912.048 1023.59 909.76 C 1020.33 901.893 1021.71 746.682 1021.7 726.722 L 1021.68 673.363 C 1021.67 665.629 1021.58 657.36 1021.72 649.587 C 1021.77 646.537 1024.27 644.837 1026.51 642.487 z" fill="rgb(250,179,44)" transform="translate(0,0)"></path>
<path d="M 587.539 1398.33 C 588.074 1398.38 609.405 1402.54 610.137 1402.87 C 610.549 1403.42 610.489 1403.23 610.521 1403.5 C 605.558 1403.53 585.939 1401.99 582.177 1400.67 C 583.991 1400.54 584.774 1400.38 586.233 1399.27 L 587.539 1398.33 z" fill="rgb(146,145,149)" transform="translate(0,0)"></path>
<path d="M 258.798 966.647 C 257.012 974.987 252.848 988.96 252.487 997.279 C 252.2 989.029 253.74 973.618 256.351 965.996 L 258.798 966.647 z" fill="rgb(171,171,173)" transform="translate(0,0)"></path>
<path d="M 253.497 1073.55 C 252.963 1070.38 250.639 1056.1 251.501 1054.02 C 251.568 1054 251.636 1053.99 251.703 1053.98 C 252.547 1055.09 255.315 1069.24 255.585 1071.17 L 253.497 1073.55 z" fill="rgb(146,145,149)" transform="translate(0,0)"></path>
<path d="M 980.809 1796.53 C 986.91 1797.58 992.723 1798.52 998.859 1799.41 C 989.192 1800 987.023 1800.46 977.009 1798.59 L 980.809 1796.53 z" fill="rgb(171,171,173)" transform="translate(0,0)"></path>
<path d="M 640.534 1446.16 C 640.014 1442.5 640.005 1439.03 640.04 1435.35 L 640.701 1434.43 L 640.301 1434.11 L 640.487 1433.92 L 640.704 1434.15 L 640.518 1434.26 L 640.275 1435.34 L 641.341 1435.89 C 641.639 1437.4 641.937 1438.89 642.152 1440.43 L 642.437 1442.22 L 640.534 1446.16 z" fill="rgb(214,212,216)" transform="translate(0,0)"></path>
<path d="M 1222.1 1189.74 C 1223.01 1191.01 1223.77 1191.94 1224.76 1193.15 C 1224.8 1195.03 1224.67 1196.36 1224.46 1198.24 L 1224.45 1197.99 L 1223.23 1199.13 C 1223.36 1199.53 1223.5 1199.92 1223.63 1200.31 C 1222.71 1199.09 1222.12 1191.47 1222.1 1189.74 z" fill="rgb(146,145,149)" transform="translate(0,0)"></path>
<path d="M 1376.17 1025.07 C 1378.08 1025 1379.5 1024.99 1381.4 1025.02 L 1381.85 1026.8 C 1379.74 1027.14 1377.63 1027.55 1375.54 1028.02 L 1376.17 1025.07 z" fill="rgb(214,212,216)" transform="translate(0,0)"></path>
<path d="M 1388.08 1024.7 L 1389.85 1024.99 C 1390.39 1025.04 1390.95 1025.12 1391.36 1025.52 C 1390.83 1026.18 1385 1026.88 1383.83 1027.05 L 1381.85 1026.8 L 1381.4 1025.02 C 1383.72 1025.05 1385.78 1024.87 1388.08 1024.7 z" fill="rgb(66,66,71)" transform="translate(0,0)"></path>
<path d="M 1381.4 1025.02 C 1383.72 1025.05 1385.78 1024.87 1388.08 1024.7 C 1386.37 1025.47 1385.44 1026.07 1383.83 1027.05 L 1381.85 1026.8 L 1381.4 1025.02 z" fill="rgb(146,145,149)" transform="translate(0,0)"></path>
<path d="M 1722.37 674.579 C 1725 679.558 1728.75 686.772 1730.27 692.079 C 1727.36 689.03 1722.74 680.768 1721.12 676.956 L 1722.37 674.579 z" fill="rgb(38,35,36)" transform="translate(0,0)"></path>
<path d="M 1730.27 692.079 C 1733.52 694.598 1735.01 698.874 1736.35 702.684 C 1732.33 700.374 1730.82 696.626 1730.27 692.079 z" fill="rgb(214,212,216)" transform="translate(0,0)"></path>
<metadata><recraft-signature>{"signed_by": "recraft", "signature_b64": "V2n10/d+dZeUEciJnLF7eJdw2gR3Xm0PbjzbOTkbjm+erSe8sZYPCR8j4pt6nfBdYX0P6t/g5+6N+SoUrXWIAA==", "signing_algo": "Ed25519", "generation_timestamp": 1772808252, "identifier": "66153e1e-681a-4960-b21d-b59c164283a6"}</recraft-signature></metadata></svg>