<svg xmlns="http://www.w3.org/2000/svg" height="1024" preserveAspectRatio="none" style="display: block;" version="1.1" viewBox="0 0 2048 2048" width="1024">
<defs>
	<linearGradient gradientUnits="userSpaceOnUse" id="Gradient1" x1="1633.27" x2="1006.61" y1="1290.4" y2="1108.99">
		<stop class="stop0" offset="0" stop-color="rgb(193,144,56)" stop-opacity="1"></stop>
		<stop class="stop1" offset="1" stop-color="rgb(245,203,131)" stop-opacity="1"></stop>
	</linearGradient>
	<linearGradient gradientUnits="userSpaceOnUse" id="Gradient2" x1="1061.68" x2="989.804" y1="1007.94" y2="1015.01">
		<stop class="stop0" offset="0" stop-color="rgb(217,173,98)" stop-opacity="1"></stop>
		<stop class="stop1" offset="1" stop-color="rgb(254,212,149)" stop-opacity="1"></stop>
	</linearGradient>
	<linearGradient gradientUnits="userSpaceOnUse" id="Gradient3" x1="1393.63" x2="889.971" y1="1058.09" y2="1037.9">
		<stop class="stop0" offset="0" stop-color="rgb(159,114,47)" stop-opacity="1"></stop>
		<stop class="stop1" offset="1" stop-color="rgb(207,163,95)" stop-opacity="1"></stop>
	</linearGradient>
	<linearGradient gradientUnits="userSpaceOnUse" id="Gradient4" x1="1470.2" x2="383.489" y1="956.201" y2="1229.92">
		<stop class="stop0" offset="0" stop-color="rgb(221,176,95)" stop-opacity="1"></stop>
		<stop class="stop1" offset="1" stop-color="rgb(255,216,150)" stop-opacity="1"></stop>
	</linearGradient>
</defs>
<path d="M 0 0 L 2048 0 L 2048 2048 L 0 2048 L 0 0 z" fill="rgb(255,255,255)" transform="translate(0,0)"></path>
<path d="M 308.422 739.904 C 349.414 636.014 412.664 542.364 493.725 465.537 C 640.626 325.123 837.257 248.763 1040.42 253.233 C 1248.31 256.949 1445.87 344.494 1588.27 495.994 C 1612.72 518.848 1642.37 559.009 1661.24 587.258 C 1663.17 590.148 1671.55 602.682 1672.65 605.202 C 1700.62 644.797 1722.95 692.732 1741.68 737.304 C 1752.13 760.598 1765.01 801.939 1771.6 827.36 C 1783.19 869.681 1790.73 913.011 1794.1 956.762 C 1807.21 1107.97 1778.92 1261.91 1704.32 1394.89 C 1602.85 1578.91 1431.68 1714.44 1229.29 1771.01 C 1191.12 1781.7 1142.38 1791 1102.77 1794.4 L 1094.52 1795.11 C 1092.05 1796.24 1060.35 1801.93 1057.09 1802.31 C 1026.97 1805.88 984.762 1804.08 955.379 1795.19 C 922.912 1792.72 882.802 1785.72 851.119 1778.41 C 648.972 1731.02 474.219 1604.65 365.877 1427.53 C 273.591 1276.59 236.361 1098.37 260.5 923.104 C 265.813 884.147 271.409 867.645 280.058 830.437 C 278.887 819.524 301.676 749.02 308.422 739.904 z" fill="url(#Gradient4)" transform="translate(0,0)"></path>
<path d="M 814.993 1372.58 C 732.432 1325.78 667.71 1263.85 628.857 1176.02 C 583.841 1072.67 581.493 955.713 622.325 850.636 C 663.867 741.119 747.927 653.052 855.392 606.457 C 940.912 568.989 1039.8 560.727 1130.36 583.938 C 1151.17 589.274 1170.85 596.618 1190.84 604.412 C 1199.54 609.446 1210.52 613.862 1219.75 618.804 C 1240.2 629.762 1258.82 641.384 1277.66 654.804 C 1299.92 670.452 1315.99 691.946 1337.12 708.909 C 1389.91 751.287 1461.19 763.493 1526.05 747.204 C 1589.71 731.218 1660.79 672.522 1672.65 605.202 C 1700.62 644.797 1722.95 692.732 1741.68 737.304 C 1731.75 743.161 1714.42 747.005 1703.34 751.792 C 1688.31 758.282 1673.93 764.916 1659.51 772.678 C 1563.9 824.702 1492.85 912.531 1461.93 1016.89 C 1452.22 1049.39 1449.84 1082.47 1440.91 1115.92 C 1413.71 1217.85 1346.53 1298.6 1260.22 1356.99 C 1252.53 1362.2 1244.16 1367.44 1236.75 1372.94 C 1236.36 1400.65 1236.22 1428.37 1236.32 1456.08 L 1095.07 1455.97 C 1088.69 1456.35 1083.62 1456.32 1077.23 1456.21 C 1046.4 1456.05 1015.57 1456.13 984.739 1456.45 C 981.934 1458.17 958.802 1457.39 954.951 1456.88 C 949.265 1456.65 945.268 1456.51 939.506 1456.85 C 929.908 1455.64 906.87 1456.05 896.411 1456.02 L 814.632 1456.2 L 814.993 1372.58 z" fill="url(#Gradient3)" transform="translate(0,0)"></path>
<path d="M 814.993 1372.58 C 732.432 1325.78 667.71 1263.85 628.857 1176.02 C 583.841 1072.67 581.493 955.713 622.325 850.636 C 663.867 741.119 747.927 653.052 855.392 606.457 C 940.912 568.989 1039.8 560.727 1130.36 583.938 C 1151.17 589.274 1170.85 596.618 1190.84 604.412 C 1199.54 609.446 1210.52 613.862 1219.75 618.804 C 1240.2 629.762 1258.82 641.384 1277.66 654.804 C 1299.92 670.452 1315.99 691.946 1337.12 708.909 C 1389.91 751.287 1461.19 763.493 1526.05 747.204 C 1589.71 731.218 1660.79 672.522 1672.65 605.202 C 1700.62 644.797 1722.95 692.732 1741.68 737.304 C 1731.75 743.161 1714.42 747.005 1703.34 751.792 C 1688.31 758.282 1673.93 764.916 1659.51 772.678 C 1563.9 824.702 1492.85 912.531 1461.93 1016.89 C 1452.22 1049.39 1449.84 1082.47 1440.91 1115.92 C 1413.71 1217.85 1346.53 1298.6 1260.22 1356.99 C 1252.53 1362.2 1244.16 1367.44 1236.75 1372.94 C 1236.36 1400.65 1236.22 1428.37 1236.32 1456.08 L 1095.07 1455.97 L 1095.02 1370.44 C 1140.55 1360.51 1174.06 1347.59 1214.49 1324.33 C 1296.43 1277.18 1362.29 1188.71 1385.89 1097.08 C 1410.34 1003.13 1396.52 903.313 1347.46 819.535 C 1297.16 734.449 1216.1 670.103 1119.86 645.626 C 1049.41 627.397 975.132 630.534 906.472 654.638 C 896.601 658.16 877.75 665.203 869.009 670.409 C 874.018 671.05 899.412 659.162 905.672 656.078 L 907.803 658.285 L 906.449 655.713 L 908.064 657.728 L 908.249 657.545 C 905.024 664.344 903.557 664.054 907.155 671.34 C 900.336 676.44 869.497 684.031 868.052 690.456 C 850.795 700.409 836.886 708.045 820.666 719.887 C 755.08 767.856 707.669 836.619 686.156 914.974 C 662.542 1001.81 674.653 1101.44 719.906 1179.42 C 757.472 1245.3 815.084 1297.47 884.355 1328.33 C 898.772 1334.79 912.311 1339.7 927.432 1344.02 C 929.526 1344.62 937.134 1346.84 938.621 1347.66 C 941.905 1350.69 951.746 1353.94 956.164 1351.96 C 958.468 1346.47 957.053 1283.78 957.354 1272.13 L 959.703 1272.83 C 960.5 1274.75 960.619 1275.15 961.071 1277.18 C 964.076 1278.4 965.755 1279.21 968.994 1279.8 C 970.772 1277.19 969.753 1277.65 972.048 1276.68 C 972.274 1283.7 970.045 1304.55 972.864 1307.65 C 972.977 1318.99 972.302 1344.08 973.468 1353.87 C 976.005 1356.1 974.737 1355.14 978.664 1355.92 C 980.522 1360.86 978.254 1366.23 976.132 1371.27 L 972.937 1372.92 C 974.13 1398.67 973.313 1430.14 973.411 1456.43 L 984.739 1456.45 C 981.934 1458.17 958.802 1457.39 954.951 1456.88 C 949.265 1456.65 945.268 1456.51 939.506 1456.85 C 929.908 1455.64 906.87 1456.05 896.411 1456.02 L 814.632 1456.2 L 814.993 1372.58 z" fill="rgb(0,0,0)" transform="translate(0,0)"></path>
<path d="M 869.009 670.409 C 874.018 671.05 899.412 659.162 905.672 656.078 L 907.803 658.285 L 906.449 655.713 L 908.064 657.728 L 908.249 657.545 C 905.024 664.344 903.557 664.054 907.155 671.34 C 900.336 676.44 869.497 684.031 868.052 690.456 C 850.795 700.409 836.886 708.045 820.666 719.887 C 755.08 767.856 707.669 836.619 686.156 914.974 C 662.542 1001.81 674.653 1101.44 719.906 1179.42 C 757.472 1245.3 815.084 1297.47 884.355 1328.33 C 898.772 1334.79 912.311 1339.7 927.432 1344.02 C 929.526 1344.62 937.134 1346.84 938.621 1347.66 C 941.905 1350.69 951.746 1353.94 956.164 1351.96 C 958.468 1346.47 957.053 1283.78 957.354 1272.13 L 959.703 1272.83 C 960.5 1274.75 960.619 1275.15 961.071 1277.18 C 964.076 1278.4 965.755 1279.21 968.994 1279.8 C 970.772 1277.19 969.753 1277.65 972.048 1276.68 C 972.274 1283.7 970.045 1304.55 972.864 1307.65 C 972.977 1318.99 972.302 1344.08 973.468 1353.87 C 976.005 1356.1 974.737 1355.14 978.664 1355.92 C 980.522 1360.86 978.254 1366.23 976.132 1371.27 L 972.937 1372.92 C 974.13 1398.67 973.313 1430.14 973.411 1456.43 L 984.739 1456.45 C 981.934 1458.17 958.802 1457.39 954.951 1456.88 C 956.094 1430.08 955.259 1397.54 955.27 1370.31 C 927.107 1364.99 892.749 1352.85 867.06 1340.5 C 777.881 1297.93 709.32 1221.61 676.524 1128.39 C 644.436 1035.64 650.159 933.99 692.456 845.428 C 723.298 781.576 771.634 727.792 831.842 690.332 C 841.427 684.356 858.604 674.031 869.009 670.409 z" fill="rgb(226,184,119)" transform="translate(0,0)"></path>
<path d="M 868.052 690.456 C 892.761 680.94 902.82 674.554 930.25 666.412 C 1009.05 643.39 1093.44 648.835 1168.63 681.792 C 1253.72 720.173 1320.46 790.27 1354.62 877.145 C 1371.59 921.322 1379.01 957.474 1379.02 1004.96 C 1350.66 1004.41 1322.29 1004.33 1293.93 1004.72 C 1291.56 930.926 1263.26 864.679 1209.2 813.881 C 1157.3 764.98 1088.05 738.784 1016.78 741.092 C 990.864 742.149 965.238 746.973 940.71 755.412 C 938.247 763.37 938.99 764.449 939.765 772.654 C 938.773 773.906 937.922 774.981 937.211 775.878 C 875.79 799.692 826.208 846.723 799.186 906.803 C 771.093 969.226 771.375 1039.03 795.882 1102.49 C 820 1163.51 867.465 1212.38 927.751 1238.28 C 936.86 1242.31 946.224 1245.73 955.783 1248.53 C 952.112 1251.3 953.048 1249.58 952.173 1253.44 C 955.687 1263.75 956.266 1261.47 957.354 1272.13 C 957.053 1283.78 958.468 1346.47 956.164 1351.96 C 951.746 1353.94 941.905 1350.69 938.621 1347.66 C 937.134 1346.84 929.526 1344.62 927.432 1344.02 C 912.311 1339.7 898.772 1334.79 884.355 1328.33 C 815.084 1297.47 757.472 1245.3 719.906 1179.42 C 674.653 1101.44 662.542 1001.81 686.156 914.974 C 707.669 836.619 755.08 767.856 820.666 719.887 C 836.886 708.045 850.795 700.409 868.052 690.456 z" fill="rgb(0,0,0)" transform="translate(0,0)"></path>
<path d="M 955.232 1267.37 C 873.037 1242.44 807.981 1184.44 777.258 1103.66 C 752.338 1037.73 754.314 964.653 782.76 900.167 C 814.934 829.014 868.228 782.834 940.71 755.412 C 938.247 763.37 938.99 764.449 939.765 772.654 C 938.773 773.906 937.922 774.981 937.211 775.878 C 875.79 799.692 826.208 846.723 799.186 906.803 C 771.093 969.226 771.375 1039.03 795.882 1102.49 C 820 1163.51 867.465 1212.38 927.751 1238.28 C 936.86 1242.31 946.224 1245.73 955.783 1248.53 C 952.112 1251.3 953.048 1249.58 952.173 1253.44 C 955.687 1263.75 956.266 1261.47 957.354 1272.13 C 957.053 1283.78 958.468 1346.47 956.164 1351.96 C 951.746 1353.94 941.905 1350.69 938.621 1347.66 C 943.716 1348.5 949.976 1350.32 955.069 1351.64 C 955.403 1323.55 955.457 1295.46 955.232 1267.37 z" fill="rgb(210,164,87)" transform="translate(0,0)"></path>
<path d="M 937.211 775.878 C 1001.22 752.417 1068.43 752.337 1130.86 781.394 C 1191.52 810.147 1238.39 861.683 1261.27 924.801 C 1271.6 953.303 1275.05 974.603 1277.19 1004.38 C 1248.82 1004.76 1213.84 1005.55 1185.88 1004.45 C 1183.22 959.118 1166.7 919.64 1132.19 889.142 C 1100.31 861.035 1058.51 846.876 1016.12 849.831 C 977.543 852.538 940.603 868.865 913.127 897.666 C 912.961 897.915 912.796 898.164 912.631 898.413 L 913.229 900.223 L 910.749 903.059 C 911.06 906.975 914.648 912.787 916.715 916.348 L 919.384 914.741 L 920.421 915.252 C 869.65 977.274 873.586 1064.51 936.067 1117.87 C 943.695 1124.38 952.047 1128.84 960.13 1134.51 L 958.481 1135.21 C 956.538 1134.09 954.829 1133.07 952.941 1131.87 C 947.791 1133.05 945.124 1134.8 942.052 1139.08 L 941.663 1141.71 C 942.926 1142.4 944.184 1143.09 945.439 1143.78 L 944.88 1145.48 C 948.85 1148.32 950.813 1149.32 955.199 1151.58 L 955.611 1217 C 955.676 1225.66 956.341 1240.63 955.783 1248.53 C 946.224 1245.73 936.86 1242.31 927.751 1238.28 C 867.465 1212.38 820 1163.51 795.882 1102.49 C 771.375 1039.03 771.093 969.226 799.186 906.803 C 826.208 846.723 875.79 799.692 937.211 775.878 z" fill="rgb(0,0,0)" transform="translate(0,0)"></path>
<path d="M 912.631 898.413 L 913.229 900.223 L 910.749 903.059 C 911.06 906.975 914.648 912.787 916.715 916.348 L 919.384 914.741 L 920.421 915.252 C 869.65 977.274 873.586 1064.51 936.067 1117.87 C 943.695 1124.38 952.047 1128.84 960.13 1134.51 L 958.481 1135.21 C 956.538 1134.09 954.829 1133.07 952.941 1131.87 C 947.791 1133.05 945.124 1134.8 942.052 1139.08 L 941.663 1141.71 C 942.926 1142.4 944.184 1143.09 945.439 1143.78 L 944.88 1145.48 C 931.99 1138.74 917.214 1125.62 907.493 1114.91 C 879.585 1083.93 865.166 1043.11 867.425 1001.48 C 869.134 966.613 886.684 922.169 912.631 898.413 z" fill="rgb(210,164,87)" transform="translate(0,0)"></path>
<path d="M 920.421 915.252 C 951.719 884.114 981.772 866.839 1027.45 866.807 C 1064.71 866.66 1100.46 881.562 1126.59 908.133 C 1154.12 936.094 1164.22 966.669 1169.32 1004.46 C 1137.77 1004.79 1095.55 1005.72 1064.32 1004.45 C 1062.55 1011.97 1062.84 1014.98 1063.88 1022.76 C 1098.1 1023.24 1134.91 1021.46 1168.6 1022.71 C 1162.13 1064.32 1142.7 1099.63 1108.35 1124.7 C 1077.97 1146.49 1040.15 1155.22 1003.29 1148.96 C 985.46 1146.1 976.077 1142.15 960.13 1134.51 C 952.047 1128.84 943.695 1124.38 936.067 1117.87 C 873.586 1064.51 869.65 977.274 920.421 915.252 z" fill="rgb(0,0,0)" transform="translate(0,0)"></path>
<path d="M 1063.88 1022.76 C 1050.31 1057.66 1007.81 1060.51 991.044 1026.5 C 982.695 1009.56 993.939 983.243 1012.54 976.133 C 1033.66 968.062 1055.75 978.163 1062.98 1000.5 C 1063.44 1001.98 1063.75 1002.94 1064.32 1004.45 C 1062.55 1011.97 1062.84 1014.98 1063.88 1022.76 z" fill="url(#Gradient2)" transform="translate(0,0)"></path>
<path d="M 973.185 1272.48 C 1008.91 1278.14 1041.19 1279.07 1077.07 1271.58 L 1077.19 1355.32 C 1039.18 1360.48 1016.71 1360.37 978.664 1355.92 C 974.737 1355.14 976.005 1356.1 973.468 1353.87 C 972.302 1344.08 972.977 1318.99 972.864 1307.65 C 973.349 1296.05 973.188 1284.11 973.185 1272.48 z" fill="rgb(0,0,0)" transform="translate(0,0)"></path>
<path d="M 972.937 1372.92 C 1001.11 1379.71 1048.46 1377.93 1077.19 1373.69 C 1077.26 1399.04 1078.29 1431.45 1077.23 1456.21 C 1046.4 1456.05 1015.57 1456.13 984.739 1456.45 L 973.411 1456.43 C 973.313 1430.14 974.13 1398.67 972.937 1372.92 z" fill="rgb(0,0,0)" transform="translate(0,0)"></path>
<path d="M 1293.77 1022.94 C 1322.18 1022.73 1350.59 1022.89 1378.99 1023.41 C 1375.93 1061.85 1369.52 1094.01 1355.49 1130.19 C 1320.32 1220.41 1250.43 1292.74 1161.48 1331 C 1141.02 1340.47 1116.96 1347.19 1095 1352.05 L 1095.01 1267.7 C 1128.91 1259.49 1166.15 1239.28 1192.94 1217.13 C 1256.11 1164.89 1286.39 1104 1293.77 1022.94 z" fill="rgb(0,0,0)" transform="translate(0,0)"></path>
<path d="M 1186.03 1022.94 C 1216.32 1022.78 1246.61 1022.78 1276.9 1022.94 C 1275.61 1035.84 1273.59 1048.67 1270.84 1061.34 C 1255.68 1127.25 1215.15 1184.52 1158.05 1220.74 C 1137.83 1233.49 1117.67 1241.89 1094.98 1248.89 C 1094.95 1219.78 1093.96 1181.48 1095.81 1152.94 C 1106 1147.5 1115.74 1141.27 1124.96 1134.3 C 1160.36 1107.07 1180.34 1066.72 1186.03 1022.94 z" fill="rgb(0,0,0)" transform="translate(0,0)"></path>
<path d="M 973.113 1158.63 C 1006.23 1171.56 1043.7 1170.28 1077.3 1159.93 C 1077.13 1190.85 1077.25 1221.76 1077.67 1252.68 L 1077.07 1253.41 C 1057.61 1262.89 996.741 1258.08 973.181 1253.45 L 973.113 1158.63 z" fill="rgb(0,0,0)" transform="translate(0,0)"></path>
<path d="M 1741.68 737.304 C 1752.13 760.598 1765.01 801.939 1771.6 827.36 C 1783.19 869.681 1790.73 913.011 1794.1 956.762 C 1807.21 1107.97 1778.92 1261.91 1704.32 1394.89 C 1602.85 1578.91 1431.68 1714.44 1229.29 1771.01 C 1191.12 1781.7 1142.38 1791 1102.77 1794.4 L 1094.52 1795.11 C 1092.05 1796.24 1060.35 1801.93 1057.09 1802.31 C 1026.97 1805.88 984.762 1804.08 955.379 1795.19 L 953.423 1792.54 C 946.821 1792.64 928.658 1784.57 922.279 1781.57 C 877.48 1760.48 843.615 1727.08 815.103 1687.25 C 819.667 1685.8 834.429 1684.45 838.032 1687.18 C 844.514 1684.27 1080.38 1685.89 1103.29 1685.74 C 1106.41 1683.82 1142.28 1684.34 1147.99 1684.31 C 1111.21 1683.04 1072.31 1684.64 1035.3 1684.05 C 1015.73 1683.73 998.641 1684.5 978.794 1682.86 L 978.132 1680.03 C 960.866 1678.95 963.405 1665.52 956.295 1653.03 C 954.784 1650.37 955.214 1642.37 955.353 1638.95 L 954.869 1641.5 C 955.147 1630.27 951.208 1615.66 952.737 1608.03 C 955.075 1604.88 961.158 1597.53 965.204 1597.16 C 1002.56 1593.73 1043.71 1599.38 1080.76 1595.88 C 1077.21 1593.67 994.163 1597.6 989.269 1594.39 C 930.71 1593.7 871.583 1594.03 813.011 1594.1 C 813.016 1578.08 813.117 1562.06 813.314 1546.04 C 859.411 1545.74 907.547 1546.88 953.379 1545.83 C 959.322 1543.76 985.87 1545.15 995.185 1544.64 L 992.8 1544.57 L 993.458 1544.27 C 972.75 1543.25 950.778 1546.09 930.614 1541.7 C 920.332 1539.47 925.845 1525.58 924.597 1517.04 C 922.964 1505.88 919.175 1496.05 915.495 1485.57 C 913.646 1480.3 904.944 1464.06 906.432 1460.18 C 913.555 1457.08 929.674 1457.87 938.458 1456.97 L 939.506 1456.85 C 945.268 1456.51 949.265 1456.65 954.951 1456.88 C 958.802 1457.39 981.934 1458.17 984.739 1456.45 C 1015.57 1456.13 1046.4 1456.05 1077.23 1456.21 C 1083.62 1456.32 1088.69 1456.35 1095.07 1455.97 L 1236.32 1456.08 C 1236.22 1428.37 1236.36 1400.65 1236.75 1372.94 C 1244.16 1367.44 1252.53 1362.2 1260.22 1356.99 C 1346.53 1298.6 1413.71 1217.85 1440.91 1115.92 C 1449.84 1082.47 1452.22 1049.39 1461.93 1016.89 C 1492.85 912.531 1563.9 824.702 1659.51 772.678 C 1673.93 764.916 1688.31 758.282 1703.34 751.792 C 1714.42 747.005 1731.75 743.161 1741.68 737.304 z" fill="rgb(0,0,0)" transform="translate(0,0)"></path>
<path d="M 1741.68 737.304 C 1752.13 760.598 1765.01 801.939 1771.6 827.36 C 1759.21 830.618 1745.7 836.119 1733.84 841.131 C 1668.81 868.625 1616.5 912.871 1580.82 973.999 C 1563.62 1003.64 1551.34 1035.87 1544.45 1069.45 C 1540.5 1089.35 1537.88 1111.65 1532.78 1131.05 C 1516.62 1192.61 1488.43 1256.49 1449.43 1307.06 C 1432.69 1328.76 1406.61 1354.87 1386.86 1373.61 C 1356.95 1401.99 1313.09 1435.42 1277.32 1455.88 C 1297.27 1455.14 1325.03 1455.06 1345.06 1455.69 C 1345.03 1485.44 1345.4 1516.35 1344.83 1546.03 L 1256.44 1546.09 C 1256.25 1561.86 1256.18 1577.62 1256.22 1593.38 C 1284.35 1594.72 1316.24 1593.95 1344.8 1594.2 C 1344.71 1624.34 1345.05 1655.72 1344.34 1685.75 C 1308.48 1685.91 1269.84 1684.85 1234.34 1685.74 C 1213.35 1716.49 1196.12 1737.88 1164.9 1759.57 C 1161.89 1761.66 1152.04 1768.48 1148.97 1769.53 C 1139.03 1776.9 1113.98 1788.18 1101.88 1791.6 C 1098.49 1792.78 1096.95 1792.81 1094.52 1795.11 C 1092.05 1796.24 1060.35 1801.93 1057.09 1802.31 C 1026.97 1805.88 984.762 1804.08 955.379 1795.19 L 953.423 1792.54 C 946.821 1792.64 928.658 1784.57 922.279 1781.57 C 877.48 1760.48 843.615 1727.08 815.103 1687.25 C 819.667 1685.8 834.429 1684.45 838.032 1687.18 C 844.514 1684.27 1080.38 1685.89 1103.29 1685.74 C 1106.41 1683.82 1142.28 1684.34 1147.99 1684.31 C 1111.21 1683.04 1072.31 1684.64 1035.3 1684.05 C 1015.73 1683.73 998.641 1684.5 978.794 1682.86 L 978.132 1680.03 C 960.866 1678.95 963.405 1665.52 956.295 1653.03 C 954.784 1650.37 955.214 1642.37 955.353 1638.95 L 954.869 1641.5 C 955.147 1630.27 951.208 1615.66 952.737 1608.03 C 955.075 1604.88 961.158 1597.53 965.204 1597.16 C 1002.56 1593.73 1043.71 1599.38 1080.76 1595.88 C 1077.21 1593.67 994.163 1597.6 989.269 1594.39 C 930.71 1593.7 871.583 1594.03 813.011 1594.1 C 813.016 1578.08 813.117 1562.06 813.314 1546.04 C 859.411 1545.74 907.547 1546.88 953.379 1545.83 C 959.322 1543.76 985.87 1545.15 995.185 1544.64 L 992.8 1544.57 L 993.458 1544.27 C 972.75 1543.25 950.778 1546.09 930.614 1541.7 C 920.332 1539.47 925.845 1525.58 924.597 1517.04 C 922.964 1505.88 919.175 1496.05 915.495 1485.57 C 913.646 1480.3 904.944 1464.06 906.432 1460.18 C 913.555 1457.08 929.674 1457.87 938.458 1456.97 L 939.506 1456.85 C 945.268 1456.51 949.265 1456.65 954.951 1456.88 C 958.802 1457.39 981.934 1458.17 984.739 1456.45 C 1015.57 1456.13 1046.4 1456.05 1077.23 1456.21 C 1083.62 1456.32 1088.69 1456.35 1095.07 1455.97 L 1236.32 1456.08 C 1236.22 1428.37 1236.36 1400.65 1236.75 1372.94 C 1244.16 1367.44 1252.53 1362.2 1260.22 1356.99 C 1346.53 1298.6 1413.71 1217.85 1440.91 1115.92 C 1449.84 1082.47 1452.22 1049.39 1461.93 1016.89 C 1492.85 912.531 1563.9 824.702 1659.51 772.678 C 1673.93 764.916 1688.31 758.282 1703.34 751.792 C 1714.42 747.005 1731.75 743.161 1741.68 737.304 z" fill="url(#Gradient1)" transform="translate(0,0)"></path>
<path d="M 1103.29 1685.74 C 1139.75 1686.01 1176.21 1685.91 1212.67 1685.46 C 1198.47 1705.43 1185.5 1719.28 1166.42 1734.99 C 1161.65 1738.91 1149.85 1747.15 1146.15 1750.66 C 1162.7 1747.02 1203.52 1703.19 1213.35 1687.98 C 1213.76 1687.35 1214.16 1686.72 1214.54 1686.08 L 1231.69 1686 C 1220.8 1702.05 1210.54 1717 1195.57 1731.82 C 1184.51 1742.76 1163.55 1757.79 1150.04 1767.13 C 1149.68 1767.93 1149.32 1768.73 1148.97 1769.53 C 1139.03 1776.9 1113.98 1788.18 1101.88 1791.6 C 1098.49 1792.78 1096.95 1792.81 1094.52 1795.11 C 1092.05 1796.24 1060.35 1801.93 1057.09 1802.31 C 1026.97 1805.88 984.762 1804.08 955.379 1795.19 L 953.423 1792.54 C 946.821 1792.64 928.658 1784.57 922.279 1781.57 C 877.48 1760.48 843.615 1727.08 815.103 1687.25 C 819.667 1685.8 834.429 1684.45 838.032 1687.18 C 844.514 1684.27 1080.38 1685.89 1103.29 1685.74 z" fill="rgb(0,0,0)" transform="translate(0,0)"></path>
<path d="M 815.103 1687.25 C 819.667 1685.8 834.429 1684.45 838.032 1687.18 C 870.875 1727.45 892.229 1748.1 940.883 1769.65 C 1001.4 1790.21 1045.9 1792.34 1108.14 1769.69 C 1121.76 1764.74 1133.11 1756.28 1144.72 1751.27 L 1146.15 1750.66 C 1162.7 1747.02 1203.52 1703.19 1213.35 1687.98 C 1213.76 1687.35 1214.16 1686.72 1214.54 1686.08 L 1231.69 1686 C 1220.8 1702.05 1210.54 1717 1195.57 1731.82 C 1184.51 1742.76 1163.55 1757.79 1150.04 1767.13 C 1149.68 1767.93 1149.32 1768.73 1148.97 1769.53 C 1139.03 1776.9 1113.98 1788.18 1101.88 1791.6 C 1098.49 1792.78 1096.95 1792.81 1094.52 1795.11 C 1092.05 1796.24 1060.35 1801.93 1057.09 1802.31 C 1026.97 1805.88 984.762 1804.08 955.379 1795.19 L 953.423 1792.54 C 946.821 1792.64 928.658 1784.57 922.279 1781.57 C 877.48 1760.48 843.615 1727.08 815.103 1687.25 z" fill="rgb(226,184,119)" transform="translate(0,0)"></path>
<path d="M 815.103 1687.25 C 819.667 1685.8 834.429 1684.45 838.032 1687.18 C 870.875 1727.45 892.229 1748.1 940.883 1769.65 L 939.389 1770.47 C 926.078 1766.22 909.615 1756.33 897.625 1748.38 C 891.136 1744.08 879.861 1734.52 873.174 1729.44 C 872.196 1729.42 871.218 1729.41 870.24 1729.39 L 867.97 1730.74 C 867.221 1734.3 869.443 1737.25 870.348 1741.44 C 872.999 1753.73 899.173 1765.78 908.835 1772.53 C 914.328 1776.37 947.663 1791.06 954.072 1791.36 L 953.423 1792.54 C 946.821 1792.64 928.658 1784.57 922.279 1781.57 C 877.48 1760.48 843.615 1727.08 815.103 1687.25 z" fill="rgb(252,218,167)" transform="translate(0,0)"></path>
<path d="M 953.379 1545.83 L 1236.92 1545.99 L 1237 1593.93 L 989.269 1594.39 C 930.71 1593.7 871.583 1594.03 813.011 1594.1 C 813.016 1578.08 813.117 1562.06 813.314 1546.04 C 859.411 1545.74 907.547 1546.88 953.379 1545.83 z" fill="rgb(0,0,0)" transform="translate(0,0)"></path>
<path d="M 308.422 739.904 C 349.414 636.014 412.664 542.364 493.725 465.537 C 640.626 325.123 837.257 248.763 1040.42 253.233 C 1248.31 256.949 1445.87 344.494 1588.27 495.994 C 1590.28 544.563 1590.1 583.124 1555.42 621.775 C 1534.82 644.733 1506.23 658.781 1475.58 659.932 C 1434.98 661.456 1403.68 646.102 1375.4 618.187 C 1342.12 585.331 1303.69 557.41 1262.04 536.214 C 1257.81 534.059 1244.33 526.995 1240.29 526.41 C 1217.83 513.847 1184.18 503.265 1159.29 496.607 C 1069.09 472.477 977.159 472.211 887.054 497.723 C 750.797 536.357 635.563 627.716 566.868 751.569 C 542.594 795.238 531.165 832.073 517.33 879.491 C 468.623 816.469 385.953 759.056 308.422 739.904 z" fill="rgb(0,0,0)" transform="translate(0,0)"></path>
<path d="M 280.058 830.437 C 352.023 847.557 423.733 900.253 462.564 962.823 C 479.045 989.381 500.082 1036.69 503.896 1065.84 C 515.484 1154.41 545.909 1237.96 600.465 1309.27 C 612.717 1325.29 628.883 1341.95 643.493 1356.9 C 681.352 1395.7 724.415 1429.05 771.446 1456.01 L 703.076 1455.99 C 703.097 1485.53 702.675 1516.42 703.382 1545.85 C 733.578 1546.18 763.776 1546.27 793.973 1546.13 L 794.124 1594.04 C 767.815 1594.06 728.716 1593.02 703.433 1594.91 C 703.213 1625.23 703.179 1655.54 703.331 1685.86 C 727.488 1685.69 751.646 1685.66 775.803 1685.78 C 784.897 1685.84 807.061 1685.66 815.103 1687.25 C 843.615 1727.08 877.48 1760.48 922.279 1781.57 C 928.658 1784.57 946.821 1792.64 953.423 1792.54 L 955.379 1795.19 C 922.912 1792.72 882.802 1785.72 851.119 1778.41 C 648.972 1731.02 474.219 1604.65 365.877 1427.53 C 273.591 1276.59 236.361 1098.37 260.5 923.104 C 265.813 884.147 271.409 867.645 280.058 830.437 z" fill="rgb(0,0,0)" transform="translate(0,0)"></path>
<path d="M 1588.27 495.994 C 1612.72 518.848 1642.37 559.009 1661.24 587.258 C 1663.17 590.148 1671.55 602.682 1672.65 605.202 C 1660.79 672.522 1589.71 731.218 1526.05 747.204 C 1461.19 763.493 1389.91 751.287 1337.12 708.909 C 1315.99 691.946 1299.92 670.452 1277.66 654.804 C 1258.82 641.384 1240.2 629.762 1219.75 618.804 C 1210.52 613.862 1199.54 609.446 1190.84 604.412 L 1191.22 604.011 C 1204.28 603.546 1274.71 649.124 1286.4 659.058 C 1318.9 686.689 1344.72 721.077 1387.21 736.002 C 1397.46 739.602 1405.69 743.823 1416.92 745.058 C 1416.67 742.226 1408.07 741.454 1406.84 739.425 C 1404.9 736.223 1405.85 740.464 1402.61 738.007 L 1404.48 735.356 C 1404.46 730.878 1398.89 731.612 1397.65 728.486 C 1396.58 725.805 1394.62 718.805 1393.74 715.844 C 1387.15 710.772 1383.75 702.853 1377.01 697.438 C 1359.75 683.574 1339.58 674.291 1322.14 660.816 C 1320.3 659.39 1312.05 647.447 1311.67 644.765 C 1311.19 641.32 1313.51 634.227 1312.67 630.355 C 1311.16 619.548 1300.47 580.591 1308.63 573.602 C 1310.51 573.611 1330.74 585.427 1336.44 586.354 C 1319.46 570.665 1264.34 537.701 1242.03 528.854 L 1240.99 528.453 L 1240.29 526.41 C 1244.33 526.995 1257.81 534.059 1262.04 536.214 C 1303.69 557.41 1342.12 585.331 1375.4 618.187 C 1403.68 646.102 1434.98 661.456 1475.58 659.932 C 1506.23 658.781 1534.82 644.733 1555.42 621.775 C 1590.1 583.124 1590.28 544.563 1588.27 495.994 z" fill="rgb(210,164,87)" transform="translate(0,0)"></path>
<metadata><recraft-signature>{"signed_by": "recraft", "signature_b64": "DQNOnacvDesro5kLPfaN9lYHwio4KMF5ydTIvMx5tGq6JvUgRLtlDdeWcXRTBsEclOm5HB4kVstU/NBHCTbTBg==", "signing_algo": "Ed25519", "generation_timestamp": 1772808230, "identifier": "e7b4e21b-1e84-4673-9089-be436d6f300d"}</recraft-signature></metadata></svg>