<svg xmlns="http://www.w3.org/2000/svg" height="1024" preserveAspectRatio="none" style="display: block;" version="1.1" viewBox="0 0 2048 2048" width="1024">
<path d="M 0 0 L 2048 0 L 2048 2048 L 0 2048 L 0 0 z" fill="rgb(255,255,255)" transform="translate(0,0)"></path>
<path d="M 939.061 262.392 C 946.322 260.637 965.751 259.682 973.727 259.185 C 1016.53 256.518 1065.86 256.277 1108.49 261.572 C 1150.36 267.39 1196.5 274.739 1237.22 286.287 C 1331 312.887 1424.93 361.34 1500.24 423.299 C 1515.25 436.174 1530.39 449.001 1545.11 462.202 C 1574.35 488.435 1600.18 517.92 1625.27 548.039 C 1696.29 631.277 1750.89 747.213 1774.59 853.596 C 1781.04 882.589 1785.31 911.434 1789.06 940.893 C 1793.67 992.89 1795.9 1041.66 1790.76 1093.72 C 1790.49 1096.49 1789.1 1111.33 1788.49 1112.68 C 1783.79 1150.42 1778.57 1182.93 1769.1 1219.91 C 1742.06 1322.33 1693.59 1417.84 1626.9 1500.14 C 1592.46 1543.68 1541.61 1596.12 1497.55 1629.43 C 1380.99 1720.07 1256.17 1773.5 1108.79 1788.91 C 1097.88 1790.68 1082.14 1791.41 1070.98 1792.08 C 1027.81 1794.86 984.477 1793.91 941.47 1789.22 C 920.537 1786.35 901.995 1784.35 881.04 1780.27 C 754.928 1755.69 651.186 1706.5 551.004 1627.14 C 520.942 1608.73 445.783 1530.62 426.01 1501.57 C 328.381 1382.4 282.415 1262.11 262.431 1110.95 C 254.114 1079.05 255.19 972.651 262.441 940.283 C 279.754 794.008 331.095 663.46 425.023 548.905 C 427.07 544.75 440.376 529.929 443.995 525.755 C 477.68 486.906 511.949 453.432 552.915 422.281 C 640.452 350.984 743.416 301.092 853.62 276.573 C 882.454 270.11 909.891 266.34 939.061 262.392 z" fill="rgb(0,0,0)" transform="translate(0,0)"></path>
<path d="M 552.915 422.281 C 565.468 435.281 579.781 454.875 591.366 469.484 C 600.176 480.595 612.554 495.292 620.273 506.414 C 592.484 529.439 565.995 553.988 540.926 579.948 C 529.265 592.154 519.122 604.378 507.881 616.585 C 485.403 597.764 448.05 564.801 425.023 548.905 C 427.07 544.75 440.376 529.929 443.995 525.755 C 477.68 486.906 511.949 453.432 552.915 422.281 z" fill="rgb(216,164,85)" transform="translate(0,0)"></path>
<path d="M 1541.39 1433.86 C 1569.71 1454.7 1596.5 1479.39 1626.9 1500.14 C 1592.46 1543.68 1541.61 1596.12 1497.55 1629.43 C 1494.65 1626.29 1491.09 1621.47 1488.51 1617.97 C 1470.09 1592.91 1449.31 1569.32 1430.59 1544.57 C 1464.92 1517.36 1515.67 1468.94 1541.39 1433.86 z" fill="rgb(216,164,85)" transform="translate(0,0)"></path>
<path d="M 426.01 1501.57 C 452.44 1482.9 482.056 1451.37 508.758 1433.66 C 544.432 1472.59 578.693 1510.94 619.581 1544.86 C 599.781 1568.06 568.576 1603.35 551.004 1627.14 C 520.942 1608.73 445.783 1530.62 426.01 1501.57 z" fill="rgb(216,164,85)" transform="translate(0,0)"></path>
<path d="M 1500.24 423.299 C 1515.25 436.174 1530.39 449.001 1545.11 462.202 C 1574.35 488.435 1600.18 517.92 1625.27 548.039 C 1601.58 569.65 1568.56 596.204 1543.07 615.87 C 1514.37 579.679 1466.74 535.529 1431.06 505.739 L 1500.24 423.299 z" fill="rgb(216,164,85)" transform="translate(0,0)"></path>
<path d="M 262.441 940.283 C 271.611 943.699 353.04 948.67 367.201 949.265 C 362.905 1008.05 361.699 1044.71 368.112 1103.02 C 337.192 1106.15 293.359 1109.78 262.431 1110.95 C 254.114 1079.05 255.19 972.651 262.441 940.283 z" fill="rgb(216,164,85)" transform="translate(0,0)"></path>
<path d="M 939.061 262.392 C 946.322 260.637 965.751 259.682 973.727 259.185 C 1016.53 256.518 1065.86 256.277 1108.49 261.572 C 1106.67 296.582 1101.8 334.507 1100.83 368.974 C 1050.75 363.711 1000.26 363.623 950.157 368.711 L 943.194 296.982 C 942.56 290.54 940.61 267.523 939.061 262.392 z" fill="rgb(216,164,85)" transform="translate(0,0)"></path>
<path d="M 1683.8 949.639 C 1718.94 947.496 1754.04 944.58 1789.06 940.893 C 1793.67 992.89 1795.9 1041.66 1790.76 1093.72 C 1790.49 1096.49 1789.1 1111.33 1788.49 1112.68 L 1787.37 1111.27 C 1782.24 1110.18 1777.65 1110 1772.48 1109.58 C 1743.1 1107.18 1713.51 1105.63 1684.19 1102.73 C 1689.21 1047.95 1689.51 1004.48 1683.8 949.639 z" fill="rgb(216,164,85)" transform="translate(0,0)"></path>
<path d="M 948.654 1684.1 C 1003.93 1689.7 1045.61 1689.46 1100.45 1683.64 C 1102.42 1716.36 1105.21 1756.34 1108.79 1788.91 C 1097.88 1790.68 1082.14 1791.41 1070.98 1792.08 C 1027.81 1794.86 984.477 1793.91 941.47 1789.22 C 943.283 1754.15 945.678 1719.1 948.654 1684.1 z" fill="rgb(216,164,85)" transform="translate(0,0)"></path>
<path d="M 574.05 610.017 C 584.423 618.661 601.88 637.357 612.354 647.66 C 517.97 750.555 473.148 864.741 463.218 1002.82 L 450.25 1002.8 L 409.735 1003.03 C 409.992 964.34 415.905 925.964 424.892 888.396 C 449.129 784.049 500.597 687.993 574.05 610.017 z" fill="rgb(216,164,85)" transform="translate(0,0)"></path>
<path d="M 410 1049 L 463.123 1048.86 C 465.108 1074.15 466.778 1098.97 471.171 1124.01 C 489.54 1228.68 541.874 1324.85 612.757 1403.31 C 607.164 1409.3 601.07 1415.4 595.343 1421.32 C 588.791 1427.88 582.251 1433.63 575.334 1439.76 C 471.944 1335.17 416.176 1195.04 410 1049 z" fill="rgb(216,164,85)" transform="translate(0,0)"></path>
<path d="M 1049.02 410.847 C 1063.44 410.836 1090.09 414.162 1104.83 416.083 C 1228.07 432.145 1354.01 491.29 1444.07 577.316 C 1438.98 583.66 1433.1 589.126 1427.27 594.793 C 1420.23 601.378 1413.11 607.878 1405.91 614.291 C 1294.7 517.114 1195.14 476.838 1049.02 463.594 L 1049.02 410.847 z" fill="rgb(216,164,85)" transform="translate(0,0)"></path>
<path d="M 1406.36 1436.89 C 1418.63 1449.05 1431.12 1460.99 1443.81 1472.7 C 1345.08 1566.85 1217.68 1625.25 1081.91 1638.59 C 1071.15 1639.81 1059.75 1640.27 1048.9 1640.9 C 1048.88 1623.31 1048.74 1605.72 1048.47 1588.13 C 1182.41 1582.98 1306.82 1524.82 1406.36 1436.89 z" fill="rgb(216,164,85)" transform="translate(0,0)"></path>
<path d="M 1476.11 610.791 C 1476.62 611.174 1478.35 612.342 1478.71 612.723 C 1577.94 719.065 1631.52 860.085 1641.05 1003.05 L 1608.25 1002.92 L 1588.18 1002.85 C 1587.3 978.647 1582.63 950.113 1577.86 926.391 C 1556.24 819.027 1510.17 731.119 1440.09 647.802 L 1476.11 610.791 z" fill="rgb(216,164,85)" transform="translate(0,0)"></path>
<path d="M 785.256 818.811 C 796.095 827.742 810.225 842.266 820.475 852.311 L 894.209 925.627 C 872.363 955.842 868.891 966.999 860.805 1002.94 L 817.396 1002.91 L 707.994 1002.73 C 712.24 934.455 739.472 869.632 785.256 818.811 z" fill="rgb(216,164,85)" transform="translate(0,0)"></path>
<path d="M 993.264 411.419 L 1003.65 411.007 L 1003.82 463.575 C 866.974 469.354 746.473 524.577 644.457 613.812 L 631.5 602.027 C 624.245 595.345 612.982 585.372 607.301 577.638 C 712.747 479.088 849.21 420.319 993.264 411.419 z" fill="rgb(216,164,85)" transform="translate(0,0)"></path>
<path d="M 1123.12 1156.98 C 1132.29 1161.99 1222.34 1253.29 1232.1 1263.96 C 1206.52 1287.91 1169.73 1308.16 1137.24 1321 C 1105.92 1332.85 1079.92 1338.34 1046.88 1341.23 C 1047.03 1290.5 1046.79 1239.76 1046.16 1189.03 C 1077.22 1182.79 1097.24 1175.67 1123.12 1156.98 z" fill="rgb(216,164,85)" transform="translate(0,0)"></path>
<path d="M 1587.19 1048.84 C 1604.59 1048.51 1623.66 1049 1641.19 1049.09 C 1639.25 1071.48 1637.54 1095.22 1633.93 1117.3 C 1615.4 1234.06 1563.58 1342.99 1484.67 1431.03 L 1477.18 1439.43 C 1465.21 1429.43 1450.55 1414.39 1439.95 1402.84 C 1444.46 1397.17 1449.34 1391.46 1454.01 1385.91 C 1532.36 1292.63 1582.99 1171.19 1587.19 1048.84 z" fill="rgb(216,164,85)" transform="translate(0,0)"></path>
<path d="M 707.672 1048.7 L 861.575 1048.87 C 867.72 1079.21 875.846 1100.03 894.128 1124.71 C 876.992 1142.13 858.713 1159.42 841.326 1176.88 C 823.209 1195.19 804.899 1213.3 786.399 1231.22 C 742.868 1184.85 709.96 1112.42 707.672 1048.7 z" fill="rgb(216,164,85)" transform="translate(0,0)"></path>
<path d="M 643.91 1438.63 C 649.77 1441.99 661.804 1454.07 667.998 1459.09 C 765.922 1538.5 877.466 1577.18 1002.82 1588.53 L 1002.89 1641.04 C 993.512 1641.02 983.283 1640.23 973.953 1639.33 C 843.09 1628.4 704.619 1565.38 610.011 1474.51 C 618.327 1464.13 634.208 1448.64 643.91 1438.63 z" fill="rgb(216,164,85)" transform="translate(0,0)"></path>
<path d="M 1264.98 820.578 C 1271.11 823.761 1281.23 839.436 1285.78 845.602 C 1318.08 889.393 1340.12 948.195 1341.12 1002.8 C 1305.6 1003.12 1269.56 1002.74 1234 1002.68 L 1189.6 1002.92 C 1183.89 975.765 1175.42 948.292 1156.34 927.53 C 1167.71 917.201 1178.57 905.523 1189.52 894.619 C 1214.41 869.669 1239.57 844.987 1264.98 820.578 z" fill="rgb(216,164,85)" transform="translate(0,0)"></path>
<path d="M 1047.75 707.831 C 1094.41 711.341 1145.52 728.386 1185.65 752.492 C 1201.99 762.309 1217.2 774.138 1232.34 785.7 C 1216.54 803.116 1194.83 822.549 1177.71 840.124 C 1160.03 857.931 1142.24 875.63 1124.34 893.218 C 1100.69 875.12 1076.54 867.197 1048.02 860.437 L 1047.75 707.831 z" fill="rgb(216,164,85)" transform="translate(0,0)"></path>
<path d="M 998.133 708.423 C 1000.13 708.134 999.059 708.064 1001.31 708.93 C 1002.18 711.646 1001.73 737.204 1001.76 742.793 L 1002.13 861.298 C 972.471 867.097 952.837 875.547 927.656 891.899 C 909.071 875.658 893.451 859.698 876.323 842.041 C 858.201 823.562 836.927 804.823 819.702 786.125 C 863.176 742.689 937.778 715.098 998.133 708.423 z" fill="rgb(216,164,85)" transform="translate(0,0)"></path>
<path d="M 1188.89 1048.75 L 1341.14 1049 C 1338.3 1107.77 1318.17 1157.73 1284.75 1205.42 C 1279.06 1213.4 1271.82 1222.23 1265.72 1230.06 C 1231.15 1199.18 1189.35 1156.37 1156.8 1123.1 C 1175 1101.25 1183.71 1076.4 1188.89 1048.75 z" fill="rgb(216,164,85)" transform="translate(0,0)"></path>
<path d="M 927.799 1157.8 C 957.98 1176.88 966.896 1179.82 1001.14 1189.5 C 1001.31 1240.39 1001.16 1291.27 1000.7 1342.14 C 967.129 1337.6 946.844 1333.89 914.663 1322.15 C 878.807 1306.33 850.34 1292.02 820.721 1264.22 C 855.922 1227.33 892.576 1193.73 927.799 1157.8 z" fill="rgb(216,164,85)" transform="translate(0,0)"></path>
<path d="M 988.542 511.405 C 991.195 510.964 999.316 510.755 1002.39 510.593 L 1002.88 564.154 C 909.65 571.361 835.565 597.997 758.156 651.474 C 743.646 661.498 729.773 674.08 715.181 684.712 L 704.324 673.664 C 695.585 665.103 686.914 656.472 678.314 647.772 C 694.336 631.887 718.564 613.556 737.215 600.995 C 811.929 550.088 898.473 519.238 988.542 511.405 z" fill="rgb(216,164,85)" transform="translate(0,0)"></path>
<path d="M 1486.01 1048.95 L 1539.31 1049.07 C 1529.02 1180.63 1494.21 1261.88 1411.74 1364.07 L 1405.71 1371.21 C 1392.68 1357.63 1379.79 1345.36 1366.16 1332.41 C 1437.8 1258.51 1478.11 1150.31 1486.01 1048.95 z" fill="rgb(216,164,85)" transform="translate(0,0)"></path>
<path d="M 1048.87 509.953 C 1169.37 517.633 1283.62 566.313 1372.63 647.904 L 1354.43 666.722 C 1347.95 673.298 1341.75 678.89 1334.92 685.046 C 1256.35 615.215 1154.1 569.979 1048.81 564.079 L 1048.87 509.953 z" fill="rgb(216,164,85)" transform="translate(0,0)"></path>
<path d="M 715.924 1366.63 C 720.748 1369.38 729.063 1376.86 733.518 1380.63 C 812.629 1447.44 900.663 1475.08 1001.27 1487.9 C 1002.06 1505.28 1001.95 1523.91 1002.15 1541.39 C 990.734 1540.75 979.276 1539.32 967.951 1537.81 C 869.256 1528.83 750.645 1470.93 678.303 1403.99 C 691.123 1391.61 703.65 1379.58 715.924 1366.63 z" fill="rgb(216,164,85)" transform="translate(0,0)"></path>
<path d="M 1406.05 680.856 C 1415.92 687.486 1435.58 715.78 1443.24 726.322 C 1503.5 809.218 1533.03 901.321 1540.92 1003.01 L 1502.75 1002.94 L 1486.04 1002.98 C 1482 919.054 1454.83 837.88 1407.55 768.428 C 1394.8 749.717 1382.14 735.035 1368.03 717.441 C 1380.55 705.083 1393.22 692.887 1406.05 680.856 z" fill="rgb(216,164,85)" transform="translate(0,0)"></path>
<path d="M 644.754 680.619 C 653.98 687.257 675.27 709.764 683.014 718.526 C 672.533 731.104 661.52 743.195 652.018 756.528 C 595.771 835.45 570.613 907.619 562.981 1002.95 L 549.5 1002.94 L 510.087 1002.81 C 511.047 917.288 545.458 822.336 590.991 750.738 C 607.876 724.187 624.153 704.214 644.754 680.619 z" fill="rgb(216,164,85)" transform="translate(0,0)"></path>
<path d="M 1334.34 1367.18 C 1344.36 1375.64 1362.67 1394.53 1372.47 1404.14 C 1360.78 1415.74 1341.25 1430.2 1327.95 1439.89 C 1254.16 1493.65 1174.3 1525.91 1083.83 1537.26 C 1072.61 1538.8 1059.23 1539.73 1047.97 1540.39 L 1047.57 1487.31 C 1133.87 1481.96 1217.04 1452.99 1287.99 1403.57 C 1304.44 1392.17 1318.98 1379.99 1334.34 1367.18 z" fill="rgb(216,164,85)" transform="translate(0,0)"></path>
<path d="M 509.263 1048.15 C 527.139 1048.52 545.018 1048.78 562.897 1048.93 C 565.362 1160.76 613.871 1249.38 682.831 1333.51 C 677.2 1339.74 669.138 1347.3 663.052 1353.35 C 657.351 1359.08 651.518 1364.69 645.557 1370.16 C 564.169 1281.87 515.99 1168.04 509.263 1048.15 z" fill="rgb(216,164,85)" transform="translate(0,0)"></path>
<path d="M 1264.41 1298.69 C 1268.45 1299.24 1295.81 1328.82 1300.64 1333.88 C 1291.43 1343 1274.13 1356.14 1263.33 1363.63 C 1205.1 1403.97 1150.71 1424.47 1081.76 1436.37 C 1070.1 1438.23 1058.36 1439.47 1046.57 1440.07 C 1045.62 1424.8 1046.08 1403.87 1045.96 1388.15 C 1137.56 1383.8 1194.19 1352.32 1264.41 1298.69 z" fill="rgb(216,164,85)" transform="translate(0,0)"></path>
<path d="M 716.756 750.615 C 725.157 756.416 744.798 777.63 752.439 785.827 C 696.355 852.973 669.139 915.821 660.654 1003 L 648.25 1002.95 L 609.561 1002.81 C 612.547 935.194 639.552 857.279 677.019 801.36 C 689.012 783.462 702.599 766.804 716.756 750.615 z" fill="rgb(216,164,85)" transform="translate(0,0)"></path>
<path d="M 1049.07 610.236 C 1138.35 616.832 1236.12 655.781 1301.09 718.149 L 1284.33 735.373 C 1278.22 741.589 1271.68 747.678 1265.37 753.701 C 1203.11 698.089 1131.32 670.751 1049.3 661.933 C 1049.08 644.702 1049.01 627.469 1049.07 610.236 z" fill="rgb(216,164,85)" transform="translate(0,0)"></path>
<path d="M 1334.9 751.812 C 1343.98 760.384 1356.29 776.964 1363.84 787.363 C 1408.12 848.322 1436.48 926.877 1439.09 1002.48 C 1428.21 1003.14 1413.86 1002.87 1402.75 1002.93 L 1387.77 1002.86 C 1382.85 940.198 1367.38 884.892 1332.82 831.362 C 1322.71 815.702 1310.39 801.523 1298.78 786.916 L 1334.9 751.812 z" fill="rgb(216,164,85)" transform="translate(0,0)"></path>
<path d="M 609.83 1048.89 L 660.79 1049.1 C 666.734 1132.08 700.036 1201.68 753.887 1263.89 C 749.138 1269.61 741.932 1276.52 736.582 1281.94 C 730.636 1287.86 724.631 1293.72 718.568 1299.52 C 656.843 1235.69 614.19 1137.59 609.83 1048.89 z" fill="rgb(216,164,85)" transform="translate(0,0)"></path>
<path d="M 1388.3 1048.91 C 1405.25 1048.91 1422.19 1049.02 1439.14 1049.24 C 1427.44 1146.88 1405.04 1215.93 1340.31 1292.43 L 1333.75 1299.94 C 1321.57 1288.52 1309.05 1275.44 1297.23 1263.52 C 1352.11 1198.61 1380.93 1134.18 1388.3 1048.91 z" fill="rgb(216,164,85)" transform="translate(0,0)"></path>
<path d="M 994.257 611.405 C 997.061 610.864 1000.2 610.522 1002.51 612.206 C 1003.79 623.294 1003 650.607 1002.97 662.901 C 928.148 663.641 841.689 703.744 786.494 753.471 L 774.5 740.985 C 766.629 733.236 759.003 725.242 751.634 717.015 C 817.71 656.063 905.358 620.581 994.257 611.405 z" fill="rgb(216,164,85)" transform="translate(0,0)"></path>
<path d="M 787.023 1297.91 C 857.936 1353.8 908.423 1379.08 1000.65 1388.45 C 1001.33 1404.85 1000.93 1423.28 1000.91 1439.84 C 991.057 1439.08 982.502 1438 972.759 1436.69 C 893.217 1424.45 809.533 1390.19 751.99 1332.64 C 763.485 1320.88 775.164 1309.3 787.023 1297.91 z" fill="rgb(216,164,85)" transform="translate(0,0)"></path>
<metadata><recraft-signature>{"signed_by": "recraft", "signature_b64": "mEXkq4NA+WgXyag5QCmBHg/BB3bIUKMDU5OVqRP0lQzLHUa5kDVGER8LWMqy1IgZ3yua9pIjLkapGb3THmm4CA==", "signing_algo": "Ed25519", "generation_timestamp": 1772808278, "identifier": "38069590-1e08-4f5f-bf31-d0ffdd5bd0a3"}</recraft-signature></metadata></svg>