<svg xmlns="http://www.w3.org/2000/svg" height="1024" preserveAspectRatio="none" style="display: block;" version="1.1" viewBox="0 0 2048 2048" width="1024">
<path d="M 0 0 L 2048 0 L 2048 2048 L 0 2048 L 0 0 z" fill="rgb(252,252,252)" transform="translate(0,0)"></path>
<path d="M 686.947 547.223 C 714.085 526.584 739.618 512.578 769.734 497.457 C 877.924 443.135 985.651 426.694 1105.2 442.978 C 1259.37 465.341 1398.43 547.772 1492.06 672.284 C 1536.36 730.536 1569.25 796.645 1588.98 867.124 C 1604.11 920.339 1610.04 973.583 1610.24 1028.77 C 1573.73 1014.55 1538.45 997.629 1502.49 981.978 C 1494.91 978.683 1461.53 965.204 1456.77 961.695 C 1452.03 940.578 1437.71 902.41 1428.46 882.657 C 1383.21 786.017 1305.35 717.212 1205.55 680.602 C 1107.71 683.878 1015.11 725.634 947.876 796.797 C 904.767 842.515 876.887 889.788 859.617 950.284 C 896.039 952.536 933.789 953.198 970.506 955.009 C 989.708 892.592 1010.83 831.86 1031.69 770.033 L 1032.86 766.133 L 1033.93 766.042 C 1038.61 775.725 1050.46 811.18 1054.74 822.848 L 1103.33 955.375 L 1267.86 934.924 C 1272.13 934.249 1275.99 933.672 1280.28 933.224 C 1267.26 945.789 1250.29 958.508 1236.45 970.589 C 1200.27 1002.18 1161.57 1032.3 1125.89 1064.27 C 1142.65 1117.87 1165.48 1171.26 1182.89 1224.86 C 1186.56 1236.17 1191.23 1248.24 1195.96 1259.16 C 1191.33 1254.97 1172.89 1241.69 1170.7 1238.97 C 1164.26 1234.8 1154.65 1227.04 1148.25 1222.26 C 1133.27 1211.16 1118.35 1199.98 1103.48 1188.73 C 1077.02 1168.73 1047.9 1148.24 1022.42 1127.49 C 983.404 1157.79 947.041 1190.52 906.746 1221.23 C 962.047 1303.45 1042.78 1352.25 1137.01 1378.07 C 1143.02 1378.19 1158.76 1375.51 1165.2 1374.37 C 1211.64 1366.12 1249.05 1350.89 1288.89 1325.62 C 1370.65 1273.83 1428.75 1191.94 1450.62 1097.65 C 1454.73 1096.24 1494.38 1105.42 1502.43 1107.11 L 1564.35 1119.92 C 1575.46 1122.17 1591.07 1124.85 1601.75 1127.76 C 1594.88 1154.69 1586.72 1196.11 1577.17 1220.53 C 1523.17 1370.87 1410.38 1492.81 1264.7 1558.35 C 1153.43 1610.56 1028.18 1625.06 907.931 1599.66 C 848.15 1587.55 763.465 1558.05 713.968 1521.84 C 698.519 1514.66 655.549 1480.8 642.201 1469.37 C 524.278 1368.29 451.525 1224.35 440.059 1069.46 C 436.51 1040.87 439.034 984.422 442.599 955.572 C 445.286 932.677 449.329 909.962 454.708 887.547 C 481.208 773.056 555.878 650.528 647.503 577.436 C 658.698 568.506 675.01 554.657 686.947 547.223 z" fill="rgb(74,11,102)" transform="translate(0,0)"></path>
<path d="M 440.059 1069.46 C 489.154 1077.28 537.908 1087.96 586.775 1096.35 C 591.978 1121.86 598.672 1148.89 607.574 1173.39 C 640.509 1263.46 701.077 1340.82 780.621 1394.4 C 882.029 1462.45 1006.59 1486.74 1126.14 1461.78 C 1225.87 1441.4 1329.54 1380.32 1392.68 1300.35 L 1393.83 1303.33 C 1375.62 1333.95 1357.29 1362.44 1334.16 1389.75 C 1266.87 1467.71 1177.56 1523.47 1077.97 1549.71 C 983.313 1573.9 886.082 1570.83 791.884 1546.52 C 777.991 1543.03 764.24 1539 750.664 1534.43 C 742.161 1531.48 721.346 1522.89 713.968 1521.84 C 698.519 1514.66 655.549 1480.8 642.201 1469.37 C 524.278 1368.29 451.525 1224.35 440.059 1069.46 z" fill="rgb(80,53,247)" transform="translate(0,0)"></path>
<path d="M 686.947 547.223 C 699.849 543.049 715.7 532.935 728.575 527.188 C 865.518 466.057 1033.77 466.575 1170.07 532.546 C 1265.64 578.902 1343.72 654.855 1392.69 749.12 L 1389.92 750.937 C 1316.95 659.836 1197.7 595.334 1081.69 582.458 C 960.139 568.534 838.112 604.29 743.293 681.615 C 670.11 740.466 607.28 839.307 589.092 931.648 L 442.599 955.572 C 445.286 932.677 449.329 909.962 454.708 887.547 C 481.208 773.056 555.878 650.528 647.503 577.436 C 658.698 568.506 675.01 554.657 686.947 547.223 z" fill="rgb(80,53,247)" transform="translate(0,0)"></path>
<path d="M 768.078 968.682 C 797.526 984.008 827.26 998.778 857.264 1012.98 C 874.44 1020.93 895.92 1029.83 912.911 1038.6 C 913.257 1038.78 918.365 1050.19 919.441 1052.26 C 926.881 1058 936.81 1066.38 944.266 1071.51 C 978.06 1062.22 1011.9 1051.37 1045.79 1041.98 C 1033.28 1056 1017.9 1070.44 1004.56 1083.94 L 927.242 1163.06 C 919.822 1170.75 896.495 1193.04 891.559 1200.75 C 885.574 1210.11 872.161 1239.11 867.643 1250.13 C 880.186 1241.49 894.94 1228.85 906.746 1221.23 C 962.047 1303.45 1042.78 1352.25 1137.01 1378.07 C 1132.18 1381.07 1107.73 1381.79 1100.49 1381.97 C 1035.96 1383.3 972.374 1366.31 917.106 1332.97 C 832.459 1282.93 770.743 1201.76 745.147 1106.82 C 759.502 1097.47 779.964 1087.35 795.214 1078.91 C 815.406 1067.75 835.377 1056.31 855.559 1045.18 C 837.856 1028.95 819.9 1012.99 801.697 997.323 C 790.577 987.79 778.738 978.593 768.078 968.682 z" fill="rgb(80,53,247)" transform="translate(0,0)"></path>
<path d="M 853.078 1104.35 C 870.264 1088.11 899.922 1068.55 919.441 1052.26 C 926.881 1058 936.81 1066.38 944.266 1071.51 C 939.374 1079.69 930.841 1102.16 926.789 1111.53 C 914.191 1140.64 902.696 1170.84 889.394 1199.66 C 873.09 1171.21 859.224 1136.44 853.078 1104.35 z" fill="rgb(252,252,252)" transform="translate(0,0)"></path>
<path d="M 737.719 944.333 C 745.055 916.073 766.067 869.731 781.368 844.683 C 833.438 759.443 919.477 695.264 1016.47 670.898 C 1068.7 657.777 1125.33 654.478 1177.45 669.604 C 1184.93 671.775 1199.17 676.704 1205.55 680.602 C 1107.71 683.878 1015.11 725.634 947.876 796.797 C 904.767 842.515 876.887 889.788 859.617 950.284 C 896.039 952.536 933.789 953.198 970.506 955.009 C 987.641 972.893 1005.92 989.421 1022.43 1006.76 L 1025.2 1009.69 L 1024.68 1010.89 C 1021.86 1010.82 1021.22 1010.86 1018.5 1010.27 C 986.181 1004.3 948.793 1001.6 916.526 993.968 C 900.227 990.111 880.709 983.654 864.259 978.968 L 796.587 960.233 C 777.849 954.844 756.527 948.27 737.719 944.333 z" fill="rgb(80,53,247)" transform="translate(0,0)"></path>
<path d="M 1267.86 934.924 C 1272.13 934.249 1275.99 933.672 1280.28 933.224 C 1267.26 945.789 1250.29 958.508 1236.45 970.589 C 1200.27 1002.18 1161.57 1032.3 1125.89 1064.27 C 1142.65 1117.87 1165.48 1171.26 1182.89 1224.86 C 1186.56 1236.17 1191.23 1248.24 1195.96 1259.16 C 1191.33 1254.97 1172.89 1241.69 1170.7 1238.97 C 1167.86 1230.12 1141.88 1188.01 1135.53 1177.52 C 1109.26 1134.11 1084.06 1088.51 1056.77 1045.95 C 1107.32 1016.26 1164.57 989.868 1216.29 961.571 C 1231.14 953.45 1254.42 943.46 1267.86 934.924 z" fill="rgb(80,53,247)" transform="translate(0,0)"></path>
<path d="M 1456.77 961.695 C 1467.79 956.723 1506 928.624 1517.52 920.022 C 1536.7 905.689 1572.22 882.764 1588.98 867.124 C 1604.11 920.339 1610.04 973.583 1610.24 1028.77 C 1573.73 1014.55 1538.45 997.629 1502.49 981.978 C 1494.91 978.683 1461.53 965.204 1456.77 961.695 z" fill="rgb(80,53,247)" transform="translate(0,0)"></path>
<path d="M 1031.69 770.033 L 1032.86 766.133 L 1033.93 766.042 C 1038.61 775.725 1050.46 811.18 1054.74 822.848 L 1103.33 955.375 C 1098.14 959.78 1089.47 968.983 1084.23 974.061 L 1041.17 1015.66 L 1036.89 861.587 C 1036.55 848.918 1036 777.095 1031.69 770.033 z" fill="rgb(80,53,247)" transform="translate(0,0)"></path>
<path d="M 1450.62 1097.65 C 1454.73 1096.24 1494.38 1105.42 1502.43 1107.11 L 1564.35 1119.92 C 1575.46 1122.17 1591.07 1124.85 1601.75 1127.76 C 1594.88 1154.69 1586.72 1196.11 1577.17 1220.53 C 1568.38 1208.5 1552.98 1194.56 1541.91 1184 C 1524.69 1167.49 1507.34 1151.13 1489.84 1134.93 C 1477.41 1123.44 1461.9 1109.84 1450.62 1097.65 z" fill="rgb(80,53,247)" transform="translate(0,0)"></path>
<path d="M 1392.69 749.12 C 1394.93 753.118 1396.26 756.966 1397.92 761.206 C 1394.52 757.194 1392.86 755.295 1389.92 750.937 L 1392.69 749.12 z" fill="rgb(84,39,195)" transform="translate(0,0)"></path>
<path d="M 1392.68 1300.35 C 1393.14 1299.69 1395.74 1295.52 1397.15 1296.64 C 1397.6 1298.42 1394.74 1301.99 1393.83 1303.33 L 1392.68 1300.35 z" fill="rgb(84,39,195)" transform="translate(0,0)"></path>
<metadata><recraft-signature>{"signed_by": "recraft", "signature_b64": "MaImwu9/4oZK26DSENwRLQ+1hcF7VMGn/OX+geryOWbx5WruqeZoXYL2fIiwrVctXzE2bZ5ZtIxp67SXzyOAAA==", "signing_algo": "Ed25519", "generation_timestamp": 1772808185, "identifier": "f7483c4e-d954-4a9a-8399-66d17ba62b7f"}</recraft-signature></metadata></svg>