<svg xmlns="http://www.w3.org/2000/svg" height="1024" preserveAspectRatio="none" style="display: block;" version="1.1" viewBox="0 0 2048 2048" width="1024">
<path d="M 0 0 L 2048 0 L 2048 2048 L 0 2048 L 0 0 z" fill="rgb(254,254,254)" transform="translate(0,0)"></path>
<path d="M 1307.32 774.345 C 1387.07 783.092 1456.81 823.814 1505.29 887.511 C 1578.7 983.979 1579.15 1123.26 1513.46 1223.78 C 1504.84 1236.97 1490.51 1254.69 1478.03 1264.28 C 1448.46 1384.86 1333.38 1443.72 1215.75 1436.84 C 1186.98 1434.24 1163.39 1428.81 1136.59 1418.01 C 1147.6 1413.6 1158.29 1410.18 1169.46 1405.36 C 1192.74 1395.22 1214.68 1382.24 1234.77 1366.71 C 1263.8 1344.67 1302.41 1309.21 1307.6 1271.36 L 1402.05 1270.76 C 1427.55 1270.8 1455.76 1274.64 1478.54 1262.12 C 1479.32 1255.43 1479.87 1248.71 1480.19 1241.99 C 1482.31 1180.9 1462.83 1121.03 1425.18 1072.89 C 1416.96 1062.26 1407.74 1053.23 1398.69 1043.32 C 1402.55 1023.32 1403.58 998.855 1402.92 978.181 C 1401.1 921.976 1380.1 860.521 1346.46 815.002 C 1336.87 802.038 1319.3 785.462 1307.32 774.345 z" fill="rgb(49,52,252)" transform="translate(0,0)"></path>
<path d="M 684.421 615.446 C 769.518 546.588 860.49 500.886 970.727 489.909 C 1085.95 478.107 1201.77 505.646 1299.35 568.044 C 1317.57 579.594 1345.2 600.65 1362.05 614.438 L 1366.5 618.069 L 1363.94 619.121 L 1357.94 616.36 C 1276.67 583.899 1204.96 581.809 1122.37 615.368 C 1116.61 617.709 1110.78 620.559 1105.06 622.904 C 1049.35 613.627 1001.72 610.988 945.733 623.209 C 875.042 595.665 814.93 580.539 737.851 600.305 C 722.974 604.12 706.301 609.156 692.23 615.261 C 690.76 615.89 689.304 616.552 687.862 617.244 L 684.421 615.446 z" fill="rgb(49,52,252)" transform="translate(0,0)"></path>
<path d="M 942.764 1426.22 C 1005.18 1437.15 1040.6 1439.5 1104.57 1426.39 C 1107.2 1427.61 1109.85 1428.8 1112.5 1429.97 C 1187.01 1462.87 1268.96 1466.45 1345.32 1436.89 C 1354.49 1433.29 1361.38 1430.51 1370.27 1426.12 C 1363.54 1432.45 1356.81 1438.49 1349.27 1443.87 C 1344.41 1450.03 1312.77 1471.27 1304.9 1476.47 C 1226.42 1528.88 1134.77 1558.11 1040.44 1560.83 C 906.113 1565.3 775.496 1516.35 677.19 1424.7 C 740.943 1456.53 811.493 1463.69 880.942 1447.52 C 902.427 1442.52 922.231 1434.03 942.764 1426.22 z" fill="rgb(49,52,252)" transform="translate(0,0)"></path>
<path d="M 568.861 785.547 L 570.329 786.265 C 568.618 794.114 568.018 806.269 568.025 814.265 C 568.085 887.101 597.16 953.313 648.296 1004.61 C 646.214 1021.28 643.189 1044.31 643.456 1061.19 C 644.311 1115.24 664.251 1176 694.384 1220.81 C 708.138 1241.26 726.445 1260.03 743.67 1277.14 C 669.698 1262.92 610.696 1239.18 559.809 1181.02 C 508.321 1122.92 482.455 1046.5 488.069 969.064 C 492.388 906.213 520.805 827.508 568.861 785.547 z" fill="rgb(49,52,252)" transform="translate(0,0)"></path>
<path d="M 1074.93 1268.91 C 1086.73 1268.95 1098.66 1269.11 1110.46 1269.51 C 1173.17 1271.65 1237.29 1269.63 1299.84 1272.79 C 1290.78 1283.6 1282.09 1296.09 1272.98 1306.52 C 1253.91 1328.38 1228.26 1351.93 1203.67 1367.18 C 1119.75 1419.2 1032.74 1427.56 938.234 1406.6 C 877.749 1390.69 821.467 1359.71 779.137 1313.57 C 768.577 1302.06 758.093 1288.76 748.178 1276.58 C 853.569 1343.66 972.409 1340.65 1074.93 1268.91 z" fill="rgb(49,52,252)" transform="translate(0,0)"></path>
<path d="M 1020.92 632.462 C 1046.5 632.536 1066.6 634.245 1091.79 639.016 C 1177.4 654.686 1253.33 703.579 1303.02 775.026 C 1287.02 764.251 1270.09 754.92 1252.44 747.145 C 1184.6 717.903 1107.92 716.8 1039.26 744.079 C 1028.44 748.53 1017.89 753.625 1007.67 759.338 C 1003.13 761.932 980.067 775.98 976.81 776.508 C 958.898 779.41 931.753 777.16 913.012 777.331 C 857.243 777.842 801.032 779.135 745.422 777.985 C 759.071 764.278 771.407 746.953 785.242 732.272 C 828.199 686.687 889.505 655.387 950.029 640.627 C 973.341 634.941 997.171 633.149 1020.92 632.462 z" fill="rgb(49,52,252)" transform="translate(0,0)"></path>
<path d="M 1077.99 1066.06 C 1116.16 1078.11 1154.24 1090.45 1192.22 1103.06 C 1199.16 1105.39 1223.59 1112.99 1228.2 1115.96 L 1231.68 1115.51 L 1231.92 1118.08 L 1230.82 1118.36 C 1199.99 1189.19 1160.06 1235.97 1086.42 1263.45 C 1046.77 1278.24 989.029 1269.76 951.232 1253.35 C 910.962 1235.53 876.134 1207.35 850.295 1171.69 C 846.623 1166.71 837.172 1152.95 834.888 1147.51 C 864.379 1153.01 898.79 1159.72 928.455 1156.56 C 971.997 1151.92 1013.33 1134.61 1045.09 1104.07 C 1056.99 1092.62 1067.58 1078.9 1077.99 1066.06 z" fill="rgb(49,52,252)" transform="translate(0,0)"></path>
<path d="M 1231.68 1115.51 L 1231.92 1118.08 L 1230.82 1118.36 C 1229.94 1117.57 1229.07 1116.77 1228.2 1115.96 L 1231.68 1115.51 z" fill="rgb(45,43,224)" transform="translate(0,0)"></path>
<path d="M 1000.35 778.404 C 1021.33 775.791 1058.22 782.04 1078.41 787.812 C 1134.66 803.888 1185.05 850.874 1212.8 901.611 C 1130.86 881.837 1067.27 889.032 1001.23 944.468 C 987.506 957.179 980.288 966.665 969.65 981.506 L 875.806 950.52 C 857.475 944.39 834.04 937.027 816.902 929.25 C 827.005 903.768 841.769 880.591 859.133 859.571 C 896.949 813.795 940.361 783.921 1000.35 778.404 z" fill="rgb(49,52,252)" transform="translate(0,0)"></path>
<path d="M 703.654 815.115 C 716.194 799.839 725.392 791.02 740.654 778.268 C 741.307 826.948 754.386 873.672 790.027 908.697 C 798.07 916.532 806.847 923.577 816.235 929.736 C 793.545 987.949 792.329 1056.85 817.948 1114.2 C 821.137 1121.34 833.415 1143.1 834.888 1147.51 C 774.608 1138.49 718.372 1112.31 681.806 1062.21 C 651.462 1020.63 643.338 986.11 651.592 935.392 C 658.67 891.903 676.174 849.517 703.654 815.115 z" fill="rgb(49,52,252)" transform="translate(0,0)"></path>
<path d="M 1211.6 901.151 C 1277.54 917.172 1340.52 941.848 1376.73 1003.24 C 1382.94 1013.76 1392.91 1031.4 1395.47 1043.36 C 1412.84 1124.52 1372.71 1221.18 1308.63 1270.31 C 1308.45 1254.85 1307.94 1237.97 1304.65 1222.85 C 1295.62 1181.39 1267.47 1141.18 1231.92 1118.08 L 1231.68 1115.51 C 1233.79 1102.77 1240.38 1087.29 1243.05 1073.29 C 1255.28 1009.14 1244.92 956.939 1211.6 901.151 z" fill="rgb(49,52,252)" transform="translate(0,0)"></path>
<path d="M 509.453 1147.51 C 512.532 1150.1 522.069 1164.37 524.857 1168.3 C 532.669 1179.32 539.899 1189.32 549.36 1199.17 C 588.715 1240.45 638.612 1270.19 693.65 1285.16 C 708.407 1289.31 724.975 1290.78 739.142 1295.4 C 783.533 1353.37 844.876 1396.08 914.65 1417.59 C 910.019 1419.59 904.841 1421.44 900.094 1423.24 C 891.859 1425.47 883.589 1427.56 875.289 1429.53 C 799.919 1446.7 728.33 1435.3 662.355 1394.22 C 572.99 1338.57 531.704 1246.76 509.453 1147.51 z" fill="rgb(49,52,252)" transform="translate(0,0)"></path>
<path d="M 1132.12 632.71 C 1238.02 588.883 1356.35 613.422 1436.73 695.009 C 1491.77 750.871 1519.08 815.622 1536.77 890.891 L 1533.76 891.865 C 1529.62 885.253 1525.13 878.857 1520.33 872.705 C 1468.08 804.771 1396.2 767.384 1312.22 756.14 C 1265.41 697.37 1206.16 650.914 1132.12 632.71 z" fill="rgb(49,52,252)" transform="translate(0,0)"></path>
<path d="M 569.358 784.336 C 571.894 777.627 574.096 770.477 576.308 763.611 C 595.819 703.044 640.02 661.384 696.999 635.442 C 771.751 601.408 841.222 605.122 916.693 632.234 C 902.081 637.389 887.508 641.908 873.154 648.702 C 827.43 670.346 773.23 707.869 749.797 753.314 C 746.655 759.406 743.018 770.821 741.163 777.423 C 709.381 777.15 677.596 777.264 645.817 777.765 C 625.685 777.927 589.711 775.281 572.655 784.209 L 569.358 784.336 z" fill="rgb(49,52,252)" transform="translate(0,0)"></path>
<path d="M 1536.77 890.891 C 1536.96 891.923 1538.39 896.569 1537.43 897.297 C 1536.08 896.572 1534.51 893.245 1533.76 891.865 L 1536.77 890.891 z" fill="rgb(82,84,226)" transform="translate(0,0)"></path>
<path d="M 684.421 615.446 L 687.862 617.244 L 687.024 617.603 C 685.481 618.281 676.353 621.669 682.401 617.005 L 684.421 615.446 z" fill="rgb(82,84,226)" transform="translate(0,0)"></path>
<path d="M 1366.5 618.069 C 1372.68 623.838 1368.35 621.912 1363.94 619.121 L 1366.5 618.069 z" fill="rgb(116,114,207)" transform="translate(0,0)"></path>
<path d="M 569.358 784.336 L 572.655 784.209 L 570.329 786.265 L 568.861 785.547 L 569.358 784.336 z" fill="rgb(116,114,207)" transform="translate(0,0)"></path>
<metadata><recraft-signature>{"signed_by": "recraft", "signature_b64": "Wo9MBmvY7bJXkYy/tiTZUVLSxhovvGP761uz8GOwn5RI/TMQcpJ94eU33H2z37osYcx21f2hKuD2Jak+sDYzDA==", "signing_algo": "Ed25519", "generation_timestamp": 1772808208, "identifier": "07aab52a-131a-4f1e-96ac-8fd2f21b0238"}</recraft-signature></metadata></svg>