<svg xmlns="http://www.w3.org/2000/svg" height="1024" preserveAspectRatio="none" style="display: block;" version="1.1" viewBox="0 0 2048 2048" width="1024">
<path d="M 0 0 L 2048 0 L 2048 2048 L 0 2048 L 0 0 z" fill="rgb(254,254,254)" transform="translate(0,0)"></path>
<path d="M 990.713 243.203 C 1422.25 224.301 1787.35 558.906 1806.06 990.447 C 1824.78 1421.99 1490.01 1786.94 1058.46 1805.47 C 627.18 1823.98 262.499 1489.47 243.797 1058.19 C 225.095 626.921 559.448 262.094 990.713 243.203 z" fill="rgb(79,31,186)" transform="translate(0,0)"></path>
<path d="M 1520.41 802.633 C 1528.27 808.096 1541.23 820.238 1548.87 826.954 C 1561.93 838.341 1575.09 849.603 1588.37 860.736 L 1726.16 976.897 C 1745.35 992.746 1764.34 1009.32 1784.08 1024.43 C 1724.49 1074.35 1665.56 1125.07 1607.32 1176.58 C 1579.57 1200.8 1550.01 1225.28 1522.88 1249.98 C 1530.85 1302.75 1526.44 1355.62 1513.77 1407.14 C 1511.67 1415.69 1507.4 1434.9 1504.06 1442.57 C 1489.8 1441.09 1452.18 1441.88 1436.28 1441.86 C 1433.06 1442.16 1430.02 1442.22 1426.89 1442.51 L 1425.34 1442.42 C 1426.36 1441.89 1427.24 1441.43 1428.28 1440.95 C 1430.54 1435.87 1434.97 1418.73 1436.61 1412.95 C 1446.64 1377.61 1452.6 1342.16 1458.88 1306.03 C 1434.86 1326.86 1411.63 1348.21 1387.66 1369.08 C 1370.16 1384.24 1352.99 1399.77 1336.17 1415.68 C 1327.68 1423.62 1316.79 1433.28 1309.27 1441.91 C 1272.5 1441.95 1228.67 1443.07 1192.44 1441.3 C 1198.39 1422.89 1205.8 1401.09 1209.56 1382.37 C 1221.38 1323.49 1220.1 1251.22 1199.18 1194.78 L 1199.86 1193.44 C 1222.26 1183.24 1245.97 1172.39 1267.32 1160.11 C 1325.33 1126.7 1377.71 1075.3 1418.84 1022.86 L 1446.02 1061.99 L 1448.14 1061.26 C 1444.59 1030 1446.14 1015.02 1448.48 984.114 L 1444.62 981.755 C 1447.66 976.104 1447.63 976.413 1449.2 970.601 L 1451.9 971.876 C 1477.59 941.442 1513.31 841.938 1519.37 803.068 L 1520.41 802.633 z" fill="rgb(254,254,254)" transform="translate(0,0)"></path>
<path d="M 1447.96 1066.55 L 1449.89 1066.02 C 1483.9 1116.87 1516.31 1189 1522.52 1250.24 C 1504.86 1267.86 1478.35 1288.96 1458.67 1306.33 C 1461.35 1225.32 1453.9 1146.97 1447.96 1066.55 z" fill="rgb(79,31,186)" transform="translate(0,0)"></path>
<path d="M 1449.2 970.601 L 1451.9 971.876 C 1448.64 978.35 1449.59 977.122 1448.48 984.114 L 1444.62 981.755 C 1447.66 976.104 1447.63 976.413 1449.2 970.601 z" fill="rgb(109,60,201)" transform="translate(0,0)"></path>
<path d="M 1425.34 1442.42 C 1426.36 1441.89 1427.24 1441.43 1428.28 1440.95 C 1430.99 1441.25 1433.57 1441.5 1436.28 1441.86 C 1433.06 1442.16 1430.02 1442.22 1426.89 1442.51 L 1425.34 1442.42 z" fill="rgb(109,60,201)" transform="translate(0,0)"></path>
<path d="M 1446.02 1061.99 L 1448.14 1061.26 C 1448.69 1062.86 1449.28 1064.45 1449.89 1066.02 L 1447.96 1066.55 L 1446.02 1061.99 z" fill="rgb(143,99,205)" transform="translate(0,0)"></path>
<path d="M 850.792 622.779 C 974.429 660.342 1044.76 716.584 1114.61 824.331 C 1036.73 806.07 982.318 801.559 902.671 822.208 C 885.175 826.744 865.966 831.863 849.301 838.992 C 871.923 910.932 931.114 979.725 998.227 1012.41 C 1006.4 1016.39 1016.34 1021.15 1024.15 1025.35 C 1074.87 1001.15 1123.42 970.864 1158.26 925.806 C 1161.74 941.05 1166.23 960.863 1167.68 976.174 C 1171.63 1018.19 1169.26 1082.19 1157.35 1122.49 C 1149.36 1113.52 1137.98 1100.31 1129.62 1092.38 C 1101.39 1065.56 1059.27 1038.73 1022.46 1025.64 C 976.066 1047.24 946.795 1068.53 911.529 1104.9 C 884.813 1134.46 863.827 1168.72 849.642 1205.95 C 842.363 1203.57 833.018 1200.79 826.077 1197.94 C 817.46 1186.74 807.497 1174.16 800.644 1162 C 772.185 1111.49 756.988 1049.29 765.491 991.63 C 773.522 937.164 792.132 888.794 828.513 847.235 C 813.088 854.515 796.631 860.981 780.932 868.259 C 693.325 908.872 639.663 952.421 579.366 1027.42 C 544.594 986.466 514.343 938.051 497.342 886.878 C 492.644 872.739 488.468 858.145 484.07 843.872 C 562.084 844.194 740.12 844.121 826.026 843.867 C 826.926 843.865 828.921 846.839 833.321 845.548 C 839.205 843.821 843.867 841.277 849.171 838.647 C 824.158 758.54 826.971 702.789 850.792 622.779 z" fill="rgb(254,254,254)" transform="translate(0,0)"></path>
<path d="M 1193.16 610.809 C 1232.56 610.826 1268.73 609.972 1308.62 610.898 C 1310.23 614.136 1312.22 617.299 1314.89 619.766 C 1355.22 657.105 1397.94 691.836 1438 729.522 C 1443.61 734.792 1451.65 740.345 1456.67 745.786 C 1457.07 746.323 1457.47 746.859 1457.87 747.396 L 1458.9 746.567 C 1471.03 758.086 1505.28 790.288 1518.77 800.112 L 1519.94 799.759 C 1520.01 801.315 1520 801.07 1520.41 802.633 L 1519.37 803.068 C 1513.31 841.938 1477.59 941.442 1451.9 971.876 L 1449.2 970.601 C 1447.63 976.413 1447.66 976.104 1444.62 981.755 C 1436.7 994.796 1426.92 1007.98 1418.56 1021.4 C 1381 970.027 1319.45 916.593 1264.9 883.862 C 1244.37 871.543 1222.24 861.324 1200.37 851.65 C 1226.74 766.895 1223.12 693.725 1193.16 610.809 z" fill="rgb(254,254,254)" transform="translate(0,0)"></path>
<path d="M 1458.9 746.567 C 1471.03 758.086 1505.28 790.288 1518.77 800.112 L 1519.94 799.759 C 1520.01 801.315 1520 801.07 1520.41 802.633 L 1519.37 803.068 C 1513.31 841.938 1477.59 941.442 1451.9 971.876 L 1449.2 970.601 C 1448.51 964.863 1452.38 926.191 1453 917.788 C 1456.08 875.667 1459.28 833.439 1459.11 791.143 C 1459.05 777.85 1459.55 760.359 1457.87 747.396 L 1458.9 746.567 z" fill="rgb(79,31,186)" transform="translate(0,0)"></path>
<path d="M 1519.94 799.759 C 1520.01 801.315 1520 801.07 1520.41 802.633 L 1519.37 803.068 C 1519.02 801.794 1518.87 801.394 1518.77 800.112 L 1519.94 799.759 z" fill="rgb(109,60,201)" transform="translate(0,0)"></path>
<path d="M 1022.11 409.778 C 1051.08 423.881 1081.25 451.528 1104.62 473.696 C 1143.57 510.626 1173.39 560.154 1192.57 610.205 L 1027.5 610.76 C 970.265 611.111 913.028 611.077 855.794 610.657 C 862.528 591.491 885.542 542.257 896.95 526.514 C 925.112 487.647 980.173 432.998 1022.11 409.778 z" fill="rgb(254,254,254)" transform="translate(0,0)"></path>
<path d="M 857.889 1442.14 L 1191.79 1442.06 C 1166.3 1515.1 1091.24 1603.83 1022.18 1638.05 L 1019.9 1637.56 C 1009.92 1630.44 996.888 1622.63 987.768 1615.14 C 955.886 1588.92 921.018 1557.81 897.626 1523.47 C 883.815 1503.2 865.121 1465.61 857.889 1442.14 z" fill="rgb(254,254,254)" transform="translate(0,0)"></path>
<path d="M 1019.9 1637.56 L 1022.18 1638.05 L 1021.98 1640.04 C 1069.92 1668.28 1137.5 1688.38 1193.66 1688.06 C 1196.32 1688.6 1198.64 1688.88 1201.27 1689.32 C 1197.06 1705.61 1192.4 1721.78 1187.3 1737.81 C 1143.51 1759.04 1096.6 1773.11 1048.36 1779.51 C 1014.37 1783.72 989.082 1782.3 955.406 1778.51 C 863.116 1768.15 788.523 1729.51 716.052 1672.96 L 716.664 1671.94 C 738.073 1678.64 752.903 1683.21 775.589 1687.03 C 853.611 1700.16 949.667 1674.43 1020.02 1640.15 L 1019.9 1637.56 z" fill="rgb(254,254,254)" transform="translate(0,0)"></path>
<path d="M 1019.9 1637.56 L 1022.18 1638.05 L 1021.98 1640.04 L 1020.02 1640.15 L 1019.9 1637.56 z" fill="rgb(109,60,201)" transform="translate(0,0)"></path>
<path d="M 992.151 265.416 C 1052.66 259.103 1135.75 286.02 1189.7 313.194 C 1194.46 328.408 1198.92 343.716 1203.06 359.109 C 1128.22 361.212 1087.99 373.37 1022.53 409.037 C 997.159 393.704 974.109 384.961 946.263 375.904 C 869.852 352.423 790.748 350.056 714.75 376.287 C 791.131 307.112 890.777 273.471 992.151 265.416 z" fill="rgb(254,254,254)" transform="translate(0,0)"></path>
<path d="M 849.333 1206.45 C 860.455 1211.95 878.216 1217.38 890.438 1220.83 C 968.398 1242.77 1036.36 1240.78 1114.16 1221.61 C 1053.02 1319.77 967.26 1398.58 852.645 1427.32 L 852.119 1426.4 C 828.708 1343.33 821.421 1290.03 849.333 1206.45 z" fill="rgb(254,254,254)" transform="translate(0,0)"></path>
<path d="M 391.04 1116.51 C 395.179 1118.67 403.218 1125.96 407.225 1129.33 C 435.488 1153.11 457.986 1178.42 481.031 1206.97 L 428.781 1206.74 C 445.565 1236.26 452.619 1247.83 473.663 1274.76 C 474.365 1256.14 479.97 1227.85 484.608 1209.52 C 520.585 1259.31 539.325 1302.17 560.963 1358.81 C 522.644 1329.35 503.156 1310.95 473.153 1272.89 C 472.43 1284.78 472.066 1296.69 472.06 1308.6 C 473.273 1352.18 476.639 1389.26 489.854 1431.16 C 487.986 1430.43 486.134 1429.66 484.3 1428.85 C 390.687 1387.43 320.215 1303.7 283.927 1209.12 L 428.785 1207.02 C 426.776 1201.83 424.286 1196.33 421.948 1191.26 C 410.618 1166.69 401.129 1141.58 391.04 1116.51 z" fill="rgb(254,254,254)" transform="translate(0,0)"></path>
<path d="M 1203.56 359.225 C 1225.11 360.193 1248.22 360.753 1269.39 364.295 C 1276.07 371.814 1287.84 380.778 1295.95 387.465 C 1355.56 441.084 1409.94 533.393 1430.89 610.599 C 1390.3 611.015 1349.04 610.081 1308.62 610.898 C 1307.07 604.837 1293.55 580.637 1289.86 573.564 C 1283.57 561.429 1277.65 549.105 1272.11 536.608 C 1245.68 478.926 1222.79 419.689 1203.56 359.225 z" fill="rgb(254,254,254)" transform="translate(0,0)"></path>
<path d="M 1310.64 1442.36 C 1348.87 1442.08 1387.11 1442.1 1425.34 1442.42 L 1426.89 1442.51 C 1400.98 1520.48 1359.65 1593.95 1301.96 1652.24 C 1292.83 1661.47 1282.18 1675.33 1270.85 1682.18 C 1258.82 1687.52 1229.67 1687.82 1215.75 1688.28 C 1213.42 1690 1204.93 1689.24 1201.27 1689.32 C 1198.64 1688.88 1196.32 1688.6 1193.66 1688.06 C 1197.08 1687.84 1198.74 1687.78 1202.12 1687.88 C 1208.57 1666.35 1214.31 1644.32 1220.97 1622.46 C 1242.25 1552.63 1271.17 1502.63 1310.64 1442.36 z" fill="rgb(254,254,254)" transform="translate(0,0)"></path>
<path d="M 1193.66 1688.06 C 1197.08 1687.84 1198.74 1687.78 1202.12 1687.88 C 1207.36 1688.45 1210.86 1687.97 1215.75 1688.28 C 1213.42 1690 1204.93 1689.24 1201.27 1689.32 C 1198.64 1688.88 1196.32 1688.6 1193.66 1688.06 z" fill="rgb(109,60,201)" transform="translate(0,0)"></path>
<path d="M 579.5 1029.64 C 639.669 1100.5 700.111 1145.73 784.617 1185.5 C 797.483 1191.56 814.566 1199.37 827.837 1203.79 L 826.013 1206.09 C 795.867 1205.51 761.904 1206.4 731.412 1206.38 L 485.853 1206.89 C 508.225 1138.07 534.018 1086.82 579.5 1029.64 z" fill="rgb(254,254,254)" transform="translate(0,0)"></path>
<path d="M 486.913 624.915 C 471.163 683.281 469.175 711.577 471.038 771.299 C 471.611 772.374 472.151 773.283 472.77 774.328 C 472.874 776.289 472.91 777.966 472.928 779.928 L 472.263 779.946 C 471.282 779.531 469.91 778.998 468.967 778.476 C 453.754 798.819 440.4 820.488 429.065 843.22 L 283.751 841.926 C 290.248 824.617 297.871 807.751 306.569 791.437 C 341.669 724.313 414.05 647.849 486.913 624.915 z" fill="rgb(254,254,254)" transform="translate(0,0)"></path>
<path d="M 471.038 771.299 C 471.611 772.374 472.151 773.283 472.77 774.328 C 472.874 776.289 472.91 777.966 472.928 779.928 L 472.263 779.946 C 471.282 779.531 469.91 778.998 468.967 778.476 L 471.423 775.113 C 471.133 773.44 470.999 772.981 471.038 771.299 z" fill="rgb(143,99,205)" transform="translate(0,0)"></path>
<path d="M 471.423 775.113 C 471.773 776.797 472.001 778.252 472.263 779.946 C 471.282 779.531 469.91 778.998 468.967 778.476 L 471.423 775.113 z" fill="rgb(109,60,201)" transform="translate(0,0)"></path>
<path d="M 560.7 1358.04 C 613.969 1398.05 677.102 1427.49 742.762 1439.33 L 741.158 1442.07 C 689.404 1441.78 637.268 1443.85 585.136 1443.6 C 602.906 1516.55 630.553 1584.08 682.024 1639.91 C 690.279 1648.87 703.924 1664.49 714.356 1669.85 L 712.897 1671.46 C 708.33 1669.09 698.735 1665.93 693.493 1663.99 C 590.093 1625.71 520.88 1535.73 490.373 1431.59 C 519.672 1442.4 553.793 1443.82 584.785 1443.71 C 576.723 1410.47 571.324 1390.3 560.7 1358.04 z" fill="rgb(254,254,254)" transform="translate(0,0)"></path>
<path d="M 1504.06 1442.57 C 1543.62 1442 1583.18 1441.84 1622.74 1442.09 C 1572.08 1510.3 1503.34 1581.23 1431.73 1627.12 C 1401.97 1645.63 1381.99 1655.77 1350.24 1671.14 C 1368.57 1654.39 1384.37 1640.47 1401.43 1621.89 C 1449.63 1569.44 1482.54 1510.17 1504.06 1442.57 z" fill="rgb(254,254,254)" transform="translate(0,0)"></path>
<path d="M 707.747 380.189 L 707.969 380.285 C 707.85 382.186 699.691 389.643 697.696 391.694 C 680.315 409.341 664.506 428.471 650.448 448.865 C 615.855 499.648 598.894 549.67 583.327 608.27 C 549.563 609.598 522.533 612.059 489.834 621.739 L 489.136 620.553 C 490.788 608.804 498.257 592.353 502.808 580.929 C 542.78 480.612 610.119 421.026 707.747 380.189 z" fill="rgb(254,254,254)" transform="translate(0,0)"></path>
<path d="M 1361.55 385.073 C 1382.58 393.085 1411.14 410.281 1430.1 422.581 C 1508.41 473.4 1569.62 534.477 1623.89 610.303 L 1506.42 610.754 C 1506.28 609.853 1506.23 609.429 1505.97 608.462 C 1486.11 538.861 1449.81 475.051 1400.14 422.41 C 1389.22 410.618 1372.94 393.959 1359.71 385.584 L 1361.55 385.073 z" fill="rgb(254,254,254)" transform="translate(0,0)"></path>
<path d="M 1431.59 610.712 L 1506.42 610.754 C 1526.55 680.838 1528.83 728.095 1519.94 799.759 L 1518.77 800.112 C 1505.28 790.288 1471.03 758.086 1458.9 746.567 L 1457.87 747.396 C 1457.47 746.859 1457.07 746.323 1456.67 745.786 C 1456.92 743.669 1457.14 741.548 1457.33 739.424 C 1456.52 733.732 1455.89 727.431 1455.35 721.688 C 1451.8 683.431 1441.51 647.727 1431.59 610.712 z" fill="rgb(254,254,254)" transform="translate(0,0)"></path>
<path d="M 1457.33 739.424 C 1457.86 741.867 1458.22 744.166 1458.9 746.567 L 1457.87 747.396 C 1457.47 746.859 1457.07 746.323 1456.67 745.786 C 1456.92 743.669 1457.14 741.548 1457.33 739.424 z" fill="rgb(226,209,241)" transform="translate(0,0)"></path>
<path d="M 387.77 934.94 C 389.478 936.705 382.332 961.074 381.501 965.387 C 371.963 1014.91 373.486 1067.96 390.569 1115.67 C 386.834 1112.95 382.733 1109.49 379.164 1106.5 C 360.26 1090.69 340.003 1077.52 319.256 1064.23 C 296.334 1050.33 271.685 1038.72 249.795 1024.66 C 258.105 1020.48 266.866 1014.95 274.962 1010.22 C 314.531 987.129 352.505 964.391 387.77 934.94 z" fill="rgb(254,254,254)" transform="translate(0,0)"></path>
<path d="M 583.079 608.956 C 635.004 608.375 686.935 608.721 738.848 609.995 C 741.143 610.575 744.428 610.326 744.61 612.736 C 737.73 613.016 722.644 615.997 715.454 617.576 C 660.258 629.698 606.322 655.364 560.795 688.693 C 569.503 665.984 577.65 633.2 583.079 608.956 z" fill="rgb(254,254,254)" transform="translate(0,0)"></path>
<path d="M 472.77 774.328 C 500.892 740.751 526.091 716.774 559.842 689.239 C 544.142 731.958 529.73 767.602 504.786 806.257 C 498.083 816.643 491.284 828.231 482.792 837.204 C 479.429 821.112 473.4 795.388 472.928 779.928 C 472.91 777.966 472.874 776.289 472.77 774.328 z" fill="rgb(254,254,254)" transform="translate(0,0)"></path>
<path d="M 1113.79 824.238 C 1139.2 829.876 1175.83 841.53 1199.19 851.97 C 1193.47 866.294 1184.34 887.063 1175.8 899.924 C 1170.07 908.99 1164.19 917.359 1158 926.094 C 1147.89 887.706 1133.51 858.344 1113.79 824.238 z" fill="rgb(254,254,254)" transform="translate(0,0)"></path>
<path d="M 1156.86 1123.92 C 1171.44 1141.64 1188.27 1169.66 1196.67 1191.21 L 1196.99 1193.65 C 1176.51 1203.13 1137.91 1214.98 1115.96 1220.28 C 1135.73 1185.62 1146.51 1163.3 1156.86 1123.92 z" fill="rgb(254,254,254)" transform="translate(0,0)"></path>
<path d="M 1351.69 381.244 C 1337.53 375.53 1324.48 372.768 1309.78 369.836 C 1303.91 368.664 1284.87 365.353 1280.51 362.747 C 1263.52 352.593 1246.17 338.928 1229.51 327.85 C 1217.36 319.772 1205.56 312.97 1193.37 305.141 C 1190.95 303.588 1188.35 301.36 1187.4 298.605 L 1188.69 297.495 C 1202.1 297.073 1236.47 313.088 1249.96 318.88 C 1286.8 334.693 1321.16 356.944 1353.58 380.304 L 1351.69 381.244 z" fill="rgb(254,254,254)" transform="translate(0,0)"></path>
<path d="M 1333.73 1678.61 C 1334.82 1678.25 1334.22 1678.28 1335.52 1678.77 C 1304.34 1707.7 1229.16 1738.99 1187.39 1750.3 L 1186.19 1750.44 L 1185.78 1749.1 C 1187.85 1745.91 1194.46 1740.31 1197.83 1738.79 C 1225.58 1726.27 1247.97 1705.26 1272.86 1689.46 C 1276.08 1687.38 1279.54 1685.72 1283.17 1684.5 C 1293.97 1680.95 1321.62 1679.31 1333.73 1678.61 z" fill="rgb(254,254,254)" transform="translate(0,0)"></path>
<path d="M 474.335 844.582 C 474.576 844.586 476.098 844.744 475.601 845.388 C 451.427 876.741 422.827 903.924 392.722 929.468 C 392.677 929.468 391.51 929.536 391.54 929.278 C 393.289 914.567 424.631 852.163 428.569 844.96 C 443.825 844.991 459.081 844.865 474.335 844.582 z" fill="rgb(254,254,254)" transform="translate(0,0)"></path>
<path d="M 852.119 1426.4 L 852.645 1427.32 C 853.315 1432.39 855.446 1437.37 857.408 1442.12 C 832.315 1442.69 806.863 1441.39 782.759 1442.07 L 785.251 1439.87 C 793.088 1440.17 803.618 1437.97 811.464 1436.68 L 815.986 1435.75 C 827.971 1433.19 839.379 1429.38 851.177 1426.61 L 852.119 1426.4 z" fill="rgb(254,254,254)" transform="translate(0,0)"></path>
<path d="M 778.443 609.976 C 802.325 611.077 827.94 608.942 852.036 610.159 C 853.072 610.212 854.465 609.972 854.361 611.276 C 853.024 615.146 852.222 619.089 850.792 622.779 C 848.369 622.231 845.449 621.635 842.99 621.157 L 831.014 618.793 C 826.191 617.813 821.349 616.927 816.49 616.138 C 808.209 614.859 799.542 613.324 791.204 612.758 C 786.575 612.968 781.161 611.976 775.978 612.042 L 778.443 609.976 z" fill="rgb(254,254,254)" transform="translate(0,0)"></path>
<path d="M 778.443 609.976 C 802.325 611.077 827.94 608.942 852.036 610.159 C 853.072 610.212 854.465 609.972 854.361 611.276 C 848.061 610.949 792.005 608.931 791.204 612.758 C 786.575 612.968 781.161 611.976 775.978 612.042 L 778.443 609.976 z" fill="rgb(176,147,222)" transform="translate(0,0)"></path>
<path d="M 753.582 1440.95 C 758.407 1440.72 771.634 1440.77 776.634 1440.98 L 778.005 1442.36 C 768.651 1443 763.295 1443.4 753.84 1441.97 L 753.582 1440.95 z" fill="rgb(109,60,201)" transform="translate(0,0)"></path>
<path d="M 754.639 609.919 C 761.833 609.89 771.462 609.76 778.443 609.976 L 775.978 612.042 C 770.21 612.275 762.836 611.97 756.797 611.993 L 754.639 609.919 z" fill="rgb(109,60,201)" transform="translate(0,0)"></path>
<path d="M 738.848 609.995 C 744.228 609.902 749.263 610.155 754.639 609.919 L 756.797 611.993 C 752.371 612.056 748.305 612.803 744.61 612.736 C 744.428 610.326 741.143 610.575 738.848 609.995 z" fill="rgb(176,147,222)" transform="translate(0,0)"></path>
<path d="M 742.762 1439.33 C 746.195 1439.62 750.276 1440.03 753.582 1440.95 L 753.84 1441.97 C 749.645 1441.9 745.402 1442.08 741.158 1442.07 L 742.762 1439.33 z" fill="rgb(226,209,241)" transform="translate(0,0)"></path>
<path d="M 1353.58 380.304 C 1356.5 381.432 1359.08 383.18 1361.55 385.073 L 1359.71 385.584 C 1356.99 384.26 1354.57 382.683 1351.69 381.244 L 1353.58 380.304 z" fill="rgb(143,99,205)" transform="translate(0,0)"></path>
<path d="M 776.634 1440.98 C 779.691 1440.58 782.132 1440.11 785.251 1439.87 L 782.759 1442.07 C 781.173 1442.15 779.589 1442.24 778.005 1442.36 L 776.634 1440.98 z" fill="rgb(143,99,205)" transform="translate(0,0)"></path>
<path d="M 827.837 1203.79 C 829.05 1203.92 831.834 1203.88 832.255 1205.32 C 831.316 1206.24 827.269 1206.05 826.013 1206.09 L 827.837 1203.79 z" fill="rgb(226,209,241)" transform="translate(0,0)"></path>
<path d="M 714.356 1669.85 C 715.17 1670.54 715.883 1671.21 716.664 1671.94 L 716.052 1672.96 C 714.862 1672.46 713.979 1672.16 712.897 1671.46 L 714.356 1669.85 z" fill="rgb(109,60,201)" transform="translate(0,0)"></path>
<path d="M 1196.67 1191.21 C 1197.75 1191.96 1198.8 1192.66 1199.86 1193.44 L 1199.18 1194.78 L 1196.99 1193.65 L 1196.67 1191.21 z" fill="rgb(109,60,201)" transform="translate(0,0)"></path>
<metadata><recraft-signature>{"signed_by": "recraft", "signature_b64": "wnDBS2rnC/02kaEwqnppnxS7kBgBJ4rKrYbWXa3fDCXhNkOADa5olUBm2wyEdG03M+smCJLRv8ESKHaKqwwOBg==", "signing_algo": "Ed25519", "generation_timestamp": 1772808162, "identifier": "ea9243d0-19c6-454e-a00e-8be33cd7e2fa"}</recraft-signature></metadata></svg>