<svg xmlns="http://www.w3.org/2000/svg" height="1024" preserveAspectRatio="none" style="display: block;" version="1.1" viewBox="0 0 2048 2048" width="1024">
<path d="M 0 0 L 2048 0 L 2048 2048 L 0 2048 L 0 0 z" fill="rgb(255,255,255)" transform="translate(0,0)"></path>
<path d="M 1010.6 539.99 C 1278.31 532.24 1501.61 743.009 1509.31 1010.73 C 1517.02 1278.44 1306.21 1501.71 1038.49 1509.36 C 770.838 1517.02 547.643 1306.28 539.94 1038.62 C 532.238 770.97 742.945 547.739 1010.6 539.99 z" fill="rgb(41,137,68)" transform="translate(0,0)"></path>
<path d="M 1006.31 601.571 C 1240.02 591.44 1437.75 772.544 1448.14 1006.24 C 1458.52 1239.93 1277.63 1437.86 1043.95 1448.5 C 809.909 1459.16 611.607 1277.93 601.205 1043.88 C 590.804 809.822 772.248 611.717 1006.31 601.571 z" fill="rgb(255,255,255)" transform="translate(0,0)"></path>
<path d="M 1024.83 723.872 C 1033.05 715.035 1039.42 708.799 1049.41 702.01 C 1119.64 654.289 1219.98 685.584 1248.61 766.042 C 1250.66 771.83 1252.28 777.318 1253.9 783.218 C 1334.18 797.095 1383.32 869.169 1369.07 948.092 C 1365.71 966.745 1360.04 982.133 1347.61 996.482 C 1395.69 1054.94 1383.5 1143.54 1325.08 1189.65 C 1303.92 1206.34 1285.1 1213.71 1259.06 1218.53 C 1256.29 1304.69 1193 1373.66 1104.07 1372.64 C 1081.08 1372.38 1047.13 1363.86 1028.1 1350.42 C 1026.31 1350.18 1025.67 1350.12 1023.85 1350.09 C 991.923 1370.52 945.39 1377.05 908.305 1368.79 C 869.5 1359.86 835.83 1335.88 814.692 1302.14 C 798.561 1276.54 790.46 1247.92 789.285 1217.78 C 751.394 1210.87 719.309 1191.66 697.072 1159.83 C 675.735 1129.5 667.616 1091.81 674.572 1055.38 C 678.523 1034.42 687.866 1012.77 701.497 996.282 C 680.97 964.307 672.769 928.898 680.768 891.27 C 688.361 855.432 709.928 824.099 740.692 804.209 C 758.648 792.678 775.525 787.525 796.296 783.475 C 800.077 768.851 803.449 757.482 811.215 744.341 C 856.943 666.966 965.904 657.145 1024.83 723.872 z" fill="rgb(255,255,255)" transform="translate(0,0)"></path>
<path d="M 1024.83 723.872 C 1033.05 715.035 1039.42 708.799 1049.41 702.01 C 1119.64 654.289 1219.98 685.584 1248.61 766.042 C 1250.66 771.83 1252.28 777.318 1253.9 783.218 C 1334.18 797.095 1383.32 869.169 1369.07 948.092 C 1365.71 966.745 1360.04 982.133 1347.61 996.482 C 1395.69 1054.94 1383.5 1143.54 1325.08 1189.65 C 1303.92 1206.34 1285.1 1213.71 1259.06 1218.53 C 1256.29 1304.69 1193 1373.66 1104.07 1372.64 C 1081.08 1372.38 1047.13 1363.86 1028.1 1350.42 L 1029.05 1348.07 C 1069.14 1345.57 1095.22 1334.72 1125.86 1308.96 L 1126.98 1311.67 L 1126.98 1312.95 C 1136.6 1312.61 1155.82 1302.97 1163.7 1297.21 C 1196.4 1273.3 1205.92 1239.92 1204.2 1201.34 C 1203.54 1188.49 1202.73 1175.64 1201.77 1162.81 C 1236.43 1165.87 1263.76 1167.66 1292.24 1143.51 C 1308.78 1129.68 1319.06 1109.76 1320.73 1088.26 C 1322.62 1066.61 1315.62 1045.12 1301.36 1028.73 C 1289.42 1014.84 1275.84 1007.91 1259.1 1001.24 C 1258.98 986.291 1257.28 973.925 1256.73 959.661 C 1273.91 960.736 1281.07 962.425 1297.51 967.775 C 1302.31 959.616 1306.3 952.836 1309.52 943.948 C 1325.88 898.727 1298.63 852.397 1253.81 839.844 C 1251.37 853.306 1243.39 868.851 1236.88 880.842 C 1222.75 870.205 1212.72 863.123 1197.32 853.927 C 1235.59 753.369 1096.32 680.831 1053.59 789.577 C 1045.85 809.259 1048.82 839.765 1048.1 861.181 C 1030.07 859.529 1019.91 859.862 1002.06 861.152 C 1002.16 823.738 1005.8 786.919 976.777 758.422 C 962.938 744.831 944.786 734.75 925.146 735.001 C 880.045 735.578 845.396 777.571 845.551 821.233 C 845.593 833.303 848.876 843.202 852.3 854.373 C 839.344 861.913 825.978 872.068 813.598 880.851 C 802.785 865.793 799.722 857.707 793.357 840.1 C 771.536 847.911 753.1 863.282 743.071 884.377 C 734.024 903.105 732.899 924.687 739.949 944.254 C 742.922 952.552 747.148 960.346 752.481 967.364 C 767.881 962.45 776.997 960.17 793.353 959.827 C 791.725 975.568 790.805 986.268 790.96 1002.23 C 767.263 1009.48 750.028 1021.45 738.198 1044.02 C 728.033 1063.27 726.088 1085.81 732.806 1106.52 C 739.696 1127.84 754.848 1145.52 774.871 1155.58 C 801.667 1169.09 821.157 1164.45 849.151 1162.85 C 848.176 1194.48 842.782 1223.45 853.601 1254.6 C 864.603 1286.28 891.562 1307.15 924.005 1314.08 C 925.068 1314.31 925.223 1314.05 926.096 1313.58 C 924.345 1309.96 918.938 1304.05 916.137 1300.73 C 920.983 1304.01 925.415 1307.95 929.884 1311.74 C 958.432 1334.63 984.404 1346.66 1021.51 1348.1 C 1022.02 1348.66 1023.3 1349.64 1023.85 1350.09 C 991.923 1370.52 945.39 1377.05 908.305 1368.79 C 869.5 1359.86 835.83 1335.88 814.692 1302.14 C 798.561 1276.54 790.46 1247.92 789.285 1217.78 C 751.394 1210.87 719.309 1191.66 697.072 1159.83 C 675.735 1129.5 667.616 1091.81 674.572 1055.38 C 678.523 1034.42 687.866 1012.77 701.497 996.282 C 680.97 964.307 672.769 928.898 680.768 891.27 C 688.361 855.432 709.928 824.099 740.692 804.209 C 758.648 792.678 775.525 787.525 796.296 783.475 C 800.077 768.851 803.449 757.482 811.215 744.341 C 856.943 666.966 965.904 657.145 1024.83 723.872 z" fill="rgb(41,137,68)" transform="translate(0,0)"></path>
<path d="M 1136.88 1299.11 C 1133.32 1304.08 1130.34 1307.15 1126.98 1311.67 L 1125.86 1308.96 C 1129.44 1305.67 1133.23 1302.36 1136.88 1299.11 z" fill="rgb(114,167,129)" transform="translate(0,0)"></path>
<path d="M 1021.51 1348.1 C 1024.02 1348.06 1026.54 1348.05 1029.05 1348.07 L 1028.1 1350.42 C 1026.31 1350.18 1025.67 1350.12 1023.85 1350.09 C 1023.3 1349.64 1022.02 1348.66 1021.51 1348.1 z" fill="rgb(114,167,129)" transform="translate(0,0)"></path>
<path d="M 1097.12 819.184 C 1115.46 826.609 1140.6 844.034 1154.99 857.531 C 1189.87 890.431 1210.29 935.818 1211.76 983.744 C 1213.42 1048.5 1191.26 1090.82 1148.03 1136.63 C 1146.59 1157.58 1147.04 1182.72 1146.9 1204 L 902.095 1203.92 L 902.617 1137.37 C 880.953 1114.37 867.557 1099.95 854.249 1070.52 C 809.435 971.428 855.739 862.922 953.724 819.374 C 961.404 835.026 969.12 853.979 976.012 870.147 C 945.131 885.695 932.349 895.428 913.1 924.922 C 898.117 949.885 891.673 979.049 894.743 1008 C 898.88 1050.5 921.237 1081.83 953.228 1108.31 L 952.995 1147.89 L 1000.21 1148.01 L 1000.67 1074.32 C 970.302 1063.56 948.884 1037.87 946.253 1005.35 C 945.652 997.918 945.602 990.364 945.45 982.909 L 1002.5 982.994 C 1001.72 994.903 1000.76 1005.95 1008.99 1015.85 C 1017.19 1025.71 1030.56 1026.44 1039.67 1017.34 C 1049.65 1007.37 1048.49 995.727 1048.33 982.852 L 1105.54 982.937 C 1104.82 1026.85 1094.32 1058.61 1049.09 1074.05 C 1048.88 1098.29 1049.3 1123.16 1049.48 1147.44 L 1097.06 1147.84 L 1096.86 1108.17 C 1115.69 1092.81 1127.69 1081.04 1139.53 1059.08 C 1157.2 1027.02 1160.97 989.134 1149.97 954.227 C 1136.79 911.087 1112.09 889.583 1074.01 869.407 C 1080.02 853.676 1089.7 834.458 1097.12 819.184 z" fill="rgb(41,137,68)" transform="translate(0,0)"></path>
<path d="M 915.76 1233.15 C 936.444 1232.96 957.128 1232.94 977.812 1233.11 L 978.797 1234.08 C 1007.36 1261.62 1046.4 1262.11 1074.24 1233.39 C 1093.34 1232.39 1118.57 1233.23 1138.17 1233.47 C 1132.42 1246.92 1126.56 1255.61 1117.53 1266.93 C 1100.54 1284.81 1081.3 1298.78 1057.29 1305.29 C 1026.82 1313.36 994.406 1309.09 967.077 1293.39 C 946.251 1281.34 922.149 1256.73 915.76 1233.15 z" fill="rgb(41,137,68)" transform="translate(0,0)"></path>
<metadata><recraft-signature>{"signed_by": "recraft", "signature_b64": "Xz0bXySAlMiRykFv6dl1/VZVjybAd8VaM92C2Usgt0F2iBA4pEqK5Xr5MEbVJ5vG8fMAZbDXff0x0G1Q+VRMDw==", "signing_algo": "Ed25519", "generation_timestamp": 1772807984, "identifier": "912e7a76-0db1-4970-b284-8551424ead57"}</recraft-signature></metadata></svg>