<svg xmlns="http://www.w3.org/2000/svg" height="1024" preserveAspectRatio="none" style="display: block;" version="1.1" viewBox="0 0 2048 2048" width="1024">
<path d="M 0 0 L 2048 0 L 2048 2048 L 0 2048 L 0 0 z" fill="rgb(251,251,250)" transform="translate(0,0)"></path>
<path d="M 988.316 291.961 C 1392.74 271.814 1736.93 583.3 1757.14 987.72 C 1777.34 1392.14 1465.9 1736.38 1061.48 1756.64 C 656.988 1776.9 312.668 1465.39 292.461 1060.89 C 272.254 656.39 583.814 312.112 988.316 291.961 z" fill="rgb(10,156,65)" transform="translate(0,0)"></path>
<path d="M 779.516 528.842 C 789.301 511.464 797.968 499.954 814.125 487.688 C 843.734 465.608 880.879 456.146 917.443 461.371 C 967.014 468.574 995.766 490.054 1024.84 529.215 C 1043.62 503.353 1058.42 489.407 1087.44 474.852 C 1151.27 442.837 1240.47 463.127 1272.18 530.989 C 1349.33 503.333 1410.16 494.587 1491.27 499.239 L 1491.42 640.867 C 1491.6 678.582 1492.56 721.748 1491.01 759.131 C 1510.77 781.262 1523.41 804.781 1529.14 834.079 C 1537.76 878.146 1528.08 910.273 1504.14 946.712 C 1515.52 961.117 1527.75 977.56 1533.34 995.279 L 1537.07 996.038 C 1536.15 951.447 1536.94 904.338 1536.91 859.472 L 1536.71 589.398 C 1555.79 589.689 1580.32 590.774 1598.98 594.171 L 1598.96 1453.02 C 1564.72 1452.78 1524.98 1455.96 1491.01 1459.99 C 1369.48 1474.09 1251.38 1509.44 1142.09 1564.43 C 1097.95 1586.5 1064.05 1607.44 1022.56 1633.49 C 999.641 1615.49 956.496 1591.82 930.556 1577.89 C 820.629 1518.91 701.045 1480.05 577.444 1463.13 C 533.678 1457.29 492.774 1454.89 448.796 1452.95 L 448.152 597.367 C 468.788 595.789 490.631 592.645 511.661 590.829 C 509.228 724.148 511.64 860.346 510.963 993.992 C 511.622 997.303 511.518 997.56 513.446 1000.22 C 521.097 979.006 530.052 965.74 542.927 947.94 C 500.563 889.095 508.026 814.761 559.26 764.165 C 560.314 735.01 559.885 703.243 559.987 673.951 L 560.005 500.629 C 630.848 495.081 712.169 506.606 779.516 528.842 z" fill="rgb(251,251,250)" transform="translate(0,0)"></path>
<path d="M 510.963 993.992 C 511.622 997.303 511.518 997.56 513.446 1000.22 C 513.317 1000.93 512.85 1006.15 511.584 1006.14 C 510.512 1004.88 510.939 996.16 510.963 993.992 z" fill="rgb(68,154,98)" transform="translate(0,0)"></path>
<path d="M 1537.07 996.038 C 1537.05 997.223 1537.27 1001.22 1536.47 1002.08 C 1535.5 1001.72 1533.8 996.409 1533.34 995.279 L 1537.07 996.038 z" fill="rgb(68,154,98)" transform="translate(0,0)"></path>
<path d="M 1096.05 828.352 C 1131.81 823.787 1162.25 852.137 1168.21 886.093 C 1170.37 898.377 1169.37 909.924 1168.54 922.234 C 1154.97 923.012 1151.01 922.566 1140.7 931.644 C 1140.57 940.18 1142.85 965.796 1145.65 973.316 C 1149.72 976.272 1163.89 975.313 1169.95 975.185 C 1212.29 974.214 1261.48 1011.55 1265.58 1054.92 C 1266 1059.3 1247.03 1066.07 1243.2 1067.91 C 1228.93 1074.96 1215.69 1083.91 1203.83 1094.52 C 1173.88 1120.93 1156.88 1160.17 1154.36 1199.67 C 1171.81 1201.39 1189.28 1202.87 1206.77 1204.11 C 1217.63 1133.22 1264.21 1105.47 1332.59 1104.01 C 1326.91 1075.92 1316.81 1048.26 1325.46 1019.88 C 1347.89 946.268 1440.65 936.612 1477.02 1006.26 C 1480.14 1012.96 1482.47 1020 1483.95 1027.24 C 1494.44 1079.02 1461.1 1127.97 1411.44 1142.94 C 1403.61 1145.3 1396.57 1146.7 1388.53 1148.23 C 1395.28 1174.5 1395.24 1200.03 1384.61 1225.12 C 1368.11 1264.04 1330.5 1290.36 1287.81 1289.01 C 1272.79 1288.54 1261.13 1284.91 1247.01 1280.46 C 1242.55 1292.05 1234.47 1304.76 1225.71 1313.58 C 1207.21 1332.08 1181.97 1342.25 1155.8 1341.75 C 1127.26 1341.39 1100.09 1329.43 1080.54 1308.63 C 1051.29 1278.11 1055.03 1258.58 1054.83 1219.62 L 1054.5 1140.92 C 1054.19 1045.56 1053.15 946.224 1054.76 850.978 C 1065.98 835.83 1078.02 830.748 1096.05 828.352 z" fill="rgb(10,156,65)" transform="translate(0,0)"></path>
<path d="M 945.24 827.41 C 964.125 826.9 979.335 833.373 992.935 846.132 L 992.712 1155.55 L 992.884 1226.58 C 992.911 1235.92 993.637 1261.43 991.63 1268.97 C 985.303 1292.72 964.766 1315.73 943.96 1327.84 C 920.575 1341.68 892.554 1345.38 866.376 1338.09 C 835.533 1329.55 817.55 1310.3 802.481 1283.39 C 782.814 1289.5 765.136 1292.12 744.494 1288.78 C 717.276 1284.59 692.921 1269.54 677 1247.07 C 654.598 1215.49 655.853 1183.52 662.109 1147.41 C 649.335 1146.28 636.836 1143.03 625.127 1137.8 C 573.927 1114.77 549.142 1057.7 572.344 1005.65 C 589.966 972.303 620.979 954.114 658.995 960.132 C 680.426 963.509 699.57 975.438 712.045 993.189 C 739.139 1031.07 725.258 1063.87 718.306 1103.97 C 784.481 1104.89 834.538 1136.16 843.195 1205.16 C 861.296 1204.29 880.88 1202.13 899.151 1200.65 C 891.641 1144.74 867.005 1100.04 815.798 1071.94 C 808.801 1068.11 790.326 1061.68 786.648 1055.97 C 784.968 1046.22 789.357 1036.06 794.169 1027.4 C 809.875 999.115 838.821 978.962 871.173 975.543 C 880.328 974.576 896.014 976.271 904.016 973.964 C 909.563 968.321 913.9 939.37 910.964 931.65 C 902.914 923.926 890.916 923.544 880.019 922.095 C 879.302 917.408 878.738 912.698 878.326 907.974 C 874.746 863.956 900.659 830.863 945.24 827.41 z" fill="rgb(10,156,65)" transform="translate(0,0)"></path>
<path d="M 1142.8 515.321 C 1242.39 505.842 1268.39 647.546 1167.91 671.499 C 1167.97 682.39 1166.7 711.222 1169.47 719.74 C 1171.43 721.767 1173.63 723.323 1176.71 723.083 C 1216.96 719.946 1253.42 693.117 1272.04 657.843 C 1283.14 636.8 1286.2 617.034 1287.1 593.864 C 1348.23 609.853 1395.01 667.976 1394.89 731.223 C 1394.88 737.765 1394.23 744.541 1393.63 751.056 C 1399.02 762.048 1407.74 766.873 1418.02 772.683 C 1457.43 794.959 1480.09 834.505 1470.18 880.843 C 1466.98 891.92 1462.31 902.52 1456.29 912.359 C 1428.37 900.966 1402.97 898.95 1373.46 906.098 C 1336.73 914.978 1304.98 937.977 1285.1 970.11 C 1259.35 946.133 1255.44 944.69 1225.02 927.586 C 1228.32 904.514 1228.54 879.476 1219.7 857.671 C 1190.52 785.722 1126.82 755.44 1055.08 782.166 L 1055.18 671.03 C 1055.1 633.584 1050.14 598.605 1069.78 565.37 C 1087.17 535.94 1109.48 521.072 1142.8 515.321 z" fill="rgb(10,156,65)" transform="translate(0,0)"></path>
<path d="M 1332.35 757.124 C 1336.65 756.817 1342.48 756.177 1346.52 757.021 C 1375.86 763.156 1375.79 793.962 1353.59 809.172 C 1334.19 822.47 1326.06 843.092 1321.6 865.032 L 1306.32 865.031 L 1268.84 864.817 C 1269.2 829.168 1286.7 801.855 1309.83 776.707 C 1319.42 766.286 1317.19 762.591 1332.35 757.124 z" fill="rgb(251,251,250)" transform="translate(0,0)"></path>
<path d="M 895.366 514.42 C 921.765 514.138 944.732 522.942 963.477 541.775 C 976.212 554.491 985.138 570.515 989.247 588.036 C 993.435 605.829 991.932 644.546 991.952 664.365 L 992.142 781.003 C 932.992 760.623 879.472 777.272 842.086 828.785 C 820.542 858.47 816.759 894.182 823.069 929.706 C 797.054 944.204 786.044 950.732 764.036 971.717 C 725.028 909.75 660.243 890.722 591.811 912.552 C 586.267 904.187 583.265 897.496 579.635 888.252 C 566.904 848.835 581.585 811.308 615.391 787.916 C 625.045 781.236 650.759 768.673 655.655 758.582 C 658.939 751.812 656.414 732.122 656.958 723.215 C 660.941 658.019 703.355 616.089 762.111 593.89 C 763.411 650.919 793.872 698.197 847.564 718.519 C 856.402 721.864 872.622 727.097 881.487 723.07 C 884.782 719.083 883.093 680.112 883.025 672.774 C 869.13 669.504 856.34 663.72 845.379 654.484 C 829.432 641.136 819.597 621.88 818.129 601.136 C 816.194 579.134 823.355 557.299 837.946 540.717 C 853.051 523.432 872.872 515.788 895.366 514.42 z" fill="rgb(10,156,65)" transform="translate(0,0)"></path>
<path d="M 703.938 756.236 C 728.329 754.944 724.875 759.486 738.798 774.152 C 757.257 793.596 770.328 809.366 777.084 836.065 L 777.411 837.389 C 778.997 843.996 780.142 850.433 781.449 857.083 L 757.407 857.152 L 727.395 856.924 C 723.863 844.025 719.59 830.891 710.728 820.619 C 700.927 809.186 683.071 805.109 680.202 788.493 C 676.962 769.732 686.361 759.791 703.938 756.236 z" fill="rgb(251,251,250)" transform="translate(0,0)"></path>
<path d="M 1530.96 1100.73 L 1536.82 1084.11 C 1538.03 1162.42 1536.15 1241.09 1536.96 1319.44 C 1537.08 1330.85 1537.23 1342.81 1536.79 1354.16 C 1537.19 1367.87 1536.91 1383.09 1536.97 1396.92 C 1502.37 1397.63 1446.23 1406.04 1412.39 1412.48 C 1309.44 1431.38 1209.62 1464.51 1115.8 1510.93 C 1095.88 1520.76 1074.57 1532.82 1054.94 1543.48 C 1054.51 1481.51 1054.45 1419.54 1054.77 1357.58 C 1071.3 1369.88 1081.61 1375.25 1099.99 1383.54 C 1099.88 1409.44 1100.65 1435.14 1099.98 1461.1 C 1203.98 1412.9 1302.65 1377.95 1416.7 1360.08 C 1438.49 1356.67 1465.91 1351.09 1487.65 1350.86 L 1487.43 1163.01 C 1510.08 1141.31 1518.63 1130.62 1530.96 1100.73 z" fill="rgb(10,156,65)" transform="translate(0,0)"></path>
<path d="M 1530.96 1100.73 L 1536.82 1084.11 C 1538.03 1162.42 1536.15 1241.09 1536.96 1319.44 C 1537.08 1330.85 1537.23 1342.81 1536.79 1354.16 C 1535.37 1349.16 1535.89 1301.23 1535.89 1291.99 C 1535.86 1230.73 1535.92 1169.38 1535.94 1108.12 C 1535.94 1104.63 1536.29 1101.18 1534.13 1099.06 L 1530.96 1100.73 z" fill="rgb(68,154,98)" transform="translate(0,0)"></path>
<path d="M 511.835 1133.44 C 511.43 1128.97 510.484 1085.43 511.599 1084.7 C 512.728 1085.14 513.155 1088.3 513.33 1089.24 C 523.172 1118.8 538.871 1142.91 562.801 1163.19 L 562.91 1349.52 C 677.405 1361.68 794.725 1395.25 900.475 1440.2 C 916.887 1447.18 932.735 1455.38 949.016 1462.57 L 949.181 1383.89 C 966.416 1375.33 976.626 1370.52 991.995 1358.58 L 992.182 1544.13 C 971.447 1530.62 941.718 1515.88 919.349 1505.09 C 796.284 1445.72 647.382 1403.13 510.932 1396.76 C 510.752 1336.68 511.022 1276.6 511.743 1216.53 C 511.88 1190.23 510.939 1159.21 511.835 1133.44 z" fill="rgb(10,156,65)" transform="translate(0,0)"></path>
<path d="M 511.835 1133.44 C 511.43 1128.97 510.484 1085.43 511.599 1084.7 C 512.728 1085.14 513.155 1088.3 513.33 1089.24 C 511.214 1094.74 512.589 1124.55 511.835 1133.44 z" fill="rgb(68,154,98)" transform="translate(0,0)"></path>
<metadata><recraft-signature>{"signed_by": "recraft", "signature_b64": "vU3zpSuutIZo2z+Hjklh7wyJbEQdR+Wnsosd4x03kjhIdoJWXGn0BAWp85zWERYBd1O6xazEv/g300IduxDACQ==", "signing_algo": "Ed25519", "generation_timestamp": 1772807961, "identifier": "82b27dfe-37e4-4e25-9cdd-01837aefd1c4"}</recraft-signature></metadata></svg>