<svg xmlns="http://www.w3.org/2000/svg" height="1024" preserveAspectRatio="none" style="display: block;" version="1.1" viewBox="0 0 2048 2048" width="1024">
<path d="M 0 0 L 2048 0 L 2048 2048 L 0 2048 L 0 0 z" fill="rgb(255,255,255)" transform="translate(0,0)"></path>
<path d="M 1017.81 236.894 C 1027.45 237.063 1188.44 308.502 1208.58 317.197 C 1275.68 345.508 1342.6 374.236 1409.34 403.38 L 1624.6 495.4 C 1655.05 508.455 1688.51 521.51 1718.16 535.229 C 1718.98 604.721 1717.49 674.899 1718.17 744.574 C 1745.81 771.372 1743.68 813.833 1743.86 849.126 C 1744 876.213 1743.99 903.3 1743.81 930.387 C 1706.03 931.151 1665.3 929.931 1628.11 931.492 C 1638.82 945.79 1650.44 958.887 1660.76 973.929 C 1727.64 1071.38 1753.17 1201.19 1731.42 1316.99 C 1702.41 1471.37 1601.01 1602.87 1473.73 1690.64 C 1290.88 1816.73 1071.18 1848.58 855.25 1809.29 C 845.691 1807.57 836.165 1805.67 826.677 1803.6 C 666.144 1768.07 512.791 1677.61 411.657 1546.81 C 400.898 1532.14 390.874 1516.48 380.962 1501.24 C 309.162 1390.87 290.386 1248.16 318.257 1120.61 C 349.755 976.462 453.246 851.228 575.565 772.578 C 588.332 764.369 600.618 754.807 613.694 746.513 C 614.403 715.575 613.617 682.763 613.39 651.668 C 594.717 643.581 573.583 636.498 554.337 629.439 L 475.348 600.135 L 309.192 538.41 C 360.303 515.057 414.491 493.543 466.506 471.294 L 865.524 301.752 C 915.442 280.449 968.446 258.855 1017.81 236.894 z" fill="rgb(6,150,68)" transform="translate(0,0)"></path>
<path d="M 1440.66 1034.4 C 1445.58 1033.58 1454.45 1033.68 1459.53 1033.76 C 1524.73 1034.77 1587.46 1072.99 1615.06 1132.95 C 1633.02 1171.49 1634.9 1215.59 1620.28 1255.52 C 1603.26 1300.74 1572.8 1328.24 1529.94 1347.78 L 1529.91 1486.66 C 1520.17 1504.5 1497.22 1532.59 1483.9 1547.88 C 1465.3 1489.58 1420.24 1452.27 1357.42 1454.88 C 1325.95 1455.99 1296.3 1469.89 1275.31 1493.36 C 1233.76 1539.28 1234.14 1606.79 1274.38 1653.66 C 1279.79 1659.96 1285.26 1665.06 1291.4 1670.64 C 1268.45 1680.23 1241.56 1687.12 1217.47 1693.28 C 1128.71 1715.99 1050.8 1718.62 960.099 1715.09 C 945.013 1690.63 933.787 1672.83 926.342 1644.42 C 899.907 1543.56 975.094 1452.43 1074.04 1438.1 C 1088.77 1435.97 1102.48 1436.89 1117.3 1436.58 C 1117.77 1436.2 1118.23 1435.82 1118.69 1435.44 L 1118.86 1431.25 L 1118.95 1331.04 C 1083.44 1330.05 1054.2 1331.85 1019.54 1341.28 C 947.985 1361.02 887.113 1408.2 850.148 1472.57 C 823.346 1519.94 810.12 1576.12 816.153 1630.47 C 818.356 1650.31 822.57 1665.98 827.832 1684.92 C 815.898 1681.75 795.891 1676.93 787.686 1667.99 C 763.741 1641.9 729.615 1596.77 716.956 1563.46 C 704.33 1530.24 726.087 1449.58 739.056 1416.34 C 776.617 1329.05 844.934 1262.24 933.069 1226.48 C 1017.42 1192.26 1107.09 1190 1194.76 1212.95 C 1220.64 1219.73 1246.73 1230.92 1271.22 1241.11 C 1269.02 1194.03 1275.25 1160.31 1300.69 1119.8 C 1332.97 1068.4 1381.24 1040.62 1440.66 1034.4 z" fill="rgb(255,255,255)" transform="translate(0,0)"></path>
<path d="M 1200.77 812.425 C 1224.08 810.3 1255.13 813.176 1277.99 816.3 C 1343.2 825.212 1402.92 849.137 1456.09 887.92 C 1474.05 901.019 1490.11 914.163 1507.71 927.737 C 1449.1 927.12 1393.84 929.662 1339.36 953.629 C 1277.12 981.008 1218.73 1038.55 1194.02 1102.18 C 1159.55 1095 1134.42 1091.76 1099.25 1090.05 C 999.928 1085.11 929.06 1109.49 842.258 1152.32 C 848.286 1077.08 886.908 994.08 937.349 938.606 C 1008.33 860.542 1096.4 818.674 1200.77 812.425 z" fill="rgb(255,255,255)" transform="translate(0,0)"></path>
<path d="M 876.045 755.578 C 913.421 751.715 955.267 756.239 991.423 765.606 C 961.227 783.374 934.552 799.154 907.215 821.497 C 801.761 907.688 748.899 1026.04 734.005 1159.15 C 605.264 1161.17 493.797 1203.55 417.869 1312.52 L 416.624 1302.64 C 414.676 1285.74 411.507 1269.76 410.977 1252.64 C 407.971 1155.56 436.193 1074.49 490.059 994.865 C 500.664 1019.03 514.776 1036.95 539.953 1047.33 C 563.508 1057.1 590.014 1056.91 613.424 1046.8 C 635.691 1037.03 653.184 1018.84 662.077 996.212 C 680.673 948.75 654.65 891.821 607.496 873.75 C 627.317 858.165 646.677 842.87 667.897 829.176 C 730.4 788.36 801.777 763.122 876.045 755.578 z" fill="rgb(255,255,255)" transform="translate(0,0)"></path>
<path d="M 1614.09 586.972 L 1615.84 587.555 C 1618.47 634.648 1616.34 694.876 1616.96 743.614 C 1616.38 744.174 1615.8 744.739 1615.23 745.309 C 1577.04 783.366 1583.64 807.588 1583.63 858.662 C 1557.64 835.008 1525.68 811.664 1496.77 792.018 C 1492.82 789.114 1487.98 786.306 1483.78 783.696 C 1464.96 771.996 1446.57 759.561 1427.73 747.904 L 1427.74 651.99 C 1439.88 647.928 1452.45 643 1464.63 638.659 C 1514.19 620.993 1564.66 604.843 1614.09 586.972 z" fill="rgb(255,255,255)" transform="translate(0,0)"></path>
<path d="M 695.66 1269.4 C 699.942 1268.88 698.429 1268.25 701.44 1269.83 C 701.194 1271.35 672.801 1312.24 668.773 1318.98 C 617.052 1405.5 603.926 1488.45 605.289 1587.85 C 582.208 1570.59 554.383 1546.78 534.158 1526.34 C 512.462 1502.7 480.4 1463.53 466.022 1435.22 C 472.335 1416.21 493.723 1381.34 506.907 1365.43 C 556.867 1305.15 620.338 1278.11 695.66 1269.4 z" fill="rgb(255,255,255)" transform="translate(0,0)"></path>
<metadata><recraft-signature>{"signed_by": "recraft", "signature_b64": "vDVP2YW7znROW9QmIS3DlAzgdpKxMXQ7AVIFoZJMqKvMGngAezGNklitUTvMZQxLYAJecUXYnYJf4+UY5LpdDw==", "signing_algo": "Ed25519", "generation_timestamp": 1772808005, "identifier": "9a727e5b-dbd8-4b4e-a626-935ae3163750"}</recraft-signature></metadata></svg>