<svg xmlns="http://www.w3.org/2000/svg" height="1024" preserveAspectRatio="none" style="display: block;" version="1.1" viewBox="0 0 2048 2048" width="1024">
<path d="M 0 0 L 2048 0 L 2048 2048 L 0 2048 L 0 0 z" fill="rgb(251,251,250)" transform="translate(0,0)"></path>
<path d="M 1004.21 260.518 C 1426.61 248.931 1778.38 582.061 1789.78 1004.47 C 1801.18 1426.87 1467.9 1778.49 1045.49 1789.71 C 623.339 1800.92 271.982 1467.89 260.587 1045.75 C 249.192 623.601 582.07 272.099 1004.21 260.518 z" fill="rgb(0,134,92)" transform="translate(0,0)"></path>
<path d="M 1023.65 1208.56 C 1025.79 1210.25 1059.79 1277.7 1066.84 1288.67 C 1145.18 1410.62 1274.03 1492.28 1416.99 1514.35 C 1445.62 1518.76 1473.11 1519.14 1502.2 1519.18 C 1501.31 1520.14 1500.4 1521.08 1499.49 1522.02 C 1406.55 1617.49 1264.27 1687.05 1133.1 1707.55 C 1095.8 1713.38 1063.35 1715 1026.01 1715.44 C 1015.29 1715.41 1004.58 1715.3 993.863 1715.1 C 837.339 1711.27 673.907 1637.88 560.13 1531.94 C 555.559 1527.68 551.172 1523.33 546.866 1518.8 C 729.752 1520.79 891.986 1434.74 988.322 1278.01 C 1002.29 1255.28 1012.69 1232.84 1023.65 1208.56 z" fill="rgb(251,251,250)" transform="translate(0,0)"></path>
<path d="M 1001.48 335.429 C 1014.75 334.642 1032.21 334.967 1045.48 335.473 C 1092.81 337.07 1139.87 343.346 1185.97 354.209 C 1288.1 379.764 1383.11 428.143 1463.85 495.709 C 1478.87 508.441 1490.8 518.658 1504.14 533.034 C 1435.72 532.649 1387.94 537.614 1322.29 560.523 C 1224.33 594.215 1139.64 658.225 1080.49 743.276 C 1059.95 773.054 1048.63 794.908 1033.03 827.162 C 1030.13 833.072 1027.2 840.372 1024.55 846.512 C 996.026 778.821 964.406 725.843 911.187 673.786 C 832.882 596.499 730.813 547.861 621.462 535.724 C 594.976 532.805 571.929 532.771 545.4 533.1 C 675.949 408.379 820.167 343.792 1001.48 335.429 z" fill="rgb(251,251,250)" transform="translate(0,0)"></path>
<path d="M 1460.09 854.741 C 1554.56 844.087 1639.8 911.962 1650.57 1006.41 C 1661.34 1100.86 1593.58 1186.19 1499.14 1197.08 C 1404.54 1207.99 1319.02 1140.08 1308.23 1045.46 C 1297.44 950.84 1365.46 865.414 1460.09 854.741 z" fill="rgb(251,251,250)" transform="translate(0,0)"></path>
<path d="M 1474.2 912.92 C 1536.21 910.052 1588.93 957.718 1592.3 1019.7 C 1595.67 1081.68 1548.44 1134.78 1486.49 1138.66 C 1423.82 1142.58 1369.96 1094.68 1366.55 1031.98 C 1363.14 969.284 1411.48 915.821 1474.2 912.92 z" fill="rgb(0,134,92)" transform="translate(0,0)"></path>
<path d="M 1474.27 984.538 C 1496.52 982.035 1516.65 997.875 1519.44 1020.09 C 1522.24 1042.3 1506.67 1062.63 1484.5 1065.72 C 1469.89 1067.76 1455.32 1061.78 1446.36 1050.07 C 1437.39 1038.36 1435.42 1022.73 1441.2 1009.16 C 1446.98 995.594 1459.62 986.186 1474.27 984.538 z" fill="rgb(251,251,250)" transform="translate(0,0)"></path>
<path d="M 556.407 854.513 C 651.078 846.599 734.203 917.011 741.969 1011.69 C 749.735 1106.38 679.194 1189.39 584.499 1197.01 C 490.013 1204.61 407.221 1134.26 399.472 1039.79 C 391.723 945.312 461.946 862.409 556.407 854.513 z" fill="rgb(251,251,250)" transform="translate(0,0)"></path>
<path d="M 569.92 913.417 C 631.898 913.077 682.443 962.995 682.877 1024.97 C 683.31 1086.95 633.47 1137.57 571.493 1138.1 C 509.382 1138.63 458.629 1088.66 458.194 1026.55 C 457.759 964.434 507.808 913.757 569.92 913.417 z" fill="rgb(0,134,92)" transform="translate(0,0)"></path>
<path d="M 566.035 984.42 C 588.377 982.262 608.277 998.533 610.6 1020.86 C 612.923 1043.19 596.799 1063.2 574.491 1065.69 C 551.948 1068.21 531.672 1051.88 529.325 1029.32 C 526.978 1006.75 543.457 986.6 566.035 984.42 z" fill="rgb(251,251,250)" transform="translate(0,0)"></path>
<path d="M 552.432 601.425 C 573.497 599.839 611.96 602.122 632.827 605.722 C 742.855 624.706 844.679 682.274 910.616 772.793 C 978.056 864.119 1006.04 978.682 988.295 1090.81 C 969.432 1204.18 906.173 1305.36 812.514 1371.97 C 744.417 1420.37 663.507 1447.5 580.001 1449.95 C 547.6 1450.61 510.117 1446.42 478.246 1441.36 C 456.219 1415.91 437.629 1382.95 421.082 1353.79 C 433.182 1360.1 444.152 1364.55 456.758 1369.44 C 536.097 1399.93 624.098 1398.91 702.706 1366.58 C 790.981 1330.67 869.641 1255.85 906.748 1167.73 C 944.59 1077.95 945.122 976.8 908.227 886.631 C 872.285 799.389 794.663 722.919 707.503 686.968 C 632.218 655.915 551.254 649.413 473.076 673.972 C 452.688 680.377 439.305 687.371 420.057 695.365 C 440.125 663.652 456.378 639.186 478.154 608.63 C 504.023 605.473 526.353 602.939 552.432 601.425 z" fill="rgb(251,251,250)" transform="translate(0,0)"></path>
<path d="M 1459.85 601.425 C 1490.32 598.743 1544.07 603.236 1573.82 608.892 C 1586.14 621.613 1619.48 677.479 1628.7 693.452 C 1547.03 656.973 1471.65 648.376 1384.66 672.614 C 1290.53 699.131 1210.74 761.854 1162.74 847.058 C 1116.71 928.707 1101.87 1028.91 1127.4 1119.52 C 1153.42 1214.3 1216.02 1294.85 1301.44 1343.46 C 1383.98 1389.65 1473.99 1405.13 1565.88 1379.23 C 1585.17 1372.89 1612.12 1364.17 1629.72 1354.29 C 1615.21 1382.16 1592.84 1415.86 1573.65 1441.09 C 1557.47 1445.61 1537.98 1446.82 1521.16 1448.4 C 1404.26 1459.39 1291.27 1420.19 1202.36 1342.9 C 1118.01 1269.29 1066.3 1165.23 1058.58 1053.55 C 1051.18 942.383 1088.02 832.797 1161.07 748.675 C 1236.68 661.245 1344.46 608.131 1459.85 601.425 z" fill="rgb(251,251,250)" transform="translate(0,0)"></path>
<path d="M 1680.19 1243.94 C 1634.38 1284.78 1575.43 1313.78 1514.36 1321.57 C 1437.45 1331.47 1359.79 1310.05 1298.81 1262.14 C 1232.09 1210.13 1192.15 1141.67 1182.32 1057.42 C 1173.61 982.813 1199.76 899.496 1246.54 841.148 C 1294.82 780.93 1370.93 737.856 1448.01 729.333 C 1518.95 721.488 1579.54 737.348 1639.62 775.04 C 1653.43 783.703 1666.52 794.624 1679.25 804.756 C 1683.95 823.244 1690.5 841.848 1695.25 860.825 C 1702.63 890.368 1706.93 916.462 1710.39 946.553 C 1710.83 950.336 1711 953.259 1711.16 957.03 L 1709.18 957.876 C 1708.97 956.857 1708.75 955.838 1708.53 954.819 C 1666.48 827.72 1532.46 754.157 1404.19 798.52 C 1276.36 842.735 1209.35 979.807 1253.5 1107.53 C 1274.49 1166.59 1318.14 1214.86 1374.79 1241.68 C 1471.63 1288.6 1578.98 1265.32 1652.29 1188.05 C 1670.27 1169.1 1684.29 1150.07 1695.56 1126.37 C 1700.08 1116.75 1704.22 1106.95 1707.96 1097 L 1711.33 1096.94 C 1706.36 1146.93 1695.91 1196.23 1680.19 1243.94 z" fill="rgb(251,251,250)" transform="translate(0,0)"></path>
<path d="M 1710.39 946.553 C 1710.83 950.336 1711 953.259 1711.16 957.03 L 1709.18 957.876 C 1708.97 956.857 1708.75 955.838 1708.53 954.819 C 1710.2 951.533 1709.85 950.342 1710.39 946.553 z" fill="rgb(212,239,233)" transform="translate(0,0)"></path>
<path d="M 339.584 958.276 C 343.432 914.861 350.583 873.753 364.167 832.152 C 369.114 817.874 370.484 805.48 383.201 795.577 C 421.275 765.928 462.993 744.001 510.378 733.758 C 701.689 692.494 888.121 856.814 868.468 1052.57 C 852.519 1211.44 706.462 1339.6 545.427 1322.92 C 487.919 1316.97 412.586 1285.74 371.591 1244.75 C 360.439 1205.27 341.367 1140.47 340.053 1098.77 L 342.976 1098.07 C 346.167 1108.26 350.053 1118.21 354.604 1127.87 C 411.089 1244.68 554.619 1300.96 673.157 1242.43 C 733.039 1213.35 778.5 1161.14 799.07 1097.83 C 818.213 1040.15 812.195 972.154 784.832 918.014 C 755.388 860.782 704.708 817.352 643.642 797.021 C 584.804 777.914 520.757 783.24 465.883 811.803 C 405.655 842.441 362.79 895.027 341.826 958.916 L 339.584 958.276 z" fill="rgb(251,251,250)" transform="translate(0,0)"></path>
<path d="M 339.561 1095.96 C 339.289 1094.47 338.375 1087.77 339.545 1086.77 C 340.849 1088.87 340.913 1089.7 341.276 1092.24 C 341.828 1094.21 342.361 1096.12 342.976 1098.07 L 340.053 1098.77 L 339.561 1095.96 z" fill="rgb(128,200,186)" transform="translate(0,0)"></path>
<path d="M 341.276 1092.24 C 341.828 1094.21 342.361 1096.12 342.976 1098.07 L 340.053 1098.77 L 339.561 1095.96 L 341.276 1092.24 z" fill="rgb(212,239,233)" transform="translate(0,0)"></path>
<path d="M 1710.92 1088.21 L 1712.18 1088.48 C 1711.97 1091.31 1711.69 1094.13 1711.33 1096.94 L 1707.96 1097 C 1708.99 1094.09 1709.98 1091.15 1710.92 1088.21 z" fill="rgb(212,239,233)" transform="translate(0,0)"></path>
<path d="M 340.77 963.144 C 340.588 964.267 340.117 970.994 338.576 971.196 C 337.343 970.182 338.3 965.71 338.529 964.371 L 340.77 963.144 z" fill="rgb(82,180,149)" transform="translate(0,0)"></path>
<path d="M 1709.18 957.876 L 1711.16 957.03 C 1711.84 959.836 1711.97 960.466 1712.18 963.496 L 1711.27 964.411 L 1711.87 965.143 L 1711.75 965.247 C 1711.72 965.303 1711.68 965.359 1711.65 965.415 C 1710.78 964.892 1709.46 958.992 1709.18 957.876 z" fill="rgb(128,200,186)" transform="translate(0,0)"></path>
<path d="M 339.584 958.276 L 341.826 958.916 C 341.448 960.319 341.096 961.729 340.77 963.144 L 338.529 964.371 C 338.821 962.326 338.926 960.243 339.584 958.276 z" fill="rgb(212,239,233)" transform="translate(0,0)"></path>
<path d="M 1710.92 1088.21 C 1711.03 1087.35 1711.16 1083.79 1712.49 1083.66 C 1713.73 1084.6 1712.5 1087.42 1712.18 1088.48 L 1710.92 1088.21 z" fill="rgb(82,180,149)" transform="translate(0,0)"></path>
<metadata><recraft-signature>{"signed_by": "recraft", "signature_b64": "BjP/mXcFKJRiKxJ2+FO5JDIn10mdEjfm8mx3FACE3QMLJ1tkOjUmQt/S/TFBvX+1SaXPM3vP4TOJZP0c4I0JCA==", "signing_algo": "Ed25519", "generation_timestamp": 1772808140, "identifier": "c8eb8efb-1ce7-461c-9520-9601cdc5176e"}</recraft-signature></metadata></svg>