<svg xmlns="http://www.w3.org/2000/svg" height="1024" preserveAspectRatio="none" style="display: block;" version="1.1" viewBox="0 0 2048 2048" width="1024">
<path d="M 0 0 L 2048 0 L 2048 2048 L 0 2048 L 0 0 z" fill="rgb(251,251,250)" transform="translate(0,0)"></path>
<path d="M 1113.23 404.614 C 1308.43 422.134 1487.69 552.064 1577.06 724.519 C 1594.65 758.453 1610.74 794.361 1621.62 831.048 L 1302.91 831.026 C 1246.84 831.021 1184.65 832.299 1128.94 830.785 C 1129.44 785.419 1129.48 740.048 1129.05 694.681 C 1166.33 663.778 1190.51 626.899 1195.35 577.696 C 1200.22 529.832 1185.76 482.009 1155.2 444.855 C 1142.27 429.385 1129.4 418.523 1112.29 408.18 L 1113.23 404.614 z" fill="rgb(5,146,84)" transform="translate(0,0)"></path>
<path d="M 425.47 831.315 C 445.401 760.659 490.11 685.092 535.297 627.823 C 633.089 503.841 775.921 423.536 932.666 404.408 L 935.705 408.302 C 920.588 417.128 908.678 426.526 897.137 439.777 C 865.545 476.174 849.783 523.674 853.35 571.738 C 857.266 626.631 880.225 658.844 920.343 693.601 C 920.078 739.35 920.694 785.108 920.105 830.841 L 425.47 831.315 z" fill="rgb(5,146,84)" transform="translate(0,0)"></path>
<path d="M 989.002 726.613 C 1018.26 731.462 1030.51 731.367 1059.12 727.077 C 1058.54 770.35 1059.05 814.704 1059.06 858.096 C 1060.03 1025.32 1060.1 1192.54 1059.28 1359.76 C 1077.47 1362.07 1097.52 1364.54 1115.4 1368.12 C 1196.53 1384.44 1271.66 1422.59 1332.7 1478.47 C 1355.85 1499.25 1377.28 1521.99 1394.59 1547.95 C 1375.44 1561.17 1356.38 1571.42 1336.72 1583.59 C 1333.45 1578.45 1329.41 1572.78 1325.5 1568.14 C 1256.6 1486.38 1165.57 1439.47 1060.76 1427.63 C 1035.17 1424.31 1002 1426.07 976.178 1429.22 C 892.419 1439.42 812.588 1478.95 752.072 1537.48 C 737.466 1551.6 724.964 1567.87 712.616 1584 C 692.335 1572.95 672.298 1561.46 652.518 1549.54 C 661.644 1536.86 673.229 1522.14 683.563 1510.5 C 761.837 1422.64 871.36 1368.87 988.742 1360.67 L 989.002 726.613 z" fill="rgb(5,146,84)" transform="translate(0,0)"></path>
<path d="M 1436.16 901.49 C 1504.02 901.133 1571.89 901.223 1639.75 901.759 C 1661.54 993.26 1659.88 1076.69 1639.47 1168.06 C 1632.66 1170.9 1626.56 1172.61 1619.5 1174.71 C 1603.98 1178.68 1588 1180.57 1571.99 1180.31 C 1492.75 1179.35 1427.01 1128.66 1408.34 1050.92 C 1402.52 1026.7 1403.59 1001.43 1403.57 976.668 C 1403.5 951.806 1403.61 926.943 1403.87 902.082 L 1436.16 901.49 z" fill="rgb(5,146,84)" transform="translate(0,0)"></path>
<path d="M 491.127 901.5 C 543.137 901.784 595.148 901.761 647.158 901.43 L 647.077 969.338 C 647.029 1005.34 648.667 1037.23 635.072 1071.49 C 616.949 1117.16 586.78 1147.32 542.309 1167 C 499.237 1184.74 454.772 1183.63 411.636 1167.46 C 388.816 1064.5 390.566 1003.28 411.497 901.804 L 491.127 901.5 z" fill="rgb(5,146,84)" transform="translate(0,0)"></path>
<path d="M 1132.43 901.516 L 1196.04 901.269 C 1196.18 1000.25 1187.67 1084.2 1233.14 1175.9 C 1296.01 1302.69 1412.13 1374.96 1552.83 1384.96 C 1544.97 1399.53 1534.37 1413.18 1524.45 1426.44 C 1518.78 1433.79 1513.71 1440.19 1507.63 1447.23 C 1433.51 1435.88 1370.53 1413.33 1309.23 1368.83 C 1215.44 1301.68 1152.21 1199.98 1133.48 1086.16 C 1131.02 1069.89 1129.35 1053.5 1128.48 1037.06 C 1127.87 1025.37 1126.5 904.762 1128.56 901.921 L 1132.43 901.516 z" fill="rgb(5,146,84)" transform="translate(0,0)"></path>
<path d="M 855.052 901.698 L 922.52 902.058 C 923.245 924.925 922.033 948.49 922.855 971.195 C 926.776 1079.56 906.998 1172.17 843.842 1262.44 C 778.003 1358.23 676.554 1423.69 562.136 1444.19 L 538.286 1447.36 C 522.883 1426.59 509.338 1408.13 497.08 1385.23 C 515.766 1383.51 533.551 1381.91 551.984 1378.33 C 624.333 1364.32 690.922 1329.23 743.37 1277.46 C 804.354 1217.53 842.889 1138.47 852.518 1053.51 C 856.99 1010.51 855.015 946.137 855.052 901.698 z" fill="rgb(5,146,84)" transform="translate(0,0)"></path>
<path d="M 1274.51 902.464 C 1294.31 902.062 1314.11 901.938 1333.91 902.092 L 1333.93 976.491 C 1333.93 1007.97 1332.96 1035.83 1339.92 1067 C 1353.08 1126.8 1389.74 1178.8 1441.65 1211.27 C 1493.73 1244.23 1556.7 1257.76 1617.25 1244.25 C 1610.53 1264.9 1604.44 1279.59 1595.87 1299.66 C 1593.81 1304.76 1591.36 1309.8 1589.03 1314.79 C 1566.76 1316.55 1550.24 1316.8 1527.99 1313.59 C 1447.3 1302.49 1374.4 1259.58 1325.51 1194.43 C 1290.58 1147.06 1270.05 1090.62 1266.4 1031.88 C 1265.16 1014.6 1265.39 985.958 1265.44 968.243 C 1265.48 954.324 1264.35 916.036 1266.13 903.824 C 1268.34 902.241 1271.6 902.573 1274.51 902.464 z" fill="rgb(5,146,84)" transform="translate(0,0)"></path>
<path d="M 717.734 901.976 C 740.252 901.746 762.771 901.645 785.29 901.674 C 785.62 928.656 785.657 955.642 785.401 982.625 C 785.264 1004.58 785.821 1027.11 782.961 1048.83 C 774.249 1111.2 747.05 1169.54 704.871 1216.31 C 652.938 1273.53 575.898 1311.22 498.531 1315.15 C 485.248 1316.42 473.145 1315.67 459.92 1314.93 C 449.019 1289.53 441.846 1270.54 433.324 1244.35 C 446.31 1247.02 455.944 1248.66 469.34 1249.14 C 533.353 1251.48 595.649 1228.16 642.397 1184.37 C 733.513 1098.95 714.578 1011.45 717.734 901.976 z" fill="rgb(5,146,84)" transform="translate(0,0)"></path>
<path d="M 1002.75 1495.42 C 1018.74 1492.82 1057.61 1496.38 1074.56 1499.19 C 1139.19 1510.14 1198.89 1540.67 1245.61 1586.66 C 1255.1 1595.98 1264.22 1605.18 1272.03 1616.02 C 1248.21 1626.29 1227.35 1633.37 1203.66 1642.54 C 1164.09 1596.64 1108.14 1568.04 1047.76 1562.86 C 976.766 1554.88 891.575 1585.99 847.06 1642.84 C 821.733 1634.44 800.903 1626.93 776.225 1616.79 C 779.733 1612.14 783.366 1607.59 787.12 1603.14 C 840.259 1540.09 921.05 1502.23 1002.75 1495.42 z" fill="rgb(5,146,84)" transform="translate(0,0)"></path>
<path d="M 1016.63 1634.43 C 1050.88 1631.55 1085.45 1642.61 1113.28 1662.37 C 1082.55 1667.78 1063.32 1669.29 1032.03 1670.65 C 997.238 1670.93 967.831 1668.01 933.733 1662.48 C 963.194 1644.42 981.241 1637.06 1016.63 1634.43 z" fill="rgb(5,146,84)" transform="translate(0,0)"></path>
<path d="M 932.666 404.408 C 937.188 403.573 942.734 403.153 947.387 402.588 C 943.752 404.252 939.311 406.51 935.705 408.302 L 932.666 404.408 z" fill="rgb(54,151,115)" transform="translate(0,0)"></path>
<path d="M 1112.29 408.18 C 1110.92 407.599 1105.5 405.461 1104.88 404.446 L 1104.92 404.371 C 1105.07 404.497 1105.23 404.624 1105.38 404.751 C 1107.22 403.28 1110.82 404.264 1113.23 404.614 L 1112.29 408.18 z" fill="rgb(54,151,115)" transform="translate(0,0)"></path>
<metadata><recraft-signature>{"signed_by": "recraft", "signature_b64": "ZRDY439nN2U3nK+ntKMFAJmpNdoYWFuxxCx/CuvrI/ZUbfUf2QEzQKLBI8QDq6dKl2zZL64QS4rksFzwum1PBA==", "signing_algo": "Ed25519", "generation_timestamp": 1772808095, "identifier": "49374762-fce7-4d64-8553-c49048db9d30"}</recraft-signature></metadata></svg>