<svg xmlns="http://www.w3.org/2000/svg" height="1024" preserveAspectRatio="none" style="display: block;" version="1.1" viewBox="0 0 2048 2048" width="1024">
<path d="M 0 0 L 2048 0 L 2048 2048 L 0 2048 L 0 0 z" fill="rgb(255,255,255)" transform="translate(0,0)"></path>
<path d="M 1004.62 358.454 C 1171.22 352.853 1333.45 412.423 1456.84 524.51 C 1579.51 635.264 1653.6 789.893 1663.06 954.893 C 1665.23 997.122 1664.2 1044.49 1664.16 1087.16 L 1664.1 1290.39 L 1664.03 1385.57 C 1664.02 1393.31 1664.44 1428.71 1662.82 1433.02 C 1656.64 1449.42 1625.64 1491.37 1613.77 1504.51 L 1613.73 1180.32 L 1613.73 1049.14 C 1613.62 1009.29 1613.92 971.405 1609.73 931.699 C 1595.95 810.461 1544.86 696.494 1463.53 605.54 C 1357.27 484.968 1206.54 420.043 1047.92 410.243 C 1040.54 409.999 1033.16 409.882 1025.78 409.892 C 725.176 408.585 466.844 642.021 439.153 941.802 C 436.182 973.965 436.84 1005.92 436.856 1038.18 L 436.939 1160.24 L 436.775 1505.64 C 425.609 1493.25 386.083 1441.49 386.038 1425.85 C 385.956 1397.17 386.01 1365.28 386.026 1336.39 L 386.074 1158.09 L 386.087 1037.97 C 386.074 1007.26 385.476 975.568 387.42 945.02 C 392.891 860.252 416.315 777.614 456.141 702.583 C 563.276 496.219 772.392 365.177 1004.62 358.454 z" fill="rgb(6,156,101)" transform="translate(0,0)"></path>
<path d="M 332.256 1327.11 C 329.383 1322.13 325.613 1311.59 323.559 1305.79 C 300.038 1240.12 286.449 1171.3 283.242 1101.61 C 282.915 1094.58 282.635 1087.01 282.741 1080 C 283.436 1033.99 280.852 986.165 283.691 940.342 C 289.656 847.651 313.289 756.956 353.317 673.142 C 440.511 493.517 596.058 356.332 785.171 292.268 C 971.958 229.274 1176.03 242.329 1353.27 328.609 C 1531.25 415.268 1667.1 569.59 1730.51 757.113 C 1744.69 798.521 1754.75 841.23 1760.52 884.617 C 1767.32 933.672 1769.18 976.757 1768.18 1025.95 C 1767.7 1049.43 1768.61 1073.33 1767.56 1096.9 C 1764.71 1161 1753.31 1224.45 1733.66 1285.53 C 1728.74 1300.35 1722.11 1320.37 1715.31 1334.23 L 1715.18 1100.43 C 1715.26 1048.18 1717.26 976.298 1712.73 926.009 C 1697.76 773.711 1632.15 630.83 1526.39 520.224 C 1426.33 415.31 1295.8 344.525 1153.29 317.889 C 1048.67 298.914 936.807 303.923 835.356 332.083 C 557.354 409.25 348.008 664.937 335.712 954.287 C 334.483 983.197 334.981 1012.77 335.047 1041.95 L 335.287 1178.76 C 335.321 1203.64 335.821 1229.54 335.157 1254.33 C 336.001 1263.53 336.934 1324.59 334.977 1331.61 C 332.447 1329.64 333.577 1330.72 332.256 1327.11 z" fill="rgb(6,156,101)" transform="translate(0,0)"></path>
<path d="M 995.609 462.426 C 1004.97 461.906 1014.35 461.663 1023.73 461.699 C 1239.44 461.594 1438.59 592.777 1520.68 792.753 C 1560.35 889.389 1562.83 961.2 1562.81 1063.61 L 1562.14 1213.92 L 1562.7 1562.5 C 1551.37 1575.48 1524.91 1601.68 1511.33 1611.61 C 1509.63 1569.11 1510.8 1518.63 1510.69 1475.51 L 1510.57 1194.8 L 1510.81 1050.11 C 1510.79 1018.69 1511.56 984.559 1508.36 953.531 C 1498.22 856.937 1459.75 765.499 1397.77 690.717 C 1333.27 612.275 1245.9 555.912 1147.84 529.486 C 1115.6 521.089 1088.15 517.559 1055.24 514.344 C 1044.82 513.594 1034.38 513.182 1023.93 513.109 C 799.246 513.312 600.56 675.542 551.59 893.489 C 537.741 955.123 538.94 1001 539.02 1063.7 L 539.061 1196.79 L 538.991 1612.08 C 520.611 1596.92 503.26 1580.56 487.053 1563.09 C 485.486 1450.68 487.028 1334.93 486.982 1222.29 L 486.968 1067.58 C 487.049 1029.67 486.467 982.488 490.103 945.046 C 500.467 835.453 545.055 731.899 617.547 649.055 C 717.34 536.349 844.919 471.548 995.609 462.426 z" fill="rgb(6,156,101)" transform="translate(0,0)"></path>
<path d="M 1019.78 565.449 C 1021.09 565.428 1022.4 565.423 1023.71 565.437 C 1138.31 565.368 1248.23 610.927 1329.18 692.049 C 1393.41 757.275 1429.94 826.934 1450.61 915.908 C 1463.44 971.129 1460.89 1013.48 1460.91 1069.73 L 1460.93 1205.2 L 1460.3 1652.13 C 1444.98 1663.56 1424.33 1677.64 1407.7 1686.72 C 1408.7 1633.13 1407.88 1577.29 1407.87 1523.48 L 1408.03 1255.15 L 1407.62 1094.19 C 1407.52 1030.78 1410.87 964.44 1394.65 903.021 C 1371.27 814.447 1316.17 738.41 1241.62 685.884 C 1177.64 640.803 1112.63 620.495 1034.8 617.99 C 1029.43 617.943 1024.05 617.934 1018.67 617.964 C 915.548 618.674 823.835 660.516 752.013 733.741 C 702.586 784.962 667.948 848.609 651.776 917.927 C 638.445 975.58 641.837 1017.62 641.933 1076.32 L 642.033 1223.33 L 641.853 1686.32 C 632.299 1681.63 597.744 1659.37 590.659 1652.55 L 590.731 1183.49 L 590.756 1058.08 C 590.618 1003.28 587.977 961.774 600.308 907.862 C 617.612 830.844 655.321 759.902 709.481 702.476 C 774.175 633.242 859.726 587.052 953.102 570.94 C 976.04 567.148 996.577 566.289 1019.78 565.449 z" fill="rgb(6,156,101)" transform="translate(0,0)"></path>
<path d="M 1010.05 669.437 C 1101.57 661.365 1196.9 705.053 1260.8 768.803 C 1304.61 813.069 1335.07 868.783 1348.68 929.562 C 1359.26 976.346 1356.96 1017.5 1356.98 1065.09 L 1357.07 1196.02 L 1357.06 1714.58 C 1339.09 1723.54 1324.2 1730.46 1305.54 1737.88 L 1305.69 1190.44 L 1305.39 1061.22 C 1305.29 1022.14 1306.83 979.603 1298.81 941.527 C 1288.83 894.101 1265.07 850.888 1233.02 814.852 C 1181.59 757.037 1117.97 725.942 1040.5 721.594 C 1036.46 721.222 1031.06 721.124 1027 721.099 C 950.405 721.37 877.12 752.336 823.54 807.066 C 786.159 844.773 758.845 901.143 748.496 953.131 C 740.972 990.924 742.808 1036.66 742.863 1075.69 L 743.636 1241 L 743.015 1736.73 C 729.263 1731.78 705.855 1721.68 693.892 1714.21 L 693.897 1211.78 L 693.836 1057.87 C 693.867 1019.84 691.761 974.51 699.408 937.583 C 716.867 853.281 767.216 776.832 837.873 727.6 C 891.012 690.574 946.064 674.2 1010.05 669.437 z" fill="rgb(6,156,101)" transform="translate(0,0)"></path>
<path d="M 1012.89 772.419 C 1016.79 772.185 1020.69 772.055 1024.6 772.029 C 1087.6 771.901 1144.23 796.649 1188.61 841.214 C 1220.36 872.698 1241.89 913.014 1250.4 956.909 C 1256.72 989.003 1254.97 1027.82 1255.22 1061.14 L 1255.79 1213.95 L 1255.1 1756.32 C 1238.9 1761.41 1221.33 1766.03 1204.94 1770.59 L 1204.03 1223.45 L 1204.99 1067.5 C 1205.09 1026.13 1208.14 982.751 1193.73 943.445 C 1168.09 873.486 1111.14 831.737 1037.71 825.291 C 1033.71 825.142 1029.7 825.092 1025.69 825.14 C 975.285 825.555 935.605 841.44 899.641 876.986 C 839.597 936.33 845.547 1002.63 845.832 1079.38 L 846.326 1237.48 L 846.672 1506.32 C 845.946 1594.34 845.841 1682.37 846.356 1770.4 C 830.933 1766.57 808.922 1760.45 794.214 1755.32 C 792.888 1694.79 793.281 1630.04 793.203 1569.36 L 793.215 1241.71 L 793.519 1073.98 C 793.68 1039.13 791.484 995.592 798.057 962.045 C 818.891 855.717 907.487 780.975 1012.89 772.419 z" fill="rgb(6,156,101)" transform="translate(0,0)"></path>
<path d="M 1014.11 876.358 C 1018.01 875.963 1021.24 875.852 1025.14 875.821 C 1059.28 875.775 1092.03 889.346 1116.14 913.528 C 1159.96 957.322 1153.17 1008.75 1153.5 1065.58 L 1153.15 1237.11 L 1153.04 1781.31 C 1135.94 1783.85 1119.55 1786.09 1102.27 1787.18 L 1102 1255.5 L 1102.04 1088.88 C 1102.04 1060.1 1102.87 1030.67 1101.49 1001.99 C 1099.62 963.163 1074.19 936.85 1037.25 929.084 C 1034.22 928.794 1031.19 928.634 1028.15 928.607 C 1005.38 928.41 988.214 934.69 971.757 950.542 C 946.448 974.921 949.475 1006.31 949.36 1038.51 C 949.315 1051.06 949.352 1063.8 949.363 1076.43 L 949.498 1228.45 L 949.157 1787.5 C 932.543 1786.3 913.216 1784.36 896.79 1781.71 L 896.588 1243.07 L 896.787 1075.28 C 896.796 1056.3 895.679 1004.96 897.824 989.176 C 901.154 966.023 910.305 944.095 924.422 925.443 C 947.558 895.284 977.028 881.203 1014.11 876.358 z" fill="rgb(6,156,101)" transform="translate(0,0)"></path>
<path d="M 1016.78 980.254 C 1053.65 976.003 1051.09 1000.8 1051.12 1026.87 L 1051.32 1077.12 L 1051.76 1245.47 L 1051.16 1790.41 L 1038.25 1790.95 C 1025.44 1791.13 1012.62 1791.1 999.805 1790.85 L 999.065 1179.03 L 999.215 1064.22 C 999.203 1048.51 999.09 1032.73 999.189 1017.03 C 999.301 999.046 998.447 988.942 1016.78 980.254 z" fill="rgb(6,156,101)" transform="translate(0,0)"></path>
<metadata><recraft-signature>{"signed_by": "recraft", "signature_b64": "1J8EG9l4SQUqnvsAelNkIfTAbe6jmg/I6gWl72dYRAWOVsI8mKWL+LptZcemBWHkvcYAIZFlBhPioI2wUY0PDQ==", "signing_algo": "Ed25519", "generation_timestamp": 1772808117, "identifier": "74b3db8a-043f-4e8e-ae8a-39f7c2efb05b"}</recraft-signature></metadata></svg>