<svg xmlns="http://www.w3.org/2000/svg" height="1024" preserveAspectRatio="none" style="display: block;" version="1.1" viewBox="0 0 2048 2048" width="1024">
<path d="M 0 0 L 2048 0 L 2048 2048 L 0 2048 L 0 0 z" fill="rgb(255,255,255)" transform="translate(0,0)"></path>
<path d="M 1053.78 252.945 C 1073.42 252.952 1103 256.01 1122.45 258.348 C 1274.87 277.23 1418.07 341.6 1533.37 443.065 C 1697.99 590.528 1785.78 773.672 1797.82 993.967 C 1779.89 994.658 1760.79 994.116 1742.76 994.135 C 1678.21 994.206 1613.65 994.193 1549.1 994.216 L 1438.15 994.23 C 1410.11 994.214 1378.01 994.839 1350.4 991.808 C 1277.12 983.505 1208.74 950.814 1156.27 898.985 C 1103.7 848.068 1069.3 781.307 1058.33 708.95 C 1053.37 674.729 1054 645.536 1053.99 611.014 L 1054 512.204 L 1053.78 252.945 z" fill="rgb(47,76,241)" transform="translate(0,0)"></path>
<path d="M 1313.45 732.844 L 1524.47 733 C 1539.63 747.399 1553.22 761.794 1567.9 776.527 L 1637.27 845.918 C 1647.74 856.507 1677.19 883.647 1684.4 892.911 C 1645.22 893.881 1602.99 892.868 1563.57 892.901 L 1313.22 892.945 C 1312.82 840.397 1312.76 785.312 1313.45 732.844 z" fill="rgb(255,255,255)" transform="translate(0,0)"></path>
<path d="M 1158.49 366.41 C 1172.61 377.807 1202.7 409.853 1216.51 423.85 L 1312.87 520.607 C 1313.72 590.532 1313.28 662.04 1313.13 732.01 L 1158.08 731.831 L 1158.49 366.41 z" fill="rgb(255,255,255)" transform="translate(0,0)"></path>
<path d="M 1370.46 1056.41 C 1382.38 1055.37 1405.11 1056 1417.57 1056 L 1509.93 1056 L 1798.22 1056.01 C 1796.46 1107.37 1785.81 1177.36 1772.21 1226.59 C 1724.88 1399.27 1619.55 1550.39 1473.93 1654.56 C 1446.68 1674.11 1420.47 1689.74 1391.52 1706.13 C 1287.59 1761.94 1172.2 1793.04 1054.31 1797.03 L 1054.02 1518.21 L 1054.07 1429.86 C 1054.14 1392.02 1053.4 1356.17 1061.74 1318.92 C 1073.24 1266.95 1097.41 1218.62 1132.09 1178.25 C 1194.68 1104.81 1274.27 1064.07 1370.46 1056.41 z" fill="rgb(47,76,241)" transform="translate(0,0)"></path>
<path d="M 1313.03 1152.94 L 1537.43 1153.27 C 1583.05 1153.2 1640.84 1151.5 1685.73 1154.02 C 1657.57 1184.52 1626.57 1214.91 1597.21 1244.43 L 1527.22 1316.17 C 1504.97 1317.18 1480.86 1317.04 1458.54 1316.63 C 1410.15 1315.73 1361.48 1317.21 1313.16 1316.71 L 1313.03 1152.94 z" fill="rgb(255,255,255)" transform="translate(0,0)"></path>
<path d="M 1158.16 1316.79 C 1165.87 1316.53 1174.22 1316.47 1181.93 1316.61 C 1225.46 1317.38 1269.7 1315.32 1313.16 1316.71 C 1314.52 1385.38 1313.2 1458.44 1312.96 1527.35 C 1280.13 1560.33 1247.73 1593.72 1215.76 1627.53 C 1202.55 1641.4 1189.19 1655.12 1175.66 1668.67 C 1170.3 1674.11 1165.15 1680.18 1159.61 1685.23 L 1158.72 1684.35 C 1157.15 1562.68 1158.29 1438.69 1158.16 1316.79 z" fill="rgb(255,255,255)" transform="translate(0,0)"></path>
<path d="M 252.973 1056.01 L 656.008 1055.97 C 753.042 1056.08 831.724 1088.99 900.294 1158.18 C 920.604 1178.83 938.037 1202.12 952.123 1227.43 C 993.751 1300.98 995.761 1356.62 995.795 1437.32 L 995.74 1538.73 L 994.915 1796.65 C 974.703 1798.5 926.865 1791.6 906.46 1788.57 C 750.703 1765.29 606.041 1694.15 492.51 1585 C 349.299 1449.45 258.364 1253.67 252.973 1056.01 z" fill="rgb(47,76,241)" transform="translate(0,0)"></path>
<path d="M 361.931 1153.14 L 565.265 1153.12 C 620.903 1153.03 678.323 1152.32 733.835 1153.23 L 733.75 1258.44 C 733.722 1275.73 732.99 1300 734.064 1316.81 L 523.295 1317 C 512.947 1304.75 497.476 1289.92 485.866 1278.23 C 460.971 1252.87 435.846 1227.75 410.495 1202.85 C 396.369 1188.82 374.75 1168.13 361.931 1153.14 z" fill="rgb(255,255,255)" transform="translate(0,0)"></path>
<path d="M 734.064 1316.81 C 787.071 1316.8 842.176 1316 894.981 1316.93 L 894.928 1558.66 C 894.954 1601.14 895.619 1645.21 894.813 1687.56 C 880.224 1673.69 866.979 1659.46 852.758 1645.32 L 734.309 1526.79 C 733.971 1481.68 733.899 1436.56 734.095 1391.44 C 734.186 1367.89 735.004 1340.03 734.064 1316.81 z" fill="rgb(255,255,255)" transform="translate(0,0)"></path>
<path d="M 979.224 253.574 C 984.097 253.088 990.356 253.086 995.352 252.944 L 995.797 385.983 L 995.392 569.022 C 995.263 604.99 996.457 653.052 993.282 687.737 C 986.603 766.255 952.443 839.902 896.814 895.715 C 852.553 940.382 796.667 971.761 735.487 986.295 C 699.731 994.923 661.036 994.384 624.546 994.411 L 534.354 994.266 L 268.986 994.017 L 252.855 994.042 C 253.506 966.7 256.968 935.454 260.997 908.5 C 283.445 761.285 348.054 623.723 447.014 512.444 C 583.012 358.917 774.487 265.782 979.224 253.574 z" fill="rgb(47,76,241)" transform="translate(0,0)"></path>
<path d="M 894.028 364.955 C 895.759 366.852 894.915 481.195 894.9 495.125 L 894.94 732.959 L 735.337 732.844 L 735.048 732.606 C 733.285 729.244 734.002 542.568 734.108 524.584 C 786.734 471.204 841.815 418.802 894.028 364.955 z" fill="rgb(255,255,255)" transform="translate(0,0)"></path>
<path d="M 524.584 733.49 C 547.548 732.45 574.398 733.106 597.68 733.101 L 733.642 733.432 C 732.309 784.117 733.737 841.594 733.514 893.006 L 575.5 892.808 L 364.39 893.074 L 480.214 777.112 C 489.964 767.418 515.657 739.496 524.584 733.49 z" fill="rgb(255,255,255)" transform="translate(0,0)"></path>
<path d="M 1024.32 813.623 C 1026.92 816.199 1038.25 839.459 1040.85 844.353 C 1086.88 931.313 1152.14 983.29 1239.24 1024.55 C 1224.1 1033.32 1208.11 1040.75 1192.86 1049.76 C 1119.73 1092.98 1060.43 1157.33 1025.24 1235.35 L 1024.97 1235.49 C 1023.19 1234.72 1018.56 1223.18 1017.22 1220.52 C 970.714 1129.05 904.643 1068.65 811.569 1025.74 C 833.045 1013.84 851.701 1006.04 873.091 992.111 C 942.91 946.63 989.518 887.992 1024.32 813.623 z" fill="rgb(47,76,241)" transform="translate(0,0)"></path>
<metadata><recraft-signature>{"signed_by": "recraft", "signature_b64": "H4qF2PwlL+mCb6p6sY+dP/aGz+s8JLEcorVA2sGdpmcYjaVs67jj9ddnGthirlSRiiOuBLO+kyxxFwDIjHHICw==", "signing_algo": "Ed25519", "generation_timestamp": 1772807827, "identifier": "67cee511-e37f-4385-8696-f5d3474288a3"}</recraft-signature></metadata></svg>