<svg xmlns="http://www.w3.org/2000/svg" height="1024" preserveAspectRatio="none" style="display: block;" version="1.1" viewBox="0 0 2048 2048" width="1024">
<path d="M 0 0 L 2048 0 L 2048 2048 L 0 2048 L 0 0 z" fill="rgb(255,255,255)" transform="translate(0,0)"></path>
<path d="M 936.107 804.98 L 1110.3 804.932 L 1110.8 1006.03 L 936.083 1006.01 L 936.107 804.98 z" fill="rgb(40,53,224)" transform="translate(0,0)"></path>
<path d="M 935.946 1048 L 1110.66 1048.12 L 1110.62 1245.5 C 1102.56 1246.56 1068.94 1245.56 1058.4 1245.58 L 936.241 1245.6 L 935.946 1048 z" fill="rgb(40,53,224)" transform="translate(0,0)"></path>
<path d="M 574.867 805.372 C 584.15 804.309 606.599 804.816 616.905 804.8 C 643.493 804.681 670.081 804.72 696.668 804.919 C 638.644 877.798 645.467 920.232 645.65 1005.99 L 597.5 1006.02 L 474.755 1006.02 L 474.816 950.489 C 474.893 909.027 474.65 879.751 502.056 844.538 C 520.236 821.181 545.587 808.749 574.867 805.372 z" fill="rgb(40,53,224)" transform="translate(0,0)"></path>
<path d="M 1353.37 805.177 C 1354.58 805.106 1355.79 805.061 1357 805.041 C 1380 804.751 1403.79 805.169 1426.53 804.933 C 1471.13 804.47 1506.72 802.144 1540.53 836.792 C 1573.05 870.109 1574.2 908.683 1574.48 951.669 L 1574.66 1006.05 L 1404.15 1006.03 C 1404.47 917.983 1412.3 877.485 1353.37 805.177 z" fill="rgb(40,53,224)" transform="translate(0,0)"></path>
<path d="M 474.936 1047.93 L 645.12 1048.52 C 645.139 1126.11 639.253 1181.14 693.473 1245.59 C 671.203 1246.3 647.704 1245.13 625.433 1245.22 C 581.973 1244.8 543.549 1250.53 510.495 1216.14 C 476.471 1180.74 474.933 1148.53 474.904 1102.56 L 474.936 1047.93 z" fill="rgb(40,53,224)" transform="translate(0,0)"></path>
<path d="M 1404.39 1048.17 L 1574.12 1048.41 C 1574.11 1069.33 1573.71 1091.2 1574.05 1112.04 C 1574.92 1164.74 1562.22 1205.22 1514.96 1233.21 C 1484.87 1248.6 1464.82 1245.56 1431.82 1245.43 L 1355.54 1245.33 C 1411.6 1172.39 1403.54 1133.46 1404.39 1048.17 z" fill="rgb(40,53,224)" transform="translate(0,0)"></path>
<path d="M 1152.29 1297.1 L 1324.09 1297.07 C 1323.91 1361.47 1327.6 1411.5 1280.89 1463.66 C 1279.3 1465.35 1277.67 1467.01 1276.01 1468.63 C 1237.77 1505.88 1201.67 1507.75 1152.23 1507.32 L 1152.29 1297.1 z" fill="rgb(40,53,224)" transform="translate(0,0)"></path>
<path d="M 1152.06 543.184 C 1186.21 543.315 1211.41 542.664 1242.8 559.053 C 1322.14 600.471 1324.05 674.797 1324.02 753.97 L 1152.57 754.17 C 1151.86 731.653 1152.35 706.342 1152.3 683.652 L 1152.06 543.184 z" fill="rgb(40,53,224)" transform="translate(0,0)"></path>
<path d="M 936.252 390.817 C 993.114 389.728 1053.34 390.426 1110.39 390.768 L 1110.32 499.493 C 1091.23 500.155 1068.22 499.523 1048.79 499.483 L 936.048 499.416 L 936.252 390.817 z" fill="rgb(40,53,224)" transform="translate(0,0)"></path>
<path d="M 936.309 1701 L 1110.77 1701.02 L 1110.5 1773.78 C 1110.48 1779.71 1110.97 1799.76 1109.88 1803.99 L 1108.02 1804.69 C 1063.76 1809.52 1019.18 1810.73 974.725 1808.3 C 963.684 1807.69 946.893 1806.81 936.301 1804.92 C 936.796 1770.63 936.378 1735.37 936.309 1701 z" fill="rgb(40,53,224)" transform="translate(0,0)"></path>
<path d="M 936.512 1552.1 L 1110.29 1552.32 L 1110.32 1657.97 L 936.889 1657.83 L 936.512 1552.1 z" fill="rgb(40,53,224)" transform="translate(0,0)"></path>
<path d="M 1003.36 240.437 C 1027.66 239.11 1086.31 241.352 1110.03 245.438 L 1110.3 347.124 L 1042.75 347.095 L 936.139 347.153 L 936.068 245.381 C 959.373 242.765 979.903 241.451 1003.36 240.437 z" fill="rgb(40,53,224)" transform="translate(0,0)"></path>
<path d="M 251.598 1157.51 C 312.646 1156.53 375.347 1157.16 436.483 1157.25 C 440.006 1188.14 459.038 1219.32 475.788 1244.64 L 474.94 1245.99 C 406.565 1245.35 338.186 1245.08 269.808 1245.19 C 265.175 1229.32 250.361 1173.27 250.113 1158.88 L 251.598 1157.51 z" fill="rgb(40,53,224)" transform="translate(0,0)"></path>
<path d="M 1569.14 805.052 C 1637.73 803.841 1710.23 804.992 1779.21 804.925 C 1788.99 837.908 1793.56 857.64 1799.49 891.907 L 1613.83 891.857 C 1603.88 858.103 1592.39 831.984 1569.14 805.052 z" fill="rgb(40,53,224)" transform="translate(0,0)"></path>
<path d="M 936.173 1413 L 1110.52 1413.08 L 1110.71 1507.97 L 936.27 1507.97 L 936.173 1413 z" fill="rgb(40,53,224)" transform="translate(0,0)"></path>
<path d="M 936.027 542.934 L 1110.09 542.968 L 1110.14 638.058 C 1052.75 638.838 993.431 638.025 935.875 637.993 L 936.027 542.934 z" fill="rgb(40,53,224)" transform="translate(0,0)"></path>
<path d="M 1152.84 1157.01 C 1220.12 1157.74 1288.55 1157.09 1355.92 1157.1 C 1349.05 1181.68 1340.47 1195.45 1323.48 1213.91 C 1288.63 1246.92 1262.59 1245.87 1218.09 1245.7 L 1152.5 1245.34 L 1152.84 1157.01 z" fill="rgb(40,53,224)" transform="translate(0,0)"></path>
<path d="M 737.047 1157.5 L 893.346 1157.31 L 893.202 1245.42 L 851.25 1245.69 C 841.492 1245.79 829.948 1245.27 820.458 1245.83 C 756.8 1249.6 710.377 1222.18 693.101 1157.6 L 737.047 1157.5 z" fill="rgb(40,53,224)" transform="translate(0,0)"></path>
<path d="M 1613.56 1157.47 L 1800.54 1157.17 C 1790.41 1188.6 1769.83 1212.51 1742 1229.83 C 1706.42 1247.86 1690.22 1245.03 1651.39 1245.22 L 1571.43 1245.46 C 1591.43 1219.37 1605.78 1189.41 1613.56 1157.47 z" fill="rgb(40,53,224)" transform="translate(0,0)"></path>
<path d="M 1152.48 804.98 L 1218.6 804.914 C 1233 804.91 1252.31 804.231 1265.98 806.819 C 1278.05 809.168 1289.63 813.598 1300.18 819.91 C 1327.92 836.223 1347.88 860.563 1356.14 891.873 L 1152.76 891.894 L 1152.48 804.98 z" fill="rgb(40,53,224)" transform="translate(0,0)"></path>
<path d="M 356.712 805.417 C 393.478 803.705 440.29 804.94 478.031 804.881 C 454.515 834.741 445.628 855.836 436.612 891.991 L 373.5 891.942 L 250.045 891.957 C 266.77 842.762 304.203 810.104 356.712 805.417 z" fill="rgb(40,53,224)" transform="translate(0,0)"></path>
<path d="M 1152.62 935.375 L 1362.05 935.267 L 1361.78 1005.7 C 1338.65 1006.57 1311.12 1005.99 1287.64 1005.99 L 1152.38 1005.93 C 1152.19 982.609 1152.54 958.742 1152.62 935.375 z" fill="rgb(40,53,224)" transform="translate(0,0)"></path>
<path d="M 801.633 805.41 C 809.927 804.657 824.711 805.045 833.505 805.042 L 893.228 805.065 L 893.067 892.019 L 787.5 892.017 L 693.047 892.012 C 711.839 840.768 746.041 809.823 801.633 805.41 z" fill="rgb(40,53,224)" transform="translate(0,0)"></path>
<path d="M 687.611 935.041 L 893.077 935.296 L 893.314 1006.07 L 687.785 1006.07 L 687.611 935.041 z" fill="rgb(40,53,224)" transform="translate(0,0)"></path>
<path d="M 404.141 543.017 L 552.069 543.154 C 536.397 563.077 523.317 575.98 510.493 599.613 C 505.205 609.358 496.647 632.026 492.432 638.161 L 489.851 638.411 C 440.605 637.516 389.114 638.05 339.753 638.146 C 353.505 609.811 384.561 567.451 404.141 543.017 z" fill="rgb(40,53,224)" transform="translate(0,0)"></path>
<path d="M 1497.38 543.073 L 1644.76 543.001 C 1666.99 568.806 1691.46 608.158 1708.36 638.082 C 1660.91 639.81 1604.21 638.427 1555.86 638.577 C 1540.71 602.54 1524.55 571.979 1497.38 543.073 z" fill="rgb(40,53,224)" transform="translate(0,0)"></path>
<path d="M 1556.3 1412.98 L 1708.69 1413.04 C 1706.53 1416.44 1704.27 1420.44 1702.26 1423.98 C 1685.97 1452.63 1666.8 1478.91 1646.87 1505.13 C 1644.85 1506.81 1645.11 1507.06 1641.89 1507.15 C 1625.87 1507.62 1609.26 1507.6 1593.28 1507.67 C 1561.54 1507.93 1529.8 1507.91 1498.06 1507.6 C 1524.63 1476.77 1540.71 1450.41 1556.3 1412.98 z" fill="rgb(40,53,224)" transform="translate(0,0)"></path>
<path d="M 340.667 1413.01 L 492.829 1413.03 C 502.981 1435.02 512.328 1457.11 526.191 1477.12 C 533.307 1487.39 541.931 1497.23 549.568 1507.22 C 501.973 1508.37 451.192 1507.68 403.335 1507.88 C 393.667 1493.84 382.89 1480.17 373.183 1465.98 C 361.151 1448.39 351.232 1431.51 340.667 1413.01 z" fill="rgb(40,53,224)" transform="translate(0,0)"></path>
<path d="M 535.17 1412.98 L 696.229 1412.96 C 708.121 1452.16 727.41 1477.67 754.062 1507.13 C 747.656 1508.1 726.197 1507.57 718.978 1507.53 C 685.574 1507.35 649.74 1510.78 618.202 1497.48 C 577.761 1480.43 552.188 1452.86 535.17 1412.98 z" fill="rgb(40,53,224)" transform="translate(0,0)"></path>
<path d="M 669.364 543.415 C 696.117 542.552 726.365 543.147 753.297 543.103 C 725.101 571.548 708.93 600.793 695.779 638.42 L 620.5 638.372 L 535.755 638.172 C 540.132 623.914 553.745 602.034 564.075 591.417 C 594.636 560.006 626.326 545.348 669.364 543.415 z" fill="rgb(40,53,224)" transform="translate(0,0)"></path>
<path d="M 1152.63 1047.96 L 1362.03 1048.26 L 1361.95 1114.66 C 1292.22 1114.19 1222.49 1114.15 1152.76 1114.55 L 1152.63 1047.96 z" fill="rgb(40,53,224)" transform="translate(0,0)"></path>
<path d="M 1616.23 935.005 L 1806.82 935.214 C 1808.99 960.23 1810.88 980.876 1811.19 1006.14 L 1616.38 1006.09 L 1616.23 935.005 z" fill="rgb(40,53,224)" transform="translate(0,0)"></path>
<path d="M 242.105 935.096 L 433.008 935.258 C 433.033 945.562 433.721 999.398 432.402 1005.37 L 430.25 1006.09 L 237.819 1006.12 C 238.002 982.342 240.175 958.781 242.105 935.096 z" fill="rgb(40,53,224)" transform="translate(0,0)"></path>
<path d="M 687.809 1047.92 L 893.154 1048.41 L 893.1 1114.83 L 687.933 1114.43 L 687.809 1047.92 z" fill="rgb(40,53,224)" transform="translate(0,0)"></path>
<path d="M 1301.14 543.451 C 1314.49 543.047 1329.41 543.176 1342.78 543.226 C 1370.86 543.33 1398.38 541.276 1425.05 551.709 C 1468.89 568.861 1493.65 596.544 1512.78 638.016 L 1355.04 638.142 C 1346.47 614.649 1338.62 597.944 1325.26 576.45 C 1320.3 568.456 1303.07 549.813 1301.14 543.451 z" fill="rgb(40,53,224)" transform="translate(0,0)"></path>
<path d="M 1355.83 1413.12 L 1513.26 1413.11 C 1499.58 1447.73 1473.68 1476.13 1440.48 1492.95 C 1398.78 1513.69 1346.59 1507.8 1299.46 1508.13 C 1328.9 1476.22 1340.44 1452.55 1355.83 1413.12 z" fill="rgb(40,53,224)" transform="translate(0,0)"></path>
<path d="M 1283.14 390.824 L 1403.73 390.916 C 1404.1 425.283 1404.72 465.44 1403.75 499.521 L 1283.16 499.54 L 1283.14 390.824 z" fill="rgb(40,53,224)" transform="translate(0,0)"></path>
<path d="M 643.965 390.801 L 762.962 390.905 L 762.97 499.841 L 643.866 499.241 L 643.965 390.801 z" fill="rgb(40,53,224)" transform="translate(0,0)"></path>
<path d="M 238.104 1048 L 433.068 1048.05 L 432.937 1114.7 L 242.869 1114.06 C 240.094 1092.14 238.503 1070.09 238.104 1048 z" fill="rgb(40,53,224)" transform="translate(0,0)"></path>
<path d="M 936.063 681.005 L 1110.3 681.02 L 1110.31 754.389 L 936.01 754.168 L 936.063 681.005 z" fill="rgb(40,53,224)" transform="translate(0,0)"></path>
<path d="M 1616.62 1048.03 C 1681.41 1047.82 1746.2 1048.03 1810.99 1048.66 C 1811.25 1067.18 1809.33 1093.5 1806.95 1111.89 C 1806.87 1112.43 1806.29 1113.67 1806.06 1114.25 C 1801.23 1115.14 1759.35 1114.32 1751.97 1114.29 L 1616.87 1114.17 C 1616.24 1093.05 1616.66 1069.31 1616.62 1048.03 z" fill="rgb(40,53,224)" transform="translate(0,0)"></path>
<path d="M 936.054 1297.1 L 1110.75 1297 L 1110.69 1369.82 L 936.055 1369.94 L 936.054 1297.1 z" fill="rgb(40,53,224)" transform="translate(0,0)"></path>
<path d="M 1575.17 1296.95 L 1763.19 1296.93 C 1755.37 1316.69 1748.12 1334.67 1738.96 1353.83 L 1731.09 1369.8 C 1713.35 1370.43 1693.13 1369.94 1675.1 1369.94 L 1568.88 1369.94 C 1573.3 1341.92 1574.95 1325.39 1575.17 1296.95 z" fill="rgb(40,53,224)" transform="translate(0,0)"></path>
<path d="M 1568.73 680.977 C 1621.82 681.232 1679.32 679.887 1731.98 681.481 C 1744.31 708.057 1752.36 726.389 1762.78 754.014 L 1575.55 754.026 C 1574.93 725.619 1574.26 709.063 1568.73 680.977 z" fill="rgb(40,53,224)" transform="translate(0,0)"></path>
<path d="M 285.934 1297.02 L 473.091 1296.96 C 474.065 1323.71 474.739 1343.37 479.526 1369.72 C 425.616 1370.14 371.702 1370.02 317.794 1369.39 C 306.101 1347.27 295.449 1320.29 285.934 1297.02 z" fill="rgb(40,53,224)" transform="translate(0,0)"></path>
<path d="M 1283.57 1552 L 1403.44 1552.03 C 1404.32 1585.76 1403.45 1623.35 1403.41 1657.39 C 1364.06 1657.97 1322.85 1657.43 1283.37 1657.43 C 1282.83 1623.14 1283.2 1586.32 1283.57 1552 z" fill="rgb(40,53,224)" transform="translate(0,0)"></path>
<path d="M 317.744 681.26 L 479.523 680.996 C 473.853 706.83 472.914 728.112 472.96 754.352 L 448.5 754.233 L 286.225 754.169 C 293.427 733.124 307.096 700.516 317.744 681.26 z" fill="rgb(40,53,224)" transform="translate(0,0)"></path>
<path d="M 644.156 1552.4 C 683.559 1551.83 723.572 1552.13 763.02 1552.07 L 763.051 1657.24 C 724.665 1658.28 682.539 1657.4 643.864 1657.38 L 644.156 1552.4 z" fill="rgb(40,53,224)" transform="translate(0,0)"></path>
<path d="M 521.448 681.026 C 575.01 682.141 632.48 681.018 686.427 680.972 C 685.387 690.813 683.501 752.665 683.066 753.806 L 680.25 754.205 L 514.045 754.065 C 513.908 725.924 513.99 708.481 521.448 681.026 z" fill="rgb(40,53,224)" transform="translate(0,0)"></path>
<path d="M 514.542 1297.03 L 684.032 1296.83 C 683.968 1322.33 683.87 1344.77 685.52 1370.24 C 631.448 1369.18 575.159 1369.88 520.99 1369.95 C 515.375 1341.84 515.105 1325.37 514.542 1297.03 z" fill="rgb(40,53,224)" transform="translate(0,0)"></path>
<path d="M 725.813 1296.95 L 893.142 1297.11 L 893.008 1369.99 C 841.287 1369.94 779.144 1368.27 728.26 1370.38 C 724.756 1350.31 725.752 1318.22 725.813 1296.95 z" fill="rgb(40,53,224)" transform="translate(0,0)"></path>
<path d="M 727.864 681.101 C 782.935 681.482 838.008 681.482 893.079 681.101 C 893.116 690.258 894.311 749.8 891.794 754.056 L 725.102 754.168 C 725.05 729.747 724.448 705.29 727.864 681.101 z" fill="rgb(40,53,224)" transform="translate(0,0)"></path>
<path d="M 1366.1 1297.16 L 1534.09 1296.96 C 1534.16 1325 1532.74 1340.07 1528.41 1367.59 L 1527.72 1369.07 C 1523.89 1371.66 1382.45 1369.86 1364.95 1369.83 C 1365.18 1345.44 1366.11 1322 1366.1 1297.16 z" fill="rgb(40,53,224)" transform="translate(0,0)"></path>
<path d="M 1363.82 680.989 L 1527.55 681.181 C 1533.31 703.952 1533.98 730.61 1534.13 753.975 L 1365.83 753.979 C 1365.95 729.135 1366.24 705.735 1363.82 680.989 z" fill="rgb(40,53,224)" transform="translate(0,0)"></path>
<path d="M 1446.56 390.992 L 1488.21 391.031 C 1522.76 417.768 1581.15 464.483 1607.42 499.157 L 1446.34 499.286 L 1446.56 390.992 z" fill="rgb(40,53,224)" transform="translate(0,0)"></path>
<path d="M 563.073 391.063 L 601.926 391.105 L 601.745 499.221 L 479.5 499.238 L 439.38 499.434 C 468.573 468.076 497.213 439.742 531.402 413.611 C 541.899 405.589 551.192 397.183 563.073 391.063 z" fill="rgb(40,53,224)" transform="translate(0,0)"></path>
<path d="M 1446.22 1552.05 L 1607.35 1551.93 C 1588.85 1572.25 1572.96 1587.54 1553.04 1606.35 C 1530.12 1626.65 1515.12 1638.81 1490.57 1657.05 C 1477.77 1657.9 1459.36 1657.22 1446.14 1657.1 L 1446.22 1552.05 z" fill="rgb(40,53,224)" transform="translate(0,0)"></path>
<path d="M 868.898 543.419 C 876.586 543.081 885.394 543.178 893.177 543.075 L 893.111 637.973 L 764.5 638.057 L 738.22 638.072 C 761.875 581.007 806.278 546.375 868.898 543.419 z" fill="rgb(40,53,224)" transform="translate(0,0)"></path>
<path d="M 440.964 1552.19 C 457.727 1551.46 479.592 1552.06 496.733 1552.07 L 601.908 1552.18 L 602.132 1656.98 C 587.681 1657 573.229 1656.92 558.779 1656.73 C 514.568 1626.85 477.291 1590.93 440.964 1552.19 z" fill="rgb(40,53,224)" transform="translate(0,0)"></path>
<path d="M 739.978 1412.97 C 756.106 1412.31 775.437 1412.77 791.825 1412.75 L 893.485 1412.89 L 893.026 1507.55 C 824.614 1514.44 764.123 1477.29 739.978 1412.97 z" fill="rgb(40,53,224)" transform="translate(0,0)"></path>
<path d="M 1152.32 390.426 L 1240.99 390.416 L 1241 499.804 C 1211.59 499.572 1182.19 499.497 1152.79 499.579 L 1152.32 390.426 z" fill="rgb(40,53,224)" transform="translate(0,0)"></path>
<path d="M 805.88 390.711 C 835.036 390.523 864.193 390.549 893.349 390.789 L 893.849 499.828 L 806.01 499.898 L 805.88 390.711 z" fill="rgb(40,53,224)" transform="translate(0,0)"></path>
<path d="M 1152.3 1552.42 C 1181.86 1552.17 1211.43 1552.13 1240.99 1552.3 L 1241.03 1657.3 L 1152.31 1657.08 L 1152.3 1552.42 z" fill="rgb(40,53,224)" transform="translate(0,0)"></path>
<path d="M 805.991 1552.09 L 893.198 1552.03 L 893.205 1657.75 L 805.922 1657.76 L 805.991 1552.09 z" fill="rgb(40,53,224)" transform="translate(0,0)"></path>
<path d="M 1152.6 1700.98 L 1241.03 1700.96 L 1240.96 1779.45 C 1235.04 1781.38 1230.22 1782.51 1224.34 1784.05 C 1222.38 1784.66 1220.42 1785.18 1218.44 1785.68 L 1214.45 1786.72 C 1211.64 1787.42 1208.82 1788.14 1205.98 1788.76 L 1177.49 1794.79 C 1169.18 1796.48 1160.92 1797.94 1152.61 1799.53 C 1152.42 1766.68 1152.42 1733.83 1152.6 1700.98 z" fill="rgb(40,53,224)" transform="translate(0,0)"></path>
<path d="M 805.358 1700.92 L 893.144 1701.03 C 893.629 1731.1 894.236 1768.99 893.227 1798.74 L 883.992 1797.2 C 869.808 1794.81 853.003 1791.55 838.983 1788.27 L 830.985 1786.32 C 822.996 1784.31 814.91 1782.23 807.36 1778.88 L 805.689 1778.16 C 805.322 1752.73 805.212 1726.36 805.358 1700.92 z" fill="rgb(40,53,224)" transform="translate(0,0)"></path>
<path d="M 1152.71 251.637 C 1166.31 253.029 1180.62 255.904 1194.01 258.741 L 1199.01 259.816 C 1201.32 260.29 1203.69 260.771 1205.99 261.276 L 1210.47 262.267 C 1220.65 264.597 1231.17 267.551 1241.14 270.68 C 1240.77 295.881 1241.05 321.883 1241.06 347.138 L 1152.76 347.15 C 1152.31 316.577 1152.09 282.089 1152.71 251.637 z" fill="rgb(40,53,224)" transform="translate(0,0)"></path>
<path d="M 887.73 252.316 C 888.943 252.068 891.594 251.329 892.748 252.236 C 893.866 255.425 893.092 337.23 893.085 347.064 L 811.75 347.087 C 810.801 347.094 806.187 347.513 806.158 346 C 805.688 321.342 805.969 295.161 805.85 270.597 C 817.44 268.172 828.525 264.69 840.015 262.196 L 845.008 261.09 C 846.256 260.807 847.752 260.443 849.013 260.176 L 853.011 259.298 L 859.987 257.739 C 863.838 256.869 867.631 255.966 871.511 255.201 C 876.894 254.113 882.302 253.151 887.73 252.316 z" fill="rgb(40,53,224)" transform="translate(0,0)"></path>
<path d="M 1283.29 1701.12 L 1421.38 1701.45 C 1410.98 1708.48 1390.97 1718.84 1379.52 1724.88 C 1344.77 1743.58 1319.66 1753.47 1283.38 1766.95 L 1283.29 1701.12 z" fill="rgb(40,53,224)" transform="translate(0,0)"></path>
<path d="M 1283.3 283.751 C 1321.34 296.11 1362.19 314.475 1397.47 333.278 C 1402.82 336.131 1416.01 343.273 1420.33 346.948 C 1375.89 347.837 1328.08 346.928 1283.38 346.897 C 1283.17 325.849 1283.14 304.799 1283.3 283.751 z" fill="rgb(40,53,224)" transform="translate(0,0)"></path>
<path d="M 648.603 1701.35 L 763.406 1701.22 C 763.5 1722.75 763.425 1744.28 763.179 1765.81 C 730.767 1754.05 660.204 1724.02 632.024 1704.29 L 629.545 1703.05 L 629.938 1702 C 635.964 1700.87 642.412 1701.27 648.603 1701.35 z" fill="rgb(40,53,224)" transform="translate(0,0)"></path>
<path d="M 760.491 284.896 L 762.379 284.777 C 763.649 288.498 762.993 339.71 762.984 347.003 L 632.75 346.843 L 630.868 346.642 L 630.672 345.64 C 677.397 318.05 710.931 304.131 760.491 284.896 z" fill="rgb(40,53,224)" transform="translate(0,0)"></path>
<metadata><recraft-signature>{"signed_by": "recraft", "signature_b64": "lrieON5DmX0Ogyl/WgFcpijQ4Ae7XlqnXVJHgHAW7hcIZWssYFbolN9cX4y5u1uSimB2SiT+EiJDL5oKuSKYBA==", "signing_algo": "Ed25519", "generation_timestamp": 1772807849, "identifier": "f6adc9b4-91d8-48e6-bfbb-a51372414319"}</recraft-signature></metadata></svg>