<svg xmlns="http://www.w3.org/2000/svg" height="1024" preserveAspectRatio="none" style="display: block;" version="1.1" viewBox="0 0 2048 2048" width="1024">
<path d="M 0 0 L 2048 0 L 2048 2048 L 0 2048 L 0 0 z" fill="rgb(255,255,255)" transform="translate(0,0)"></path>
<path d="M 819.27 263.168 L 820.135 263.434 C 821.548 266.231 821.132 342.351 821.238 354.57 C 826.103 362.297 838.089 373.258 845.016 380.057 L 890.956 424.484 L 1026.5 557.786 C 1037.12 568.104 1068.41 595.794 1074.81 606.406 C 1075.92 617.388 1075.52 632.818 1075.54 644.104 L 1075.62 705.29 C 1075.68 757.788 1077.03 816.746 1074.85 868.643 C 1070.23 876.649 1048.53 897.494 1040.84 905.273 L 981.364 965.367 L 919.771 1026.85 C 910.015 1036.65 884.095 1065.66 873.659 1071.1 C 866.274 1074.95 671.51 1072.99 647.24 1073.06 C 634.039 1082.28 598.2 1121.1 584.945 1134.47 L 450.888 1268.83 C 441.409 1278.37 408.145 1313 399.149 1318.76 C 365.287 1319.77 327.531 1319.02 293.355 1319.02 C 290.408 1312.68 287.555 1304.56 285.025 1297.89 C 278.745 1280.54 263.93 1235.6 259.994 1218.84 C 293.08 1218.76 330.498 1219.33 363.416 1217.69 C 374.096 1211.05 410.953 1172.38 422.523 1160.62 C 463.886 1118.4 505.637 1076.56 547.772 1035.11 C 557.843 1025.11 597.654 981.04 611.595 975.621 C 615.187 974.225 655.415 975.088 662.663 975.094 L 768.433 975.198 C 788.226 975.278 813.631 976.117 833.012 974.888 C 840.646 969.796 852.403 957.394 859.435 950.408 C 874.861 935.155 890.167 919.782 905.353 904.29 C 920.579 889.007 967.995 844.773 977.878 829.384 C 979.6 815.147 978.838 785.958 978.837 770.655 C 978.868 730.465 978.566 690.275 977.932 650.09 C 969.159 638.2 954.352 624.531 943.56 613.898 L 893.116 564.132 C 841.927 513.465 791.863 461.636 740.205 411.468 C 727.496 400.085 725.316 394.691 725.451 377.666 C 725.667 350.374 726.151 322.847 725.808 295.562 C 753.329 282.901 790.278 271.403 819.27 263.168 z" fill="rgb(44,51,200)" transform="translate(0,0)"></path>
<path d="M 1655.42 722.211 C 1677.16 720.486 1720.65 721.937 1744.23 722.059 C 1749.86 739 1757.26 755.741 1763.15 772.694 C 1768.82 789.042 1773.46 805.376 1778.18 822.008 C 1748.38 822.583 1717.9 821.906 1687.98 821.993 C 1680.12 827.744 1671.52 837.37 1664.54 844.525 L 1535.13 975.038 L 1482.53 1028.47 C 1475.18 1035.93 1444.08 1069.56 1435.23 1070.35 C 1414.38 1072.2 1387.89 1071.22 1366.45 1071.2 L 1216.96 1071.83 C 1208.79 1077.98 1196.08 1091.44 1188.43 1099.11 C 1171.76 1115.69 1155.24 1132.43 1138.86 1149.31 C 1117.68 1170.91 1087.59 1198.53 1068.38 1220.47 C 1067.54 1247.02 1068.01 1275.85 1067.98 1302.57 C 1067.81 1337.49 1067.88 1372.41 1068.19 1407.33 C 1073.24 1414.73 1086.31 1426.87 1092.95 1433.63 C 1111.04 1452.03 1130.08 1469.68 1148.6 1487.62 C 1190.37 1528.33 1231.85 1569.33 1273.04 1610.62 C 1283.3 1620.8 1322.46 1653.34 1322.57 1666.41 C 1322.77 1691.88 1323.15 1720.15 1322.71 1745.89 C 1322.66 1748.39 1320.44 1748.92 1318.62 1749.96 C 1283.39 1763.4 1254.73 1775.5 1217.15 1783 C 1217.03 1767.61 1218.4 1701.86 1215.28 1692.16 C 1212.58 1683.77 1136.31 1611.25 1127.06 1602.27 L 1021.91 1498.54 C 1012.48 1489.21 978.48 1456.87 973.2 1447.8 C 971.337 1400.08 972.949 1342.95 972.979 1294.02 L 973.044 1222.72 C 973.056 1213.61 971.416 1180.29 976.399 1174.39 C 988.498 1160.07 1003.78 1145.86 1017.16 1132.42 C 1040.91 1108.08 1064.89 1083.98 1089.09 1060.1 L 1143.32 1005.21 C 1152.39 996.161 1166.93 980.296 1177.37 974.287 C 1204.27 973.589 1233.32 974.326 1260.4 974.46 L 1397.19 974.206 C 1406.21 967.742 1430.65 941.608 1440.37 931.903 L 1568.36 803.777 C 1590 781.763 1611.29 759.335 1633.03 737.414 C 1640.26 730.129 1645.56 725.503 1655.42 722.211 z" fill="rgb(44,51,200)" transform="translate(0,0)"></path>
<path d="M 752.681 1134.49 L 847.236 1134.17 C 863.965 1134.13 888.122 1133.36 904.106 1134.83 C 905.286 1135.93 906.445 1137.04 907.584 1138.17 C 910.91 1141.51 913.348 1145.38 913.564 1150.12 C 914.583 1172.47 913.63 1196.52 913.671 1218.96 L 913.766 1382.53 C 895.472 1402.51 871.871 1425.13 852.626 1444.65 L 722.568 1575.28 C 698.405 1599.27 667.763 1628.33 645.239 1653.59 C 644.415 1671.75 644.899 1693.57 644.826 1712.01 C 614.231 1694.06 555.562 1657.73 529.833 1634.25 L 675.088 1487.32 L 694.32 1467.23 C 669.229 1457.35 647.797 1432.47 628.831 1413.48 C 609.668 1394.29 587.769 1377.31 580.957 1350.43 C 561.191 1368.15 543.605 1388.11 524.838 1406.32 C 487.349 1442.7 450.117 1483.5 412.245 1518.92 C 406.513 1513.33 397.066 1499.16 391.875 1492.2 C 368.333 1460.62 348.282 1427.62 327.831 1394.01 C 353.421 1393.73 378.989 1394.29 404.623 1393.7 C 425.341 1375.86 453.553 1345.7 473.384 1325.86 L 602.469 1196.51 C 613.869 1185.06 655.769 1141.37 666.178 1135.12 C 674.696 1134.26 690.172 1134.69 699.264 1134.69 L 752.681 1134.49 z" fill="rgb(44,51,200)" transform="translate(0,0)"></path>
<path d="M 744.703 1225.78 C 787.281 1223.62 823.476 1256.54 825.369 1299.13 C 827.261 1341.72 794.126 1377.71 751.525 1379.34 C 709.292 1380.96 673.677 1348.17 671.802 1305.95 C 669.926 1263.73 702.492 1227.91 744.703 1225.78 z" fill="rgb(255,255,255)" transform="translate(0,0)"></path>
<path d="M 1394.94 339.062 C 1431.46 355.062 1481.86 393.523 1512.49 418.667 C 1492.58 442.048 1469.88 463.472 1448.39 485.387 C 1416.99 517.828 1385.32 550.003 1353.38 581.91 C 1359.19 584.187 1365.17 586.808 1370.54 589.997 C 1384.64 598.38 1447.27 660.053 1457.51 674.257 C 1461.97 680.428 1464.13 686.411 1465.96 693.701 C 1517.66 639.066 1574.22 585.266 1624.96 530.333 C 1649.8 558.141 1688.69 615.404 1707.07 648.126 C 1687.4 648.027 1662.07 647.28 1642.9 648.681 C 1619.4 672.824 1595.73 696.803 1571.89 720.615 L 1445.02 847.078 C 1430.52 861.631 1389.17 905.797 1374.54 914.957 C 1364.72 915.662 1348.06 915.116 1337.69 915.12 L 1265.35 915.172 L 1195.85 915.417 C 1183.73 915.506 1146.85 917.306 1139.28 912.057 C 1133.7 908.195 1135.23 828.067 1135.23 819.882 L 1135.25 665.809 C 1144.94 651.821 1174.41 624.13 1188.01 610.318 C 1238.72 558.817 1290.48 507.745 1341.39 456.445 C 1352.15 445.607 1388.19 412.115 1394.78 401.226 L 1394.94 339.062 z" fill="rgb(44,51,200)" transform="translate(0,0)"></path>
<path d="M 1289.69 671.133 C 1330.92 665.004 1369.29 693.513 1375.33 734.758 C 1381.36 776.002 1352.77 814.312 1311.51 820.255 C 1270.38 826.178 1232.22 797.694 1226.21 756.581 C 1220.19 715.468 1248.59 677.243 1289.69 671.133 z" fill="rgb(255,255,255)" transform="translate(0,0)"></path>
<path d="M 653.485 330.979 C 656.471 339.241 651.114 396.562 655.47 402.986 C 668.824 422.675 703.593 452.452 721.367 469.975 L 864.303 610.237 C 875.989 621.571 910.462 652.852 917.862 664.931 C 918.645 678.86 918.636 694.234 918.529 708.237 C 918.137 741.196 920.136 777.246 918.035 809.846 C 917.598 816.627 873.762 859.026 866.66 865.576 C 851.867 879.217 831.435 904.028 815.743 914.863 C 807.601 915.113 799.181 915.076 791.035 914.991 C 750.379 914.564 709.421 915.68 668.801 914.675 C 663.444 910.311 654.838 900.994 649.598 895.789 C 637.71 883.987 625.711 872.299 613.602 860.726 L 457.677 707.949 C 447.252 697.848 434.483 685.426 424.636 674.877 C 405.308 654.173 398.99 658.113 373.02 658.554 C 356.885 658.852 340.746 658.802 324.614 658.405 C 348.392 615.026 380.783 568.044 411.516 529.459 C 451.835 564.535 489.275 606.921 528.691 643.342 C 547.752 660.955 567.456 679.513 584.955 698.599 C 585.246 697.832 585.541 697.067 585.84 696.303 C 596.969 667.909 620.56 649.351 641.395 628.104 C 659.229 609.918 674.214 592.866 697.906 582.566 C 687.949 570.31 667.199 551.282 655.162 539.375 L 570.334 455.965 C 556.89 442.633 540.373 427.075 527.939 413.104 C 568.922 380.959 606.728 354.593 653.485 330.979 z" fill="rgb(44,51,200)" transform="translate(0,0)"></path>
<path d="M 744.327 670.437 C 785.949 667.961 821.777 699.519 824.573 741.121 C 827.37 782.723 796.087 818.792 754.508 821.908 C 712.475 825.057 675.925 793.358 673.099 751.302 C 670.272 709.246 702.251 672.941 744.327 670.437 z" fill="rgb(255,255,255)" transform="translate(0,0)"></path>
<path d="M 1235.12 1131.1 C 1251.46 1130.04 1368.77 1129.69 1377.64 1132.49 C 1381.33 1133.65 1384.99 1136.82 1387.9 1139.35 C 1405.78 1154.93 1422.19 1172.78 1439.31 1189.23 C 1487.95 1236.5 1536.29 1284.06 1584.34 1331.93 L 1618.16 1365.61 C 1624.97 1372.38 1633.3 1381.47 1640.96 1386.91 C 1663.66 1387.88 1690.68 1387.34 1713.71 1387.41 C 1695.11 1425.68 1655.8 1482.41 1628.81 1514.54 C 1612.93 1496.68 1595.91 1480.87 1579.24 1463.82 C 1540.59 1424.2 1501.44 1385.07 1461.79 1346.45 C 1461.04 1349.73 1460.21 1352.98 1459.29 1356.2 C 1452.91 1378.06 1427.56 1399.89 1411.48 1415.95 C 1396.96 1430.46 1378.94 1452.09 1361.43 1461.66 C 1355.87 1464.15 1352.07 1465.27 1346.25 1467.06 C 1384.87 1504.12 1422.02 1543.06 1461.06 1579.75 C 1478.19 1595.85 1494.02 1613.31 1511.12 1629.4 C 1483.98 1655.01 1426.19 1691.78 1393.08 1709.43 C 1392.69 1690.37 1392.96 1670.53 1392.95 1651.41 C 1386.12 1642.39 1371.33 1628.21 1363.06 1619.93 C 1343.95 1600.63 1324.58 1581.6 1304.95 1562.85 C 1261.28 1520.48 1218.02 1477.68 1175.19 1434.47 C 1162.81 1421.94 1136.43 1397.49 1127.1 1385.25 C 1126.71 1338.03 1125.7 1285.88 1127.01 1238.98 C 1143.29 1218.83 1171.73 1193.46 1190.08 1174.25 C 1199.84 1164.04 1225.1 1137.42 1235.12 1131.1 z" fill="rgb(44,51,200)" transform="translate(0,0)"></path>
<path d="M 1284.93 1226.61 C 1326.8 1219.64 1366.36 1248.01 1373.18 1289.9 C 1380 1331.79 1351.49 1371.25 1309.57 1377.92 C 1267.87 1384.55 1228.66 1356.21 1221.87 1314.54 C 1215.09 1272.86 1243.28 1233.55 1284.93 1226.61 z" fill="rgb(255,255,255)" transform="translate(0,0)"></path>
<path d="M 390.764 730.529 C 395.063 730.285 399.299 730.473 403.604 730.576 C 405.402 732.042 407.147 733.572 408.834 735.164 C 467.033 791.063 524.894 848.4 580.796 906.55 C 588.045 914.122 581.791 921.812 576.024 927.58 C 532.627 971.03 487.547 1012.76 443.808 1055.89 C 434.065 1065.49 414.628 1085.52 403.606 1092.14 C 398.742 1095.05 358.529 1094.33 350.509 1094.36 L 238.352 1094.23 C 234.4 1067.43 234.571 1023.79 235.085 996.992 C 269.693 996.71 304.303 996.771 338.91 997.174 C 346.515 997.225 357.095 998.251 364.065 994.871 C 376.651 988.766 434.828 926.379 450.001 911.404 C 431.01 894.193 413.043 875.084 394.788 857.073 C 386.06 848.462 376.266 837.688 367.009 830.107 C 332.473 829.212 294.379 830.093 259.572 830.259 C 265.741 802.153 280.96 758.077 292.059 730.817 C 324.961 730.953 357.864 730.857 390.764 730.529 z" fill="rgb(44,51,200)" transform="translate(0,0)"></path>
<path d="M 997.643 236.5 C 1022.08 236.158 1046.53 236.631 1070.94 237.919 C 1070.85 282.357 1069.45 335.686 1071.11 379.403 C 1075.83 386.672 1088.19 398.52 1094.5 404.964 C 1108.64 419.394 1123.13 433.8 1137.99 447.476 L 1195.46 390.049 C 1203.48 381.982 1217.7 368.545 1223.92 359.917 C 1225.82 334.189 1224.63 291.894 1224.63 264.892 C 1256.79 273.252 1295.46 288.244 1326.18 300.844 C 1326.62 327.387 1326.87 353.933 1326.92 380.479 C 1326.81 396.857 1323.53 398.125 1312.16 409.357 L 1187.17 535.713 C 1172.89 549.885 1157.08 568.868 1140.58 579.598 C 1131.83 585.28 1109.18 559.974 1103.25 554.089 L 1067.87 518.985 C 1047.55 499.123 1027.37 479.125 1007.32 458.991 C 1001.05 452.793 973.076 427.996 972.635 420.757 C 971.391 400.286 971.92 377.923 971.92 357.308 L 971.927 236.927 L 997.643 236.5 z" fill="rgb(44,51,200)" transform="translate(0,0)"></path>
<path d="M 1654.01 941.132 C 1662.79 940.88 1672.01 940.914 1680.79 941.045 C 1720.99 941.647 1761.69 940.268 1801.82 941.568 C 1805.44 970.962 1806.76 1011.64 1806.88 1040.94 C 1767.6 1040.6 1728.31 1040.63 1689.02 1041.01 C 1683.97 1044.59 1679.27 1048.67 1674.9 1053.05 C 1648.92 1079.11 1624.03 1106.24 1597.26 1131.51 C 1612.22 1147.79 1627.64 1163.65 1643.5 1179.05 C 1653.55 1189.01 1665.14 1201.02 1675.92 1209.89 C 1711.47 1210.09 1747.03 1210.08 1782.58 1209.86 C 1777.13 1230.33 1771.89 1250.21 1764.92 1270.22 C 1760.57 1283.54 1755.96 1297.85 1750.12 1310.54 C 1714.8 1310.43 1677.33 1310.94 1642.18 1309.84 C 1636.59 1306.44 1629.69 1300.67 1624.98 1296.11 C 1599.48 1271.43 1574.95 1245.67 1549.85 1220.56 C 1525.41 1196.1 1500.79 1171.64 1476.52 1147 C 1473.72 1143.67 1469.21 1138.99 1467.36 1135.09 C 1464.49 1129.03 1472.48 1119.23 1476.16 1115.58 C 1502.18 1089.84 1527.99 1063.99 1553.63 1037.88 C 1583.15 1007.81 1612.53 977.529 1642.67 948.091 C 1646.35 944.497 1649.17 942.825 1654.01 941.132 z" fill="rgb(44,51,200)" transform="translate(0,0)"></path>
<path d="M 902.165 1474.9 C 912.83 1476.35 920.786 1487.46 928.484 1494.98 L 961.739 1527.29 L 1030.66 1595.32 C 1037.89 1602.36 1073.06 1633.51 1074.17 1640.73 C 1075.7 1650.67 1075.25 1677.92 1075.28 1689.62 L 1074.99 1808.98 C 1039 1809.92 1009.87 1811.28 973.206 1810.07 L 972.973 1678.01 C 952.178 1657.72 931.598 1637.22 911.236 1616.5 L 902.478 1607.6 C 873.901 1633.95 846.141 1661.17 819.238 1689.23 C 818.242 1719.53 818.921 1753.65 818.843 1784.24 C 786.172 1774.09 749.204 1761.32 718.124 1747.07 C 718.087 1719.03 717.185 1685.32 718.456 1657.73 C 721.084 1653.31 724.786 1649.41 728.442 1645.82 C 783.92 1591.33 837.84 1535.28 893.438 1480.92 C 896.255 1478.17 898.541 1476.51 902.165 1474.9 z" fill="rgb(44,51,200)" transform="translate(0,0)"></path>
<metadata><recraft-signature>{"signed_by": "recraft", "signature_b64": "PPIsBP77r2qhZvgrcz8rrTGow9FGadaM9wabOHp3WO2a/9/EhdzXPsMmttIoeFOQmIA6UT4O/LvotTJD8cC8Bw==", "signing_algo": "Ed25519", "generation_timestamp": 1772807870, "identifier": "d8e75d2b-9a6c-43a3-8379-8f72fec61874"}</recraft-signature></metadata></svg>