<svg xmlns="http://www.w3.org/2000/svg" height="1024" preserveAspectRatio="none" style="display: block;" version="1.1" viewBox="0 0 2048 2048" width="1024">
<path d="M 0 0 L 2048 0 L 2048 2048 L 0 2048 L 0 0 z" fill="rgb(251,251,250)" transform="translate(0,0)"></path>
<path d="M 573.162 1026.97 C 566.236 1026.34 551.762 1026.88 544.411 1026.94 L 490.372 1027.52 C 412.406 1028.63 356.985 1020.33 297.446 963.205 C 248.434 916.182 231.863 856.617 231.377 790.212 L 231.887 584.435 L 231.89 519.584 C 231.808 490.463 230.755 465.364 237.168 436.506 C 247.456 388.275 271.208 343.949 305.667 308.669 C 355.722 258.199 425.745 231.369 496.455 231.087 L 691.234 230.975 L 758.309 230.953 C 789.005 230.951 813.105 229.831 843.66 237.028 C 884.844 246.309 922.56 267.058 952.446 296.875 C 994.067 338.688 1019.82 393.697 1025.27 452.441 C 1028.44 483.566 1026.82 537.552 1026.74 570.922 C 1149.72 571.654 1260.46 615.942 1347.32 703.679 C 1432.94 791.47 1480.31 909.594 1479.07 1032.22 C 1478.88 1066.38 1471.82 1125.42 1460.47 1157.31 C 1399.88 1134.89 1341.21 1134.24 1279.86 1159.55 C 1270.08 1163.58 1254.62 1173.88 1246.39 1176.98 C 1228.97 1192.06 1217.23 1197.53 1200.17 1216.35 C 1192.33 1225 1180.11 1243.57 1175.69 1248.04 C 1171.78 1258.74 1163.81 1268.97 1159.4 1279.87 C 1134.5 1341.33 1136.15 1400.77 1157.73 1462.89 C 1119.43 1474.59 1079.45 1482.55 1039.29 1483.04 C 776.367 1486.24 578.058 1289.37 573.162 1026.97 z" fill="rgb(0,171,206)" transform="translate(0,0)"></path>
<path d="M 1026.74 570.922 C 1149.72 571.654 1260.46 615.942 1347.32 703.679 C 1432.94 791.47 1480.31 909.594 1479.07 1032.22 C 1478.88 1066.38 1471.82 1125.42 1460.47 1157.31 C 1399.88 1134.89 1341.21 1134.24 1279.86 1159.55 C 1270.08 1163.58 1254.62 1173.88 1246.39 1176.98 C 1228.97 1192.06 1217.23 1197.53 1200.17 1216.35 C 1192.33 1225 1180.11 1243.57 1175.69 1248.04 C 1171.78 1258.74 1163.81 1268.97 1159.4 1279.87 C 1134.5 1341.33 1136.15 1400.77 1157.73 1462.89 C 1119.43 1474.59 1079.45 1482.55 1039.29 1483.04 C 776.367 1486.24 578.058 1289.37 573.162 1026.97 C 633.804 1028.26 699.186 1026.95 760.101 1026.92 C 761.24 956.774 785.761 889.399 835.555 839.092 C 885.641 787.737 954.376 758.833 1026.11 758.962 C 1026 696.281 1026.21 633.6 1026.74 570.922 z" fill="rgb(251,251,250)" transform="translate(0,0)"></path>
<path d="M 573.162 1026.97 C 633.804 1028.26 699.186 1026.95 760.101 1026.92 C 760.996 1102.73 789.01 1166.39 842.806 1219.24 C 893.116 1267.69 960.507 1294.34 1030.35 1293.4 C 1084.66 1292.62 1130.03 1276.5 1175.69 1248.04 C 1171.78 1258.74 1163.81 1268.97 1159.4 1279.87 C 1134.5 1341.33 1136.15 1400.77 1157.73 1462.89 C 1119.43 1474.59 1079.45 1482.55 1039.29 1483.04 C 776.367 1486.24 578.058 1289.37 573.162 1026.97 z" fill="rgb(2,0,135)" transform="translate(0,0)"></path>
<path d="M 1026.74 570.922 C 1149.72 571.654 1260.46 615.942 1347.32 703.679 C 1432.94 791.47 1480.31 909.594 1479.07 1032.22 C 1478.88 1066.38 1471.82 1125.42 1460.47 1157.31 C 1399.88 1134.89 1341.21 1134.24 1279.86 1159.55 C 1270.08 1163.58 1254.62 1173.88 1246.39 1176.98 C 1275.34 1130.21 1291.73 1087.77 1292.22 1032.06 C 1293.54 879.475 1175.69 762.487 1026.11 758.962 C 1026 696.281 1026.21 633.6 1026.74 570.922 z" fill="rgb(2,0,135)" transform="translate(0,0)"></path>
<path d="M 1011.16 886.716 C 1088.09 878.373 1157.27 933.839 1165.86 1010.74 C 1174.44 1087.65 1119.19 1157 1042.31 1165.82 C 965.096 1174.69 895.367 1119.14 886.746 1041.89 C 878.124 964.65 933.891 895.095 1011.16 886.716 z" fill="rgb(0,171,206)" transform="translate(0,0)"></path>
<path d="M 229.706 1009.77 L 233.473 1008.95 C 241.418 1045.56 267.819 1086.49 293.146 1113.52 C 338.966 1162.4 402.33 1191.07 469.292 1193.22 C 478.494 1219.76 487.388 1243.74 499.415 1269.19 C 565.744 1412.09 686.245 1522.68 834.288 1576.54 C 956.479 1620.91 1090.24 1621.74 1212.97 1578.89 C 1244.37 1568.08 1266.41 1557.6 1295.69 1543.69 C 1301.46 1550.19 1308.1 1557.09 1314.25 1563.3 C 1358.9 1608.4 1405.03 1653.48 1452.23 1695.89 C 1327.73 1776.29 1182.82 1819.38 1034.62 1820.06 C 816.893 1821.83 618.007 1744.13 462.55 1591.05 C 337.657 1467.93 257.81 1306.38 235.857 1132.39 C 230.577 1090.39 230.011 1051.82 229.706 1009.77 z" fill="rgb(2,0,135)" transform="translate(0,0)"></path>
<path d="M 998.362 232.638 C 997.094 232.392 994.019 232.202 993.141 231.186 C 993.094 230.554 993.008 230.817 993.301 230.374 C 995.8 229.451 1051.5 230.107 1056.17 230.875 C 1265.64 236.296 1464.25 325.209 1607.82 477.832 C 1706.73 582.052 1778.45 720.185 1806.69 861.3 C 1818.78 921.744 1821.98 987.015 1821.06 1048.59 L 1818.38 1049.55 C 1809.63 1002.82 1786.84 959.857 1753.04 926.411 C 1707.01 881.629 1645.24 856.69 1581.02 856.952 C 1570.61 823.269 1557.12 790.616 1540.72 759.408 C 1467.19 616.59 1343.19 518.77 1191.18 470.037 C 1182.02 372.092 1128.09 288.252 1037.33 246.314 C 1026.68 241.393 1015.7 237.795 1004.58 234.131 L 998.362 232.638 z" fill="rgb(2,0,135)" transform="translate(0,0)"></path>
<path d="M 998.362 232.638 C 997.094 232.392 994.019 232.202 993.141 231.186 C 993.094 230.554 993.008 230.817 993.301 230.374 C 995.8 229.451 1051.5 230.107 1056.17 230.875 C 1040.45 231.656 1020.02 230.979 1003.68 231.155 L 1004.58 234.131 L 998.362 232.638 z" fill="rgb(143,133,180)" transform="translate(0,0)"></path>
<path d="M 998.362 232.638 C 999.01 230.299 1001.54 231.073 1003.68 231.155 L 1004.58 234.131 L 998.362 232.638 z" fill="rgb(27,45,149)" transform="translate(0,0)"></path>
<path d="M 1581.02 856.952 C 1645.24 856.69 1707.01 881.629 1753.04 926.411 C 1786.84 959.857 1809.63 1002.82 1818.38 1049.55 L 1821.06 1048.59 C 1821.07 1052.43 1821 1056.27 1820.84 1060.1 C 1821.26 1069.3 1819.53 1088.79 1818.96 1098.34 C 1812.86 1201.26 1777.67 1306.41 1729.05 1396.85 C 1717.91 1417.58 1707.15 1436.66 1692.82 1455.49 C 1642.55 1402.31 1591.84 1349.54 1540.71 1297.19 C 1611.21 1146.56 1623.89 1017.56 1581.02 856.952 z" fill="rgb(0,171,206)" transform="translate(0,0)"></path>
<path d="M 1821.06 1048.59 C 1821.07 1052.43 1821 1056.27 1820.84 1060.1 C 1818.58 1055.29 1819.18 1055.09 1818.38 1049.55 L 1821.06 1048.59 z" fill="rgb(27,45,149)" transform="translate(0,0)"></path>
<path d="M 1246.39 1176.98 C 1254.62 1173.88 1270.08 1163.58 1279.86 1159.55 C 1341.21 1134.24 1399.88 1134.89 1460.47 1157.31 C 1450.15 1194.79 1434.35 1228.74 1415 1262.32 C 1412.36 1266.9 1385.45 1307.54 1385.5 1307.24 C 1380.04 1312.2 1374.44 1319.48 1369.62 1325.29 C 1350.64 1348.14 1329.2 1367.57 1306.15 1386.3 C 1256.62 1422.78 1217.97 1445.53 1157.73 1462.89 C 1136.15 1400.77 1134.5 1341.33 1159.4 1279.87 C 1163.81 1268.97 1171.78 1258.74 1175.69 1248.04 C 1180.11 1243.57 1192.33 1225 1200.17 1216.35 C 1217.23 1197.53 1228.97 1192.06 1246.39 1176.98 z" fill="rgb(0,171,206)" transform="translate(0,0)"></path>
<path d="M 1306.15 1386.3 C 1329.2 1367.57 1350.64 1348.14 1369.62 1325.29 C 1374.44 1319.48 1380.04 1312.2 1385.5 1307.24 C 1440.01 1361.64 1494.16 1416.4 1547.95 1471.52 C 1565.08 1488.84 1582.11 1506.25 1599.04 1523.77 C 1607 1531.88 1616.58 1540.77 1623.97 1549 C 1598.77 1580.02 1574.45 1600.43 1546.5 1627.98 C 1500.66 1582.06 1453.32 1535.47 1408.12 1489.16 L 1343.69 1424.3 C 1332.59 1413.04 1317.35 1396.34 1306.15 1386.3 z" fill="rgb(2,0,135)" transform="translate(0,0)"></path>
<path d="M 229.706 1009.77 C 229.746 1007.19 229.764 1004.69 229.979 1002.12 L 229.899 1002.85 C 230.072 1002.13 230.244 1001.4 230.417 1000.68 L 230.522 1000.69 C 231.566 1002.04 232.774 1006.87 233.473 1008.95 L 229.706 1009.77 z" fill="rgb(27,45,149)" transform="translate(0,0)"></path>
<metadata><recraft-signature>{"signed_by": "recraft", "signature_b64": "2NcDiPKLaiRSNeE512Qgsgroj4eNjcVgjRMqmQHZ55lx3mVsMRaghvCbjCQ6o/RXe/UHz+uC9s8O5uqXT/Q8Dw==", "signing_algo": "Ed25519", "generation_timestamp": 1772807936, "identifier": "6c36586b-e480-4560-adc6-83a25b951a93"}</recraft-signature></metadata></svg>