<svg xmlns="http://www.w3.org/2000/svg" height="1024" preserveAspectRatio="none" style="display: block;" version="1.1" viewBox="0 0 2048 2048" width="1024">
<path d="M 0 0 L 2048 0 L 2048 2048 L 0 2048 L 0 0 z" fill="rgb(255,255,255)" transform="translate(0,0)"></path>
<path d="M 990.592 242.658 C 1422.54 223.618 1788.2 558.215 1807.49 990.153 C 1826.77 1422.09 1492.38 1787.94 1060.45 1807.47 C 628.178 1827.01 261.974 1492.29 242.676 1060.01 C 223.378 627.728 558.3 261.712 990.592 242.658 z" fill="rgb(2,137,153)" transform="translate(0,0)"></path>
<path d="M 1057.41 1351.95 C 1060.13 1352.4 1090.31 1368.11 1096.13 1371.07 C 1175.2 1411.22 1255.77 1430.61 1344.24 1435.24 C 1325.12 1508.69 1284.8 1574.72 1226.38 1623.68 C 1165.81 1674.45 1081.11 1703.74 1001.95 1696.32 C 860.318 1685.55 751.727 1583.82 711.486 1451.06 C 832.394 1457.5 956.986 1418.47 1057.41 1351.95 z" fill="rgb(255,255,255)" transform="translate(0,0)"></path>
<path d="M 1006.56 352.411 C 1056.96 347.747 1121.8 363.238 1166.45 386.317 C 1251.92 430.497 1309.89 506.988 1339.48 597.038 C 1225.71 592.355 1122 621.466 1023.94 679.138 C 1014.5 684.997 1005 690.761 995.446 696.428 C 908.197 643.652 808.557 614.855 706.606 612.951 C 724.826 535.388 772.221 465.267 835.013 416.967 C 886.288 377.525 942.875 357.71 1006.56 352.411 z" fill="rgb(255,255,255)" transform="translate(0,0)"></path>
<path d="M 1455.11 711.279 C 1527.88 729.162 1592.24 771.623 1637.32 831.486 C 1687.45 898.106 1709.26 981.816 1698.02 1064.43 C 1673.09 1239.19 1516.08 1339.12 1349.16 1339.08 C 1326.34 1339.07 1304.13 1335.98 1281.6 1332.68 C 1234.27 1324.05 1183.63 1307.76 1140.93 1285.36 C 1172.05 1277.74 1203.6 1270.18 1233.81 1259.49 C 1347.14 1219.37 1446.7 1150.06 1530.86 1064.95 C 1544.13 1051.52 1559.16 1038.42 1570.72 1023.45 C 1533.78 984.438 1495.18 951.857 1455.02 916.683 L 1455.11 711.279 z" fill="rgb(255,255,255)" transform="translate(0,0)"></path>
<path d="M 592.199 721.1 L 594.195 721.345 C 595.829 726.594 594.664 772.326 594.64 780.625 L 594.679 915.909 C 578.628 928.468 558.432 947.373 543.466 961.449 C 521.525 981.721 500.139 1002.59 479.333 1024.02 C 483.011 1028.25 486.981 1032.32 491.023 1036.21 C 524.211 1068.13 557.76 1102.24 594.784 1129.83 C 595.652 1196.99 594.585 1268.79 594.185 1336.15 C 562.433 1327.09 534.338 1315.64 506.155 1298.3 C 436.472 1255.16 385.123 1191.31 362.222 1112.19 C 338.591 1032.29 348.41 946.209 389.43 873.676 C 433.653 794.125 506.258 745.891 592.199 721.1 z" fill="rgb(255,255,255)" transform="translate(0,0)"></path>
<path d="M 1019.28 910.182 C 1080.61 907.196 1132.84 954.286 1136.2 1015.59 C 1139.56 1076.9 1092.79 1129.42 1031.51 1133.15 C 969.689 1136.92 916.618 1089.65 913.228 1027.81 C 909.839 965.976 957.427 913.194 1019.28 910.182 z" fill="rgb(255,255,255)" transform="translate(0,0)"></path>
<path d="M 881.506 869.18 C 882.066 871.979 875.376 878.789 873.223 881.291 C 841.698 917.933 822.304 960.474 818.972 1009.19 C 816.006 1055.76 828.576 1102.01 854.713 1140.67 C 863.164 1153.05 873.598 1164.77 883.454 1176.09 C 845.184 1168.37 771.537 1135.22 737.863 1115.89 C 684.159 1084.86 659.388 1065.74 614.334 1024.86 C 673.195 971.698 728.286 930.394 801.976 898.37 C 826.962 887.512 855.574 878.364 881.506 869.18 z" fill="rgb(255,255,255)" transform="translate(0,0)"></path>
<path d="M 1173.28 872.59 C 1181.78 874.585 1199.83 881.08 1208.81 884.373 C 1296.42 916.502 1368.59 962.162 1437.37 1024.23 C 1403.38 1058.68 1354.97 1092.91 1313.57 1117.56 C 1263.82 1147.59 1222.68 1162.43 1168.1 1178.62 C 1185.87 1158.16 1198.54 1142.8 1210.9 1118.33 C 1245.14 1050.53 1241.3 972.535 1201.08 908.17 C 1193.41 895.879 1182.79 883.851 1173.28 872.59 z" fill="rgb(255,255,255)" transform="translate(0,0)"></path>
<path d="M 693.749 1198.05 C 705.449 1204.92 717.965 1210.87 730.126 1216.89 C 805.232 1254.12 882.613 1280.58 966.062 1290.29 C 952.166 1299.41 937.319 1306.33 922.297 1313.32 C 843.328 1346.83 778.858 1358.04 693.997 1354.58 C 693.872 1302.91 693.056 1249.59 693.749 1198.05 z" fill="rgb(255,255,255)" transform="translate(0,0)"></path>
<path d="M 1293.28 695.421 C 1309.49 693.68 1341.7 695.522 1357.63 696.436 L 1358.6 852.744 C 1314.7 827.14 1268.48 805.743 1220.55 788.84 C 1170.27 772.492 1139.9 765.323 1088 757.243 C 1106.86 744.434 1120.48 739.06 1140.61 730.404 C 1190.29 709.05 1239.39 699.038 1293.28 695.421 z" fill="rgb(255,255,255)" transform="translate(0,0)"></path>
<path d="M 1620.13 1358.04 C 1620.78 1358.64 1620.41 1358.18 1620.64 1359.74 C 1611.66 1376.39 1599.65 1394.6 1589 1410.3 C 1525.88 1503.34 1451.77 1569.09 1355.16 1625.16 L 1354.57 1624.65 C 1354.38 1622.82 1383.18 1583.74 1386.7 1578.07 C 1412.15 1537.21 1440.52 1473.49 1449.47 1426.41 C 1514.22 1414.81 1565.15 1393.33 1620.13 1358.04 z" fill="rgb(255,255,255)" transform="translate(0,0)"></path>
<path d="M 695.897 424.177 L 696.406 424.583 C 690.836 434.734 676.159 451.966 668.322 464.816 C 641.632 508.575 616.089 567.598 605.161 617.52 C 542.42 629.684 488.611 651.911 433.975 684.831 L 433.5 684.237 C 435.801 677.741 459.532 641.462 465.124 633.346 C 512.102 565.187 571.352 506.364 639.848 459.879 C 657.829 447.416 677.521 436.471 695.897 424.177 z" fill="rgb(255,255,255)" transform="translate(0,0)"></path>
<path d="M 429.207 1359.64 C 438.797 1365.02 453.108 1376.16 464.732 1383.06 C 504.77 1406.84 559.141 1428.71 605.01 1437.43 C 628.528 1517.52 653.22 1559.79 699.259 1627.37 C 691.54 1624.65 658.649 1602.28 651.446 1597.4 C 572.325 1543.84 502.479 1477.7 452.229 1395.94 C 444.83 1383.9 436.363 1372.16 429.207 1359.64 z" fill="rgb(255,255,255)" transform="translate(0,0)"></path>
<path d="M 1352.51 423.994 C 1357.86 426.157 1382.55 441.538 1388.74 445.309 C 1469.17 495.396 1537.88 562.198 1590.22 641.181 C 1599.1 654.306 1609.56 669.536 1617.19 683.278 C 1606.73 678.563 1586.86 663.968 1574.56 657.259 C 1531.14 633.582 1491.78 620.474 1443.77 608.986 C 1432.62 564.786 1414.47 518.707 1390.71 479.755 C 1378.72 460.109 1365.61 442.686 1352.51 423.994 z" fill="rgb(255,255,255)" transform="translate(0,0)"></path>
<path d="M 694.166 709.889 C 768.037 709.17 846.38 726.725 911.294 762.554 C 887.75 767.87 868.979 772.939 845.792 779.852 C 796.215 794.197 738.614 820.381 694.063 846.791 C 694.59 801.488 694.092 755.317 694.166 709.889 z" fill="rgb(255,255,255)" transform="translate(0,0)"></path>
<metadata><recraft-signature>{"signed_by": "recraft", "signature_b64": "cZeWzgIV0ZT5cYT2+pJ4r+duYO7RoBqbAboNct+lfzYQRHmeKWwJd8r35Jz+Ka1lRIOeYWFNogwhLO+VmhT9CA==", "signing_algo": "Ed25519", "generation_timestamp": 1772807914, "identifier": "b03427ff-6b1e-4908-b92d-1e1c9eba2e54"}</recraft-signature></metadata></svg>