<svg xmlns="http://www.w3.org/2000/svg" height="1024" preserveAspectRatio="none" style="display: block;" version="1.1" viewBox="0 0 2048 2048" width="1024">
<path d="M 0 0 L 2048 0 L 2048 2048 L 0 2048 L 0 0 z" fill="rgb(250,251,251)" transform="translate(0,0)"></path>
<path d="M 1611.57 708.951 C 1752.49 976.762 1711.12 1269.01 1501.82 1487.66 C 1377.59 1615 1208.04 1688.05 1030.16 1690.85 C 1009.57 1691.29 987.096 1689.46 966.53 1687.71 C 813.564 1675.04 669.685 1609.87 559.28 1503.23 C 433.025 1381.26 360.392 1214.12 357.356 1038.6 C 353.955 865.418 421.785 695.119 539.797 568.613 C 664.816 434.596 835.916 361.967 1018.88 359.16 C 1195.32 357.902 1365 426.979 1490.4 551.118 C 1480.02 561.288 1469.77 571.594 1459.66 582.034 C 1445.39 597.315 1428.46 613.114 1413.55 628.147 C 1368.26 676.04 1316.11 725.32 1268.73 772.022 L 1060.61 977.82 C 1040.09 999.983 1015.65 1022.24 994.265 1044.03 C 967.363 1073.15 936.456 1100.61 909.335 1129.78 C 863.614 1086.45 819.634 1040.32 774.489 996.309 C 758.771 980.985 743.113 963.88 727.131 949.095 C 707.068 968.537 688.617 987.953 668.949 1007.65 C 642.987 1033.25 617.306 1059.13 591.912 1085.29 C 615.542 1110.33 640.36 1134.12 663.932 1159.19 C 672.085 1167.86 680.084 1176.5 688.368 1185.06 C 695.791 1192.53 721.744 1217.96 726.334 1224.74 C 739.872 1237.66 755.268 1254.55 768.977 1268.34 L 909.269 1409.85 C 936.451 1383.43 962.672 1355.09 989.581 1329.13 C 1012.19 1307.67 1034.84 1284.15 1056.75 1261.91 C 1065.31 1251.97 1082.96 1235.51 1092.79 1225.64 L 1149.31 1169.1 C 1182.21 1135.62 1215.4 1102.43 1248.88 1069.53 C 1323.55 994.632 1398.69 920.192 1474.27 846.211 C 1489.01 832.019 1503.07 816.978 1517.55 802.47 L 1590.49 730.208 L 1611.57 708.951 z" fill="rgb(0,13,83)" transform="translate(0,0)"></path>
<path d="M 888.017 653.284 C 884.382 626.465 875.994 600.51 863.246 576.636 C 856.804 564.337 844.484 552.34 835.758 541.557 C 835.634 541.405 835.627 535.984 835.683 535.325 C 837.073 519.13 848.068 502.833 860.157 492.637 C 876.145 479.148 896.891 472.664 917.715 474.646 C 940.096 476.706 960.266 487.218 974.758 504.526 C 993.776 527.24 991.024 552.231 991.085 580.027 L 991.142 644.032 L 991.149 727.43 C 991.136 745.246 991.697 766.783 989.857 784.188 C 950.757 760.397 929.913 752.888 883.341 750.595 C 880.802 771.678 876.702 795.644 873.584 816.917 C 932.075 816.88 982.842 845.454 992.786 907.196 C 995.674 925.132 993.802 944.651 994.112 962.823 C 994.571 989.729 993.109 1017.14 994.265 1044.03 C 967.363 1073.15 936.456 1100.61 909.335 1129.78 C 863.614 1086.45 819.634 1040.32 774.489 996.309 C 758.771 980.985 743.113 963.88 727.131 949.095 C 707.068 968.537 688.617 987.953 668.949 1007.65 C 642.987 1033.25 617.306 1059.13 591.912 1085.29 C 615.542 1110.33 640.36 1134.12 663.932 1159.19 C 672.085 1167.86 680.084 1176.5 688.368 1185.06 C 673.505 1194.38 663.115 1198.42 647.1 1210.15 C 603.869 1241.82 578.445 1279.13 570.125 1332.5 C 542.213 1324.01 524.846 1315.71 503.676 1295.3 C 458.543 1251.78 460.463 1188.48 503.974 1144.54 C 521.921 1156.3 546.733 1166.35 566.672 1174.86 C 574.609 1151.95 582.521 1132.02 591.787 1109.66 C 568.725 1102.55 548.567 1094.79 529.369 1079.67 C 501.291 1057.56 481.146 1026.8 476.801 991.024 C 472.802 957.215 482.387 923.201 503.451 896.455 C 537.943 852.796 599.956 831.597 648.319 868.973 C 669.544 885.377 677.336 913.654 680.141 939.395 C 701.39 939.126 723.396 939.999 745.085 939.796 C 743.288 908.96 738.815 881.669 722.509 854.61 C 702.073 821.052 669.22 796.913 631.089 787.438 C 579.259 701.719 633.557 593.426 729.188 573.237 C 748.17 569.229 768.522 572.116 784.462 583.605 C 809.654 601.765 817.516 629.371 822.469 658.539 C 840.072 656.026 869.475 654.799 888.017 653.284 z" fill="rgb(15,208,210)" transform="translate(0,0)"></path>
<path d="M 1611.57 708.951 C 1752.49 976.762 1711.12 1269.01 1501.82 1487.66 C 1377.59 1615 1208.04 1688.05 1030.16 1690.85 C 1009.57 1691.29 987.096 1689.46 966.53 1687.71 C 813.564 1675.04 669.685 1609.87 559.28 1503.23 C 433.025 1381.26 360.392 1214.12 357.356 1038.6 C 353.955 865.418 421.785 695.119 539.797 568.613 C 664.816 434.596 835.916 361.967 1018.88 359.16 C 1195.32 357.902 1365 426.979 1490.4 551.118 C 1480.02 561.288 1469.77 571.594 1459.66 582.034 C 1426.24 527.766 1338.93 493.108 1276.79 507.135 C 1261.89 467.655 1240.74 440.341 1202.11 421.054 C 1137.91 388.996 1072.29 407.092 1024.5 458.243 C 961.892 395.117 875.563 384.773 808.304 447.275 C 790.783 463.556 780.322 485.397 771.663 507.209 C 732.354 504.106 703.044 506.623 666.409 523.348 C 564.635 569.812 515.773 681.664 557.501 786.858 C 500.997 803.826 457.944 834.216 429.531 887.416 C 405.088 932.145 399.917 984.901 415.211 1033.52 C 421.716 1054.44 437.676 1085.92 453.515 1101.25 C 404.246 1150.87 386.671 1212.67 411.915 1279.71 C 438.579 1350.53 500.889 1391.83 574.156 1403.48 C 599.818 1495.11 680.713 1549.95 774.803 1547.98 C 787.629 1585.58 813.648 1614.31 849.343 1631.85 C 883.197 1648.73 922.456 1651.13 958.116 1638.5 C 985.177 1629.19 1005.77 1614.13 1023.95 1592.39 C 1054.98 1624.19 1088.77 1645.41 1134.99 1646.01 C 1173.72 1646.46 1211.04 1631.43 1238.65 1604.27 C 1256.11 1586.96 1267.12 1569.32 1274.48 1546.04 C 1326.72 1549.6 1378.19 1531.93 1417.22 1497.02 C 1445.1 1472.28 1467.37 1439.19 1475.75 1402.58 C 1531.96 1392.07 1585.04 1363.14 1617.63 1315.12 C 1642.01 1278.67 1651.07 1234.1 1642.88 1191.02 C 1635.95 1155.42 1620.18 1126.68 1594.23 1101.71 C 1665.15 1010.68 1653.73 898.233 1566.15 822.808 C 1578.89 798.064 1593.87 758.482 1590.49 730.208 L 1611.57 708.951 z" fill="rgb(15,208,210)" transform="translate(0,0)"></path>
<path d="M 1149.31 1169.1 C 1182.21 1135.62 1215.4 1102.43 1248.88 1069.53 C 1323.55 994.632 1398.69 920.192 1474.27 846.211 C 1514.33 861.184 1541.7 879.409 1560.85 918.987 C 1595.72 991.055 1558.42 1067.62 1487.79 1098.61 C 1477.49 1103.13 1467.75 1106.23 1457.06 1109.65 C 1463.61 1124.93 1474.39 1157.12 1478.96 1173.74 C 1506.56 1164.84 1518.13 1160.1 1543.41 1144.94 C 1558.16 1159.36 1567.1 1169.51 1574.19 1189.17 C 1587.76 1226.75 1574.54 1266.9 1547 1294.48 C 1531.07 1310.43 1502.04 1328.18 1479.61 1332.78 C 1464.88 1250.74 1411.3 1198.05 1332.91 1172.48 C 1325.66 1193.78 1317.04 1214.84 1310.03 1236.03 C 1388.14 1258.82 1442.78 1337.53 1397.68 1416.05 C 1373.28 1458.54 1322.68 1481.43 1274.36 1481.92 C 1265.19 1450.68 1259.32 1443.15 1242.93 1415.71 C 1223.07 1423.3 1198.32 1430.2 1177.66 1436.68 C 1191.77 1461.05 1218.56 1500.36 1209.13 1528.46 C 1187.63 1592.55 1098.15 1596.23 1066.76 1538.59 C 1062.54 1530.86 1059.73 1522.44 1058.45 1513.72 C 1056.24 1498.93 1057.11 1471.59 1057.08 1455.51 L 1057.05 1324.55 C 1057.07 1311.04 1058.08 1273.11 1056.75 1261.91 C 1065.31 1251.97 1082.96 1235.51 1092.79 1225.64 L 1149.31 1169.1 z" fill="rgb(15,208,210)" transform="translate(0,0)"></path>
<path d="M 1149.31 1169.1 C 1199.12 1191.71 1235.88 1232.39 1243.69 1288.02 C 1221.88 1290.55 1199.09 1291.32 1177.59 1294.06 C 1169.88 1267.79 1161.98 1251.94 1136.81 1237.88 C 1124.21 1230.85 1107.28 1225.96 1092.79 1225.64 L 1149.31 1169.1 z" fill="rgb(0,13,83)" transform="translate(0,0)"></path>
<path d="M 1057.93 786.453 C 1056.73 721.058 1058.82 655.372 1057.54 589.932 C 1057.05 564.58 1054.5 535.154 1067.94 512.884 C 1078.95 494.505 1096.85 481.294 1117.66 476.192 C 1147.59 469.08 1179.11 480.62 1199.3 503.51 C 1209.15 514.678 1212.54 526.823 1215.6 541.048 C 1183.3 577.26 1168.18 607.519 1162.52 657.268 C 1184.67 656.618 1208.86 656.941 1231.14 656.858 C 1234.52 627.884 1243.4 605.726 1266.07 586.44 C 1294.88 561.932 1332.53 568.173 1363.62 584.613 C 1383.82 595.288 1399.28 610.597 1413.55 628.147 C 1368.26 676.04 1316.11 725.32 1268.73 772.022 L 1060.61 977.82 C 1059.58 963.277 1059.6 916.849 1061.62 904.274 C 1066.19 877.346 1081.36 853.373 1103.74 837.715 C 1125.05 822.72 1153.23 815.74 1178.99 820.236 C 1179.93 797.583 1180.41 774.913 1180.43 752.24 C 1124.96 752.422 1105.33 759.813 1057.93 786.453 z" fill="rgb(15,208,210)" transform="translate(0,0)"></path>
<path d="M 726.334 1224.74 C 739.872 1237.66 755.268 1254.55 768.977 1268.34 L 909.269 1409.85 C 936.451 1383.43 962.672 1355.09 989.581 1329.13 C 988.862 1343.89 989.44 1362.3 989.538 1377.32 L 989.945 1460.3 C 989.978 1475.61 990.696 1501.21 988.307 1515.65 C 986.708 1524.84 983.439 1533.66 978.661 1541.68 C 968.033 1559.62 950.587 1572.5 930.304 1577.37 C 893.23 1586.48 848.614 1566.55 838.605 1527.14 C 831.578 1499.47 857.538 1459.54 871.948 1436.62 C 850.605 1428.32 829.313 1419.88 808.072 1411.32 C 793.341 1436.58 784.391 1452.36 775.893 1481 C 769.357 1481.1 761.977 1481.36 755.497 1480.86 C 700.485 1476.64 646.627 1436.28 636.585 1380.23 C 631.262 1349 638.549 1316.93 656.849 1291.07 C 673.725 1267.16 702.243 1247.56 731.11 1242.54 C 729.042 1236.04 727.49 1231.47 726.334 1224.74 z" fill="rgb(15,208,210)" transform="translate(0,0)"></path>
<path d="M 1669.8 457.746 C 1673 460.197 1684.41 472.231 1687.87 475.781 C 1698.95 487.341 1710.3 498.631 1721.93 509.639 C 1714.85 518.139 1701.36 530.841 1693.3 538.869 L 1646.29 585.714 L 1485.33 744.307 L 1047.8 1179.78 C 1002.26 1225.36 955.599 1270.49 910.6 1316.37 C 891.657 1296.03 866.748 1272.77 846.588 1252.83 L 730.357 1136.81 L 677.783 1084.38 C 694.769 1068.14 709.553 1051.39 727.139 1035.46 C 786.397 1096.37 849.374 1157.75 909.479 1218.07 C 923.943 1205.06 942.547 1184.49 957.16 1170.09 L 1097.04 1030.56 L 1540.39 587.691 C 1570.29 558.212 1599.58 527.035 1629.79 497.69 C 1643.07 484.795 1656.09 470.064 1669.8 457.746 z" fill="rgb(0,13,83)" transform="translate(0,0)"></path>
<metadata><recraft-signature>{"signed_by": "recraft", "signature_b64": "PRIPlOtwCeS6NtZd3If+0iXbWLrygwm76gOpacG82oXS5erKI7F4TewGPbqrVKQb6OHlgUshsmZ6IX1wEz3lAw==", "signing_algo": "Ed25519", "generation_timestamp": 1772807892, "identifier": "caad78d9-17e6-4348-a5c5-6bdcf3a7c6a5"}</recraft-signature></metadata></svg>