<svg xmlns="http://www.w3.org/2000/svg" height="1024" preserveAspectRatio="none" style="display: block;" version="1.1" viewBox="0 0 2048 2048" width="1024">
<path d="M 0 0 L 2048 0 L 2048 2048 L 0 2048 L 0 0 z" fill="rgb(252,252,252)" transform="translate(0,0)"></path>
<path d="M 1041.07 259.953 C 1101.71 263.232 1157.99 277.642 1208.34 313.551 C 1218.09 320.503 1228.62 332.071 1238.56 340.243 C 1249.79 338.229 1261.13 336.895 1272.51 336.249 C 1414.49 328.423 1530.93 429.908 1538.47 572.607 C 1542.13 573.665 1545.75 574.83 1549.34 576.1 C 1687.51 625.553 1770.42 784.342 1720.57 924.889 C 1735.57 953.367 1746.02 975.661 1750.64 1008.01 C 1761.93 1087.19 1741.95 1166.55 1693.17 1230.11 C 1639.66 1299.83 1567.76 1337.47 1482.27 1349.65 L 1473.72 1350.79 C 1468.75 1248.47 1486.32 1131.05 1510.97 1031.82 C 1519.7 996.657 1530.46 960.961 1539.01 925.446 C 1546.55 894.136 1541.19 861.411 1523.96 834.06 C 1504.77 803.2 1473.86 781.464 1438.32 773.843 C 1413.04 768.328 1386.67 770.576 1362.68 780.293 C 1339.99 789.301 1300.81 818.213 1278.31 832.517 L 1040.8 985.629 L 1040.62 520.363 C 1040.52 436.383 1038.46 343.537 1041.07 259.953 z" fill="rgb(254,136,49)" transform="translate(0,0)"></path>
<path d="M 1403.58 839.205 C 1417.71 838.007 1430.58 840.186 1443.06 847.073 C 1444.87 848.072 1446.63 849.163 1448.33 850.341 C 1491.64 880.89 1470.96 929.521 1458.44 969.574 C 1400.13 1156.27 1381.27 1351.56 1441.16 1540.51 C 1449.15 1565.73 1457.5 1593.33 1465.72 1618.58 C 1483.15 1672.12 1438.76 1724.34 1383.23 1707.23 C 1371.9 1703.68 1356.29 1693.34 1345.56 1686.93 L 1295.75 1657 L 1091.48 1533.69 C 1082.98 1528.95 1074.28 1523.99 1065.98 1518.91 C 984.619 1469.14 902.321 1420.81 820.835 1371.25 C 773.983 1342.76 761.8 1282.65 792.662 1237.76 C 799.211 1228.24 806.654 1220.19 816.192 1213.49 C 843.401 1195.07 871.222 1177.26 898.787 1159.39 L 1067.84 1049.9 L 1278.21 912.648 L 1344.21 869.769 C 1364.57 856.545 1379.15 843.999 1403.58 839.205 z" fill="rgb(13,6,68)" transform="translate(0,0)"></path>
<path d="M 1293.14 1073.14 C 1293.4 1078.28 1285.93 1106.66 1284.47 1113.81 C 1259.18 1237.93 1254.46 1360.78 1281.38 1485.31 C 1249.92 1467.84 1218.03 1448.1 1187.18 1429.52 L 1086.39 1369.35 C 1068.37 1358.27 1049.25 1347.82 1031.02 1336.88 C 1004.91 1321.2 978.842 1305.37 952.467 1290.14 C 966.381 1280.03 991.353 1265.22 1006.41 1255.62 L 1120.22 1183.35 L 1247.62 1102.62 C 1262.19 1093.47 1278.88 1081.2 1293.14 1073.14 z" fill="rgb(252,252,252)" transform="translate(0,0)"></path>
<path d="M 958.397 260.426 L 973.919 259.837 C 974.322 306.661 973.637 355.071 973.222 401.975 C 848.773 405.658 718.815 460.068 623.087 538.739 C 497.059 642.23 417.62 791.799 402.446 954.168 C 387.867 1109.92 435.817 1265.08 535.728 1385.45 C 617.78 1486.22 729.992 1558.01 855.872 1590.27 C 895.841 1600.28 933.191 1605.13 974.01 1608.99 L 973.925 1750.43 C 937.437 1748.87 901.109 1744.67 865.225 1737.88 C 733.032 1709.55 614.513 1653.89 513.252 1563.28 C 363.848 1430.1 274.082 1242.57 264.047 1042.67 C 253.917 846.972 321.399 655.178 451.839 508.939 C 581.946 364.042 763.034 270.931 958.397 260.426 z" fill="rgb(254,136,49)" transform="translate(0,0)"></path>
<path d="M 972.014 467.484 L 973.129 467.82 C 974.108 469.682 974.011 594.482 974.068 606.88 C 893.746 606.475 803.875 649.317 744.056 701.511 C 659.792 775.064 608.419 879.242 601.366 990.869 C 595.372 1080.03 621.174 1168.44 674.191 1240.38 C 684.404 1254.42 694.817 1265.76 706.204 1278.76 C 708.555 1337.82 723.611 1389.18 776.135 1423.08 C 794.067 1434.65 812.161 1446.16 830.045 1457.81 L 908.777 1508.3 C 926.204 1519.45 944.362 1531.63 962.198 1541.93 C 921.884 1538.03 890.626 1531.18 851.779 1520.27 C 779.916 1499.43 713.297 1463.58 656.325 1415.07 C 546.704 1322.89 478.781 1190.48 467.856 1047.67 C 457.681 907.304 502.816 768.527 593.614 661.001 C 692.037 546.096 821.059 479.028 972.014 467.484 z" fill="rgb(254,136,49)" transform="translate(0,0)"></path>
<path d="M 968.575 673.429 C 970.959 672.929 970.833 672.811 973.113 673.566 C 974.959 678.29 973.79 796.967 973.909 813.42 C 950.293 818.807 933.765 823.512 911.968 835.278 C 863.846 861.13 827.923 904.991 812.06 957.264 C 798.88 1000.22 800.999 1046.43 818.058 1088 C 822.177 1097.94 828.653 1109.44 833.824 1119.05 C 789.834 1151 762.168 1156.46 730.473 1206.65 C 726.988 1201.63 723.499 1196.09 720.131 1190.94 C 691.763 1146.3 672.395 1102.23 667.35 1049 C 649.884 864.699 782.991 692.83 968.575 673.429 z" fill="rgb(254,136,49)" transform="translate(0,0)"></path>
<path d="M 969.508 883.05 C 970.023 883.013 972.323 883.189 972.922 883.226 C 974.361 886.816 973.604 1013.72 973.709 1030.45 C 946.032 1047.69 918.903 1065.54 891.185 1082.66 C 889.267 1079.58 887.442 1076.24 885.642 1073.08 C 881.094 1064.36 877.427 1055.22 874.694 1045.78 C 855.193 976.694 901.254 902.02 969.508 883.05 z" fill="rgb(254,136,49)" transform="translate(0,0)"></path>
<metadata><recraft-signature>{"signed_by": "recraft", "signature_b64": "g0BN48X+0oAIrc+ph+9HoVTZ+RM4k++M/QtfJufbREpwT0BG90zI0hbDG9A3ril83DEafq9CLMxZlCcXULCQDQ==", "signing_algo": "Ed25519", "generation_timestamp": 1772808027, "identifier": "52bf0143-3305-4da4-8a35-48b41cccd525"}</recraft-signature></metadata></svg>