<svg xmlns="http://www.w3.org/2000/svg" height="1024" preserveAspectRatio="none" style="display: block;" version="1.1" viewBox="0 0 2048 2048" width="1024">
<path d="M 0 0 L 2048 0 L 2048 2048 L 0 2048 L 0 0 z" fill="rgb(251,251,251)" transform="translate(0,0)"></path>
<path d="M 1021.65 669.963 C 1217.53 667.904 1378.03 824.971 1380.19 1020.85 C 1382.35 1216.73 1225.37 1377.31 1029.49 1379.58 C 833.467 1381.85 672.743 1224.72 670.577 1028.69 C 668.411 832.663 825.624 672.024 1021.65 669.963 z" fill="rgb(29,42,67)" transform="translate(0,0)"></path>
<path d="M 1053.74 948.113 C 1089.37 947.764 1126.52 942.649 1154.32 969.613 C 1186.25 1000.58 1184.27 1045.13 1154.13 1076.56 C 1122.39 1105.41 1094.49 1099.33 1053.24 1098.93 C 1052.81 1049.96 1053.02 996.98 1053.74 948.113 z" fill="rgb(246,126,16)" transform="translate(0,0)"></path>
<path d="M 949.663 947.378 C 961.367 946.266 983.248 947.54 995.138 948.006 C 994.22 996.793 996.49 1050.89 994.355 1098.85 C 972.463 1099.14 947.513 1100.99 926.747 1095.46 C 845.637 1067.2 862.106 956.494 949.663 947.378 z" fill="rgb(246,126,16)" transform="translate(0,0)"></path>
<path d="M 1053.84 725.772 C 1079.59 727.715 1117.35 736.722 1137.73 753.493 C 1153.77 766.567 1163.78 785.62 1165.45 806.245 C 1167.58 831.47 1160.95 851.51 1144.96 870.547 L 1144.06 871.496 C 1119.65 896.782 1087.31 892.358 1054.04 892.743 L 1053.84 725.772 z" fill="rgb(246,126,16)" transform="translate(0,0)"></path>
<path d="M 993.173 726.395 C 994.218 726.385 993.469 726.334 995.298 727.135 C 996.334 731 995.655 767.545 995.629 774.944 L 995.66 892.273 C 960.321 892.652 935.619 897.399 907.337 874.916 C 872.493 842.389 878.792 771.406 920.981 747.856 C 942.441 735.878 968.842 728.793 993.173 726.395 z" fill="rgb(246,126,16)" transform="translate(0,0)"></path>
<path d="M 965.844 1155.54 C 975.493 1155.27 985.148 1155.3 994.795 1155.62 L 994.743 1259.04 C 994.765 1278.94 995.308 1301.51 994.224 1321.23 C 971.471 1318.13 953.108 1313.44 932.543 1303.27 C 901.463 1285.93 885.29 1262.14 884.609 1225.68 C 884 1193.09 900.963 1169.14 931.974 1158.8 C 943.507 1154.96 953.777 1155.47 965.844 1155.54 z" fill="rgb(246,126,16)" transform="translate(0,0)"></path>
<path d="M 1054.05 1155.43 C 1087.44 1154.96 1119.02 1149.77 1142.96 1177.84 C 1157.34 1194.69 1164.26 1216.67 1162.12 1238.73 C 1160.08 1261.97 1150.84 1278.64 1133.14 1293.29 C 1111.48 1310.91 1081.52 1319.31 1054.08 1321.38 C 1053.83 1266.67 1053.15 1210.01 1054.05 1155.43 z" fill="rgb(246,126,16)" transform="translate(0,0)"></path>
<path d="M 1234.14 1052.16 C 1262.94 1051.6 1293.02 1051.94 1321.87 1052.18 C 1319.8 1074.49 1316.21 1094.8 1309.11 1116.1 C 1298.26 1148.61 1288.36 1172.18 1256.98 1188.37 C 1241.75 1194.1 1232.77 1194.2 1216.44 1193.91 C 1204.97 1167.34 1197.91 1151.68 1175.07 1132.05 C 1204.86 1110.77 1224.09 1087.99 1234.14 1052.16 z" fill="rgb(246,126,16)" transform="translate(0,0)"></path>
<path d="M 729.071 1052.22 L 818.518 1051.95 C 831.153 1088.88 841.67 1104.5 872.694 1128.18 C 858.457 1141.57 852.534 1148.26 842.483 1164.84 C 836.795 1175.24 834.379 1181.46 831.13 1192.82 C 809.091 1193.52 789.839 1192.53 772.453 1176.42 C 744.519 1150.53 730.752 1088.16 729.071 1052.22 z" fill="rgb(246,126,16)" transform="translate(0,0)"></path>
<path d="M 808.342 859.179 C 815.495 858.55 823.063 858.702 830.277 858.703 C 840.426 888.728 848.127 899.28 871.391 920.329 C 843.991 941.118 830.562 964.048 819.717 996.024 L 793.802 995.533 C 772.45 995.416 751.097 995.551 729.749 995.937 C 734.361 953.414 750.347 883.268 794.226 863.379 C 798.453 861.463 803.802 860.23 808.342 859.179 z" fill="rgb(246,126,16)" transform="translate(0,0)"></path>
<path d="M 1221.08 856.922 C 1241.72 856.475 1257.38 858.638 1274.01 872.1 C 1306.27 898.202 1317.6 956.273 1321.3 995.68 L 1284.74 995.169 L 1234.59 994.863 C 1222.19 960.662 1210.3 941.976 1181.74 919.52 C 1204.37 898.583 1211.54 886.259 1221.08 856.922 z" fill="rgb(246,126,16)" transform="translate(0,0)"></path>
<path d="M 1218.18 795.679 C 1223.06 798.051 1232.28 806.726 1235.79 810.768 C 1230.92 810.899 1226.61 810.8 1221.75 810.65 C 1220.62 805.574 1219.39 800.721 1218.18 795.679 z" fill="rgb(246,126,16)" transform="translate(0,0)"></path>
<path d="M 1220.37 1238.93 C 1225.51 1238.97 1229.9 1239.11 1235.01 1239.39 C 1232.01 1242.57 1229.91 1244.98 1226.5 1247.81 C 1223.62 1250.03 1221.33 1251.71 1218.32 1253.78 C 1219.26 1248.51 1219.88 1244.22 1220.37 1238.93 z" fill="rgb(246,126,16)" transform="translate(0,0)"></path>
<path d="M 831.363 795.87 C 833.545 797.365 829.858 806.541 829.048 809.955 C 825.302 810.309 821.168 810.506 817.352 810.801 C 813.93 807.975 829 797.689 831.363 795.87 z" fill="rgb(246,126,16)" transform="translate(0,0)"></path>
<path d="M 819.04 1238.52 C 833.737 1238.21 826.777 1237.82 829.839 1249.55 C 830.296 1251.3 829.676 1251.6 828.389 1251.27 C 825.925 1249.16 811.733 1239.06 819.04 1238.52 z" fill="rgb(246,126,16)" transform="translate(0,0)"></path>
<path d="M 1112.73 552.057 C 1173.03 562.267 1245.24 595.001 1295.23 629.473 C 1310.17 639.775 1328.09 655.278 1343.68 666.592 C 1355.03 675.97 1374.48 696.626 1384.04 708.32 C 1458.91 786.647 1497.72 891.139 1506.05 998.037 C 1506.04 1013.41 1505.16 1038.88 1506.12 1053.41 C 1501.25 1141.61 1471.51 1226.63 1420.34 1298.64 C 1410.36 1312.53 1396.77 1327.44 1385.52 1340.78 C 1371.41 1355.65 1359.1 1368.42 1343.9 1382.31 C 1312.45 1407.6 1284.12 1430.19 1248.25 1449.24 C 1202.31 1473.64 1163.76 1485.7 1113.82 1497.41 C 1113.37 1476.16 1113.3 1454.91 1113.61 1433.66 C 1153.78 1424.8 1192.38 1409.94 1228.12 1389.58 C 1531.46 1217.91 1512.7 792.621 1199.39 644.948 C 1171.57 631.835 1142.41 623.396 1112.77 615.442 L 1112.73 552.057 z" fill="rgb(246,126,16)" transform="translate(0,0)"></path>
<path d="M 706.814 666.24 L 707.845 665.541 C 722.289 655.597 736.906 642.367 751.295 631.998 C 797.902 598.41 880.315 560.302 937.409 552.332 C 937.063 573.385 936.951 594.441 937.074 615.496 C 848.145 638.432 779.535 673.983 716.275 741.843 C 619.127 846.055 580.153 992.592 616.645 1131.01 C 643.695 1233.62 716.378 1327.88 807.512 1382.34 C 848.622 1406.7 887.617 1421.05 933.744 1432.46 L 933.88 1497.58 C 887.109 1486.72 841.835 1472.72 800.328 1447.95 C 768.667 1429.06 733.176 1408.44 706.171 1382.92 C 690.347 1369.11 678.707 1357.01 664.922 1341.27 C 592.837 1259.26 550.281 1163.79 543.717 1053.98 C 543.137 1038.06 542.239 1014.01 543.631 998.406 C 546.864 980.456 546.898 961.649 550.837 941.311 C 564.156 874.98 590.589 811.977 628.587 756 C 639.313 740.388 653.968 724.076 665.485 707.893 C 673.795 697.566 696.785 675.4 706.814 666.24 z" fill="rgb(246,126,16)" transform="translate(0,0)"></path>
<path d="M 1007.05 248.441 C 1023.47 247.555 1036.94 248.105 1053.21 249.038 C 1053.24 304.544 1052.84 362.853 1053.89 418.144 C 1066.71 419.529 1079.47 420.203 1092.41 421.761 C 1187.13 433.162 1271.21 465.505 1350.4 518.612 C 1340.54 532.824 1327.66 554.648 1318.92 569.724 C 1240.17 516.418 1148.77 484.787 1053.92 478.012 C 1053.63 493.112 1055.83 601.322 1052.84 605.515 L 1048.25 605.755 C 1030.2 605.857 1012.15 605.814 994.104 605.626 C 994.41 563.186 994.455 520.745 994.237 478.304 C 896.052 484.842 813.687 513.994 731.681 568.012 C 721.335 552.373 711.637 534.073 700.933 517.585 C 784.295 458.307 892.266 423.624 994.099 418.6 C 994.59 362.093 994.585 305.582 994.084 249.075 L 1007.05 248.441 z" fill="rgb(29,42,67)" transform="translate(0,0)"></path>
<path d="M 994.79 1451 C 1014.5 1450.67 1034.22 1450.54 1053.94 1450.62 L 1054.02 1572.01 C 1154.07 1568.12 1236.02 1531.75 1319.23 1479.61 L 1349.13 1530.61 C 1329.77 1542.31 1314.05 1553.18 1293.57 1564.14 C 1219.48 1603.34 1137.72 1625.87 1054.01 1630.13 C 1053.98 1648.11 1054.71 1795.34 1052.41 1800.4 L 1050.23 1800.77 C 1034.02 1803.01 1010.72 1802.07 994.274 1800.9 C 995.931 1746.1 994.628 1685.16 994.506 1629.86 C 968.677 1626.83 948.406 1625.24 922.246 1620.42 C 839.997 1605.27 767.07 1573.1 698.163 1526.27 C 707.778 1510 717.524 1493.8 727.4 1477.69 C 740.002 1488.36 762.079 1500.6 776.834 1508.38 C 843.368 1543.44 919.213 1566.93 994.517 1571.66 C 995.315 1532.09 994.795 1490.71 994.79 1451 z" fill="rgb(29,42,67)" transform="translate(0,0)"></path>
<path d="M 517.144 698.347 C 531.469 709.424 550.98 721.209 566.547 731.101 C 510.253 823.067 486.564 889.399 476.958 997.949 L 543.631 998.406 C 542.239 1014.01 543.137 1038.06 543.717 1053.98 C 523.418 1053.54 497.925 1053.45 477.683 1054.54 C 479.879 1117.63 502.785 1199.92 530.671 1256.47 C 541.122 1277.66 552.655 1295.88 563.784 1316.35 C 547.298 1326.88 530.894 1337.54 514.573 1348.32 C 455.076 1261.94 423.827 1157.71 417.791 1053.57 L 247.489 1053.33 C 245.704 1031.98 245.944 1018.63 247.337 997.7 L 417.817 998.134 C 419.892 972.699 422.221 945.007 426.883 919.917 C 440.316 847.615 474.006 758.305 517.144 698.347 z" fill="rgb(29,42,67)" transform="translate(0,0)"></path>
<path d="M 1535.41 703.946 C 1593.84 791.195 1627.06 892.879 1631.4 997.798 C 1687.98 998.032 1745.52 996.885 1801.88 997.964 C 1803.19 1016.86 1803.59 1035.37 1801.95 1054.29 C 1745.03 1055.26 1688.1 1054.08 1631.12 1054.83 C 1624.62 1145.97 1607.78 1216.75 1564.87 1298.81 C 1555.38 1316.96 1545.46 1331.88 1535.54 1349.22 C 1518.65 1338.9 1502.03 1327.93 1485.2 1317.74 C 1491.89 1310.05 1502.91 1290.29 1508.04 1280.93 C 1545.57 1210.81 1567.46 1133.39 1572.18 1054 C 1550.71 1053.79 1527.46 1053.13 1506.12 1053.41 C 1505.16 1038.88 1506.04 1013.41 1506.05 998.037 C 1526.05 998.067 1552.59 998.743 1572.12 997.423 C 1567.2 898.479 1537.95 818.899 1487.79 734.868 C 1503.73 724.661 1519.6 714.354 1535.41 703.946 z" fill="rgb(29,42,67)" transform="translate(0,0)"></path>
<path d="M 1627.86 538.558 C 1635.87 543.427 1658.86 577.421 1665.03 586.14 C 1717.05 659.806 1755.4 742.225 1778.25 829.463 C 1787.36 865.599 1793.47 904.124 1798.44 941.116 L 1730.5 941.112 L 1696.73 940.99 C 1678.17 805.651 1639.02 717.809 1558.91 608.235 C 1581.5 584.31 1605.52 563.239 1627.86 538.558 z" fill="rgb(246,126,16)" transform="translate(0,0)"></path>
<path d="M 421.551 537.661 C 444.723 561.649 466.077 584.763 490.056 608.368 C 478.724 626.811 462.538 646.908 450.01 666.945 C 394.931 755.033 366.594 838.372 352.472 940.968 L 318.813 940.766 L 251.894 939.868 C 261.076 821.815 309.683 694.531 376.431 597.419 C 390.057 577.596 406.579 556.741 421.551 537.661 z" fill="rgb(246,126,16)" transform="translate(0,0)"></path>
<path d="M 1112.19 252.052 C 1140.12 256.449 1163.08 258.992 1191.63 265.24 C 1298.46 288.619 1425.04 346.309 1507.58 419.07 C 1495.98 431.344 1484.09 443.354 1471.95 455.093 C 1460.26 466.731 1448.49 478.283 1436.63 489.746 C 1356.18 423.939 1216.59 362.379 1112.72 353.796 C 1113.1 319.724 1111.81 285.973 1112.19 252.052 z" fill="rgb(246,126,16)" transform="translate(0,0)"></path>
<path d="M 607.188 1557.01 C 715.518 1634.06 800.363 1674.59 932.923 1696.48 L 932.974 1795.66 C 912.659 1793.23 892.404 1790.32 872.227 1786.93 C 756.146 1765.62 626.185 1703.59 536.943 1625.94 C 559.556 1605.05 585.297 1578.87 607.188 1557.01 z" fill="rgb(246,126,16)" transform="translate(0,0)"></path>
<path d="M 1437.09 1559.87 C 1439.35 1561.19 1456.66 1578.99 1459.89 1582.22 L 1508.45 1630.42 C 1410.17 1709.17 1301.48 1762.29 1177.84 1786.81 C 1157.83 1790.7 1133.59 1793.24 1113.05 1795.77 L 1112.88 1697.17 C 1205.05 1681.78 1280.77 1657.63 1361.86 1609.77 C 1386.4 1595.29 1415.05 1577.73 1437.09 1559.87 z" fill="rgb(246,126,16)" transform="translate(0,0)"></path>
<path d="M 928.471 253.387 C 930.867 252.955 929.972 253.006 932.419 253.471 C 934.989 262.809 932.998 339.957 932.977 354.504 C 913.503 357.919 893.769 361.119 874.514 365.553 C 776.437 388.139 691.597 429.602 610.976 489.899 C 600.988 481.553 587.391 467.182 577.842 457.558 C 565.298 444.787 552.435 432.332 539.265 420.207 C 651.004 329.556 785.768 271.794 928.471 253.387 z" fill="rgb(246,126,16)" transform="translate(0,0)"></path>
<path d="M 1696.3 1113.93 L 1799.24 1114 C 1797.25 1139.55 1791.56 1169.43 1785.9 1194.49 C 1760.96 1304.86 1713.44 1398.43 1645.86 1488.29 C 1640.76 1494.85 1635.75 1501.46 1630.82 1508.14 C 1608.24 1485.44 1585.79 1462.61 1563.46 1439.66 C 1636.71 1334.66 1680.46 1242.78 1696.3 1113.93 z" fill="rgb(246,126,16)" transform="translate(0,0)"></path>
<path d="M 251.672 1114.96 C 285.69 1114.54 319.712 1114.49 353.732 1114.82 C 363.273 1226.19 420.139 1346.95 485.93 1435.72 C 475.429 1447.14 463.324 1458.86 452.301 1469.91 L 416.866 1505.69 C 319.293 1380.32 274.101 1271.73 251.672 1114.96 z" fill="rgb(246,126,16)" transform="translate(0,0)"></path>
<path d="M 664.922 1341.27 C 678.707 1357.01 690.347 1369.11 706.171 1382.92 C 693.27 1396.59 680.438 1410.08 666.854 1423.08 C 609.305 1478.18 554.322 1538.38 495.864 1592.3 C 482.444 1580.03 465.729 1564.16 454.896 1549.85 C 476.024 1527.35 499.404 1505.57 521.373 1483.84 C 569.48 1436.58 617.331 1389.06 664.922 1341.27 z" fill="rgb(29,42,67)" transform="translate(0,0)"></path>
<path d="M 497.319 455.278 C 528.336 486.973 559.621 518.404 591.169 549.57 C 629.497 588.678 668.046 627.569 706.814 666.24 C 696.785 675.4 673.795 697.566 665.485 707.893 L 540.001 582.449 C 515.37 557.924 478.646 523.177 455.923 497.867 C 469.478 481.837 482.135 469.86 497.319 455.278 z" fill="rgb(29,42,67)" transform="translate(0,0)"></path>
<path d="M 1385.52 1340.78 C 1454.92 1411.42 1524.7 1481.68 1594.87 1551.56 L 1553.14 1593.27 C 1529.28 1567.47 1501.46 1541.04 1476.45 1516.18 C 1431.96 1471.87 1387.77 1427.25 1343.9 1382.31 C 1359.1 1368.42 1371.41 1355.65 1385.52 1340.78 z" fill="rgb(29,42,67)" transform="translate(0,0)"></path>
<path d="M 1554.48 458.248 C 1569.24 472.055 1580.72 483.165 1594.4 497.95 L 1445.2 648.077 C 1425.44 667.673 1404.27 689.346 1384.04 708.32 C 1374.48 696.626 1355.03 675.97 1343.68 666.592 C 1391.59 620.224 1439.62 571.793 1486.87 524.671 L 1526.04 485.34 C 1534.65 476.656 1545.01 465.686 1554.48 458.248 z" fill="rgb(29,42,67)" transform="translate(0,0)"></path>
<metadata><recraft-signature>{"signed_by": "recraft", "signature_b64": "yGJ/gda+00g2AYtP38UsSqWwpR3GOCoJwuOnEpQfcNlc/hVkBUkmFHoRF5+gDwjP5Lrw4RPlqcCSnyWwpbFuCg==", "signing_algo": "Ed25519", "generation_timestamp": 1772808073, "identifier": "c30c0bb1-2ae2-418a-b9f1-f5dc4472e9ca"}</recraft-signature></metadata></svg>