<svg xmlns="http://www.w3.org/2000/svg" height="1024" preserveAspectRatio="none" style="display: block;" version="1.1" viewBox="0 0 2048 2048" width="1024">
<path d="M 0 0 L 2048 0 L 2048 2048 L 0 2048 L 0 0 z" fill="rgb(254,254,254)" transform="translate(0,0)"></path>
<path d="M 412.106 1585.9 C 111.8 1258.39 122.288 752.58 435.914 437.799 C 749.539 123.018 1255.31 110.67 1583.92 409.771 C 1810.09 615.631 1904.91 929.088 1830.75 1225.79 C 1756.6 1522.5 1525.46 1754.49 1229.03 1829.73 C 932.6 1904.98 618.796 1811.32 412.106 1585.9 z" fill="rgb(22,26,66)" transform="translate(0,0)"></path>
<path d="M 412.106 1585.9 C 111.8 1258.39 122.288 752.58 435.914 437.799 C 749.539 123.018 1255.31 110.67 1583.92 409.771 C 1573.82 421.509 1507.93 511.868 1506.55 512.4 C 1477.91 547.955 1453.58 585.194 1426.56 621.276 C 1412.79 611.423 1377.78 590.988 1361.95 582.091 C 1332.54 565.559 1277.5 529.89 1247.29 519.682 C 1256.79 529.063 1272.05 537.173 1283.6 548.021 C 1327.39 589.165 1353.23 645.894 1355.52 705.939 C 1357.86 767.843 1334.99 828.047 1292.14 872.791 C 1250.73 917.281 1193.14 943.223 1132.38 944.766 C 1114.26 945.248 1097.13 943.489 1079.34 940.319 C 1073.28 939.239 1056.55 934.254 1051.76 934.262 C 1076.02 948.639 1097.7 961.008 1122.86 973.92 C 1133.36 979.309 1157.78 991.782 1167.08 998.129 C 1136.89 998.583 1105.91 998.073 1075.64 998.132 L 813.662 997.951 C 769.488 997.957 719.139 996.949 675.32 998.565 L 674.963 1286.32 L 675.129 1379.52 C 675.113 1385.14 675.361 1409.16 674.503 1412.64 C 661.608 1427.78 648.202 1448.4 636.306 1464.82 L 571.95 1552.87 C 584.073 1564.15 603.339 1576.35 617.561 1584.71 L 476.868 1585.57 L 433.265 1585.67 C 428.151 1585.68 416.509 1585.35 412.106 1585.9 z" fill="rgb(254,254,254)" transform="translate(0,0)"></path>
<path d="M 412.106 1585.9 C 111.8 1258.39 122.288 752.58 435.914 437.799 C 749.539 123.018 1255.31 110.67 1583.92 409.771 C 1573.82 421.509 1507.93 511.868 1506.55 512.4 C 1486.14 494.066 1464.47 474.523 1442.2 458.492 C 1310.48 364.734 1151.11 317.877 989.598 325.422 C 795.956 335.791 632.973 413.88 503.684 558.259 C 379.293 697.881 315.889 881.442 327.59 1068.07 C 336.085 1246.41 415.602 1413.92 548.403 1533.25 C 555.863 1539.89 564.204 1546.53 571.95 1552.87 C 584.073 1564.15 603.339 1576.35 617.561 1584.71 L 476.868 1585.57 L 433.265 1585.67 C 428.151 1585.68 416.509 1585.35 412.106 1585.9 z" fill="rgb(254,118,48)" transform="translate(0,0)"></path>
<path d="M 1051.76 934.262 C 1044.55 931.581 1025.8 922.852 1019.21 919.487 C 964.115 891.12 922.491 842.097 903.432 783.133 C 885.221 725.4 890.552 662.81 918.267 608.989 C 946.493 554.592 995.955 514.568 1054.15 496.713 C 1128.21 473.989 1180.97 485.104 1247.29 519.682 C 1256.79 529.063 1272.05 537.173 1283.6 548.021 C 1327.39 589.165 1353.23 645.894 1355.52 705.939 C 1357.86 767.843 1334.99 828.047 1292.14 872.791 C 1250.73 917.281 1193.14 943.223 1132.38 944.766 C 1114.26 945.248 1097.13 943.489 1079.34 940.319 C 1073.28 939.239 1056.55 934.254 1051.76 934.262 z" fill="rgb(254,118,48)" transform="translate(0,0)"></path>
<path d="M 576.698 565.646 C 578.841 567.109 605.141 594.107 608.525 597.554 C 627.946 617.605 647.868 637.164 668.272 656.213 C 658.242 665.246 648.498 674.232 639.041 683.728 C 507.719 815.598 498.681 1033.16 619.788 1174.89 C 635.688 1193.5 652.423 1209.24 670.104 1226.2 C 648.548 1248.15 627.293 1270.4 606.345 1292.93 C 599.14 1300.49 592.067 1308.17 585.129 1315.98 C 574.639 1307.99 564.597 1299.43 555.048 1290.34 C 458.992 1197.65 404.625 1085.29 402.504 951.058 C 400.377 838.589 437.161 728.837 506.633 640.364 C 532.473 607.838 548.942 594.297 576.698 565.646 z" fill="rgb(254,118,48)" transform="translate(0,0)"></path>
<path d="M 675.32 998.565 C 719.139 996.949 769.488 997.957 813.662 997.951 L 1075.64 998.132 C 1105.91 998.073 1136.89 998.583 1167.08 998.129 C 1172.66 1000.02 1217.71 999.016 1226.32 999.004 L 1304.55 998.872 C 1319.2 998.822 1339.06 998.204 1353.32 999.181 C 1395.82 1002.43 1436.66 1017.12 1471.49 1041.7 C 1498.58 1060.19 1521.16 1084.55 1537.55 1112.96 C 1551.26 1136.98 1560.19 1163.43 1563.83 1190.85 C 1566.94 1213.14 1566.5 1236.82 1566.53 1259.37 L 1566.44 1345.1 C 1566.27 1424.78 1567.34 1505.55 1566.55 1585 L 1390.96 1584.87 C 1391.39 1480.39 1391.09 1375.9 1390.05 1271.42 C 1376.69 1259.4 1364.21 1246.67 1351.24 1234.24 L 1252.15 1138.95 L 1171.45 1062.24 C 1149.24 1041.06 1127.81 1021.46 1107.89 998.035 C 1105.52 1051.88 1107.02 1114.19 1106.98 1168.92 L 1106.91 1438.66 C 1106.91 1486.83 1107.56 1536.97 1106.77 1584.98 L 826.005 1584.99 C 777.747 1584.98 722.713 1586.16 674.898 1584.54 L 674.758 1469.24 C 674.741 1454.97 675.591 1426.03 674.503 1412.64 C 675.361 1409.16 675.113 1385.14 675.129 1379.52 L 674.963 1286.32 L 675.32 998.565 z" fill="rgb(254,118,48)" transform="translate(0,0)"></path>
<metadata><recraft-signature>{"signed_by": "recraft", "signature_b64": "x6qPcmMiGxakL3xBYd6Tar4fpQ2/DTckbmQTJyyG2YsORlW14ZSR+VpL6Gg8YTUPma6LI2++K5LksBuTr2gOAg==", "signing_algo": "Ed25519", "generation_timestamp": 1772808051, "identifier": "8a9a3548-bfec-4c8c-ac32-353c17d40044"}</recraft-signature></metadata></svg>