<svg xmlns="http://www.w3.org/2000/svg" height="1024" preserveAspectRatio="none" style="display: block;" version="1.1" viewBox="0 0 2048 2048" width="1024">
<path d="M 0 0 L 2048 0 L 2048 2048 L 0 2048 L 0 0 z" fill="rgb(255,255,255)" transform="translate(0,0)"></path>
<path d="M 1023.81 596.677 C 1029.42 601.944 1061.17 669.472 1066.51 680.155 L 1138.74 822.983 C 1167 822.422 1194.78 822.992 1223.02 822.947 L 1406.39 823.176 C 1395.94 835.435 1383.21 848.303 1372.26 860.614 L 1282.63 961.355 C 1263.27 982.945 1245.51 1001.82 1227.38 1024.61 C 1246.56 1047.92 1272.51 1074.99 1293.19 1097.54 L 1408.74 1224.64 C 1377.71 1223.64 1341.65 1224.81 1310.07 1224.9 L 1135.92 1224.96 C 1123.35 1245.22 1104.99 1285.61 1094.03 1308.04 L 1025.83 1447.62 L 1024.36 1447.72 C 1018.69 1438.54 1002.69 1403.27 996.982 1391.71 L 949.967 1298.33 C 938.62 1275.34 925.032 1245.57 912.599 1223.74 C 823.057 1224.88 731.423 1223.68 641.584 1223.9 C 700.963 1157.82 763.309 1090.99 821.335 1024.02 C 781.392 978.052 741.006 932.469 700.184 887.279 C 681.044 865.905 662.184 843.32 642.678 822.5 C 731.886 821.069 823.345 822.933 912.807 823.081 C 924.38 801.988 937.296 773.45 948.119 751.354 L 1023.81 596.677 z" fill="rgb(33,28,163)" transform="translate(0,0)"></path>
<path d="M 1018.91 914.781 C 1078.95 911.49 1130.33 957.39 1133.81 1017.42 C 1137.29 1077.45 1091.56 1128.98 1031.54 1132.65 C 971.253 1136.33 919.443 1090.35 915.947 1030.05 C 912.452 969.753 958.601 918.087 1018.91 914.781 z" fill="rgb(255,255,255)" transform="translate(0,0)"></path>
<path d="M 1759.78 836.068 C 1763.01 960.518 1757.06 1086.77 1760.92 1210.85 C 1734.02 1191.41 1726.84 1183.05 1693.25 1169.46 C 1613.05 1138.64 1533.45 1155.03 1469.39 1211.16 C 1444.33 1190.51 1414 1167.94 1396.17 1140.4 C 1323.66 1028.32 1363.58 908.485 1469.08 837.148 C 1550.44 904.207 1652.91 912.96 1739.94 851.09 C 1746.7 846.281 1753.23 841.153 1759.78 836.068 z" fill="rgb(33,28,163)" transform="translate(0,0)"></path>
<path d="M 1557.32 899.117 L 1558.78 899.992 C 1561.99 908.253 1565.66 922.79 1567.83 931.82 C 1585.89 1007.11 1582.18 1072.3 1557.14 1144.81 C 1535.93 1137.34 1520.39 1132.61 1501.92 1119.25 C 1481.06 1102.52 1465.71 1081.58 1458.35 1055.64 C 1449.54 1024.73 1453.39 991.589 1469.04 963.517 C 1489.08 927.855 1519.3 910.001 1557.32 899.117 z" fill="rgb(255,255,255)" transform="translate(0,0)"></path>
<path d="M 580.523 835.775 C 597.02 841.463 640.485 887.242 651.239 902.01 C 682.833 946.319 695.907 1001.2 687.684 1054.99 C 676.583 1123.89 634.928 1171.66 579.926 1211.1 C 512.065 1154.26 440.404 1137.32 356.55 1168.89 C 328.826 1180.55 312.629 1193.51 289.487 1211.7 C 290.459 1199.01 289.953 1179.68 289.913 1166.5 L 289.657 1089.57 L 289.528 836.432 C 364.091 904.228 468.448 914.335 552.891 856.775 C 562.759 850.049 571.277 843.285 580.523 835.775 z" fill="rgb(33,28,163)" transform="translate(0,0)"></path>
<path d="M 492.998 898.41 C 524.055 909.275 546.685 919.675 568.439 945.419 C 588.859 969.989 598.584 1001.72 595.438 1033.51 C 592.181 1069.41 576.63 1096.19 549.321 1118.83 C 529.474 1134.07 514.975 1139.36 491.591 1145.53 C 463.444 1057.9 463.646 985.727 492.998 898.41 z" fill="rgb(255,255,255)" transform="translate(0,0)"></path>
<path d="M 1299.67 1276.42 C 1329.73 1273.12 1385.41 1282.4 1412.32 1296.54 C 1404.65 1326 1400.82 1351.05 1404.86 1381.51 C 1416.28 1467.53 1473.93 1532.79 1553.94 1561.59 C 1530.06 1573.42 1506.92 1588.19 1483.66 1601.23 L 1301.75 1704.09 C 1278.11 1717.23 1254.6 1731.48 1231.28 1744.33 C 1242.38 1697.54 1237.64 1650.26 1217.31 1606.94 C 1188.01 1544.51 1145.57 1517.42 1083.73 1494.52 C 1097.86 1374.83 1177.23 1287.29 1299.67 1276.42 z" fill="rgb(33,28,163)" transform="translate(0,0)"></path>
<path d="M 1300.48 1371.4 C 1336.92 1367.79 1373.46 1378.53 1400.4 1403.69 C 1395.32 1411.74 1387.1 1420.46 1380.44 1427.48 C 1346.04 1463.69 1304.3 1490.27 1258.6 1509.92 C 1228.72 1523.35 1209.08 1526.66 1177.64 1531.31 C 1173.59 1490.81 1181.52 1452.47 1208.03 1420.91 C 1232.78 1391.44 1262.38 1375.07 1300.48 1371.4 z" fill="rgb(255,255,255)" transform="translate(0,0)"></path>
<path d="M 731.11 1276.42 C 776.299 1274.32 833.784 1292.42 869.684 1319.41 C 933.574 1367.44 953.472 1421.02 965.951 1495.12 C 893.554 1513.68 836.843 1571.95 818.743 1643.98 C 809.886 1679.23 811.178 1708.49 817.74 1743.63 C 798.151 1733.3 779.52 1722.44 760.372 1711.34 C 740.453 1699.45 718.206 1687.66 697.875 1676.05 L 580.987 1609.26 C 554.756 1594.52 522.178 1577.35 497.065 1561.45 C 507.527 1557.07 517.746 1553.69 528.155 1548.67 C 566.163 1530.72 597.695 1501.46 618.435 1464.9 C 649.657 1410.39 653.172 1358.28 636.974 1298.87 C 669.44 1283.96 695.808 1278.48 731.11 1276.42 z" fill="rgb(33,28,163)" transform="translate(0,0)"></path>
<path d="M 726.586 1371.4 C 732.788 1370.46 746.637 1370.96 752.92 1371.57 C 788.492 1374.99 821.148 1392.71 843.4 1420.67 C 869.297 1452.77 875.425 1490.25 871.225 1530.36 C 847.835 1526.26 832.686 1523.11 810.126 1516.15 C 746.675 1493.3 691.776 1457.81 649.86 1404.27 C 668.711 1385.3 700.19 1373.99 726.586 1371.4 z" fill="rgb(255,255,255)" transform="translate(0,0)"></path>
<path d="M 1232.04 304.59 C 1299.05 341.235 1367.32 382.341 1433.71 420.39 C 1472.37 442.546 1515.2 464.897 1552.77 488.171 C 1544.86 491.525 1536.83 494.691 1529 498.102 C 1449.41 532.775 1396.78 616.994 1403.49 703.954 C 1404.65 719.044 1408.21 734.241 1411.35 749.153 C 1406.42 751.624 1399.35 754.213 1394.08 756.294 C 1379.46 760.936 1364.51 764.495 1349.36 766.94 C 1287.97 776.403 1225.34 760.861 1175.49 723.79 C 1120.41 682.673 1093.32 620.838 1083.67 554.416 C 1129.31 540.101 1168.13 515.282 1196.27 476.009 C 1224.76 436.599 1239.04 388.688 1236.77 340.11 C 1236.15 327.938 1234.06 316.576 1232.04 304.59 z" fill="rgb(33,28,163)" transform="translate(0,0)"></path>
<path d="M 1177.44 516.668 C 1179.61 516.907 1181.78 517.18 1183.94 517.486 C 1260.56 528.388 1352.26 580.806 1399.04 642.896 C 1392.42 649.253 1386.34 653.297 1378.52 657.912 C 1355.74 670.166 1332.44 676.862 1306.37 675.851 C 1270.59 674.442 1236.85 658.851 1212.59 632.52 C 1180.29 597.319 1175.41 562.119 1177.44 516.668 z" fill="rgb(255,255,255)" transform="translate(0,0)"></path>
<path d="M 815.933 306.05 C 817.248 308.496 815.957 311.479 815.346 314.972 C 813.164 327.078 812.102 339.359 812.174 351.659 C 811.893 449.422 871.835 526.817 965.282 553.607 C 961.738 576.539 958.311 594.536 950.461 616.689 C 929.867 674.696 886.977 722.087 831.305 748.347 C 776.32 774.496 711.763 776.274 654.637 756.024 C 649.045 754.057 642.648 751.176 637.115 748.832 C 669.417 626.583 612.054 532.257 496.91 487.758 C 505.996 482.23 515.624 476.729 524.926 471.564 C 622.407 417.439 718.42 359.999 815.933 306.05 z" fill="rgb(33,28,163)" transform="translate(0,0)"></path>
<path d="M 869.166 516.346 C 870.824 516.108 869.901 516.048 871.877 516.929 C 874.069 537.004 872.634 561.93 866.195 581.1 C 838.954 662.198 751.267 700.67 675.501 659.92 C 666.366 655.127 658.259 649.139 650.11 642.874 C 699.145 574.602 787.976 529.914 869.166 516.346 z" fill="rgb(255,255,255)" transform="translate(0,0)"></path>
<path d="M 1022.26 1543.73 C 1105.15 1542.52 1173.39 1608.61 1174.84 1691.5 C 1176.3 1774.38 1110.41 1842.82 1027.53 1844.51 C 944.303 1846.21 875.521 1779.99 874.064 1696.76 C 872.606 1613.53 939.029 1544.94 1022.26 1543.73 z" fill="rgb(33,28,163)" transform="translate(0,0)"></path>
<path d="M 1016.59 204 C 1099.19 199.77 1169.62 263.202 1174.03 345.791 C 1178.44 428.381 1115.16 498.953 1032.59 503.544 C 949.75 508.149 878.912 444.632 874.488 361.787 C 870.064 278.942 933.736 208.242 1016.59 204 z" fill="rgb(33,28,163)" transform="translate(0,0)"></path>
<path d="M 1611.01 1213.29 C 1693.23 1211.56 1761.31 1276.78 1763.11 1359 C 1764.91 1441.23 1699.75 1509.36 1617.53 1511.23 C 1535.2 1513.11 1466.96 1447.85 1465.16 1365.52 C 1463.36 1283.2 1528.68 1215.02 1611.01 1213.29 z" fill="rgb(33,28,163)" transform="translate(0,0)"></path>
<path d="M 416.519 1214.23 C 498.43 1204.08 572.97 1262.5 582.695 1344.46 C 592.42 1426.42 533.619 1500.66 451.607 1509.96 C 370.196 1519.19 296.623 1460.91 286.969 1379.55 C 277.316 1298.19 335.208 1224.31 416.519 1214.23 z" fill="rgb(33,28,163)" transform="translate(0,0)"></path>
<path d="M 1610.64 537.594 C 1692.53 535.534 1760.61 600.18 1762.8 682.065 C 1764.98 763.949 1700.44 832.132 1618.56 834.438 C 1536.5 836.749 1468.14 772.038 1465.95 689.979 C 1463.76 607.921 1528.58 539.658 1610.64 537.594 z" fill="rgb(33,28,163)" transform="translate(0,0)"></path>
<path d="M 418.607 538.514 C 500.336 529.605 573.745 588.811 582.345 670.574 C 590.945 752.337 531.462 825.521 449.667 833.812 C 368.308 842.059 295.599 782.962 287.045 701.635 C 278.49 620.307 337.312 547.375 418.607 538.514 z" fill="rgb(33,28,163)" transform="translate(0,0)"></path>
<metadata><recraft-signature>{"signed_by": "recraft", "signature_b64": "pNg1S4zV2dK7LmNK8F/5CgWci4RifxtGZQysAScojVTRtZaQEnxXFKIg1cftmdRl1Z8Fc2or1RPGApKY7F8vBA==", "signing_algo": "Ed25519", "generation_timestamp": 1772808323, "identifier": "4181595a-3c75-422a-b3b3-24d3f9f214b5"}</recraft-signature></metadata></svg>