<svg xmlns="http://www.w3.org/2000/svg" height="1024" preserveAspectRatio="none" style="display: block;" version="1.1" viewBox="0 0 2048 2048" width="1024">
<path d="M 0 0 L 2048 0 L 2048 2048 L 0 2048 L 0 0 z" fill="rgb(255,255,255)" transform="translate(0,0)"></path>
<path d="M 1009.38 219.386 C 1029.19 216.074 1070.79 222.804 1088.12 232.308 C 1155.12 269.041 1221.91 309.958 1287.55 348.943 L 1417.68 425.411 L 1585 523.536 L 1635.02 553.354 C 1649.26 561.766 1666.37 571.639 1679.26 581.077 C 1711.54 605.855 1736.95 651.449 1741.17 692.099 C 1744.47 723.912 1742.79 762.473 1742.76 795.231 L 1742.85 979.57 L 1742.95 1228.39 C 1743 1255.05 1742.88 1281.72 1742.61 1308.38 C 1742 1355.77 1741.73 1379.1 1717.74 1421.9 C 1693.82 1464.56 1659.94 1480.25 1619.93 1503.63 L 1539.47 1550.52 L 1347.99 1662.93 C 1278.49 1703.56 1209.57 1745.17 1139.66 1785.14 C 1100.82 1807.34 1088.27 1820.77 1041.24 1826.76 C 988.066 1831.61 966.215 1818.73 923.046 1793.32 L 868.836 1761.73 L 670.356 1644.38 L 489.71 1538.03 C 464.373 1523.54 439.154 1508.83 414.055 1493.93 C 402.564 1487.18 379.186 1474.26 369.561 1466.42 C 337.896 1440.6 314.144 1398.25 309.371 1357.63 C 307.422 1341.04 307.849 1322.69 307.869 1306.04 L 308.004 1234.95 L 308.066 1000.33 L 308.068 794.513 C 307.974 725.071 298.719 663.99 345.602 606.207 C 370.263 575.812 399.205 562.799 432.026 543.428 L 519.9 491.695 L 680.455 396.943 L 869.396 285.45 C 898.461 268.371 927.856 249.927 957.401 233.783 C 971.725 225.955 993.278 221.408 1009.38 219.386 z" fill="rgb(6,64,191)" transform="translate(0,0)"></path>
<path d="M 1017.57 347.202 C 1049.4 344.089 1083.98 372.988 1111.13 388.466 C 1174.54 425.16 1237.66 462.352 1300.49 500.039 L 1491.13 612.037 C 1525.9 632.477 1561.1 652.367 1594.95 674.121 C 1612.98 685.711 1621.54 703.84 1621.89 724.657 C 1622.25 745.49 1622.03 766.391 1622.02 787.176 L 1622.1 868.081 C 1622.11 877.161 1620.88 905.08 1624.55 911.666 C 1631.71 924.513 1639.84 937.922 1646.87 951.122 C 1661.77 979.053 1672.31 1009.1 1678.12 1040.22 C 1694.75 1130.16 1673.83 1218.34 1622.1 1293.31 C 1622.23 1312.42 1624.43 1337.25 1613.91 1353.66 C 1601.3 1373.32 1573.08 1386.69 1553.12 1398.48 C 1529.75 1412.34 1506.32 1426.07 1482.82 1439.68 L 1315.96 1538.12 L 1159.21 1630.44 C 1137.01 1643.94 1114.68 1657.22 1092.23 1670.28 C 1073.77 1681.23 1054.83 1694.95 1033.89 1699.64 C 1005.14 1704.6 974.95 1679.34 950.663 1665.32 L 811.85 1583.59 C 794.763 1573.41 777.92 1562.43 760.784 1552.41 L 557.712 1433.13 C 534.694 1419.88 511.814 1406.39 489.075 1392.66 C 430.948 1358.18 428.317 1360.87 428.912 1293.01 C 353.485 1189.16 347.043 1048.2 410.673 937.831 C 416.338 928.005 422.207 918.981 428.512 909.579 C 430.178 848.327 427.631 786.225 428.478 724.911 C 428.651 712.402 431.083 699.511 438.192 688.983 C 442.165 683.031 447.278 677.925 453.236 673.96 C 470.205 662.769 494.571 650.067 512.81 639.141 L 703.351 527.211 L 914.106 403.1 C 941.21 387.295 968.129 370.761 995.326 355.11 C 1002.96 350.717 1009.03 348.895 1017.57 347.202 z" fill="rgb(255,255,255)" transform="translate(0,0)"></path>
<path d="M 994.451 556.4 C 1004.77 555.031 1017.79 555.639 1028.24 555.562 C 1173.66 554.49 1298.68 650.149 1352.89 782.098 C 1357.84 794.136 1362.02 806.814 1366.28 819.35 C 1421.26 830.299 1471.85 857.044 1511.85 896.309 C 1566.74 949.822 1597.74 1023.2 1597.84 1099.86 C 1598.45 1239.71 1487.47 1367.07 1347.62 1380.05 C 1323.6 1382.28 1299.31 1381.83 1275.21 1381.84 L 1172.08 1381.82 L 1172.17 1263.04 L 1272.14 1262.64 C 1294.9 1262.53 1331.08 1263.33 1352.29 1258.5 C 1379.87 1252.22 1410.93 1234.02 1431.02 1214.17 C 1461.23 1184.05 1478.22 1143.16 1478.25 1100.51 C 1478.38 1039.51 1449.07 989.085 1397.46 957.462 C 1354.11 930.9 1308.58 934.13 1260.05 934.391 C 1260.47 868.452 1249.43 817.235 1207.82 763.442 C 1169.51 713.93 1114.41 684.128 1052.46 676.37 C 1044.65 675.03 1027.55 674.73 1020 674.882 C 957.75 676.426 898.71 702.851 856.085 748.251 C 806.59 799.943 789.363 864.483 790.888 934.287 C 723.655 933.961 674.477 929.737 621.493 981.505 C 590.144 1012.18 572.331 1054.09 572.003 1097.95 C 571.5 1158.87 605.884 1214.36 659.019 1242.99 C 700.44 1265.31 740.396 1262.09 785.381 1262.01 L 878.754 1261.91 C 878.207 1302.84 877.715 1340.85 878.769 1381.96 L 778.878 1381.86 C 696.517 1381.74 636.588 1380.2 566.919 1327.14 C 438.33 1229.21 413.978 1054.39 511.637 926.144 C 547.919 879.301 597.739 844.761 654.331 827.213 C 662.27 824.747 675.944 820.74 683.895 819.644 C 687.633 808.336 690.591 797.344 694.81 786.008 C 709.076 748.746 729.234 714.017 754.515 683.148 C 814.082 610.214 900.632 564.494 994.451 556.4 z" fill="rgb(6,64,191)" transform="translate(0,0)"></path>
<path d="M 1024.91 841.751 C 1027.45 843.858 1038.27 856.967 1040.91 860.124 L 1080.18 907.88 C 1123 958.62 1165.51 1009.62 1207.71 1060.87 L 1087.64 1061 C 1085.91 1094.06 1087.46 1139.95 1087.56 1173.82 L 1087.76 1375.39 L 1026.5 1375.56 C 1005.19 1375.8 983.887 1375.7 962.585 1375.26 L 961.97 1061.1 L 841.117 1060.89 L 1024.91 841.751 z" fill="rgb(6,64,191)" transform="translate(0,0)"></path>
<path d="M 849.844 1447.98 C 965.365 1447.66 1086.46 1446.87 1201.67 1448.57 C 1201.98 1489.63 1201.92 1530.7 1201.5 1571.77 C 1193.73 1572.48 1175.28 1572.02 1166.7 1572.04 L 1095.01 1572.12 L 850.087 1571.93 L 849.844 1447.98 z" fill="rgb(6,64,191)" transform="translate(0,0)"></path>
<metadata><recraft-signature>{"signed_by": "recraft", "signature_b64": "S2WBdRnT2ukFH5P8oIGruteX119T3WyOfk1S9JZt761XEKOKAJ0zTaV/lzZmO96gYV1kyoj0bX/BXRjWPjwbDg==", "signing_algo": "Ed25519", "generation_timestamp": 1772809219, "identifier": "b4488d9f-775a-4b61-9715-3325a3435856"}</recraft-signature></metadata></svg>