<svg xmlns="http://www.w3.org/2000/svg" height="1024" preserveAspectRatio="none" style="display: block;" version="1.1" viewBox="0 0 2048 2048" width="1024">
<path d="M 0 0 L 2048 0 L 2048 2048 L 0 2048 L 0 0 z" fill="rgb(255,255,255)" transform="translate(0,0)"></path>
<path d="M 737.414 686.853 C 785.494 713.093 831.328 742.32 879.903 769.042 L 880.082 873.809 C 880.126 893.472 879.711 917.675 880.792 937.147 C 871.924 944.138 842.479 960.676 830.681 967.41 C 800.504 984.634 768.637 1004.6 738.475 1021.33 C 696.942 994.831 652.946 972.009 610.987 946.138 C 606.147 943.154 600.935 939.902 595.966 937.233 L 595.909 1104.66 L 683.84 1053.5 C 700.227 1043.82 721.429 1030.38 737.719 1021.71 C 771.062 1041.85 804.613 1061.63 838.369 1081.07 C 851.861 1088.85 866.437 1098.09 879.959 1105.18 L 879.912 1191.27 L 735.812 1191.29 L 735.742 1274.06 C 735.712 1283.26 735.037 1307.85 735.844 1315.88 C 736.902 1324.2 736.549 1347.86 736.1 1356.67 L 846.171 1421.45 C 857.414 1428.02 870.32 1434.72 881.131 1441.31 L 881.147 1273.58 L 1024.27 1189.83 C 1072.97 1218.8 1122.01 1247.2 1171.37 1275.03 C 1171.76 1329.75 1171.73 1384.48 1171.26 1439.2 L 1089.46 1487.37 C 1067.67 1499.97 1045.88 1511.51 1024.29 1524.68 L 1131.54 1587.41 C 1144.08 1594.69 1159.69 1604.62 1172.17 1611.29 C 1172.48 1556.45 1173.43 1494.77 1172.07 1440.2 C 1193.31 1428.66 1213.39 1416.1 1234.16 1403.78 L 1311.96 1358.15 L 1314 1357.98 C 1343.73 1376.88 1378.06 1394.82 1408.34 1413.55 C 1415.05 1417.7 1451.15 1438.85 1457.05 1441.03 C 1456.44 1461.93 1457.48 1483.06 1455.66 1503.87 C 1450.16 1566.78 1411.24 1626.54 1357.95 1659.73 C 1340.15 1670.82 1321.88 1681.22 1303.5 1691.23 C 1261.44 1664.17 1213.24 1640.2 1171.56 1613.04 C 1170.05 1663.42 1171.27 1719.81 1171.2 1770.69 L 1115.96 1802.18 C 1098.76 1812.18 1063.41 1834.19 1046.68 1839.02 C 1033.39 1842.86 1019.32 1843.05 1005.93 1839.56 C 999.752 1837.92 993.755 1835.64 988.039 1832.77 C 972.562 1825.13 950.872 1811.37 935.217 1802.54 C 922.847 1795.57 891.417 1778.69 881.168 1770.69 C 880.948 1734.77 880.931 1698.85 881.116 1662.92 C 881.148 1648.07 881.945 1624.01 881.047 1609.73 L 879.552 1608.15 C 869.49 1615.42 850.498 1626.08 839.142 1632.87 C 807.548 1651.63 775.691 1669.94 743.581 1687.8 C 695.745 1660.71 643.108 1631.01 596.36 1602.72 C 595.023 1550.11 596.106 1493.78 595.812 1440.7 C 564.122 1457.77 533.297 1477.85 501.527 1495.01 C 486.461 1503.15 470.134 1512.26 455.885 1521.52 C 434.352 1507.97 412.33 1496.17 390.46 1483.39 C 374.752 1474.2 353.542 1464.01 340.979 1451.31 C 309.117 1419.09 312.839 1381.26 312.809 1340.23 L 312.801 1269.44 L 450.853 1189.57 C 469.629 1199.38 487.457 1210.9 505.844 1221.24 C 536.495 1238.47 566.109 1255.88 596.001 1274.39 L 595.785 1105.08 C 579.283 1113.42 557.926 1126.78 541.6 1136.24 L 452.125 1187.44 C 422.194 1168.96 388.588 1151.14 358.288 1132.83 C 343.75 1124.04 326.735 1115.7 312.973 1106.14 L 312.805 933.038 C 323.678 926.031 338.525 917.924 350.038 911.128 L 449.979 853.098 L 452.006 852.998 C 497.922 881.753 548.257 909.415 595.137 936.886 C 595.347 881.401 594.77 824.744 595.47 769.4 C 642.685 742.291 690.282 713.42 737.414 686.853 z" fill="rgb(8,165,66)" transform="translate(0,0)"></path>
<path d="M 881.438 1440.97 C 928.96 1468.57 976.326 1496.43 1023.53 1524.57 L 931.215 1578.59 C 918.253 1586.13 895.333 1600.42 882.752 1606.23 L 881.342 1605.47 C 880.445 1585.71 881.057 1561.97 881.087 1541.79 L 881.438 1440.97 z" fill="rgb(255,255,255)" transform="translate(0,0)"></path>
<path d="M 596.16 1273.85 C 634.89 1298.74 676.493 1320.53 715.973 1344.3 C 721.812 1347.81 727.811 1350.89 733.372 1354.86 L 732.832 1357.9 C 687.606 1385.2 642.095 1412.03 596.308 1438.37 C 597.445 1385.08 596.228 1327.42 596.16 1273.85 z" fill="rgb(255,255,255)" transform="translate(0,0)"></path>
<path d="M 735.844 1315.88 C 736.902 1324.2 736.549 1347.86 736.1 1356.67 L 732.832 1357.9 L 733.372 1354.86 C 736.911 1351.97 734.946 1324.26 735.844 1315.88 z" fill="rgb(231,245,235)" transform="translate(0,0)"></path>
<path d="M 881.342 1605.47 L 882.752 1606.23 C 881.877 1607.83 881.737 1608.08 881.047 1609.73 L 879.552 1608.15 C 880.204 1607.3 880.765 1606.37 881.342 1605.47 z" fill="rgb(164,229,190)" transform="translate(0,0)"></path>
<path d="M 881.162 276.356 C 902.839 264.111 924.449 251.749 945.993 239.271 C 977.236 221.175 1008.7 196.311 1048 209.818 C 1076.83 219.725 1103.93 242.271 1131.59 255.876 C 1144.12 262.499 1160.06 271.354 1170.95 278.632 L 1171.06 432.644 C 1214.96 409.992 1259.03 380.156 1303.98 356.477 C 1340.34 376.903 1376.6 397.514 1412.76 418.309 C 1426.77 426.351 1442.53 434.486 1455.99 442.729 C 1456.13 477.449 1456.08 512.171 1455.84 546.891 C 1455.76 563.95 1455.13 584.22 1455.69 600.932 L 1311.93 684.484 C 1270.57 657.974 1221.94 633.08 1180.05 606.724 C 1201.96 550.839 1205.77 513.636 1181.94 455.185 C 1179.17 448.389 1174.85 439.815 1170.32 434.041 C 1131.33 458.912 1089.66 481.07 1049.93 504.86 C 1041.99 509.613 1033.61 514.638 1025.39 518.858 C 1072.99 546.163 1123.49 576.392 1171.27 602.477 L 1171.07 766.59 C 1127.8 793.624 1071.41 827.438 1026.63 851.309 C 993.141 830.711 957.645 812.126 923.88 791.752 C 910.206 783.501 894.923 775.21 881.824 766.105 C 881.314 729.153 881.075 692.198 881.106 655.242 C 881.099 640.332 880.434 617.637 881.325 603.415 L 881.727 602.309 L 879.991 601.217 C 878.365 574.788 880.389 537.186 879.862 509.804 C 879.555 493.844 879.207 449.157 880.92 435.218 C 881.121 383.347 882.15 327.905 881.162 276.356 z" fill="rgb(8,165,66)" transform="translate(0,0)"></path>
<path d="M 880.92 435.218 C 891.306 439.371 911.882 452.875 922.532 458.617 C 957.063 477.233 991.234 499.809 1025.21 518.661 C 999.67 532.202 974.56 547.973 949.488 562.568 C 927.626 575.293 902.775 588.511 881.727 602.309 L 879.991 601.217 C 878.365 574.788 880.389 537.186 879.862 509.804 C 879.555 493.844 879.207 449.157 880.92 435.218 z" fill="rgb(255,255,255)" transform="translate(0,0)"></path>
<path d="M 1311.09 686.63 C 1359.45 713.498 1407.96 741.995 1456.02 769.725 L 1455.88 934.704 C 1455.4 937.442 1454.75 938.203 1452.15 939.783 C 1406.11 967.755 1358.97 994.014 1312.83 1021.8 C 1273.97 997.799 1234.49 975.469 1195.02 952.533 C 1187.13 947.95 1179.24 943.497 1171.19 939.202 L 1171.38 1103.84 C 1129.09 1123.8 1087.49 1153.87 1045.76 1175.65 C 1039.06 1179.14 1031.27 1183.59 1024.96 1187.61 L 880.994 1103.51 C 881.011 1049.84 882.329 990.334 880.792 937.147 C 927.102 909.334 979.983 881.669 1025.18 853.183 C 1070.79 878.044 1126.92 911.386 1171.32 939.405 L 1171.24 767.858 C 1186.56 759.92 1203.12 750.257 1217.9 741.207 C 1248.33 722.562 1281.06 705.627 1311.09 686.63 z" fill="rgb(8,165,66)" transform="translate(0,0)"></path>
<path d="M 1312.82 1021.36 C 1334.51 1035.82 1363.22 1051.78 1386 1065.19 C 1407.54 1077.86 1434.49 1094.6 1456.22 1105.87 C 1455.75 1159.86 1454.76 1218.04 1455.87 1271.84 C 1422.52 1293.18 1384.44 1312.66 1350.57 1333.67 C 1342.27 1338.81 1321.1 1349.25 1314.88 1354.99 L 1311.49 1355.49 C 1301.51 1348.14 1285.41 1340 1274.36 1334.1 C 1239.58 1315.5 1206.4 1293.6 1171.91 1274.66 L 1172.32 1168.76 C 1172.38 1147.78 1172.86 1124.89 1172 1104.12 C 1212.7 1081.65 1252.53 1057.04 1292.77 1033.76 C 1299.56 1029.83 1306.24 1025.64 1312.82 1021.36 z" fill="rgb(8,165,66)" transform="translate(0,0)"></path>
<path d="M 1600.07 1188.98 C 1629.06 1206.03 1658.16 1222.88 1687.37 1239.55 C 1704.58 1249.52 1721.7 1260.15 1739.01 1269.85 C 1738.78 1292.44 1738.7 1315.03 1738.77 1337.63 C 1738.77 1379.36 1742.72 1417.91 1710.18 1450.98 C 1699.49 1461.85 1672.98 1475.36 1658.84 1483.51 L 1593.2 1521.39 L 1503.43 1468.44 C 1495.52 1463.71 1463.79 1443.95 1457.05 1441.03 C 1458.26 1399.69 1457.02 1357.96 1457.4 1316.58 C 1457.55 1301.58 1457.41 1286.36 1457 1271.37 C 1486.01 1254.96 1514.67 1237.79 1543.33 1220.76 C 1561.09 1210.21 1580.3 1200.48 1597.48 1189.21 L 1600.07 1188.98 z" fill="rgb(8,165,66)" transform="translate(0,0)"></path>
<path d="M 744.542 356.755 L 841.331 413.106 C 852.818 419.651 869.592 430.162 880.92 435.218 C 879.207 449.157 879.555 493.844 879.862 509.804 C 880.389 537.186 878.365 574.788 879.991 601.217 L 881.727 602.309 L 881.325 603.415 L 878.525 603.589 C 831.871 630.12 785.505 659.78 738.006 684.623 C 712.586 668.468 681.278 652.073 654.868 635.992 C 642.166 628.257 607.46 607.404 595.551 601.944 C 594.423 594.816 595.159 559.586 595.209 550.995 L 595.834 442.078 C 646.471 414.661 694.566 384.746 744.542 356.755 z" fill="rgb(8,165,66)" transform="translate(0,0)"></path>
<path d="M 879.991 601.217 L 881.727 602.309 L 881.325 603.415 L 878.525 603.589 L 879.991 601.217 z" fill="rgb(231,245,235)" transform="translate(0,0)"></path>
<path d="M 459.346 523.624 C 498.786 547.294 539.612 569.145 579.123 592.766 C 584.409 595.926 590.015 599.255 595.551 601.944 C 596.27 612.743 596.19 624.737 596.054 635.625 C 595.518 678.6 596.832 722.015 595.853 764.941 C 562.466 786.415 527.67 804.92 493.74 825.402 C 484.451 831.009 460.112 844.322 452.903 850.044 L 449.118 849.983 C 444.267 845.819 414.347 829.451 407.027 825.172 C 375.375 806.666 342.913 788.781 311.771 769.341 L 311.83 706.207 C 311.811 684.57 309.99 658.733 315.833 638.458 C 329.107 592.397 355.582 583.348 392.273 561.944 C 414.458 548.871 436.817 536.096 459.346 523.624 z" fill="rgb(8,165,66)" transform="translate(0,0)"></path>
<path d="M 1600.71 852.23 L 1682.68 900.35 C 1703.22 912.224 1718.72 920.192 1739.14 933.242 C 1739.12 945.827 1739.15 958.436 1738.96 971.017 C 1737.77 1049.19 1694.64 1120.26 1632.89 1166.14 C 1623.47 1173.14 1611.15 1179.69 1600.95 1185.81 L 1600.07 1188.98 L 1597.48 1189.21 L 1597.52 1187.09 C 1585.28 1181.55 1558.49 1164.75 1545.71 1157.17 L 1456.56 1105.31 C 1457.18 1051.08 1457.78 990.422 1456.66 936.298 C 1470.86 927.49 1487.5 918.475 1502.1 909.899 C 1534.85 890.468 1567.72 871.245 1600.71 852.23 z" fill="rgb(8,165,66)" transform="translate(0,0)"></path>
<path d="M 1600.95 1185.81 L 1600.07 1188.98 L 1597.48 1189.21 L 1597.52 1187.09 C 1598.66 1186.65 1599.8 1186.23 1600.95 1185.81 z" fill="rgb(231,245,235)" transform="translate(0,0)"></path>
<path d="M 1589.24 524.724 C 1594.61 524.788 1649.43 558.405 1659.49 563.326 C 1733.95 599.776 1739.02 628.217 1738.79 705.966 L 1738.8 771.716 C 1733.69 774.485 1728.05 777.833 1723.08 780.916 C 1684.56 804.786 1644.41 826.145 1605.5 849.211 C 1602.76 850.593 1601.19 850.913 1598.42 850.015 C 1595.09 845.729 1596.84 779.825 1596.9 770.112 C 1551.16 769.131 1503.38 770.484 1457.05 769.916 C 1458.35 716.322 1457.57 655.013 1457.04 601.203 C 1500.89 577.068 1545.82 549.907 1589.24 524.724 z" fill="rgb(8,165,66)" transform="translate(0,0)"></path>
<path d="M 449.118 849.983 L 452.903 850.044 L 452.006 852.998 L 449.979 853.098 L 449.118 849.983 z" fill="rgb(231,245,235)" transform="translate(0,0)"></path>
<path d="M 1314.88 1354.99 L 1314 1357.98 L 1311.96 1358.15 L 1311.49 1355.49 L 1314.88 1354.99 z" fill="rgb(231,245,235)" transform="translate(0,0)"></path>
<metadata><recraft-signature>{"signed_by": "recraft", "signature_b64": "e9v3dYeYBFrV1NVnFsDzarX+J/ZZU4BotY8y5TsN+p5BYgufU7RjEbCbTbuSY7mRjo8OX52x17JMS1JLUx1UBw==", "signing_algo": "Ed25519", "generation_timestamp": 1772808557, "identifier": "d5527b9b-2bb2-4d0b-a8b7-dc059fd82b77"}</recraft-signature></metadata></svg>