<svg xmlns="http://www.w3.org/2000/svg" height="1024" preserveAspectRatio="none" style="display: block;" version="1.1" viewBox="0 0 2048 2048" width="1024">
<path d="M 0 0 L 2048 0 L 2048 2048 L 0 2048 L 0 0 z" fill="rgb(255,255,255)" transform="translate(0,0)"></path>
<path d="M 289.947 660.34 L 289.907 582.216 C 289.964 562.178 289.439 537.547 292.412 518.119 C 299.989 468.598 324.473 417.547 358.639 381.136 C 376.073 362.723 395.768 346.591 417.253 333.124 C 496.493 283.455 570.061 297.859 659.119 295.019 C 759.723 295.006 850.052 333.73 921.175 404.879 C 981.357 464.149 1018.84 542.652 1027.09 626.716 C 1029.48 619.006 1029.37 609.105 1030.77 600.974 C 1044.34 522.096 1081.05 454.211 1138.35 398.611 C 1194.02 344.708 1265.35 309.847 1342.09 299.041 C 1367.21 295.564 1395.22 294.918 1420.51 295.263 C 1452.03 295.12 1500.42 293.734 1530.53 296.694 C 1589.96 302.489 1645.48 328.913 1687.46 371.379 C 1727.57 411.325 1755.49 463.407 1762 520.017 C 1763.76 535.259 1763.28 553.521 1763.26 569.124 L 1763.14 660.666 C 1762.04 761.808 1720.93 852.958 1649.02 923.637 C 1602.25 969.702 1543.83 1002.18 1480.02 1017.6 C 1468.15 1020.37 1451.27 1024 1439.32 1023.81 L 1444.14 1026.21 C 1454.12 1026.13 1475.2 1031.83 1485.24 1034.53 C 1548.98 1051.69 1605.25 1086.53 1652.21 1132.79 C 1721.95 1200.19 1761.83 1292.69 1762.98 1389.67 C 1762.99 1391.16 1762.99 1392.66 1762.97 1394.15 L 1763.12 1467.11 C 1763.15 1486.31 1763.61 1506.05 1761.52 1525.11 C 1754.99 1583.37 1728.91 1637.7 1687.54 1679.25 C 1667.61 1698.97 1644.94 1715.7 1620.22 1728.91 C 1548.94 1766.53 1498.95 1758.86 1422.2 1759.77 C 1397.07 1760.07 1372.53 1759.5 1347.52 1756.3 C 1265.78 1745.83 1189.87 1708.4 1131.8 1649.94 C 1084.16 1602.24 1051.56 1545.6 1034.97 1480.3 C 1032.01 1468.68 1026.91 1447.97 1026.78 1436.68 L 1025.82 1435.67 C 1024.88 1437.39 1017.28 1477.22 1015.7 1483.47 C 1010.13 1505.54 1002.26 1526.95 992.214 1547.37 C 947.026 1640.1 866.078 1710.46 767.967 1742.3 C 713.749 1760.45 663.29 1759.99 606.86 1759.49 C 572.468 1759.18 535.96 1761.23 502.107 1754.66 C 412.469 1737.27 330.971 1665.2 302.98 1578.44 C 296.76 1558.54 292.572 1538.06 290.481 1517.32 C 286.258 1475.21 289.866 1422.74 289.491 1379.86 C 289.043 1328.66 305.752 1270.81 329.084 1225.37 C 374.343 1138.59 451.739 1072.94 544.742 1042.45 C 556.791 1038.48 568.417 1035.24 580.759 1032.37 C 591.737 1029.81 606.779 1028.95 617.015 1025.34 C 536.445 1016.06 461.142 980.608 402.658 924.417 C 330.882 855.284 290.212 759.996 289.947 660.34 z" fill="rgb(30,15,95)" transform="translate(0,0)"></path>
<path d="M 1027.09 626.716 C 1029.48 619.006 1029.37 609.105 1030.77 600.974 C 1044.34 522.096 1081.05 454.211 1138.35 398.611 C 1194.02 344.708 1265.35 309.847 1342.09 299.041 C 1367.21 295.564 1395.22 294.918 1420.51 295.263 C 1452.03 295.12 1500.42 293.734 1530.53 296.694 C 1589.96 302.489 1645.48 328.913 1687.46 371.379 C 1727.57 411.325 1755.49 463.407 1762 520.017 C 1763.76 535.259 1763.28 553.521 1763.26 569.124 L 1763.14 660.666 C 1762.04 761.808 1720.93 852.958 1649.02 923.637 C 1602.25 969.702 1543.83 1002.18 1480.02 1017.6 C 1468.15 1020.37 1451.27 1024 1439.32 1023.81 L 1444.14 1026.21 C 1454.12 1026.13 1475.2 1031.83 1485.24 1034.53 C 1548.98 1051.69 1605.25 1086.53 1652.21 1132.79 C 1721.95 1200.19 1761.83 1292.69 1762.98 1389.67 C 1762.99 1391.16 1762.99 1392.66 1762.97 1394.15 L 1663.28 1393.99 C 1664.27 1321.35 1635.95 1251.37 1584.71 1199.87 C 1533.47 1148.36 1463.64 1119.68 1390.99 1120.3 C 1392.29 1090.16 1391.53 1055.87 1391.5 1025.41 C 1377.74 1025.39 1363.8 1026.77 1350.1 1026.72 C 1346.45 1024.72 1329.25 1022.43 1323.7 1021.38 C 1265.34 1010.33 1211.51 985.795 1164.5 948.688 C 1088.04 889.372 1038.43 801.991 1026.66 705.941 L 1025.28 705.182 C 1024.98 682.717 1026.49 649.891 1027.09 626.716 z" fill="rgb(255,255,255)" transform="translate(0,0)"></path>
<path d="M 1027.09 626.716 C 1029.48 619.006 1029.37 609.105 1030.77 600.974 C 1044.34 522.096 1081.05 454.211 1138.35 398.611 C 1194.02 344.708 1265.35 309.847 1342.09 299.041 C 1367.21 295.564 1395.22 294.918 1420.51 295.263 C 1411.21 295.832 1403.09 295.797 1393.81 295.737 C 1393.61 328.259 1393.65 360.781 1393.95 393.302 C 1149.99 395.459 1027.49 685.505 1205.66 856.35 C 1255.42 904.064 1327.68 933.491 1397.3 931.955 C 1470.13 930.614 1539.47 900.462 1590.13 848.103 C 1645.03 790.609 1666.98 725.369 1665.26 646.476 C 1665.81 651.545 1666.05 654.983 1666.12 660.077 C 1698.23 660.305 1731.1 660.908 1763.14 660.666 C 1762.04 761.808 1720.93 852.958 1649.02 923.637 C 1602.25 969.702 1543.83 1002.18 1480.02 1017.6 C 1468.15 1020.37 1451.27 1024 1439.32 1023.81 L 1444.14 1026.21 C 1454.12 1026.13 1475.2 1031.83 1485.24 1034.53 C 1548.98 1051.69 1605.25 1086.53 1652.21 1132.79 C 1721.95 1200.19 1761.83 1292.69 1762.98 1389.67 C 1762.99 1391.16 1762.99 1392.66 1762.97 1394.15 L 1663.28 1393.99 C 1664.27 1321.35 1635.95 1251.37 1584.71 1199.87 C 1533.47 1148.36 1463.64 1119.68 1390.99 1120.3 C 1392.29 1090.16 1391.53 1055.87 1391.5 1025.41 C 1377.74 1025.39 1363.8 1026.77 1350.1 1026.72 C 1346.45 1024.72 1329.25 1022.43 1323.7 1021.38 C 1265.34 1010.33 1211.51 985.795 1164.5 948.688 C 1088.04 889.372 1038.43 801.991 1026.66 705.941 L 1025.28 705.182 C 1024.98 682.717 1026.49 649.891 1027.09 626.716 z" fill="rgb(49,79,243)" transform="translate(0,0)"></path>
<path d="M 1444.14 1026.21 C 1443.28 1026.19 1433.79 1026.09 1434.44 1024.3 C 1435.31 1023.62 1438.29 1023.82 1439.32 1023.81 L 1444.14 1026.21 z" fill="rgb(120,143,237)" transform="translate(0,0)"></path>
<path d="M 1420.51 295.263 C 1452.03 295.12 1500.42 293.734 1530.53 296.694 C 1589.96 302.489 1645.48 328.913 1687.46 371.379 C 1727.57 411.325 1755.49 463.407 1762 520.017 C 1763.76 535.259 1763.28 553.521 1763.26 569.124 L 1763.14 660.666 C 1731.1 660.908 1698.23 660.305 1666.12 660.077 C 1666.05 654.983 1665.81 651.545 1665.26 646.476 C 1661.93 587.056 1638.65 530.496 1599.18 485.95 C 1559.58 442.007 1511.42 412.159 1452.93 399.454 C 1433.83 395.305 1413.44 394.349 1393.95 393.302 C 1393.65 360.781 1393.61 328.259 1393.81 295.737 C 1403.09 295.797 1411.21 295.832 1420.51 295.263 z" fill="rgb(30,15,95)" transform="translate(0,0)"></path>
<path d="M 1380.07 461.574 C 1491.1 454.388 1586.97 538.502 1594.28 649.526 C 1601.6 760.551 1517.6 856.517 1406.58 863.964 C 1295.38 871.424 1199.22 787.253 1191.89 676.043 C 1184.56 564.833 1268.85 468.771 1380.07 461.574 z" fill="rgb(30,15,95)" transform="translate(0,0)"></path>
<path d="M 1380.01 554.957 C 1439.24 547.701 1493.21 589.659 1500.79 648.855 C 1508.36 708.051 1466.69 762.245 1407.54 770.136 C 1347.93 778.086 1293.24 736.031 1285.6 676.385 C 1277.97 616.738 1320.32 562.268 1380.01 554.957 z" fill="rgb(255,255,255)" transform="translate(0,0)"></path>
<path d="M 617.015 1025.34 C 630.893 1025.5 645.017 1026.45 658.938 1026.79 L 659.099 1119.08 C 806.793 1119.13 927.263 1237.41 930.024 1385.08 C 930.682 1389.19 930.383 1392.17 932.851 1394.67 C 941.625 1395.93 956.286 1395.27 965.607 1395.13 C 985.162 1394.82 1004.71 1394.39 1024.26 1393.83 L 1026.78 1436.68 L 1025.82 1435.67 C 1024.88 1437.39 1017.28 1477.22 1015.7 1483.47 C 1010.13 1505.54 1002.26 1526.95 992.214 1547.37 C 947.026 1640.1 866.078 1710.46 767.967 1742.3 C 713.749 1760.45 663.29 1759.99 606.86 1759.49 C 572.468 1759.18 535.96 1761.23 502.107 1754.66 C 412.469 1737.27 330.971 1665.2 302.98 1578.44 C 296.76 1558.54 292.572 1538.06 290.481 1517.32 C 286.258 1475.21 289.866 1422.74 289.491 1379.86 C 289.043 1328.66 305.752 1270.81 329.084 1225.37 C 374.343 1138.59 451.739 1072.94 544.742 1042.45 C 556.791 1038.48 568.417 1035.24 580.759 1032.37 C 591.737 1029.81 606.779 1028.95 617.015 1025.34 z" fill="rgb(255,255,255)" transform="translate(0,0)"></path>
<path d="M 617.015 1025.34 C 630.893 1025.5 645.017 1026.45 658.938 1026.79 L 659.099 1119.08 C 508.72 1119.03 387.041 1241.4 387.943 1391.78 C 388.845 1542.15 511.985 1663.05 662.352 1661.19 C 812.719 1659.34 932.835 1535.43 930.024 1385.08 C 930.682 1389.19 930.383 1392.17 932.851 1394.67 C 941.625 1395.93 956.286 1395.27 965.607 1395.13 C 985.162 1394.82 1004.71 1394.39 1024.26 1393.83 L 1026.78 1436.68 L 1025.82 1435.67 C 1024.88 1437.39 1017.28 1477.22 1015.7 1483.47 C 1010.13 1505.54 1002.26 1526.95 992.214 1547.37 C 947.026 1640.1 866.078 1710.46 767.967 1742.3 C 713.749 1760.45 663.29 1759.99 606.86 1759.49 C 572.468 1759.18 535.96 1761.23 502.107 1754.66 C 412.469 1737.27 330.971 1665.2 302.98 1578.44 C 296.76 1558.54 292.572 1538.06 290.481 1517.32 C 286.258 1475.21 289.866 1422.74 289.491 1379.86 C 289.043 1328.66 305.752 1270.81 329.084 1225.37 C 374.343 1138.59 451.739 1072.94 544.742 1042.45 C 556.791 1038.48 568.417 1035.24 580.759 1032.37 C 591.737 1029.81 606.779 1028.95 617.015 1025.34 z" fill="rgb(49,79,243)" transform="translate(0,0)"></path>
<path d="M 646.47 1186.86 C 757.913 1179.95 853.792 1264.83 860.447 1376.29 C 867.103 1487.75 782.006 1583.44 670.534 1589.84 C 559.416 1596.22 464.099 1511.46 457.465 1400.35 C 450.831 1289.25 535.382 1193.74 646.47 1186.86 z" fill="rgb(30,15,95)" transform="translate(0,0)"></path>
<path d="M 646.372 1280.07 C 705.77 1273.01 759.683 1315.35 766.897 1374.73 C 774.111 1434.11 731.904 1488.13 672.541 1495.49 C 612.97 1502.87 558.722 1460.49 551.483 1400.9 C 544.244 1341.31 586.765 1287.17 646.372 1280.07 z" fill="rgb(255,255,255)" transform="translate(0,0)"></path>
<path d="M 289.947 660.34 L 289.907 582.216 C 289.964 562.178 289.439 537.547 292.412 518.119 C 299.989 468.598 324.473 417.547 358.639 381.136 C 376.073 362.723 395.768 346.591 417.253 333.124 C 496.493 283.455 570.061 297.859 659.119 295.019 C 659.155 325.606 658.471 361.084 660.006 391.22 C 809.686 391.863 930.504 513.725 929.859 663.405 C 929.215 813.085 807.352 933.902 657.672 933.256 C 507.992 932.61 387.176 810.745 387.824 661.065 C 360.916 659.016 318.538 660.588 289.947 660.34 z" fill="rgb(255,255,255)" transform="translate(0,0)"></path>
<path d="M 289.947 660.34 L 289.907 582.216 C 289.964 562.178 289.439 537.547 292.412 518.119 C 299.989 468.598 324.473 417.547 358.639 381.136 C 376.073 362.723 395.768 346.591 417.253 333.124 C 496.493 283.455 570.061 297.859 659.119 295.019 C 659.155 325.606 658.471 361.084 660.006 391.22 C 510.33 390.577 388.471 511.39 387.824 661.065 C 360.916 659.016 318.538 660.588 289.947 660.34 z" fill="rgb(49,79,243)" transform="translate(0,0)"></path>
<path d="M 647.366 461.772 C 758.395 455.094 853.815 539.687 860.494 650.715 C 867.172 761.744 782.579 857.165 671.55 863.843 C 560.521 870.522 465.101 785.929 458.422 674.9 C 451.744 563.871 536.337 468.45 647.366 461.772 z" fill="rgb(49,79,243)" transform="translate(0,0)"></path>
<path d="M 645.151 555.034 C 704.685 547.139 759.336 589.029 767.181 648.57 C 775.026 708.11 733.09 762.726 673.542 770.52 C 614.067 778.305 559.53 736.43 551.695 676.961 C 543.86 617.492 585.688 562.92 645.151 555.034 z" fill="rgb(255,255,255)" transform="translate(0,0)"></path>
<path d="M 1390.99 1120.3 C 1463.64 1119.68 1533.47 1148.36 1584.71 1199.87 C 1635.95 1251.37 1664.27 1321.35 1663.28 1393.99 C 1661.24 1542.32 1539.93 1661.23 1391.6 1660.3 C 1243.26 1659.37 1123.45 1538.94 1123.28 1390.6 C 1123.12 1242.26 1242.65 1121.56 1390.99 1120.3 z" fill="rgb(255,255,255)" transform="translate(0,0)"></path>
<path d="M 1377.3 1187.55 C 1488.56 1179.01 1585.69 1262.25 1594.29 1373.5 C 1602.9 1484.75 1519.73 1581.93 1408.49 1590.61 C 1297.14 1599.3 1199.84 1516.04 1191.23 1404.68 C 1182.61 1293.33 1265.94 1196.09 1377.3 1187.55 z" fill="rgb(49,79,243)" transform="translate(0,0)"></path>
<path d="M 1376.49 1281.34 C 1435.97 1272.27 1491.5 1313.25 1500.38 1372.76 C 1509.25 1432.27 1468.09 1487.66 1408.55 1496.34 C 1349.29 1504.97 1294.2 1464.05 1285.37 1404.81 C 1276.54 1345.58 1317.29 1290.36 1376.49 1281.34 z" fill="rgb(255,255,255)" transform="translate(0,0)"></path>
<path d="M 1025.28 705.182 L 1026.66 705.941 C 1038.43 801.991 1088.04 889.372 1164.5 948.688 C 1211.51 985.795 1265.34 1010.33 1323.7 1021.38 C 1329.25 1022.43 1346.45 1024.72 1350.1 1026.72 C 1336.51 1027.35 1317.03 1031.71 1303.69 1035.27 C 1233.4 1054.44 1170.03 1093.25 1121 1147.15 C 1080.07 1191.46 1050.2 1244.83 1033.86 1302.9 C 1031.92 1310.07 1027.36 1328.81 1027.1 1336.05 L 1024.08 1336.68 C 1024.55 1332.74 1022.41 1320.44 1021.51 1316.18 C 1003.57 1231.2 952.951 1154.83 884.92 1101.41 C 831.935 1059.81 776.405 1039.35 710.851 1026.73 L 709.331 1025.15 C 721.888 1024.08 744.632 1018.81 756.701 1015.35 C 809.968 1000.62 859.249 974.12 900.906 937.803 C 956.632 889.337 996.67 825.379 1015.92 754.078 C 1019.91 739.335 1024.26 720.328 1025.28 705.182 z" fill="rgb(255,255,255)" transform="translate(0,0)"></path>
<path d="M 1027.1 1336.05 C 1026.93 1337.37 1026.72 1340.62 1025.57 1341.54 C 1024.84 1341.14 1024.76 1339.5 1024.62 1338.87 C 1024.44 1338.14 1024.27 1337.41 1024.08 1336.68 L 1027.1 1336.05 z" fill="rgb(157,145,200)" transform="translate(0,0)"></path>
<path d="M 707.275 1027.33 C 706.324 1027.24 700.2 1027.22 699.803 1025.76 C 700.158 1024.98 703.029 1024.49 703.588 1024.36 C 704.832 1025.33 706.061 1026.32 707.275 1027.33 z" fill="rgb(83,69,150)" transform="translate(0,0)"></path>
<path d="M 703.588 1024.36 C 705.909 1024.82 706.973 1025.07 709.331 1025.15 L 710.851 1026.73 C 709.621 1026.95 708.518 1027.16 707.275 1027.33 C 706.061 1026.32 704.832 1025.33 703.588 1024.36 z" fill="rgb(157,145,200)" transform="translate(0,0)"></path>
<path d="M 290.391 896.596 C 293.188 898.685 308.89 921.151 312.439 925.785 C 343.43 966.259 380.738 996.833 421.934 1026.34 C 393.438 1047.18 374.691 1061.58 349.679 1086.17 C 326.299 1110.13 309.988 1131.99 290.711 1159.39 C 289.33 1072.48 290.907 983.791 290.391 896.596 z" fill="rgb(49,79,243)" transform="translate(0,0)"></path>
<path d="M 1025.54 1628.53 C 1028.52 1631.08 1038.56 1645.35 1041.68 1649.57 C 1048.34 1658.77 1055.36 1667.71 1062.72 1676.37 C 1093.56 1712.45 1121.7 1732.55 1159.62 1759.42 C 1116.08 1758.62 1071.04 1759.29 1027.38 1759.5 L 891.106 1759.69 C 948.531 1726.26 987.827 1681.76 1025.54 1628.53 z" fill="rgb(49,79,243)" transform="translate(0,0)"></path>
<path d="M 1760.46 896.725 C 1761.26 901.47 1761.05 918.057 1761.05 923.337 L 1760.94 974.992 L 1761.17 1157.81 C 1745 1132.43 1722.59 1106.4 1701.45 1085 C 1678.92 1061.88 1654.86 1044.5 1628.72 1025.98 C 1670.32 999.846 1707.12 966.745 1737.5 928.129 C 1745.42 918.132 1752.85 907.077 1760.46 896.725 z" fill="rgb(49,79,243)" transform="translate(0,0)"></path>
<path d="M 892.929 295.547 C 974.118 295.824 1056.43 294.432 1137.43 296.211 C 1142.92 296.07 1152.72 295.464 1157.72 296.543 L 1157.38 297.727 L 1153.34 299.663 C 1102.44 330.567 1060.02 377.581 1026.18 426.01 C 990.737 372.491 947.881 329.378 892.929 295.547 z" fill="rgb(49,79,243)" transform="translate(0,0)"></path>
<metadata><recraft-signature>{"signed_by": "recraft", "signature_b64": "uhW/h7knO2/kF7L0tUdcljXQpvuDtlK8siibTnHvGsaA/vD3rMJ46CalPU7hNdCXfJXB3qMuTTN6sIstD6dYAQ==", "signing_algo": "Ed25519", "generation_timestamp": 1772807301, "identifier": "9a04dcdd-372b-4a9a-8b96-efeec750809c"}</recraft-signature></metadata></svg>