<svg xmlns="http://www.w3.org/2000/svg" height="1024" preserveAspectRatio="none" style="display: block;" version="1.1" viewBox="0 0 2048 2048" width="1024">
<path d="M 0 0 L 2048 0 L 2048 2048 L 0 2048 L 0 0 z" fill="rgb(255,255,255)" transform="translate(0,0)"></path>
<path d="M 566.863 285.448 C 595.832 284.821 626.532 285.311 655.611 285.284 L 828.797 285.292 L 1225.59 285.258 L 1407.6 285.242 C 1442.11 285.179 1497.53 283.406 1530.48 289.146 C 1584.71 298.46 1635.15 323.051 1675.89 360.033 C 1731.53 410.268 1764.74 480.685 1768.13 555.572 C 1769.5 580.71 1768.97 608.562 1768.98 633.934 L 1769.11 752.79 L 1769.05 1141.93 L 1769 1381.53 C 1768.96 1426.24 1771.16 1484.66 1764.68 1527.8 C 1757.36 1576.55 1730.88 1635.08 1697.06 1670.97 C 1637.31 1734.37 1573.27 1761.82 1487.66 1765.93 L 834.253 1766 L 643.815 1766.05 C 606.48 1766.06 551.607 1768 516.475 1761.57 C 462.28 1752.05 412.05 1726.89 371.972 1689.19 C 318.113 1638.4 286.277 1568.55 283.28 1494.58 C 282.438 1471.62 283.048 1445.04 283.063 1421.73 L 283.151 1289.31 L 283.122 883.959 L 283.098 662.291 C 283.114 614.763 280.612 558.495 288.406 512.74 C 296.13 467.396 325.654 409.9 358.019 376.682 C 417.1 316.043 483.236 288.013 566.863 285.448 z" fill="rgb(35,28,130)" transform="translate(0,0)"></path>
<path d="M 1065.87 747.628 C 1070.18 577.336 1227.33 486.249 1376.52 461.084 C 1406.82 455.972 1437.8 453.836 1468.49 453.206 L 1468.71 1306.72 C 1333.21 1309.14 1132.89 1384.16 1069.97 1513.28 L 1066.71 1510.66 C 1066.41 1446.62 1080.56 1395.83 1120.48 1344.73 C 1183.2 1264.42 1280.7 1223.28 1379.8 1211.05 L 1379.98 588.499 C 1263.69 592.97 1113.47 659.665 1067.34 772.829 C 1066.88 775.447 1066.96 775.497 1065.49 777.554 C 1064.4 774.844 1065.34 751.341 1065.87 747.628 z" fill="rgb(255,255,255)" transform="translate(0,0)"></path>
<path d="M 1067.34 772.829 C 1066.88 775.447 1066.96 775.497 1065.49 777.554 C 1064.4 774.844 1065.34 751.341 1065.87 747.628 C 1066.4 754.374 1065.13 768.561 1067.34 772.829 z" fill="rgb(187,176,220)" transform="translate(0,0)"></path>
<path d="M 582.349 453.35 C 609.569 454.347 639.118 455.728 666.047 460.036 C 755.459 474.34 845.012 508.885 909.767 574.084 C 946.278 610.845 973.948 664.796 981.252 715.989 C 983.929 734.759 984.044 750.281 984.035 768.939 C 983.308 770.46 982.972 770.592 981.648 771.978 C 938.982 655.267 785.351 594.904 669.979 588.949 L 669.759 1211.48 C 688.525 1212.79 706.725 1216.61 724.985 1220.78 C 845.017 1248.2 963.926 1336.64 981.047 1465.66 C 983.379 1483.23 983.252 1501.27 983.468 1519.13 C 969.893 1493.4 952.829 1469.66 932.759 1448.6 C 849.824 1361.3 700.846 1310.06 582.211 1306.92 L 582.349 453.35 z" fill="rgb(255,255,255)" transform="translate(0,0)"></path>
<path d="M 1549.35 623.163 C 1567.61 634.061 1600.54 651.154 1616.06 663 L 1616.28 1215.87 L 1616.41 1409.26 C 1616.45 1444.29 1617.03 1480.89 1616.35 1515.83 C 1478.36 1461.32 1332.12 1474.66 1196.83 1532.2 C 1180.61 1539.1 1143.05 1557.74 1129.54 1567.38 L 1128.48 1564.79 C 1239.71 1453.84 1390.28 1391.35 1547.38 1390.96 C 1548.26 1390.95 1549.14 1390.96 1550.02 1390.97 L 1549.94 920.86 C 1550.29 821.627 1550.09 722.394 1549.35 623.163 z" fill="rgb(255,255,255)" transform="translate(0,0)"></path>
<path d="M 500.039 623.215 C 502.171 626.518 500.917 1308.27 500.891 1391.13 C 673.254 1395.7 809.291 1451.18 930.875 1573.34 C 905.603 1558.59 887.779 1548.23 861.249 1535.41 C 857.129 1533.34 852.957 1531.38 848.735 1529.53 C 717.861 1470.49 568.925 1465.7 434.53 1516.22 C 433.904 1472.48 434.679 1427.24 434.665 1383.44 C 434.187 1285.27 434.206 1187.1 434.72 1088.93 C 434.022 946.629 434.05 804.324 434.806 662.022 L 500.039 623.215 z" fill="rgb(255,255,255)" transform="translate(0,0)"></path>
<path d="M 1075.11 1008.66 C 1074.97 1000.9 1074.77 992.996 1075.16 985.25 C 1079.68 893.248 1153.32 813.101 1247.03 807.598 L 1247.05 904.8 C 1185.14 912.795 1136.84 934.273 1097.44 984.874 C 1088.68 996.121 1082.55 1006.56 1077.28 1019.8 C 1076.88 1021.73 1076.91 1022.35 1075.63 1023.59 L 1075.43 1023.48 C 1074.63 1021.94 1075.04 1011.09 1075.11 1008.66 z" fill="rgb(255,255,255)" transform="translate(0,0)"></path>
<path d="M 1075.11 1008.66 C 1075.74 1012.65 1075.45 1016.33 1077.28 1019.8 C 1076.88 1021.73 1076.91 1022.35 1075.63 1023.59 L 1075.43 1023.48 C 1074.63 1021.94 1075.04 1011.09 1075.11 1008.66 z" fill="rgb(243,239,252)" transform="translate(0,0)"></path>
<path d="M 802.28 807.496 C 846.518 810.748 888.138 829.698 919.638 860.929 C 961.678 903.137 975.155 953.026 974.878 1010.82 C 974.832 1009.75 975.781 1029.19 973.413 1022.06 C 969.192 1008.16 961.622 994.033 952.371 982.885 C 910.776 932.758 864.77 911.954 802.04 904.779 L 802.28 807.496 z" fill="rgb(255,255,255)" transform="translate(0,0)"></path>
<path d="M 974.878 1010.82 C 974.832 1009.75 975.781 1029.19 973.413 1022.06 C 973.867 1018.31 974.268 1014.54 974.878 1010.82 z" fill="rgb(187,176,220)" transform="translate(0,0)"></path>
<path d="M 1066.71 1510.66 L 1069.97 1513.28 C 1069.6 1514.14 1068.15 1519.04 1066.82 1518.35 C 1066.13 1517.28 1066.67 1512.19 1066.71 1510.66 z" fill="rgb(243,239,252)" transform="translate(0,0)"></path>
<path d="M 1128.48 1564.79 L 1129.54 1567.38 C 1120.74 1573.62 1122.06 1570.6 1128.48 1564.79 z" fill="rgb(243,239,252)" transform="translate(0,0)"></path>
<path d="M 984.035 768.939 C 984.052 770.256 984.341 775.254 983.647 776.433 L 983.513 776.506 C 982.436 775.432 982.033 773.426 981.648 771.978 C 982.972 770.592 983.308 770.46 984.035 768.939 z" fill="rgb(243,239,252)" transform="translate(0,0)"></path>
<metadata><recraft-signature>{"signed_by": "recraft", "signature_b64": "za8jk4tw9TLtAQreTCVTP1tLMkCL2rSqnBQqD4CovpXEyN3L/B063CGi4gbQqvHjuToWGdWiRQsMjOMFTNndDg==", "signing_algo": "Ed25519", "generation_timestamp": 1772807649, "identifier": "d68fd017-e53e-47af-aab3-80f93a332c7e"}</recraft-signature></metadata></svg>