<svg xmlns="http://www.w3.org/2000/svg" height="1024" preserveAspectRatio="none" style="display: block;" version="1.1" viewBox="0 0 2048 2048" width="1024">
<path d="M 0 0 L 2048 0 L 2048 2048 L 0 2048 L 0 0 z" fill="rgb(255,254,255)" transform="translate(0,0)"></path>
<path d="M 621.098 292.415 C 638.441 291.047 663.238 291.629 681.13 291.637 L 779.512 291.768 L 1078.09 291.777 L 1332.19 291.661 L 1411.48 291.742 C 1439.61 291.885 1464.08 291.678 1492.03 296.529 C 1637.7 321.722 1755.53 450.972 1770.17 597.605 C 1773.88 634.754 1772.09 677.146 1772.02 714.842 L 1772.05 917.232 L 1772.06 1270.4 C 1771.96 1300.05 1772.01 1329.7 1772.21 1359.34 C 1772.59 1396.71 1773.78 1432.9 1767.36 1469.64 C 1747.24 1584.9 1666.67 1684.47 1559.53 1730.68 C 1523.63 1746.16 1489.27 1754.58 1450.25 1758.82 C 1426.75 1760.48 1403.14 1760.07 1379.58 1760.09 L 1282.22 1760.12 L 978.441 1760.23 L 744.299 1760.11 C 694.565 1760.07 633.14 1762.89 585.217 1754.41 C 527.437 1744.19 466.284 1715.71 421.754 1677.48 C 350.063 1617.15 305.555 1530.59 298.193 1437.18 C 296.549 1415.36 297.134 1392.7 297.254 1370.74 L 297.643 1278.49 L 297.602 994.02 L 297.224 739.876 C 297.186 688.891 294.439 616.843 303.457 568.946 C 314.853 511.037 341.104 457.085 379.635 412.379 C 442.144 339.864 525.933 299.393 621.098 292.415 z" fill="rgb(40,35,125)" transform="translate(0,0)"></path>
<path d="M 1028.01 1289.07 C 940.232 1288.33 868.958 1262.28 808.205 1199 C 649.266 1033.47 747.673 754.36 974.16 722.41 C 1006.16 717.895 1039.44 720.849 1071.71 719.206 C 1111.59 719.816 1174.7 749.529 1207.66 771.928 C 1228.23 786.166 1247.33 802.417 1264.68 820.439 C 1275.74 832.049 1286.59 846.498 1296.22 859.381 C 1296.28 836.325 1296.22 813.268 1296.04 790.213 C 1270.96 758.679 1255.8 746.864 1222.39 724.685 C 1261 723.624 1305.49 723.271 1344.21 724.276 L 1344.09 1195.36 L 1344.17 1312.9 C 1344.46 1360.6 1346.99 1408.9 1336.37 1455.62 C 1322.83 1516.72 1292.32 1572.76 1248.35 1617.29 C 1189.55 1676.2 1112.68 1712.96 1028.6 1713.03 L 1026.96 1713.03 C 1026.84 1708.27 1026.85 1702.49 1026.57 1697.83 C 1027.35 1690.6 1027.57 1673.84 1026.66 1666.98 C 1112.67 1660.83 1177.51 1634.36 1234.38 1567.57 C 1285.83 1507.16 1297.45 1450.65 1296.96 1374.62 C 1247.03 1448.53 1169.5 1499.29 1081.79 1515.51 C 1063.76 1518.93 1044.27 1520.51 1025.87 1521.06 L 1025.87 1477.25 C 894.289 1480.38 770.772 1386.8 738.587 1258.56 C 732.556 1234.53 731.056 1209.73 730.55 1185.05 C 730.485 1181.96 730.441 1178.87 730.418 1175.79 C 773.002 1247.59 850.443 1306.22 931.486 1326.41 C 962.601 1334.16 993.315 1337.56 1025.24 1338.07 L 1025.04 1475.32 C 1153.28 1471.93 1258.32 1389.21 1295.85 1266.67 C 1297.16 1262.39 1296.53 1245.01 1296.49 1239.7 C 1296.32 1224 1296.26 1208.31 1296.31 1192.62 C 1287.91 1203.21 1276.89 1217.74 1267.9 1227.36 C 1215.72 1283.98 1145.12 1320.22 1068.7 1329.62 C 1055.14 1331.12 1041.51 1331.92 1027.87 1332.03 L 1028.01 1289.07 z" fill="rgb(255,254,255)" transform="translate(0,0)"></path>
<path d="M 1028.07 762.93 C 1100.03 762.393 1169.33 790.117 1221.07 840.14 C 1269.85 887.807 1297.97 952.726 1299.36 1020.92 C 1300.31 1093.29 1271.25 1155.82 1221.26 1207.11 C 1166.1 1260.07 1103.07 1281.45 1028.06 1284.36 C 1029.24 1110.55 1029.24 936.739 1028.07 762.93 z" fill="rgb(40,35,125)" transform="translate(0,0)"></path>
<path d="M 620.359 723.5 C 633.559 721.937 666.63 722.789 681.117 722.825 L 681.559 1041.14 L 681.283 1151.26 C 681.185 1193.3 680.151 1244.06 690.677 1285.17 C 610.735 1288.5 547.895 1281.65 479.774 1234.85 C 473.665 1230.35 467.364 1225.82 461.477 1221.04 C 403.509 1174.48 366.828 1106.47 359.773 1032.45 C 352.214 958.307 374.459 884.197 421.602 826.469 C 472.749 764.669 541.078 730.804 620.359 723.5 z" fill="rgb(255,254,255)" transform="translate(0,0)"></path>
<path d="M 1394.01 724.063 C 1401.13 723.946 1408.24 723.876 1415.36 723.854 C 1428.93 723.793 1441.68 723.607 1455.21 724.953 C 1521.09 731.647 1582.64 760.846 1629.51 807.629 C 1743.78 921.683 1739.8 1091.55 1626.66 1204.71 C 1626.08 1205.3 1625.5 1205.89 1624.91 1206.47 C 1579.54 1250.27 1521.29 1278.32 1458.75 1286.48 C 1435.96 1289.33 1417.03 1289.11 1394.15 1288.72 L 1394.01 724.063 z" fill="rgb(255,254,255)" transform="translate(0,0)"></path>
<path d="M 1031.1 341.735 C 1039.4 341.821 1047.69 342.27 1055.94 343.079 C 1141.16 351.534 1219.46 393.682 1273.45 460.152 C 1314.34 510.037 1338.7 571.414 1343.13 635.766 C 1343.94 646.5 1344.89 664.508 1343.81 675.019 L 1031 675.141 L 1031.1 341.735 z" fill="rgb(255,254,255)" transform="translate(0,0)"></path>
<path d="M 1225.14 354.993 C 1239.87 354.065 1263.17 354.775 1278.3 354.754 L 1378.7 354.534 C 1398.9 354.569 1422.19 354.194 1442 356.237 C 1509.18 362.846 1571.98 392.555 1619.7 440.296 C 1664.64 485.54 1694.13 544.354 1701.29 608 C 1703.88 630.992 1703.08 662.703 1702.99 686.349 C 1701.75 685.167 1702.21 685.748 1701.28 684.253 C 1690.2 666.55 1677.34 650.03 1662.89 634.952 C 1606.84 576.593 1540.55 541.404 1460.01 528.699 C 1433.76 524.558 1394.46 525.605 1366.55 525.036 C 1330.16 448.3 1296.88 403.945 1225.14 354.993 z" fill="rgb(255,254,255)" transform="translate(0,0)"></path>
<path d="M 363.236 1343.74 C 365.63 1345.9 381.46 1373.02 385.062 1378.38 C 407.252 1411.02 435.076 1439.45 467.232 1462.34 C 503.067 1487.64 543.645 1505.45 586.53 1514.68 C 614.74 1520.97 644.766 1522.9 673.613 1523.21 C 706.158 1523.57 701.87 1520.66 715.23 1549.22 C 722.738 1565.12 731.508 1580.39 741.456 1594.89 C 771.629 1638.47 794.562 1658.64 837.919 1689 C 828.009 1689.9 797.558 1689.03 785.943 1689.05 L 674.553 1689.17 C 654.902 1689.14 638.626 1689.1 619.004 1686.72 C 553.162 1678.94 491.925 1649 445.359 1601.8 C 403.469 1559.48 371.572 1497.78 365.51 1438.74 C 362.645 1410.85 362.986 1372.34 363.236 1343.74 z" fill="rgb(255,254,255)" transform="translate(0,0)"></path>
<path d="M 1702.56 1357.87 C 1703.92 1359.91 1703.58 1364.58 1703.52 1367.43 C 1703.01 1394.7 1704.23 1423.11 1699.92 1450.08 C 1690.46 1509.29 1661.87 1562.75 1619.25 1604.68 C 1574.46 1648.75 1515.13 1678.56 1452.73 1686.28 C 1422.52 1690.02 1389.69 1689.03 1359.28 1689.03 L 1239.24 1689.06 L 1238.48 1688.21 C 1241.23 1684.41 1253.67 1675.8 1258.29 1672.12 C 1265.08 1666.63 1271.67 1660.89 1278.02 1654.9 C 1320.6 1614.81 1344.53 1574.03 1367.56 1521.6 C 1411.48 1521.75 1447.89 1523.29 1491.19 1513.05 C 1579.38 1491.27 1655.37 1435.49 1702.56 1357.87 z" fill="rgb(255,254,255)" transform="translate(0,0)"></path>
<path d="M 729.846 1390.43 C 729.859 1390.57 727.019 1345.42 732.418 1361.98 C 781.739 1439.6 859.829 1494.49 949.561 1514.61 C 974.667 1519.96 1000.25 1522.74 1025.92 1522.91 C 1025.88 1544.95 1026.01 1567.24 1025.7 1589.26 C 1025.85 1599.4 1024.9 1663.75 1026.66 1666.98 C 1027.57 1673.84 1027.35 1690.6 1026.57 1697.83 L 1026.09 1697.25 C 1003.04 1695.75 980.193 1693.93 957.6 1688.76 C 823.225 1658.03 722.42 1529.6 729.846 1390.43 z" fill="rgb(255,254,255)" transform="translate(0,0)"></path>
<path d="M 1026.09 1697.25 C 1024.61 1687.15 1023.54 1592.83 1025.7 1589.26 C 1025.85 1599.4 1024.9 1663.75 1026.66 1666.98 C 1027.57 1673.84 1027.35 1690.6 1026.57 1697.83 L 1026.09 1697.25 z" fill="rgb(231,230,237)" transform="translate(0,0)"></path>
<path d="M 729.846 1390.43 C 729.859 1390.57 727.019 1345.42 732.418 1361.98 C 728.499 1366.07 731.13 1380.75 729.846 1390.43 z" fill="rgb(231,230,237)" transform="translate(0,0)"></path>
<path d="M 1703.56 1184.75 C 1704.67 1195.06 1702.2 1215.54 1700.7 1225.75 C 1691.86 1287.46 1663.31 1344.65 1619.33 1388.82 C 1573.33 1434.33 1513.49 1463.23 1449.24 1470.94 C 1427.88 1473.49 1405.66 1473.11 1384.09 1473.23 C 1383.53 1468.94 1385.58 1458.33 1386.61 1453.87 C 1395.41 1415.6 1394.08 1377.96 1394.02 1338.87 C 1433.45 1337.35 1454.91 1341.32 1496.23 1331.76 C 1586.24 1310.93 1654.41 1262.16 1703.56 1184.75 z" fill="rgb(255,254,255)" transform="translate(0,0)"></path>
<path d="M 1381.84 572.042 C 1406.95 571.927 1433.38 570.94 1458.09 575.068 C 1505.35 582.964 1548.76 601.477 1587.4 629.539 C 1650.25 675.143 1692.22 744.012 1703.95 820.774 C 1654.04 740.727 1553.81 685.571 1461.12 676.847 C 1439.85 674.845 1415.59 675.768 1394.06 675.975 C 1394.21 635.699 1390.64 611.007 1381.84 572.042 z" fill="rgb(255,254,255)" transform="translate(0,0)"></path>
<path d="M 730.973 723.426 L 834.7 724.413 C 815.261 737.573 793.118 757.388 776.773 774.101 C 757.915 793.848 745.355 810.279 731.007 833.373 L 730.973 723.426 z" fill="rgb(255,254,255)" transform="translate(0,0)"></path>
<metadata><recraft-signature>{"signed_by": "recraft", "signature_b64": "aTK6AOiFsJ6enwyCc6YTSdVmp/taOxTQpLll/D6glZiwiRIGcv1nInpVQvNH5pnMod0msBEa8qFb80mfwstrDg==", "signing_algo": "Ed25519", "generation_timestamp": 1772807672, "identifier": "b38a1168-db80-41d5-b7fb-2fede8a7c500"}</recraft-signature></metadata></svg>