<svg xmlns="http://www.w3.org/2000/svg" height="1024" preserveAspectRatio="none" style="display: block;" version="1.1" viewBox="0 0 2048 2048" width="1024">
<path d="M 0 0 L 2048 0 L 2048 2048 L 0 2048 L 0 0 z" fill="rgb(255,255,255)" transform="translate(0,0)"></path>
<path d="M 576.099 281.407 C 608.996 279.771 648.311 280.8 681.823 280.851 L 854.797 280.756 L 1432.52 280.852 C 1456.95 280.86 1477.8 280.77 1502.14 284.505 C 1567.16 294.481 1629.39 324.145 1675.78 370.889 C 1729.23 423.905 1762.03 494.235 1768.29 569.255 C 1770.38 591.972 1769.71 621.424 1769.61 644.599 C 1662.44 643.738 1555.27 643.593 1448.1 644.162 L 1448.07 448.067 L 1444.05 448.038 L 939.641 448.234 L 794.624 448.332 C 757.433 448.386 719.938 446.412 683.517 453.297 C 629.589 463.491 577.946 487.65 538.749 526.657 C 502.164 563.21 476.826 609.486 465.739 660 C 456.768 699.369 459.125 731.69 459.097 771.528 L 459.005 875.136 L 458.792 1255.34 C 458.822 1275.68 458.668 1295.86 459.433 1316.18 C 464.316 1445.94 575.908 1546.45 703.222 1551.15 C 721.146 1551.81 739.608 1551.28 757.592 1551.24 L 846.952 1551.13 L 1156.64 1551.11 C 1156.08 1623.77 1155.99 1696.43 1156.35 1769.09 L 756.454 1769.3 L 650.071 1769.26 C 608.127 1769.31 572.6 1771.04 530.983 1762.49 C 479.31 1751.87 431.17 1728.34 391.059 1694.07 C 327.772 1639.62 288.848 1566.24 281.184 1482.34 C 279.205 1460.68 280.319 1430.85 280.4 1408.27 L 280.555 1295.79 L 280.321 934.102 L 280.375 696.972 C 280.294 651.154 277.449 582.577 285.098 539.279 C 295.284 483.251 320.289 430.974 357.515 387.88 C 413.48 323.379 491.42 287.575 576.099 281.407 z" fill="rgb(24,13,171)" transform="translate(0,0)"></path>
<path d="M 1593 907.809 L 1769.46 907.627 C 1770.54 942.507 1769.32 984.777 1769.28 1020.34 L 1769.2 1251.98 L 1769.29 1396.5 C 1769.36 1424.09 1770.95 1459.15 1768.16 1485.93 C 1764.86 1519.63 1755.96 1552.54 1741.83 1583.31 C 1704.88 1662.41 1643.26 1719.31 1561.24 1749.03 C 1500.15 1771.22 1464.92 1769.4 1401.62 1769.03 L 1401.2 1545.36 C 1449.79 1531.76 1489.28 1516.07 1526.25 1478.95 C 1556.63 1448.92 1577.9 1410.92 1587.63 1369.32 C 1594.4 1339.77 1592.98 1309.49 1593 1279.26 L 1592.99 1194.29 L 1593 907.809 z" fill="rgb(24,13,171)" transform="translate(0,0)"></path>
<path d="M 892.25 1158.48 C 911.997 1157.25 940.489 1157.97 960.634 1157.94 L 1088.83 1157.76 L 1510.99 1157.8 L 1511.03 1262.49 C 1511.04 1347.77 1516.15 1400.58 1432.36 1449.06 C 1391.05 1469.96 1357.99 1466.73 1313.54 1466.82 L 1207.32 1466.95 L 891.13 1467.8 C 897.426 1458.19 904.201 1449.43 910.525 1439.37 C 924.18 1417.5 934.824 1393.9 942.169 1369.19 C 958.317 1315.09 950.765 1251.39 922.155 1202.83 C 917.011 1193.92 911.443 1185.26 905.469 1176.88 C 902.278 1172.48 893.966 1162.7 892.25 1158.48 z" fill="rgb(24,13,171)" transform="translate(0,0)"></path>
<path d="M 1357.23 1235.47 C 1400.9 1230.2 1440.56 1261.38 1445.74 1305.06 C 1450.93 1348.74 1419.67 1388.34 1375.97 1393.44 C 1332.4 1398.52 1292.94 1367.37 1287.78 1323.81 C 1282.61 1280.25 1313.68 1240.72 1357.23 1235.47 z" fill="rgb(255,255,255)" transform="translate(0,0)"></path>
<path d="M 730.161 531.438 C 799.577 530.418 871.133 531.298 940.679 531.253 L 1365.46 530.963 C 1366.89 564.65 1365.55 610.614 1365.36 644.759 C 1326.73 642.918 1276.84 644.058 1237.64 644.304 L 1056.73 644.942 L 1039 686.237 L 978.395 826.05 L 539.865 826.085 C 539.397 801.894 539.179 777.698 539.209 753.502 C 539.086 686.31 543.279 646.952 591.347 593.435 C 628.278 552.317 675.575 533.765 730.161 531.438 z" fill="rgb(24,13,171)" transform="translate(0,0)"></path>
<path d="M 718.213 600.048 C 762.13 597.353 799.953 630.689 802.795 674.597 C 805.636 718.505 772.426 756.439 728.528 759.427 C 684.423 762.429 646.271 729.028 643.415 684.913 C 640.56 640.798 674.088 602.757 718.213 600.048 z" fill="rgb(255,255,255)" transform="translate(0,0)"></path>
<path d="M 689.939 1154.86 C 778.411 1146.36 857.022 1211.19 865.535 1299.66 C 874.047 1388.13 809.237 1466.75 720.769 1475.28 C 632.277 1483.81 553.63 1418.98 545.115 1330.49 C 536.601 1241.99 601.445 1163.36 689.939 1154.86 z" fill="rgb(24,13,171)" transform="translate(0,0)"></path>
<path d="M 1111.3 726.93 L 1769.87 726.887 C 1769.99 759.947 1769.43 792.838 1769.71 826.034 L 1732.5 826.013 L 1071.62 826.288 C 1085.09 794.707 1098.59 759.014 1111.3 726.93 z" fill="rgb(24,13,171)" transform="translate(0,0)"></path>
<path d="M 1239.12 1551.29 C 1265.43 1551.69 1292.93 1551.2 1319.34 1551.12 L 1319.02 1697.11 C 1319 1720.49 1319.45 1746.33 1318.56 1769.52 C 1293.21 1770.37 1264.77 1769.74 1239.18 1769.66 L 1239.12 1551.29 z" fill="rgb(24,13,171)" transform="translate(0,0)"></path>
<metadata><recraft-signature>{"signed_by": "recraft", "signature_b64": "sVJECZFDpdPTTMJkeZNrS8BUflVhK4sFp3ivd2p+A5Qf13nlH9bO7W3X0iEAgDLKKXKL0n2EuQ/KmnRyvz3ECg==", "signing_algo": "Ed25519", "generation_timestamp": 1772807628, "identifier": "e80322f8-9abb-4d23-8941-d4eb44cd3668"}</recraft-signature></metadata></svg>