<svg xmlns="http://www.w3.org/2000/svg" height="1024" preserveAspectRatio="none" style="display: block;" version="1.1" viewBox="0 0 2048 2048" width="1024">
<path d="M 0 0 L 2048 0 L 2048 2048 L 0 2048 L 0 0 z" fill="rgb(251,251,251)" transform="translate(0,0)"></path>
<path d="M 1015.28 302.723 C 1018.61 300.798 1025.03 301.945 1029.38 301.368 C 1037.85 300.569 1047.52 297.45 1056.03 297.5 C 1102.51 297.772 1148.91 297.734 1195.38 296.834 C 1205.11 296.646 1217.49 296.251 1227.04 297.133 L 1239.75 297.663 C 1290.86 297.656 1361.61 294.59 1410.86 299.227 C 1499.84 308.127 1582.87 347.955 1645.51 411.775 C 1706.43 472.683 1746.83 555.461 1750.17 642.119 C 1751.67 680.965 1750.07 720.437 1750.73 759.345 C 1750.81 764.47 1750.5 769.883 1750.83 774.97 C 1752.24 791.459 1751.06 813.128 1750.55 829.949 C 1750.07 847.399 1749.88 864.854 1749.98 882.31 C 1749.96 975.754 1747.83 1069.16 1749.69 1162.56 C 1750.1 1183.34 1749.42 1205.02 1750.31 1225.65 C 1750.35 1226.91 1750.36 1228.18 1750.36 1229.44 C 1750.29 1231.16 1750.19 1232.88 1750.07 1234.6 L 1750.21 1340.03 C 1750.26 1368.18 1751.16 1393.57 1748.05 1421.68 C 1737.97 1505.21 1700.22 1582.97 1640.81 1642.55 C 1579.36 1703.19 1499.03 1741 1413.14 1749.75 C 1384.45 1752.69 1352.53 1751.93 1323.5 1751.86 L 1263.5 1751.7 C 1256.88 1751.69 1238.89 1751.34 1232.92 1752.08 C 1187.12 1752.51 1141.19 1750.6 1095.38 1751.07 C 1076.59 1751.27 1060.31 1751.58 1041.68 1748.7 L 1045.97 1748.44 C 1040.54 1747.72 1021.65 1747.72 1019.26 1746.32 C 973.173 1745.28 938.036 1739.73 893.219 1730.73 C 768.014 1705.59 678.081 1662.72 577.614 1585.83 C 596.281 1566.8 614.056 1547.29 633.02 1528.17 C 747.307 1620.99 882.105 1662.29 1028.02 1664.46 C 1027.88 1652.61 1027.86 1640.76 1027.97 1628.91 L 1028.11 1625.09 C 1026.08 1623.97 961.927 1618.4 950.936 1616.76 C 832.493 1599.06 742.662 1559.79 648.327 1486.17 C 646.057 1487.51 647.243 1487.2 644.637 1486.78 C 633.863 1477.64 570.988 1422.53 570.035 1411.62 L 573.888 1407.96 C 566.986 1399.3 560.135 1393.03 552.311 1382.5 C 491.843 1301.73 452.149 1207.33 436.722 1107.61 C 432.635 1079.81 432.228 1051.65 430.435 1023.67 C 430.343 1023.11 430.252 1022.55 430.16 1021.99 C 427.891 1021.42 428.626 1021.68 426.602 1020.45 C 424.7 1015.83 425.706 1000.99 425.878 994.995 C 427.728 934.752 438.797 875.149 458.699 818.259 C 511.239 669.354 620.347 547.155 762.374 478.149 C 831.924 444.681 907.468 425.464 984.557 421.628 C 991.79 421.226 1016.81 419.759 1022.82 421.88 C 1027.99 425.635 1036.38 424.572 1042.93 424.915 C 1080.87 426.901 1120.34 431.838 1157.25 441.026 C 1217.12 455.452 1274.24 479.546 1326.36 512.358 C 1341.36 521.833 1365.22 540.713 1377.25 547.564 C 1387.21 542.072 1403.28 525.189 1412.55 517.424 C 1417.33 514.614 1462.39 469.162 1468.66 462.911 C 1449.48 445.385 1421.89 427.426 1399.93 413.676 C 1280.61 338.973 1155.19 303.943 1015.28 302.723 z" fill="rgb(221,222,235)" transform="translate(0,0)"></path>
<path d="M 1498.39 484.696 C 1532.21 517.732 1557.8 542.238 1587.26 579.522 C 1685.58 705.246 1740.54 859.429 1743.91 1019 C 1744.36 1059.16 1740.82 1091.77 1734.31 1131.36 C 1716.48 1244.78 1672.17 1352.4 1604.97 1445.49 C 1498.63 1593.82 1343.22 1693.76 1164.66 1730.86 C 1122.18 1739.69 1079.53 1745.91 1036.04 1746.25 L 1019.26 1746.32 C 973.173 1745.28 938.036 1739.73 893.219 1730.73 C 768.014 1705.59 678.081 1662.72 577.614 1585.83 C 596.281 1566.8 614.056 1547.29 633.02 1528.17 C 747.307 1620.99 882.105 1662.29 1028.02 1664.46 C 1073.02 1663.94 1109.33 1661.26 1153.66 1652.62 C 1273.45 1628.44 1383.68 1570.07 1470.99 1484.56 C 1593.82 1363.55 1663.1 1198.41 1663.36 1025.99 C 1660.86 865.651 1611.46 734.488 1511.16 610.194 C 1492.07 586.983 1465.22 559.572 1441.5 541.109 C 1459.56 524.926 1481.56 502.336 1498.39 484.696 z" fill="rgb(29,15,156)" transform="translate(0,0)"></path>
<path d="M 1553.43 1026.09 C 1573.62 1023.61 1601.93 1024.17 1622.13 1025.8 C 1635.95 1026.23 1649.64 1025.73 1663.36 1025.99 C 1663.1 1198.41 1593.82 1363.55 1470.99 1484.56 C 1383.68 1570.07 1273.45 1628.44 1153.66 1652.62 C 1109.33 1661.26 1073.02 1663.94 1028.02 1664.46 C 1027.88 1652.61 1027.86 1640.76 1027.97 1628.91 L 1028.11 1625.09 L 1027.96 1556.19 C 1163.34 1556.5 1293.49 1503.95 1390.7 1409.73 C 1469.48 1333.23 1522.92 1234.41 1543.79 1126.6 C 1550.25 1092.58 1552.72 1060.57 1553.43 1026.09 z" fill="rgb(29,15,156)" transform="translate(0,0)"></path>
<path d="M 1553.43 1026.09 C 1573.62 1023.61 1601.93 1024.17 1622.13 1025.8 C 1635.95 1026.23 1649.64 1025.73 1663.36 1025.99 C 1663.1 1198.41 1593.82 1363.55 1470.99 1484.56 C 1383.68 1570.07 1273.45 1628.44 1153.66 1652.62 C 1109.33 1661.26 1073.02 1663.94 1028.02 1664.46 C 1027.88 1652.61 1027.86 1640.76 1027.97 1628.91 C 1029.58 1628.95 1031.2 1628.97 1032.81 1628.98 C 1188.97 1629.79 1338.97 1568.1 1449.36 1457.65 C 1565.85 1342.19 1625.45 1190.15 1626.01 1026.96 C 1609.14 1027.03 1568.73 1028.13 1553.43 1026.09 z" fill="rgb(206,207,229)" transform="translate(0,0)"></path>
<path d="M 1028.3 495.932 C 1144.63 496.345 1243.51 533.062 1335.88 602.273 C 1354.92 585.537 1376.92 567.925 1395.09 551.42 C 1410.04 564.548 1474.39 622.193 1478.07 637.865 C 1459.84 655.85 1440.34 671.977 1421.08 688.857 C 1501.38 788.956 1542.71 892.276 1544.28 1021.62 C 1515.62 1021.77 1487.71 1020.2 1458.83 1021.97 C 1454.81 911.135 1414.77 810.854 1338.27 729.773 C 1278.82 666.533 1202.19 622.033 1117.8 601.74 C 1103.59 598.282 1076.82 592.694 1062.35 592.283 C 1050.65 591.147 1039.78 590.509 1028.07 589.892 C 1028.07 559.184 1027.51 526.477 1028.3 495.932 z" fill="rgb(29,15,156)" transform="translate(0,0)"></path>
<path d="M 430.16 1021.99 C 427.891 1021.42 428.626 1021.68 426.602 1020.45 C 424.7 1015.83 425.706 1000.99 425.878 994.995 C 427.728 934.752 438.797 875.149 458.699 818.259 C 511.239 669.354 620.347 547.155 762.374 478.149 C 831.924 444.681 907.468 425.464 984.557 421.628 C 991.79 421.226 1016.81 419.759 1022.82 421.88 C 1024.07 441.773 1023.19 472.415 1023.19 492.978 C 884.056 493.093 750.742 548.812 652.909 647.736 C 553.821 746.403 502.143 882.761 499.067 1021.51 C 482.229 1022.01 443.802 1020.38 430.16 1021.99 z" fill="rgb(29,15,156)" transform="translate(0,0)"></path>
<path d="M 1747.4 1235.54 L 1750.07 1234.6 L 1750.21 1340.03 C 1750.26 1368.18 1751.16 1393.57 1748.05 1421.68 C 1737.97 1505.21 1700.22 1582.97 1640.81 1642.55 C 1579.36 1703.19 1499.03 1741 1413.14 1749.75 C 1384.45 1752.69 1352.53 1751.93 1323.5 1751.86 L 1263.5 1751.7 C 1256.88 1751.69 1238.89 1751.34 1232.92 1752.08 C 1231.11 1751.68 1230.09 1751.34 1228.32 1750.78 C 1229.98 1748.94 1291.11 1728.25 1299.13 1725.14 C 1319.7 1717.14 1339.88 1708.19 1359.61 1698.31 C 1509.2 1623.17 1629.68 1500.59 1702.23 1349.72 C 1720.82 1311.33 1734.03 1275.78 1747.4 1235.54 z" fill="rgb(29,15,156)" transform="translate(0,0)"></path>
<path d="M 1239.75 297.663 C 1290.86 297.656 1361.61 294.59 1410.86 299.227 C 1499.84 308.127 1582.87 347.955 1645.51 411.775 C 1706.43 472.683 1746.83 555.461 1750.17 642.119 C 1751.67 680.965 1750.07 720.437 1750.73 759.345 C 1750.81 764.47 1750.5 769.883 1750.83 774.97 C 1750.16 786.132 1750.3 797.775 1750.25 808.991 L 1747.37 810.915 C 1734.38 764.733 1707.65 705.194 1685.06 663.118 C 1590.11 486.25 1427.9 359.394 1236.98 300.787 C 1232.71 299.579 1230.87 299.245 1227.04 297.133 L 1239.75 297.663 z" fill="rgb(29,15,156)" transform="translate(0,0)"></path>
<path d="M 694.998 1299.34 C 703.329 1308.3 711.662 1317.1 720.22 1325.84 C 800.691 1408.06 906.036 1453.81 1021.47 1458.12 L 1023.56 1458.19 C 1023.06 1489.79 1022.87 1521.4 1022.99 1553 C 900.644 1547.44 799.724 1516.31 702.178 1439.79 C 684.029 1456.05 666.99 1470.49 648.327 1486.17 C 646.057 1487.51 647.243 1487.2 644.637 1486.78 C 633.863 1477.64 570.988 1422.53 570.035 1411.62 L 573.888 1407.96 C 600.128 1385.15 626.156 1362.09 651.967 1338.8 C 666.708 1325.57 681.28 1313.73 694.998 1299.34 z" fill="rgb(29,15,156)" transform="translate(0,0)"></path>
<path d="M 1478.07 637.865 C 1486.78 631.855 1500.24 618.222 1511.16 610.194 C 1611.46 734.488 1660.86 865.651 1663.36 1025.99 C 1649.64 1025.73 1635.95 1026.23 1622.13 1025.8 C 1616.95 922.993 1599.74 840.762 1551.28 748.841 C 1540.3 728.014 1526.16 706.389 1512.48 687.184 C 1501.93 672.381 1490.04 657.772 1479.48 642.91 C 1477.98 640.792 1478 640.259 1478.07 637.865 z" fill="rgb(251,251,251)" transform="translate(0,0)"></path>
<path d="M 1750.25 808.991 C 1750.16 811.314 1750.03 813.635 1749.86 815.954 L 1748.71 816.252 C 1748.29 814.717 1748.06 813.751 1747.71 812.275 L 1747.37 810.915 L 1750.25 808.991 z" fill="rgb(61,45,169)" transform="translate(0,0)"></path>
<path d="M 1750.36 1229.44 C 1750.29 1231.16 1750.19 1232.88 1750.07 1234.6 L 1747.4 1235.54 L 1747.85 1231.66 L 1750.36 1229.44 z" fill="rgb(61,45,169)" transform="translate(0,0)"></path>
<path d="M 1750.31 1225.65 C 1750.35 1226.91 1750.36 1228.18 1750.36 1229.44 L 1747.85 1231.66 C 1748.46 1228.59 1748.56 1228.3 1750.31 1225.65 z" fill="rgb(135,128,192)" transform="translate(0,0)"></path>
<path d="M 1748.71 816.252 L 1749.86 815.954 L 1749.84 817.989 C 1749.83 818.404 1749.82 819.471 1749.5 819.759 C 1749.01 819.331 1748.8 816.917 1748.71 816.252 z" fill="rgb(135,128,192)" transform="translate(0,0)"></path>
<path d="M 797.222 638.208 C 877.502 595.538 933.414 580.921 1023.47 578.35 C 1023.97 589.499 1023.63 602.366 1023.78 613.718 C 1024.65 624.96 1021.77 683.055 1027.28 687.033 C 1028.9 681.018 1028.26 637.233 1028.35 627.696 L 1042.78 628.032 C 1070.93 632.497 1095.43 634.136 1123.56 642.268 C 1277.37 686.73 1398.2 819.25 1417.61 979.714 C 1419.28 993.573 1419.5 1007.86 1419.8 1021.8 C 1400.21 1021.2 1380.62 1021.02 1361.03 1021.26 C 1361.35 1078.08 1345.35 1135.32 1318.41 1185.08 C 1314.06 1193.14 1306.8 1206.7 1301.59 1213.77 C 1288.27 1202.39 1274.98 1189.62 1262.08 1177.62 C 1253.78 1169.9 1241.47 1158.98 1234.04 1150.64 C 1226.47 1161.41 1219.65 1172.73 1211.55 1183.01 C 1227 1194.13 1264.77 1228.72 1279.5 1243.08 C 1223.49 1310.39 1142.68 1352.23 1055.38 1359.13 C 1044.69 1359.99 1033.96 1360.28 1023.23 1360 C 1023.12 1379.29 1024.06 1400.31 1023.72 1419.09 C 952.829 1418.92 874.878 1395 815.299 1357.29 C 803.123 1349.58 791.07 1339.59 779.1 1331.2 C 773.822 1331.95 767.185 1321.65 763.41 1319.04 C 749.715 1309.56 738.523 1296.18 727.512 1283.53 C 671.596 1219.26 636.773 1137 631.614 1051.8 C 631.097 1043.25 633.221 1036.58 631.38 1027.27 C 624.554 1026.99 601.317 1024.39 597.149 1027.23 C 595.88 1032.32 598.121 1056.58 598.755 1063.32 C 602.577 1106.18 613.123 1148.16 630.006 1187.74 C 638.963 1209.22 652.444 1233.2 663.807 1253.71 C 667.087 1259.62 674.96 1266.56 674.865 1272.12 C 671.446 1276.08 654.199 1290.52 649.339 1294.71 C 635.986 1306.22 622.785 1319.13 609.449 1330.32 C 602.472 1331.59 586.044 1301.34 581.465 1294.18 C 542.526 1232.14 517.524 1162.37 508.19 1089.72 C 506.238 1074.96 504.757 1060.97 505.209 1046.11 C 505.37 1040.82 504.925 1032.96 503.912 1027.93 C 502.597 1027.02 488.034 1027.11 484.205 1026.81 C 489.332 1025.47 501.082 1026.02 506.797 1026.15 C 532.192 1026.11 558.062 1026.3 583.415 1025.89 C 585.659 1018.54 644.395 1026.33 650.977 1022.38 C 639.322 1020.4 596.567 1021.16 583.352 1021.62 C 583.266 931.502 601.607 871.785 642.316 792.441 C 668.098 791.792 694.114 792.306 719.982 791.846 C 723.776 791.455 727.893 791.529 731.74 791.478 C 748.472 770.358 774.593 740.939 797.127 725.639 C 796.607 708.432 796.767 690.509 796.678 673.257 C 796.624 662.887 796.232 648.118 797.222 638.208 z" fill="rgb(251,251,251)" transform="translate(0,0)"></path>
<path d="M 797.222 638.208 C 877.502 595.538 933.414 580.921 1023.47 578.35 C 1023.97 589.499 1023.63 602.366 1023.78 613.718 C 1024.65 624.96 1021.77 683.055 1027.28 687.033 C 938.041 686.096 852.077 720.632 788.287 783.051 C 782.777 788.502 777.545 794.226 772.609 800.202 C 783.117 811.47 796.398 822.833 807.995 833.112 C 817.939 841.926 829.732 852.987 840.384 860.616 L 840.698 860.845 C 833.387 870.927 824.501 880.416 817.856 890.68 C 782.457 950.599 770.522 1015.3 787.739 1083.54 C 803.522 1146.1 844.437 1202.89 900.308 1235.7 C 957.008 1269.08 1024.69 1278.47 1088.33 1261.77 C 1137.95 1248.62 1179.75 1223.88 1211.55 1183.01 C 1227 1194.13 1264.77 1228.72 1279.5 1243.08 C 1223.49 1310.39 1142.68 1352.23 1055.38 1359.13 C 1044.69 1359.99 1033.96 1360.28 1023.23 1360 C 1023.12 1379.29 1024.06 1400.31 1023.72 1419.09 C 952.829 1418.92 874.878 1395 815.299 1357.29 C 803.123 1349.58 791.07 1339.59 779.1 1331.2 C 773.822 1331.95 767.185 1321.65 763.41 1319.04 C 749.715 1309.56 738.523 1296.18 727.512 1283.53 C 671.596 1219.26 636.773 1137 631.614 1051.8 C 631.097 1043.25 633.221 1036.58 631.38 1027.27 C 624.554 1026.99 601.317 1024.39 597.149 1027.23 C 595.88 1032.32 598.121 1056.58 598.755 1063.32 C 602.577 1106.18 613.123 1148.16 630.006 1187.74 C 638.963 1209.22 652.444 1233.2 663.807 1253.71 C 667.087 1259.62 674.96 1266.56 674.865 1272.12 C 671.446 1276.08 654.199 1290.52 649.339 1294.71 C 635.986 1306.22 622.785 1319.13 609.449 1330.32 C 602.472 1331.59 586.044 1301.34 581.465 1294.18 C 542.526 1232.14 517.524 1162.37 508.19 1089.72 C 506.238 1074.96 504.757 1060.97 505.209 1046.11 C 505.37 1040.82 504.925 1032.96 503.912 1027.93 C 502.597 1027.02 488.034 1027.11 484.205 1026.81 C 489.332 1025.47 501.082 1026.02 506.797 1026.15 C 532.192 1026.11 558.062 1026.3 583.415 1025.89 C 585.659 1018.54 644.395 1026.33 650.977 1022.38 C 639.322 1020.4 596.567 1021.16 583.352 1021.62 C 583.266 931.502 601.607 871.785 642.316 792.441 C 668.098 791.792 694.114 792.306 719.982 791.846 C 723.776 791.455 727.893 791.529 731.74 791.478 C 748.472 770.358 774.593 740.939 797.127 725.639 C 796.607 708.432 796.767 690.509 796.678 673.257 C 796.624 662.887 796.232 648.118 797.222 638.208 z" fill="rgb(29,15,156)" transform="translate(0,0)"></path>
<path d="M 797.222 638.208 C 877.502 595.538 933.414 580.921 1023.47 578.35 C 1023.97 589.499 1023.63 602.366 1023.78 613.718 C 1024.65 624.96 1021.77 683.055 1027.28 687.033 C 938.041 686.096 852.077 720.632 788.287 783.051 C 782.777 788.502 777.545 794.226 772.609 800.202 C 783.117 811.47 796.398 822.833 807.995 833.112 C 817.939 841.926 829.732 852.987 840.384 860.616 L 840.698 860.845 C 833.387 870.927 824.501 880.416 817.856 890.68 C 794.658 870.131 772.275 849.653 748.552 829.683 C 709.186 887.859 686.803 956.503 689.28 1027.07 L 633.209 1026.12 C 632.799 1127.13 671.94 1224.29 742.258 1296.81 C 746.484 1301.11 778.98 1330.98 779.1 1331.2 C 773.822 1331.95 767.185 1321.65 763.41 1319.04 C 749.715 1309.56 738.523 1296.18 727.512 1283.53 C 671.596 1219.26 636.773 1137 631.614 1051.8 C 631.097 1043.25 633.221 1036.58 631.38 1027.27 C 624.554 1026.99 601.317 1024.39 597.149 1027.23 C 595.88 1032.32 598.121 1056.58 598.755 1063.32 C 602.577 1106.18 613.123 1148.16 630.006 1187.74 C 638.963 1209.22 652.444 1233.2 663.807 1253.71 C 667.087 1259.62 674.96 1266.56 674.865 1272.12 C 671.446 1276.08 654.199 1290.52 649.339 1294.71 C 635.986 1306.22 622.785 1319.13 609.449 1330.32 C 602.472 1331.59 586.044 1301.34 581.465 1294.18 C 542.526 1232.14 517.524 1162.37 508.19 1089.72 C 506.238 1074.96 504.757 1060.97 505.209 1046.11 C 505.37 1040.82 504.925 1032.96 503.912 1027.93 C 502.597 1027.02 488.034 1027.11 484.205 1026.81 C 489.332 1025.47 501.082 1026.02 506.797 1026.15 C 532.192 1026.11 558.062 1026.3 583.415 1025.89 C 585.659 1018.54 644.395 1026.33 650.977 1022.38 C 639.322 1020.4 596.567 1021.16 583.352 1021.62 C 583.266 931.502 601.607 871.785 642.316 792.441 C 668.098 791.792 694.114 792.306 719.982 791.846 C 723.776 791.455 727.893 791.529 731.74 791.478 C 748.472 770.358 774.593 740.939 797.127 725.639 C 796.607 708.432 796.767 690.509 796.678 673.257 C 796.624 662.887 796.232 648.118 797.222 638.208 z" fill="rgb(206,207,229)" transform="translate(0,0)"></path>
<path d="M 583.415 1025.89 C 588.544 1025.85 594.312 1024.02 594.71 1029.63 C 596.239 1051.14 596.975 1072.74 600.793 1094.01 C 611.75 1157.72 636.563 1218.23 673.481 1271.29 C 651.082 1290.23 629.087 1309.65 607.51 1329.53 C 600.834 1321.47 590.749 1305.44 584.932 1296.26 C 535.398 1218.08 504.342 1119.03 506.797 1026.15 C 532.192 1026.11 558.062 1026.3 583.415 1025.89 z" fill="rgb(29,15,156)" transform="translate(0,0)"></path>
<path d="M 719.982 791.846 C 724.543 791.956 725.547 791.23 728.915 793.213 C 728.788 794.747 719.367 807.337 717.236 810.739 C 705.476 829.233 694.941 848.479 685.7 868.352 C 664.157 916.928 652.36 969.26 650.977 1022.38 C 639.322 1020.4 596.567 1021.16 583.352 1021.62 C 583.266 931.502 601.607 871.785 642.316 792.441 C 668.098 791.792 694.114 792.306 719.982 791.846 z" fill="rgb(29,15,156)" transform="translate(0,0)"></path>
<path d="M 797.222 638.208 C 877.502 595.538 933.414 580.921 1023.47 578.35 C 1023.97 589.499 1023.63 602.366 1023.78 613.718 C 1023.07 625.178 1023.2 635.555 1023.28 647.017 C 933.453 653.215 871.707 670.163 798.049 724.551 C 797.635 706.776 797.503 688.995 797.653 671.216 C 797.685 662.045 798.137 646.882 797.222 638.208 z" fill="rgb(29,15,156)" transform="translate(0,0)"></path>
<path d="M 1028.35 627.696 L 1042.78 628.032 C 1070.93 632.497 1095.43 634.136 1123.56 642.268 C 1277.37 686.73 1398.2 819.25 1417.61 979.714 C 1419.28 993.573 1419.5 1007.86 1419.8 1021.8 C 1400.21 1021.2 1380.62 1021.02 1361.03 1021.26 C 1361.35 1078.08 1345.35 1135.32 1318.41 1185.08 C 1314.06 1193.14 1306.8 1206.7 1301.59 1213.77 C 1288.27 1202.39 1274.98 1189.62 1262.08 1177.62 C 1253.78 1169.9 1241.47 1158.98 1234.04 1150.64 C 1258.05 1117.01 1269.96 1059.55 1269.13 1018.44 C 1267.21 952.15 1238.94 889.357 1190.57 843.976 C 1143.61 799.341 1080.77 775.298 1016.01 777.184 C 943.762 779.494 889 809.113 840.698 860.845 L 840.384 860.616 C 829.732 852.987 817.939 841.926 807.995 833.112 C 796.398 822.833 783.117 811.47 772.609 800.202 C 777.545 794.226 782.777 788.502 788.287 783.051 C 852.077 720.632 938.041 686.096 1027.28 687.033 C 1028.9 681.018 1028.26 637.233 1028.35 627.696 z" fill="rgb(29,15,156)" transform="translate(0,0)"></path>
<path d="M 1043.99 815.959 C 1132.93 825.396 1206.07 885.402 1226.07 974.51 C 1227.98 983.03 1232.32 998.049 1230.44 1006.53 C 1204.1 1006.29 1177.76 1006.28 1151.43 1006.49 C 1119.66 1006.5 1089.62 1009.13 1065.49 984.615 C 1056.37 975.339 1049.86 963.831 1046.6 951.244 C 1042.6 935.571 1043.95 907.394 1043.92 890.053 C 1043.75 865.355 1043.78 840.657 1043.99 815.959 z" fill="rgb(29,15,156)" transform="translate(0,0)"></path>
<path d="M 1110.41 1044.21 C 1120.19 1043.06 1142.14 1043.59 1152.49 1043.6 L 1231.25 1043.72 C 1230.5 1052.45 1229.28 1061.13 1227.59 1069.72 C 1216.56 1125.25 1183.31 1169.98 1136.67 1201.11 C 1110.54 1216.96 1073.69 1228.96 1043.13 1230.23 L 1042.89 1154.36 C 1042.87 1140.93 1042.14 1118.16 1044.33 1105.85 C 1045.97 1096.4 1049.5 1087.36 1054.71 1079.3 C 1068.65 1057.66 1086.15 1049.3 1110.41 1044.21 z" fill="rgb(29,15,156)" transform="translate(0,0)"></path>
<path d="M 847.043 1043.53 C 858.749 1043.31 870.456 1043.18 882.164 1043.12 C 916.751 1042.85 959.592 1037.16 984.72 1062.88 C 1012.07 1090.87 1006.09 1125.85 1005.65 1162.37 C 1005.38 1185.26 1005.27 1208.16 1005.33 1231.05 C 996.852 1230.2 990.154 1229.27 981.758 1227.79 C 890.53 1206.77 827.741 1137.46 819.072 1043.76 L 847.043 1043.53 z" fill="rgb(29,15,156)" transform="translate(0,0)"></path>
<path d="M 999.085 816.387 C 1003.38 816.01 1001.95 815.311 1004.78 817.021 C 1006.02 822.796 1006.19 847.578 1005.68 854.785 C 1002.69 897.504 1017.95 952.135 982.432 984.686 C 956.952 1008.04 926.591 1003.94 895.2 1004.04 C 872.492 1004.12 850.556 1004.1 828.298 1003.25 C 824.851 1003.29 823.819 1003.49 820.499 1002.32 C 819.409 996.53 821.515 987.588 822.587 981.772 C 839.073 892.329 909.389 828.006 999.085 816.387 z" fill="rgb(29,15,156)" transform="translate(0,0)"></path>
<path d="M 1025.77 991.725 C 1027.9 993.831 1029.93 997.829 1031.77 1000.48 C 1039.12 1011.08 1045.56 1015.69 1055.99 1022.39 C 1042.68 1031.73 1034.35 1040.17 1025 1053.87 C 1024.22 1053.4 1013.13 1038.99 1011.54 1036.89 C 1005.49 1028.94 1002.47 1027.74 994.7 1021.71 C 1011.13 1011.76 1015.28 1007.79 1025.77 991.725 z" fill="rgb(29,15,156)" transform="translate(0,0)"></path>
<path d="M 1253.59 1319.8 C 1255.73 1322.51 1254.75 1399.14 1254.78 1410.8 C 1241.23 1419.78 1223.28 1427.05 1208.22 1433.4 C 1146.52 1459.37 1095.27 1466.69 1029.3 1467.89 C 1027.52 1465.02 1028.08 1406.92 1028.05 1399.04 C 1111.46 1399.44 1187.06 1368 1253.59 1319.8 z" fill="rgb(29,15,156)" transform="translate(0,0)"></path>
<path d="M 1398.91 1026.13 C 1421.28 1026.69 1443.65 1026.94 1466.02 1026.89 C 1466.65 1105.12 1448.43 1183.3 1408.59 1251.1 C 1401.08 1251.28 1393.29 1251.23 1385.75 1251.29 C 1364.08 1251.51 1342.42 1251.53 1320.75 1251.37 C 1375.23 1172.97 1393.51 1121.23 1398.91 1026.13 z" fill="rgb(29,15,156)" transform="translate(0,0)"></path>
<path d="M 1015.28 302.723 C 1155.19 303.943 1280.61 338.973 1399.93 413.676 C 1421.89 427.426 1449.48 445.385 1468.66 462.911 C 1462.39 469.162 1417.33 514.614 1412.55 517.424 C 1294.88 428.119 1152.5 378.167 1004.13 383.623 C 833.4 388.306 671.666 461.212 555.093 586.038 C 443.955 706.211 380.019 878.165 386.481 1041.98 C 392.625 1197.75 448.412 1339.68 552.886 1455.93 C 569.617 1474.55 584.647 1488.52 603.005 1505.4 C 593.669 1516.05 559.005 1553.14 549.459 1561.2 C 540.73 1553.71 532.222 1545.98 523.944 1538 C 392.368 1412.31 307.117 1214.18 304.794 1032.87 C 302.438 848.977 380.859 658.252 507.5 526.279 C 641.202 388.498 823.37 308.296 1015.28 302.723 z" fill="rgb(29,15,156)" transform="translate(0,0)"></path>
<path d="M 667.529 297.857 C 677.221 296.502 693.184 296.862 703.332 296.88 L 756.683 297.02 C 770.154 297.06 808.882 296.19 819.944 297.467 L 820.592 298.186 C 818.539 298.981 818.167 299.163 816.017 299.535 C 624.87 354.727 463.581 483.784 367.811 658.172 C 339.458 709.167 321.188 757.125 302.499 812.081 C 302.258 813.61 301.751 814.896 301.275 816.394 L 300.553 816.239 C 299.41 809.164 299.771 785.508 299.846 777.096 C 300.043 754.983 299.347 731.499 300.165 709.53 C 300.033 684.736 299.467 660.136 302.124 635.458 C 311.665 546.847 345.958 475.871 407.185 411.783 C 475.549 340.964 569.121 300.018 667.529 297.857 z" fill="rgb(29,15,156)" transform="translate(0,0)"></path>
<path d="M 667.529 297.857 C 677.221 296.502 693.184 296.862 703.332 296.88 L 756.683 297.02 C 770.154 297.06 808.882 296.19 819.944 297.467 L 820.592 298.186 C 818.539 298.981 818.167 299.163 816.017 299.535 C 811.316 296.699 684.219 298.209 667.529 297.857 z" fill="rgb(135,128,192)" transform="translate(0,0)"></path>
<path d="M 300.165 709.53 C 301.204 724.688 299.177 805.916 302.499 812.081 C 302.258 813.61 301.751 814.896 301.275 816.394 L 300.553 816.239 C 299.41 809.164 299.771 785.508 299.846 777.096 C 300.043 754.983 299.347 731.499 300.165 709.53 z" fill="rgb(135,128,192)" transform="translate(0,0)"></path>
<path d="M 302.773 1232.04 C 312.676 1263.77 320.262 1288.78 332.917 1319.57 C 399.114 1480.65 513.016 1608.42 667.36 1689.55 C 710.773 1712.37 765.464 1735.4 812.959 1747.67 L 813.627 1751.19 C 696.349 1749.01 591.253 1766.76 487.075 1701.02 C 455.798 1681.28 436.04 1668.96 409.112 1642.05 C 377.293 1610.67 351.74 1573.52 333.818 1532.58 C 300.438 1457.36 299.925 1416.22 300.036 1336.16 L 299.96 1236.06 L 302.773 1232.04 z" fill="rgb(29,15,156)" transform="translate(0,0)"></path>
<path d="M 299.96 1236.06 C 299.953 1234.36 299.607 1226.83 300.582 1225.89 C 301.785 1226.4 302.53 1230.93 302.773 1232.04 L 299.96 1236.06 z" fill="rgb(61,45,169)" transform="translate(0,0)"></path>
<path d="M 812.959 1747.67 C 814.587 1748.25 819.134 1749.46 820.068 1750.46 C 819.155 1751.25 814.929 1751.15 813.627 1751.19 L 812.959 1747.67 z" fill="rgb(61,45,169)" transform="translate(0,0)"></path>
<metadata><recraft-signature>{"signed_by": "recraft", "signature_b64": "qOmzoTxggB2X29UjyAYCIL20LsREW0EE2mux6SuuNpGx8YAlF17MhJgoU7y871QqEC3UflSwW0IEPBY3oYnZDQ==", "signing_algo": "Ed25519", "generation_timestamp": 1772807423, "identifier": "69a72ab6-910a-4cf4-9e3a-64c6b15acfc3"}</recraft-signature></metadata></svg>