<svg xmlns="http://www.w3.org/2000/svg" height="1024" preserveAspectRatio="none" style="display: block;" version="1.1" viewBox="0 0 2048 2048" width="1024">
<defs>
	<linearGradient gradientUnits="userSpaceOnUse" id="Gradient1" x1="932.007" x2="868.42" y1="538.531" y2="527.215">
		<stop class="stop0" offset="0" stop-color="rgb(225,225,239)" stop-opacity="1"></stop>
		<stop class="stop1" offset="1" stop-color="rgb(252,251,252)" stop-opacity="1"></stop>
	</linearGradient>
</defs>
<path d="M 0 0 L 2048 0 L 2048 2048 L 0 2048 L 0 0 z" fill="rgb(254,254,254)" transform="translate(0,0)"></path>
<path d="M 763.906 329.271 C 776.293 327.675 811.755 328.549 825.699 328.593 L 944.732 328.901 L 1154.9 328.882 C 1191.38 328.844 1228.1 328.648 1264.57 329.001 C 1270.66 329.06 1285.77 330.597 1290.8 333.362 C 1296.7 336.716 1303.41 340.3 1308.4 344.969 C 1332.79 367.831 1355.68 392.48 1379.55 415.906 C 1393.05 429.152 1402.15 437.628 1409.02 455.565 C 1424.46 455.838 1477.13 453.222 1487.52 460.635 C 1516.62 481.393 1543.93 514.672 1570.51 540.019 C 1583.45 552.358 1616.44 584.376 1624.53 598.229 C 1628.5 604.936 1631.14 612.348 1632.29 620.056 C 1634.18 632.854 1633.36 658.26 1633.34 672.297 L 1633.11 765.124 C 1651.87 784.016 1725.23 853.458 1733.38 870.847 C 1737.22 879.041 1737.79 890.685 1737.98 899.674 C 1739.54 972.323 1738.06 1045.33 1738.04 1118.02 L 1738 1204.89 C 1737.99 1223.35 1740.59 1256.68 1731.74 1272.75 C 1722.8 1288.97 1702.46 1305.46 1689.26 1318.85 C 1669.79 1338.6 1649.34 1357.57 1630.08 1377.6 C 1629.63 1409.77 1630.49 1441.96 1629.73 1474.15 C 1629.06 1502.31 1604.55 1520.25 1585.89 1538.73 C 1569.53 1554.93 1553.26 1571.23 1537.09 1587.63 C 1522.14 1602.68 1506.95 1620.9 1487.54 1630.17 C 1472.96 1637.13 1379.84 1634.05 1357.77 1634.13 C 1357.6 1679.25 1357.66 1724.37 1357.96 1769.49 C 1332.47 1769.17 1306.99 1769.07 1281.5 1769.2 C 1244.25 1769.21 1206.92 1769.73 1169.68 1769.11 C 1159.53 1768.94 1149.82 1767.95 1140.86 1762.88 C 1120.67 1751.46 1091.67 1718.21 1074.39 1700.73 C 1056.87 1683.02 1038.91 1665.67 1021.62 1647.75 C 1013.94 1639.79 1005.66 1629.75 1001.9 1619.19 C 995.691 1601.76 999.101 1521.82 999.519 1497.6 L 928.644 1427.07 L 818.101 1427.04 C 799.01 1427.03 754.221 1430.15 739.626 1420 C 721.603 1407.47 700.267 1384.41 684.242 1367.57 C 667.711 1350.2 643.023 1329.42 633.278 1307.18 C 628.75 1292.63 633.606 1250.13 634.995 1233.97 C 582.915 1232.2 529.309 1234.68 476.946 1233.51 C 442.795 1232.75 439.538 1224.59 415.504 1201.61 C 399.523 1186.32 384.601 1170.56 369.272 1154.94 L 330.713 1116.32 C 324.534 1110.01 313.801 1097.68 312.015 1088.97 C 308.597 1072.31 309.677 1053.09 309.756 1035.9 L 309.946 974.612 C 309.958 905.378 309.803 836.144 309.833 766.911 C 309.851 725.78 344.655 700.194 371.884 673.711 L 428.866 618.357 C 428.793 614.493 428.739 610.629 428.706 606.765 C 428.542 585.375 432.585 579.448 447.968 564.271 C 465.348 548.233 480.615 531.858 497.946 515.616 C 515.254 499.396 542.157 467.372 562.904 458.502 C 575.774 453 609.873 454.831 624.874 454.834 C 637.912 429.444 671.88 400.36 691.896 379.284 C 712.167 357.94 734.015 334.877 763.906 329.271 z" fill="rgb(27,25,90)" transform="translate(0,0)"></path>
<path d="M 702.834 1284.08 L 702.828 1280.96 C 703.457 1196.39 737.53 1115.52 797.603 1055.99 C 852.807 1001.95 924.644 968.122 1001.47 960.004 C 1028.3 957.196 1061.71 957.999 1089.18 957.958 L 1201.27 958.004 L 1201.26 984.909 L 1201.19 1023.63 C 1165.49 1023.87 1129.79 1023.88 1094.09 1023.65 C 1071.89 1023.6 1045.61 1022.91 1023.83 1025.39 C 956.99 1032.94 894.695 1062.95 847.148 1110.53 C 809.69 1148.72 782.492 1195.8 769.777 1247.82 C 768.283 1253.93 764.796 1267.81 765.47 1273.37 L 766.752 1274.34 C 789.604 1278.03 812.639 1282.83 835.449 1286.03 C 845.17 1235.33 860.36 1201 895.843 1163.11 C 930.313 1126.54 980.272 1102.51 1030.24 1097.32 C 1059.11 1094.33 1090.55 1096.59 1119.76 1095.99 C 1150.44 1095.99 1181.14 1095.9 1211.82 1095.82 C 1232.92 1095.76 1250.2 1074.05 1263.86 1059.19 C 1279.49 1036.07 1274.08 986.554 1273.97 957.93 L 1312.7 957.951 C 1322.24 957.996 1332.15 957.911 1341.65 958.098 C 1342.02 997.544 1342.1 1036.99 1341.88 1076.44 C 1333.58 1084.77 1324.8 1093.89 1316.33 1101.95 C 1298.02 1120.32 1275.43 1143.78 1256.33 1160.86 L 1143.14 1160.94 C 1095.35 1160.89 1050.84 1156.8 1006.39 1178.64 C 934.691 1213.86 903.817 1277.48 901.545 1354.9 L 772.203 1354.72 C 760.423 1342.56 748.509 1330.53 736.463 1318.64 C 730.968 1313.21 719.348 1302.43 714.712 1296.96 C 710.841 1293.47 706.373 1288.07 702.834 1284.08 z" fill="rgb(227,228,238)" transform="translate(0,0)"></path>
<path d="M 1263.86 1059.19 C 1267.77 1064.66 1265.84 1084.43 1265.49 1091.78 C 1258.14 1099.65 1243.58 1115.78 1235.83 1122.43 C 1115.09 1130.51 1002.39 1093.22 912.293 1201.58 C 883.192 1236.58 868.874 1273.22 862.694 1317.93 C 841.429 1318.03 809.924 1319.12 789.295 1317.54 C 783.381 1307.91 763.319 1283.31 764.884 1275.39 L 766.752 1274.34 C 789.604 1278.03 812.639 1282.83 835.449 1286.03 C 845.17 1235.33 860.36 1201 895.843 1163.11 C 930.313 1126.54 980.272 1102.51 1030.24 1097.32 C 1059.11 1094.33 1090.55 1096.59 1119.76 1095.99 C 1150.44 1095.99 1181.14 1095.9 1211.82 1095.82 C 1232.92 1095.76 1250.2 1074.05 1263.86 1059.19 z" fill="rgb(254,254,254)" transform="translate(0,0)"></path>
<path d="M 702.834 1284.08 L 702.828 1280.96 C 703.457 1196.39 737.53 1115.52 797.603 1055.99 C 852.807 1001.95 924.644 968.122 1001.47 960.004 C 1028.3 957.196 1061.71 957.999 1089.18 957.958 L 1201.27 958.004 L 1201.26 984.909 L 1093.2 985.056 C 1070.94 985.113 1042.7 984.609 1020.8 986.996 C 942.1 995.255 868.713 1030.59 813.185 1086.97 C 777.867 1122.35 753.022 1160.84 736.489 1208.11 C 726.362 1237.06 720.852 1262.15 718.236 1292.63 C 718.034 1294.99 716.43 1295.85 714.712 1296.96 C 710.841 1293.47 706.373 1288.07 702.834 1284.08 z" fill="rgb(254,254,254)" transform="translate(0,0)"></path>
<path d="M 1312.7 957.951 C 1322.24 957.996 1332.15 957.911 1341.65 958.098 C 1342.02 997.544 1342.1 1036.99 1341.88 1076.44 C 1333.58 1084.77 1324.8 1093.89 1316.33 1101.95 C 1310.59 1091.39 1313.88 980.022 1312.7 957.951 z" fill="rgb(254,254,254)" transform="translate(0,0)"></path>
<path d="M 1057.58 531.324 C 1103.41 531.249 1153.39 530.257 1198.93 531.339 L 1199.03 729.383 C 1199.04 739.64 1198.21 819.447 1200.11 822.897 L 1202.76 823.574 C 1225.31 822.187 1256.47 823.047 1279.86 823.042 L 1408.05 823.159 L 1379.63 850.826 C 1367.59 862.796 1357.44 872.074 1347.54 885.851 C 1275.95 885.797 1202.43 884.977 1131.02 886.125 C 1115.51 886.464 1100 886.46 1084.49 886.113 C 1102.06 865.994 1125.96 851.801 1126.59 822.538 C 1127.13 797.01 1126.91 771.524 1126.91 745.987 L 1126.83 597.819 C 1116.19 597.458 1101.08 596.321 1091.33 600.289 C 1076.21 605.812 1057.66 628.321 1054.83 644.574 C 1051.9 661.461 1053.39 688.725 1053.52 706.592 L 1054.17 814.949 L 1032.33 836.227 C 1014.14 854.824 994.32 872.526 976.774 891.564 L 847.582 891.365 C 846.657 870.743 847.185 846.824 847.152 825.961 L 885.629 825.979 C 947.81 826.166 941.366 836.155 982.76 788.211 C 997.443 764.146 989.465 758.988 989.649 734.511 C 989.984 689.778 989.121 644.806 990.125 600.105 C 997.797 591.24 1008.49 581.355 1017.03 572.928 C 1030.8 559.311 1044.32 545.441 1057.58 531.324 z" fill="rgb(227,228,238)" transform="translate(0,0)"></path>
<path d="M 1028.11 627.139 C 1034.51 616.176 1046 602.092 1054.76 592.949 C 1083.15 563.336 1119.72 568.532 1157.1 568.254 L 1156.31 738.349 C 1156.29 777.774 1157.25 818.578 1155.89 857.788 C 1150.03 866.12 1132.64 881.804 1131.02 886.125 C 1115.51 886.464 1100 886.46 1084.49 886.113 C 1102.06 865.994 1125.96 851.801 1126.59 822.538 C 1127.13 797.01 1126.91 771.524 1126.91 745.987 L 1126.83 597.819 C 1116.19 597.458 1101.08 596.321 1091.33 600.289 C 1076.21 605.812 1057.66 628.321 1054.83 644.574 C 1051.9 661.461 1053.39 688.725 1053.52 706.592 L 1054.17 814.949 L 1032.33 836.227 C 1030.59 834.411 1029.45 832.87 1029.43 830.265 C 1028.91 762.461 1029.57 694.959 1028.11 627.139 z" fill="rgb(254,254,254)" transform="translate(0,0)"></path>
<path d="M 1202.76 823.574 C 1225.31 822.187 1256.47 823.047 1279.86 823.042 L 1408.05 823.159 L 1379.63 850.826 C 1365.89 849.89 1342.8 850.611 1327.79 850.293 C 1275.08 849.025 1222.36 848.632 1169.64 849.113 C 1176.06 842.145 1188.02 827.304 1196.03 823.952 C 1198.66 824.288 1200.26 824.792 1202.76 823.574 z" fill="rgb(254,254,254)" transform="translate(0,0)"></path>
<path d="M 982.76 788.211 C 987.652 792.723 985.915 811.722 985.984 819.115 C 980.642 827.915 966.197 841.966 957.954 848.819 C 944.665 850.8 900.614 850.163 885.808 849.698 C 885.403 842.045 884.958 833.61 885.629 825.979 C 947.81 826.166 941.366 836.155 982.76 788.211 z" fill="rgb(254,254,254)" transform="translate(0,0)"></path>
<path d="M 1072.37 1232.6 C 1087 1231.49 1106.4 1232.01 1121.36 1232.01 L 1200.39 1231.99 C 1268.3 1231.96 1339.72 1230.79 1407.24 1232.23 C 1432.22 1254.55 1455.1 1279.54 1480.01 1302.17 C 1502.97 1323.03 1524.98 1345.95 1546.53 1368.23 C 1550.42 1372.25 1554.69 1377.44 1558.96 1380.93 L 1559.14 1469.49 C 1552.8 1476.88 1542.57 1486.98 1535.19 1493.68 C 1512.72 1515.94 1488.03 1540.66 1464.95 1562.24 C 1430.31 1562.58 1392.23 1563.4 1357.81 1562.55 L 1357.73 1500.2 C 1374.16 1500.14 1391.38 1499.82 1407.74 1500.27 C 1424.48 1499.47 1433.23 1496.46 1446.28 1485.82 C 1458.47 1475.88 1469.99 1465.13 1482.69 1455.87 L 1489.7 1449.99 C 1489.82 1445.45 1489.9 1440.92 1489.92 1436.38 C 1489.93 1414.98 1482.69 1398.09 1465.95 1383.2 C 1439.77 1360.06 1405.93 1317.41 1376.9 1300.85 C 1368.1 1295.83 1289.02 1298.31 1273.3 1298.25 L 1053.72 1297.98 L 1053.65 1322.74 L 1053.92 1370.52 C 1085.38 1370.5 1118.38 1371 1149.71 1370.38 C 1143.09 1380.08 1141.32 1385.89 1140.54 1397.96 C 1140.01 1411.65 1140.57 1425.11 1139.28 1438.87 C 1106.75 1438.89 1072.53 1439.42 1040.13 1438.51 C 1017.3 1416.86 993.757 1391.75 972.012 1368.83 C 972.366 1334.12 973.228 1307.96 994.95 1278.36 C 1014.47 1251.77 1039.99 1237.53 1072.37 1232.6 z" fill="rgb(227,228,238)" transform="translate(0,0)"></path>
<path d="M 1072.37 1232.6 C 1087 1231.49 1106.4 1232.01 1121.36 1232.01 L 1200.39 1231.99 C 1268.3 1231.96 1339.72 1230.79 1407.24 1232.23 C 1432.22 1254.55 1455.1 1279.54 1480.01 1302.17 C 1502.97 1323.03 1524.98 1345.95 1546.53 1368.23 C 1550.42 1372.25 1554.69 1377.44 1558.96 1380.93 L 1559.14 1469.49 C 1552.8 1476.88 1542.57 1486.98 1535.19 1493.68 C 1530.43 1483.43 1535.17 1425.05 1532.21 1410.22 C 1530.31 1400.7 1526.29 1393.72 1520.54 1385.97 C 1510.28 1372.17 1496.74 1360.49 1485.14 1348.01 C 1457.41 1318.2 1424.61 1289.49 1398.51 1258.63 C 1283.72 1260.47 1163.77 1259.26 1048.67 1258.32 C 1048.83 1258.1 1048.99 1257.88 1049.15 1257.67 L 1049.98 1256.59 C 1056.7 1247.74 1067.62 1240.16 1072.37 1232.6 z" fill="rgb(254,254,254)" transform="translate(0,0)"></path>
<path d="M 1027.27 1291.91 C 1035.75 1294.06 1043.94 1296.3 1052.61 1297.62 C 1052.58 1302.66 1051.81 1319.82 1053.65 1322.74 L 1053.92 1370.52 C 1085.38 1370.5 1118.38 1371 1149.71 1370.38 C 1143.09 1380.08 1141.32 1385.89 1140.54 1397.96 C 1136.13 1399.87 1067.58 1398.94 1057.19 1398.9 C 1043.42 1385.03 1029.84 1370.97 1016.46 1356.71 C 1015.53 1333.41 1017.89 1313.3 1027.27 1291.91 z" fill="rgb(254,254,254)" transform="translate(0,0)"></path>
<path d="M 1482.69 1455.87 C 1485.01 1461.56 1483.97 1479.61 1483.78 1486.36 C 1474 1498.63 1456.41 1514.54 1444.79 1525.55 C 1429.44 1526.31 1412.54 1526.12 1397.05 1525.96 C 1388.45 1521.18 1374.64 1509.17 1368.39 1501.47 C 1373.78 1501.45 1405.59 1502.01 1407.74 1500.27 C 1424.48 1499.47 1433.23 1496.46 1446.28 1485.82 C 1458.47 1475.88 1469.99 1465.13 1482.69 1455.87 z" fill="rgb(254,254,254)" transform="translate(0,0)"></path>
<path d="M 1531.19 822.957 C 1549.36 822.993 1568.04 822.798 1586.17 823.144 C 1598.47 833.644 1612.91 849.653 1625.11 861.042 C 1629.83 865.448 1651.65 886.421 1654.23 890.012 C 1658.88 894.238 1663.47 898.524 1668.01 902.869 L 1668.25 1023.52 C 1630.56 1023.1 1592.87 1022.9 1555.17 1022.95 L 1554.99 957.695 C 1568.87 957.377 1583.77 957.761 1597.74 957.895 C 1598.41 920.982 1581.41 882.861 1538.59 885.016 C 1522.63 885.819 1492.58 919.605 1483.13 932.079 C 1481.9 947.971 1482.58 974.818 1482.6 991.147 L 1482.8 1095.7 L 1667.73 1095.08 L 1668 1240.96 L 1623.73 1285.58 C 1615.7 1293.62 1602.23 1307.59 1593.27 1313.87 C 1565.91 1287.45 1538.5 1257.43 1511.25 1232.01 C 1540.33 1231.9 1569.41 1232.07 1598.5 1232.52 C 1598.19 1208.69 1598.14 1184.86 1598.35 1161.03 L 1438.59 1160.91 C 1413.68 1160.89 1380.7 1161.79 1356.53 1160.13 C 1369.46 1145.84 1404.86 1117.63 1409.85 1100.24 C 1416.69 1076.43 1413.99 1037.1 1414.16 1011.55 L 1414.96 914.793 C 1444.4 883.941 1476.95 852.707 1507.58 822.994 L 1531.19 822.957 z" fill="rgb(227,228,238)" transform="translate(0,0)"></path>
<path d="M 1531.19 822.957 C 1549.36 822.993 1568.04 822.798 1586.17 823.144 C 1598.47 833.644 1612.91 849.653 1625.11 861.042 C 1629.83 865.448 1651.65 886.421 1654.23 890.012 C 1655.29 893.425 1655.82 891.76 1655.99 895.427 C 1643.99 897.633 1599.42 857.035 1585.05 849.083 C 1562.45 848.959 1539.85 848.607 1517.25 848.028 C 1521.6 841.186 1527.66 830.045 1531.19 822.957 z" fill="rgb(254,254,254)" transform="translate(0,0)"></path>
<path d="M 502.041 683.929 C 515.593 683.639 529.149 683.572 542.703 683.729 C 585.44 724.523 624.85 769.146 668.001 809.497 C 672.563 813.763 684.589 821.364 690.439 822.722 C 715.948 828.647 746.097 825.595 772.242 826.304 L 772.33 850.62 C 772.404 863.098 772.397 875.577 772.308 888.055 L 655.087 887.805 C 648.577 881.016 641.826 874.006 635.006 867.48 C 598.562 832.61 565.483 793.725 527.875 760.191 C 519.276 752.524 504.894 751.018 493.893 752.625 C 463.686 763.8 451.634 794.716 441.858 823.003 C 456.954 823.076 473.876 822.773 488.818 823.324 L 575.107 910.62 C 588.276 923.936 612.537 953.996 630.624 958.396 C 647.516 962.505 675.02 959.123 692.735 960.36 C 729.134 960.863 766.108 960.188 802.381 961.192 C 789.872 969.094 782.148 974.854 770.341 984.251 C 755.007 997.364 743.301 1008.41 730.148 1023.74 L 533.212 1023.41 C 527.382 1017.88 523.917 1014.67 519.007 1008.39 C 518.98 994.104 519.648 971.367 518.085 957.988 C 514.999 931.586 490.17 904.221 469.517 888.845 C 438.811 888.905 408.105 888.775 377.401 888.452 C 377.096 849.48 378.214 809.529 377.154 770.677 C 399.547 746.415 440.223 706.427 464.6 684.019 L 502.041 683.929 z" fill="rgb(227,228,238)" transform="translate(0,0)"></path>
<path d="M 455.009 734.55 C 466.347 737.82 480.252 741.211 490.599 746.844 C 493.467 748.406 493.287 749.91 493.893 752.625 C 463.686 763.8 451.634 794.716 441.858 823.003 C 456.954 823.076 473.876 822.773 488.818 823.324 L 575.107 910.62 C 588.276 923.936 612.537 953.996 630.624 958.396 C 647.516 962.505 675.02 959.123 692.735 960.36 C 729.134 960.863 766.108 960.188 802.381 961.192 C 789.872 969.094 782.148 974.854 770.341 984.251 C 749.563 983.025 724.625 983.861 703.395 983.824 L 589.625 983.228 C 576.041 945.591 553.548 909.315 528.902 877.904 C 505.357 847.896 453.167 856.204 418.886 854.319 C 418.817 853.53 418.757 852.74 418.704 851.95 C 417.79 838.646 416.798 797.973 419.567 786.071 C 421.318 778.548 448.902 741.519 455.009 734.55 z" fill="rgb(254,254,254)" transform="translate(0,0)"></path>
<path d="M 502.041 683.929 C 515.593 683.639 529.149 683.572 542.703 683.729 C 585.44 724.523 624.85 769.146 668.001 809.497 C 672.563 813.763 684.589 821.364 690.439 822.722 C 715.948 828.647 746.097 825.595 772.242 826.304 L 772.33 850.62 C 743.02 851.028 707.823 851.368 678.877 849.663 C 665.767 839.086 650.224 821.2 638.064 809.01 C 606.516 777.385 574.782 740.515 541.648 710.94 C 520.034 711.001 498.42 710.87 476.809 710.549 C 485.988 701.404 493.465 693.632 502.041 683.929 z" fill="rgb(254,254,254)" transform="translate(0,0)"></path>
<path d="M 773.484 400.923 C 781.179 400.779 803.835 398.811 808.356 404.119 C 808.139 409.114 789.719 426.839 784.323 432.872 C 769.089 455.011 762.527 467.556 763.203 494.649 C 763.583 509.855 763.31 526.588 763.272 541.863 L 763.036 684.578 L 885.94 684.924 L 916.868 685.092 L 916.973 751.25 L 707.776 751.132 C 703.095 746.757 699.519 742.989 695.16 738.29 C 694.575 706.824 695.111 673.635 695.142 642.047 L 695.469 478.079 C 716.137 454.192 749.91 423.977 773.484 400.923 z" fill="rgb(227,228,238)" transform="translate(0,0)"></path>
<path d="M 736.132 714.102 C 735.282 657.686 735.12 601.262 735.645 544.842 C 735.826 523.654 735.487 499.944 737.269 478.962 C 738.329 466.484 773.916 428.204 784.889 426.718 L 785.966 427.814 L 784.323 432.872 C 769.089 455.011 762.527 467.556 763.203 494.649 C 763.583 509.855 763.31 526.588 763.272 541.863 L 763.036 684.578 L 885.94 684.924 L 886.049 714.083 C 836.673 714.16 785.332 714.766 736.132 714.102 z" fill="rgb(254,254,254)" transform="translate(0,0)"></path>
<path d="M 1412.22 526.817 L 1457.2 527.139 C 1491.95 557.419 1526.36 598.096 1560.02 630.195 L 1560.18 750.358 L 1306.41 750.147 L 1269.03 750.093 L 1268.99 685.741 L 1491.09 685.281 L 1491.03 614.006 C 1466.93 615.298 1437.07 614.723 1412.53 614.798 C 1412.6 585.471 1412.5 556.143 1412.22 526.817 z" fill="rgb(227,228,238)" transform="translate(0,0)"></path>
<path d="M 1457.2 527.139 C 1491.95 557.419 1526.36 598.096 1560.02 630.195 L 1560.18 750.358 L 1306.41 750.147 L 1306.33 715.138 C 1382.3 716.023 1458.28 715.863 1534.25 714.657 C 1534.87 692.763 1535.27 666.674 1534.58 644.896 C 1525.82 631.625 1517.77 625.991 1507.15 615.151 C 1491.47 599.151 1469.53 580.232 1456.04 563.075 C 1455.56 550.112 1455.66 539.972 1457.2 527.139 z" fill="rgb(254,254,254)" transform="translate(0,0)"></path>
<path d="M 940.524 400.008 L 1040.51 399.943 C 1055.6 399.975 1074.78 399.444 1089.41 400.217 C 1104.43 400.092 1122.49 399.904 1137.42 400.798 C 1137.53 420.868 1137.52 440.94 1137.39 461.01 L 1015.63 461.172 C 989.574 461.147 948.761 457.276 926.09 469.654 C 889.006 495.97 892.791 534.928 922.073 564.782 L 922.021 613.151 L 875.787 613.085 L 836.039 613.064 L 835.983 479.203 C 843.734 470.767 854.592 460.681 862.938 452.399 L 915.744 399.973 L 940.524 400.008 z" fill="rgb(227,228,238)" transform="translate(0,0)"></path>
<path d="M 907.232 449.876 C 913.37 455.802 921.229 462.86 926.09 469.654 C 889.006 495.97 892.791 534.928 922.073 564.782 L 922.021 613.151 L 875.787 613.085 C 876.825 603.713 876.259 579.282 876.26 569.002 C 876.158 538.775 876.223 508.548 876.453 478.321 C 886.727 467.808 895.729 459.022 907.232 449.876 z" fill="url(#Gradient1)" transform="translate(0,0)"></path>
<path d="M 940.524 400.008 L 1040.51 399.943 C 1055.6 399.975 1074.78 399.444 1089.41 400.217 C 1094.23 401.641 1098.71 401.337 1103.78 401.38 L 1103.97 423.974 C 1051.86 427.048 998.485 422.423 946.401 425.754 C 940.871 426.108 929.078 430.544 923.359 432.509 C 925.643 420.328 930.857 408.173 940.524 400.008 z" fill="rgb(254,254,254)" transform="translate(0,0)"></path>
<path d="M 377.236 959.033 L 417.437 958.991 L 444.198 959.027 L 443.903 998.25 C 443.764 1031.53 448.294 1044.65 472.461 1069.07 C 491.796 1088.6 504.245 1096.46 531.67 1095.99 C 580.278 1095.17 630.998 1096.93 679.483 1095.42 C 674.746 1104.39 669.507 1113.88 665.287 1123.05 C 659.654 1135.75 655.212 1149.05 650.57 1162.16 C 591.939 1161.51 532.394 1162.04 473.692 1162.08 C 443.033 1131.3 408.341 1094.37 377.328 1065.37 C 377.084 1029.93 377.053 994.48 377.236 959.033 z" fill="rgb(227,228,238)" transform="translate(0,0)"></path>
<path d="M 417.437 958.991 L 444.198 959.027 L 443.903 998.25 C 443.764 1031.53 448.294 1044.65 472.461 1069.07 C 491.796 1088.6 504.245 1096.46 531.67 1095.99 C 580.278 1095.17 630.998 1096.93 679.483 1095.42 C 674.746 1104.39 669.507 1113.88 665.287 1123.05 C 655.255 1121.25 630.43 1122.27 619.113 1122.45 C 594.642 1122.79 570.168 1122.95 545.694 1122.93 C 530.93 1122.95 511.192 1123.49 496.868 1121.77 C 484.231 1112.38 423.539 1053.13 416.939 1040.96 C 416.871 1020.97 415.59 977.58 417.437 958.991 z" fill="rgb(254,254,254)" transform="translate(0,0)"></path>
<path d="M 1067.87 1508.68 C 1082.32 1508.35 1097.33 1508.58 1111.83 1508.62 L 1135.2 1508.77 C 1135.31 1527.64 1135.33 1546.52 1135.25 1565.39 C 1204.4 1639.09 1184.57 1633.84 1284.19 1634 C 1285.62 1643.04 1284.57 1685.63 1284.44 1697.82 L 1168.59 1697.98 L 1067.84 1595.19 C 1068.39 1566.95 1067.88 1537.05 1067.87 1508.68 z" fill="rgb(227,228,238)" transform="translate(0,0)"></path>
<path d="M 1111.83 1508.62 L 1135.2 1508.77 C 1135.31 1527.64 1135.33 1546.52 1135.25 1565.39 C 1204.4 1639.09 1184.57 1633.84 1284.19 1634 C 1283.34 1639.97 1283.61 1649.77 1283.6 1656.12 C 1253.63 1656.21 1217.51 1657.3 1188.06 1655.96 C 1163.6 1633.91 1135.14 1603.16 1111.59 1579 C 1110.28 1563.04 1110.76 1524.41 1111.83 1508.62 z" fill="rgb(254,254,254)" transform="translate(0,0)"></path>
<path d="M 1255.54 1370.09 L 1319.6 1369.98 C 1328.51 1369.98 1347.2 1369.49 1355.42 1370.77 C 1360.82 1376.37 1366.02 1382.1 1371.46 1387.62 C 1383.84 1399.71 1396.02 1412 1408.01 1424.49 L 1401.88 1431.59 C 1364.61 1432.42 1322.3 1432.01 1285.03 1431.33 L 1284.76 1562.84 C 1264.38 1562.79 1244 1562.56 1223.63 1562.15 C 1220.56 1559.08 1217.7 1555.07 1215.03 1551.59 C 1214.73 1504.51 1213.66 1458.74 1214.24 1411.46 C 1226.67 1398.11 1242.45 1383.16 1255.54 1370.09 z" fill="rgb(227,228,238)" transform="translate(0,0)"></path>
<path d="M 1355.42 1370.77 C 1360.82 1376.37 1366.02 1382.1 1371.46 1387.62 C 1356.34 1395.39 1288.69 1393.01 1267.76 1392.84 C 1272.11 1385.82 1277.58 1378.33 1281.13 1371.16 L 1330.75 1371.28 C 1337.6 1371.28 1349.08 1371.68 1355.42 1370.77 z" fill="rgb(254,254,254)" transform="translate(0,0)"></path>
<path d="M 1252.62 1415.33 C 1267.62 1419.89 1271.38 1425.53 1284.1 1431.54 C 1283.35 1467.01 1284.13 1502.42 1283.58 1537.9 C 1271.99 1531.06 1264.22 1527.6 1252.87 1519.61 C 1251.95 1501.63 1252.12 1482.12 1252.01 1464.03 C 1251.92 1448.63 1251.44 1430.46 1252.62 1415.33 z" fill="rgb(254,254,254)" transform="translate(0,0)"></path>
<path d="M 1238.63 400.755 L 1262.48 400.968 L 1271.25 409.142 C 1293.67 430.485 1319.09 457.587 1340.74 480.103 L 1341.09 614.113 C 1334.35 615.127 1319.64 614.691 1312.41 614.666 C 1298.3 614.636 1284.19 614.695 1270.09 614.844 C 1270.24 576.001 1270.17 537.157 1269.89 498.315 C 1258.51 482.59 1226.61 454.675 1210.97 440.504 L 1210.98 426.234 C 1220.05 417.582 1229.27 409.088 1238.63 400.755 z" fill="rgb(227,228,238)" transform="translate(0,0)"></path>
<path d="M 1252.67 429.126 C 1256.02 424.669 1266.93 412.336 1271.25 409.142 C 1293.67 430.485 1319.09 457.587 1340.74 480.103 L 1341.09 614.113 C 1335.43 613.314 1324.39 613.57 1318.26 613.547 C 1316.51 575.24 1317.09 531.907 1317.08 493.236 C 1308.26 480.892 1265.92 441.414 1252.67 429.126 z" fill="rgb(254,254,254)" transform="translate(0,0)"></path>
<path d="M 587.999 525.983 L 624.72 526.002 L 625.01 570.385 C 625.113 584.534 625.084 598.683 624.922 612.832 C 618.526 612.833 612.131 612.783 605.736 612.68 C 595.48 613.271 579.212 612.705 568.508 612.656 C 546.517 612.648 524.527 612.456 502.54 612.078 C 507.254 606.362 512.359 601.334 517.766 596.277 C 541.995 573.617 564.631 549.477 587.999 525.983 z" fill="rgb(227,228,238)" transform="translate(0,0)"></path>
<path d="M 581.032 611.527 C 587.344 604.814 618.381 574.103 625.01 570.385 C 625.113 584.534 625.084 598.683 624.922 612.832 C 618.526 612.833 612.131 612.783 605.736 612.68 C 603.592 610.876 585.696 611.646 581.032 611.527 z" fill="rgb(254,254,254)" transform="translate(0,0)"></path>
<metadata><recraft-signature>{"signed_by": "recraft", "signature_b64": "vPDAAWoA+Rvaucja1y2ZLzrEsLMrFJZ8rBw98ya/VNAZTMwQ3mCR0rJshuCd23vk5htOnQMWd/F2PsDy5Up5CA==", "signing_algo": "Ed25519", "generation_timestamp": 1772807585, "identifier": "3f0d9714-55da-4087-9617-bf44fa71abf3"}</recraft-signature></metadata></svg>