<svg xmlns="http://www.w3.org/2000/svg" height="1024" preserveAspectRatio="none" style="display: block;" version="1.1" viewBox="0 0 2048 2048" width="1024">
<path d="M 0 0 L 2048 0 L 2048 2048 L 0 2048 L 0 0 z" fill="rgb(253,253,252)" transform="translate(0,0)"></path>
<path d="M 893.939 587.266 C 903.216 587.927 917.172 587.455 926.975 587.453 L 982.066 587.865 C 1004.56 587.737 1217.4 586.019 1219.75 587.688 C 1286.12 590.524 1347.97 621.614 1392.6 670.372 C 1432.13 713.779 1455 769.785 1457.16 828.453 C 1459.03 837.818 1457.42 900.662 1457.27 914.307 C 1458.81 925.72 1457.19 941.706 1457.84 953.565 C 1459.42 975.887 1457.76 1002.32 1457.54 1025.1 C 1457.29 1050.79 1460.07 1087.45 1457.84 1112.41 C 1457.81 1117.97 1458.08 1130.24 1457.46 1135.25 C 1457.39 1153.61 1457.58 1171.98 1458.02 1190.34 C 1458.13 1197.94 1458.87 1216.83 1457.17 1223.56 C 1453.33 1290.72 1422.71 1353.54 1372.18 1397.96 C 1331.97 1433.92 1281.1 1455.74 1227.34 1460.1 C 1206.73 1461.78 1178.94 1461.01 1157.75 1460.97 C 1141.98 1462.01 1118.43 1461.28 1102.22 1461.25 L 993.253 1460.87 C 984.791 1461.67 967.36 1461.15 958.38 1461.13 L 891.976 1460.91 C 874.67 1460.91 857.338 1460.98 840.03 1460.86 C 776.162 1460.39 717.81 1436.03 671.551 1392.06 C 616.093 1339.35 595.406 1282.33 593.084 1207.3 C 592.751 1205.22 593.103 1190.83 593.113 1187.59 L 593.234 1134.95 C 592.132 1106.09 594.232 1074.65 592.906 1045.25 C 593.57 1032.33 593.336 1018 593.279 1005.01 C 592.696 985.101 593.354 963.981 592.993 943.951 C 592.88 937.696 592.545 915.543 593.438 911.218 C 592.377 892.117 593.125 865.213 593.074 845.543 C 593.058 841.249 593.109 836.956 593.227 832.664 C 593.592 818.224 594.835 803.705 597.336 789.464 C 615.768 684.505 710.27 599.112 815.874 588.677 C 837.817 586.509 860.588 587.058 882.667 587.653 L 893.939 587.266 z" fill="rgb(219,217,225)" transform="translate(0,0)"></path>
<path d="M 1271.94 1217.68 C 1280.99 1213.21 1298.71 1200.63 1307.38 1194.42 C 1361.54 1155.64 1421.53 1095.09 1457.11 1038.6 C 1458.07 1062.72 1456.32 1088.72 1457.84 1112.41 C 1457.81 1117.97 1458.08 1130.24 1457.46 1135.25 C 1457.39 1153.61 1457.58 1171.98 1458.02 1190.34 C 1458.13 1197.94 1458.87 1216.83 1457.17 1223.56 C 1453.33 1290.72 1422.71 1353.54 1372.18 1397.96 C 1331.97 1433.92 1281.1 1455.74 1227.34 1460.1 C 1206.73 1461.78 1178.94 1461.01 1157.75 1460.97 C 1141.98 1462.01 1118.43 1461.28 1102.22 1461.25 L 993.253 1460.87 C 988.956 1460.15 979.62 1460.18 974.915 1460.08 C 980.508 1456.39 986.446 1452.76 991.411 1448.3 L 994.009 1448.59 C 997.037 1444.04 1003.62 1438.8 1007.77 1434.95 C 1018.16 1425.34 1042.38 1403.39 1047.2 1390.83 L 1047.75 1390.36 C 1049.3 1386.56 1054.03 1379.01 1056.26 1375.15 C 1062.61 1364.14 1065.99 1355.83 1068.95 1343.61 L 1070.1 1343.34 C 1072.89 1320.42 1075.92 1316.23 1075.89 1290.19 C 1130.77 1284.17 1188.94 1263.64 1237.3 1237.64 C 1248.58 1231.58 1261.54 1225.15 1271.94 1217.68 z" fill="rgb(187,185,197)" transform="translate(0,0)"></path>
<path d="M 1157.75 1460.97 C 1161.38 1458.5 1166.71 1455.75 1170.62 1453.55 C 1215.33 1428.48 1254.15 1387.77 1280.54 1343.98 C 1296.66 1317.23 1295.69 1317.93 1322.54 1302.03 C 1333.45 1295.64 1344.18 1288.94 1354.71 1281.94 C 1392.98 1256.19 1423.62 1230.94 1457.21 1199.78 L 1457.17 1223.56 C 1453.33 1290.72 1422.71 1353.54 1372.18 1397.96 C 1331.97 1433.92 1281.1 1455.74 1227.34 1460.1 C 1206.73 1461.78 1178.94 1461.01 1157.75 1460.97 z" fill="rgb(6,5,102)" transform="translate(0,0)"></path>
<path d="M 1271.94 1217.68 C 1280.99 1213.21 1298.71 1200.63 1307.38 1194.42 C 1361.54 1155.64 1421.53 1095.09 1457.11 1038.6 C 1458.07 1062.72 1456.32 1088.72 1457.84 1112.41 C 1457.81 1117.97 1458.08 1130.24 1457.46 1135.25 C 1433.81 1156.34 1413.17 1177.19 1388.66 1197.95 C 1295.58 1276.79 1191.68 1327.84 1070.1 1343.34 C 1072.89 1320.42 1075.92 1316.23 1075.89 1290.19 C 1130.77 1284.17 1188.94 1263.64 1237.3 1237.64 C 1248.58 1231.58 1261.54 1225.15 1271.94 1217.68 z" fill="rgb(6,5,102)" transform="translate(0,0)"></path>
<path d="M 1047.75 1390.36 C 1091.74 1388.97 1142.46 1377.7 1184.52 1365.02 C 1197.06 1361.25 1209.18 1355.83 1221.34 1351.79 C 1169.85 1407.11 1113.41 1447.73 1034.4 1450.88 C 1020.89 1451.38 1007.37 1450.61 994.009 1448.59 C 997.037 1444.04 1003.62 1438.8 1007.77 1434.95 C 1018.16 1425.34 1042.38 1403.39 1047.2 1390.83 L 1047.75 1390.36 z" fill="rgb(6,5,102)" transform="translate(0,0)"></path>
<path d="M 893.939 587.266 C 903.216 587.927 917.172 587.455 926.975 587.453 L 982.066 587.865 L 982.793 588.292 C 987.743 591.148 997.09 593.704 998.314 597.682 L 1004.94 597.132 C 1008.48 603.46 1022.36 612.473 1028.71 617.559 C 1038.19 625.143 1065.49 648.603 1069.88 659.241 L 1070.97 659.818 C 1077.31 670.654 1091.98 695.996 1093.87 707.437 C 1041.02 699.768 1008.66 698.774 955.528 707.572 C 858.71 723.605 772.511 764.349 693.788 822.388 C 657.336 849.139 625.683 879.643 593.438 911.218 C 592.377 892.117 593.125 865.213 593.074 845.543 C 593.058 841.249 593.109 836.956 593.227 832.664 C 593.592 818.224 594.835 803.705 597.336 789.464 C 615.768 684.505 710.27 599.112 815.874 588.677 C 837.817 586.509 860.588 587.058 882.667 587.653 L 893.939 587.266 z" fill="rgb(219,217,225)" transform="translate(0,0)"></path>
<path d="M 893.939 587.266 L 887.876 590.804 C 822.459 622.913 788.64 669.063 753.643 729.935 C 715.611 752.439 687.265 768.804 651.646 796.437 C 631.171 812.321 612.436 830.302 593.074 845.543 C 593.058 841.249 593.109 836.956 593.227 832.664 C 593.592 818.224 594.835 803.705 597.336 789.464 C 615.768 684.505 710.27 599.112 815.874 588.677 C 837.817 586.509 860.588 587.058 882.667 587.653 L 893.939 587.266 z" fill="rgb(19,10,144)" transform="translate(0,0)"></path>
<path d="M 998.314 597.682 L 1004.94 597.132 C 1008.48 603.46 1022.36 612.473 1028.71 617.559 C 1038.19 625.143 1065.49 648.603 1069.88 659.241 C 981.428 652.986 912.343 665.127 828.699 695.173 C 869.584 644.606 934.364 608.095 998.314 597.682 z" fill="rgb(19,10,144)" transform="translate(0,0)"></path>
<path d="M 593.234 1134.95 C 706.133 1253.6 851.546 1339.02 1019.28 1346.13 C 1035.7 1346.82 1052.57 1345.1 1068.95 1343.61 C 1065.99 1355.83 1062.61 1364.14 1056.26 1375.15 C 1054.03 1379.01 1049.3 1386.56 1047.75 1390.36 L 1047.2 1390.83 C 1042.38 1403.39 1018.16 1425.34 1007.77 1434.95 C 1003.62 1438.8 997.037 1444.04 994.009 1448.59 L 991.411 1448.3 C 986.446 1452.76 980.508 1456.39 974.915 1460.08 C 979.62 1460.18 988.956 1460.15 993.253 1460.87 C 984.791 1461.67 967.36 1461.15 958.38 1461.13 L 891.976 1460.91 C 874.67 1460.91 857.338 1460.98 840.03 1460.86 C 776.162 1460.39 717.81 1436.03 671.551 1392.06 C 616.093 1339.35 595.406 1282.33 593.084 1207.3 C 592.751 1205.22 593.103 1190.83 593.113 1187.59 L 593.234 1134.95 z" fill="rgb(219,217,225)" transform="translate(0,0)"></path>
<path d="M 593.084 1207.3 L 594.35 1203.21 C 596.026 1203.23 602.468 1209.98 604.212 1211.48 C 646.716 1248.07 699.783 1291.17 750.518 1314.92 C 781.044 1365.91 802.007 1399.77 852.447 1436.5 C 864.402 1445.21 883.023 1454.38 891.976 1460.91 C 874.67 1460.91 857.338 1460.98 840.03 1460.86 C 776.162 1460.39 717.81 1436.03 671.551 1392.06 C 616.093 1339.35 595.406 1282.33 593.084 1207.3 z" fill="rgb(19,10,144)" transform="translate(0,0)"></path>
<path d="M 827.79 1351.89 C 907.511 1381.02 962.362 1392.08 1047.2 1390.83 C 1042.38 1403.39 1018.16 1425.34 1007.77 1434.95 C 1003.62 1438.8 997.037 1444.04 994.009 1448.59 L 991.411 1448.3 C 941.083 1439.41 894.355 1416.29 856.757 1381.68 C 847.327 1373.07 836.702 1361.35 827.79 1351.89 z" fill="rgb(19,10,144)" transform="translate(0,0)"></path>
<path d="M 982.066 587.865 C 1004.56 587.737 1217.4 586.019 1219.75 587.688 C 1286.12 590.524 1347.97 621.614 1392.6 670.372 C 1432.13 713.779 1455 769.785 1457.16 828.453 C 1459.03 837.818 1457.42 900.662 1457.27 914.307 C 1446.73 902.527 1432.52 889.523 1420.87 878.446 C 1333.67 795.516 1218.76 728.055 1098.73 708.416 L 1093.87 707.437 C 1091.98 695.996 1077.31 670.654 1070.97 659.818 L 1069.88 659.241 C 1065.49 648.603 1038.19 625.143 1028.71 617.559 C 1022.36 612.473 1008.48 603.46 1004.94 597.132 L 998.314 597.682 C 997.09 593.704 987.743 591.148 982.793 588.292 L 982.066 587.865 z" fill="rgb(187,185,197)" transform="translate(0,0)"></path>
<path d="M 1155.13 587.867 C 1175.12 587.063 1199.53 587.685 1219.75 587.688 C 1286.12 590.524 1347.97 621.614 1392.6 670.372 C 1432.13 713.779 1455 769.785 1457.16 828.453 C 1456.99 834.765 1457.18 841.935 1457.2 848.319 C 1409.22 800.394 1354.32 765.53 1297.75 729.624 C 1292.39 726.219 1279.37 700.643 1274.52 693.585 C 1243.74 648.724 1205.34 610.537 1155.13 587.867 z" fill="rgb(6,5,102)" transform="translate(0,0)"></path>
<path d="M 1004.94 597.132 C 1019.62 596.594 1034.16 596.011 1048.78 597.893 C 1119.73 607.021 1175.29 645.59 1222.17 697.137 C 1169.74 676.988 1126.49 667.318 1070.97 659.818 L 1069.88 659.241 C 1065.49 648.603 1038.19 625.143 1028.71 617.559 C 1022.36 612.473 1008.48 603.46 1004.94 597.132 z" fill="rgb(6,5,102)" transform="translate(0,0)"></path>
<path d="M 1101.82 762.351 C 1102.17 753.655 1101.78 744.944 1100.65 736.314 C 1099.79 729.893 1095.99 713.951 1096.67 709.045 L 1098.73 708.416 C 1218.76 728.055 1333.67 795.516 1420.87 878.446 C 1432.52 889.523 1446.73 902.527 1457.27 914.307 C 1458.81 925.72 1457.19 941.706 1457.84 953.565 C 1459.42 975.887 1457.76 1002.32 1457.54 1025.1 C 1457.29 1050.79 1460.07 1087.45 1457.84 1112.41 C 1456.32 1088.72 1458.07 1062.72 1457.11 1038.6 C 1421.53 1095.09 1361.54 1155.64 1307.38 1194.42 C 1298.71 1200.63 1280.99 1213.21 1271.94 1217.68 C 1273.66 1213.45 1289.34 1194.75 1293.3 1189.33 C 1305.18 1173.09 1314.6 1156.01 1322.06 1137.23 C 1323.81 1132.83 1326.69 1124.32 1324.72 1120.14 C 1328.05 1115.77 1347.67 1098.57 1353.16 1092.43 C 1372.16 1071.15 1393.45 1045.87 1408.71 1021.96 C 1392.13 1000.94 1376.28 980.303 1358.01 960.689 C 1344.63 946.33 1330.42 933.922 1316.75 920.146 C 1317.62 914.146 1311.79 905.152 1309.19 899.654 C 1299.25 878.664 1287.66 862.645 1271.87 846.018 C 1265.37 839.168 1239.69 815.93 1236.65 810.563 C 1203.12 791.017 1140.02 769.169 1101.82 762.351 z" fill="rgb(6,5,102)" transform="translate(0,0)"></path>
<path d="M 1236.65 810.563 C 1251.68 817.604 1266.99 827.061 1281.02 835.956 C 1350.61 880.29 1410.53 938.227 1457.18 1006.29 C 1457.74 989.305 1456.68 969.715 1457.84 953.565 C 1459.42 975.887 1457.76 1002.32 1457.54 1025.1 C 1457.29 1050.79 1460.07 1087.45 1457.84 1112.41 C 1456.32 1088.72 1458.07 1062.72 1457.11 1038.6 C 1421.53 1095.09 1361.54 1155.64 1307.38 1194.42 C 1298.71 1200.63 1280.99 1213.21 1271.94 1217.68 C 1273.66 1213.45 1289.34 1194.75 1293.3 1189.33 C 1305.18 1173.09 1314.6 1156.01 1322.06 1137.23 C 1323.81 1132.83 1326.69 1124.32 1324.72 1120.14 C 1328.05 1115.77 1347.67 1098.57 1353.16 1092.43 C 1372.16 1071.15 1393.45 1045.87 1408.71 1021.96 C 1392.13 1000.94 1376.28 980.303 1358.01 960.689 C 1344.63 946.33 1330.42 933.922 1316.75 920.146 C 1317.62 914.146 1311.79 905.152 1309.19 899.654 C 1299.25 878.664 1287.66 862.645 1271.87 846.018 C 1265.37 839.168 1239.69 815.93 1236.65 810.563 z" fill="rgb(187,185,197)" transform="translate(0,0)"></path>
<path d="M 593.438 911.218 C 625.683 879.643 657.336 849.139 693.788 822.388 C 772.511 764.349 858.71 723.605 955.528 707.572 C 1008.66 698.774 1041.02 699.768 1093.87 707.437 L 1098.73 708.416 L 1096.67 709.045 C 1095.99 713.951 1099.79 729.893 1100.65 736.314 C 1101.78 744.944 1102.17 753.655 1101.82 762.351 C 894.711 724.951 711.824 843.626 593.279 1005.01 C 592.696 985.101 593.354 963.981 592.993 943.951 C 592.88 937.696 592.545 915.543 593.438 911.218 z" fill="rgb(19,10,144)" transform="translate(0,0)"></path>
<path d="M 592.906 1045.25 L 594.447 1043.02 C 599.979 1047.64 610.985 1066.19 616.951 1073.88 C 631.524 1092.58 647.122 1110.46 663.674 1127.44 C 738.897 1203.71 836.768 1262.5 942.4 1285.62 C 976.92 1293.18 1029.44 1294.55 1064.35 1291.41 C 1068.21 1291.08 1072.06 1290.68 1075.89 1290.19 C 1075.92 1316.23 1072.89 1320.42 1070.1 1343.34 L 1068.95 1343.61 C 1052.57 1345.1 1035.7 1346.82 1019.28 1346.13 C 851.546 1339.02 706.133 1253.6 593.234 1134.95 C 592.132 1106.09 594.232 1074.65 592.906 1045.25 z" fill="rgb(19,10,144)" transform="translate(0,0)"></path>
<path d="M 1224.62 856.016 C 1251.12 869.155 1293.9 901.355 1316.75 920.146 C 1330.42 933.922 1344.63 946.33 1358.01 960.689 C 1376.28 980.303 1392.13 1000.94 1408.71 1021.96 C 1393.45 1045.87 1372.16 1071.15 1353.16 1092.43 C 1347.67 1098.57 1328.05 1115.77 1324.72 1120.14 C 1291.3 1149.64 1265.51 1167.14 1228.67 1190.93 C 1309.6 1092.19 1304.9 953.841 1224.62 856.016 z" fill="rgb(6,5,102)" transform="translate(0,0)"></path>
<path d="M 976.701 1097.48 C 949.427 1079.98 933.966 1048.92 936.448 1016.61 C 938.93 984.299 958.954 955.961 988.58 942.831 C 1018.21 929.702 1052.65 933.901 1078.25 953.765 C 1115.48 982.644 1123.38 1035.7 1096.2 1074.18 C 1069.01 1112.66 1016.35 1122.93 976.701 1097.48 z" fill="rgb(19,10,144)" transform="translate(0,0)"></path>
<path d="M 1078.25 953.765 C 1115.48 982.644 1123.38 1035.7 1096.2 1074.18 C 1069.01 1112.66 1016.35 1122.93 976.701 1097.48 C 982.096 1091.7 1000.17 1097.39 1014.27 1091.58 C 1032.11 1084.22 1043.76 1075.22 1052.85 1057.24 C 1055.22 1052.56 1055.34 1050.05 1053.57 1045.61 C 1060.53 1029.77 1061.63 1031.32 1058.73 1012.71 C 1055.88 1005.76 1055.58 1004.01 1050.72 997.917 C 1062.06 985.597 1072.53 969.591 1078.25 953.765 z" fill="rgb(6,5,102)" transform="translate(0,0)"></path>
<path d="M 991.169 1008.53 C 992.725 1005.18 994.101 1001.84 996.499 998.972 C 1002.83 991.319 1012.08 986.658 1022 986.116 C 1032.66 985.596 1041.75 989.435 1049.38 996.692 L 1050.72 997.917 C 1055.58 1004.01 1055.88 1005.76 1058.73 1012.71 C 1049.92 1032.03 1031.46 1036.32 1011.53 1031.78 C 996.087 1028.26 997.053 1019.07 991.169 1008.53 z" fill="rgb(253,253,252)" transform="translate(0,0)"></path>
<path d="M 991.169 1008.53 C 997.053 1019.07 996.087 1028.26 1011.53 1031.78 C 1031.46 1036.32 1049.92 1032.03 1058.73 1012.71 C 1061.63 1031.32 1060.53 1029.77 1053.57 1045.61 L 1052.81 1046.44 C 1036.89 1064.06 1007.89 1064.82 994.417 1043.38 C 986.992 1031.56 988.986 1021.35 991.169 1008.53 z" fill="rgb(219,217,225)" transform="translate(0,0)"></path>
<path d="M 822.049 856.981 L 822.759 857.716 C 821.372 862.142 807.295 877.719 803.739 883.505 C 742.686 982.832 752.892 1101.14 824.861 1190.84 C 800.55 1179.3 772.046 1158.11 750.628 1141.65 C 704.206 1107.47 672.477 1070.47 640.401 1023.41 C 645.841 1016.02 651.247 1008.61 656.578 1001.13 C 687.837 957.325 727.353 919.691 771.524 889.071 C 787.933 877.696 805.035 867.394 822.049 856.981 z" fill="rgb(19,10,144)" transform="translate(0,0)"></path>
<path d="M 1210.41 921.448 C 1213.16 923.485 1215.95 929.541 1217.43 932.728 C 1228.69 957.118 1237.06 982.389 1239.62 1009.26 C 1243.77 1057.9 1231.51 1106.54 1204.79 1147.4 C 1197.44 1158.65 1188.4 1169.15 1179.81 1179.51 C 1179.9 1172.48 1179.39 1166.93 1178.79 1159.93 C 1173.8 1130.64 1160.36 1111.42 1137.18 1093.66 C 1157.03 1058.73 1166.09 1019.13 1150.27 980.662 L 1151.86 980.011 C 1181.21 967.741 1198.38 950.532 1210.41 921.448 z" fill="rgb(6,5,102)" transform="translate(0,0)"></path>
<path d="M 866.573 880.102 C 868.213 884.379 868.936 889.974 871.132 895.492 C 880.15 918.144 897.993 931.182 917.059 944.876 C 910.963 953.73 905.644 963.094 901.161 972.863 C 887.021 1004.43 886.573 1042.78 899.003 1075.01 C 879.044 1080.16 866.068 1085.79 852.482 1101.62 C 846.233 1109.13 842.921 1113.4 839.275 1122.5 C 823.827 1096.71 815.439 1073.73 813.003 1043.61 C 807.751 978.66 825.478 929.26 866.573 880.102 z" fill="rgb(19,10,144)" transform="translate(0,0)"></path>
<path d="M 979.214 795.221 C 989.649 794.175 998.405 794.808 1008.37 798.465 C 1024.22 804.389 1037.05 816.392 1044.03 831.812 C 1053.93 853.613 1047.77 868.815 1040.29 889.015 C 1015.23 888.145 1005.48 889.3 981.463 896.935 C 969.071 901.152 965.761 902.679 954.964 910.037 C 942.627 899.386 930.393 885.915 926.953 869.511 C 919.041 831.787 943.209 802.553 979.214 795.221 z" fill="rgb(19,10,144)" transform="translate(0,0)"></path>
<path d="M 1095.99 1135.81 C 1099.68 1137.36 1104.89 1142.66 1107.6 1145.78 C 1122.21 1162.56 1127.22 1185.46 1120.56 1206.41 C 1115.52 1222.09 1104.32 1235.06 1089.54 1242.34 C 1072.03 1251.1 1054.82 1250.86 1036.59 1244.74 C 998.682 1226.77 995.115 1192.55 1009.29 1157.12 C 1040.67 1158.89 1069.18 1152.39 1095.99 1135.81 z" fill="rgb(6,5,102)" transform="translate(0,0)"></path>
<path d="M 917.804 1106.79 C 933.555 1124.49 941.705 1130.48 960.719 1143.5 C 946.326 1179.19 949.125 1211.45 968.393 1244.34 C 959.747 1241.53 955.467 1239.87 947.282 1235.98 C 928.798 1226.54 903.503 1210.51 892.349 1192.53 C 869.947 1156.42 885.717 1127 917.804 1106.79 z" fill="rgb(19,10,144)" transform="translate(0,0)"></path>
<path d="M 1082.28 804.419 C 1103.26 808.296 1129.49 827.017 1144.82 841.339 C 1171.95 866.673 1173.89 901.317 1147.02 927.725 C 1142.28 931.698 1137.42 934.894 1132.31 938.38 C 1115.34 920.556 1108.15 915.01 1087.78 902.753 C 1090.36 896.133 1092.67 889.574 1094.33 882.647 C 1100.8 856.003 1096.47 827.881 1082.28 804.419 z" fill="rgb(19,10,144)" transform="translate(0,0)"></path>
<metadata><recraft-signature>{"signed_by": "recraft", "signature_b64": "eMO7r+aIHTQm/zTGsyICgSQl0SPe3G5rPUdkrK4IKX8R5ZZgFv1NinR546TOfzRDDJ4ZLtCswsTCq/30pErABg==", "signing_algo": "Ed25519", "generation_timestamp": 1772807491, "identifier": "090d7232-0985-4f6c-bed1-a9ea53023f09"}</recraft-signature></metadata></svg>