<svg xmlns="http://www.w3.org/2000/svg" height="1024" preserveAspectRatio="none" style="display: block;" version="1.1" viewBox="0 0 2048 2048" width="1024">
<path d="M 0 0 L 2048 0 L 2048 2048 L 0 2048 L 0 0 z" fill="rgb(251,251,250)" transform="translate(0,0)"></path>
<path d="M 805.228 582.413 C 826.836 580.222 857.701 581.711 880.084 581.679 L 1022.1 581.729 L 1163 581.638 C 1196.93 581.604 1238.41 579.76 1271.07 586.129 C 1311.13 593.739 1348.45 611.813 1379.26 638.517 C 1422.91 675.682 1456.17 737.377 1459.23 794.61 C 1460.74 822.771 1460.1 854.559 1460.1 883.105 L 1460.08 1040.31 L 1460.15 1175.28 C 1460.2 1205.6 1461.77 1249.71 1455.99 1278.27 C 1447.72 1318.37 1429.21 1355.65 1402.26 1386.49 C 1362.37 1432.4 1305.91 1460.63 1245.25 1465.01 C 1204.53 1466.23 1159.94 1465.37 1119 1465.34 L 937.597 1465.45 C 911.766 1465.28 885.933 1465.27 860.102 1465.42 C 832.681 1465.61 801.204 1466.93 774.406 1461.63 C 737.108 1454.09 702.272 1437.39 673.032 1413.03 C 624.788 1373.22 594.785 1315.53 589.902 1253.17 C 587.937 1229.02 588.952 1195.46 588.962 1170.34 L 589.014 1029.09 L 589.034 878.145 C 588.996 844.992 587.239 798.485 593.407 767.36 C 601.363 729.084 618.803 693.419 644.127 663.635 C 684.813 616.117 742.83 586.867 805.228 582.413 z" fill="rgb(22,24,137)" transform="translate(0,0)"></path>
<path d="M 899.885 1030.85 C 898.393 990.619 916.242 952.104 947.902 927.237 C 979.561 902.369 1021.21 894.153 1059.94 905.133 C 1121.91 922.701 1160.61 984.234 1149.59 1047.7 C 1138.58 1111.16 1081.42 1156.06 1017.15 1151.72 C 952.886 1147.39 902.272 1095.22 899.885 1030.85 z" fill="rgb(192,191,191)" transform="translate(0,0)"></path>
<path d="M 999.915 941.877 C 1040.62 929.566 1084.31 948.133 1103.7 985.985 C 1123.09 1023.84 1112.63 1070.14 1078.85 1095.98 C 1045.07 1121.82 997.646 1119.81 966.183 1091.19 C 934.72 1062.58 928.227 1015.56 950.758 979.485 C 962.048 961.409 979.515 948.046 999.915 941.877 z" fill="rgb(22,24,137)" transform="translate(0,0)"></path>
<path d="M 1017.29 991.688 C 1036.31 987.487 1055.14 999.505 1059.35 1018.53 C 1063.55 1037.56 1051.53 1056.39 1032.51 1060.6 C 1013.48 1064.8 994.641 1052.79 990.437 1033.76 C 986.233 1014.72 998.254 995.889 1017.29 991.688 z" fill="rgb(192,191,191)" transform="translate(0,0)"></path>
<path d="M 899.885 1030.85 C 898.393 990.619 916.242 952.104 947.902 927.237 C 979.561 902.369 1021.21 894.153 1059.94 905.133 C 1050.85 912.537 1009.27 924.555 999.915 941.877 C 979.515 948.046 962.048 961.409 950.758 979.485 C 935.921 983.992 912.001 1010.58 905.871 1024.99 C 904.58 1028.02 902.969 1031.55 900.482 1031.41 L 899.885 1030.85 z" fill="rgb(251,251,250)" transform="translate(0,0)"></path>
<path d="M 1120.07 750.153 C 1135.04 754.951 1147.36 758.912 1161.71 765.728 C 1211.89 789.956 1252.98 829.621 1278.97 878.908 C 1285.25 891.048 1290.26 902.883 1295.26 915.57 C 1276.38 918.789 1257.49 921.905 1238.58 924.916 C 1238.48 933.656 1238.78 948.288 1238.18 956.563 C 1239.23 974.661 1238.81 996.048 1238.8 1014.38 L 1238.13 1126.95 L 1237.38 1126.9 C 1232.95 1125.59 1199.91 1126.6 1192.76 1126.73 C 1180.55 1158.95 1155.48 1186.83 1120.05 1192.49 L 1120.03 1125.46 C 1144.11 1126.04 1168.2 1126.15 1192.29 1125.8 C 1191.48 1116.03 1192.45 1092.11 1192.57 1081.27 C 1192.89 1048.93 1193.05 1016.58 1193.03 984.231 C 1193.05 967.167 1193.77 941.927 1192.07 925.679 C 1206.34 924.732 1224.49 925.112 1239.06 925.046 C 1225.43 879.408 1201.07 845.205 1158.66 822.274 C 1146.59 815.721 1133.76 810.637 1120.48 807.131 C 1120.27 788.83 1119.58 768.285 1120.07 750.153 z" fill="rgb(251,251,250)" transform="translate(0,0)"></path>
<path d="M 1238.18 956.563 C 1239.23 974.661 1238.81 996.048 1238.8 1014.38 L 1238.13 1126.95 L 1237.38 1126.9 C 1232.95 1125.59 1199.91 1126.6 1192.76 1126.73 C 1180.55 1158.95 1155.48 1186.83 1120.05 1192.49 L 1120.03 1125.46 C 1144.11 1126.04 1168.2 1126.15 1192.29 1125.8 L 1193.14 1125.56 C 1214.21 1103.08 1232.39 1040.57 1237.54 1010 C 1238.78 1002.66 1237.28 969.112 1238.08 957.887 L 1238.18 956.563 z" fill="rgb(192,191,191)" transform="translate(0,0)"></path>
<path d="M 809.432 1126.39 C 810.953 1126.03 810.025 1126.12 812.226 1126.52 C 826.179 1182.55 872.865 1229.3 929.579 1241.38 C 929.732 1260.85 929.766 1280.32 929.682 1299.79 C 916.265 1295.36 906.474 1291.71 893.731 1285.64 C 830.652 1257.79 776.059 1199.27 755.63 1132.99 C 774.425 1130.99 790.621 1129.17 809.432 1126.39 z" fill="rgb(192,191,191)" transform="translate(0,0)"></path>
<path d="M 926.411 750.914 L 927.909 750.846 C 930.422 754.599 929.202 799.612 929.157 807.447 C 872.95 819.617 822.176 868.76 811.497 925.695 C 798.225 923.926 781.542 920.526 768.003 918.285 C 763.599 917.426 759.42 917.079 754.966 916.619 C 786.522 830.378 841.359 780.998 926.411 750.914 z" fill="rgb(251,251,250)" transform="translate(0,0)"></path>
<path d="M 1238.13 1126.95 C 1250.47 1127.43 1280.87 1132.22 1294.81 1134.01 C 1291.83 1141.6 1288.66 1149.12 1285.3 1156.56 C 1251.03 1231.35 1195.41 1272.9 1120.51 1300.99 L 1120.33 1242.43 C 1177.41 1227.65 1223.76 1185.17 1237.38 1126.9 L 1238.13 1126.95 z" fill="rgb(192,191,191)" transform="translate(0,0)"></path>
<path d="M 812.129 925.807 C 827.093 925.621 842.059 925.581 857.024 925.687 L 857.316 1126 C 842.578 1126.1 827.406 1125.74 812.635 1125.55 C 811.042 1060.9 811.862 990.666 812.129 925.807 z" fill="rgb(192,191,191)" transform="translate(0,0)"></path>
<path d="M 929.856 1191.95 C 992.082 1195.12 1055.63 1191.94 1117.98 1192.82 C 1119.64 1192.84 1119.21 1193.14 1120.4 1194.47 C 1119.71 1209.11 1120.43 1223.7 1119.79 1238.02 L 977.343 1236.99 C 961.679 1237.13 945.93 1237.94 929.989 1238.03 C 929.733 1222.83 929.892 1207.18 929.856 1191.95 z" fill="rgb(251,251,250)" transform="translate(0,0)"></path>
<path d="M 977.343 1236.99 C 984.661 1233.61 1015.72 1228.81 1026.41 1226.55 C 1054.46 1220.63 1095.42 1207.88 1120.4 1194.47 C 1119.71 1209.11 1120.43 1223.7 1119.79 1238.02 L 977.343 1236.99 z" fill="rgb(192,191,191)" transform="translate(0,0)"></path>
<path d="M 1058.3 813.956 C 1078.9 813.359 1099.49 813.065 1120.09 813.074 C 1120.18 827.727 1120.11 842.38 1119.87 857.032 C 1103.03 856.894 932.994 857.565 930.114 856.295 L 929.586 855.352 C 930.341 842.869 929.958 826.157 930.034 813.361 C 972.834 814.004 1015.05 812.618 1058.3 813.956 z" fill="rgb(251,251,250)" transform="translate(0,0)"></path>
<path d="M 930.034 813.361 C 972.834 814.004 1015.05 812.618 1058.3 813.956 C 1057.48 814.702 1056.66 815.449 1055.84 816.195 C 1045.29 819.03 1029.07 821.385 1019.08 823.611 C 998.463 828.205 945.617 845.224 929.586 855.352 C 930.341 842.869 929.958 826.157 930.034 813.361 z" fill="rgb(192,191,191)" transform="translate(0,0)"></path>
<path d="M 1255.42 933.697 C 1274.59 939.577 1291.62 950.94 1304.41 966.384 C 1320.13 985.628 1327.45 1010.39 1324.71 1035.08 C 1321.77 1061.66 1307.77 1083.47 1287.32 1100.07 C 1276.15 1108.39 1266.92 1112.17 1253.94 1116.73 C 1264.79 1103.29 1270.82 1089.24 1274.8 1072.51 C 1286.42 1023.58 1281.28 976.891 1255.42 933.697 z" fill="rgb(192,191,191)" transform="translate(0,0)"></path>
<path d="M 791.317 934.879 L 792.146 935.154 C 792.995 937.218 789.931 941.53 788.71 943.823 C 767.968 982.802 763.03 1030.66 775.267 1073.09 C 779.717 1088.52 787.114 1102.98 794.76 1117.21 C 783.693 1112.65 775.884 1108.73 765.722 1102.51 C 750.479 1091.39 739.442 1078.22 731.905 1060.82 C 722.272 1038.95 721.958 1014.11 731.036 992.001 C 743.117 962.371 762.703 946.919 791.317 934.879 z" fill="rgb(251,251,250)" transform="translate(0,0)"></path>
<path d="M 1017.09 722.388 C 1059.53 719.273 1092.52 745.477 1106.69 784.364 C 1080.68 771.875 1060.33 769.438 1031.78 767.425 C 997.724 765.889 973.929 770.027 943.423 783.952 C 947.205 772.936 952.839 762.647 960.082 753.527 C 974.591 735.479 994.167 724.919 1017.09 722.388 z" fill="rgb(251,251,250)" transform="translate(0,0)"></path>
<path d="M 943.532 1266.64 C 998.118 1289.14 1052.17 1287.3 1106.76 1267 C 1101.31 1279.58 1098.53 1284.24 1090.29 1295.09 C 1079.8 1307.59 1069.21 1316.16 1053.76 1322.02 C 1033.01 1329.97 1009.92 1329.05 989.872 1319.47 C 967.217 1308.93 952.109 1289.74 943.532 1266.64 z" fill="rgb(192,191,191)" transform="translate(0,0)"></path>
<path d="M 927.245 857.991 C 929.626 858.316 929.61 858.327 929.598 860.944 C 929.496 882.543 930.251 904.364 929.497 925.94 C 906.581 926.103 883.665 926.116 860.75 925.979 C 860.279 925.945 858.895 926.086 858.435 925.507 C 858.22 923.748 865.37 908.121 866.734 905.539 C 879.843 880.73 901.121 866.15 927.245 857.991 z" fill="rgb(192,191,191)" transform="translate(0,0)"></path>
<path d="M 1120 859.3 C 1144.37 865.199 1168.06 880.849 1180.99 902.516 C 1186.88 912.399 1187.79 916.088 1192.07 925.679 C 1176.5 927.093 1137.52 926.01 1120.83 925.894 C 1119.97 903.707 1119.7 881.501 1120 859.3 z" fill="rgb(251,251,250)" transform="translate(0,0)"></path>
<path d="M 857.919 1126.01 C 882.076 1126.47 905.631 1126.02 929.71 1126.01 L 929.601 1191.22 C 895.557 1185.3 869.585 1157.27 857.919 1126.01 z" fill="rgb(192,191,191)" transform="translate(0,0)"></path>
<metadata><recraft-signature>{"signed_by": "recraft", "signature_b64": "ZJvFpMtQ2QNWQYBQMcvnQCeB0oghPNMAwNVYa3cqNKNPoHE8AM3YF/vurWA0lBI6FiP4OJS659TgTOPBQ3W6BA==", "signing_algo": "Ed25519", "generation_timestamp": 1772807446, "identifier": "66cdbfd8-6c8c-4e9c-8e9f-f3f8170a0023"}</recraft-signature></metadata></svg>