<svg xmlns="http://www.w3.org/2000/svg" height="1024" preserveAspectRatio="none" style="display: block;" version="1.1" viewBox="0 0 2048 2048" width="1024">
<path d="M 0 0 L 2048 0 L 2048 2048 L 0 2048 L 0 0 z" fill="rgb(251,250,250)" transform="translate(0,0)"></path>
<path d="M 790.807 261.413 C 794.615 261.058 798.717 261.062 802.552 261.039 C 853.493 260.853 902.372 281.145 938.205 317.354 C 967.895 346.927 986.643 385.719 991.368 427.358 C 992.935 442.295 992.504 463.237 992.547 478.518 L 992.825 548.359 C 1015.07 548.283 1037.31 548.035 1059.55 547.617 C 1062.43 480.924 1050.12 416.419 1084.42 357.105 C 1110.04 313.012 1152.17 280.945 1201.5 268.001 C 1293.76 243.978 1390.05 288.992 1426.37 378.905 C 1432.17 393.28 1435.68 409.024 1439.58 424.046 C 1450.79 425.556 1462.2 425.951 1473.37 428.068 C 1588.04 449.794 1653.04 536.604 1670.76 646.08 C 1720.14 668.244 1763 715.208 1770.72 770.197 C 1775.26 802.581 1773.6 841.981 1773.65 875.155 L 1773.96 1046.51 L 1773.44 1295.08 C 1773.16 1338.41 1775.36 1396.97 1768.25 1438.18 C 1758.29 1494.68 1735.97 1548.27 1702.89 1595.14 C 1644.8 1675.88 1555.23 1735.87 1456.47 1751.79 C 1413.83 1759.55 1343.43 1757.04 1297.93 1757.01 L 1060.74 1756.98 L 1060.3 1670.13 L 992.188 1670.18 C 991.953 1698.85 992.472 1728.28 992.651 1757 L 782.616 1756.99 L 697.889 1757.02 C 642.821 1757.07 599.79 1757.43 546.299 1740.12 C 451.83 1709.56 368.882 1639.24 323.135 1551.58 C 302.274 1512.55 288.609 1470.08 282.792 1426.21 C 278.504 1392.53 279.328 1345.23 279.335 1310.62 L 279.246 1152.46 L 279.261 926.693 C 279.134 881.919 278.612 836.757 279.421 792.044 C 280.178 750.163 299.547 710.781 329.414 682.011 C 346.167 665.874 362.1 656.395 382.646 645.969 C 386.887 595.544 411.193 540.608 445.241 503.213 C 488.278 455.425 548.791 427.043 613.052 424.505 C 620.497 393.492 627.748 367.332 646.675 340.842 C 681.475 292.139 732.123 266.005 790.807 261.413 z" fill="rgb(40,33,140)" transform="translate(0,0)"></path>
<path d="M 793.27 825.51 C 823.855 824.376 863.319 824.904 894.112 825.444 C 895.82 952.123 894.819 1080.73 894.907 1207.56 C 815.191 1207.04 735.472 1207.03 655.756 1207.53 C 655.458 1239.76 655.839 1272.61 655.887 1304.89 L 731.908 1305.09 L 732.071 1484.02 L 661.378 1484.07 C 661.242 1443.66 661.367 1403.26 661.752 1362.85 L 449.718 1362.91 L 449.776 1459.73 L 560.75 1459.5 L 569.044 1459.48 L 568.621 1642.55 C 523.843 1623.59 495.948 1608.97 460.633 1573.91 C 416.057 1529.66 383.769 1467.76 379.673 1404.65 C 377.746 1374.95 378.729 1336.61 378.787 1305.93 C 430.179 1303.53 451.575 1305.83 502.611 1284.33 C 569.593 1255.38 622.535 1201.29 650.049 1133.7 C 706.821 1132.33 771.071 1133.95 828.452 1134.09 L 828.47 1026.81 C 828.262 988.523 828.401 951.486 820.756 913.775 C 814.622 883.52 803.468 855.827 793.51 826.827 C 793.43 826.388 793.35 825.949 793.27 825.51 z" fill="rgb(251,250,250)" transform="translate(0,0)"></path>
<path d="M 1158 824.941 C 1189.54 823.886 1226.22 824.854 1258.17 825.133 C 1225.3 900.645 1223.76 954.931 1223.48 1034.78 L 1223.18 1133.79 C 1282.32 1133.48 1341.47 1133.64 1400.62 1134.28 C 1418.49 1171.92 1429.56 1192.34 1460.01 1223 C 1505.17 1268.49 1559.74 1296.26 1623.68 1303.4 C 1641.02 1305.34 1655.64 1305.16 1673.07 1305.17 C 1673.12 1373.12 1678.05 1431.09 1647.58 1494.28 C 1612.05 1567.94 1558.65 1614.13 1483.36 1641.92 C 1482.65 1608.49 1483.3 1573.08 1483.38 1539.5 L 1483.31 1459.76 L 1601.92 1459.79 L 1601.9 1362.78 C 1531.68 1361.63 1457.71 1362.98 1387.11 1362.92 L 1387.36 1484.14 L 1317.74 1484.02 L 1317.95 1305.03 L 1404.02 1305.02 C 1403.73 1272.38 1403.74 1239.73 1404.04 1207.08 C 1322.11 1207.87 1240.18 1208.06 1158.24 1207.65 L 1158 824.941 z" fill="rgb(251,250,250)" transform="translate(0,0)"></path>
<path d="M 789.636 361.318 C 818.572 358.305 848.133 367.524 868.745 388.483 C 880.28 400.045 888.229 414.693 891.638 430.665 C 896.018 451.374 894.671 512.63 894.698 537.012 L 894.702 729.899 L 720.828 729.835 C 710.921 718.834 696.47 707.139 684.732 698.005 C 626.522 652.709 560.182 630.269 486.735 627.214 C 489.395 617.475 494.225 608.248 498.765 599.275 C 504.976 588.339 512.465 578.18 521.075 569.011 C 544.878 543.473 577.38 527.084 612.544 526.122 C 642.822 525.345 672.136 536.804 693.86 557.91 C 722.445 585.158 732.921 615.723 733.959 654.387 C 765.426 653.761 799.277 654.47 830.912 654.729 C 830.936 628.945 828.62 607.298 821.642 582.34 C 809.273 538.316 783.003 499.47 746.75 471.597 C 734.203 462.119 722.062 455.384 708.46 447.723 C 709.534 429.985 715.639 412.919 726.061 398.525 C 741.629 377.097 763.821 365.244 789.636 361.318 z" fill="rgb(251,250,250)" transform="translate(0,0)"></path>
<path d="M 1247.31 360.418 C 1266.48 358.675 1291.9 366.658 1307.24 378.2 C 1331.64 396.565 1341.62 417.788 1346.46 446.943 C 1323.79 459.658 1302.97 471.207 1284.36 489.949 C 1236.99 537.665 1221.12 589.053 1220.5 654.479 L 1316.99 654.926 C 1316.98 648.641 1317.29 640.857 1318.05 634.636 C 1322.32 601.255 1339.75 570.963 1366.46 550.486 C 1391.28 531.373 1422.73 523.025 1453.76 527.315 C 1491.81 532.452 1522.26 555.304 1545.19 585.031 C 1556.34 601.309 1560.33 609.039 1566.35 627.851 C 1477.84 627.672 1391.98 668.302 1329.57 729.944 C 1273.98 729.96 1213.36 731.057 1158.1 729.392 L 1158.01 536.504 L 1158.2 478.989 C 1158.28 464.708 1157.58 448.485 1160.3 434.571 C 1168.88 390.66 1204.56 363.853 1247.31 360.418 z" fill="rgb(251,250,250)" transform="translate(0,0)"></path>
<path d="M 463.695 919.369 C 525.052 914.549 571.865 957.344 572.999 1019.37 C 574.382 1094.98 537.212 1153.54 471.036 1189.8 C 437.663 1206.02 413.967 1207.99 377.976 1208.15 L 377.838 1073.33 C 377.796 1054.73 376.581 1013.86 379.557 997.529 C 382.258 982.638 388.482 968.609 397.71 956.614 C 414.402 934.786 436.739 922.892 463.695 919.369 z" fill="rgb(251,250,250)" transform="translate(0,0)"></path>
<path d="M 1566.61 919.36 C 1594.72 915.06 1624.62 927.471 1644.29 947.279 C 1656.61 959.625 1665.34 975.089 1669.55 992.016 C 1674.4 1011.93 1673.06 1054.8 1673.09 1077.06 L 1672.94 1207.39 C 1643.7 1207.46 1626.88 1206.34 1598.76 1197.29 C 1536.77 1174.49 1490.9 1120.57 1480.52 1054.88 C 1470.14 989.206 1494.66 929.084 1566.61 919.36 z" fill="rgb(251,250,250)" transform="translate(0,0)"></path>
<path d="M 1552.54 728.409 C 1602.32 723.709 1671.04 739.169 1673.25 801.373 C 1673.79 816.54 1673.19 832.166 1673.02 847.378 C 1662.08 841.326 1652.03 835.927 1640.27 831.585 C 1593.53 814.367 1541.88 816.287 1496.54 836.928 C 1442.8 861.852 1408.86 901.781 1388.87 956.833 C 1380.33 986.745 1381.04 1006.45 1381.1 1037.22 L 1317.94 1037.01 C 1317.92 1013.13 1317.33 986.963 1319.49 963.409 C 1324.67 909.891 1346.1 859.24 1380.91 818.26 C 1423.98 766.786 1485.69 734.477 1552.54 728.409 z" fill="rgb(251,250,250)" transform="translate(0,0)"></path>
<path d="M 470.36 728.413 C 536.221 721.728 608.093 755.083 654.003 800.822 C 698.328 845.341 725.506 904.085 730.741 966.689 C 732.751 988.866 732.128 1014.52 732.128 1037.05 L 669.913 1037.18 C 669.91 1019.31 669.98 1006.6 667.645 988.776 C 664.413 964.116 656.477 940.306 644.269 918.638 C 619.271 873.697 577.405 840.563 527.923 826.559 C 476.976 812.403 425.518 820.137 379.855 846.119 C 379.584 816.512 375.324 781.271 395.723 758.698 C 415.816 736.463 442.047 730.609 470.36 728.413 z" fill="rgb(251,250,250)" transform="translate(0,0)"></path>
<path d="M 828.052 1305.03 C 849.739 1305.08 872.961 1304.73 894.52 1305.61 L 894.611 1655.09 L 727.676 1655.53 L 660.959 1655.63 L 660.957 1579.31 C 715.283 1578.76 773.376 1580.08 828.075 1580.32 L 828.052 1305.03 z" fill="rgb(251,250,250)" transform="translate(0,0)"></path>
<path d="M 1158.04 1305.13 C 1179.57 1304.72 1202.35 1305.06 1223.98 1305.05 L 1223.93 1579.97 L 1387.22 1579.68 C 1387.35 1600.29 1388.6 1636.17 1387.06 1655.49 C 1310.77 1655.85 1234.46 1655.7 1158.17 1655.04 L 1158.04 1305.13 z" fill="rgb(251,250,250)" transform="translate(0,0)"></path>
<path d="M 992.547 645.769 L 1060 645.943 C 1060.37 724.88 1060.32 803.819 1059.84 882.756 L 992.738 882.866 C 992.818 803.717 991.804 724.914 992.547 645.769 z" fill="rgb(251,250,250)" transform="translate(0,0)"></path>
<path d="M 992.831 978.927 C 1014.99 978.434 1038.22 978.785 1060.41 978.957 C 1061.08 1005.25 1060.62 1033.36 1060.64 1059.75 L 1060.74 1209.15 C 1038.95 1209.71 1014.66 1209.18 992.684 1209.17 L 992.831 978.927 z" fill="rgb(251,250,250)" transform="translate(0,0)"></path>
<path d="M 1003.18 1305.5 C 1021.62 1305.25 1041.99 1304.89 1060.32 1305.42 C 1060.34 1314.33 1061.15 1388.98 1059.56 1390.49 C 1058.22 1391.76 1050.85 1390.99 1048.87 1390.99 C 1030.14 1391.05 1011.4 1390.98 992.675 1390.78 C 992.425 1362.46 992.32 1334.14 992.36 1305.82 C 996.042 1305.62 999.499 1305.56 1003.18 1305.5 z" fill="rgb(251,250,250)" transform="translate(0,0)"></path>
<path d="M 992.34 1488.49 C 1012.84 1487.78 1039.39 1488.1 1060.02 1488.68 C 1060.11 1516.1 1060.74 1546.65 1059.97 1573.82 L 992.407 1574.05 C 991.837 1548.88 991.343 1513.11 992.34 1488.49 z" fill="rgb(251,250,250)" transform="translate(0,0)"></path>
<metadata><recraft-signature>{"signed_by": "recraft", "signature_b64": "oboGMtMV3x7S0qgkAuHvVB15ChAjizgeaVLaC+y1mPBGe45ge2LUQXEQbl+Kj52KLGeF7pRi0JDpR8++5E27CQ==", "signing_algo": "Ed25519", "generation_timestamp": 1772807538, "identifier": "c596712a-577c-4269-a33e-774dc8a685d9"}</recraft-signature></metadata></svg>