<svg xmlns="http://www.w3.org/2000/svg" height="1024" preserveAspectRatio="none" style="display: block;" version="1.1" viewBox="0 0 2048 2048" width="1024">
<path d="M 0 0 L 2048 0 L 2048 2048 L 0 2048 L 0 0 z" fill="rgb(238,237,241)" transform="translate(0,0)"></path>
<path d="M 997.599 99.4281 C 1008.35 98.2014 1024.17 98.5928 1035.13 98.8914 C 1276.81 105.475 1469.34 264.439 1541.78 489.786 C 1463.47 468.458 1362.68 469.35 1284.25 489.574 C 1257.11 496.573 1232.52 505.727 1206.44 515.685 C 1157.11 498.047 1105.54 487.42 1053.25 484.115 C 972.028 481.921 921.533 489.201 843.418 515.254 C 815.616 505.313 784.089 494.414 755.388 487.713 C 676.886 469.385 584.027 469.193 505.803 489.806 C 532.628 408.725 566.375 344.351 623.672 279.68 C 719.41 172.294 853.956 107.436 997.599 99.4281 z" fill="rgb(32,15,120)" transform="translate(0,0)"></path>
<path d="M 1204.76 1533.21 C 1217.79 1539.21 1245.42 1547.45 1259.81 1551.78 C 1353.24 1579.91 1446.29 1580.73 1541.26 1559.08 C 1539.27 1565.75 1537.11 1572.37 1534.8 1578.93 C 1485.92 1718.83 1383.52 1833.62 1250.09 1898.08 C 1233.5 1906.11 1214.24 1913.26 1196.73 1919.2 C 1076.41 1960.01 961.351 1957.87 842.256 1916.44 C 824.279 1909.49 807.062 1902.6 789.681 1894.15 C 684.512 1843.06 597.067 1754.98 543.601 1651.26 C 527.693 1620.41 516.494 1590.51 505.108 1557.91 C 593.812 1582.82 708.058 1577.83 795.67 1550.19 C 811.592 1545.17 827.16 1540.83 842.314 1533.75 C 937.228 1567.11 1039.56 1573.35 1137.83 1551.77 C 1161.14 1546.69 1181.96 1540.15 1204.76 1533.21 z" fill="rgb(32,15,120)" transform="translate(0,0)"></path>
<path d="M 1170.94 73.1106 L 1390.68 72.9149 C 1434.77 72.9207 1491.64 71.1733 1534 75.0086 C 1643.27 85.1958 1745.63 132.983 1823.6 210.217 C 1914.75 299.861 1961.04 417.245 1962.02 544.428 L 1961.94 727.151 C 1962.09 765.781 1963.72 817.658 1961.85 855.574 C 1962.17 864.964 1961.74 874.142 1962.3 883.54 L 1960.42 884.238 C 1960.09 882.394 1959.69 880.669 1959.35 878.829 C 1947.96 844.159 1937.19 815.38 1920.51 782.692 C 1856.53 657.284 1726.89 548.409 1592.99 505.135 C 1576 444.407 1561.48 403.969 1528.98 348.733 C 1450.8 213.862 1322.2 115.612 1171.52 75.6366 L 1170.94 73.1106 z" fill="rgb(32,15,120)" transform="translate(0,0)"></path>
<path d="M 1959.35 878.829 C 1961.94 874.279 1960.66 863.42 1961.85 855.574 C 1962.17 864.964 1961.74 874.142 1962.3 883.54 L 1960.42 884.238 C 1960.09 882.394 1959.69 880.669 1959.35 878.829 z" fill="rgb(62,45,140)" transform="translate(0,0)"></path>
<path d="M 1960.37 1163.48 L 1962.18 1163.99 C 1961.58 1176.18 1962.31 1188.89 1961.85 1201.14 C 1962.25 1269.77 1962.23 1338.4 1961.8 1407.03 C 1961.88 1433.67 1961.21 1461.71 1961.98 1488.17 C 1965.84 1621.09 1919.11 1740.45 1826.32 1835.2 C 1736.68 1924.94 1615.16 1975.55 1488.32 1975.96 L 1301.07 1975.82 C 1275.39 1977.36 1243.2 1975.3 1216.82 1975.99 C 1208.05 1976.22 1171.01 1976.41 1163.73 1975.37 L 1163.34 1974.53 L 1167.13 1973.54 C 1381.74 1916.23 1535.92 1759.38 1592.58 1544.92 C 1628.29 1531.76 1648.24 1523.57 1682.1 1505.83 C 1794.66 1445.93 1883.93 1350.09 1935.71 1233.57 C 1945.52 1211.34 1952.15 1191.05 1959.35 1167.94 C 1959.68 1166.16 1959.9 1165.26 1960.37 1163.48 z" fill="rgb(32,15,120)" transform="translate(0,0)"></path>
<path d="M 1301.07 1975.82 C 1275.39 1977.36 1243.2 1975.3 1216.82 1975.99 C 1208.05 1976.22 1171.01 1976.41 1163.73 1975.37 L 1163.34 1974.53 L 1167.13 1973.54 C 1172.62 1976.75 1283.87 1974.44 1301.07 1975.82 z" fill="rgb(117,108,161)" transform="translate(0,0)"></path>
<path d="M 1960.37 1163.48 L 1962.18 1163.99 C 1961.58 1176.18 1962.31 1188.89 1961.85 1201.14 C 1960.48 1191.7 1962.37 1172.29 1959.35 1167.94 C 1959.68 1166.16 1959.9 1165.26 1960.37 1163.48 z" fill="rgb(62,45,140)" transform="translate(0,0)"></path>
<path d="M 85.9552 1156.75 C 86.9639 1159.86 88.2531 1162.97 88.6947 1166.18 C 131.955 1311.37 231.407 1433.27 364.955 1504.8 C 395.347 1521 420.741 1531.57 453.364 1543.12 C 462.058 1573.49 472.333 1606.76 484.877 1635.78 C 537.759 1756.72 629.166 1856.76 744.849 1920.32 C 785.68 1942.59 828.997 1959.96 873.9 1972.07 L 873.357 1975.29 C 854.161 1975.04 833.518 1975.77 814.1 1975.83 L 647.754 1975.86 C 615.913 1975.84 582.104 1976.39 550.399 1975.51 C 421.258 1972.93 298.673 1918.14 210.622 1823.63 C 139.499 1747.4 96.2198 1649.38 87.8063 1545.46 C 86.3937 1527.56 86.7335 1507.93 86.6907 1489.87 L 86.5953 1408.19 C 86.58 1346.46 85.1179 1278.5 86.8466 1217.43 C 85.3963 1202.87 85.9469 1172.64 85.9552 1156.75 z" fill="rgb(32,15,120)" transform="translate(0,0)"></path>
<path d="M 85.9552 1156.75 C 86.9639 1159.86 88.2531 1162.97 88.6947 1166.18 C 85.7941 1171.38 88.0834 1206.72 86.8466 1217.43 C 85.3963 1202.87 85.9469 1172.64 85.9552 1156.75 z" fill="rgb(62,45,140)" transform="translate(0,0)"></path>
<path d="M 86.9846 877.741 C 87.0657 853.188 86.9293 828.635 86.5755 804.084 L 86.4978 624.682 C 86.4619 588.055 84.9822 541.215 87.8288 505.826 C 95.5235 396.681 141.849 293.847 218.498 215.766 C 299.036 134.087 406.131 83.9057 520.435 74.2888 C 555.471 71.3139 611.112 72.8978 647.519 72.9129 L 868.931 72.8619 L 870.001 76.0959 C 716.257 119.128 586.487 222.575 510.268 362.859 C 488.51 402.202 464.226 462.003 453.93 505.969 C 285.55 559.211 136.432 707.704 89.8285 879.075 L 86.9846 877.741 z" fill="rgb(32,15,120)" transform="translate(0,0)"></path>
<path d="M 1200.73 561.878 C 1207.08 563.092 1225.12 571.358 1231.86 574.379 C 1279.65 595.789 1313.31 617.752 1352.88 651.999 C 1424.19 713.931 1475.12 795.97 1498.99 887.357 C 1509.26 928.032 1512.25 957.272 1515.2 998.352 L 1530.47 1004.63 C 1511.35 1030.69 1476.46 1032.8 1450.67 1015.61 C 1441.74 1009.66 1434.24 1000.23 1425.32 994.509 C 1412.24 986.128 1398.42 981.829 1383.25 979.324 C 1308.52 971.716 1310.92 1020.11 1257.06 1023.37 C 1226.88 1025.2 1219.38 1005.3 1196.95 992.435 C 1180.43 982.963 1163.39 980.778 1144.65 980.822 C 1146.07 962.292 1148.33 948.721 1147.8 929.486 C 1145.04 830.469 1108.33 752.78 1053.44 673.128 C 1097.01 624.391 1141.55 589.524 1200.73 561.878 z" fill="rgb(32,15,120)" transform="translate(0,0)"></path>
<path d="M 562.276 1026.36 C 603.737 1022.09 615.551 1060.61 651.929 1069.92 C 678.463 1076.7 708.409 1075.41 731.981 1060.11 C 754.813 1045.29 761.546 1029.34 791.458 1028.39 C 829.195 1027.19 840.756 1059.84 873.485 1070.09 C 882.736 1073.01 889.418 1073.4 899.158 1073.95 C 898.874 1093.57 896.527 1106.71 897.921 1127.85 C 904.258 1223.94 938.868 1301.03 995.236 1377.15 C 978.763 1394.96 961.106 1411.63 942.385 1427.05 C 908.262 1453.88 881.994 1468.57 844.268 1488.34 C 777.905 1459.85 732.085 1436.98 678.629 1385.96 C 588.312 1300.05 536.36 1181.41 534.477 1056.78 C 529.87 1054.17 525.303 1051.02 520.87 1048.09 C 533.453 1034.05 543.479 1028.55 562.276 1026.36 z" fill="rgb(32,15,120)" transform="translate(0,0)"></path>
<path d="M 441.968 558.047 C 443.773 560.838 439.865 588.019 439.41 593.178 C 438.308 607.019 437.555 620.885 437.151 634.764 C 436.573 656.062 438.007 683.224 440.301 704.376 C 446.439 763.892 461.741 822.101 485.665 876.942 C 494.594 897.541 507.987 920.96 515.672 940.747 L 516.235 942.216 C 506.57 962.717 502.994 987.051 495.652 1008.26 C 491.35 1011.86 488.398 1014.21 483.492 1016.99 C 473.206 1022.87 461.56 1025.95 449.712 1025.93 C 403.293 1026.29 399.67 992.724 358.512 982.248 C 331.068 975.262 296.515 977.48 273.423 995.239 C 261.562 1004.36 256.284 1011.33 242.729 1019.09 C 221.243 1027.7 196.521 1028.7 178.118 1013.37 C 157.072 995.842 146.842 984.978 118.973 979.351 C 121.568 936.559 133.902 888.914 149.406 848.85 C 188.402 750.773 256.57 667.033 344.696 608.95 C 378.742 586.762 405.474 574.2 441.968 558.047 z" fill="rgb(32,15,120)" transform="translate(0,0)"></path>
<path d="M 1596.54 1026.25 C 1630.92 1023.72 1639.44 1038.59 1663.25 1057.04 C 1693.18 1080.21 1746.39 1079.97 1776.75 1057.8 C 1783.4 1052.94 1790.22 1046.34 1796.87 1041.02 C 1815.5 1026.01 1841.52 1024.2 1862.04 1036.49 C 1888.01 1051.69 1893.4 1068.48 1929.26 1072.34 C 1928.74 1092.74 1923.16 1119.89 1918.23 1139.73 C 1901.25 1207.05 1870.35 1270.07 1827.51 1324.72 C 1814.75 1340.88 1801.41 1354.95 1787.35 1369.95 C 1731.52 1428.32 1677.83 1460.29 1604.26 1490.44 C 1628.07 1356.24 1594.23 1230.21 1534.98 1110.17 C 1538.2 1102.82 1542.57 1092.59 1544.56 1084.94 C 1553.65 1049.99 1555.67 1033.11 1596.54 1026.25 z" fill="rgb(32,15,120)" transform="translate(0,0)"></path>
<path d="M 1604.72 557.85 C 1796.27 630.161 1933.15 819.043 1932.74 1025.01 C 1895.77 1010.9 1897.93 992.25 1859.21 981.448 C 1830.29 974.417 1794.88 977.075 1772.12 997.646 C 1752.77 1015.13 1745.52 1025.42 1716.73 1025.22 C 1683.42 1024.99 1672.15 998.134 1644.28 985.828 C 1614.41 972.638 1586.96 975.874 1557.15 986.978 C 1557.22 967.987 1554.11 927.788 1548.96 909.568 C 1591.55 819.865 1613.69 730.427 1611.17 630.646 C 1610.55 606.39 1607.56 581.945 1604.72 557.85 z" fill="rgb(32,15,120)" transform="translate(0,0)"></path>
<path d="M 116.504 1028.25 C 134.79 1037.15 151.482 1058.17 173.923 1066.9 C 204.967 1078.98 240.953 1077.97 268.861 1058.52 C 281.342 1049.81 286.613 1041.2 302.173 1034.58 C 311.86 1030.46 322.316 1028.45 332.84 1028.7 C 370.547 1029.39 374.772 1054.19 407.134 1065.95 C 436.031 1076.44 465.622 1077.39 493.822 1064.86 C 493.894 1092.73 494.692 1112.59 498.097 1140.33 C 461.93 1215.5 439.041 1296.86 436.921 1380.63 C 435.77 1415.79 436.438 1456.43 443.616 1490.99 C 374.741 1464.7 312.44 1423.69 261.065 1370.82 C 171.857 1279.63 114.97 1156.93 116.504 1028.25 z" fill="rgb(32,15,120)" transform="translate(0,0)"></path>
<path d="M 1135.21 1015.78 C 1151.74 1022.68 1168.94 1028.07 1183.66 1038.69 C 1191.4 1044.27 1198.2 1051.03 1205.78 1056.81 C 1218.28 1066.33 1233.21 1071.35 1248.75 1073.1 C 1314.39 1080.48 1320.62 1034.36 1362 1029.02 C 1394.11 1024.87 1404.85 1040.36 1427.56 1057.8 C 1448.31 1073.72 1476.11 1077.18 1501.34 1073.67 C 1498.04 1083.94 1491.03 1099.42 1486.09 1109.31 C 1449.66 1182.51 1385.92 1238.45 1308.62 1265.07 C 1169.34 1310.61 1008.96 1254.64 951.318 1112.42 C 946.278 1099.98 947.82 1060.48 955.601 1049.36 C 983.29 1010.78 1005.61 1048.68 1030.27 1062.4 C 1074.18 1086.84 1115.52 1052.62 1135.21 1015.78 z" fill="rgb(32,15,120)" transform="translate(0,0)"></path>
<path d="M 827.786 773.428 C 883.871 768.631 946.015 786.103 994.619 816.193 C 1039.68 844.09 1083.22 891.792 1098.7 944.09 C 1103.72 961.07 1095.29 994.217 1085.34 1009.08 C 1066.36 1036.71 1043.81 1008.73 1026.79 996.6 C 983.922 966.038 943.25 984.925 916.298 1023.34 C 912.119 1024.29 907.885 1024.97 903.621 1025.38 C 875.7 1028.28 866.534 1011.85 847.269 996.428 C 809.47 972.973 772.644 971.789 734.36 997.255 C 717.141 1008.71 708.783 1023.92 684.722 1026.05 C 652.077 1028.94 646.339 1014.46 625.695 997.619 C 604.982 980.719 577.027 978.441 551.48 981.387 C 564.817 942.174 584.561 910.564 611.611 879.64 C 666.545 816.724 744.415 778.465 827.786 773.428 z" fill="rgb(32,15,120)" transform="translate(0,0)"></path>
<path d="M 845.72 562.036 C 849.334 562.705 850.219 563.277 853.581 564.905 C 936.446 605.647 1004.75 670.923 1049.21 751.856 C 1063.63 778.564 1072.37 800.824 1082.28 829.289 C 990.009 742.257 887.739 710.534 762.786 736.737 C 683.52 757.156 605.813 805.521 558.672 873.525 C 565.428 847.271 574.623 821.707 586.135 797.164 C 637.494 685.194 730.95 604.544 845.72 562.036 z" fill="rgb(32,15,120)" transform="translate(0,0)"></path>
<path d="M 1487.82 1192.05 L 1488.42 1192.87 C 1485.93 1203.16 1481.44 1212.45 1477.28 1222.09 C 1424.52 1344.35 1331.49 1437.98 1206.05 1485.82 C 1190.25 1480.42 1170.19 1469.01 1155.67 1460.34 C 1098.87 1426.44 1058.8 1384.75 1021.12 1331.18 C 1001.18 1300.95 975.624 1256.84 965.973 1221.82 C 975.673 1230.89 985.011 1239.55 995.26 1248.01 C 1065.01 1306.03 1155.22 1333.47 1245.46 1324.13 C 1343.62 1314.47 1425.49 1267.52 1487.82 1192.05 z" fill="rgb(32,15,120)" transform="translate(0,0)"></path>
<path d="M 1382.57 520.428 C 1388.98 519.633 1404.79 519.754 1411.65 519.758 C 1460.36 519.625 1508.82 526.508 1555.56 540.196 C 1572.47 631.834 1568.33 748.532 1529.21 834.233 C 1523.48 813.88 1514.99 796.959 1505.94 778.007 C 1455.29 674.293 1371.07 590.749 1266.94 540.947 C 1312.37 529.704 1334.2 523.311 1382.57 520.428 z" fill="rgb(32,15,120)" transform="translate(0,0)"></path>
<path d="M 605.021 520.5 C 658.798 516.418 728.16 525.302 779.57 540.471 C 684.438 589.436 616.773 649.573 562.889 742.473 C 543.329 778.01 534.927 800.695 520.996 838.876 C 509.855 813.205 502.287 784.654 496.28 757.384 C 479.676 681.998 480.493 615.131 494.138 539.509 C 525.766 528.282 571.696 522.276 605.021 520.5 z" fill="rgb(32,15,120)" transform="translate(0,0)"></path>
<path d="M 1528.49 1213.68 C 1532.65 1218.38 1540.46 1246.31 1542.8 1253.88 C 1568.98 1338.53 1570.45 1421.6 1554.53 1508.3 C 1483.93 1533.34 1390.25 1533.39 1317.25 1520.7 C 1301.1 1517.21 1285.13 1512.52 1269.17 1508.13 C 1374.97 1453.23 1446.01 1386.67 1500.86 1278.86 C 1512.74 1255.5 1518.35 1235.9 1528.49 1213.68 z" fill="rgb(32,15,120)" transform="translate(0,0)"></path>
<path d="M 517.025 1214.53 C 519.232 1217.06 530.241 1246.58 532.607 1252.17 C 538.006 1265.08 543.888 1277.79 550.239 1290.26 C 590.663 1367.82 649.282 1430.08 722.965 1476.83 C 740.442 1487.91 759.393 1498.31 777.536 1508.34 C 763.377 1512.45 748.638 1515.85 734.285 1519.34 C 671.995 1531.72 607.937 1532.32 545.429 1521.09 C 528.431 1518.03 510.626 1513.13 493.602 1509.23 C 476.16 1409.47 481.242 1309.96 517.025 1214.53 z" fill="rgb(32,15,120)" transform="translate(0,0)"></path>
<path d="M 1006.77 528.439 C 1048.74 525.31 1102.1 533.56 1143.12 542.008 C 1138.51 545.743 1117.04 558.483 1109.32 563.924 C 1079.8 584.742 1059.42 602.903 1034 628.328 L 1023.61 638.423 C 984.19 596.435 954.584 574.049 907.411 543.158 C 942.526 533.258 970.455 530.275 1006.77 528.439 z" fill="rgb(32,15,120)" transform="translate(0,0)"></path>
<path d="M 1024.38 1412.77 C 1027.47 1414.73 1036.22 1423.56 1039.55 1426.72 C 1048.22 1435.09 1057.13 1443.21 1066.27 1451.07 C 1092.44 1473.23 1114.86 1487.12 1143.55 1505.47 C 1108 1515.26 1064.74 1518.83 1027.95 1519.71 C 983.818 1520.02 949.74 1516.4 907.304 1506.04 C 961.664 1471.85 979.235 1457.08 1024.38 1412.77 z" fill="rgb(32,15,120)" transform="translate(0,0)"></path>
<path d="M 873.9 1972.07 C 875.079 1972.39 882.112 1973.85 882.368 1974.76 L 882.23 1974.66 L 881.618 1975.14 L 881.37 1974.38 L 880.529 1975.3 C 878.57 1975.42 875.391 1975.3 873.357 1975.29 L 873.9 1972.07 z" fill="rgb(62,45,140)" transform="translate(0,0)"></path>
<path d="M 868.931 72.8619 L 874.999 72.854 C 877.492 72.8416 877.084 72.334 878.442 73.5974 L 878.315 73.7002 L 879.229 73.1767 L 879.288 73.3725 C 879.021 73.6561 879.207 73.5071 878.666 73.799 L 878.242 73.1649 L 877.618 74.1564 C 875.067 74.8293 872.544 75.4047 870.001 76.0959 L 868.931 72.8619 z" fill="rgb(62,45,140)" transform="translate(0,0)"></path>
<path d="M 86.9846 877.741 L 89.8285 879.075 C 89.3078 881.117 89.2164 882.016 88.9654 884.081 L 86.805 885.891 C 86.9247 883.176 86.9846 880.459 86.9846 877.741 z" fill="rgb(62,45,140)" transform="translate(0,0)"></path>
<path d="M 1962.3 883.54 C 1962.87 885.372 1963.69 889.88 1962.51 891.381 C 1961.14 889.971 1960.73 886.076 1960.42 884.238 L 1962.3 883.54 z" fill="rgb(169,165,197)" transform="translate(0,0)"></path>
<path d="M 88.9654 884.081 L 88.7761 885.546 C 88.6706 886.636 88.145 891.972 86.6652 892.223 C 85.5643 891.198 86.5822 887.085 86.805 885.891 L 88.9654 884.081 z" fill="rgb(169,165,197)" transform="translate(0,0)"></path>
<path d="M 1960.37 1163.48 C 1960.78 1161.85 1960.76 1157.74 1962.33 1157.6 C 1963.63 1158.61 1962.42 1162.77 1962.18 1163.99 L 1960.37 1163.48 z" fill="rgb(169,165,197)" transform="translate(0,0)"></path>
<path d="M 1171.52 75.6366 C 1170.05 75.3579 1165.59 74.9211 1164.76 73.5507 C 1165.94 72.7392 1169.54 73.0547 1170.94 73.1106 L 1171.52 75.6366 z" fill="rgb(62,45,140)" transform="translate(0,0)"></path>
<metadata><recraft-signature>{"signed_by": "recraft", "signature_b64": "I5ulluhM+r6rHlsesLiJaDssHj1GQHZrltMUwmiuz1BDKVUC27MFdTs29gQDi0fZrolUNpWnHILkiBI09+2JDg==", "signing_algo": "Ed25519", "generation_timestamp": 1772807561, "identifier": "d7883083-bbd6-471a-a645-69dc2cb1c6ff"}</recraft-signature></metadata></svg>