<svg xmlns="http://www.w3.org/2000/svg" height="1024" preserveAspectRatio="none" style="display: block;" version="1.1" viewBox="0 0 2048 2048" width="1024">
<defs>
	<linearGradient gradientUnits="userSpaceOnUse" id="Gradient1" x1="1047.4" x2="1002.76" y1="1766.75" y2="282.092">
		<stop class="stop0" offset="0" stop-color="rgb(15,5,127)" stop-opacity="1"></stop>
		<stop class="stop1" offset="1" stop-color="rgb(46,43,164)" stop-opacity="1"></stop>
	</linearGradient>
</defs>
<path d="M 0 0 L 2048 0 L 2048 2048 L 0 2048 L 0 0 z" fill="rgb(255,255,255)" transform="translate(0,0)"></path>
<path d="M 1025.25 404.259 C 1068.19 353.711 1107.83 326.352 1171.34 306.14 C 1230.84 287.201 1285.63 291.39 1347.02 291.154 C 1380.94 291.024 1413.99 289.871 1447.51 295.914 C 1487.31 303.031 1525.76 316.295 1561.49 335.233 C 1646.95 380.096 1711.95 460.513 1741.4 552.413 C 1758.73 606.491 1756.88 653.343 1757.18 708.922 C 1757.44 756.961 1758.55 795.788 1746.69 843.112 C 1737.69 879.012 1726.78 899.114 1710.1 930.837 C 1722.56 943.222 1734.98 951.424 1746.02 966.116 C 1783.56 1016.06 1784.79 1081.08 1749.24 1132.41 C 1737.24 1149.73 1722.26 1161.92 1705.58 1174.27 C 1710.21 1180.4 1715.27 1190.96 1718.94 1197.88 C 1738.95 1235.63 1755.55 1292.87 1756.92 1336.01 C 1757.9 1367.05 1757.99 1421.02 1752.81 1450.97 C 1741.65 1515.55 1709.52 1583.41 1665.39 1631.77 C 1595.81 1707.73 1499.13 1753.24 1396.25 1758.47 C 1388.16 1758.83 1379.53 1758.8 1371.43 1758.68 C 1328.53 1758.05 1284.95 1760.41 1242.2 1757.3 C 1156.32 1751.06 1080.47 1706.81 1025.43 1641.73 C 1015.57 1652.39 1008.33 1661.56 997.221 1672 C 953.803 1712.73 899.938 1740.61 841.618 1752.55 C 799.318 1760.92 767.574 1757.81 725.999 1759.15 C 621.024 1762.51 543.827 1751.77 454.423 1691.95 C 374.093 1638.62 318.721 1555.1 300.883 1460.35 C 294.567 1428.03 295.534 1410.48 294.778 1378.87 C 292.971 1303.33 304.211 1240.34 347.315 1176.42 C 341.833 1172.42 336.354 1168.43 330.977 1164.28 C 270.816 1117.83 259.092 1026.76 304.758 966.227 C 315.573 951.892 326.916 942.724 340.965 931.826 C 313.45 884.325 295.462 829.991 295.222 774.893 C 295.038 732.744 292.742 685.615 295.133 643.687 C 298.277 584.041 315.867 526.053 346.388 474.712 C 359.424 452.299 373.684 430.771 391.245 411.604 C 458.404 338.389 552.085 295.116 651.369 291.446 C 680.465 290.5 710.635 292.213 739.565 291.107 C 852.059 286.81 951.516 310.606 1025.25 404.259 z" fill="url(#Gradient1)" transform="translate(0,0)"></path>
<path d="M 1365.19 464.998 C 1334.11 464.946 1318.4 435.886 1339.18 413.986 C 1359.25 392.832 1388.66 406.858 1392.95 434.165 C 1425.85 461.061 1465.03 490.312 1496.06 517.221 C 1499.81 514.416 1503.58 511.661 1507.56 509.198 C 1540.03 489.11 1585.47 499.575 1609.23 528.385 C 1621.96 543.779 1628.08 563.588 1626.25 583.481 C 1623.89 607.363 1611.51 624.16 1593.46 638.866 C 1601.88 664.942 1612.51 695.698 1622.37 721.182 C 1637.22 729.047 1645.27 743.675 1638.73 760.077 C 1635.53 768.173 1629.17 774.61 1621.11 777.898 C 1613.84 780.847 1605.69 780.661 1598.56 777.385 C 1592.11 774.402 1584.97 767.424 1582.22 760.88 C 1578.93 753.037 1581.64 744.263 1578.98 735.357 C 1571.08 708.839 1561.5 682.541 1552.23 656.482 C 1529.69 657.525 1513.33 652.082 1495.92 638.218 C 1483.9 645.856 1462.19 655.924 1448.77 662.591 C 1424.91 674.636 1400.94 686.489 1376.89 698.15 C 1376.45 699.739 1375.99 701.32 1375.51 702.893 C 1370.2 719.866 1354.09 724.675 1338.32 718.743 C 1323.41 738.841 1294.96 771.054 1277.83 789.594 C 1298.71 812.677 1304.57 840.985 1293.53 870.313 C 1286.19 890.223 1271.1 906.311 1251.7 914.91 C 1228.65 925.088 1209.07 922.956 1186.38 914.355 C 1169.17 931.042 1151.49 947.232 1133.36 962.904 C 1146.91 980.783 1154.51 1000.65 1159.05 1022.42 C 1181.78 1022.5 1204.52 1022.45 1227.26 1022.27 C 1231.53 1012.35 1234.68 1005.7 1241.53 997.179 C 1255.13 979.949 1275.12 968.954 1296.95 966.694 C 1318.4 964.527 1339.83 971.016 1356.47 984.719 C 1390.79 1012.47 1400.19 1064.23 1371.65 1099.17 C 1392.24 1125.22 1412.69 1149.11 1432.37 1176 C 1459.28 1163.58 1481.69 1166.92 1508.83 1175.85 C 1511.12 1174.33 1512.52 1173.37 1514.7 1171.63 C 1525.36 1181.07 1542.48 1183.21 1551.16 1193.47 L 1543.35 1203.18 C 1550.29 1214.25 1552.36 1218.76 1556.54 1231.18 C 1579.21 1230.58 1607.98 1232.41 1629.38 1230.6 C 1644.47 1213.76 1674.83 1229.44 1674.73 1250.04 C 1674.58 1281.05 1634.89 1275.98 1614.05 1275.9 C 1595.88 1275.84 1577.7 1275.87 1559.53 1275.99 C 1556.85 1290.99 1550.24 1304.87 1541.12 1317 C 1525.82 1337.53 1502.89 1351.02 1477.51 1354.4 C 1459.26 1356.84 1435.44 1353.6 1420.49 1342.27 C 1407.71 1354.36 1392.53 1366.58 1379.68 1378.06 C 1355.73 1399.44 1326.98 1373.32 1342.27 1352.06 C 1351.1 1339.78 1375.3 1322.09 1387.6 1310.15 C 1380.42 1296.83 1378.02 1290.33 1375.12 1275.56 C 1347.85 1275.03 1318.19 1275.82 1290.74 1276.02 C 1287.97 1283.66 1284.21 1290.9 1279.57 1297.57 C 1267.8 1314.27 1249.81 1325.52 1229.65 1328.82 C 1159.93 1340.64 1108.65 1261.56 1153.28 1200.67 C 1136.17 1185.8 1119.63 1170.28 1103.69 1154.16 C 1084.73 1167.61 1070.4 1173.23 1047.71 1176.31 C 1046.67 1212.25 1047.41 1254.12 1047.98 1290.02 C 1097.49 1307.18 1122.96 1358.97 1098.93 1406.87 C 1089.32 1426.21 1072.36 1440.9 1051.84 1447.64 C 1008.15 1462.05 960.279 1438.91 946.04 1395 C 939.196 1373.88 941.18 1350.89 951.542 1331.26 C 963.068 1308.98 979.621 1297.35 1002.89 1289.82 C 1002.94 1252.35 1003.45 1213.8 1002.66 1176.42 C 981.557 1172.81 964.414 1166.41 946.988 1154.1 C 930.627 1168.66 914.297 1185.87 897.094 1201.28 C 901.198 1206.89 904.625 1212.96 907.304 1219.37 C 915.417 1238.86 915.482 1260.76 907.484 1280.3 C 899.359 1299.62 883.425 1316.15 863.864 1323.97 C 844.445 1331.79 822.704 1331.52 803.483 1323.23 C 780.684 1313.23 768.354 1298.31 759.657 1275.71 C 730.638 1276.24 700.887 1276.07 671.806 1276.23 C 668.407 1291.52 666.638 1294.82 659.193 1308.91 C 669.198 1317.58 714.434 1350.24 712.03 1363.24 C 701.849 1418.29 647.001 1358.13 628.371 1341.02 C 620.511 1346.31 611.806 1350.22 602.63 1352.58 C 579.942 1358.28 555.915 1354.64 535.935 1342.47 C 508.75 1326.07 496.07 1305.24 488.52 1275.34 C 463.742 1276.12 418.096 1277.8 394.895 1274.4 C 358.733 1269.11 372.843 1210.31 419.662 1226.3 C 420.912 1228.29 421.179 1228.82 422.773 1230.5 C 432.495 1231.96 478.489 1231.16 492.259 1231.23 C 497.223 1217.99 498.794 1214.26 507.011 1202.99 C 488.688 1178.79 469.751 1155.07 450.219 1131.84 C 446.313 1132.78 442.192 1133.78 438.253 1134.53 C 416.287 1138.82 393.516 1134.13 375.029 1121.52 C 356.146 1108.69 343.311 1088.72 339.491 1066.22 C 331.149 1017.96 361.977 974.925 410.358 967.263 C 458.607 959.622 500.248 993.259 507.153 1040.78 C 510.645 1064.82 503.131 1086.7 488.748 1105.77 L 542.645 1175.36 C 570.569 1165.59 590.504 1163.99 618.33 1176.08 C 634.453 1151.52 659.566 1123.9 678.09 1099.21 C 647.563 1049.44 662.661 991.294 719.795 970.395 C 761.068 955.297 809.043 980.494 823.078 1022.05 L 891.827 1022.05 C 895.745 997.132 902.528 983.015 917.28 962.956 C 898.553 945.176 880.139 929.641 860.357 913.181 C 855.049 915.971 848.323 918.186 842.439 919.397 C 822.705 923.256 802.248 919.061 785.626 907.748 C 768.688 896.549 757.028 878.948 753.32 858.984 C 748.334 832.798 754.703 812.429 769.22 790.998 C 748.563 766.795 727.717 742.755 706.682 718.879 C 686.533 726.796 671.296 714.032 666.117 694.742 L 595.332 659.84 C 581.633 653.014 567.625 645.101 553.805 638.805 C 536.592 653.089 519.633 656.119 498.045 655.608 C 489.252 681.186 477.465 707.859 470.249 734.166 C 468.714 741.963 472.118 750.396 469.823 758.155 C 458.078 797.866 400.176 779.409 410.537 740.892 C 413.121 731.285 421.623 725.41 430.033 721.034 C 436.377 698.825 448.926 660.296 457.371 639.607 C 438.705 626.195 426.04 606.919 424.09 583.776 C 422.459 562.67 429.329 541.787 443.17 525.77 C 456.624 510.037 475.789 500.309 496.43 498.735 C 519.862 496.981 538.645 502.774 556.398 517.982 C 567.27 507.067 585.408 492.86 597.626 482.799 L 657.388 433.507 C 658.91 425.948 659.967 421.105 665.165 414.908 C 670.22 408.797 677.547 405.011 685.455 404.424 C 728.165 401.65 732.408 467.635 683.532 464.133 C 667.934 478.963 651.511 491.91 635.204 505.767 C 616.83 521.38 599.411 537.038 580.355 551.91 C 584.984 572.39 583.735 583.734 578.641 603.792 C 607.995 619.428 644.479 633.433 672.907 649.965 C 673.074 666.164 668.856 695.288 679.971 707.692 C 694.153 723.52 716.787 709.983 720.169 691.699 C 721.365 685.233 721.166 680.208 721.156 673.529 C 733.969 683.21 745.439 697.991 756.353 710.213 C 773.147 729.095 790.059 747.872 807.088 766.543 L 808.71 766.16 C 853.877 755.941 897.733 780.354 907.433 826.674 C 911.567 846.193 907.743 866.555 896.809 883.244 C 907.899 892.409 939.956 921.923 950.023 932.347 C 966.795 921.769 983.15 915.062 1002.57 911.359 C 1003.9 883.412 1003.01 848.725 1002.9 820.497 C 997.436 819.01 992.145 816.941 987.119 814.328 C 920.643 779.363 927.344 682.801 1002.73 660.409 C 1002.97 636.931 1003.02 613.451 1002.85 589.973 C 989.93 579.576 988.932 562.109 998.356 549.421 C 1023.2 515.971 1081.75 553.295 1047.91 589.274 C 1047.62 612.803 1047.59 636.335 1047.82 659.866 C 1127.46 690.301 1128.96 788.458 1048.04 819.847 C 1047.07 850.519 1046.87 881.21 1047.45 911.892 C 1069.79 915.705 1080.77 920.523 1099.79 932.368 C 1116.73 915.645 1135.21 900.534 1151.86 883.798 C 1118.89 817.437 1166.37 750.549 1241.01 765.937 C 1257.87 745.596 1275.5 725.835 1292.73 705.79 C 1303.26 693.537 1311.12 681.796 1326.77 676.76 C 1326.59 687.469 1325.78 697.384 1333.36 706.185 C 1337.4 710.974 1343.24 713.871 1349.5 714.186 C 1380.51 715.578 1373.98 671.911 1373.87 652.106 C 1403.16 635.591 1439.56 618.53 1470.1 603.445 C 1462.54 585.715 1464.46 569.578 1468.26 551.384 C 1434.33 522.3 1398.77 494.516 1365.19 464.998 z" fill="rgb(221,220,231)" transform="translate(0,0)"></path>
<path d="M 1013.47 955.683 C 1062.23 949.144 1107.07 983.326 1113.68 1032.07 C 1120.3 1080.82 1086.18 1125.71 1037.45 1132.4 C 988.604 1139.11 943.59 1104.91 936.961 1056.05 C 930.332 1007.2 964.605 962.236 1013.47 955.683 z" fill="rgb(29,22,143)" transform="translate(0,0)"></path>
<path d="M 824.428 1068.25 C 846.806 1068.16 869.183 1068.2 891.56 1068.36 C 897.017 1092.5 901.664 1102.88 916.028 1122.97 C 896.869 1139.16 878.922 1156.96 860.398 1173.96 C 811.649 1161.45 770.562 1182.28 756.833 1231.61 C 753.473 1231.35 749.593 1231.28 746.18 1231.14 L 667.755 1230.76 C 665.075 1219.49 660.431 1212.13 653.814 1202.92 C 671.4 1183.42 698.355 1148.91 715.093 1127.47 C 740.03 1133.63 760.166 1134.29 783.246 1121.19 C 806.526 1107.99 815.52 1092.49 824.428 1068.25 z" fill="rgb(29,22,143)" transform="translate(0,0)"></path>
<path d="M 1159.49 1068.25 C 1181.3 1068.4 1203.11 1068.3 1224.92 1067.95 L 1225.28 1069.29 C 1231.51 1091.75 1246.55 1110.73 1267 1121.91 C 1288.06 1133.64 1310.78 1134.04 1333.54 1127.61 C 1350.57 1149.88 1375.89 1182.43 1394.24 1202.71 C 1385.22 1212.31 1385.19 1217.73 1379.11 1228.95 C 1377.78 1231.4 1375.01 1230.88 1372.18 1231.02 L 1293.51 1231.55 C 1278.95 1181.54 1238.1 1162.72 1189.03 1173.72 C 1170.77 1156.84 1152.91 1139.54 1135.47 1121.81 C 1148.43 1104.41 1154.54 1089.02 1159.49 1068.25 z" fill="rgb(29,22,143)" transform="translate(0,0)"></path>
<path d="M 575.983 1213.53 C 602.166 1210.95 625.553 1229.91 628.436 1256.07 C 631.32 1282.22 612.627 1305.82 586.511 1309.01 C 569.347 1311.1 552.382 1303.81 542.094 1289.91 C 531.805 1276.01 529.781 1257.66 536.794 1241.85 C 543.808 1226.04 558.775 1215.23 575.983 1213.53 z" fill="rgb(29,22,143)" transform="translate(0,0)"></path>
<path d="M 1462.3 1215.47 C 1488.22 1213.23 1511.11 1232.26 1513.64 1258.15 C 1516.17 1284.04 1497.39 1307.15 1471.53 1309.96 C 1454.54 1311.81 1437.87 1304.39 1427.88 1290.53 C 1417.89 1276.67 1416.11 1258.51 1423.23 1242.98 C 1430.36 1227.44 1445.28 1216.94 1462.3 1215.47 z" fill="rgb(29,22,143)" transform="translate(0,0)"></path>
<path d="M 419.533 1011.2 C 434.268 1009.66 448.685 1016.2 457.236 1028.3 C 465.786 1040.4 467.138 1056.17 460.77 1069.55 C 454.402 1082.92 441.308 1091.82 426.526 1092.81 C 404.246 1094.31 384.873 1077.69 382.967 1055.44 C 381.06 1033.19 397.323 1013.51 419.533 1011.2 z" fill="rgb(29,22,143)" transform="translate(0,0)"></path>
<path d="M 1021.82 1332.76 C 1042.04 1330.49 1060.29 1344.97 1062.69 1365.18 C 1065.08 1385.38 1050.72 1403.73 1030.53 1406.26 C 1010.15 1408.8 991.606 1394.28 989.19 1373.89 C 986.774 1353.5 1001.41 1335.05 1021.82 1332.76 z" fill="rgb(29,22,143)" transform="translate(0,0)"></path>
<path d="M 1301.81 1013.53 C 1321.97 1011.28 1340.11 1025.87 1342.24 1046.04 C 1344.37 1066.22 1329.69 1084.27 1309.5 1086.29 C 1289.48 1088.3 1271.59 1073.75 1269.48 1053.74 C 1267.36 1033.72 1281.81 1015.76 1301.81 1013.53 z" fill="rgb(29,22,143)" transform="translate(0,0)"></path>
<path d="M 739.026 1013.65 C 752 1011.51 765.118 1016.55 773.331 1026.81 C 781.544 1037.08 783.572 1050.99 778.635 1063.17 C 773.698 1075.36 762.565 1083.93 749.521 1085.59 C 729.863 1088.08 711.827 1074.38 708.967 1054.77 C 706.106 1035.16 719.475 1016.88 739.026 1013.65 z" fill="rgb(29,22,143)" transform="translate(0,0)"></path>
<path d="M 1017.28 704.455 C 1036.69 700.686 1055.53 713.145 1059.67 732.473 C 1063.8 751.802 1051.7 770.883 1032.46 775.382 C 1019.68 778.37 1006.28 774.223 997.429 764.538 C 988.574 754.853 985.641 741.141 989.758 728.681 C 993.875 716.222 1004.4 706.957 1017.28 704.455 z" fill="rgb(29,22,143)" transform="translate(0,0)"></path>
<path d="M 827.634 1216.51 C 846.343 1213.63 863.82 1226.54 866.556 1245.27 C 869.292 1264 856.239 1281.38 837.486 1283.96 C 818.943 1286.52 801.808 1273.65 799.103 1255.13 C 796.398 1236.6 809.135 1219.37 827.634 1216.51 z" fill="rgb(29,22,143)" transform="translate(0,0)"></path>
<path d="M 1209.99 1216.61 C 1228.58 1214.38 1245.48 1227.57 1247.82 1246.15 C 1250.17 1264.72 1237.08 1281.7 1218.53 1284.17 C 1199.8 1286.65 1182.63 1273.42 1180.26 1254.68 C 1177.9 1235.94 1191.24 1218.85 1209.99 1216.61 z" fill="rgb(29,22,143)" transform="translate(0,0)"></path>
<path d="M 1217.37 808.565 C 1235.9 807.073 1252.17 820.781 1253.85 839.293 C 1255.53 857.806 1241.98 874.216 1223.49 876.079 C 1211.36 877.301 1199.51 871.915 1192.45 861.974 C 1185.39 852.033 1184.22 839.069 1189.37 828.021 C 1194.53 816.973 1205.22 809.544 1217.37 808.565 z" fill="rgb(29,22,143)" transform="translate(0,0)"></path>
<path d="M 501.039 544.276 C 519.501 541.996 536.328 555.081 538.666 573.536 C 541.005 591.99 527.973 608.859 509.527 611.256 C 490.996 613.664 474.035 600.561 471.686 582.023 C 469.337 563.485 482.494 546.566 501.039 544.276 z" fill="rgb(29,22,143)" transform="translate(0,0)"></path>
<path d="M 1540.72 544.648 C 1552.63 542.355 1564.85 546.654 1572.71 555.898 C 1580.56 565.143 1582.83 577.901 1578.64 589.285 C 1574.45 600.67 1564.46 608.918 1552.49 610.869 C 1534.34 613.827 1517.18 601.663 1513.96 583.56 C 1510.75 565.456 1522.66 548.125 1540.72 544.648 z" fill="rgb(29,22,143)" transform="translate(0,0)"></path>
<path d="M 823.399 811.234 C 840.562 808.802 856.512 820.559 859.268 837.673 C 862.023 854.788 850.569 870.957 833.509 874.035 C 822.184 876.078 810.639 871.845 803.318 862.966 C 795.997 854.087 794.043 841.947 798.207 831.219 C 802.371 820.491 812.005 812.848 823.399 811.234 z" fill="rgb(29,22,143)" transform="translate(0,0)"></path>
<path d="M 573.007 766.347 C 594.595 763.7 616.465 768.011 635.435 778.651 C 658.841 792.342 675.861 814.758 682.761 840.982 C 689.576 867.12 685.525 894.904 671.531 918.008 C 655.79 944.384 633.411 957.112 604.503 964.405 C 604.936 991.997 605.097 1019.59 604.986 1047.19 C 605.007 1060.42 607.752 1090.79 599.086 1100.05 C 594.808 1104.66 588.843 1107.34 582.556 1107.46 C 571.44 1107.61 561.333 1098.54 560.545 1088.08 C 559.127 1069.27 560.072 1047.86 560.187 1028.94 C 560.297 1007 560.056 985.05 559.462 963.111 C 551.132 960.486 544.258 957.947 536.605 953.68 C 512.977 940.569 495.556 918.574 488.205 892.572 C 473.696 891.908 449.483 891.949 435.06 892.52 C 415.46 907.636 391.12 903.584 384.935 877.998 C 382.886 869.372 384.352 860.286 389.008 852.741 C 400.494 834.026 418.815 837.6 434.379 848.448 C 451.458 848.146 468.542 848.208 485.618 848.634 C 495.425 802.896 526.736 773.356 573.007 766.347 z" fill="rgb(221,220,231)" transform="translate(0,0)"></path>
<path d="M 577.067 811.44 C 607.62 807.355 635.679 828.865 639.67 859.429 C 643.661 889.994 622.065 917.987 591.489 921.884 C 561.044 925.765 533.198 904.283 529.225 873.851 C 525.251 843.418 546.647 815.507 577.067 811.44 z" fill="rgb(29,22,143)" transform="translate(0,0)"></path>
<path d="M 1457.74 766.425 C 1506.62 761.734 1555.38 799.358 1562.46 848.081 C 1580.34 849.123 1597.65 849.078 1615.53 849.101 C 1634.29 832.334 1659.61 839.236 1665.03 862.967 C 1666.85 870.962 1665.24 879.354 1660.59 886.108 C 1649.15 902.519 1632.71 904.5 1617.27 892.841 C 1600.2 892.973 1577.69 893.466 1560.98 892.36 C 1547.61 929.697 1529.02 949.871 1491.01 962.553 L 1490.87 1005.5 L 1491.01 1060.46 C 1491.04 1070.12 1491.37 1079.55 1490.5 1089.19 C 1488.93 1106.62 1463.62 1112.72 1452.51 1101.32 C 1449.29 1098.07 1447.16 1093.89 1446.43 1089.37 C 1445.3 1082.17 1445.9 1056.49 1445.95 1047.82 C 1446.22 1020.17 1446.24 992.513 1446 964.86 C 1428.19 960.207 1413.32 954.198 1398.9 942.311 C 1378.99 925.824 1366.5 902.049 1364.24 876.295 C 1361.5 849.506 1369.64 822.739 1386.83 802.008 C 1405.43 779.92 1429.36 768.859 1457.74 766.425 z" fill="rgb(221,220,231)" transform="translate(0,0)"></path>
<path d="M 1458.24 811.315 C 1488.91 808.262 1516.26 830.616 1519.37 861.279 C 1522.49 891.943 1500.19 919.338 1469.53 922.512 C 1438.79 925.695 1411.3 903.319 1408.17 872.57 C 1405.05 841.821 1427.48 814.377 1458.24 811.315 z" fill="rgb(29,22,143)" transform="translate(0,0)"></path>
<path d="M 391.669 1333.32 C 416.218 1334.09 425.305 1348.64 425.159 1371.22 C 430.82 1377.5 438.502 1388.64 443.778 1395.81 C 452.891 1408.18 462.151 1420.43 471.555 1432.58 C 506.615 1421.67 545.375 1433.38 566.191 1464.14 C 592.766 1452.63 619.594 1442.81 646.334 1431.79 C 656.052 1405.18 689.492 1404.5 701.872 1428.69 C 705.906 1436.57 706.42 1445.79 703.288 1454.06 C 700.48 1461.66 695.109 1467.9 687.688 1471.28 C 679.895 1474.88 670.964 1475.14 662.979 1471.98 C 635.835 1483.9 607.067 1494.07 579.402 1505.17 C 578.85 1518.21 576.58 1527.87 571.639 1539.77 L 658.722 1604.86 L 678.539 1619.93 C 696.698 1619.14 711.239 1627.99 713.968 1646.93 C 715.184 1654.87 713.18 1662.97 708.399 1669.43 C 690.857 1692.69 654.383 1685.02 651.858 1651.72 L 545.879 1574.21 C 535.582 1580.55 524.151 1584.82 512.223 1586.78 C 490.502 1590.42 468.239 1585 450.619 1571.79 C 433.329 1559.12 421.834 1540.06 418.702 1518.86 C 415.187 1494.83 422.035 1476.03 436.235 1456.98 C 428.378 1444.1 404.048 1412.13 393.77 1398.18 C 378.588 1394.62 365.31 1387.8 361.712 1371.1 C 359.931 1362.75 361.741 1354.03 366.7 1347.08 C 373.049 1338.32 381.489 1334.96 391.669 1333.32 z" fill="rgb(221,220,231)" transform="translate(0,0)"></path>
<path d="M 491.958 1474.45 C 510.132 1470.73 527.929 1482.29 531.908 1500.41 C 535.887 1518.53 524.571 1536.49 506.507 1540.72 C 494.597 1543.51 482.108 1539.67 473.82 1530.67 C 465.533 1521.67 462.731 1508.91 466.487 1497.27 C 470.243 1485.63 479.975 1476.91 491.958 1474.45 z" fill="rgb(29,22,143)" transform="translate(0,0)"></path>
<path d="M 1652.18 1334.22 C 1660.25 1333.64 1667.15 1334.71 1674.11 1339.13 C 1681.5 1343.9 1686.62 1351.49 1688.3 1360.13 C 1689.82 1367.99 1688.1 1376.12 1683.53 1382.7 C 1677.08 1392.11 1668.9 1395.25 1658.28 1397.22 C 1647.23 1414.77 1626.93 1439.96 1613.9 1456.9 C 1628.41 1474.32 1634.47 1501.33 1628.86 1523 C 1618.94 1561.36 1585.22 1588.63 1545.21 1587.37 C 1528.55 1586.85 1519.25 1582.75 1504.64 1575.45 C 1494.73 1580.48 1477.31 1594.8 1467.64 1602.07 C 1445.81 1618.48 1420.62 1635.41 1399.96 1652.99 C 1391.31 1698.05 1337.13 1687.45 1336.62 1650.95 C 1336.47 1642.39 1339.9 1634.16 1346.07 1628.22 C 1354.11 1620.55 1361.42 1619.68 1371.61 1619.86 L 1386.54 1608.82 C 1416.39 1586.72 1446.69 1565.04 1475.9 1542.12 C 1470.96 1528.39 1468.17 1519.8 1468.71 1505.09 C 1463.34 1502.52 1457.83 1500.33 1452.25 1498.26 C 1430.32 1490.11 1409.05 1480.29 1387.13 1472.13 C 1371.65 1475.42 1357.29 1472.62 1348.8 1457.83 C 1344.62 1450.64 1343.7 1442.01 1346.27 1434.1 C 1348.99 1425.84 1354.77 1418.69 1362.6 1414.81 C 1369.55 1411.3 1377.61 1410.72 1384.98 1413.22 C 1394.95 1416.67 1400.11 1423.29 1404.33 1432.44 C 1429.02 1441.58 1460.19 1454.75 1483.63 1465.51 C 1503.21 1432.09 1544.24 1423.11 1579.59 1433.11 C 1594.57 1414.12 1609.66 1391.76 1624.54 1372.02 C 1624.82 1350.13 1629.75 1339.22 1652.18 1334.22 z" fill="rgb(221,220,231)" transform="translate(0,0)"></path>
<path d="M 1548.55 1474.45 C 1567.19 1472.41 1583.92 1485.93 1585.85 1504.58 C 1587.78 1523.23 1574.16 1539.88 1555.5 1541.7 C 1537 1543.5 1520.51 1530.02 1518.6 1511.53 C 1516.69 1493.04 1530.07 1476.47 1548.55 1474.45 z" fill="rgb(29,22,143)" transform="translate(0,0)"></path>
<path d="M 767.503 1376.2 C 798.562 1373.76 813.82 1395.06 803.516 1424.1 C 812.997 1440.28 826.167 1467.5 834.18 1484.91 C 861.96 1475.82 883.024 1472.78 910.887 1484.81 C 957.759 1505.05 978.444 1561.54 958.241 1608.03 C 948.713 1630.26 930.585 1647.69 907.992 1656.33 C 882.998 1666.03 858.452 1664.93 834.101 1654.3 C 828.38 1651.32 822.931 1647.84 817.817 1643.91 C 796.578 1627.37 785.498 1607.35 782.229 1580.92 L 723.834 1581.51 C 713.01 1581.61 703.052 1582.1 692.103 1580.93 C 667.206 1578.26 668.755 1541.35 691.558 1537.97 C 702.379 1536.36 714.666 1537.06 725.865 1537.17 L 786.149 1538.04 C 790.283 1526.42 792.521 1522.15 799.354 1511.87 C 788.638 1487.95 776.114 1462.95 764.861 1439.02 C 730.331 1427.85 734.067 1388.26 767.503 1376.2 z" fill="rgb(221,220,231)" transform="translate(0,0)"></path>
<path d="M 862.645 1524.43 C 879.113 1520.65 896.339 1526.02 907.743 1538.49 C 919.148 1550.95 922.97 1568.58 917.751 1584.65 C 912.531 1600.72 899.075 1612.74 882.522 1616.13 C 857.347 1621.27 832.718 1605.21 827.275 1580.1 C 821.831 1554.98 837.6 1530.17 862.645 1524.43 z" fill="rgb(29,22,143)" transform="translate(0,0)"></path>
<path d="M 1267.72 1376.12 C 1285.4 1374.45 1301.47 1381.23 1307.5 1398.38 C 1316.65 1424.45 1295.47 1428.96 1286.62 1442.7 C 1273.23 1463.49 1261.94 1488.41 1250.75 1510.54 C 1257.63 1520.96 1260.71 1526.35 1265.03 1538 C 1284.98 1537.27 1304.94 1536.92 1324.9 1536.92 C 1334.59 1536.88 1359.44 1535.13 1366.34 1541.98 C 1382.76 1558.3 1374.33 1579.91 1350.97 1581.17 C 1342.72 1581.62 1333.78 1581.29 1325.38 1581.27 L 1270.34 1581.13 C 1264.21 1609.36 1252.09 1631.33 1227.71 1647.82 C 1150.09 1696.66 1062.02 1621.94 1090.96 1537.63 C 1109.1 1484.78 1165.16 1465.79 1215.95 1484.14 C 1224.94 1466.62 1238.19 1442.47 1245.08 1424.87 C 1244.15 1422.45 1243.29 1420 1242.48 1417.54 C 1236.23 1397.85 1249.23 1381.66 1267.72 1376.12 z" fill="rgb(221,220,231)" transform="translate(0,0)"></path>
<path d="M 1173.97 1522.7 C 1200.29 1520.82 1223.14 1540.68 1224.94 1567.01 C 1226.73 1593.34 1206.8 1616.13 1180.46 1617.84 C 1154.24 1619.55 1131.58 1599.72 1129.79 1573.5 C 1128 1547.29 1147.76 1524.57 1173.97 1522.7 z" fill="rgb(29,22,143)" transform="translate(0,0)"></path>
<path d="M 869.559 382.403 C 903.25 378.646 941.009 399.717 956.066 430.046 C 966.027 450.408 967.451 473.904 960.023 495.32 C 942.309 545.698 887.429 566.34 838.538 548.743 C 820.266 568.835 801.4 588.379 781.966 607.349 L 780.867 615.908 C 777.384 628.404 767.164 638.534 753.962 639.811 C 745.261 640.719 736.569 638.016 729.918 632.333 C 723.312 626.738 719.293 618.677 718.8 610.034 C 717.838 592.449 732.893 580.569 749.345 579.592 C 767.695 559.825 786.155 541.336 805.113 522.156 C 794.795 509.609 788.349 495.465 786.719 479.284 C 781.383 426.305 818.485 387.56 869.559 382.403 z" fill="rgb(221,220,231)" transform="translate(0,0)"></path>
<path d="M 868.846 425.808 C 892.471 421.871 914.786 437.916 918.575 461.565 C 922.365 485.214 906.181 507.428 882.509 511.07 C 859.045 514.679 837.069 498.669 833.313 475.228 C 829.556 451.787 845.43 429.711 868.846 425.808 z" fill="rgb(29,22,143)" transform="translate(0,0)"></path>
<path d="M 1162.1 383.348 C 1162.64 383.27 1163.19 383.193 1163.73 383.116 C 1187.37 380.547 1211.05 387.535 1229.51 402.522 C 1247.55 416.967 1259.5 437.369 1261.89 460.486 C 1264.26 482.351 1257.91 504.268 1244.23 521.485 C 1262.43 539.962 1279.3 558.411 1297.94 576.806 C 1306.14 578.112 1310.51 579.034 1317.36 584.633 C 1323.38 589.611 1327.14 596.812 1327.79 604.602 C 1328.47 613.063 1325.76 621.449 1320.24 627.902 C 1314.69 634.424 1306.68 638.336 1298.12 638.696 C 1287.47 639.133 1280.26 634.852 1272.83 627.878 C 1267.14 620.542 1265.29 614.596 1264.85 605.486 C 1246.33 587.351 1227.44 566.249 1209.13 547.252 C 1157.14 568.317 1095.65 538.61 1085.56 482.097 C 1076.51 431.35 1112.42 390.279 1162.1 383.348 z" fill="rgb(221,220,231)" transform="translate(0,0)"></path>
<path d="M 1165.39 426.391 C 1188.27 421.47 1210.81 435.976 1215.82 458.835 C 1220.82 481.693 1206.4 504.294 1183.56 509.381 C 1160.6 514.494 1137.86 499.979 1132.83 477.003 C 1127.8 454.028 1142.4 431.338 1165.39 426.391 z" fill="rgb(29,22,143)" transform="translate(0,0)"></path>
<path d="M 1562.78 1107.13 C 1554.2 1094.37 1548.53 1084.86 1544.67 1069.82 C 1535.91 1035.7 1551.77 998.733 1581.03 979.575 C 1600.01 967.268 1623.11 963.037 1645.21 967.818 C 1667.58 972.569 1687.13 986.042 1699.53 1005.25 C 1711.87 1024.57 1715.89 1048.06 1710.68 1070.38 C 1706.08 1090.6 1689.86 1112.89 1671.9 1123.36 C 1647.37 1137.67 1626.37 1136.98 1599.95 1130.7 C 1583.91 1151.8 1567.64 1172.72 1551.16 1193.47 C 1542.48 1183.21 1525.36 1181.07 1514.7 1171.63 C 1512.52 1173.37 1511.12 1174.33 1508.83 1175.85 C 1520.8 1156.14 1547.6 1125.71 1562.78 1107.13 z" fill="rgb(221,220,231)" transform="translate(0,0)"></path>
<path d="M 1622.52 1012.18 C 1643.97 1009.23 1663.82 1024.06 1667.08 1045.47 C 1670.33 1066.89 1655.78 1086.95 1634.42 1090.51 C 1620.32 1092.85 1606.05 1087.43 1597.08 1076.31 C 1588.1 1065.19 1585.81 1050.1 1591.08 1036.82 C 1596.35 1023.54 1608.36 1014.12 1622.52 1012.18 z" fill="rgb(29,22,143)" transform="translate(0,0)"></path>
<metadata><recraft-signature>{"signed_by": "recraft", "signature_b64": "JG6l3gCQCNtoDJrW9DaoXd8GvwrVMnh09PZ7S4XVm8Tqy4NXTM5dX/gvnLat90O3AyC30P/TPnqOYAhPxGJYBg==", "signing_algo": "Ed25519", "generation_timestamp": 1772807514, "identifier": "b5c6c960-2899-4c9d-a1b2-22f7e82a33d5"}</recraft-signature></metadata></svg>