<svg xmlns="http://www.w3.org/2000/svg" height="1024" preserveAspectRatio="none" style="display: block;" version="1.1" viewBox="0 0 2048 2048" width="1024">
<path d="M 0 0 L 2048 0 L 2048 2048 L 0 2048 L 0 0 z" fill="rgb(255,255,255)" transform="translate(0,0)"></path>
<path d="M 1175.34 276.815 L 1397.11 276.568 C 1423.25 276.872 1444.12 276.955 1470.24 280.603 C 1548.74 291.933 1621.23 329.091 1676.26 386.209 C 1729.96 441.43 1763.84 512.897 1772.59 589.426 C 1774.67 608.766 1774.85 629.74 1774.76 649.202 C 1774.55 693.032 1775.45 737.183 1774.67 780.991 L 1774.65 782.269 C 1775.76 810.795 1773.04 848.024 1775.09 875.403 C 1774.13 905.498 1775.14 936.661 1774.32 966.817 C 1774.14 973.545 1774.57 996.939 1773.02 1002.52 C 1773.96 1014.28 1774.26 1026.09 1773.92 1037.89 C 1776.1 1074.43 1774.34 1111.91 1774.97 1148.55 C 1775.07 1154.33 1775.15 1160.78 1774.88 1166.49 L 1774.72 1345.91 C 1774.74 1379.45 1775.98 1424.18 1772.9 1456.89 C 1764.69 1538.98 1727.7 1615.53 1668.49 1672.98 C 1606.1 1734.46 1522.86 1770.21 1435.32 1773.13 C 1425.03 1775.54 1027.68 1774.21 1023.6 1772.74 C 1021.96 1772.15 1021.53 1770.26 1020.74 1768.81 C 1019.2 1768.41 1007.35 1766.86 1004.45 1766.32 C 986.838 1763.02 976.084 1758.29 960.473 1750.35 C 942.532 1756.28 859.82 1749.06 851.011 1754.27 C 857.678 1761.56 865.055 1767.56 872.812 1773.62 C 814.299 1772.99 755.781 1772.84 697.265 1773.17 C 666.522 1773.21 625.909 1774.45 596.07 1771.8 C 513.971 1764.57 437.099 1728.45 379.13 1669.87 C 313.956 1604.86 276.776 1516.99 277.267 1425.2 C 277.415 1397.66 277.573 1370.09 277.621 1342.57 L 277.079 1169.14 C 285.525 1184.5 292.938 1194.98 305.725 1206.78 C 309.521 1198.35 308.521 1125.14 308.546 1111.68 C 291.434 1087.64 280.991 1071.23 277.838 1041.06 C 273.506 999.619 283.985 970.692 309.378 938.771 C 308.315 932.163 308.764 918.369 308.737 911.16 L 308.347 864.054 C 308.256 857.941 308.471 846.279 306.707 840.985 C 294.707 851.819 289.928 858.021 281.411 872.006 C 281.06 873.19 277.803 879.584 277.065 881.095 C 277.092 842.402 276.617 802.862 277.246 764.249 C 276.186 721.227 277.773 676.745 276.919 633.693 C 275.054 539.619 311.704 447.851 379.127 381.125 C 438.416 322.303 516.299 285.909 599.456 278.166 C 631.521 275.29 675.069 276.646 708.368 276.705 L 871.81 276.773 C 864.428 283.216 859.104 287.538 852.261 294.793 C 859.236 299.395 939.724 295.213 957.558 298.803 C 981.116 287.146 997.122 283.024 1022.98 281.017 L 1023.6 278.646 C 1037.21 273.363 1076.37 290.399 1088.76 297.164 C 1106.16 294.361 1189.2 299.696 1196.91 293.734 C 1189.72 286.591 1183.94 282.083 1175.34 276.815 z" fill="rgb(52,42,147)" transform="translate(0,0)"></path>
<path d="M 1175.34 276.815 L 1397.11 276.568 C 1423.25 276.872 1444.12 276.955 1470.24 280.603 C 1548.74 291.933 1621.23 329.091 1676.26 386.209 C 1729.96 441.43 1763.84 512.897 1772.59 589.426 C 1774.67 608.766 1774.85 629.74 1774.76 649.202 C 1774.55 693.032 1775.45 737.183 1774.67 780.991 L 1774.65 782.269 C 1775.76 810.795 1773.04 848.024 1775.09 875.403 C 1774.13 905.498 1775.14 936.661 1774.32 966.817 C 1774.14 973.545 1774.57 996.939 1773.02 1002.52 C 1773.96 1014.28 1774.26 1026.09 1773.92 1037.89 C 1776.1 1074.43 1774.34 1111.91 1774.97 1148.55 C 1775.07 1154.33 1775.15 1160.78 1774.88 1166.49 L 1774.72 1345.91 C 1774.74 1379.45 1775.98 1424.18 1772.9 1456.89 C 1764.69 1538.98 1727.7 1615.53 1668.49 1672.98 C 1606.1 1734.46 1522.86 1770.21 1435.32 1773.13 C 1425.03 1775.54 1027.68 1774.21 1023.6 1772.74 C 1021.96 1772.15 1021.53 1770.26 1020.74 1768.81 C 1027.54 1768.95 1030.67 1769.08 1037.43 1768.11 C 1033.28 1767.63 1027.48 1767.75 1023.18 1767.71 C 1023.84 1746.47 1023.09 1724.64 1023.24 1703.38 C 1023.3 1696.06 1022.78 1677.9 1023.96 1671.35 L 1023.35 1671.25 C 1024.24 1666.72 1023.51 1654.91 1023.46 1649.59 L 1023.09 1601.56 L 1024.95 1601.23 C 1022.11 1598.14 1023.47 1516.26 1023.68 1505.78 L 1023.05 1505.73 C 1023.8 1500.51 1023.28 1477.44 1023.26 1471.19 L 1023.01 1398.86 C 1029.73 1398.97 1032.75 1399.06 1039.44 1398.11 C 1034.75 1397.51 1028.6 1397.85 1023.76 1397.94 C 1022.9 1358.05 1022.91 1315.04 1023.23 1275.13 L 1023.09 1183.13 L 1024.26 1182.92 C 1041.63 1183.22 1058.94 1180.72 1075.52 1175.49 C 1140.15 1155.06 1184.03 1094.25 1185.06 1027.47 C 1185.47 1001.31 1180.07 983.342 1172.03 959.103 C 1188.97 941.901 1201.17 924.694 1215.78 905.697 L 1216.13 904.539 C 1214.06 898.815 1209.24 887.915 1208.64 882.525 C 1206.4 862.474 1207 840.218 1206.97 819.992 C 1207.12 782.929 1206.89 745.866 1206.26 708.808 L 1206.1 708.166 C 1206.52 696.954 1206.67 694.344 1205.83 683.395 L 1206.43 682.631 C 1207.69 669.09 1207.44 518.083 1205.5 513.779 L 1208.4 508.11 C 1204.87 504.144 1200.49 479.5 1197.83 472.136 C 1192.07 456.203 1172.71 416.817 1157.02 409.449 C 1153.18 357.706 1131.7 325.268 1088.76 297.164 C 1106.16 294.361 1189.2 299.696 1196.91 293.734 C 1189.72 286.591 1183.94 282.083 1175.34 276.815 z" fill="rgb(36,30,125)" transform="translate(0,0)"></path>
<path d="M 1773.92 1037.89 C 1776.1 1074.43 1774.34 1111.91 1774.97 1148.55 C 1775.07 1154.33 1775.15 1160.78 1774.88 1166.49 L 1774.72 1345.91 C 1774.74 1379.45 1775.98 1424.18 1772.9 1456.89 C 1764.69 1538.98 1727.7 1615.53 1668.49 1672.98 C 1606.1 1734.46 1522.86 1770.21 1435.32 1773.13 C 1425.03 1775.54 1027.68 1774.21 1023.6 1772.74 C 1021.96 1772.15 1021.53 1770.26 1020.74 1768.81 C 1027.54 1768.95 1030.67 1769.08 1037.43 1768.11 C 1042.91 1768.09 1051.25 1766.26 1056.65 1764.94 C 1092.49 1755.97 1123.36 1733.27 1142.6 1701.74 C 1159.79 1673.33 1166.58 1636.51 1158.73 1604.1 C 1190.94 1584.62 1222.46 1563.23 1254.63 1543.58 C 1268.1 1535.35 1280.14 1526.92 1294.14 1519.43 C 1328.42 1556.32 1369.65 1574.09 1420.18 1572.19 C 1462.24 1570.34 1501.86 1551.93 1530.38 1520.97 C 1581.14 1465.63 1584.27 1372.04 1535.91 1314.15 C 1528.57 1305.37 1519.34 1297.18 1510.85 1289.47 C 1518.34 1277.97 1528.68 1258.17 1536.03 1245.52 C 1555.01 1212.85 1574.23 1180.33 1593.69 1147.94 C 1599.82 1149.92 1606.08 1151.49 1612.42 1152.62 C 1693.32 1166.81 1760.42 1118.67 1773.92 1037.89 z" fill="rgb(36,30,125)" transform="translate(0,0)"></path>
<path d="M 1773.92 1037.89 C 1776.1 1074.43 1774.34 1111.91 1774.97 1148.55 C 1775.07 1154.33 1775.15 1160.78 1774.88 1166.49 L 1773.64 1168.03 C 1767.87 1175.38 1763.11 1186.89 1756.46 1194.61 C 1730.25 1225.04 1689.79 1241.21 1651.03 1246.26 C 1632.32 1248.84 1613.34 1248.6 1594.71 1245.54 C 1640.78 1304.97 1660.23 1366.93 1650.92 1442.61 C 1634.41 1576.76 1509.95 1669.39 1377 1652.09 C 1326.87 1645.57 1284.84 1624.79 1244.4 1595.56 C 1254.66 1665.59 1236.37 1731.67 1175.75 1772.92 L 1345.6 1772.97 C 1374.97 1772.98 1406.12 1772.5 1435.32 1773.13 C 1425.03 1775.54 1027.68 1774.21 1023.6 1772.74 C 1021.96 1772.15 1021.53 1770.26 1020.74 1768.81 C 1027.54 1768.95 1030.67 1769.08 1037.43 1768.11 C 1042.91 1768.09 1051.25 1766.26 1056.65 1764.94 C 1092.49 1755.97 1123.36 1733.27 1142.6 1701.74 C 1159.79 1673.33 1166.58 1636.51 1158.73 1604.1 C 1190.94 1584.62 1222.46 1563.23 1254.63 1543.58 C 1268.1 1535.35 1280.14 1526.92 1294.14 1519.43 C 1328.42 1556.32 1369.65 1574.09 1420.18 1572.19 C 1462.24 1570.34 1501.86 1551.93 1530.38 1520.97 C 1581.14 1465.63 1584.27 1372.04 1535.91 1314.15 C 1528.57 1305.37 1519.34 1297.18 1510.85 1289.47 C 1518.34 1277.97 1528.68 1258.17 1536.03 1245.52 C 1555.01 1212.85 1574.23 1180.33 1593.69 1147.94 C 1599.82 1149.92 1606.08 1151.49 1612.42 1152.62 C 1693.32 1166.81 1760.42 1118.67 1773.92 1037.89 z" fill="rgb(197,200,219)" transform="translate(0,0)"></path>
<path d="M 1175.34 276.815 L 1397.11 276.568 C 1397.26 314.928 1399.08 359.175 1397.83 396.736 L 1397.21 396.912 C 1397.48 420.314 1395.86 458.51 1397.99 480.282 L 1397.69 480.639 C 1396.56 511.535 1398.16 543.106 1397.92 574.07 C 1397.87 580.607 1397.81 588.102 1398.22 594.605 C 1397.34 594.942 1397.57 594.825 1396.68 595.32 C 1397.77 603.659 1397.92 676.146 1395.74 679.622 C 1396.49 680.141 1396.36 680.107 1397.22 680.352 C 1396.54 704.115 1397.36 728.092 1397.23 751.839 C 1397.19 760.114 1397.82 782.47 1396.1 789.702 L 1395.4 789.948 C 1396.37 811.579 1374.31 855.856 1359.59 872.01 C 1361.91 873.809 1368.1 873.652 1371.41 873.851 C 1367.56 874.104 1364.1 874.324 1360.25 874.37 C 1338.27 902.858 1319.37 923.452 1283.72 936.682 C 1277.48 939.001 1260.94 940.47 1257.21 943.875 L 1255.68 939.21 C 1250.16 945.9 1219.89 910.582 1215.78 905.697 L 1216.13 904.539 C 1214.06 898.815 1209.24 887.915 1208.64 882.525 C 1206.4 862.474 1207 840.218 1206.97 819.992 C 1207.12 782.929 1206.89 745.866 1206.26 708.808 L 1206.1 708.166 C 1206.52 696.954 1206.67 694.344 1205.83 683.395 L 1206.43 682.631 C 1207.69 669.09 1207.44 518.083 1205.5 513.779 L 1208.4 508.11 C 1204.87 504.144 1200.49 479.5 1197.83 472.136 C 1192.07 456.203 1172.71 416.817 1157.02 409.449 C 1153.18 357.706 1131.7 325.268 1088.76 297.164 C 1106.16 294.361 1189.2 299.696 1196.91 293.734 C 1189.72 286.591 1183.94 282.083 1175.34 276.815 z" fill="rgb(52,42,147)" transform="translate(0,0)"></path>
<path d="M 1196.91 293.734 C 1254.37 351.689 1244.66 441.578 1208.4 508.11 C 1204.87 504.144 1200.49 479.5 1197.83 472.136 C 1192.07 456.203 1172.71 416.817 1157.02 409.449 C 1153.18 357.706 1131.7 325.268 1088.76 297.164 C 1106.16 294.361 1189.2 299.696 1196.91 293.734 z" fill="rgb(226,227,237)" transform="translate(0,0)"></path>
<path d="M 1360.57 395.944 C 1372.79 395.994 1385.01 396.316 1397.21 396.912 C 1397.48 420.314 1395.86 458.51 1397.99 480.282 L 1397.69 480.639 C 1378.74 482.897 1359.69 490.096 1342.23 497.457 C 1355.1 460.527 1357.92 434.154 1360.57 395.944 z" fill="rgb(226,227,237)" transform="translate(0,0)"></path>
<path d="M 1351.67 778.224 C 1361.07 781.208 1369.84 784.616 1379.51 786.818 C 1384.7 787.999 1390.36 788.695 1395.4 789.948 C 1396.37 811.579 1374.31 855.856 1359.59 872.01 C 1349.02 845.877 1335.56 829.833 1321.78 807.353 C 1331.53 798.157 1342.04 787.711 1351.67 778.224 z" fill="rgb(226,227,237)" transform="translate(0,0)"></path>
<path d="M 1251.64 634.074 L 1251.48 635.702 C 1249.38 654.993 1257.41 679.339 1264.57 697.159 C 1254.7 706.534 1244.39 717.694 1234.83 727.696 C 1223.36 718.402 1219.54 715.83 1206.26 708.808 L 1206.1 708.166 C 1206.52 696.954 1206.67 694.344 1205.83 683.395 L 1206.43 682.631 C 1225.6 664.795 1235.27 654.014 1251.64 634.074 z" fill="rgb(226,227,237)" transform="translate(0,0)"></path>
<path d="M 1395.74 679.622 C 1384.89 674.803 1377.61 668.714 1372.31 657.846 C 1366.98 646.991 1366.15 634.466 1370.02 623.005 C 1374.53 609.952 1384.56 601.093 1396.68 595.32 C 1397.77 603.659 1397.92 676.146 1395.74 679.622 z" fill="rgb(226,227,237)" transform="translate(0,0)"></path>
<path d="M 1232.65 884.244 C 1241.45 902.844 1249.96 918.94 1255.68 939.21 C 1250.16 945.9 1219.89 910.582 1215.78 905.697 L 1216.13 904.539 C 1222.18 898.227 1227 890.864 1232.65 884.244 z" fill="rgb(226,227,237)" transform="translate(0,0)"></path>
<path d="M 1397.83 396.736 C 1472.64 397.797 1533.34 415.092 1587.3 470.385 C 1630.39 514.53 1654.06 574.066 1653.03 635.75 C 1652.35 683.448 1639.88 721.828 1615.77 761.718 C 1567.92 840.872 1479.74 874.658 1390.55 873.435 C 1384.51 873.352 1377.49 873.501 1371.41 873.851 C 1368.1 873.652 1361.91 873.809 1359.59 872.01 C 1374.31 855.856 1396.37 811.579 1395.4 789.948 L 1396.1 789.702 C 1397.82 782.47 1397.19 760.114 1397.23 751.839 C 1397.36 728.092 1396.54 704.115 1397.22 680.352 C 1396.36 680.107 1396.49 680.141 1395.74 679.622 C 1397.92 676.146 1397.77 603.659 1396.68 595.32 C 1397.57 594.825 1397.34 594.942 1398.22 594.605 C 1397.81 588.102 1397.87 580.607 1397.92 574.07 C 1398.16 543.106 1396.56 511.535 1397.69 480.639 L 1397.99 480.282 C 1395.86 458.51 1397.48 420.314 1397.21 396.912 L 1397.83 396.736 z" fill="rgb(197,200,219)" transform="translate(0,0)"></path>
<path d="M 1397.99 480.282 C 1447 478.39 1484.12 487.288 1521.2 521.759 C 1551.14 549.816 1568.75 588.577 1570.21 629.579 C 1571.86 672.05 1556.23 713.379 1526.9 744.141 C 1499.25 773.266 1461.18 790.236 1421.03 791.329 C 1414.58 791.492 1402.24 791.305 1396.1 789.702 C 1397.82 782.47 1397.19 760.114 1397.23 751.839 C 1397.36 728.092 1396.54 704.115 1397.22 680.352 C 1396.36 680.107 1396.49 680.141 1395.74 679.622 C 1397.92 676.146 1397.77 603.659 1396.68 595.32 C 1397.57 594.825 1397.34 594.942 1398.22 594.605 C 1397.81 588.102 1397.87 580.607 1397.92 574.07 C 1398.16 543.106 1396.56 511.535 1397.69 480.639 L 1397.99 480.282 z" fill="rgb(36,30,125)" transform="translate(0,0)"></path>
<path d="M 1398.22 594.605 C 1413.08 591.458 1424.37 592.128 1437.56 600.454 C 1447.5 606.6 1454.48 616.562 1456.87 628.006 C 1464.08 662.687 1432.88 690.952 1398.36 680.681 L 1397.22 680.352 C 1396.36 680.107 1396.49 680.141 1395.74 679.622 C 1397.92 676.146 1397.77 603.659 1396.68 595.32 C 1397.57 594.825 1397.34 594.942 1398.22 594.605 z" fill="rgb(197,200,219)" transform="translate(0,0)"></path>
<path d="M 1172.03 959.103 C 1188.97 941.901 1201.17 924.694 1215.78 905.697 C 1219.89 910.582 1250.16 945.9 1255.68 939.21 L 1257.21 943.875 C 1277.13 1011.12 1272.51 1078.03 1239 1140.05 C 1205.84 1201.32 1149.44 1246.69 1082.49 1265.95 C 1063.24 1271.64 1043.3 1274.73 1023.23 1275.13 L 1023.09 1183.13 L 1024.26 1182.92 C 1041.63 1183.22 1058.94 1180.72 1075.52 1175.49 C 1140.15 1155.06 1184.03 1094.25 1185.06 1027.47 C 1185.47 1001.31 1180.07 983.342 1172.03 959.103 z" fill="rgb(197,200,219)" transform="translate(0,0)"></path>
<path d="M 1039.44 1398.11 C 1107.87 1396.09 1183.36 1363.96 1237.72 1323.36 C 1245.87 1332.3 1256.82 1342.27 1265.75 1350.79 C 1258.22 1368.85 1253.69 1381.74 1252.68 1401.86 C 1194.31 1438.17 1133.82 1477.55 1074.98 1512.36 C 1060.13 1507.76 1039.23 1503.37 1023.68 1505.78 L 1023.05 1505.73 C 1023.8 1500.51 1023.28 1477.44 1023.26 1471.19 L 1023.01 1398.86 C 1029.73 1398.97 1032.75 1399.06 1039.44 1398.11 z" fill="rgb(197,200,219)" transform="translate(0,0)"></path>
<path d="M 1719.89 821.002 C 1743.67 837.065 1758.25 848.897 1771.65 874.926 C 1771.98 875.953 1772.47 877.891 1773.43 878.445 C 1774.15 878.336 1774.84 875.968 1775.09 875.403 C 1774.13 905.498 1775.14 936.661 1774.32 966.817 C 1774.14 973.545 1774.57 996.939 1773.02 1002.52 C 1757.03 944.622 1722.19 906.507 1661.47 895.26 C 1688.6 866.409 1698.5 854.884 1719.89 821.002 z" fill="rgb(197,200,219)" transform="translate(0,0)"></path>
<path d="M 1023.09 1601.56 L 1024.95 1601.23 C 1074.87 1608.79 1070.91 1666.88 1023.96 1671.35 L 1023.35 1671.25 C 1024.24 1666.72 1023.51 1654.91 1023.46 1649.59 L 1023.09 1601.56 z" fill="rgb(197,200,219)" transform="translate(0,0)"></path>
<path d="M 1771.65 874.926 C 1777.24 870.632 1770.18 787.468 1774.65 782.269 C 1775.76 810.795 1773.04 848.024 1775.09 875.403 C 1774.84 875.968 1774.15 878.336 1773.43 878.445 C 1772.47 877.891 1771.98 875.953 1771.65 874.926 z" fill="rgb(52,42,147)" transform="translate(0,0)"></path>
<path d="M 1502.58 980.358 C 1505.98 979.962 1504.88 979.4 1506.87 980.819 C 1506.39 988.34 1503.11 993.724 1501.93 1000.69 C 1498.55 1020.65 1499.55 1038.39 1502.73 1058.1 C 1465.37 1124.18 1425.46 1189.41 1387.72 1255.4 C 1376.42 1257.58 1363.28 1259.7 1352.46 1263.24 C 1349.27 1259.4 1345.78 1255.56 1342.46 1251.81 C 1336.48 1244.27 1329.55 1236.35 1323.31 1228.92 C 1372.21 1157.68 1397.08 1078.82 1386.57 991.917 C 1410.48 991.335 1433.93 991.187 1457.64 987.567 C 1472.66 985.274 1487.59 982.897 1502.58 980.358 z" fill="rgb(197,200,219)" transform="translate(0,0)"></path>
<path d="M 1410.14 1368.32 C 1435.02 1366.98 1456.3 1386 1457.77 1410.87 C 1459.24 1435.73 1440.35 1457.12 1415.49 1458.73 C 1390.43 1460.35 1368.84 1441.28 1367.36 1416.21 C 1365.88 1391.15 1385.07 1369.66 1410.14 1368.32 z" fill="rgb(197,200,219)" transform="translate(0,0)"></path>
<path d="M 1639.16 992.724 C 1656.9 991.553 1672.23 1004.97 1673.43 1022.71 C 1674.62 1040.45 1661.22 1055.81 1643.48 1057.02 C 1625.71 1058.24 1610.33 1044.81 1609.13 1027.04 C 1607.93 1009.27 1621.38 993.897 1639.16 992.724 z" fill="rgb(197,200,219)" transform="translate(0,0)"></path>
<path d="M 1157.02 409.449 C 1172.71 416.817 1192.07 456.203 1197.83 472.136 C 1200.49 479.5 1204.87 504.144 1208.4 508.11 L 1205.5 513.779 C 1207.44 518.083 1207.69 669.09 1206.43 682.631 L 1205.83 683.395 C 1206.67 694.344 1206.52 696.954 1206.1 708.166 L 1206.26 708.808 C 1206.89 745.866 1207.12 782.929 1206.97 819.992 C 1207 840.218 1206.4 862.474 1208.64 882.525 C 1209.24 887.915 1214.06 898.815 1216.13 904.539 L 1215.78 905.697 C 1201.17 924.694 1188.97 941.901 1172.03 959.103 C 1180.07 983.342 1185.47 1001.31 1185.06 1027.47 C 1184.03 1094.25 1140.15 1155.06 1075.52 1175.49 C 1058.94 1180.72 1041.63 1183.22 1024.26 1182.92 C 1021.94 1175.96 1023.77 1088.46 1023.57 1074.22 C 1023.05 1063.44 1023.18 1052.6 1023.08 1041.79 C 1022.87 1020.72 1023.22 999.61 1022.83 978.548 C 1022.82 977.671 1021.67 976.925 1021.12 976.478 C 1022.1 976.119 1022.4 976.048 1023.41 975.849 C 1024.2 967.931 1023.72 947.711 1023.7 938.693 C 1023.54 914.391 1023.57 890.088 1023.78 865.786 C 1022.84 844.405 1023.51 822.759 1023.2 801.386 C 1023.1 794.208 1023.69 778.112 1022.4 771.721 L 1020.23 770.579 L 1023.79 769.934 C 1024.12 733.763 1021.72 685.634 1023.74 650.954 C 1022.31 618.489 1023.53 582.435 1023.05 549.364 L 1023.71 549.289 C 1057.22 550.358 1091.93 533.758 1115.47 510.475 C 1143.63 482.632 1156.67 448.723 1157.02 409.449 z" fill="rgb(36,30,125)" transform="translate(0,0)"></path>
<path d="M 1157.02 409.449 C 1172.71 416.817 1192.07 456.203 1197.83 472.136 C 1200.49 479.5 1204.87 504.144 1208.4 508.11 L 1205.5 513.779 C 1196.85 527.288 1188.22 541.017 1178.15 553.524 C 1140.44 600.368 1084.63 642.788 1023.74 650.954 C 1022.31 618.489 1023.53 582.435 1023.05 549.364 L 1023.71 549.289 C 1057.22 550.358 1091.93 533.758 1115.47 510.475 C 1143.63 482.632 1156.67 448.723 1157.02 409.449 z" fill="rgb(197,200,219)" transform="translate(0,0)"></path>
<path d="M 1023.79 769.934 C 1063.04 770.083 1090.52 772.881 1126.87 790.239 C 1136.82 794.993 1146.86 799.621 1155.75 806.406 C 1129.95 828.291 1100.58 852.798 1073.73 873.443 C 1053.58 867.457 1045.02 865.742 1023.78 865.786 C 1022.84 844.405 1023.51 822.759 1023.2 801.386 C 1023.1 794.208 1023.69 778.112 1022.4 771.721 L 1020.23 770.579 L 1023.79 769.934 z" fill="rgb(197,200,219)" transform="translate(0,0)"></path>
<path d="M 1023.41 975.849 C 1029.33 976.978 1034.78 976.681 1040.55 978.774 C 1079.08 992.761 1086.14 1041.64 1052.48 1065.48 C 1042.41 1072.61 1035.13 1072.9 1023.57 1074.22 C 1023.05 1063.44 1023.18 1052.6 1023.08 1041.79 C 1022.87 1020.72 1023.22 999.61 1022.83 978.548 C 1022.82 977.671 1021.67 976.925 1021.12 976.478 C 1022.1 976.119 1022.4 976.048 1023.41 975.849 z" fill="rgb(197,200,219)" transform="translate(0,0)"></path>
<path d="M 1188.72 698.893 C 1192.96 694.812 1201.39 686.966 1205.83 683.395 C 1206.67 694.344 1206.52 696.954 1206.1 708.166 C 1200.56 705.322 1194.18 701.883 1188.72 698.893 z" fill="rgb(197,200,219)" transform="translate(0,0)"></path>
<path d="M 277.246 764.249 C 276.186 721.227 277.773 676.745 276.919 633.693 C 275.054 539.619 311.704 447.851 379.127 381.125 C 438.416 322.303 516.299 285.909 599.456 278.166 C 631.521 275.29 675.069 276.646 708.368 276.705 L 871.81 276.773 C 864.428 283.216 859.104 287.538 852.261 294.793 C 816.767 332.459 794.675 397.669 804.958 448.883 L 803.837 448.33 C 786.947 439.809 772.509 429.219 753.43 420.057 C 694.912 391.443 627.655 386.335 565.487 405.785 C 503.032 425.466 451.214 469.608 421.856 528.141 C 392.676 585.112 388.274 654.923 408.536 715.347 C 421.047 752.657 432.327 772.058 456.342 802.74 C 406.673 797.185 349.996 806.399 309.911 838.135 C 308.611 839.164 307.816 839.726 306.707 840.985 C 294.707 851.819 289.928 858.021 281.411 872.006 C 281.06 873.19 277.803 879.584 277.065 881.095 C 277.092 842.402 276.617 802.862 277.246 764.249 z" fill="rgb(52,42,147)" transform="translate(0,0)"></path>
<path d="M 277.246 764.249 C 280.211 769.262 276.545 858.938 278.89 870.448 C 279.731 870.967 280.571 871.486 281.411 872.006 C 281.06 873.19 277.803 879.584 277.065 881.095 C 277.092 842.402 276.617 802.862 277.246 764.249 z" fill="rgb(36,30,125)" transform="translate(0,0)"></path>
<path d="M 852.261 294.793 C 859.236 299.395 939.724 295.213 957.558 298.803 C 901.706 333.266 885.568 375.538 891.772 439.161 C 867.265 456.77 842.215 472.919 816.939 489.376 C 797.063 502.318 777.422 516.619 757.609 529.527 C 726.629 498.106 689.574 479.838 644.957 478.657 C 505.521 474.964 419.861 642.105 522.691 744.867 C 527.42 749.517 532.293 754.018 537.302 758.366 C 511.109 802.42 478.618 854.778 450.239 897.799 C 410.408 888.179 377.867 890.513 341.767 912.377 C 329.764 919.58 318.856 928.468 309.378 938.771 C 308.315 932.163 308.764 918.369 308.737 911.16 L 308.347 864.054 C 308.256 857.941 308.471 846.279 306.707 840.985 C 307.816 839.726 308.611 839.164 309.911 838.135 C 349.996 806.399 406.673 797.185 456.342 802.74 C 432.327 772.058 421.047 752.657 408.536 715.347 C 388.274 654.923 392.676 585.112 421.856 528.141 C 451.214 469.608 503.032 425.466 565.487 405.785 C 627.655 386.335 694.912 391.443 753.43 420.057 C 772.509 429.219 786.947 439.809 803.837 448.33 L 804.958 448.883 C 794.675 397.669 816.767 332.459 852.261 294.793 z" fill="rgb(226,227,237)" transform="translate(0,0)"></path>
<path d="M 851.011 1754.27 C 828.977 1733.82 815.981 1693.99 813.564 1664.63 C 806.661 1580.76 853.264 1501.63 916.861 1450.17 C 944.155 1428.09 987.542 1401.9 1023.01 1398.86 L 1023.26 1471.19 C 1023.28 1477.44 1023.8 1500.51 1023.05 1505.73 L 1023.68 1505.78 C 1023.47 1516.26 1022.11 1598.14 1024.95 1601.23 L 1023.09 1601.56 L 1023.46 1649.59 C 1023.51 1654.91 1024.24 1666.72 1023.35 1671.25 L 1023.96 1671.35 C 1022.78 1677.9 1023.3 1696.06 1023.24 1703.38 C 1023.09 1724.64 1023.84 1746.47 1023.18 1767.71 C 1027.48 1767.75 1033.28 1767.63 1037.43 1768.11 C 1030.67 1769.08 1027.54 1768.95 1020.74 1768.81 C 1019.2 1768.41 1007.35 1766.86 1004.45 1766.32 C 986.838 1763.02 976.084 1758.29 960.473 1750.35 C 942.532 1756.28 859.82 1749.06 851.011 1754.27 z" fill="rgb(226,227,237)" transform="translate(0,0)"></path>
<path d="M 1023.05 1505.73 L 1023.68 1505.78 C 1023.47 1516.26 1022.11 1598.14 1024.95 1601.23 L 1023.09 1601.56 L 1023.46 1649.59 C 1023.51 1654.91 1024.24 1666.72 1023.35 1671.25 L 1023.96 1671.35 C 1022.78 1677.9 1023.3 1696.06 1023.24 1703.38 C 1023.09 1724.64 1023.84 1746.47 1023.18 1767.71 C 1027.48 1767.75 1033.28 1767.63 1037.43 1768.11 C 1030.67 1769.08 1027.54 1768.95 1020.74 1768.81 C 1019.2 1768.41 1007.35 1766.86 1004.45 1766.32 C 986.838 1763.02 976.084 1758.29 960.473 1750.35 C 946.02 1740.75 929.089 1727.9 919.063 1713.58 C 855.14 1622.27 918.496 1516.44 1023.05 1505.73 z" fill="rgb(52,42,147)" transform="translate(0,0)"></path>
<path d="M 1023.35 1671.25 C 1006.88 1669.83 993.262 1657.21 990.925 1640.5 C 988.456 1622.86 1005.08 1602.04 1023.09 1601.56 L 1023.46 1649.59 C 1023.51 1654.91 1024.24 1666.72 1023.35 1671.25 z" fill="rgb(226,227,237)" transform="translate(0,0)"></path>
<path d="M 811.464 1160.46 C 807.632 1153.66 804.904 1145.93 801.904 1138.68 C 772.37 1067.3 771.813 986.324 805.835 916.011 C 844.371 836.368 930.658 775.926 1020.23 770.579 L 1022.4 771.721 C 1023.69 778.112 1023.1 794.208 1023.2 801.386 C 1023.51 822.759 1022.84 844.405 1023.78 865.786 C 1008.37 866.324 993.095 868.775 978.296 873.081 C 937.984 884.997 904.125 912.564 884.285 949.623 C 859.277 995.812 860.158 1035.92 874.605 1084.9 C 851.11 1110.26 832.514 1133.27 811.464 1160.46 z" fill="rgb(226,227,237)" transform="translate(0,0)"></path>
<path d="M 1022.98 281.017 L 1023.6 278.646 C 1037.21 273.363 1076.37 290.399 1088.76 297.164 C 1131.7 325.268 1153.18 357.706 1157.02 409.449 C 1156.67 448.723 1143.63 482.632 1115.47 510.475 C 1091.93 533.758 1057.22 550.358 1023.71 549.289 C 1022.96 543.188 1023.48 523.315 1023.45 515.763 L 1023.04 446.379 C 1023.36 424.032 1023.19 400.276 1023.05 377.899 L 1023.84 377.768 C 1024.67 351.008 1024.02 307.844 1022.98 281.017 z" fill="rgb(36,30,125)" transform="translate(0,0)"></path>
<path d="M 1023.84 377.768 C 1069.62 380.949 1074.42 442.202 1023.04 446.379 C 1023.36 424.032 1023.19 400.276 1023.05 377.899 L 1023.84 377.768 z" fill="rgb(197,200,219)" transform="translate(0,0)"></path>
<path d="M 965.244 535.48 C 983.862 545.251 1002.36 548.298 1023.05 549.364 C 1023.53 582.435 1022.31 618.489 1023.74 650.954 C 946.719 654.623 881.722 682.648 819.367 726.126 C 809.197 715.914 799.449 705.292 790.146 694.284 C 795.141 677.928 798.835 663.521 800.341 646.508 C 812.797 639.35 833.856 624.227 847.015 615.521 C 886.645 589.168 926.056 562.487 965.244 535.48 z" fill="rgb(226,227,237)" transform="translate(0,0)"></path>
<path d="M 983.54 1176.08 C 998.303 1180.57 1007.87 1181.9 1023.09 1183.13 L 1023.23 1275.13 C 981.243 1275.55 931.229 1262.07 896.185 1238.8 C 926.373 1217.89 954.743 1198.99 983.54 1176.08 z" fill="rgb(226,227,237)" transform="translate(0,0)"></path>
<path d="M 308.546 1111.68 C 332.474 1135.59 353.09 1146.79 386.421 1153.74 C 361.206 1180.33 351.007 1194 330.926 1224.71 C 321.541 1218.91 313.964 1214.3 305.725 1206.78 C 309.521 1198.35 308.521 1125.14 308.546 1111.68 z" fill="rgb(226,227,237)" transform="translate(0,0)"></path>
<path d="M 1023.57 1074.22 C 961.644 1068.18 962.288 983.873 1021.12 976.478 C 1021.67 976.925 1022.82 977.671 1022.83 978.548 C 1023.22 999.61 1022.87 1020.72 1023.08 1041.79 C 1023.18 1052.6 1023.05 1063.44 1023.57 1074.22 z" fill="rgb(226,227,237)" transform="translate(0,0)"></path>
<path d="M 1023.04 446.379 C 977.307 441.294 981.704 380.112 1023.05 377.899 C 1023.19 400.276 1023.36 424.032 1023.04 446.379 z" fill="rgb(226,227,237)" transform="translate(0,0)"></path>
<path d="M 615.176 1177.42 C 637.918 1174.59 672.99 1179.62 694.944 1184.74 C 703.468 1204.29 713.774 1223.01 725.731 1240.66 C 718.452 1247.82 707.998 1260.8 700.824 1268.92 C 657.029 1252.98 626.455 1249.15 581.253 1266.24 C 542.048 1281.06 510.97 1308.98 493.972 1347.59 C 476.971 1386.76 476.361 1431.1 492.278 1470.72 C 507.183 1509.35 536.97 1540.38 574.959 1556.86 C 616.485 1574.8 660.27 1573.45 701.902 1557.04 C 698.58 1570.79 696.536 1582.82 694.473 1596.74 C 692.057 1615.94 692.083 1629.22 691.951 1648.59 C 617.658 1661.99 541.352 1647.55 482.658 1597.97 C 319.237 1459.92 398.338 1196.37 615.176 1177.42 z" fill="rgb(226,227,237)" transform="translate(0,0)"></path>
<path d="M 704.983 783.041 C 711.833 787.964 724.838 803.239 730.682 809.991 C 677.909 890.238 656.303 962.577 662.281 1059.11 C 623.824 1057.21 597.412 1057.36 558.848 1065.5 L 538.108 1070.3 C 550.562 1039.9 552.468 1013.09 544.308 981.533 C 583.37 918.931 622.803 856.561 662.605 794.425 C 678.306 792.517 690.486 789.048 704.983 783.041 z" fill="rgb(226,227,237)" transform="translate(0,0)"></path>
<path d="M 632.298 1369.35 C 656.938 1366.13 679.551 1383.42 682.906 1408.04 C 686.261 1432.66 669.099 1455.37 644.497 1458.86 C 619.699 1462.38 596.771 1445.06 593.389 1420.24 C 590.007 1395.42 607.462 1372.59 632.298 1369.35 z" fill="rgb(226,227,237)" transform="translate(0,0)"></path>
<path d="M 629.797 593.511 C 645.701 590.52 661.986 596.303 672.442 608.655 C 682.898 621.007 685.912 638.024 680.335 653.216 C 674.759 668.408 661.451 679.433 645.487 682.087 C 621.164 686.13 598.12 669.839 593.82 645.561 C 589.519 621.283 605.566 598.068 629.797 593.511 z" fill="rgb(226,227,237)" transform="translate(0,0)"></path>
<path d="M 400.115 991.442 C 418.077 987.38 435.956 998.556 440.172 1016.48 C 444.388 1034.41 433.365 1052.38 415.475 1056.75 C 397.368 1061.17 379.127 1049.99 374.86 1031.84 C 370.592 1013.7 381.935 995.555 400.115 991.442 z" fill="rgb(226,227,237)" transform="translate(0,0)"></path>
<path d="M 816.522 1325.68 C 816.573 1325.7 854.808 1349.3 857.423 1350.97 C 841.835 1364.08 829.431 1374.09 814.854 1388.76 C 809.429 1394.45 804.175 1400.3 799.1 1406.31 C 798.595 1387.92 795.347 1371.89 789.408 1354.42 C 798.643 1344.52 807.043 1335.49 816.522 1325.68 z" fill="rgb(226,227,237)" transform="translate(0,0)"></path>
<metadata><recraft-signature>{"signed_by": "recraft", "signature_b64": "wQcWeybESHdoYjrNC6hg28dUPLOZjzvUU4DkpEMS6dmXIRc7vFAqdVibSwmm1+aSSsI/+WosTR/vSyEpD8t8CA==", "signing_algo": "Ed25519", "generation_timestamp": 1772807468, "identifier": "cc0a32c3-3d3e-4eef-93dd-b0891d57942f"}</recraft-signature></metadata></svg>