<svg xmlns="http://www.w3.org/2000/svg" height="1024" preserveAspectRatio="none" style="display: block;" version="1.1" viewBox="0 0 2048 2048" width="1024">
<defs>
	<linearGradient gradientUnits="userSpaceOnUse" id="Gradient1" x1="1016.39" x2="393.955" y1="1671.66" y2="399.42">
		<stop class="stop0" offset="0" stop-color="rgb(213,213,213)" stop-opacity="1"></stop>
		<stop class="stop1" offset="1" stop-color="rgb(255,255,255)" stop-opacity="1"></stop>
	</linearGradient>
	<linearGradient gradientUnits="userSpaceOnUse" id="Gradient2" x1="1799.61" x2="867.412" y1="1489.04" y2="559.057">
		<stop class="stop0" offset="0" stop-color="rgb(198,197,197)" stop-opacity="1"></stop>
		<stop class="stop1" offset="1" stop-color="rgb(250,250,250)" stop-opacity="1"></stop>
	</linearGradient>
</defs>
<path d="M 0 0 L 2048 0 L 2048 2048 L 0 2048 L 0 0 z" fill="rgb(253,253,253)" transform="translate(0,0)"></path>
<path d="M 1508.92 284.5 L 1538.93 284.249 C 1604.41 283.809 1653.4 302.933 1700.35 348.891 C 1762.96 410.191 1767.45 468.037 1767.77 549.659 L 1767.88 1258.62 L 1767.88 1454.25 C 1767.87 1488.45 1769.25 1551.69 1763.56 1582.49 C 1755 1627.85 1732.84 1669.53 1700.01 1701.99 C 1667.78 1734.32 1626.35 1755.9 1581.39 1763.78 C 1553.26 1768.68 1496.94 1766.88 1466.1 1766.84 L 1273.29 1766.71 L 543.766 1766.73 C 524.736 1766.81 503.002 1767.26 484.293 1765.37 C 434.076 1760.21 387.112 1738.1 351.13 1702.7 C 308.335 1661.07 283.763 1604.2 282.787 1544.51 L 282.183 794 L 282.09 599.408 C 281.909 558.209 279.103 507.248 285.593 466.946 C 299.635 379.753 380.814 300.158 468.099 287.035 C 499.06 282.381 544.459 284.61 576.687 284.632 L 776.324 284.776 L 1508.92 284.5 z" fill="rgb(30,7,71)" transform="translate(0,0)"></path>
<path d="M 1063.87 358.911 C 1064.96 358.867 1066.04 358.829 1067.12 358.799 C 1102.55 357.988 1141.1 358.634 1176.69 358.686 L 1385.65 359.02 L 1492.1 358.979 C 1535.5 358.964 1574.45 354.713 1613.53 377.901 C 1665.2 408.567 1689.61 455.847 1690.16 515.085 L 1690.22 1246.2 L 1690.26 1454.99 L 1690.32 1515.6 C 1690.33 1532.18 1690.86 1550.01 1688.3 1566.22 C 1679.86 1618.02 1641.9 1663.72 1592.43 1681.27 C 1560.84 1692.47 1531.95 1690.34 1499.22 1690.27 L 1411.28 1690.07 L 1083.75 1689.91 L 1063.91 1689.9 L 1063.97 1601.71 C 1076.88 1609.12 1088.54 1614.31 1102.98 1618.2 C 1142.59 1629.07 1184.9 1623.69 1220.53 1603.25 C 1255.68 1582.79 1278.43 1549.64 1288.53 1510.66 C 1334.8 1509.69 1379.48 1493.59 1415.73 1464.83 C 1463.9 1425.96 1483.59 1379.67 1490.26 1319.38 C 1540.24 1289.94 1579.54 1252.52 1603.4 1198.62 C 1613.26 1176.84 1619.97 1153.76 1623.31 1130.08 C 1627.07 1103.25 1625.7 1057.71 1625.63 1028.8 C 1625.56 998.461 1627.59 952.403 1624.34 923.88 C 1621.74 901.318 1616.22 879.19 1607.93 858.044 C 1588.31 807.957 1541.24 751.534 1491.84 729.816 C 1484.5 652.527 1443.76 590.011 1373.02 556.758 C 1343.92 543.075 1319.32 538.997 1287.77 536.311 C 1285.02 524.912 1282.47 517.088 1276.99 506.537 C 1258.19 470.865 1225.95 444.153 1187.41 432.309 C 1142.37 418.573 1104.31 427.038 1063.85 448.408 C 1063.37 419.066 1063.85 388.363 1063.87 358.911 z" fill="url(#Gradient2)" transform="translate(0,0)"></path>
<path d="M 1622.73 1299.33 L 1622.74 1456.77 C 1622.74 1470.84 1622.3 1486.19 1622.75 1500.24 C 1623.92 1536.98 1621.83 1567.8 1594.4 1595.36 C 1573.19 1616.67 1546.29 1624.48 1516.71 1623.14 C 1445.34 1623.52 1373.28 1622.05 1302.12 1623.04 C 1319.17 1605.06 1331.23 1591.34 1342.12 1568.42 C 1375 1561.64 1386.32 1559.92 1417.86 1545.21 C 1486.72 1506.65 1523.6 1460.19 1547.09 1384.86 C 1548.77 1376.17 1550.93 1366.23 1551.98 1357.54 C 1584.87 1339.34 1597.89 1326.85 1622.73 1299.33 z" fill="rgb(30,7,71)" transform="translate(0,0)"></path>
<path d="M 1547.09 1384.86 C 1552.11 1394.53 1546.75 1488.11 1548.78 1508.45 C 1549.17 1512.36 1548.75 1525.79 1548.51 1530.52 C 1544.96 1536.3 1537.65 1545.38 1531.36 1545.86 C 1513.99 1547.18 1430.55 1548.28 1417.86 1545.21 C 1486.72 1506.65 1523.6 1460.19 1547.09 1384.86 z" fill="rgb(61,22,130)" transform="translate(0,0)"></path>
<path d="M 1304.92 425.918 L 1461.07 426.061 C 1482.21 426.125 1526.84 424.659 1545.47 428.919 C 1564 433.198 1580.94 442.625 1594.35 456.115 C 1607.1 468.931 1615.95 485.104 1619.87 502.752 C 1623.81 520.28 1622.6 568.947 1622.62 589.921 L 1622.86 745.621 C 1599.98 720.215 1585.51 707.224 1554.95 690.174 C 1553.4 682.28 1547.82 661.906 1547.14 656.503 C 1523.06 585.255 1484.03 539.189 1417.8 503.776 C 1388.59 492.122 1372.54 486.609 1340.95 480.885 C 1332.91 459.252 1320.73 442.71 1304.92 425.918 z" fill="rgb(30,7,71)" transform="translate(0,0)"></path>
<path d="M 1417.8 503.776 C 1432.17 500.732 1468.24 503.304 1484.57 502.708 C 1495.9 502.296 1511.91 502.523 1523.33 503.005 C 1528.24 503.212 1533.46 505.418 1537.46 507.499 C 1541.87 509.799 1547 516.862 1547.18 521.414 C 1547.96 540.032 1550.05 645.657 1547.14 656.503 C 1523.06 585.255 1484.03 539.189 1417.8 503.776 z" fill="rgb(61,22,130)" transform="translate(0,0)"></path>
<path d="M 498.223 359.414 C 518.022 358.459 541.171 358.952 561.177 358.961 L 666.81 359.021 L 986.014 358.98 L 985.978 447.619 C 972.937 440.815 962.262 435.521 948.029 431.522 C 908.996 420.579 867.213 425.643 831.924 445.591 C 796.511 465.726 772.693 497.67 761.901 536.697 C 710.533 537.386 661.194 556.853 623.196 591.424 C 584.572 626.835 561.72 676.226 559.731 728.588 C 549.806 734.918 538.832 740.961 529.311 747.556 C 496.447 770.109 469.733 800.509 451.59 835.999 C 438.684 861.525 430.036 888.988 425.987 917.303 C 421.929 944.949 424.183 989.916 423.93 1019.39 C 425.079 1053.2 421.354 1088.83 424.907 1122.37 C 434 1208.2 485.315 1280.45 560.812 1318.17 C 564.314 1364.29 574.948 1404.23 605.536 1439.97 C 638.737 1478.76 689.057 1505.57 739.91 1509.9 C 746.108 1510.87 752.123 1510.91 758.388 1511.1 C 762.364 1523.14 766.154 1533.21 772.238 1544.42 C 791.137 1579.84 823.542 1606.13 862.102 1617.33 C 906.54 1630.07 946.331 1623.12 985.932 1600.95 L 986.014 1690.18 L 645.497 1690.05 L 549.971 1690.22 C 527.995 1690.27 504.346 1691.4 482.544 1687.82 C 417.679 1677.18 366.352 1621.91 359.729 1556.67 C 357.733 1536.99 358.906 1513.44 358.948 1493.47 L 359.129 1381.34 L 359.138 1011.46 L 359.25 659.72 L 359.074 551.18 C 359.048 536.203 358.204 506.431 359.781 492.334 C 363.183 463.22 374.897 435.701 393.525 413.068 C 420.89 380.288 456.079 363.188 498.223 359.414 z" fill="url(#Gradient1)" transform="translate(0,0)"></path>
<path d="M 425.389 745.148 L 425.294 593.937 C 425.255 570.946 425.257 547.939 425.324 524.945 C 425.403 497.926 435.849 473.144 455.05 453.945 C 467.931 440.976 484.333 432.069 502.225 428.327 C 520.325 424.422 568.879 425.922 589.79 425.932 L 745.956 425.989 C 728.905 444.883 720.154 457.449 709.86 481.065 C 677.545 487.263 664.36 490.531 634.308 504.09 C 565.468 539.818 528.735 581.227 502.801 654.363 C 499.676 666.645 497.181 676.794 494.941 689.264 C 469.89 700.332 443.304 724.47 425.389 745.148 z" fill="rgb(30,7,71)" transform="translate(0,0)"></path>
<path d="M 502.801 654.363 C 500.41 646.294 501.898 536.36 502.941 518.925 C 503.178 514.972 506.122 508.514 510.221 506.548 C 512.611 505.401 515.834 503.268 519.117 503.221 C 540.184 502.918 618.208 500.258 634.308 504.09 C 565.468 539.818 528.735 581.227 502.801 654.363 z" fill="rgb(61,22,130)" transform="translate(0,0)"></path>
<path d="M 425.547 1299.27 C 450.502 1326.15 460.753 1337.88 495.436 1355.5 C 496.709 1369.31 500.03 1380.97 503.615 1394.26 C 507.057 1408.83 512.928 1420.51 519.338 1433.85 C 541.994 1480.98 583.585 1520.89 630.092 1544.71 C 658.345 1557.86 675.064 1562.55 704.864 1568.79 C 715.958 1594.39 726.892 1603.21 743.88 1622.92 L 606.058 1622.85 C 579.476 1622.88 552.917 1623.03 526.326 1622.72 C 496.687 1622.36 471.939 1612.68 451.444 1590.6 C 439.136 1577.21 430.614 1560.79 426.755 1543.02 C 423.956 1529.57 424.689 1513.4 424.758 1499.51 L 424.937 1449.61 C 424.961 1402.62 423.54 1345.57 425.547 1299.27 z" fill="rgb(30,7,71)" transform="translate(0,0)"></path>
<path d="M 503.615 1394.26 C 507.057 1408.83 512.928 1420.51 519.338 1433.85 C 541.994 1480.98 583.585 1520.89 630.092 1544.71 L 628.616 1545.21 C 617.741 1548.94 539.024 1546.57 522.697 1546.49 C 520.032 1546.47 515.512 1545.21 512.826 1544.3 C 509.513 1541.18 506.658 1538.55 504.509 1534.52 C 503.106 1531.89 502.235 1527.29 502.315 1524.59 C 502.889 1505.28 499.962 1406.23 503.615 1394.26 z" fill="rgb(61,22,130)" transform="translate(0,0)"></path>
<path d="M 1284.6 608.738 C 1351.98 615.097 1405.69 656.009 1417.67 725.473 C 1419.64 736.887 1417.66 749.513 1419.49 761.502 C 1423.25 786.029 1456.48 791.469 1472.88 805.53 C 1509.01 830.917 1541.69 878.884 1547.18 923.61 C 1553.49 974.901 1548.39 1032.8 1549.89 1084.94 C 1551.34 1135.05 1529.79 1190.78 1492.35 1225.01 C 1483.89 1232.66 1474.75 1239.52 1465.05 1245.53 C 1452.95 1253 1432.2 1260.87 1424.57 1271.98 C 1416.4 1283.87 1419.55 1304.95 1417.64 1319.56 C 1414.59 1341.51 1406.24 1362.38 1393.31 1380.37 C 1365.98 1418 1334.15 1431.06 1290.16 1438.12 L 1287.49 1438.22 C 1284.31 1436.21 1275.62 1412.17 1271.98 1406.24 C 1266.32 1396.99 1264.11 1393.1 1256.69 1384.67 C 1308.38 1352.43 1337.95 1325.41 1363.78 1267.69 C 1368.84 1256.39 1371.75 1245.14 1376.39 1234.04 L 1376.91 1232.8 C 1388.84 1224.23 1398 1218.62 1409.47 1208.63 C 1475.62 1150.97 1496.64 1063.09 1484.08 978.19 C 1476.52 925.106 1449.96 876.569 1409.32 841.592 C 1396.74 830.648 1386.53 824.35 1373.49 814.724 C 1370.54 805.05 1368.51 796.223 1364.94 786.5 C 1346.26 735.634 1305.01 687.249 1255.72 664.047 C 1260.32 655.295 1267.21 646.051 1272.31 637.221 C 1278.29 626.861 1280.7 619.895 1284.6 608.738 z" fill="rgb(61,22,130)" transform="translate(0,0)"></path>
<path d="M 751.672 610.388 C 753.783 609.99 761.504 609.829 764.062 609.718 C 774.589 632.945 779.083 641.911 793.655 662.644 C 742.738 692.871 708.466 724.45 684.3 780.798 C 680.329 790.057 677.046 802.895 674.209 812.756 C 668.024 818.167 655.442 826.698 648.214 832.312 C 626.731 848.868 608.235 868.975 593.526 891.763 C 577.653 916.747 567.438 946.886 563.717 976.292 C 549.849 1085.9 579.361 1174.7 676.298 1234.67 C 679.456 1246.51 682.948 1259.93 687.806 1271.23 C 703.276 1307.2 730.24 1340.25 761.344 1363.82 C 771.471 1371.49 783.343 1377.73 793.815 1384.73 C 781.35 1401.12 775.171 1411.88 767.499 1430.75 L 764.4 1438.37 C 733.145 1436.94 704.041 1427.29 679.788 1407.26 C 653.791 1385.57 636.338 1356.97 631.913 1323.19 C 629.722 1306.47 633.121 1284.43 623.464 1270.29 C 617.006 1260.83 598.291 1254.2 588.52 1247.97 C 581.852 1243.73 575.595 1239.47 569.465 1234.45 C 531.195 1203.91 506.027 1159.79 501.411 1110.76 C 498.585 1080.74 500.429 1046.17 499.951 1015.94 C 498.641 933.155 497.224 871.248 567.257 813.605 C 574.382 807.741 580.221 803.538 588.247 798.373 C 599.652 791.032 619.517 783.691 626.702 771.976 C 632.69 762.212 630.388 741.617 631.664 730.166 C 634.603 703.789 644.339 680.21 661.001 659.85 C 683.444 631.96 716.073 614.16 751.672 610.388 z" fill="rgb(61,22,130)" transform="translate(0,0)"></path>
<path d="M 984.822 700.059 C 986.912 703.36 986.026 771.874 986.011 781.506 C 981.841 781.442 977.671 781.413 973.5 781.419 C 925.751 781.564 877.253 775.551 842.189 812.521 C 813.416 842.858 812.578 868.441 812.659 906.874 C 755.971 914.198 712.725 953.232 706.609 1011.3 C 703.401 1041.34 712.278 1071.42 731.279 1094.91 C 751.276 1119.55 781.159 1134.17 812.49 1137.41 C 812.391 1142.28 812.346 1147.15 812.354 1152.02 C 812.652 1199.39 834.508 1238.77 879.228 1257.88 C 898.497 1266.11 918.777 1265.24 939.293 1265.01 L 985.96 1264.37 L 985.867 1349.33 C 970.689 1341.24 955.242 1335.03 938.075 1333.1 C 925.77 1331.29 910.537 1332.08 897.686 1331.31 C 861.585 1329.37 827.116 1315.65 799.554 1292.25 C 766.361 1264.14 748.969 1225.74 745.291 1182.89 L 744.482 1182.56 C 652.082 1144.9 613.962 1048.6 648.878 954.74 C 665.398 910.328 701.362 881.016 744.579 862.908 C 755.014 787.195 805.968 727.535 883.94 718.222 C 930.87 712.616 939.723 721.529 984.822 700.059 z" fill="rgb(253,253,253)" transform="translate(0,0)"></path>
<path d="M 1063.21 699.769 C 1079.3 707.403 1101.09 716.769 1119.36 715.824 C 1217.12 710.767 1289.93 766.857 1306.26 863.786 C 1314.24 867.046 1322.07 870.684 1329.71 874.688 C 1406.09 915.173 1426.29 1006.87 1401.35 1085.6 C 1388.92 1124.84 1345.94 1170.82 1305.55 1182.59 C 1301.42 1220.85 1284.5 1256.61 1257.53 1284.06 C 1231.16 1310.97 1196.09 1327.65 1158.57 1331.13 C 1146.04 1332.33 1127.78 1332.07 1114.77 1332.16 C 1094.13 1334.29 1082.71 1338.22 1064.1 1347.61 L 1064.04 1264.3 C 1087.28 1264.36 1110.8 1264.79 1133.77 1264.69 C 1183.82 1264.47 1226.05 1228.94 1236.4 1180.3 C 1239.7 1164.76 1239.03 1152.92 1238.6 1137.22 C 1257.7 1135.23 1275.99 1128.51 1291.84 1117.68 C 1317.12 1100.83 1334.52 1074.47 1340.07 1044.6 C 1352.68 974.747 1306.44 918.239 1238.16 906.784 C 1238.52 900.959 1238.73 895.126 1238.8 889.291 C 1238.88 840.209 1212.21 802.057 1165.3 786.596 C 1147.46 780.718 1130.37 781.925 1111.95 781.952 L 1063.91 782.079 C 1064.01 754.641 1063.78 727.202 1063.21 699.769 z" fill="rgb(253,253,253)" transform="translate(0,0)"></path>
<path d="M 1064 858.693 L 1065.71 858.686 C 1082.73 858.637 1101.56 859.084 1118.37 858.787 C 1171.56 857.847 1170.03 886.45 1170 927.831 L 1169.9 981.439 C 1205.13 980.911 1265.64 970.248 1266.52 1021.78 C 1266.67 1032.53 1262.56 1042.91 1255.08 1050.64 C 1238.55 1067.38 1194.3 1062.78 1170.06 1062.67 C 1169.82 1086.67 1173.72 1148.37 1165.81 1167.29 C 1149.91 1191.41 1131.46 1187.51 1105.98 1187.51 C 1091.94 1187.5 1077.78 1187.09 1063.75 1187.8 C 1063.63 1170.97 1063.9 1153.81 1063.98 1136.96 C 1070.11 1134.4 1075.73 1131.98 1081.59 1128.81 C 1109.68 1113.92 1130.62 1088.37 1139.71 1057.9 C 1148.78 1026.75 1144.96 993.264 1129.11 964.957 C 1115.25 939.881 1091.57 919.54 1063.93 911.466 C 1063.68 894.064 1063.95 876.136 1064 858.693 z" fill="rgb(61,22,130)" transform="translate(0,0)"></path>
<path d="M 912.6 859.153 C 933.974 857.741 964.054 858.795 985.893 858.96 C 985.539 875.892 985.936 894.001 986.012 911.019 C 978.974 914.035 972.249 916.921 965.418 920.543 C 907.624 951.314 886.854 1029.06 920.731 1084.83 C 937.834 1112.99 956.622 1124.36 985.998 1136.77 C 985.705 1153.58 985.905 1170.96 985.878 1187.82 L 937.588 1187.83 C 922.431 1187.85 906.133 1189.11 894.774 1177.16 C 883.551 1165.9 881.851 1150.21 881.873 1135.03 C 881.908 1110.99 881.956 1086.87 882.045 1062.79 C 860.554 1062.94 834.475 1064.34 813.451 1061.2 C 781.687 1056.47 772.272 1013.92 794.498 991.676 C 798.307 987.806 803.029 984.956 808.228 983.391 C 820.704 979.711 865.587 980.937 881.845 980.882 C 881.585 959.018 878.487 897.616 886.698 880.71 C 892.306 869.164 900.754 863.05 912.6 859.153 z" fill="rgb(61,22,130)" transform="translate(0,0)"></path>
<path d="M 896.762 499.645 C 937.496 494.299 974.868 522.939 980.298 563.662 C 985.729 604.385 957.167 641.817 916.456 647.332 C 875.624 652.863 838.057 624.198 832.611 583.356 C 827.165 542.513 855.908 505.006 896.762 499.645 z" fill="rgb(253,253,253)" transform="translate(0,0)"></path>
<path d="M 1134.75 499.777 C 1175.56 494.857 1212.63 523.981 1217.5 564.801 C 1222.38 605.621 1193.21 642.651 1152.38 647.477 C 1111.62 652.294 1074.67 623.185 1069.8 582.432 C 1064.94 541.68 1094 504.69 1134.75 499.777 z" fill="rgb(253,253,253)" transform="translate(0,0)"></path>
<path d="M 904.327 1401.6 C 945.091 1400.59 978.99 1432.75 980.138 1473.51 C 981.286 1514.27 949.251 1548.28 908.495 1549.57 C 867.534 1550.87 833.313 1518.64 832.159 1477.68 C 831.006 1436.71 863.357 1402.61 904.327 1401.6 z" fill="rgb(253,253,253)" transform="translate(0,0)"></path>
<path d="M 1131.45 1402.72 C 1171.43 1395.87 1209.44 1422.56 1216.59 1462.48 C 1223.74 1502.41 1197.34 1540.62 1157.47 1548.07 C 1117.18 1555.6 1078.47 1528.86 1071.24 1488.51 C 1064.02 1448.16 1091.04 1409.65 1131.45 1402.72 z" fill="rgb(253,253,253)" transform="translate(0,0)"></path>
<path d="M 1019.14 980.371 C 1042.24 977.247 1063.55 993.3 1066.93 1016.37 C 1070.3 1039.43 1054.48 1060.91 1031.45 1064.53 C 1016.33 1066.91 1001.1 1060.98 991.567 1049.01 C 982.035 1037.04 979.67 1020.87 985.375 1006.66 C 991.08 992.463 1003.98 982.422 1019.14 980.371 z" fill="rgb(253,253,253)" transform="translate(0,0)"></path>
<metadata><recraft-signature>{"signed_by": "recraft", "signature_b64": "T4XMjDfJ0lKxMi3B/AQWWyAdYygX2g6XWY4QzoMmNDSaJ2MaAGh5oOEerTfUT/96uxFohTjvXrb1d8aUGwouAA==", "signing_algo": "Ed25519", "generation_timestamp": 1772807401, "identifier": "884edd76-75be-4e77-970a-26a2bf7b009b"}</recraft-signature></metadata></svg>