<svg xmlns="http://www.w3.org/2000/svg" height="1024" preserveAspectRatio="none" style="display: block;" version="1.1" viewBox="0 0 2048 2048" width="1024">
<path d="M 0 0 L 2048 0 L 2048 2048 L 0 2048 L 0 0 z" fill="rgb(255,255,255)" transform="translate(0,0)"></path>
<path d="M 719.098 288.194 C 726.343 288.186 765.113 287.8 770.809 289.496 C 780.753 287.26 799.767 287.917 810.663 287.947 L 866.006 288.081 L 1093.78 288.114 L 1209.89 288.156 C 1226.64 288.124 1251.83 287.556 1267.67 288.618 C 1280.44 289.474 1314.3 307.302 1326.77 313.582 C 1335.58 309.407 1351.56 307.028 1357.01 301.653 C 1350.7 298.226 1343.46 294.84 1336.95 291.634 C 1324.25 287.23 1341.39 288.218 1344.61 288.232 C 1376.27 288.048 1417.77 286.866 1448.47 289.654 C 1528.79 296.914 1604.05 332.018 1661.23 388.893 C 1728.32 455.307 1764.92 545.333 1763.97 639.264 C 1763.76 660.135 1764.51 682.385 1763.92 703.073 C 1764.03 707.505 1764 711.508 1763.95 715.926 C 1764.04 731.961 1765.38 755.978 1761.87 770.888 C 1766.38 785.02 1764.05 868.876 1764.05 889.186 L 1763.88 1107.73 L 1763.93 1221.63 C 1763.91 1232.86 1764.52 1266.81 1763.06 1276.5 C 1764.48 1286.46 1764.57 1322.22 1763.98 1332.96 C 1764.21 1366.84 1765.23 1416.7 1761.97 1449.4 C 1753.93 1528.45 1719.13 1602.38 1663.34 1658.95 C 1590.35 1732.86 1505.65 1761.07 1404 1761.53 C 1381 1761.61 1358 1761.47 1335.01 1761.1 C 1333.26 1761 1331.51 1760.92 1329.76 1760.85 C 1320.85 1760.95 1287.54 1762.07 1280.21 1759.49 C 1275.16 1761.18 1270.19 1761.38 1264.9 1761.4 C 1105.09 1762 945.248 1761.45 785.44 1761.37 C 781.518 1761.37 774.54 1760.67 770.881 1759.24 C 683.74 1725.17 622.186 1673.45 571.322 1595.83 L 734.493 1596.09 C 759.458 1624.9 780.902 1648.28 811.596 1671.17 C 811.897 1665.26 811.666 1658.2 811.596 1652.22 C 811.259 1623.44 812.095 1595.48 814.212 1566.75 C 811.899 1564.35 810.375 1562.26 806.747 1562.19 C 784.209 1561.78 761.713 1562.6 739.14 1562.39 C 669.955 1561.77 600.766 1561.92 531.585 1562.84 C 528.216 1573.27 525.103 1580.22 520.58 1590.12 C 516.735 1590.29 512.889 1590.45 509.042 1590.58 C 451.417 1592.55 460.765 1555.2 460.979 1512.24 L 438.612 1500.34 C 443.361 1493.98 450.796 1482.85 455.747 1477.75 C 450.701 1475.07 438.346 1466.71 433.365 1463.31 C 377.479 1425.08 333.257 1375.1 304.812 1313.49 C 301.402 1306.11 287.253 1275.13 287.062 1268.75 C 286.591 1253.01 286.799 1231.57 286.801 1215.31 L 286.808 1098.38 L 286.836 883.75 C 286.863 851.178 286.648 818.339 286.705 785.75 C 286.716 779.502 288.668 771.551 290.9 765.551 C 317.199 694.843 364.532 631.36 426.181 587.649 C 434.686 581.618 447.986 572.845 457.007 568.51 C 455.892 621.851 455.557 675.206 456.001 728.557 C 453.624 730.27 451.302 732.058 449.04 733.92 C 379.366 791.014 328.691 867.935 303.731 954.486 C 298.141 973.353 292.536 995.797 290.427 1015.34 C 301.887 998.931 337.706 965.558 352.741 949.679 C 397.661 902.237 445.202 855.823 489.006 807.369 L 489.272 583.743 L 489.42 525.758 C 489.454 515.451 488.952 497.299 490.996 487.859 C 494.964 484.562 618.408 486.359 633.639 486.452 L 812.615 486.052 C 822.118 477.619 832.769 466.435 841.887 457.278 C 815.205 442.72 797.912 427.384 768.771 416.53 C 757.857 427.407 745.46 442.174 734.756 453.792 C 679.797 454.184 624.837 454.143 569.879 453.669 C 581.51 436.669 593.855 420.169 606.88 404.212 C 596.168 403.212 576.649 409.572 565.548 411.637 C 595.301 370.883 631.3 338.891 673.978 312.005 C 688.096 303.11 705.497 297.07 719.098 288.194 z" fill="rgb(41,24,131)" transform="translate(0,0)"></path>
<path d="M 1562.12 1242.64 C 1579.33 1221.33 1603.81 1197.87 1622.88 1177.31 C 1667.79 1128.9 1713.88 1082.18 1758.52 1033.43 C 1744.86 1123.93 1704.31 1208.24 1642.15 1275.41 C 1626.87 1291.64 1610.7 1304.85 1594.09 1319.57 L 1594.07 1477.39 C 1602.02 1473.83 1620.41 1460.9 1628.06 1455.41 C 1692.09 1409.41 1733.96 1348.71 1763.06 1276.5 C 1764.48 1286.46 1764.57 1322.22 1763.98 1332.96 C 1764.21 1366.84 1765.23 1416.7 1761.97 1449.4 C 1753.93 1528.45 1719.13 1602.38 1663.34 1658.95 C 1590.35 1732.86 1505.65 1761.07 1404 1761.53 C 1381 1761.61 1358 1761.47 1335.01 1761.1 C 1333.26 1761 1331.51 1760.92 1329.76 1760.85 C 1320.85 1760.95 1287.54 1762.07 1280.21 1759.49 C 1362.06 1727.25 1431.44 1669.64 1478.18 1595.11 L 1316.47 1595.17 C 1301.67 1610.26 1290.58 1625.41 1274.02 1641.1 C 1209.49 1702.65 1127.72 1743.06 1039.63 1756.93 C 1061.93 1734.24 1085.78 1711.58 1108.45 1689.08 L 1234.77 1562.91 C 1311.77 1561.28 1391.17 1563.55 1468.25 1562.81 C 1482.19 1562.67 1550.31 1564.11 1560.02 1561.39 C 1563.45 1551.78 1562.11 1463.07 1562.11 1444.38 L 1562.12 1242.64 z" fill="rgb(212,211,212)" transform="translate(0,0)"></path>
<path d="M 1763.98 1332.96 C 1764.21 1366.84 1765.23 1416.7 1761.97 1449.4 C 1753.93 1528.45 1719.13 1602.38 1663.34 1658.95 C 1590.35 1732.86 1505.65 1761.07 1404 1761.53 C 1381 1761.61 1358 1761.47 1335.01 1761.1 L 1333.19 1758.85 C 1342.03 1756.14 1361.01 1744.78 1369.67 1739.53 C 1429.51 1703.88 1478.38 1652.44 1510.94 1590.87 C 1590.56 1591.1 1591.49 1592.28 1591 1511.08 C 1601.36 1506.94 1623.48 1492.65 1633 1486.12 C 1676.6 1456.28 1713.53 1417.73 1741.45 1372.89 C 1749.42 1360.13 1756.4 1346.08 1763.98 1332.96 z" fill="rgb(41,24,131)" transform="translate(0,0)"></path>
<path d="M 1329.76 1760.85 C 1331.04 1760.04 1331.85 1759.5 1333.19 1758.85 L 1335.01 1761.1 C 1333.26 1761 1331.51 1760.92 1329.76 1760.85 z" fill="rgb(54,35,148)" transform="translate(0,0)"></path>
<path d="M 1344.61 288.232 C 1376.27 288.048 1417.77 286.866 1448.47 289.654 C 1528.79 296.914 1604.05 332.018 1661.23 388.893 C 1728.32 455.307 1764.92 545.333 1763.97 639.264 C 1763.76 660.135 1764.51 682.385 1763.92 703.073 C 1764.03 707.505 1764 711.508 1763.95 715.926 C 1764.04 731.961 1765.38 755.978 1761.87 770.888 C 1728.2 685.219 1673.32 613.964 1593 567.223 C 1593.41 620.559 1593.49 673.897 1593.24 727.234 C 1594.38 728.177 1595.52 729.127 1596.65 730.085 C 1678.23 799.154 1748.35 908.114 1757.48 1016.18 C 1742.6 996.771 1707.83 961.663 1690.29 942.969 L 1562.56 806.897 C 1563.99 733.725 1562.92 657.707 1562.86 584.325 L 1562.89 526.463 C 1562.89 516.974 1563.41 497.748 1561.55 489.158 C 1554.69 484.408 1520.41 485.814 1510.71 485.818 L 1439.55 485.886 L 1234.39 486.013 C 1196.54 451.423 1155.38 406.641 1117.83 369.766 C 1133.78 365.403 1189.75 361.052 1201.02 351.742 C 1247.71 378.625 1281.06 414.751 1316.27 454.031 C 1370.21 454.556 1424.87 453.977 1478.86 453.793 C 1432.14 384.314 1398.53 355.29 1326.77 313.582 C 1335.58 309.407 1351.56 307.028 1357.01 301.653 C 1350.7 298.226 1343.46 294.84 1336.95 291.634 C 1324.25 287.23 1341.39 288.218 1344.61 288.232 z" fill="rgb(212,211,212)" transform="translate(0,0)"></path>
<path d="M 1344.61 288.232 C 1376.27 288.048 1417.77 286.866 1448.47 289.654 C 1528.79 296.914 1604.05 332.018 1661.23 388.893 C 1728.32 455.307 1764.92 545.333 1763.97 639.264 C 1763.76 660.135 1764.51 682.385 1763.92 703.073 C 1761.53 703.583 1761.17 704.992 1759.3 706.803 C 1758.72 705.491 1758.12 704.188 1757.49 702.895 C 1729.28 644.241 1677.49 587.491 1622.91 553.223 C 1613.55 547.348 1599.84 537.861 1589.77 534.306 C 1590.81 458.284 1589.46 458.367 1513.32 458.97 C 1475.43 389.755 1425.3 340.394 1357.01 301.653 C 1350.7 298.226 1343.46 294.84 1336.95 291.634 C 1324.25 287.23 1341.39 288.218 1344.61 288.232 z" fill="rgb(41,24,131)" transform="translate(0,0)"></path>
<path d="M 1336.95 291.634 C 1324.25 287.23 1341.39 288.218 1344.61 288.232 L 1342.84 288.749 C 1339.37 289.501 1339.21 289.126 1336.95 291.634 z" fill="rgb(54,35,148)" transform="translate(0,0)"></path>
<path d="M 1759.3 706.803 C 1761.17 704.992 1761.53 703.583 1763.92 703.073 C 1764.03 707.505 1764 711.508 1763.95 715.926 C 1761.92 712.83 1760.82 710.181 1759.3 706.803 z" fill="rgb(54,35,148)" transform="translate(0,0)"></path>
<path d="M 291.866 1036.55 C 304.798 1048.98 319.852 1065.98 332.955 1079.35 C 385.402 1132.84 437.192 1188.92 490.066 1241.91 L 489.834 1391.48 C 488.4 1405.86 488.875 1428.53 488.842 1443.34 C 479.742 1450.1 466.029 1466.12 457.865 1474.83 C 456.61 1472.25 456.515 1470.28 456.096 1467.46 C 455.817 1418.7 457.081 1368.43 455.958 1319.95 C 439.105 1305.05 426.411 1295.89 409.836 1279.01 C 350.677 1218.76 301.776 1120.61 291.866 1036.55 z" fill="rgb(255,255,255)" transform="translate(0,0)"></path>
<path d="M 814.212 1566.75 C 879.453 1629.25 945.111 1696.66 1011.11 1757.19 C 949.976 1748.56 884.771 1722.48 833.973 1687.42 C 829.661 1684.45 815.158 1674.41 811.596 1671.17 C 811.897 1665.26 811.666 1658.2 811.596 1652.22 C 811.259 1623.44 812.095 1595.48 814.212 1566.75 z" fill="rgb(212,211,212)" transform="translate(0,0)"></path>
<path d="M 768.771 416.53 C 813.077 370.496 878.301 329.551 938.852 309.392 C 946.46 316.44 962.357 324.11 971.954 329.206 C 944.178 355.373 916.881 382.043 890.075 409.202 C 874.277 424.954 857.209 441.256 841.887 457.278 C 815.205 442.72 797.912 427.384 768.771 416.53 z" fill="rgb(212,211,212)" transform="translate(0,0)"></path>
<path d="M 488.842 1443.34 C 488.875 1428.53 488.4 1405.86 489.834 1391.48 C 490.391 1417.02 486.942 1549.51 492.118 1561.19 C 497.428 1564.02 523.802 1562.91 531.585 1562.84 C 528.216 1573.27 525.103 1580.22 520.58 1590.12 C 516.735 1590.29 512.889 1590.45 509.042 1590.58 C 451.417 1592.55 460.765 1555.2 460.979 1512.24 L 438.612 1500.34 C 443.361 1493.98 450.796 1482.85 455.747 1477.75 C 456.049 1475.74 456.039 1469.79 456.096 1467.46 C 456.515 1470.28 456.61 1472.25 457.865 1474.83 C 466.029 1466.12 479.742 1450.1 488.842 1443.34 z" fill="rgb(212,211,212)" transform="translate(0,0)"></path>
<path d="M 1117.83 369.766 C 1096.59 349.515 1076.37 328.015 1055.33 307.525 C 1049.49 301.833 1043.95 295.74 1037.36 290.92 C 1089.84 297.184 1156.01 324.16 1201.02 351.742 C 1189.75 361.052 1133.78 365.403 1117.83 369.766 z" fill="rgb(255,255,255)" transform="translate(0,0)"></path>
<path d="M 719.098 288.194 C 726.343 288.186 765.113 287.8 770.809 289.496 C 725.139 309.779 681.439 332.512 643.941 366.19 C 634.936 374.391 626.31 382.999 618.09 391.986 C 617.023 393.133 606.971 404.143 606.88 404.212 C 596.168 403.212 576.649 409.572 565.548 411.637 C 595.301 370.883 631.3 338.891 673.978 312.005 C 688.096 303.11 705.497 297.07 719.098 288.194 z" fill="rgb(212,211,212)" transform="translate(0,0)"></path>
<path d="M 938.852 309.392 C 946.083 306.666 953.504 304.594 960.971 302.634 C 969.451 300.349 977.967 298.197 986.515 296.179 C 991.972 294.879 997.467 293.742 1002.99 292.768 C 1005.93 292.244 1008.65 291.74 1011.62 291.264 C 997.664 302.395 984.957 316.754 971.954 329.206 C 962.357 324.11 946.46 316.44 938.852 309.392 z" fill="rgb(255,255,255)" transform="translate(0,0)"></path>
<path d="M 1026.58 466.09 L 1183.69 621.064 C 1264.82 620.887 1345.96 621.123 1427.1 621.772 L 1427.25 857.514 C 1474.27 910.776 1524.98 960.905 1572.05 1014.14 C 1575.1 1017.6 1578.13 1020.88 1581.45 1024.08 C 1553.55 1052.1 1523.39 1086.55 1496.33 1115.8 C 1476.23 1137.55 1446.48 1167.04 1429.05 1189.2 C 1428.96 1267.95 1429.82 1348.71 1428.73 1427.3 L 1266.05 1427.67 C 1240.38 1427.73 1209.07 1426.69 1183.99 1427.71 C 1164.8 1444.33 1142.14 1468.63 1123.46 1487.15 C 1090.83 1519.18 1057.81 1550.8 1024.41 1582.01 C 1010.47 1567.99 996.249 1554.31 982.091 1540.52 C 943.895 1503.3 906.804 1464.47 867.991 1427.92 L 816.928 1428.03 L 643.119 1427.96 L 622.962 1427.85 C 622.268 1387.23 622.227 1346.59 622.841 1305.97 C 623.513 1267.6 622.941 1227.58 622.954 1189.08 C 575.308 1133.57 516.135 1080.46 467.952 1025.05 C 489.772 1000.3 513.37 975.744 535.885 951.513 C 564.76 920.436 593.556 887.899 623.006 857.451 C 622.576 779.013 622.575 700.574 623.004 622.136 C 703.149 621.075 785.178 621.752 865.407 621.966 C 891.168 597.449 915.461 571.634 941.701 546.913 C 960.1 528.747 978.667 510.753 997.401 492.933 C 1006.06 484.741 1017.53 473.422 1026.58 466.09 z" fill="rgb(41,24,131)" transform="translate(0,0)"></path>
<path d="M 1026.58 466.09 L 1183.69 621.064 C 1264.82 620.887 1345.96 621.123 1427.1 621.772 L 1427.25 857.514 C 1474.27 910.776 1524.98 960.905 1572.05 1014.14 C 1575.1 1017.6 1578.13 1020.88 1581.45 1024.08 C 1553.55 1052.1 1523.39 1086.55 1496.33 1115.8 C 1476.23 1137.55 1446.48 1167.04 1429.05 1189.2 C 1428.96 1267.95 1429.82 1348.71 1428.73 1427.3 L 1266.05 1427.67 C 1240.38 1427.73 1209.07 1426.69 1183.99 1427.71 C 1164.8 1444.33 1142.14 1468.63 1123.46 1487.15 C 1090.83 1519.18 1057.81 1550.8 1024.41 1582.01 C 1010.47 1567.99 996.249 1554.31 982.091 1540.52 C 943.895 1503.3 906.804 1464.47 867.991 1427.92 L 816.928 1428.03 C 817.927 1422.52 818.343 1415.96 818.63 1410.34 C 819.9 1385.45 823.274 1361.1 826.144 1336.38 C 852.793 1329.56 881.437 1320.62 908.165 1312.96 C 923.792 1339.2 938.47 1370.12 953.262 1397.25 C 977.226 1441.22 1001.55 1485.41 1024.54 1529.86 C 1062.68 1460.2 1107.17 1387.48 1147.85 1318.74 C 1221.54 1337.99 1298.76 1360.56 1372.53 1377.93 C 1367.3 1359.75 1362.14 1332.82 1358.05 1313.88 C 1352.04 1286.87 1346.17 1259.82 1340.44 1232.74 C 1334.66 1204.93 1328.86 1174.58 1321.97 1147.11 C 1370.65 1115.62 1424.41 1087.28 1473.87 1056.61 C 1491.87 1045.44 1511.65 1035.24 1529.13 1023.43 C 1496.94 1005.87 1459.93 982.68 1428.46 963.576 C 1392.91 942.361 1357.54 920.838 1322.37 899.009 C 1340.2 822.334 1359.29 744.927 1374.43 667.796 C 1300.51 686.367 1223.93 707.372 1150.34 727.565 C 1109.08 658.194 1064.57 590.788 1023.59 520.788 C 1012.88 542.44 998.627 565.66 986.328 586.811 C 977.358 577.86 951.153 554.58 941.701 546.913 C 960.1 528.747 978.667 510.753 997.401 492.933 C 1006.06 484.741 1017.53 473.422 1026.58 466.09 z" fill="rgb(212,211,212)" transform="translate(0,0)"></path>
<path d="M 941.701 546.913 C 951.153 554.58 977.358 577.86 986.328 586.811 C 961.026 632.394 933.364 681.335 909.105 727.451 C 831.291 707.103 753.361 687.199 675.32 667.74 C 686.412 722.906 703.258 780.531 715.25 835.8 C 719.661 856.13 726.221 878.74 729.551 898.973 C 692.709 919.279 657.228 941.112 621.285 962.859 C 587.856 983.085 553.393 1002.94 520.504 1024.05 C 563.127 1048.76 605.528 1073.86 647.703 1099.33 C 674.603 1115.26 705.269 1132.18 731.282 1148.52 C 724.017 1178.85 714.4 1219.67 705.461 1249.09 C 685.824 1255.79 640.653 1294.24 622.841 1305.97 C 623.513 1267.6 622.941 1227.58 622.954 1189.08 C 575.308 1133.57 516.135 1080.46 467.952 1025.05 C 489.772 1000.3 513.37 975.744 535.885 951.513 C 564.76 920.436 593.556 887.899 623.006 857.451 C 622.576 779.013 622.575 700.574 623.004 622.136 C 703.149 621.075 785.178 621.752 865.407 621.966 C 891.168 597.449 915.461 571.634 941.701 546.913 z" fill="rgb(255,255,255)" transform="translate(0,0)"></path>
<path d="M 674.041 1376.96 L 676.015 1378.47 C 682.974 1377.74 706.959 1370.81 715.364 1368.55 C 752.453 1358.4 789.384 1347.67 826.144 1336.38 C 823.274 1361.1 819.9 1385.45 818.63 1410.34 C 818.343 1415.96 817.927 1422.52 816.928 1428.03 L 643.119 1427.96 C 651.053 1404.93 662.465 1396.18 672.381 1377.06 L 674.041 1376.96 z" fill="rgb(255,255,255)" transform="translate(0,0)"></path>
<path d="M 622.841 1305.97 C 640.653 1294.24 685.824 1255.79 705.461 1249.09 C 697.448 1286.99 684.724 1339.95 674.041 1376.96 L 672.381 1377.06 C 662.465 1396.18 651.053 1404.93 643.119 1427.96 L 622.962 1427.85 C 622.268 1387.23 622.227 1346.59 622.841 1305.97 z" fill="rgb(212,211,212)" transform="translate(0,0)"></path>
<path d="M 1027.11 1040.79 C 1027.41 1039.73 1027.72 1038.12 1028.61 1037.49 C 1028.7 1037.51 1028.78 1037.51 1028.8 1037.6 C 1029.52 1040.4 1028.46 1049.85 1028.14 1052.21 C 1028.45 1093.22 1028.31 1134.23 1027.73 1175.24 C 1028.68 1206.74 1027.1 1237.89 1027.14 1269.24 C 1027.22 1334.7 1025.01 1400.16 1024.93 1465.59 C 993.424 1408.47 956.308 1352.57 925.729 1296.02 C 935.677 1270.96 947.301 1245.95 957.553 1220.67 C 972.453 1181.56 989.924 1141.69 1004.42 1102.18 C 1011.9 1081.82 1018.82 1060.8 1027.11 1040.79 z" fill="rgb(212,211,212)" transform="translate(0,0)"></path>
<path d="M 1027.11 1040.79 C 1027.41 1039.73 1027.72 1038.12 1028.61 1037.49 C 1028.7 1037.51 1028.78 1037.51 1028.8 1037.6 C 1029.52 1040.4 1028.46 1049.85 1028.14 1052.21 C 1028.45 1093.22 1028.31 1134.23 1027.73 1175.24 C 1026.04 1178.5 1026.95 1237.28 1026.74 1246.45 C 1014.06 1242.42 1001.91 1238.57 989.477 1233.81 C 979.027 1229.8 967.908 1224.33 957.553 1220.67 C 972.453 1181.56 989.924 1141.69 1004.42 1102.18 C 1011.9 1081.82 1018.82 1060.8 1027.11 1040.79 z" fill="rgb(255,255,255)" transform="translate(0,0)"></path>
<path d="M 1027.11 1040.79 C 1027.41 1039.73 1027.72 1038.12 1028.61 1037.49 C 1028.7 1037.51 1028.78 1037.51 1028.8 1037.6 C 1029.52 1040.4 1028.46 1049.85 1028.14 1052.21 C 1027.71 1048.16 1027.74 1044.75 1027.11 1040.79 z" fill="rgb(214,209,237)" transform="translate(0,0)"></path>
<path d="M 750.193 916.367 C 775.096 925.119 802.709 936.937 827.42 946.899 C 867.448 963.307 907.676 979.223 948.096 994.641 C 966.621 1001.8 987.057 1010.24 1005.79 1016.37 C 1007.09 1016.64 1010.03 1016.83 1010.47 1018.28 C 1009.73 1019.83 996.946 1018.4 994.932 1018.14 L 587.908 1018.01 C 606.02 1005.42 627.038 992.813 645.93 981.06 C 680.83 959.732 715.585 938.167 750.193 916.367 z" fill="rgb(255,255,255)" transform="translate(0,0)"></path>
<path d="M 1005.79 1016.37 C 1007.09 1016.64 1010.03 1016.83 1010.47 1018.28 C 1009.73 1019.83 996.946 1018.4 994.932 1018.14 C 997.851 1017.92 1005.21 1018.9 1005.79 1016.37 z" fill="rgb(177,165,201)" transform="translate(0,0)"></path>
<path d="M 758.561 1150.7 C 823.578 1119.99 891.451 1092.21 956.763 1061.77 C 973.914 1053.77 993.846 1046.27 1010.35 1038.18 C 973.767 1070.58 935.575 1110.83 900.541 1145.36 L 808.614 1237.01 C 778.357 1266.64 748.371 1296.55 718.66 1326.73 L 714.416 1325.92 C 724.653 1288.79 734.585 1252.24 742.65 1214.56 C 747.182 1193.39 754.482 1172.01 758.561 1150.7 z" fill="rgb(255,255,255)" transform="translate(0,0)"></path>
<path d="M 722.357 710.798 C 730.633 711.484 774.808 722.375 784.98 724.931 C 822.066 734.252 861.579 742.49 898.237 752.678 L 968.625 918.239 C 980.056 945.022 995.203 976.353 1005.04 1003.15 C 1000.78 999.293 989.754 985.227 984.407 979.659 C 966.459 960.97 948.342 942.681 930.126 924.264 C 888.741 882.386 847.589 840.277 806.673 797.941 C 778.929 769.477 749.359 739.853 722.357 710.798 z" fill="rgb(255,255,255)" transform="translate(0,0)"></path>
<path d="M 926.084 748.464 C 936.043 734.525 951.563 706.607 960.315 691.19 L 1006.81 609.04 C 1012.31 615.279 1017.8 618.403 1024.38 623.225 C 1025.79 676.799 1024.66 732.099 1025.26 785.926 C 1025.8 812.254 1026.13 838.585 1026.25 864.918 C 1026.31 874.97 1026.89 891.538 1026.16 900.835 C 1027.04 909.58 1026.98 964.804 1026.52 977.018 C 1026.46 977.05 1026.39 977.083 1026.33 977.115 C 1025.12 976.572 1024.87 974.979 1024.5 973.88 C 1014.84 953.611 1004.97 926.975 995.395 905.36 C 971.855 853.255 948.75 800.955 926.084 748.464 z" fill="rgb(255,255,255)" transform="translate(0,0)"></path>
<path d="M 1026.16 900.835 C 1027.04 909.58 1026.98 964.804 1026.52 977.018 C 1026.46 977.05 1026.39 977.083 1026.33 977.115 C 1025.12 976.572 1024.87 974.979 1024.5 973.88 C 1027.13 968.967 1024.56 912.502 1026.16 900.835 z" fill="rgb(212,211,212)" transform="translate(0,0)"></path>
<path d="M 1176.23 967.211 C 1217.9 950.769 1261.65 933.996 1302.66 916.318 C 1318.38 924.232 1342.21 940.604 1357.81 950.653 L 1461.48 1018.19 L 1173.98 1018.04 C 1175.21 1001.77 1175.62 983.64 1176.23 967.211 z" fill="rgb(212,211,212)" transform="translate(0,0)"></path>
<path d="M 1150.28 751.736 C 1173.26 747.407 1198.39 740.579 1221.24 734.785 L 1331.84 706.376 C 1311.97 728.896 1285.83 754.413 1264.44 775.93 L 1173.72 868.169 C 1165.33 840.455 1153.69 807.585 1137.38 783.717 C 1141.55 773.788 1146.96 761.788 1150.28 751.736 z" fill="rgb(212,211,212)" transform="translate(0,0)"></path>
<path d="M 1212.27 1213.68 L 1333.58 1335.89 C 1273.46 1322.78 1213.48 1309.02 1153.65 1294.61 C 1147.52 1278.75 1140.98 1263.05 1134.03 1247.54 C 1166.73 1237.15 1182.13 1231.28 1212.27 1213.68 z" fill="rgb(212,211,212)" transform="translate(0,0)"></path>
<path d="M 1032.99 1029.88 C 1038.09 1035.53 1043.2 1041.52 1048.55 1046.9 C 1103.49 1102.12 1157.13 1158.67 1212.27 1213.68 C 1182.13 1231.28 1166.73 1237.15 1134.03 1247.54 L 1071.87 1112.53 C 1060.09 1087.33 1043.41 1054.71 1032.99 1029.88 z" fill="rgb(255,255,255)" transform="translate(0,0)"></path>
<path d="M 1137.38 783.717 C 1153.69 807.585 1165.33 840.455 1173.72 868.169 L 1094.91 950.415 C 1078.8 967.072 1060.94 984.268 1046.19 1002.08 L 1044.09 1001.09 C 1051.59 989.376 1064.61 955.274 1071 940.429 L 1137.38 783.717 z" fill="rgb(255,255,255)" transform="translate(0,0)"></path>
<path d="M 1176.23 967.211 C 1175.62 983.64 1175.21 1001.77 1173.98 1018.04 L 1063.34 1018.13 C 1061.31 1018.41 1045.84 1019.78 1045.04 1018.52 C 1045.7 1017.71 1046.96 1017.51 1047.94 1017.24 C 1056.32 1013.26 1080.66 1005.27 1091.01 1001.34 C 1119.62 990.484 1148.03 979.105 1176.23 967.211 z" fill="rgb(255,255,255)" transform="translate(0,0)"></path>
<path d="M 1063.34 1018.13 C 1061.31 1018.41 1045.84 1019.78 1045.04 1018.52 C 1045.7 1017.71 1046.96 1017.51 1047.94 1017.24 C 1053.18 1018.02 1057.73 1017.59 1063.34 1018.13 z" fill="rgb(214,209,237)" transform="translate(0,0)"></path>
<path d="M 1023.56 579.469 C 1023.52 592.314 1023.78 610.469 1024.38 623.225 C 1017.8 618.403 1012.31 615.279 1006.81 609.04 C 1012.23 601.02 1018.38 588.126 1023.56 579.469 z" fill="rgb(212,211,212)" transform="translate(0,0)"></path>
<path d="M 1044.09 1001.09 L 1046.19 1002.08 C 1045.27 1003.41 1041.78 1008.6 1040.62 1009.08 C 1039.58 1007.84 1043.46 1002.16 1044.09 1001.09 z" fill="rgb(214,209,237)" transform="translate(0,0)"></path>
<path d="M 714.416 1325.92 L 718.66 1326.73 C 717.863 1327.67 715.004 1331.86 713.802 1331.36 C 713.267 1330.53 714.249 1326.95 714.416 1325.92 z" fill="rgb(212,211,212)" transform="translate(0,0)"></path>
<path d="M 289.467 1340.31 C 322.317 1409 373.559 1461.33 438.612 1500.34 L 460.979 1512.24 C 460.765 1555.2 451.417 1592.55 509.042 1590.58 C 512.889 1590.45 516.735 1590.29 520.58 1590.12 L 534.621 1589.7 C 578.86 1669.11 636.54 1722.74 718.276 1761.39 C 711.087 1761.62 703.567 1761.64 696.376 1761.55 C 658.859 1761.09 620.013 1763.28 582.809 1758.02 C 513.11 1747.63 448.241 1716.21 396.867 1667.98 C 334.903 1609.51 296.334 1530.49 288.357 1445.66 C 285.486 1412.15 287.773 1375.86 286.732 1341.95 L 289.467 1340.31 z" fill="rgb(41,24,131)" transform="translate(0,0)"></path>
<path d="M 286.156 705.021 C 287.494 696.283 286.348 670.049 286.529 659.8 C 286.894 638.997 286.06 620.761 288.255 599.643 C 296.747 519.517 332.95 444.87 390.613 388.592 C 447.269 333.011 521.061 298.233 599.99 289.911 C 633.527 286.637 684.514 288.119 719.098 288.194 C 705.497 297.07 688.096 303.11 673.978 312.005 C 631.3 338.891 595.301 370.883 565.548 411.637 C 554.236 427.517 544.03 441.175 535.657 458.928 C 463.273 458.13 460.796 458.498 460.989 532.919 C 445.804 541.875 432.791 548.573 418.112 558.652 C 365.545 594.745 317.087 647.366 290.6 705.766 L 286.156 705.021 z" fill="rgb(41,24,131)" transform="translate(0,0)"></path>
<path d="M 286.156 705.021 L 290.6 705.766 C 287.146 713.098 287.202 713.846 286.156 705.021 z" fill="rgb(54,35,148)" transform="translate(0,0)"></path>
<path d="M 286.732 1341.95 C 286.831 1340.83 286.862 1337.54 287.502 1336.72 C 288.658 1336.37 289.315 1339.79 289.467 1340.31 L 286.732 1341.95 z" fill="rgb(54,35,148)" transform="translate(0,0)"></path>
<metadata><recraft-signature>{"signed_by": "recraft", "signature_b64": "8WY8AodapUDMFBl8ZhNHcXoQvVZKj223yPplByfudu7jRb/cruB8toM+H30uZtDx1S2nrFZBpcM0fblV5uk1Dw==", "signing_algo": "Ed25519", "generation_timestamp": 1772807607, "identifier": "720a559e-42bd-478f-9d22-9018d395f277"}</recraft-signature></metadata></svg>