<svg xmlns="http://www.w3.org/2000/svg" height="1024" preserveAspectRatio="none" style="display: block;" version="1.1" viewBox="0 0 2048 2048" width="1024">
<path d="M 0 0 L 2048 0 L 2048 2048 L 0 2048 L 0 0 z" fill="rgb(255,255,255)" transform="translate(0,0)"></path>
<path d="M 522.447 289.415 C 535.783 288.158 566.79 289.008 581.548 289.009 L 697.606 288.967 L 1078.31 288.985 L 1390.73 289.046 L 1481.74 288.872 C 1494.83 288.844 1507.95 288.71 1521.03 288.846 C 1575.66 289.416 1627.85 310.195 1670.19 344.012 C 1721.88 385.43 1754.66 445.969 1761.08 511.895 C 1763.18 531.933 1762.41 561.478 1762.41 582.071 L 1762.43 692.435 L 1762.42 1059.61 L 1762.28 1384.1 L 1762.18 1476 C 1762.14 1499.34 1762.88 1523.36 1759.68 1546.43 C 1753.62 1592.18 1734.93 1635.33 1705.69 1671.02 C 1660.66 1726.37 1601.57 1754.59 1531.42 1761.9 C 1452.33 1764.15 1368.74 1762.81 1289.21 1762.87 L 845.781 1762.73 L 623.918 1762.75 C 590.031 1762.72 529.566 1764.33 498.794 1759.54 C 453.07 1752.58 410.269 1732.75 375.388 1702.38 C 324.615 1658.19 293.453 1595.66 288.744 1528.51 C 287.243 1504.64 288.027 1474.77 288.051 1450.54 L 288.078 1320.5 L 288.081 906.636 L 288.075 641.682 L 288.078 566.599 C 288.055 544.613 287.469 521.858 290.81 500.15 C 297.771 453.43 318.077 409.714 349.288 374.259 C 394.845 322.622 453.946 293.824 522.447 289.415 z" fill="rgb(32,12,93)" transform="translate(0,0)"></path>
<path d="M 407.075 851.034 L 1645.85 850.961 L 1645.84 1025.21 C 1645.83 1082.15 1646.27 1139.93 1645.53 1196.79 L 406.941 1196.98 L 407.075 851.034 z" fill="rgb(255,255,255)" transform="translate(0,0)"></path>
<path d="M 1351.23 912.003 L 1582.75 912.158 L 1582.92 1060.69 C 1582.92 1077.96 1583.96 1119.64 1582.12 1135.22 C 1579.44 1136.81 1577.69 1136.25 1574.09 1136.37 L 1349.75 1136.41 C 1351.98 1115.55 1355.79 1094.88 1357.74 1073.58 C 1362.83 1018.1 1359.02 967.032 1351.23 912.003 z" fill="rgb(93,27,221)" transform="translate(0,0)"></path>
<path d="M 840.202 912.044 L 1067.91 912.155 C 1084.95 972.94 1081.58 1075.26 1068.38 1136.43 L 1029.87 1136.36 L 841.71 1136.15 C 843.747 1134.27 845.706 1132.32 847.583 1130.28 C 908.507 1065.52 905.096 972.624 840.202 912.044 z" fill="rgb(93,27,221)" transform="translate(0,0)"></path>
<path d="M 1128.88 912.231 L 1289.81 911.997 C 1300.61 974.239 1302.32 1037.72 1294.89 1100.45 C 1293.75 1110 1291.8 1127.95 1288.67 1136.73 L 1129.11 1136.5 C 1143.66 1053.18 1143.17 995.103 1128.88 912.231 z" fill="rgb(32,12,93)" transform="translate(0,0)"></path>
<path d="M 466.796 912.102 L 638.944 912.227 C 613.808 937.173 600.104 958.167 592.695 993.461 C 583.96 1035.07 591.291 1073.91 614.532 1109.48 C 621.299 1119.09 628.81 1128.15 636.995 1136.58 C 580.307 1135.98 523.615 1135.94 466.926 1136.46 C 466.404 1061.68 466.361 986.888 466.796 912.102 z" fill="rgb(93,27,221)" transform="translate(0,0)"></path>
<path d="M 730.831 935.532 C 780.335 930.936 824.192 967.34 828.79 1016.84 C 833.387 1066.35 796.984 1110.21 747.481 1114.8 C 697.975 1119.4 654.115 1083 649.517 1033.49 C 644.919 983.987 681.325 940.128 730.831 935.532 z" fill="rgb(93,27,221)" transform="translate(0,0)"></path>
<path d="M 407.041 1308.44 C 451.527 1307.16 498.168 1308.64 542.838 1308.81 L 772.208 1308.75 L 1645.42 1307.92 L 1645.94 1442.01 C 1646.04 1506.07 1654.59 1556.36 1606.12 1606.53 C 1569.21 1643.38 1533.82 1645.6 1485.3 1645.66 L 1424.8 1645.53 L 1238.93 1645.37 L 544.491 1645.7 C 503.267 1645.41 473.698 1634.38 443.579 1605.54 C 397.944 1561.85 406.992 1499.74 406.956 1442.02 L 407.041 1308.44 z" fill="rgb(255,255,255)" transform="translate(0,0)"></path>
<path d="M 466.975 1368.99 L 886.1 1369.15 C 869.899 1405.83 818.653 1458.52 788.544 1484.81 C 721.342 1540.59 638.303 1580.85 549.33 1583.19 C 525.356 1583.82 504.599 1582.64 486.557 1564.69 C 477.687 1555.78 471.555 1544.52 468.886 1532.24 C 465.494 1517.08 466.63 1483.92 466.675 1467.3 L 466.975 1368.99 z" fill="rgb(93,27,221)" transform="translate(0,0)"></path>
<path d="M 957.916 1369.04 L 1172.73 1369.02 C 1156.69 1436.91 1124.15 1525.04 1084.3 1583.09 C 1046.37 1583.3 1008.43 1583.27 970.5 1583 L 754.663 1582.88 C 843.446 1533.77 909.816 1457.17 957.916 1369.04 z" fill="rgb(32,12,93)" transform="translate(0,0)"></path>
<path d="M 1233.41 1369.15 L 1392.73 1369.49 C 1380.55 1443.47 1358.06 1515.37 1325.93 1583.1 L 1312.5 1583.16 L 1153.83 1583.5 C 1192.53 1510.88 1214.32 1449.19 1233.41 1369.15 z" fill="rgb(93,27,221)" transform="translate(0,0)"></path>
<path d="M 1456.73 1369.09 L 1583 1369.19 L 1582.93 1470.71 C 1582.95 1485.98 1584.12 1517.7 1581.04 1531.39 C 1578.44 1543.05 1572.89 1553.84 1564.92 1562.74 C 1552.93 1576.09 1537.43 1582.18 1519.83 1583.07 L 1391.75 1583.04 C 1421.33 1514.37 1443.13 1442.61 1456.73 1369.09 z" fill="rgb(32,12,93)" transform="translate(0,0)"></path>
<path d="M 531.968 406.443 C 540.594 406.174 549.734 406.204 558.403 406.164 L 1240.1 406.067 L 1433.34 406.02 C 1465.33 405.982 1504.6 404.651 1535.69 407.697 C 1561.86 411.792 1588.35 426.66 1606.82 444.651 C 1652.86 489.489 1645.48 543.855 1645.54 602.589 L 1645.39 741.01 L 1522.5 740.984 L 407.019 741.049 L 407.019 601.556 C 406.981 576.776 405.204 529.789 410.283 507.319 C 415.123 486.335 425.143 466.897 439.428 450.78 C 463.89 423.139 495.296 408.662 531.968 406.443 z" fill="rgb(255,255,255)" transform="translate(0,0)"></path>
<path d="M 520.776 468.238 C 641.932 458.575 755.456 522.679 835.657 609.553 C 855.609 631.165 872.588 656.618 888.575 681.197 C 870.984 680.978 853.116 681.11 835.5 681.078 L 466.639 681.018 L 466.818 579.229 C 466.783 566.065 465.902 533.451 467.724 521.633 C 469.028 512.823 472.17 504.386 476.947 496.869 C 487.233 480.732 502.507 472.343 520.776 468.238 z" fill="rgb(93,27,221)" transform="translate(0,0)"></path>
<path d="M 755.619 467.143 C 766.438 466.547 782.234 467.03 793.309 467.036 L 868.956 467.125 L 1088.9 467.206 C 1095.13 478.985 1102.23 490.141 1108.34 502.36 C 1136.06 557.883 1159.69 621.032 1172.89 681.776 L 957.018 681.42 C 921.923 609.138 863.186 545.534 799.701 496.793 C 786.223 486.446 770.023 476.388 755.619 467.143 z" fill="rgb(32,12,93)" transform="translate(0,0)"></path>
<path d="M 1157.01 467.443 C 1213.93 466.522 1272.67 467.233 1329.73 467.224 C 1353.12 526.174 1373.62 581.964 1385.17 644.623 C 1386.8 653.432 1392.46 673.121 1391.88 681.231 L 1232.73 681.053 C 1221.21 613.216 1193.29 540.798 1162.45 479.715 C 1161 476.845 1156.67 469.92 1157.01 467.443 z" fill="rgb(93,27,221)" transform="translate(0,0)"></path>
<path d="M 1403.21 467.514 C 1443.77 466.869 1489.15 466.23 1529.5 468.35 C 1561.36 470.023 1585.95 510.632 1582.97 539.129 C 1581.55 552.68 1584.66 676.578 1581.5 681.163 L 1578.25 681.391 L 1455.52 681.241 C 1454.92 674.931 1453.6 668.129 1452.18 661.911 C 1439.53 606.179 1427.96 550.198 1407.51 496.644 C 1404.02 487.502 1400.51 478.304 1397.26 469.101 C 1399.2 467.099 1399.5 467.776 1403.21 467.514 z" fill="rgb(93,27,221)" transform="translate(0,0)"></path>
<metadata><recraft-signature>{"signed_by": "recraft", "signature_b64": "bHpy+pnGte0i1vwEVrPIkrHJqFZR3um1SxoqGfA1A/21q3Xxv96TLZHQSb/0ywS7SiJSXBTMEVvjjMw1f1SXBw==", "signing_algo": "Ed25519", "generation_timestamp": 1772807182, "identifier": "b319aee2-266f-4cde-a935-ff534c0bb9f0"}</recraft-signature></metadata></svg>