<svg xmlns="http://www.w3.org/2000/svg" height="1024" preserveAspectRatio="none" style="display: block;" version="1.1" viewBox="0 0 2048 2048" width="1024">
<path d="M 0 0 L 2048 0 L 2048 2048 L 0 2048 L 0 0 z" fill="rgb(255,255,255)" transform="translate(0,0)"></path>
<path d="M 488.407 935.099 C 475.368 981.259 470.583 1038.68 426.131 1061.51 C 417.322 1066.09 401.3 1073.77 391.536 1074.72 C 365.126 1077.28 331.168 1078.84 305.295 1074.59 C 280.225 1070.47 266.734 1037.29 275.18 1015.08 C 279.508 1003.7 286.005 996.077 297.157 990.828 C 318.998 979.63 355.132 992.482 375.418 982.157 C 381.895 977.497 386.791 966.619 389.437 959.619 C 415.511 890.641 426.864 812.393 481.223 758.233 C 505.987 733.56 536.6 714.006 572.587 727.624 C 596.502 736.674 616.675 761.651 626.219 785.044 C 634.764 809.471 641.487 844.44 647.466 870.643 C 660.381 928.279 673.625 985.841 687.197 1043.33 C 700.175 1018.93 722.328 1000.69 748.768 992.649 C 757.458 990.094 766.362 988.33 775.37 987.379 C 777.854 974.771 783.006 961.797 786.741 949.409 C 800.191 904.799 814.419 859.742 834.627 817.647 C 850.567 784.44 877.588 740.486 914.538 727.969 C 931.482 722.229 948.995 724.751 964.723 732.785 C 1058.99 780.936 1101.75 984.951 1132.72 1080.75 C 1149.73 1055.47 1188.59 999.606 1210.6 981.78 C 1215.68 967.99 1219.24 951.087 1224.19 936.182 C 1246.95 867.725 1269.43 774.306 1334.29 733.682 C 1348.69 724.663 1369.71 721.46 1385.48 726.323 C 1420.41 737.09 1440.13 771.246 1456.36 800.709 C 1478.55 845.255 1493.54 893.943 1509.76 940.887 C 1528.4 994.801 1542.53 1050.21 1559.43 1104.65 C 1574.61 1060.16 1593.28 1018.81 1638.2 997.023 C 1647.98 992.303 1658.33 988.881 1668.99 986.843 C 1681.98 984.386 1735.57 982.413 1747.7 986.726 C 1759.74 991.137 1769.51 1000.2 1774.82 1011.88 C 1779.55 1022.5 1779.69 1035.32 1775.39 1046.1 C 1770.69 1057.91 1761.31 1067.24 1749.47 1071.88 C 1726.08 1080.78 1694.07 1068.36 1673.59 1079.75 C 1669.55 1082.42 1666.74 1087.77 1664.82 1091.99 C 1631.56 1165.07 1613.65 1250.98 1555.45 1309.51 C 1532.82 1332.26 1504.46 1339.98 1474.58 1325.72 C 1446.68 1312.4 1430.41 1282.95 1421.37 1254.71 C 1405.89 1206.46 1393 1157.06 1379.98 1108.13 C 1371.92 1076.75 1360.79 1041.78 1351.72 1010.57 C 1342.5 978.87 1332.41 944.043 1321.68 913.041 C 1316.49 930.132 1311.75 952.678 1307.11 970.451 C 1298.43 1003.28 1289.51 1036.03 1280.33 1068.72 C 1266.12 1120.54 1251.43 1175.17 1228.89 1224.05 C 1211.17 1262.49 1185.87 1316.6 1143.5 1331.81 C 1127.65 1337.5 1110.65 1336.3 1095.49 1329.15 C 1010.3 1288.96 965.615 1089.94 935.948 1006.53 C 912.154 1052.36 897.321 1064.72 844.862 1074.43 C 831.576 1118.43 818.087 1167.29 799.534 1209.02 C 780.313 1252.24 755.304 1311.22 709.272 1330.62 C 670.928 1346.77 632.44 1320.69 610.871 1289.82 C 542.448 1184.51 520.747 1055.16 488.718 935.877 C 488.614 935.618 488.51 935.358 488.407 935.099 z" fill="rgb(39,2,236)" transform="translate(0,0)"></path>
<path d="M 1371.88 816.534 C 1396.08 813.326 1432.66 806.77 1456.36 800.709 C 1478.55 845.255 1493.54 893.943 1509.76 940.887 C 1528.4 994.801 1542.53 1050.21 1559.43 1104.65 C 1574.61 1060.16 1593.28 1018.81 1638.2 997.023 C 1647.98 992.303 1658.33 988.881 1668.99 986.843 C 1681.98 984.386 1735.57 982.413 1747.7 986.726 C 1759.74 991.137 1769.51 1000.2 1774.82 1011.88 C 1779.55 1022.5 1779.69 1035.32 1775.39 1046.1 C 1770.69 1057.91 1761.31 1067.24 1749.47 1071.88 C 1726.08 1080.78 1694.07 1068.36 1673.59 1079.75 C 1669.55 1082.42 1666.74 1087.77 1664.82 1091.99 C 1631.56 1165.07 1613.65 1250.98 1555.45 1309.51 C 1532.82 1332.26 1504.46 1339.98 1474.58 1325.72 C 1446.68 1312.4 1430.41 1282.95 1421.37 1254.71 C 1405.89 1206.46 1393 1157.06 1379.98 1108.13 C 1388.48 1108.09 1401.72 1106.49 1410.58 1105.74 L 1468.14 1100.91 C 1462.55 1074.48 1452.1 1041.88 1444.07 1015.79 C 1423.23 948.046 1400.23 886.923 1366.18 824.844 L 1371.88 816.534 z" fill="rgb(161,53,227)" transform="translate(0,0)"></path>
<path d="M 775.37 987.379 C 777.854 974.771 783.006 961.797 786.741 949.409 C 800.191 904.799 814.419 859.742 834.627 817.647 C 850.567 784.44 877.588 740.486 914.538 727.969 C 931.482 722.229 948.995 724.751 964.723 732.785 C 1058.99 780.936 1101.75 984.951 1132.72 1080.75 C 1149.73 1055.47 1188.59 999.606 1210.6 981.78 C 1203.39 1010.86 1192.11 1042.25 1184.2 1071.51 C 1166.28 1137.82 1153.68 1188.98 1120.21 1249.21 C 1088.81 1195.54 1071.04 1142.27 1050.58 1084.24 C 1017.43 990.236 985.315 885.984 925.996 805.016 C 904.921 864.46 887.66 915.41 869.073 975.707 C 840.31 979.601 803.917 985.143 775.37 987.379 z" fill="rgb(161,53,227)" transform="translate(0,0)"></path>
<path d="M 488.407 935.099 C 501.941 889.325 511.887 848.607 547.404 814.056 C 555.048 855.254 566.465 900.555 576.416 941.388 C 604.732 1057.58 632.273 1166.72 695 1269.66 C 705.039 1236.48 717.284 1202.5 728.376 1169.56 C 737.652 1142.01 746.681 1113.35 756.657 1086.2 C 784.338 1082.91 817.788 1079.6 844.862 1074.43 C 831.576 1118.43 818.087 1167.29 799.534 1209.02 C 780.313 1252.24 755.304 1311.22 709.272 1330.62 C 670.928 1346.77 632.44 1320.69 610.871 1289.82 C 542.448 1184.51 520.747 1055.16 488.718 935.877 C 488.614 935.618 488.51 935.358 488.407 935.099 z" fill="rgb(161,53,227)" transform="translate(0,0)"></path>
<path d="M 500.837 1641.38 C 533.255 1662.95 569.762 1677.62 608.088 1684.47 C 646.669 1691.36 707.446 1688.85 748.757 1688.91 L 972.368 1689.05 L 1029.92 1688.89 C 1048.93 1688.83 1070.42 1686.28 1086.1 1698.64 C 1119.26 1724.77 1104.06 1776.55 1060.88 1777.7 C 1036.65 1778.35 1012.38 1778.07 988.151 1778.06 L 847.622 1778.02 L 718.107 1777.99 C 689.443 1777.98 657.334 1778.77 628.983 1776.3 C 546.563 1769.09 468.624 1735.65 406.606 1680.89 C 329.316 1613.73 281.776 1518.68 274.386 1416.55 C 273.617 1404.86 273.189 1392.66 273.337 1380.87 C 274.063 1323.04 271.371 1264.64 274.417 1206.96 C 274.786 1199.96 279.678 1191.51 284.342 1186.43 C 291.807 1178.3 302.242 1173.54 313.273 1173.23 C 330.579 1172.78 347.557 1184.06 354.852 1200.12 C 359.891 1210.71 358.963 1222.71 360.909 1234.01 C 374.443 1312.62 430.553 1373.19 503.577 1401.61 C 557.619 1422.65 601.56 1419.03 657.195 1419.02 L 794.871 1419.01 C 819.111 1419.01 845.32 1417.8 869.487 1420.3 C 877.935 1421.68 884.12 1425.93 890.074 1431.49 C 907.917 1448.14 906.615 1477.89 889.374 1494.48 C 875.051 1508.26 852.384 1506.01 833.475 1505.98 L 780.478 1506.09 C 720.002 1506.34 657.21 1507.08 597.108 1505.49 C 528.513 1503.68 449.516 1480.02 396.005 1436.92 C 380.966 1424.81 371.703 1415.07 358.615 1401.06 C 358.75 1403.56 358.922 1405.84 359.285 1408.32 C 372.613 1499.43 408.868 1571.45 481.747 1628.07 C 484.682 1630.92 497.351 1640.27 500.837 1641.38 z" fill="rgb(39,2,236)" transform="translate(0,0)"></path>
<path d="M 359.843 657.827 C 426.548 588.312 506.565 553.661 602.296 558.095 C 614.486 558.701 628 556.585 639.972 559.029 C 674.616 566.101 686.824 607.194 663.141 633.056 C 657.962 638.751 651.248 642.828 643.807 644.797 C 629.143 648.617 591.385 645.892 572.7 646.846 C 468.164 652.185 381.002 728.731 361.832 831.5 C 358.871 847.371 359.049 859.76 347.15 872.372 C 339.123 880.963 327.92 885.88 316.164 885.974 C 291.371 886.147 274.02 866.681 273.334 842.707 C 272.882 826.926 272.97 811.339 272.986 795.56 L 273.145 706.353 C 273.208 680.906 272.615 651.934 275.363 626.819 C 284.806 538.085 324.293 455.244 387.278 392.032 C 450.168 329.635 535.349 288.524 623.654 279.06 C 649.16 276.327 676.385 276.953 702.144 277.003 L 798.49 277.207 L 1040.87 277.103 C 1053.87 279.305 1064.26 284.3 1072.1 295.464 C 1079.14 305.686 1081.72 318.33 1079.26 330.495 C 1075.73 348.811 1060.99 364.625 1042.43 367.76 C 1032.5 368.508 1016.31 368.026 1006.02 368.008 L 939.192 367.875 L 730.559 367.666 C 679.785 367.785 634.629 364.968 584.939 377.23 C 542.422 388.173 502.837 408.347 468.998 436.32 C 398.872 493.454 368.556 570.215 359.843 657.827 z" fill="rgb(39,2,236)" transform="translate(0,0)"></path>
<path d="M 1040.87 277.103 L 1273.55 277.351 L 1359.63 277.499 C 1380.46 277.478 1402.91 276.901 1423.52 278.703 C 1513.89 286.823 1598.65 325.97 1663.43 389.495 C 1740.6 466.046 1780.62 565.347 1780.95 673.996 L 1781.05 792.923 C 1781.05 809.585 1782.66 838.086 1779.59 852.525 C 1772.63 885.272 1723.43 899.175 1701.63 871.326 C 1685.09 850.205 1694.5 828.444 1687.33 804.591 C 1662.82 718.944 1585 656.473 1497.15 647.691 C 1469.84 644.96 1437.5 647.55 1409.88 646.176 C 1424.19 638.115 1432.07 637.433 1439.99 618.984 C 1444.72 608.194 1444.79 595.933 1440.2 585.084 C 1434.48 571.353 1424.34 563.573 1411.15 558.01 C 1531.76 554.642 1606.85 565.567 1693.21 657.931 C 1693.24 586.643 1656.68 506.657 1606.62 456.318 C 1566.48 416.273 1515.99 388.199 1460.79 375.242 C 1423.81 366.41 1398.72 367.9 1361.52 367.936 L 1290.35 367.958 L 1042.43 367.76 C 1060.99 364.625 1075.73 348.811 1079.26 330.495 C 1081.72 318.33 1079.14 305.686 1072.1 295.464 C 1064.26 284.3 1053.87 279.305 1040.87 277.103 z" fill="rgb(161,53,227)" transform="translate(0,0)"></path>
<path d="M 1692.8 1408.23 C 1642.09 1464.72 1569.84 1496.58 1494.92 1504.54 C 1480.92 1505.9 1467.47 1505.56 1456.39 1495.44 C 1440.26 1480.71 1434.62 1458.89 1445.3 1439.41 C 1458.23 1415.86 1478.04 1418.33 1500.91 1415.61 C 1508.8 1414.68 1517.45 1412.61 1525.14 1410.32 C 1551.87 1402.1 1577.15 1389.76 1600.08 1373.74 C 1642.28 1344.14 1674.3 1297.27 1688.48 1248.13 C 1694.82 1226.14 1689.4 1203.15 1705.72 1185.04 C 1721.93 1167.05 1750.65 1168.07 1767.26 1184.71 C 1783.48 1200.36 1780.9 1217.85 1781.04 1238.24 C 1781.1 1247.07 1781.02 1255.7 1781.01 1264.41 L 1780.85 1371.89 C 1782.07 1423.16 1775.55 1469.85 1757.06 1518.12 C 1745.25 1548.92 1731.69 1582.72 1692.74 1584.9 C 1675.8 1585.85 1652.79 1572.62 1651.47 1553.62 C 1650.35 1537.47 1666.44 1515.48 1671.36 1500.13 C 1680.61 1477.88 1693.67 1432.29 1692.8 1408.23 z" fill="rgb(39,2,236)" transform="translate(0,0)"></path>
<path d="M 1692.8 1408.23 C 1693.69 1396.41 1691.86 1381.97 1694.81 1370.37 C 1697.68 1358.79 1705.06 1348.84 1715.3 1342.74 C 1725.31 1336.85 1737.33 1335.43 1748.43 1338.82 C 1767.4 1344.65 1772.74 1356.91 1780.85 1371.89 C 1782.07 1423.16 1775.55 1469.85 1757.06 1518.12 C 1745.25 1548.92 1731.69 1582.72 1692.74 1584.9 C 1675.8 1585.85 1652.79 1572.62 1651.47 1553.62 C 1650.35 1537.47 1666.44 1515.48 1671.36 1500.13 C 1680.61 1477.88 1693.67 1432.29 1692.8 1408.23 z" fill="rgb(161,53,227)" transform="translate(0,0)"></path>
<path d="M 1409.88 646.176 C 1383.89 646.97 1356.33 646.493 1330.19 646.556 L 1176.35 646.596 L 1100.09 646.623 C 1086.02 646.657 1067.7 647.575 1054.58 645.808 C 1019.22 640.191 1005.29 596.34 1030.85 570.848 C 1047.87 553.869 1075.31 558.557 1098.16 558.711 L 1169.23 558.867 L 1411.15 558.01 C 1424.34 563.573 1434.48 571.353 1440.2 585.084 C 1444.79 595.933 1444.72 608.194 1439.99 618.984 C 1432.07 637.433 1424.19 638.115 1409.88 646.176 z" fill="rgb(39,2,236)" transform="translate(0,0)"></path>
<path d="M 822.324 1557.01 C 943.494 1557.81 1064.67 1557.82 1185.84 1557.05 L 1185.6 1612.52 C 1185.57 1619.99 1185.93 1636.01 1184.74 1642.78 L 822.731 1642.39 C 821.971 1632.53 822.448 1619.65 822.463 1609.46 L 822.324 1557.01 z" fill="rgb(39,2,236)" transform="translate(0,0)"></path>
<path d="M 1350.51 421.5 L 1430.21 421.077 L 1430.21 504.991 L 1171.5 504.793 L 1092.6 504.882 C 1092.67 477.793 1091.84 448.417 1092.79 421.55 L 1350.51 421.5 z" fill="rgb(161,53,227)" transform="translate(0,0)"></path>
<path d="M 1609.08 1612.32 C 1649.48 1608.14 1669.73 1663.81 1636.75 1690.89 C 1567.29 1747.93 1480.05 1778.56 1390.2 1777.52 C 1328.18 1774.73 1326.48 1684.37 1399.42 1688.76 C 1447.45 1691.64 1507.33 1671.51 1547.88 1646.84 C 1569.69 1633.58 1581.64 1616.67 1609.08 1612.32 z" fill="rgb(161,53,227)" transform="translate(0,0)"></path>
<path d="M 992.282 1418.28 C 1004.6 1417.32 1022.78 1417.84 1035.59 1417.85 L 1111.37 1417.85 L 1168.69 1417.57 C 1187.51 1417.45 1209.15 1414.57 1224.76 1426.22 C 1234.42 1433.37 1240.79 1444.1 1242.45 1455.99 C 1243.93 1467.73 1240.69 1479.56 1233.45 1488.91 C 1225.75 1498.86 1217.29 1503.59 1205.05 1505.38 C 1192.39 1506.23 1175.66 1505.8 1162.69 1505.81 L 1088.02 1505.83 L 1029.34 1505.81 C 1016.72 1505.81 1004.67 1505.89 992.057 1505.08 C 971.802 1503.78 956.939 1487.94 953.612 1468.19 C 951.762 1456.94 954.511 1445.42 961.242 1436.22 C 969.382 1425.17 979.219 1420.38 992.282 1418.28 z" fill="rgb(161,53,227)" transform="translate(0,0)"></path>
<path d="M 643.663 421.466 C 731.338 422.092 819.319 420.828 907.02 421.842 L 906.708 504.85 L 642.287 504.965 C 642.531 484.819 641.697 444.82 642.346 422.939 C 642.785 422.448 643.224 421.957 643.663 421.466 z" fill="rgb(39,2,236)" transform="translate(0,0)"></path>
<path d="M 775.31 558.488 C 815.199 557.523 856.129 558.773 896.141 558.099 C 914.611 557.789 938.073 555.788 952.63 568.859 C 961.39 576.846 966.624 587.981 967.184 599.821 C 967.631 612.71 962.726 625.208 953.633 634.353 C 943.59 644.592 932.548 645.937 919.272 646.284 L 816.69 646.273 C 798.365 646.273 777.54 647.308 759.509 644.738 C 740.3 642 726.709 623.138 726.002 604.12 C 725.537 592.214 729.91 580.625 738.125 571.994 C 749.443 560.066 760.214 559.04 775.31 558.488 z" fill="rgb(161,53,227)" transform="translate(0,0)"></path>
<path d="M 1385.53 1557.51 L 1551.62 1557.01 C 1552.28 1583.69 1551.16 1614.68 1551.2 1642.01 L 1535.75 1642.05 L 1373.81 1642.55 L 1373.81 1557.53 L 1385.53 1557.51 z" fill="rgb(39,2,236)" transform="translate(0,0)"></path>
<path d="M 481.955 1557.17 L 631.927 1557.01 C 631.722 1585.2 631.794 1613.86 631.29 1642 C 602.475 1642.04 573.66 1641.85 544.848 1641.45 C 536.454 1641.34 507.465 1640.5 500.837 1641.38 C 497.351 1640.27 484.682 1630.92 481.747 1628.07 C 482.34 1605.05 481.672 1580.5 481.955 1557.17 z" fill="rgb(161,53,227)" transform="translate(0,0)"></path>
<path d="M 1201.85 1689.39 C 1237.73 1688.68 1289.75 1679.99 1293.38 1730.54 C 1294.34 1742.92 1290.07 1755.14 1281.6 1764.23 C 1272.04 1774.52 1263.1 1776.9 1249.92 1777.37 C 1242.19 1777.68 1234.44 1777.94 1226.67 1777.85 C 1208.63 1777.65 1188.79 1780 1173.72 1767.89 C 1151.04 1749.65 1152.51 1712.32 1177.21 1696.58 C 1185.77 1691.13 1192.09 1690.24 1201.85 1689.39 z" fill="rgb(161,53,227)" transform="translate(0,0)"></path>
<path d="M 1325.69 1418.31 C 1343.29 1417.88 1364.51 1415.51 1379.51 1424.9 C 1390.06 1431.63 1397.39 1442.39 1399.8 1454.67 C 1402.08 1466.06 1399.52 1477.88 1392.73 1487.29 C 1384.84 1498.39 1374.77 1503.61 1361.72 1505.73 C 1332.24 1507.83 1292.38 1506.56 1286.77 1468.84 C 1285.04 1456.44 1288.36 1443.87 1295.97 1433.93 C 1304.27 1423.3 1313.07 1419.89 1325.69 1418.31 z" fill="rgb(39,2,236)" transform="translate(0,0)"></path>
<path d="M 721.553 1565.94 C 734.163 1564.9 746.355 1570.73 753.475 1581.19 C 760.595 1591.64 761.542 1605.12 755.956 1616.48 C 750.37 1627.83 739.113 1635.3 726.482 1636.04 C 707.266 1637.17 690.721 1622.63 689.371 1603.43 C 688.021 1584.22 702.369 1567.51 721.553 1565.94 z" fill="rgb(161,53,227)" transform="translate(0,0)"></path>
<path d="M 992.073 428.067 C 1004.37 425.326 1017.19 429.413 1025.63 438.766 C 1034.08 448.119 1036.83 461.291 1032.85 473.244 C 1028.87 485.197 1018.76 494.083 1006.4 496.504 C 987.621 500.181 969.377 488.082 965.458 469.355 C 961.538 450.628 973.399 432.229 992.073 428.067 z" fill="rgb(161,53,227)" transform="translate(0,0)"></path>
<path d="M 542.104 428.63 C 560.975 424.581 579.541 436.646 583.507 455.535 C 587.473 474.424 575.326 492.937 556.42 496.819 C 537.631 500.677 519.258 488.622 515.317 469.851 C 511.376 451.079 523.35 432.653 542.104 428.63 z" fill="rgb(39,2,236)" transform="translate(0,0)"></path>
<path d="M 1273.03 1565.91 C 1291.79 1562.58 1309.74 1574.95 1313.31 1593.66 C 1316.88 1612.37 1304.74 1630.48 1286.07 1634.28 C 1273.79 1636.78 1261.1 1632.48 1252.87 1623.03 C 1244.64 1613.57 1242.13 1600.42 1246.3 1588.59 C 1250.48 1576.77 1260.69 1568.11 1273.03 1565.91 z" fill="rgb(161,53,227)" transform="translate(0,0)"></path>
<metadata><recraft-signature>{"signed_by": "recraft", "signature_b64": "82NdD323907sGfTAAyGABbRSupiJgnyic9TzLRNovtxz+ABN4jJfanRkmNzR3fa4KdpUfCPKs38Iey6yFeThCQ==", "signing_algo": "Ed25519", "generation_timestamp": 1772807233, "identifier": "1016fff0-6450-4a3a-a6aa-4d89c009502d"}</recraft-signature></metadata></svg>