<svg xmlns="http://www.w3.org/2000/svg" height="1024" preserveAspectRatio="none" style="display: block;" version="1.1" viewBox="0 0 2048 2048" width="1024">
<path d="M 0 0 L 2048 0 L 2048 2048 L 0 2048 L 0 0 z" fill="rgb(255,255,255)" transform="translate(0,0)"></path>
<path d="M 1000.42 274.03 C 1015.93 273.946 1033.68 273.424 1049.01 273.894 C 1182.64 276.503 1422.44 279.973 1543.13 328.99 C 1583.71 345.792 1620.38 370.771 1650.88 402.37 C 1746.68 502.203 1760.55 654.259 1770.01 786.041 C 1775.24 857.481 1777.96 929.082 1778.17 1000.71 L 1778.04 1050.58 C 1777.51 1123.3 1774.84 1195.99 1770.03 1268.55 C 1756.66 1457.56 1727.3 1659.91 1521.41 1729.4 C 1445.19 1755.12 1364.28 1762.18 1284.5 1768.04 C 1206.32 1773.94 1127.95 1777.02 1049.55 1777.26 C 1033.33 1777.43 1017.11 1777.4 1000.89 1777.15 C 930.116 1777.04 859.362 1774.49 788.759 1769.52 C 698.933 1763.45 587.015 1754.29 503.575 1719.69 C 466.549 1704.16 432.824 1681.72 404.208 1653.55 C 295.273 1545.88 285.675 1361.71 278.392 1217.6 C 275.542 1161.84 273.784 1106.02 273.119 1050.19 C 273.147 1033.41 273.296 1016.63 273.565 999.85 C 275.164 900.945 277.469 803.471 288.492 705.276 C 301.025 593.636 318.88 484.521 400.493 400.9 C 469.102 330.603 551.055 309.367 645.129 296.389 C 763.895 280.005 880.971 276.234 1000.42 274.03 z" fill="rgb(255,255,255)" transform="translate(0,0)"></path>
<path d="M 1049.01 273.894 C 1182.64 276.503 1422.44 279.973 1543.13 328.99 C 1583.71 345.792 1620.38 370.771 1650.88 402.37 C 1746.68 502.203 1760.55 654.259 1770.01 786.041 C 1775.24 857.481 1777.96 929.082 1778.17 1000.71 C 1730.81 1001.09 1682.28 1000.21 1634.73 1000.22 L 1580.19 1000.1 C 1572.06 1000.09 1563.6 1000.34 1555.5 1000.1 C 1553.46 1000.04 1554.1 1000.04 1552.59 998.215 C 1549.93 972.441 1547.6 947.347 1542.13 921.977 C 1524.9 842.145 1490 767.188 1440 702.611 C 1432.07 692.433 1422.43 679.905 1413.45 670.861 C 1425.74 658.995 1489.38 592.325 1499.28 586.905 C 1489.07 574.985 1474.37 560.161 1462.75 549.9 C 1457.12 558.861 1387.15 628.773 1377.48 635.487 C 1307.54 571.557 1218.7 526.266 1125.71 507.158 C 1100.69 502.017 1074.75 499.974 1049.3 498.142 C 1047.84 425.13 1049.13 347.345 1049.01 273.894 z" fill="rgb(41,27,134)" transform="translate(0,0)"></path>
<path d="M 1268.59 422.031 C 1296.15 422.845 1321.64 425.552 1348.84 427.737 C 1424.25 433.795 1496.54 445.494 1551.48 503.278 C 1606.42 561.062 1619.55 632.541 1623.45 708.743 C 1624.69 732.839 1627.04 757.032 1627.18 781.507 C 1626.91 785.647 1627.48 787.345 1625.61 790.946 C 1620.79 775.905 1610.04 753.204 1602.94 739.147 C 1575.6 683.846 1540.72 632.609 1499.28 586.905 C 1489.07 574.985 1474.37 560.161 1462.75 549.9 C 1405.68 497.115 1338.21 456.181 1267.23 425.093 L 1268.59 422.031 z" fill="rgb(255,255,255)" transform="translate(0,0)"></path>
<path d="M 1627.18 781.507 C 1627.41 783.321 1628.69 794.184 1627.37 795.21 L 1627.26 795.128 L 1627.29 794.891 L 1626.77 794.741 C 1626.02 793.305 1625.92 792.512 1625.61 790.946 C 1627.48 787.345 1626.91 785.647 1627.18 781.507 z" fill="rgb(160,145,207)" transform="translate(0,0)"></path>
<path d="M 1267.23 425.093 C 1266.2 424.679 1261.03 423.076 1260.82 421.817 C 1261.63 420.934 1267.33 421.916 1268.59 422.031 L 1267.23 425.093 z" fill="rgb(246,237,253)" transform="translate(0,0)"></path>
<path d="M 273.565 999.85 C 275.164 900.945 277.469 803.471 288.492 705.276 C 301.025 593.636 318.88 484.521 400.493 400.9 C 469.102 330.603 551.055 309.367 645.129 296.389 C 763.895 280.005 880.971 276.234 1000.42 274.03 C 1002.2 337.81 1000.07 402.327 1000.89 466.155 C 1001.03 476.611 1001.02 487.5 1000.77 497.954 C 900.51 502.09 798.788 540.123 717.797 598.943 C 700.928 611.194 688.668 622.621 673.125 636.136 C 657.679 622.007 641.764 605.061 626.83 590.106 C 615.798 579.058 596.914 561.61 587.62 549.923 C 575.012 561.376 562.797 573.253 550.995 585.534 C 558.347 591.302 576.438 610.622 583.987 618.4 C 600.993 635.925 620.979 654.233 637.387 672.016 C 570.571 741.469 517.651 851.85 504.16 946.852 C 501.655 964.489 498.845 982.095 498.775 1000.01 C 495.124 1001.48 294.968 1000.52 273.565 999.85 z" fill="rgb(41,27,134)" transform="translate(0,0)"></path>
<path d="M 421.277 797.876 C 427.018 698.025 422.989 586.856 495.567 507.906 C 567.424 429.741 685.75 425.624 785.99 421.823 L 787.609 424.656 C 738.079 441.007 682.611 476.859 640.053 507.008 C 622.507 519.438 604.201 535.881 587.62 549.923 C 575.012 561.376 562.797 573.253 550.995 585.534 C 510.348 632.46 478.027 678.388 450.353 734.24 C 439.886 755.365 430.982 776.444 421.277 797.876 z" fill="rgb(255,255,255)" transform="translate(0,0)"></path>
<path d="M 785.99 421.823 C 787.164 421.889 790.087 421.875 791.14 422.414 L 791.227 422.557 C 790.853 423.384 788.462 424.278 787.609 424.656 L 785.99 421.823 z" fill="rgb(246,237,253)" transform="translate(0,0)"></path>
<path d="M 1553.09 1049.97 L 1778.04 1050.58 C 1777.51 1123.3 1774.84 1195.99 1770.03 1268.55 C 1756.66 1457.56 1727.3 1659.91 1521.41 1729.4 C 1445.19 1755.12 1364.28 1762.18 1284.5 1768.04 C 1206.32 1773.94 1127.95 1777.02 1049.55 1777.26 L 1049.14 1555.22 C 1072.39 1551.8 1094.25 1551.67 1119.15 1547.11 C 1212.6 1529.97 1308.49 1482.14 1378.21 1417.27 C 1397.42 1438.11 1420.27 1458.51 1439.98 1479.05 C 1445.07 1484.35 1459.05 1496.93 1462.76 1501.72 C 1474.95 1490.39 1488.21 1477.91 1499.3 1465.51 C 1490.03 1460.45 1423.08 1391.85 1413.81 1381.65 L 1414.46 1381.05 C 1427.72 1368.74 1439.89 1350.96 1450.81 1336.34 C 1509.78 1257.49 1549.6 1149.09 1553.09 1049.97 z" fill="rgb(41,27,134)" transform="translate(0,0)"></path>
<path d="M 1624.8 1262.46 L 1627.96 1262.59 L 1628.16 1264.2 C 1627.35 1291.79 1625.78 1319.36 1623.44 1346.87 C 1617.39 1425.04 1606.62 1494.5 1544.6 1554.26 C 1472.42 1623.79 1359.84 1623.65 1265.49 1629.03 C 1264.86 1629.07 1263.4 1628.92 1262.96 1628.9 L 1263.19 1625.79 C 1307.76 1609.36 1365.54 1575.33 1404.64 1548.33 C 1422.8 1535.8 1445.53 1516.19 1462.76 1501.72 C 1474.95 1490.39 1488.21 1477.91 1499.3 1465.51 C 1556.05 1404.05 1593.09 1338.94 1624.8 1262.46 z" fill="rgb(255,255,255)" transform="translate(0,0)"></path>
<path d="M 1626.34 1258.27 C 1629.54 1247.3 1628.79 1260.89 1628.16 1264.2 L 1627.96 1262.59 L 1624.8 1262.46 C 1625.33 1261.07 1625.84 1259.67 1626.34 1258.27 z" fill="rgb(160,145,207)" transform="translate(0,0)"></path>
<path d="M 1626.34 1258.27 C 1628.55 1258.67 1627.9 1260.5 1627.96 1262.59 L 1624.8 1262.46 C 1625.33 1261.07 1625.84 1259.67 1626.34 1258.27 z" fill="rgb(246,237,253)" transform="translate(0,0)"></path>
<path d="M 1263.19 1625.79 L 1262.96 1628.9 C 1262.31 1628.91 1258.8 1629.3 1258.67 1628.33 C 1259.27 1627.26 1262.16 1626.25 1263.19 1625.79 z" fill="rgb(246,237,253)" transform="translate(0,0)"></path>
<path d="M 273.119 1050.19 C 323.821 1049.58 374.734 1050.37 425.43 1050.1 C 449.032 1049.97 475.614 1050.94 498.962 1050.04 C 506.402 1172.09 551.135 1290.81 635.768 1380.66 C 629.002 1389.84 601.502 1415.96 592.144 1425.49 C 584.454 1433.32 558.833 1459.79 551.266 1465.67 C 563.11 1477.47 575.459 1490.17 587.808 1501.32 C 594.458 1492.79 608.477 1479.12 616.269 1471.35 C 634.572 1453.22 653.084 1435.3 671.801 1417.59 C 685.419 1429.4 698.66 1441.02 713.246 1451.62 C 796.798 1512.32 897.282 1551.85 1001.02 1555.24 L 1000.89 1777.15 C 930.116 1777.04 859.362 1774.49 788.759 1769.52 C 698.933 1763.45 587.015 1754.29 503.575 1719.69 C 466.549 1704.16 432.824 1681.72 404.208 1653.55 C 295.273 1545.88 285.675 1361.71 278.392 1217.6 C 275.542 1161.84 273.784 1106.02 273.119 1050.19 z" fill="rgb(41,27,134)" transform="translate(0,0)"></path>
<path d="M 421.727 1260.07 L 424.39 1258.22 C 457.784 1340.99 491.136 1399.23 551.266 1465.67 C 563.11 1477.47 575.459 1490.17 587.808 1501.32 C 615.265 1525.05 644.068 1548.68 675.182 1567.53 C 710.609 1588.99 749.844 1612.25 788.842 1626.69 C 784.611 1628.89 776.237 1627.63 769.875 1628.12 C 746.311 1628.1 716.704 1624.66 693.409 1622.62 C 621.743 1616.33 556.782 1604.14 503.101 1551.36 C 451.885 1501 438.154 1444.46 429.713 1376.24 C 424.386 1333.19 422.714 1303.44 421.727 1260.07 z" fill="rgb(255,255,255)" transform="translate(0,0)"></path>
<path d="M 788.842 1626.69 L 790.389 1627.04 C 797.109 1631.05 770.775 1628.26 769.875 1628.12 C 776.237 1627.63 784.611 1628.89 788.842 1626.69 z" fill="rgb(184,178,217)" transform="translate(0,0)"></path>
<path d="M 421.727 1260.07 C 421.804 1259.22 421.875 1258.37 421.94 1257.52 C 421.997 1256.78 421.974 1255.31 422.564 1254.75 C 423.598 1255 424.15 1257.45 424.39 1258.22 L 421.727 1260.07 z" fill="rgb(246,237,253)" transform="translate(0,0)"></path>
<path d="M 1193.05 890.948 C 1213.89 921.452 1226.81 944.306 1234.81 981.036 C 1259.95 1096.56 1184.97 1212.67 1068.77 1236.61 C 1012.2 1248.43 953.26 1237.03 905.187 1204.96 C 856.591 1172.37 823.235 1121.52 812.7 1063.97 C 802.489 1010.23 813.881 954.629 844.405 909.237 C 912.531 809.632 1043.89 782.67 1145.7 848.516 C 1149.71 851.109 1153.64 853.868 1157.56 856.587 C 1109.93 906.122 1060.65 953.759 1011.42 1001.7 C 1003.54 1009.38 996.634 1015.66 996.9 1027.47 C 997.005 1034.05 999.87 1040.29 1004.79 1044.65 C 1009.76 1049.11 1016.36 1051.29 1023.01 1050.66 C 1027.24 1050.29 1032.73 1048.71 1035.78 1045.69 C 1082.98 998.884 1130.03 951.826 1177.47 905.221 C 1182.36 900.42 1187.85 895.228 1193.05 890.948 z" fill="rgb(41,27,134)" transform="translate(0,0)"></path>
<path d="M 1399.61 761.534 C 1449.11 832.093 1478.17 914.947 1483.58 1000.97 C 1495.35 1001.18 1542.16 1001.7 1551.26 1000.29 L 1552.59 998.215 C 1554.1 1000.04 1553.46 1000.04 1555.5 1000.1 C 1563.6 1000.34 1572.06 1000.09 1580.19 1000.1 L 1634.73 1000.22 C 1682.28 1000.21 1730.81 1001.09 1778.17 1000.71 L 1778.04 1050.58 L 1553.09 1049.97 C 1530.65 1049.53 1506.72 1049.93 1484.16 1049.92 C 1474.58 1153.51 1455.33 1204.8 1400.3 1292.14 C 1386.3 1281.6 1369.14 1270.62 1356.36 1259.12 C 1397.33 1199.56 1427.21 1122.83 1430.22 1050.26 C 1411.28 1049.99 1392.33 1049.93 1373.38 1050.08 C 1363.58 1050.11 1347.9 1051.07 1338.69 1048.98 C 1319.77 1044.69 1313.05 1021.1 1327.32 1007.62 C 1330.37 1004.69 1334.2 1002.7 1338.35 1001.89 C 1346.23 1000.28 1364.23 1000.92 1372.98 1000.94 L 1429.26 1000.96 C 1429.44 929.661 1393.64 852.778 1356.83 793.38 C 1371.17 782.537 1385.28 772.744 1399.61 761.534 z" fill="rgb(100,50,243)" transform="translate(0,0)"></path>
<path d="M 654.385 762.225 C 667.423 773.463 682.061 781.945 695.211 793.093 C 683.539 812.667 671.587 832.108 661.471 852.533 C 638.858 899.099 625.051 949.445 620.744 1001.03 C 639.334 1001.29 657.927 1001.27 676.517 1000.96 C 686.486 1000.89 696.145 1000.51 706.357 1001.23 C 737.12 1003.4 740.021 1044.36 710.316 1049.83 C 699.662 1051.79 682.567 1050.35 671.138 1050.17 C 654.373 1050.02 637.608 1049.97 620.844 1050.03 C 622.872 1129.07 652.305 1193.01 694.413 1257.83 C 681.438 1267.84 664.046 1279.54 652.382 1289.73 C 600.025 1215.07 574.423 1141.34 568.051 1050.1 C 545.849 1050.04 520.944 1049.44 498.962 1050.04 C 475.614 1050.94 449.032 1049.97 425.43 1050.1 C 374.734 1050.37 323.821 1049.58 273.119 1050.19 C 273.147 1033.41 273.296 1016.63 273.565 999.85 C 294.968 1000.52 495.124 1001.48 498.775 1000.01 C 502.804 1001.94 559.148 1001.49 567.805 1001.53 C 574.984 925.51 593.23 861.681 632.883 795.602 C 638.631 786.025 647.622 770.854 654.385 762.225 z" fill="rgb(100,50,243)" transform="translate(0,0)"></path>
<path d="M 1000.82 1430.09 L 1000.85 1372.99 C 1000.82 1363.73 999.638 1345.39 1001.74 1337.42 C 1007.78 1314.54 1044.78 1313.25 1048.14 1339.34 C 1049.62 1350.79 1049.08 1361.29 1049.08 1372.45 L 1049.07 1431.19 C 1107.33 1428.8 1164.17 1412.46 1214.82 1383.55 C 1230.45 1374.8 1244.61 1364.53 1258.96 1356.39 C 1268.28 1371.98 1276.36 1386.19 1287 1400.96 C 1216.11 1449.27 1135.74 1481.64 1049.16 1484.34 L 1049.14 1555.22 L 1049.55 1777.26 C 1033.33 1777.43 1017.11 1777.4 1000.89 1777.15 L 1001.02 1555.24 C 1001.41 1531.69 1000.78 1508.07 1001 1484.51 C 927.14 1478.08 874.724 1465.04 809.193 1428.12 C 795.501 1420.41 777.878 1410.84 765.489 1401.27 C 775.693 1386.91 785.509 1372.27 794.926 1357.38 C 855.726 1398.24 926.32 1429.73 1000.82 1430.09 z" fill="rgb(100,50,243)" transform="translate(0,0)"></path>
<path d="M 1000.42 274.03 C 1015.93 273.946 1033.68 273.424 1049.01 273.894 C 1049.13 347.345 1047.84 425.13 1049.3 498.142 L 1049.02 569.218 C 1112 573.741 1166.71 586.08 1223.65 614.447 C 1246.72 625.937 1265.64 635.762 1286.22 651.999 C 1276.03 666.087 1265.93 680.24 1255.91 694.456 C 1186.47 648.946 1131.3 629.822 1049.3 621.716 C 1049.04 641.423 1049.01 661.133 1049.2 680.841 C 1049.22 688.34 1049.64 704.825 1048.34 711.804 C 1047.56 716.106 1045.6 720.106 1042.68 723.363 C 1029.86 737.592 1005.73 730.873 1001.63 713.14 C 999.494 703.87 1000.89 686.298 1000.98 676.075 L 1001.11 621.326 C 923.31 627.011 856.868 650.955 792.663 695.838 C 782.84 681.094 773.119 666.282 763.501 651.403 C 833.415 600.795 915.381 575.03 1000.67 567.823 C 1000.83 544.534 1000.86 521.244 1000.77 497.954 C 1001.02 487.5 1001.03 476.611 1000.89 466.155 C 1000.07 402.327 1002.2 337.81 1000.42 274.03 z" fill="rgb(100,50,243)" transform="translate(0,0)"></path>
<path d="M 1462.75 549.9 C 1474.37 560.161 1489.07 574.985 1499.28 586.905 C 1489.38 592.325 1425.74 658.995 1413.45 670.861 C 1400.55 682.511 1387.09 696.284 1375 708.904 C 1315.85 770.687 1251.93 829.075 1193.05 890.948 C 1187.85 895.228 1182.36 900.42 1177.47 905.221 C 1130.03 951.826 1082.98 998.884 1035.78 1045.69 C 1032.73 1048.71 1027.24 1050.29 1023.01 1050.66 C 1016.36 1051.29 1009.76 1049.11 1004.79 1044.65 C 999.87 1040.29 997.005 1034.05 996.9 1027.47 C 996.634 1015.66 1003.54 1009.38 1011.42 1001.7 C 1060.65 953.759 1109.93 906.122 1157.56 856.587 C 1172.39 843.809 1194.15 820.116 1209.1 805.371 L 1342.04 672.431 C 1353.91 660.495 1365.81 646.797 1377.48 635.487 C 1387.15 628.773 1457.12 558.861 1462.75 549.9 z" fill="rgb(100,50,243)" transform="translate(0,0)"></path>
<path d="M 587.62 549.923 C 596.914 561.61 615.798 579.058 626.83 590.106 C 641.764 605.061 657.679 622.007 673.125 636.136 L 783.148 745.166 C 797.699 759.772 813.343 773.369 826.971 788.98 C 846.013 810.792 816.41 842.997 794.705 825.369 C 779.446 812.977 764.111 796.595 749.903 782.638 L 685.35 719.135 C 670.075 703.937 653.161 686.452 637.387 672.016 C 620.979 654.233 600.993 635.925 583.987 618.4 C 576.438 610.622 558.347 591.302 550.995 585.534 C 562.797 573.253 575.012 561.376 587.62 549.923 z" fill="rgb(100,50,243)" transform="translate(0,0)"></path>
<path d="M 1378.21 1417.27 C 1366.82 1404.98 1350.55 1389.89 1338.35 1377.89 L 1266.9 1307.41 C 1251.87 1292.66 1236.21 1278.3 1222.37 1262.38 C 1209.19 1247.77 1218.09 1227.69 1235.51 1222.27 C 1251.02 1217.44 1266.94 1237.49 1276.52 1247.01 C 1288.53 1258.78 1300.45 1270.64 1312.28 1282.59 C 1317.65 1287.97 1323.12 1293.44 1328.66 1298.64 C 1357.59 1325.8 1385.03 1354.34 1413.81 1381.65 C 1423.08 1391.85 1490.03 1460.45 1499.3 1465.51 C 1488.21 1477.91 1474.95 1490.39 1462.76 1501.72 C 1459.05 1496.93 1445.07 1484.35 1439.98 1479.05 C 1420.27 1458.51 1397.42 1438.11 1378.21 1417.27 z" fill="rgb(100,50,243)" transform="translate(0,0)"></path>
<path d="M 799.921 1221.24 C 810.268 1221.05 815.655 1221.3 824.001 1228.79 C 833.135 1236.98 834.167 1251.7 826.155 1261.13 C 809.015 1281.3 789.226 1299.76 770.321 1318.39 C 737.151 1351.13 704.31 1384.2 671.801 1417.59 C 653.084 1435.3 634.572 1453.22 616.269 1471.35 C 608.477 1479.12 594.458 1492.79 587.808 1501.32 C 575.459 1490.17 563.11 1477.47 551.266 1465.67 C 558.833 1459.79 584.454 1433.32 592.144 1425.49 C 601.502 1415.96 629.002 1389.84 635.768 1380.66 C 647.212 1376.73 736.433 1278.34 755.073 1263.12 C 768.575 1252.1 781.854 1232.06 799.921 1221.24 z" fill="rgb(100,50,243)" transform="translate(0,0)"></path>
<metadata><recraft-signature>{"signed_by": "recraft", "signature_b64": "7NZSPkUbovbWQfEUBu4mdlhLJWbBcit0m6tPenggvqgHsWAzFZXkrQs1wkL3ecMjhYbCmqGVkfkPfP1yZ5fFCQ==", "signing_algo": "Ed25519", "generation_timestamp": 1772807211, "identifier": "399e0d42-4697-477d-b276-322b121e8ab8"}</recraft-signature></metadata></svg>