<svg xmlns="http://www.w3.org/2000/svg" height="1024" preserveAspectRatio="none" style="display: block;" version="1.1" viewBox="0 0 2048 2048" width="1024">
<path d="M 0 0 L 2048 0 L 2048 2048 L 0 2048 L 0 0 z" fill="rgb(255,255,255)" transform="translate(0,0)"></path>
<path d="M 1168.35 288.959 L 1260.24 288.718 C 1331.65 290.03 1403.55 287.539 1474.85 289.425 C 1535.88 291.039 1599.93 317.034 1647.7 353.873 C 1656.14 348.448 1663.42 345.928 1673.65 348.125 C 1682.92 350.134 1690.93 355.917 1695.75 364.082 C 1701.87 374.509 1701.04 387.1 1695.6 397.588 C 1739.7 453.847 1761.91 516.303 1762.91 587.873 C 1763.18 606.98 1762.99 626.126 1762.98 645.234 L 1762.99 785.978 L 1763.05 881.024 C 1763.09 977.079 1764.36 1074.99 1762.97 1170.88 L 1762.9 1264.35 L 1763 1399.05 C 1763.01 1427.2 1763.96 1461.65 1761.42 1488.95 C 1755.25 1557.93 1725.24 1622.6 1676.56 1671.84 C 1652.76 1695.56 1625.38 1715.37 1595.41 1730.55 C 1512.63 1771.58 1445.57 1761.24 1356.89 1762.46 C 1325.07 1762.9 1292.73 1761.76 1260.81 1762 C 1234.06 1763.35 1195.47 1762.36 1167.92 1761.99 C 1073.52 1761.07 977.642 1762.19 883.052 1762.07 C 853.008 1761.75 822.907 1762.26 792.8 1761.85 C 772.128 1763.04 741.827 1762.28 720.542 1762.38 C 676.756 1762.7 632.967 1762.57 589.183 1762 C 507.011 1760.22 429.035 1729.43 371.819 1669.56 C 324.928 1621.02 295.657 1558.16 288.679 1491.03 C 287.333 1476.97 286.848 1462.77 287.041 1448.66 C 287.879 1387.24 285.472 1325.12 287.024 1263.78 C 286.546 1233.99 286.828 1203.34 286.737 1173.48 C 284.551 1077.38 286.811 976.117 286.753 879.405 L 286.879 785.892 L 286.783 651.758 C 286.718 615.582 285.073 578.846 291.055 543.237 C 303.674 463.362 348.121 392.01 414.25 345.469 C 463.709 310.41 527.178 290.47 587.761 289.033 C 599.035 288.766 610.433 288.841 621.718 288.802 L 700.722 288.671 L 762.238 288.869 C 768.956 288.903 787.996 288.614 793.71 289.599 C 801.138 288.768 816.237 289.11 824.112 289.054 L 884.07 288.815 L 1168.35 288.959 z" fill="rgb(44,34,189)" transform="translate(0,0)"></path>
<path d="M 1647.7 353.873 C 1656.14 348.448 1663.42 345.928 1673.65 348.125 C 1682.92 350.134 1690.93 355.917 1695.75 364.082 C 1701.87 374.509 1701.04 387.1 1695.6 397.588 C 1680.57 413.944 1662.82 428.838 1648.45 444.919 C 1680.7 491.225 1696.67 533.797 1696.97 591.689 C 1697.27 649.189 1669.17 713.363 1627.6 753.618 C 1622.38 711.39 1597.18 642.832 1573.91 607.538 C 1558.86 622.606 1541.78 638.012 1527.53 653.216 C 1533.65 667.043 1540.96 680.985 1546.41 695.108 C 1559.14 728.142 1566.02 761.555 1570.3 796.5 C 1546.15 806.297 1529.88 812.72 1504.8 819.534 C 1495.03 783.153 1487.22 751.885 1467.82 719.035 C 1449.23 738.829 1441.05 745.177 1416.59 756.658 C 1430.2 784.769 1434.74 801.8 1441.41 831.582 C 1416.22 835.477 1387.05 841.39 1362.02 846.658 C 1359.22 836.535 1355.59 826.66 1351.16 817.134 C 1327.96 766.61 1293.72 730.005 1244.81 703.115 C 1232.64 696.425 1215.62 690.572 1202.39 685.66 C 1204.45 665.72 1211.97 625.421 1216.1 604.833 C 1244.67 612.383 1260.33 618.769 1287.4 630.669 C 1294.76 606.336 1307.29 595.068 1325.39 578.148 C 1312.27 571.666 1296.89 563.837 1283.17 559.046 C 1265.41 552.842 1247.39 547.682 1229.47 541.48 C 1235.37 519.537 1242.23 499.889 1249.91 478.531 C 1303.63 487.035 1344.87 496.278 1393.59 522.137 C 1406.32 507.869 1424.74 489.632 1438.63 476.424 C 1390.89 447.985 1347.17 433.463 1293.05 423.335 C 1369.23 345.246 1489.62 335.914 1581.99 389.59 C 1588.28 393.241 1594.39 397.306 1600.46 401.304 C 1615.15 385.843 1632.13 370.246 1647.7 353.873 z" fill="rgb(255,255,255)" transform="translate(0,0)"></path>
<path d="M 1647.7 353.873 C 1656.14 348.448 1663.42 345.928 1673.65 348.125 C 1682.92 350.134 1690.93 355.917 1695.75 364.082 C 1701.87 374.509 1701.04 387.1 1695.6 397.588 C 1680.57 413.944 1662.82 428.838 1648.45 444.919 C 1643.67 448.899 1634.18 458.782 1629.38 463.478 C 1612.3 480.232 1595.44 497.197 1578.78 514.368 L 1461.03 632.476 C 1442.3 651.323 1422.54 672.571 1402.52 689.927 C 1397.43 694.341 1391.42 696.337 1384.64 696.686 C 1375.76 697.084 1367.09 693.919 1360.55 687.894 C 1330.38 660.436 1365.01 635.287 1384.2 616.496 C 1396.1 604.612 1407.94 592.664 1419.72 580.654 C 1479 521.141 1542.41 461.35 1600.46 401.304 C 1615.15 385.843 1632.13 370.246 1647.7 353.873 z" fill="rgb(252,169,10)" transform="translate(0,0)"></path>
<path d="M 777.066 1694.96 C 826.964 1653.52 854.791 1613.98 877.123 1552.28 C 890.295 1515.77 895.619 1476.9 901.586 1438.55 C 903.792 1416.71 911.676 1392.31 914.634 1371.03 C 923.378 1308.12 957.825 1232 1033.3 1238.56 C 1113.83 1245.56 1130.78 1334.81 1142.36 1398.1 C 1158.12 1484.23 1168.32 1571.98 1223.79 1642.88 C 1237.64 1660.7 1256.65 1681.61 1275.08 1694.92 C 1249.58 1694.89 1223.51 1695.15 1198.07 1694.79 C 1213.7 1715.99 1240.92 1744.9 1260.81 1762 C 1234.06 1763.35 1195.47 1762.36 1167.92 1761.99 C 1073.52 1761.07 977.642 1762.19 883.052 1762.07 C 853.008 1761.75 822.907 1762.26 792.8 1761.85 C 795.982 1756.82 810.301 1744.97 815.336 1739.69 C 828.329 1726.05 843.8 1710.08 854.372 1694.61 C 828.608 1695.23 802.834 1695.35 777.066 1694.96 z" fill="rgb(255,255,255)" transform="translate(0,0)"></path>
<path d="M 856.74 1692.29 C 921.308 1599.62 952.168 1504.66 947.661 1392.8 C 947.25 1382.6 946.688 1369.51 950.446 1360.18 C 963.855 1327.95 1011.75 1337.9 1013.2 1371.54 C 1018.28 1489.29 997.373 1593.43 935.568 1694.52 C 974.22 1695.01 1012.88 1695.18 1051.53 1695.03 C 1069.16 1695.05 1100.22 1696.03 1116.89 1694.95 C 1131.52 1717.48 1150.71 1741.34 1167.92 1761.99 C 1073.52 1761.07 977.642 1762.19 883.052 1762.07 C 853.008 1761.75 822.907 1762.26 792.8 1761.85 C 795.982 1756.82 810.301 1744.97 815.336 1739.69 C 828.329 1726.05 843.8 1710.08 854.372 1694.61 L 856.74 1692.29 z" fill="rgb(253,234,12)" transform="translate(0,0)"></path>
<path d="M 856.74 1692.29 C 861.847 1694.62 924.285 1694.49 934.676 1694.8 C 926.219 1708.07 917.052 1720.87 907.213 1733.14 C 903.718 1737.42 884.463 1759.2 883.052 1762.07 C 853.008 1761.75 822.907 1762.26 792.8 1761.85 C 795.982 1756.82 810.301 1744.97 815.336 1739.69 C 828.329 1726.05 843.8 1710.08 854.372 1694.61 L 856.74 1692.29 z" fill="rgb(252,169,10)" transform="translate(0,0)"></path>
<path d="M 1116.89 1694.95 C 1063.87 1601.92 1037.94 1514.24 1041.02 1406.56 C 1041.42 1392.54 1039.06 1376.75 1043.2 1362.57 C 1051.35 1335.5 1091.18 1333.65 1102.89 1358.26 C 1106.97 1366.83 1107.16 1385.77 1106.7 1395.23 C 1101.88 1496.25 1129.41 1598.74 1188.22 1681.39 C 1191.24 1685.63 1195.11 1690.27 1198.07 1694.79 C 1213.7 1715.99 1240.92 1744.9 1260.81 1762 C 1234.06 1763.35 1195.47 1762.36 1167.92 1761.99 C 1150.71 1741.34 1131.52 1717.48 1116.89 1694.95 z" fill="rgb(252,169,10)" transform="translate(0,0)"></path>
<path d="M 1168.35 288.959 L 1260.24 288.718 C 1242.02 306.019 1211.43 334.807 1198.81 355.876 C 1223.82 355.861 1248.83 356.195 1273.83 356.877 C 1167.21 448.676 1159.39 549.082 1136.69 679.45 C 1126.53 737.846 1098.52 808.163 1029.26 811.453 C 1011.07 812.418 993.034 807.745 977.606 798.074 C 936.196 772.452 924.819 728.259 915.926 683.754 C 912.094 665.201 908.673 646.567 905.665 627.863 C 885.1 506.673 877.254 443.512 780.934 356.752 L 855.907 356.184 C 835.533 327.869 819.191 312.684 793.71 289.599 C 801.138 288.768 816.237 289.11 824.112 289.054 L 884.07 288.815 L 1168.35 288.959 z" fill="rgb(255,255,255)" transform="translate(0,0)"></path>
<path d="M 1168.35 288.959 L 1260.24 288.718 C 1242.02 306.019 1211.43 334.807 1198.81 355.876 L 1197.17 356.994 C 1191.4 367.254 1178.63 382.952 1171.5 394.798 C 1143.95 440.809 1124.71 491.304 1114.64 543.978 C 1110.77 565.346 1108.25 586.935 1107.08 608.618 C 1105.8 637.283 1117.73 701.684 1085.35 712.758 C 1076.31 715.829 1066.41 714.989 1058.02 710.44 C 1034.2 697.725 1041.44 656.662 1041 632.817 C 1039.07 527.715 1065.7 446.275 1117.48 356.12 C 1057.64 356.289 994.678 357.032 935.042 355.522 C 928.094 347.759 915.391 325.861 907.767 316.497 C 899.95 306.897 891.96 298.221 884.07 288.815 L 1168.35 288.959 z" fill="rgb(253,234,12)" transform="translate(0,0)"></path>
<path d="M 1168.35 288.959 L 1260.24 288.718 C 1242.02 306.019 1211.43 334.807 1198.81 355.876 L 1197.17 356.994 C 1170.94 356.376 1144.7 356.017 1118.46 355.915 C 1133.95 330.714 1150.73 311.992 1168.35 288.959 z" fill="rgb(252,169,10)" transform="translate(0,0)"></path>
<path d="M 793.71 289.599 C 801.138 288.768 816.237 289.11 824.112 289.054 L 884.07 288.815 C 891.96 298.221 899.95 306.897 907.767 316.497 C 915.391 325.861 928.094 347.759 935.042 355.522 C 981.124 429.868 1007.77 514.609 1012.52 601.949 C 1013.96 625.877 1012.09 649.622 1013.15 674.337 C 1014.33 701.513 993.939 724.248 966.087 711.726 C 945.879 702.642 947.732 676.67 947.898 658.077 C 948.056 640.407 948.715 620.788 947.497 602.426 C 942.599 530.097 920.785 459.928 883.813 397.57 C 876.081 384.333 866.141 367.365 855.907 356.184 C 835.533 327.869 819.191 312.684 793.71 289.599 z" fill="rgb(252,169,10)" transform="translate(0,0)"></path>
<path d="M 354.978 774.473 C 397.387 819.687 429.044 845.567 488.673 868.391 C 524.092 881.947 550.301 885.267 587.382 891.841 C 612.721 896.45 638.032 901.209 663.314 906.118 C 686.888 910.803 705.823 914.368 728.422 923.048 C 803.459 951.626 840.599 1035.58 774.336 1095.69 C 740.795 1126.12 713.678 1130.12 671.515 1140.12 C 619.691 1152.41 562.504 1157.02 511.767 1171.35 C 450.269 1188.66 395.559 1224.42 355.01 1273.79 C 355.068 1250.38 354.553 1223.5 355.486 1200.37 L 355.678 1199.52 C 353.402 1185.4 355.825 1154.73 354.792 1139.15 C 354.406 1133.33 355.22 1127.42 353.969 1121.38 C 337.929 1130.37 318.815 1146.56 304.51 1158.32 C 299.478 1162.46 291.582 1169.97 286.737 1173.48 C 284.551 1077.38 286.811 976.117 286.753 879.405 L 286.879 785.892 C 313.077 814.052 324.896 825.63 354.872 850.571 C 354.902 825.343 354.676 799.664 354.978 774.473 z" fill="rgb(255,255,255)" transform="translate(0,0)"></path>
<path d="M 286.879 785.892 C 313.077 814.052 324.896 825.63 354.872 850.571 L 355.265 852.322 C 372.966 862.561 389.613 875.139 407.314 885.192 C 466.031 918.366 531.515 937.775 598.825 941.954 C 618.353 943.046 638.58 942.831 657.274 942.731 C 679.954 942.608 712.062 937.683 717.999 966.899 C 725.489 1003.75 693.399 1010.24 665.641 1008.85 C 634.412 1007.28 605.766 1009.51 574.81 1006.05 C 502.41 998.444 421.247 974.584 360.457 933.865 L 355.592 930.58 L 355.07 1059.47 C 355.062 1074.95 354.137 1105.55 355.324 1120.11 L 353.969 1121.38 C 337.929 1130.37 318.815 1146.56 304.51 1158.32 C 299.478 1162.46 291.582 1169.97 286.737 1173.48 C 284.551 1077.38 286.811 976.117 286.753 879.405 L 286.879 785.892 z" fill="rgb(253,234,12)" transform="translate(0,0)"></path>
<path d="M 286.879 785.892 C 313.077 814.052 324.896 825.63 354.872 850.571 L 355.265 852.322 C 354.627 878.303 356.388 904.044 355.477 930.019 C 346.42 924.031 337.528 917.795 328.813 911.319 C 321.358 905.73 292.408 880.909 286.753 879.405 L 286.879 785.892 z" fill="rgb(252,169,10)" transform="translate(0,0)"></path>
<path d="M 355.324 1120.11 C 442.618 1064.78 533.756 1041.61 636.325 1039.97 C 652.352 1039.71 676.067 1037.38 691.378 1040.77 C 700.904 1042.87 708.888 1048.11 714.061 1056.45 C 718.768 1064.03 720.212 1072.77 717.963 1081.43 C 715.615 1090.47 709.876 1098.55 701.548 1102.97 C 687.466 1110.44 634.749 1106.51 616.639 1107.06 C 544.921 1109.26 471.173 1128.63 408.661 1164.11 C 390.157 1174.61 372.8 1186.93 355.678 1199.52 C 353.402 1185.4 355.825 1154.73 354.792 1139.15 C 354.406 1133.33 355.22 1127.42 353.969 1121.38 L 355.324 1120.11 z" fill="rgb(252,169,10)" transform="translate(0,0)"></path>
<path d="M 1694.86 1272.45 C 1594.88 1163.29 1517.61 1168.07 1381.82 1141.65 C 1344.31 1134.83 1312.39 1126.46 1281.98 1102.16 C 1243.47 1072.43 1228.07 1020.96 1255.21 978.269 C 1286.06 929.739 1333.88 917.307 1386.53 906.497 C 1406.9 902.126 1427.37 898.239 1447.92 894.841 C 1485.85 888.513 1518.36 884.369 1555.07 871.71 C 1608.27 853.366 1659.36 821.208 1694.53 776.927 C 1694.47 801.237 1695.05 825.337 1694.88 849.792 L 1694.44 850.552 C 1694.81 866.972 1694.91 883.397 1694.73 899.82 C 1694.69 908.612 1694.24 923.521 1695.26 931.803 C 1710.01 922.257 1724.33 912.079 1738.19 901.299 C 1745.15 895.795 1756.43 885.257 1763.05 881.024 C 1763.09 977.079 1764.36 1074.99 1762.97 1170.88 L 1762.9 1264.35 C 1746.5 1245.45 1715.24 1214.28 1694.8 1200.16 L 1694.86 1272.45 z" fill="rgb(255,255,255)" transform="translate(0,0)"></path>
<path d="M 1763.05 881.024 C 1763.09 977.079 1764.36 1074.99 1762.97 1170.88 L 1762.9 1264.35 C 1746.5 1245.45 1715.24 1214.28 1694.8 1200.16 L 1694.36 1199.44 C 1685.63 1192.08 1669.93 1182.1 1660.1 1175.91 C 1592.57 1133.42 1514.97 1109.61 1435.23 1106.9 C 1417.78 1106.4 1359.5 1108.51 1347.64 1102.55 C 1339.76 1098.58 1333.89 1091.49 1331.46 1083 C 1322.19 1051.63 1348.57 1041.31 1373.93 1040.44 C 1493.9 1036.33 1592.52 1055.26 1694.87 1118.67 L 1694.11 1004.44 C 1694.14 983.028 1695.06 954.113 1693.88 933.19 L 1695.26 931.803 C 1710.01 922.257 1724.33 912.079 1738.19 901.299 C 1745.15 895.795 1756.43 885.257 1763.05 881.024 z" fill="rgb(253,234,12)" transform="translate(0,0)"></path>
<path d="M 1694.97 1118.56 C 1709.53 1128.73 1724.92 1138.28 1739.16 1149.03 C 1746.05 1154.24 1756.15 1167.2 1762.97 1170.88 L 1762.9 1264.35 C 1746.5 1245.45 1715.24 1214.28 1694.8 1200.16 L 1694.36 1199.44 C 1695.34 1193.81 1694.98 1176.38 1694.97 1169.96 L 1694.97 1118.56 z" fill="rgb(252,169,10)" transform="translate(0,0)"></path>
<path d="M 1694.44 850.552 C 1694.81 866.972 1694.91 883.397 1694.73 899.82 C 1694.69 908.612 1694.24 923.521 1695.26 931.803 L 1693.88 933.19 C 1607.77 984.402 1524.53 1009.31 1424.08 1008.2 C 1398.72 1007.91 1353.02 1016.12 1335.85 993.946 C 1321.48 975.388 1335.78 944.219 1359.85 943.131 C 1369.8 942.681 1380.23 942.103 1390.34 942.627 C 1505.04 947.782 1602.66 919.951 1694.44 850.552 z" fill="rgb(252,169,10)" transform="translate(0,0)"></path>
<path d="M 1694.88 849.792 C 1714.47 836.976 1747.92 804.758 1762.99 785.978 L 1763.05 881.024 C 1756.43 885.257 1745.15 895.795 1738.19 901.299 C 1724.33 912.079 1710.01 922.257 1695.26 931.803 C 1694.24 923.521 1694.69 908.612 1694.73 899.82 C 1694.91 883.397 1694.81 866.972 1694.44 850.552 L 1694.88 849.792 z" fill="rgb(250,149,9)" transform="translate(0,0)"></path>
<path d="M 353.969 1121.38 C 355.22 1127.42 354.406 1133.33 354.792 1139.15 C 355.825 1154.73 353.402 1185.4 355.678 1199.52 L 355.486 1200.37 C 335.019 1213.92 302.223 1244.59 287.024 1263.78 C 286.546 1233.99 286.828 1203.34 286.737 1173.48 C 291.582 1169.97 299.478 1162.46 304.51 1158.32 C 318.815 1146.56 337.929 1130.37 353.969 1121.38 z" fill="rgb(250,149,9)" transform="translate(0,0)"></path>
<path d="M 865.839 746.035 C 868.473 748.63 874.437 765.915 876.272 770.392 C 922.227 882.498 1068 914.882 1147.91 818.446 C 1167.33 795.012 1175.49 775.919 1186.53 747.861 C 1246.29 766.552 1278.82 806.833 1300.3 863.124 C 1281.31 871.108 1266.93 877.768 1249.96 889.978 C 1130.52 975.92 1163.21 1136.05 1299.66 1184.02 C 1292.5 1223.23 1255.99 1269.7 1220.75 1288.29 C 1215.01 1291.32 1191.32 1304.18 1185.94 1303.36 C 1181.69 1292.32 1176.81 1279.44 1171.62 1268.95 C 1151.38 1227.58 1115.31 1196.13 1071.58 1181.71 C 1020.25 1164.62 964.334 1178.24 923.936 1213.21 C 893.156 1239.87 879.107 1266.57 866.718 1304.17 C 857.85 1301.2 849.212 1297.59 840.871 1293.36 C 792.524 1268.62 766.034 1235.99 749.322 1184.84 C 808.791 1159.89 847.167 1130.15 867.242 1065.91 C 888.987 996.338 853.966 923.053 794.495 884.767 C 781.462 876.378 766.039 869.723 752.012 863.072 C 770.045 802.642 807.692 767.122 865.839 746.035 z" fill="rgb(255,255,255)" transform="translate(0,0)"></path>
<path d="M 1021.52 900.5 C 1090.62 898.517 1148.23 952.956 1150.16 1022.06 C 1152.09 1091.16 1097.6 1148.73 1028.5 1150.6 C 959.473 1152.47 901.985 1098.06 900.06 1029.04 C 898.134 960.013 952.498 902.481 1021.52 900.5 z" fill="rgb(44,34,189)" transform="translate(0,0)"></path>
<path d="M 1017.26 964.047 C 1050.63 960.015 1081.05 983.566 1085.5 1016.89 C 1089.95 1050.21 1066.78 1080.91 1033.51 1085.78 C 1011.62 1088.98 989.703 1080.16 976.129 1062.69 C 962.556 1045.22 959.429 1021.8 967.942 1001.38 C 976.456 980.962 995.295 966.7 1017.26 964.047 z" fill="rgb(255,255,255)" transform="translate(0,0)"></path>
<path d="M 421.833 1294.75 C 422.732 1295.85 434.952 1345.65 436.783 1351.84 C 448.185 1389.2 464.841 1424.75 486.252 1457.42 C 531.457 1525.28 604.485 1580.88 680.877 1608.76 C 704.645 1617.43 729.968 1623.67 754.728 1628.68 C 730.719 1653.07 704.281 1669.24 672.244 1681.46 C 650.222 1689.6 627.036 1694.17 603.568 1694.97 C 537.92 1698.01 473.842 1674.32 425.961 1629.3 C 381.513 1587.44 355.609 1529.57 353.997 1468.54 C 351.903 1401.68 376.573 1343.12 421.833 1294.75 z" fill="rgb(255,255,255)" transform="translate(0,0)"></path>
<path d="M 1627.43 1295.42 C 1639.91 1303.19 1663.82 1342.67 1670.8 1355.67 C 1697.49 1405.36 1702.81 1475.84 1685.46 1529.52 C 1666.02 1589.99 1623.4 1640.28 1566.94 1669.37 C 1504.54 1700.99 1443.8 1702.48 1378.16 1681.1 C 1355.73 1672.86 1334.77 1661.08 1316.06 1646.2 C 1309.18 1640.69 1303.61 1634.86 1296.73 1629.42 C 1319.1 1624.33 1340.38 1619.24 1362.08 1611.69 C 1507.75 1561.02 1598.92 1444.76 1627.43 1295.42 z" fill="rgb(255,255,255)" transform="translate(0,0)"></path>
<path d="M 576.968 356.419 C 641.131 350.749 710.189 376.49 756.266 421.246 C 725.375 427.172 695.094 435.92 665.802 447.381 C 563.175 488.36 491.268 562.794 448.002 663.651 C 435.23 695.467 429.615 719.13 422.395 752.775 C 329.86 660.77 333.564 507.147 429.505 418.981 C 471.464 380.424 520.549 361.063 576.968 356.419 z" fill="rgb(255,255,255)" transform="translate(0,0)"></path>
<path d="M 543.94 1231.31 C 546.538 1232.77 550.257 1250.38 551.447 1254.4 C 589.922 1384.29 688.216 1477.86 822.065 1507.73 C 816.278 1532.22 811.064 1548.82 798.363 1570.96 L 765.185 1564.8 C 685.432 1547.94 625.698 1520.7 569.835 1459.54 C 513.77 1398.15 489.325 1333.29 480.702 1252.02 C 497.081 1246.05 528.223 1234.14 543.94 1231.31 z" fill="rgb(255,255,255)" transform="translate(0,0)"></path>
<path d="M 1505.27 1231.45 C 1529.36 1236.03 1547.43 1243.23 1569.83 1252.15 C 1548.08 1416.67 1452.92 1526.52 1290.75 1565.27 C 1277.65 1568.1 1264.41 1570.32 1251.1 1571.9 C 1241.1 1553.25 1233.96 1529.34 1229.52 1508.7 C 1272.2 1496.4 1292.94 1491.71 1332.25 1468.76 C 1428.41 1412.6 1476.85 1336.36 1505.27 1231.45 z" fill="rgb(255,255,255)" transform="translate(0,0)"></path>
<path d="M 794.366 479.342 C 796.636 478.89 796.486 478.933 798.756 479.459 C 807.25 489.176 818.894 527.371 822.703 540.99 C 790.351 547.574 739.989 567.115 712.154 584.404 C 620.855 641.113 570.243 717.153 544.513 819.067 C 534.986 816.578 528.04 814.328 518.759 811.075 C 505.327 806.079 493.007 801.488 480.228 794.878 C 492.097 727.34 505.811 677.305 546.576 619.681 C 605.322 536.637 695.84 495.077 794.366 479.342 z" fill="rgb(255,255,255)" transform="translate(0,0)"></path>
<path d="M 686.107 1202.21 C 686.268 1202.21 687.994 1202.17 688.194 1202.81 C 690.214 1209.23 697.67 1228.98 700.021 1233.96 C 731.881 1301.51 779.203 1340.7 849.257 1365.76 C 844.007 1391.32 839.572 1419.96 835.109 1445.82 C 818.229 1441.95 804.71 1436.69 788.753 1430.45 C 693.058 1393.03 630.724 1317 608.08 1217.08 C 633.926 1211.84 660.468 1208.36 686.107 1202.21 z" fill="rgb(255,255,255)" transform="translate(0,0)"></path>
<path d="M 833.489 605.13 C 834.741 605.177 833.944 605.061 835.769 605.929 C 840.155 632.085 846.157 658.044 850.547 684.378 C 838.551 688.665 825.178 693.919 813.723 699.331 C 766.758 721.885 728.479 759.209 704.746 805.589 C 697.817 819.286 693.35 832.07 688.186 846.435 C 670.894 842.371 652.712 839.151 635.213 835.809 C 627.192 834.769 616.171 832.446 607.962 830.99 C 615.339 798.149 628.059 766.742 645.615 738.022 C 687.505 669.37 755.979 624.055 833.489 605.13 z" fill="rgb(255,255,255)" transform="translate(0,0)"></path>
<path d="M 1362 1202.65 C 1384.45 1206.91 1421.83 1212.45 1442.65 1218.39 C 1416.13 1317.84 1362.31 1386.33 1267.5 1428.7 C 1251.6 1435.05 1233.18 1441.93 1216.61 1445.89 C 1210.93 1427.82 1205.45 1385.32 1202.57 1365.23 C 1208.98 1362.95 1215.31 1360.46 1221.55 1357.75 C 1266.1 1338.63 1298.23 1315.24 1326.6 1275.08 C 1342.87 1252.05 1351.67 1228.5 1362 1202.65 z" fill="rgb(255,255,255)" transform="translate(0,0)"></path>
<metadata><recraft-signature>{"signed_by": "recraft", "signature_b64": "LqohGobWFu6DlBGQsSgYOcl8mPdFpZZCsFV968s7XAc5zv/io5J6LtsRV1P64VcPTlpqLuY87IT9i7uKd0TACw==", "signing_algo": "Ed25519", "generation_timestamp": 1772807356, "identifier": "30bd126f-0ec4-4d84-815c-7ce992f3320a"}</recraft-signature></metadata></svg>