<svg xmlns="http://www.w3.org/2000/svg" height="1024" preserveAspectRatio="none" style="display: block;" version="1.1" viewBox="0 0 2048 2048" width="1024">
<path d="M 0 0 L 2048 0 L 2048 2048 L 0 2048 L 0 0 z" fill="rgb(255,255,255)" transform="translate(0,0)"></path>
<path d="M 680.625 269.436 C 698.313 268.622 716.775 269.121 734.53 269.081 C 768.563 269.005 802.609 269.117 836.645 269.133 L 1110.52 269.113 L 1278.04 269.082 C 1338.35 269.073 1396.84 265.914 1455.82 280.273 C 1529.06 298.003 1596.28 334.894 1650.57 387.163 C 1728.1 460.616 1780.36 570.936 1782.22 677.933 C 1783.06 726.551 1782.64 777.478 1782.69 826.265 L 1782.98 1097.92 L 1782.89 1274.99 C 1782.95 1334.18 1786.26 1399.15 1772.39 1456.61 C 1754.74 1529.7 1717.83 1590.76 1666.89 1645.5 C 1588.29 1729.96 1485.56 1777.12 1369.75 1780.29 C 1316.82 1781.29 1262.1 1780.41 1209 1780.37 L 926.124 1780.32 L 771.551 1780.45 C 712.973 1780.54 656.793 1783.44 599.527 1769.94 C 528.413 1753.17 461.899 1721.06 407.91 1671.68 C 323.805 1595.57 273.848 1488.83 269.289 1375.5 C 267.379 1332.25 268.906 1278.58 268.966 1234.4 L 269.194 972.208 L 269.087 787.062 C 268.927 724.68 264.676 659.267 279.108 598.702 C 296.175 525.679 331.555 463.312 382.332 408.403 C 463.136 321.024 562.154 274.469 680.625 269.436 z" fill="rgb(41,30,119)" transform="translate(0,0)"></path>
<path d="M 1021.21 771.023 C 1163.46 769.377 1279.98 883.602 1281.16 1025.85 C 1282.35 1168.1 1167.74 1284.25 1025.49 1284.97 C 883.89 1285.69 768.389 1171.73 767.211 1030.13 C 766.032 888.532 879.62 772.662 1021.21 771.023 z" fill="rgb(255,255,255)" transform="translate(0,0)"></path>
<path d="M 1134.87 911.479 C 1137.52 914.525 1160.19 976.443 1163.48 984.961 C 1188.32 987.223 1217.56 988.384 1242.63 989.06 C 1223.07 1006.8 1201.87 1022.63 1181.28 1041.36 C 1187.85 1064.96 1194.68 1091.59 1203.24 1114.28 C 1192.57 1107.97 1142.82 1074.78 1136.29 1072.8 C 1114.82 1086.26 1090.98 1102.82 1069.93 1117.22 C 1076.39 1091.73 1083.01 1066.29 1089.79 1040.89 C 1071.24 1023.26 1047.73 1005.4 1028.08 988.09 C 1055.49 987.224 1082.9 986.19 1110.3 984.987 C 1114.51 967.161 1128.3 930.338 1134.87 911.479 z" fill="rgb(245,84,15)" transform="translate(0,0)"></path>
<path d="M 905.317 911.739 C 910.2 916.963 929.683 974.175 933.722 985.875 L 1011.75 987.894 C 996.376 1000.69 964.474 1024.39 951.538 1038.28 C 957.225 1060.13 964.292 1088.1 971.397 1109.16 C 949.626 1096.25 929.401 1081.87 907.16 1070.06 C 888.451 1081.08 862.285 1099.69 843.988 1112.24 C 849.143 1088.68 856.208 1061.67 862.113 1038.19 C 855.144 1031.38 846.067 1024.8 838.393 1018.57 L 801.258 988.026 C 823.258 985.796 859.37 985.455 882.278 984.861 C 890.555 962.436 897.976 934.999 905.317 911.739 z" fill="rgb(245,84,15)" transform="translate(0,0)"></path>
<path d="M 1024.12 1126.71 C 1029.84 1139.47 1035.47 1154.82 1040.75 1168.03 C 1053.7 1168.02 1066.64 1168.08 1079.58 1168.23 C 1069.49 1177.73 1059.24 1187.08 1048.85 1196.27 C 1052.2 1210.23 1055.49 1223.19 1060.02 1236.83 C 1050.89 1231.32 1035.73 1220.65 1025.91 1215.21 C 1025.09 1215.35 1024.26 1215.5 1023.44 1215.65 C 1013.86 1222.76 999.089 1231.6 988.7 1238.2 C 991.985 1224.89 996.093 1210.72 999.619 1197.36 C 988.389 1188.07 977.063 1178.87 966.232 1169.13 C 980.028 1169.07 996.599 1167.54 1010.82 1166.94 C 1015.46 1154.55 1020.03 1139.4 1024.12 1126.71 z" fill="rgb(245,84,15)" transform="translate(0,0)"></path>
<path d="M 1023.26 816.64 C 1026.71 819.942 1036.01 850.88 1037.89 856.862 L 1078.67 857.198 C 1069.14 866.424 1057.91 875.225 1047.94 884.5 C 1051.07 899.195 1055.53 912.565 1059.99 926.873 C 1053.49 923.116 1028.21 904.604 1024.5 904.733 C 1012.6 911.642 1000.1 920.218 988.519 927.867 L 998.727 885.76 C 987.221 876.877 976.807 867.682 965.893 858.103 C 980.421 857.101 995.915 856.889 1010.55 856.465 C 1015.22 844.606 1019.05 829.275 1023.26 816.64 z" fill="rgb(245,84,15)" transform="translate(0,0)"></path>
<path d="M 1393.66 1092.71 C 1401.89 1097.15 1408.36 1100.78 1417.14 1104.16 C 1423.74 1170.57 1437.19 1225.96 1481.95 1278.84 C 1526.81 1331.98 1590.83 1365.27 1660.1 1371.46 C 1659.3 1388.61 1657.99 1405.35 1654.43 1422.25 C 1643.82 1472.6 1619.04 1519.98 1584.59 1558.13 C 1578.07 1565.35 1567.47 1576.48 1559.4 1581.81 C 1562.29 1595.04 1566.73 1608.01 1569.69 1621.54 C 1561.44 1615.98 1545.35 1605.67 1538.38 1599.71 C 1479.75 1641.03 1429.26 1655.46 1358.57 1658.7 C 1352.88 1628.11 1349.39 1610.62 1337.22 1581.21 C 1309.77 1514.83 1267.21 1461.67 1207.21 1421.84 C 1184.65 1406.87 1158.63 1395.56 1133.83 1385.33 C 1164.27 1375.79 1193.37 1362.38 1220.4 1345.43 C 1291.95 1299.63 1346.85 1231.99 1376.93 1152.54 C 1384.92 1131.02 1388.71 1114.98 1393.66 1092.71 z" fill="rgb(255,255,255)" transform="translate(0,0)"></path>
<path d="M 1461.17 1284.15 C 1468.62 1301.26 1475.32 1321.9 1481.74 1339.59 C 1489.82 1361.87 1498.46 1384.69 1506.05 1407.08 C 1518.44 1407.13 1534.03 1408.43 1546.69 1409.12 C 1573.77 1410.69 1600.86 1412.08 1627.96 1413.29 C 1602.66 1437.59 1563.04 1470.94 1535.34 1493.72 C 1540.3 1517.23 1552.06 1558.81 1559.4 1581.81 C 1562.29 1595.04 1566.73 1608.01 1569.69 1621.54 C 1561.44 1615.98 1545.35 1605.67 1538.38 1599.71 C 1535.31 1597.19 1520.31 1587.99 1515.67 1584.77 C 1496.83 1571.53 1478.12 1558.12 1459.52 1544.53 C 1443.24 1554.95 1427.41 1568.76 1411.7 1580.13 C 1392.02 1594.36 1372.31 1608.88 1352.45 1622.81 C 1365.6 1582.39 1378.08 1537.24 1388.97 1496.07 C 1353.98 1469.27 1316.58 1440.42 1282.18 1413.08 C 1325.29 1410.56 1375.06 1407.19 1417.73 1406.85 C 1431.81 1365.81 1446.29 1324.91 1461.17 1284.15 z" fill="rgb(245,84,15)" transform="translate(0,0)"></path>
<path d="M 668.126 391.453 C 674.411 391.299 681.053 391.389 687.371 391.372 C 691.893 423.929 701.555 455.562 715.996 485.088 C 760.512 575.893 827.115 633.141 922.374 665.816 C 901.532 673.374 883.219 680.941 863.479 691.142 C 767.854 739.615 695.997 824.824 664.361 927.258 C 659.434 925.894 652.968 925.591 652.365 920.22 C 644.778 860.031 627.645 811.864 587.013 765.078 C 552.309 725.119 504.517 692.23 452.213 681.589 C 431.481 677.371 411.247 676.39 390.145 675.05 C 390.619 665.385 391.038 656.208 392.04 646.561 C 421.674 645.162 460.101 646.349 490.7 646.33 L 667.242 646.303 C 666.85 561.352 667.145 476.399 668.126 391.453 z" fill="rgb(255,255,255)" transform="translate(0,0)"></path>
<path d="M 809.551 392.014 L 1239.88 392.008 C 1227.77 437.287 1212.13 468.926 1177.82 502.16 C 1147.98 530.207 1117.3 547.643 1077.51 557.431 C 1020.42 571.556 960.047 562.199 909.911 531.457 C 859.274 500.14 823.169 449.973 809.551 392.014 z" fill="rgb(255,255,255)" transform="translate(0,0)"></path>
<path d="M 1362.36 391.922 C 1420.5 393.326 1490.7 414.998 1536.16 451.979 L 1354.98 652.88 C 1332.33 678.028 1309.22 704.915 1286.22 729.392 L 1271.94 744.485 C 1262.63 735.963 1254.64 730.887 1244.68 723.638 C 1206.28 695.685 1168.89 679.663 1124.05 665.454 C 1153.2 658.072 1194.63 636.288 1219.38 618.804 C 1282.43 574.262 1331.01 511.812 1352.65 437.217 C 1357.38 420.923 1359.5 408.515 1362.36 391.922 z" fill="rgb(255,255,255)" transform="translate(0,0)"></path>
<path d="M 798.772 1328.51 C 802.316 1329.81 826.297 1346.33 832.619 1349.9 C 861.97 1366.51 886.682 1375.43 918.109 1386 C 819.446 1419.35 732.694 1499.06 699.683 1599.31 C 693.233 1618.9 690.459 1638.31 687.581 1658.61 L 674.297 1657.86 C 628.324 1653.58 596.221 1646.95 554.726 1625.03 C 564.334 1614.8 576.811 1598.58 585.882 1587.45 L 635.328 1527.24 C 688.979 1461.5 744.203 1393.27 798.772 1328.51 z" fill="rgb(255,255,255)" transform="translate(0,0)"></path>
<path d="M 390.983 797.251 C 425.57 797.596 462.784 806.895 488.029 831.409 C 546.054 887.753 541.76 971.907 489.055 1028.58 C 460.791 1056.44 430.223 1068.72 390.944 1069.26 L 390.983 797.251 z" fill="rgb(255,255,255)" transform="translate(0,0)"></path>
<path d="M 626.416 1045.52 C 634.461 1048.71 642.43 1052.08 650.316 1055.63 C 653.839 1124.99 667.772 1176.95 712.157 1232.07 L 476.5 1232.62 C 449.07 1232.8 418.126 1233.46 390.947 1232.35 L 390.904 1190.74 C 491.906 1188.17 580.174 1136.58 626.416 1045.52 z" fill="rgb(255,255,255)" transform="translate(0,0)"></path>
<path d="M 1655.26 955.187 C 1656.67 955.012 1657.09 955.278 1658.57 955.574 C 1661.92 962.741 1660.2 1218.35 1660.63 1249.49 C 1627.34 1242.49 1609.59 1234.78 1584.19 1211.14 C 1563.21 1190.52 1548.64 1164.27 1542.24 1135.57 C 1533.4 1096.75 1540.58 1056.01 1562.15 1022.56 C 1583.53 989.312 1616.36 963.825 1655.26 955.187 z" fill="rgb(255,255,255)" transform="translate(0,0)"></path>
<path d="M 1334.33 813.993 C 1406.82 813.649 1479.3 813.694 1551.79 814.128 C 1588.01 814.228 1624.63 813.612 1660.79 814.454 L 1660.59 833.698 C 1620.36 837.296 1584.42 850.349 1549.45 869.804 C 1500.21 900.343 1471.96 932.979 1444.62 983.51 C 1431.86 973.115 1411.79 963.923 1396.76 956.927 C 1386.94 904.555 1361.9 858.808 1334.33 813.993 z" fill="rgb(255,255,255)" transform="translate(0,0)"></path>
<path d="M 602.615 1353.51 L 621.198 1353.58 C 602.072 1379.31 578.346 1407.38 557.713 1432.14 C 525.095 1470.88 492.767 1509.86 460.731 1549.09 C 451.66 1539.56 444.586 1529.87 437.048 1519.23 C 401.88 1467.1 390.813 1415.29 390.751 1353.6 L 602.615 1353.51 z" fill="rgb(255,255,255)" transform="translate(0,0)"></path>
<path d="M 992.724 1489.45 L 993.361 1489.99 C 994.454 1495.44 994.196 1531.75 994.214 1538.74 L 994.356 1657.86 C 933.653 1658.1 872.949 1657.99 812.247 1657.54 L 811.133 1656.81 C 808.324 1639.77 833.481 1593.69 843.829 1579.6 C 879.271 1530.7 932.965 1498.19 992.724 1489.45 z" fill="rgb(255,255,255)" transform="translate(0,0)"></path>
<path d="M 1615.71 539.818 C 1621.19 546.157 1627.85 558.603 1631.53 566.232 C 1651.41 607.502 1658.96 646.775 1661.17 692.273 C 1616.98 691.888 1572.78 691.814 1528.59 692.051 C 1512.38 692.109 1496.16 692.083 1479.95 691.975 C 1493.45 673.768 1525.44 640.505 1541.38 622.94 C 1565.57 596.281 1591.27 565.332 1615.71 539.818 z" fill="rgb(255,255,255)" transform="translate(0,0)"></path>
<path d="M 1115.52 1508.36 C 1131.46 1515.75 1145.79 1523.8 1160.2 1533.83 C 1197.73 1559.95 1233.15 1611.85 1240.4 1657.51 C 1198.78 1657.97 1157.15 1658.12 1115.53 1657.94 C 1114.71 1609.24 1115.04 1557.14 1115.52 1508.36 z" fill="rgb(255,255,255)" transform="translate(0,0)"></path>
<path d="M 544.245 432.06 C 546.718 434.24 545.884 516.379 545.8 526.543 C 514.287 527.76 477.663 527.198 445.982 526.941 C 443.109 526.172 444.617 525.026 445.919 523.015 C 470.766 484.647 504.541 454.451 544.245 432.06 z" fill="rgb(255,255,255)" transform="translate(0,0)"></path>
<metadata><recraft-signature>{"signed_by": "recraft", "signature_b64": "WMZ3QgXMnvKv2RdjYryIEr7VF7eYShNEqB+k50oPAwfxAHdnYR66ONV6t298PSXDNOi8RUtbDwxgX0ooYjSkCA==", "signing_algo": "Ed25519", "generation_timestamp": 1772807378, "identifier": "4b3984cd-544b-4fc8-b62a-48ff7d354924"}</recraft-signature></metadata></svg>