<svg xmlns="http://www.w3.org/2000/svg" height="1024" preserveAspectRatio="none" style="display: block;" version="1.1" viewBox="0 0 2048 2048" width="1024">
<path d="M 0 0 L 2048 0 L 2048 2048 L 0 2048 L 0 0 z" fill="rgb(255,255,255)" transform="translate(0,0)"></path>
<path d="M 838.653 568.4 C 839.07 548.491 837.019 488.71 840.957 473.491 C 843.445 463.799 848.375 454.906 855.278 447.66 C 868.878 433.555 883.09 429.104 902.237 429.072 C 956.727 428.978 1011.31 429.241 1065.79 429.188 L 1118.23 429.109 C 1127.65 429.094 1137.01 429.061 1146.48 429.409 C 1169.7 430.261 1193.01 450.278 1198.21 472.816 C 1201.5 487.112 1200.37 505.214 1200.32 520.096 C 1200.24 536.301 1200.26 552.507 1200.4 568.712 C 1219.43 568.965 1239.09 568.624 1258.17 568.538 C 1258.29 541.193 1257.77 513.816 1258.3 486.468 C 1258.56 472.747 1264.2 456.568 1274.37 447.111 C 1291.86 430.832 1307.14 429.858 1329.71 429.699 L 1488.91 429.854 C 1503.52 429.892 1554.85 429.211 1566.33 431.442 C 1577.36 433.574 1587.5 438.978 1595.41 446.951 C 1610.37 461.96 1612.9 475.888 1612.97 496.115 L 1613.02 662.384 C 1613.04 706.946 1624.25 781.723 1567 790.172 C 1541.42 793.947 1496.51 792.043 1469.4 792.008 C 1469.2 810.798 1469.23 829.591 1469.49 848.38 C 1496.38 848.29 1523.48 848.027 1550.34 848.52 C 1596.06 849.358 1611.77 875.305 1611.86 916.984 C 1611.97 941.368 1611.78 965.751 1611.3 990.13 L 1538.73 990.079 L 1469.88 990.074 C 1458.5 990.047 1433.13 989.231 1422.92 991.743 C 1416.8 993.284 1411.21 996.436 1406.73 1000.87 C 1384 1023.08 1396.6 1060.62 1427.86 1065.36 C 1441.47 1067.42 1454.99 1066.59 1468.71 1066.62 L 1538.21 1066.9 L 1611.18 1066.92 L 1611.3 1129.26 C 1611.34 1140.46 1612.14 1161.28 1609.69 1171.66 C 1607.59 1180.44 1603.17 1188.5 1596.88 1194.98 C 1583.43 1208.84 1568.7 1210.5 1550.86 1210.58 C 1525.09 1210.7 1498.42 1209.61 1472.77 1210.38 C 1472.44 1224.18 1471.58 1242.78 1472.57 1256.11 C 1532.61 1269.2 1573.01 1298.83 1601.17 1353.65 C 1614.71 1380.03 1619.33 1400.59 1622 1429.87 C 1622.31 1489.7 1611.49 1531.35 1567.97 1575.38 C 1476.54 1667.9 1312.52 1639.78 1262.26 1518.19 C 1260.2 1513.19 1253.02 1488.85 1251.12 1487.46 C 1234.26 1488.11 1215.2 1487.77 1198.17 1487.84 C 1198.11 1504.97 1198.15 1522.11 1198.28 1539.24 C 1198.41 1566.88 1201.79 1591.75 1181.04 1613.6 C 1171.99 1623.13 1157.32 1630.1 1144.09 1630.1 C 1085.14 1630.06 1027.11 1630.19 968.03 1630 C 940.068 1629.91 906.071 1630.97 878.107 1628.68 C 870.117 1626.19 863.085 1620.27 857.048 1614.68 C 849.526 1607.73 841.78 1596.49 839.756 1586.27 C 837.029 1572.49 838.478 1556.19 838.583 1541.9 C 838.781 1523.9 838.727 1505.9 838.424 1487.9 L 776.937 1487.42 L 777.046 1542.35 C 777.073 1554.96 778.081 1576.44 774.99 1587.99 C 772.344 1597.9 767.09 1606.91 759.774 1614.1 C 753.932 1619.84 741.449 1627.73 733.503 1628.49 C 707.125 1630.99 676.35 1629.78 649.657 1629.8 L 469.633 1630.05 C 462.443 1622.89 452.837 1617.54 445.616 1610.18 C 425.903 1590.06 429.985 1559.07 430.256 1533.27 L 431.069 1463.52 C 428.722 1449.76 428.989 1321.75 431.641 1310.01 C 433.875 1299.98 438.845 1290.77 445.998 1283.4 C 466.608 1262.28 491.221 1265.19 518.202 1265.3 C 534.122 1265.43 550.043 1265.43 565.963 1265.28 L 566.031 1209.63 C 530.882 1208.1 474.877 1218.23 447.812 1193.26 C 432.282 1178.94 428.377 1160.66 428.45 1140.06 C 428.731 1060.66 426.936 980.895 428.907 901.542 C 429.565 882.379 449.639 856.871 468.476 852.452 C 497.966 845.535 540.729 848.281 571.422 848.3 C 571.629 829.719 571.276 810.487 571.181 791.857 C 550.065 791.684 491.052 793.808 474.689 789.279 C 464.408 786.361 455.033 780.891 447.433 773.377 C 433.954 760.186 429.977 747.049 429.993 728.482 C 430.063 648.636 429.881 568.787 430.068 488.94 C 430.081 483.241 430.318 475.879 431.4 470.192 C 433.061 461.469 438.965 451.818 445.208 445.477 C 457.829 433.121 473.061 429.595 490.072 430.003 C 545.483 429.796 601.202 429.539 656.574 429.548 C 670.54 429.551 722.288 428.385 733.499 430.301 C 744.672 432.215 754.981 437.538 763.01 445.541 C 770.078 452.865 775.021 461.974 777.311 471.891 C 779.897 482.783 779.082 503.029 779.03 514.926 L 778.943 568.516 C 798.211 568.927 819.251 568.459 838.653 568.4 z" fill="rgb(35,20,89)" transform="translate(0,0)"></path>
<path d="M 1400.21 1256.54 C 1424.91 1253.24 1447.77 1251.63 1472.57 1256.11 C 1532.61 1269.2 1573.01 1298.83 1601.17 1353.65 C 1614.71 1380.03 1619.33 1400.59 1622 1429.87 C 1622.31 1489.7 1611.49 1531.35 1567.97 1575.38 C 1476.54 1667.9 1312.52 1639.78 1262.26 1518.19 C 1260.2 1513.19 1253.02 1488.85 1251.12 1487.46 C 1253.06 1485.29 1250.41 1476.25 1249.89 1472.73 C 1246.54 1450.12 1247.91 1432.19 1250.63 1409.88 C 1253.64 1387.24 1265.8 1357.09 1278.63 1338.27 C 1308.93 1293.8 1348.21 1267.49 1400.21 1256.54 z" fill="rgb(251,134,39)" transform="translate(0,0)"></path>
<path d="M 1542.45 1430.14 C 1547.86 1476.29 1523.4 1520.78 1481.54 1540.94 C 1439.67 1561.09 1389.64 1552.47 1356.94 1519.46 C 1324.24 1486.46 1316.08 1436.34 1336.62 1394.67 C 1357.17 1353 1401.89 1328.95 1447.98 1334.79 C 1497.65 1341.08 1536.62 1380.42 1542.45 1430.14 z" fill="rgb(255,255,255)" transform="translate(0,0)"></path>
<path d="M 1472.57 1256.11 C 1532.61 1269.2 1573.01 1298.83 1601.17 1353.65 C 1614.71 1380.03 1619.33 1400.59 1622 1429.87 C 1595.49 1429.34 1568.96 1429.43 1542.45 1430.14 C 1536.62 1380.42 1497.65 1341.08 1447.98 1334.79 C 1480.66 1310.3 1473.47 1293.16 1472.57 1256.11 z" fill="rgb(251,196,23)" transform="translate(0,0)"></path>
<path d="M 1469.49 848.38 C 1496.38 848.29 1523.48 848.027 1550.34 848.52 C 1596.06 849.358 1611.77 875.305 1611.86 916.984 C 1611.97 941.368 1611.78 965.751 1611.3 990.13 L 1538.73 990.079 L 1469.88 990.074 C 1458.5 990.047 1433.13 989.231 1422.92 991.743 C 1416.8 993.284 1411.21 996.436 1406.73 1000.87 C 1384 1023.08 1396.6 1060.62 1427.86 1065.36 C 1441.47 1067.42 1454.99 1066.59 1468.71 1066.62 L 1538.21 1066.9 L 1611.18 1066.92 L 1611.3 1129.26 C 1611.34 1140.46 1612.14 1161.28 1609.69 1171.66 C 1607.59 1180.44 1603.17 1188.5 1596.88 1194.98 C 1583.43 1208.84 1568.7 1210.5 1550.86 1210.58 C 1525.09 1210.7 1498.42 1209.61 1472.77 1210.38 C 1472.44 1224.18 1471.58 1242.78 1472.57 1256.11 C 1447.77 1251.63 1424.91 1253.24 1400.21 1256.54 L 1400.15 1210.93 C 1373.06 1210.56 1345.64 1211.31 1318.52 1211.25 C 1300.56 1211.21 1286.62 1209.09 1273.24 1195.16 C 1266.87 1188.57 1262.38 1180.39 1260.24 1171.47 C 1257.35 1159.74 1258.14 1137.59 1258.16 1124.81 L 1258.26 1066.89 C 1271.09 1066.83 1284.16 1067.24 1297 1067.17 C 1317.31 1067.06 1326.56 1061.34 1335.09 1043.32 C 1336.2 1006.51 1335.11 962.937 1335.06 925.631 C 1368.07 924.638 1401.47 925.797 1434.52 925.203 C 1441.94 925.069 1449.22 925.432 1456.6 924.417 C 1469.79 915.607 1469.93 906.291 1469.83 891.171 C 1469.73 876.931 1469.57 862.623 1469.49 848.38 z" fill="rgb(255,255,255)" transform="translate(0,0)"></path>
<path d="M 1335.09 1043.32 C 1335.83 1072.51 1335.07 1103.54 1335.05 1132.95 L 1538.09 1132.96 C 1539.05 1112.05 1538.44 1088.05 1538.21 1066.9 L 1611.18 1066.92 L 1611.3 1129.26 C 1611.34 1140.46 1612.14 1161.28 1609.69 1171.66 C 1607.59 1180.44 1603.17 1188.5 1596.88 1194.98 C 1583.43 1208.84 1568.7 1210.5 1550.86 1210.58 C 1525.09 1210.7 1498.42 1209.61 1472.77 1210.38 C 1472.44 1224.18 1471.58 1242.78 1472.57 1256.11 C 1447.77 1251.63 1424.91 1253.24 1400.21 1256.54 L 1400.15 1210.93 C 1373.06 1210.56 1345.64 1211.31 1318.52 1211.25 C 1300.56 1211.21 1286.62 1209.09 1273.24 1195.16 C 1266.87 1188.57 1262.38 1180.39 1260.24 1171.47 C 1257.35 1159.74 1258.14 1137.59 1258.16 1124.81 L 1258.26 1066.89 C 1271.09 1066.83 1284.16 1067.24 1297 1067.17 C 1317.31 1067.06 1326.56 1061.34 1335.09 1043.32 z" fill="rgb(251,196,23)" transform="translate(0,0)"></path>
<path d="M 1469.49 848.38 C 1496.38 848.29 1523.48 848.027 1550.34 848.52 C 1596.06 849.358 1611.77 875.305 1611.86 916.984 C 1611.97 941.368 1611.78 965.751 1611.3 990.13 L 1538.73 990.079 L 1538.86 925.08 C 1519.53 924.917 1473.64 926.391 1456.6 924.417 C 1469.79 915.607 1469.93 906.291 1469.83 891.171 C 1469.73 876.931 1469.57 862.623 1469.49 848.38 z" fill="rgb(251,196,23)" transform="translate(0,0)"></path>
<path d="M 1200.12 1066.81 C 1219.5 1066.36 1238.88 1066.39 1258.26 1066.89 L 1258.16 1124.81 C 1258.14 1137.59 1257.35 1159.74 1260.24 1171.47 C 1262.38 1180.39 1266.87 1188.57 1273.24 1195.16 C 1286.62 1209.09 1300.56 1211.21 1318.52 1211.25 C 1345.64 1211.31 1373.06 1210.56 1400.15 1210.93 L 1400.21 1256.54 C 1348.21 1267.49 1308.93 1293.8 1278.63 1338.27 C 1265.8 1357.09 1253.64 1387.24 1250.63 1409.88 L 1198.03 1409.23 L 1197.92 1350.57 C 1197.85 1326.92 1200.84 1300.64 1182.46 1282.4 C 1163.07 1263.17 1136.53 1266.05 1111.59 1266.01 L 1051.55 1265.91 C 1050.83 1248.13 1051.24 1228.82 1051.3 1210.92 C 1072.76 1210.35 1142.2 1212.43 1158.03 1208.11 C 1167.87 1205.36 1176.82 1200.08 1183.99 1192.8 C 1190.74 1186.07 1195.61 1177.67 1198.09 1168.46 C 1202.01 1154.01 1200.22 1084.62 1200.12 1066.81 z" fill="rgb(255,255,255)" transform="translate(0,0)"></path>
<path d="M 504.362 1460.53 C 506.363 1488.14 503.003 1523.04 504.934 1553.11 L 705.321 1553.09 C 705.485 1531.09 705.459 1509.1 705.242 1487.11 L 776.937 1487.42 L 777.046 1542.35 C 777.073 1554.96 778.081 1576.44 774.99 1587.99 C 772.344 1597.9 767.09 1606.91 759.774 1614.1 C 753.932 1619.84 741.449 1627.73 733.503 1628.49 C 707.125 1630.99 676.35 1629.78 649.657 1629.8 L 469.633 1630.05 C 462.443 1622.89 452.837 1617.54 445.616 1610.18 C 425.903 1590.06 429.985 1559.07 430.256 1533.27 L 431.069 1463.52 C 446.534 1498.67 488.904 1495.81 504.362 1460.53 z" fill="rgb(251,196,23)" transform="translate(0,0)"></path>
<path d="M 506.145 1341.68 C 563.879 1340.1 622.371 1342.34 680.194 1341.4 C 688.412 1341.27 696.842 1341.29 705.069 1341.39 L 704.953 1405 L 646.16 1404.84 C 635.069 1404.81 614.092 1403.95 604.156 1406.34 C 596.57 1408.16 589.62 1412 584.051 1417.46 C 568.291 1433 567.748 1459.57 584.132 1474.91 C 589.593 1479.99 596.293 1483.54 603.559 1485.2 C 622.897 1489.8 682.006 1486.63 705.242 1487.11 C 705.459 1509.1 705.485 1531.09 705.321 1553.09 L 504.934 1553.11 C 503.003 1523.04 506.363 1488.14 504.362 1460.53 C 506.714 1447.88 506.03 1429.13 506.026 1415.67 C 505.89 1391.01 505.93 1366.35 506.145 1341.68 z" fill="rgb(255,255,255)" transform="translate(0,0)"></path>
<path d="M 705.306 646.401 C 726.997 645.82 757.342 645.646 778.91 646.619 L 838.618 646.666 L 838.808 701.104 C 838.916 735.903 837.183 778.897 880.007 787.881 C 905.596 793.25 949.087 790.952 975.928 790.966 L 976.064 848.881 L 921.046 848.739 C 898.786 848.707 874.239 845.952 857.045 863.04 C 850.436 869.608 843.618 878.549 840.991 887.805 C 837.761 903.441 838.711 927.077 838.647 943.281 L 838.344 1013 L 838.815 1114.21 C 838.887 1141.4 833.855 1172.42 854.275 1192.72 C 874.85 1213.17 900.677 1209.94 927.093 1209.88 L 974.385 1209.87 L 974.394 1265.41 L 928.897 1265.39 C 901.619 1265.42 878.053 1262.98 857.279 1283.86 C 836.043 1305.2 838.778 1328.11 838.782 1355.72 L 838.816 1404.95 L 778.254 1404.89 L 778.16 1356.87 C 778.181 1329.47 781.427 1302.98 760.588 1281.85 C 753.909 1275.15 745.586 1270.32 736.453 1267.85 C 721.412 1263.66 664.707 1265.23 645.98 1264.99 L 646.04 1209.71 L 688.622 1209.8 C 714.14 1209.91 738.729 1212.86 758.997 1193.38 C 783.861 1169.49 776.83 1138.36 778.075 1107.36 C 778.409 1099.02 778.155 1090.09 778.191 1081.61 C 778.593 1025.55 778.565 969.485 778.107 913.423 C 777.791 894.159 774.255 879.839 760.11 865.766 C 740.063 845.821 716.234 848.347 690.231 848.426 C 675.32 848.526 660.408 848.523 645.496 848.418 L 645.531 791.991 C 645.159 766.401 645.592 739.825 645.67 714.163 L 645.752 646.453 C 665.594 646.099 685.49 646.558 705.306 646.401 z" fill="rgb(255,255,255)" transform="translate(0,0)"></path>
<path d="M 705.306 646.401 C 726.997 645.82 757.342 645.646 778.91 646.619 L 778.775 698.654 C 778.7 727.367 782.48 754.032 760.188 776.31 C 754.493 782.002 744.376 788.22 736.614 789.534 C 708.82 794.241 674.078 791.644 645.531 791.991 C 645.159 766.401 645.592 739.825 645.67 714.163 L 645.752 646.453 C 665.594 646.099 685.49 646.558 705.306 646.401 z" fill="rgb(251,196,23)" transform="translate(0,0)"></path>
<path d="M 645.752 646.453 C 665.594 646.099 685.49 646.558 705.306 646.401 C 706.438 662.724 705.875 697.134 705.452 714.083 C 685.525 714.224 665.597 714.25 645.67 714.163 L 645.752 646.453 z" fill="rgb(255,255,255)" transform="translate(0,0)"></path>
<path d="M 1200.85 646.902 C 1219.55 646.513 1239.44 646.895 1258.23 646.932 C 1258.17 665.645 1257.15 734.454 1260.7 748.47 C 1263.28 758.62 1268.5 767.906 1275.84 775.383 C 1281.14 780.745 1292.03 788.096 1299.16 789.243 C 1327.16 793.749 1366.3 791.795 1394.99 791.673 L 1394.86 848.916 C 1385.22 848.891 1368.36 849.618 1359.33 848.837 C 1240.94 838.587 1258.03 899.09 1258.11 990.065 L 1247.25 990.123 L 1200.08 990.123 C 1199.76 968.674 1202.77 908.533 1198.36 890.834 C 1196.04 881.632 1191.37 873.187 1184.82 866.324 C 1177.55 858.667 1168.23 853.26 1157.97 850.747 C 1146.43 847.881 1125.55 848.728 1112.72 848.723 C 1092.26 848.849 1071.8 848.75 1051.34 848.426 C 1050.77 830.052 1051.1 810.298 1051.09 791.823 L 1107.75 791.818 C 1132.98 791.78 1163.17 794.587 1182.73 775.119 C 1203.72 754.222 1200.66 724.983 1200.75 697.781 L 1200.85 646.902 z" fill="rgb(255,255,255)" transform="translate(0,0)"></path>
<path d="M 599.739 930.451 C 652.813 927.783 698.006 968.636 700.69 1021.71 C 703.375 1074.78 662.536 1119.99 609.464 1122.69 C 556.368 1125.39 511.139 1084.53 508.453 1031.43 C 505.767 978.337 546.642 933.121 599.739 930.451 z" fill="rgb(251,134,39)" transform="translate(0,0)"></path>
<path d="M 1009.95 513.773 C 1062 508.489 1108.5 546.347 1113.88 598.386 C 1119.25 650.425 1081.48 696.993 1029.45 702.465 C 977.289 707.95 930.577 670.059 925.185 617.887 C 919.793 565.714 957.769 519.071 1009.95 513.773 z" fill="rgb(251,196,23)" transform="translate(0,0)"></path>
<path d="M 918.614 1345.82 L 974.641 1345.77 C 975.808 1407.22 1010.62 1459.03 1069.29 1480.53 C 1085.69 1486.53 1102.7 1487.33 1119.95 1488.05 L 1119.98 1552.87 L 918.462 1552.71 C 916.694 1485.83 918.558 1413.25 918.614 1345.82 z" fill="rgb(255,255,255)" transform="translate(0,0)"></path>
<path d="M 506.239 508.193 C 571.184 506.886 639.808 508.071 705.117 508.026 L 705.054 568.983 C 678.212 568.861 649.362 568.294 622.601 569.21 C 606.776 569.751 592.98 579.58 582.991 591.657 C 568.438 612.415 571.433 632.565 571.53 656.537 L 571.525 713.732 L 506.646 713.752 C 506.127 645.233 505.991 576.713 506.239 508.193 z" fill="rgb(255,255,255)" transform="translate(0,0)"></path>
<path d="M 1335.03 508.176 C 1400.32 507.204 1467.52 508.035 1532.95 508.059 L 1533 713.877 L 1470.3 713.851 C 1470.19 695.915 1471.73 625.945 1468.04 611.572 C 1465.41 601.085 1459.99 591.504 1452.36 583.842 C 1446.4 577.908 1439.02 573.599 1430.92 571.326 C 1416.56 567.378 1352.79 568.986 1335.01 569.024 L 1335.03 508.176 z" fill="rgb(255,255,255)" transform="translate(0,0)"></path>
<path d="M 919.038 1066.47 C 943.151 1065.57 969.905 1066.16 994.246 1066.17 C 1036.5 1066.03 1078.75 1066.28 1120.99 1066.9 L 1120.92 1132.86 L 918.966 1132.53 C 918.79 1110.51 918.814 1088.49 919.038 1066.47 z" fill="rgb(255,255,255)" transform="translate(0,0)"></path>
<path d="M 918.9 925.008 C 985.273 924.112 1054.4 925.312 1121.01 925.414 L 1120.84 989.87 L 918.916 990.193 L 918.9 925.008 z" fill="rgb(255,255,255)" transform="translate(0,0)"></path>
<path d="M 1335.24 646.417 C 1354.41 645.882 1375.47 646.199 1394.82 646.231 C 1394.92 667.545 1395.42 692.928 1394.5 713.996 L 1335.19 714.036 C 1335.02 692.565 1334.64 667.729 1335.24 646.417 z" fill="rgb(255,255,255)" transform="translate(0,0)"></path>
<path d="M 1050.91 1343.9 C 1072.72 1343.51 1097.45 1343.8 1119.4 1344.19 C 1119.42 1367.55 1119.82 1392 1119.31 1415.26 C 1081.29 1412.58 1051.9 1382.26 1050.91 1343.9 z" fill="rgb(255,255,255)" transform="translate(0,0)"></path>
<path d="M 475.721 290.437 C 490.199 289.153 521.756 290.043 537.566 290.05 L 656.418 290.058 L 1031.99 290.046 L 1395.67 290.122 L 1509.26 290.132 C 1532.05 290.143 1556.23 289.295 1578.82 291.418 C 1661.2 299.5 1735.13 360.923 1752.51 442.786 C 1757.12 465.641 1758.08 489.864 1757.21 513.29 C 1756.33 536.934 1759.55 566.167 1756.38 589.293 C 1751.14 627.419 1691.58 631.757 1683.22 591.958 C 1680.85 580.669 1681.54 569.617 1681.45 558.118 C 1680.72 485.117 1692.51 434.993 1625.05 387.252 C 1610.6 379.088 1587.39 369.861 1570.77 369.285 C 1542.55 368.306 1513.29 368.577 1484.98 368.479 L 1319.81 368.328 L 862.302 368.548 L 591.292 368.236 L 515.694 368.556 C 502.118 368.638 482.075 368.214 469.146 369.826 C 417.444 376.674 375.63 415.288 364.696 466.282 C 359.975 489.235 367.071 510.568 353.688 527.316 C 347.112 535.546 337.09 541.259 326.496 542.159 C 316.303 542.985 306.207 539.668 298.49 532.957 C 289.269 524.984 284.548 513.884 283.89 501.872 C 280.97 448.494 296.3 399.226 332.052 359.076 C 371.005 315.332 417.889 294.073 475.721 290.437 z" fill="rgb(35,20,89)" transform="translate(0,0)"></path>
<path d="M 1682.02 990.284 C 1682.09 969.549 1682.05 948.814 1681.91 928.08 C 1681.82 908.726 1678.27 883.374 1692.56 868.563 C 1699.86 860.958 1709.98 856.699 1720.52 856.79 C 1736.84 856.934 1755.32 870.98 1756.55 887.733 C 1757.42 899.676 1757.15 912.526 1757.18 924.554 L 1757.29 987.507 L 1757.29 1189.46 L 1757.58 1441.71 L 1757.41 1523.85 C 1757.37 1541.37 1757.52 1558.76 1756.77 1576.27 C 1752.84 1667.22 1683.92 1746.98 1593.88 1762.52 C 1566.36 1767.27 1538.95 1765.86 1511.13 1765.78 L 1409.5 1765.75 L 1238.79 1765.8 C 1210.77 1765.79 1182.36 1766.32 1154.34 1765.69 C 1132.97 1765.21 1116 1745.44 1117.98 1723.68 C 1118.98 1712.92 1124.23 1703 1132.58 1696.13 C 1146.32 1684.77 1163.35 1687.14 1180.1 1687.13 L 1230.96 1687.12 L 1460.07 1687.16 L 1528.83 1687.22 C 1541.64 1687.23 1557.58 1687.69 1569.99 1686.61 C 1581.32 1685.59 1592.46 1683.02 1603.09 1678.97 C 1644.82 1663.05 1674.24 1625.24 1679.43 1580.87 C 1681.41 1564.36 1680.57 1535.39 1680.46 1518.09 L 1680.21 1422.16 L 1680.29 1066.91 L 1611.18 1066.92 L 1538.21 1066.9 L 1468.71 1066.62 C 1454.99 1066.59 1441.47 1067.42 1427.86 1065.36 C 1396.6 1060.62 1384 1023.08 1406.73 1000.87 C 1411.21 996.436 1416.8 993.284 1422.92 991.743 C 1433.13 989.231 1458.5 990.047 1469.88 990.074 L 1538.73 990.079 L 1611.3 990.13 C 1634.31 990.223 1659.16 990.767 1682.02 990.284 z" fill="rgb(35,20,89)" transform="translate(0,0)"></path>
<path d="M 315.733 737.164 C 370.045 732.033 361.925 782.546 361.849 818.658 L 361.924 913 L 361.96 1359.26 L 361.876 1498.26 C 361.826 1533.19 357.85 1580.83 371.013 1612.83 C 384.363 1645.58 411.437 1670.8 445.047 1681.81 C 468.217 1689.48 500.934 1687.28 525.923 1687.25 L 606.709 1687.16 L 811.047 1687.15 C 829.955 1687.1 878.793 1684.67 894.426 1691.63 C 904.144 1696.05 911.604 1704.28 915.037 1714.39 C 923.324 1738.47 909.162 1757.73 886.168 1764.77 C 876.729 1766.69 845.77 1765.99 834.983 1765.99 L 733.6 1765.94 L 560.543 1765.85 C 527.779 1765.83 494.204 1766.72 461.592 1764.27 C 386.031 1758.6 316.849 1700.89 293.939 1629.35 C 288.498 1612.1 285.328 1594.21 284.509 1576.14 C 282.791 1540.75 284.103 1492.9 284.05 1456.66 L 283.939 1214.69 L 284.127 911.29 L 284.204 826.692 C 284.127 810.47 283.901 794.194 283.978 777.97 C 284.084 755.477 294.365 743.679 315.733 737.164 z" fill="rgb(35,20,89)" transform="translate(0,0)"></path>
<path d="M 1713.21 675.293 C 1744.79 671.857 1773.14 694.79 1776.37 726.395 C 1779.6 758 1756.49 786.195 1724.86 789.225 C 1693.53 792.227 1665.64 769.368 1662.44 738.049 C 1659.23 706.73 1681.91 678.698 1713.21 675.293 z" fill="rgb(35,20,89)" transform="translate(0,0)"></path>
<path d="M 1011.37 1687.59 C 1032.87 1684.14 1053.12 1698.69 1056.72 1720.17 C 1060.32 1741.64 1045.91 1762 1024.46 1765.74 C 1002.79 1769.53 982.195 1754.95 978.562 1733.26 C 974.93 1711.57 989.653 1691.07 1011.37 1687.59 z" fill="rgb(35,20,89)" transform="translate(0,0)"></path>
<path d="M 316.787 602.047 C 336.898 598.076 356.435 611.109 360.493 631.203 C 364.551 651.296 351.603 670.89 331.528 675.036 C 311.328 679.207 291.587 666.162 287.504 645.944 C 283.421 625.727 296.552 606.042 316.787 602.047 z" fill="rgb(251,134,39)" transform="translate(0,0)"></path>
<metadata><recraft-signature>{"signed_by": "recraft", "signature_b64": "lz9md5QCfsbqicaI9FU7eCVASHr4TOM9ybsAQVuiTCa9w737iuy9ERCGLmEGv4KvOJBTqth1BKAE/dQCqD6CBA==", "signing_algo": "Ed25519", "generation_timestamp": 1772807331, "identifier": "be60fa7b-7aa2-4726-809a-d451b5026fbd"}</recraft-signature></metadata></svg>