<svg xmlns="http://www.w3.org/2000/svg" height="1024" preserveAspectRatio="none" style="display: block;" version="1.1" viewBox="0 0 2048 2048" width="1024">
<path d="M 0 0 L 2048 0 L 2048 2048 L 0 2048 L 0 0 z" fill="rgb(255,255,255)" transform="translate(0,0)"></path>
<path d="M 875.432 738.5 C 893.737 738.219 912.043 738.06 930.349 738.022 L 1092.68 738.965 L 1168.82 738.824 C 1187.16 738.788 1207.25 738.266 1225.35 740.168 C 1285.39 746.503 1341.36 773.489 1383.71 816.513 C 1424.89 858.057 1450.58 912.475 1456.47 970.676 C 1459.18 998.117 1458.22 1035.66 1458.23 1063.93 L 1458.07 1196.15 C 1426.43 1165.72 1381.36 1149.26 1338.86 1141.65 L 1338.89 1051.47 C 1338.89 1023.43 1340.61 987.733 1333.83 961.326 C 1328.09 938.755 1316.7 918.016 1300.73 901.061 C 1273.94 872.247 1237.56 857.363 1198.62 856.961 C 1119.6 856.145 1040.3 856.103 961.29 856.168 L 888.171 856.278 C 869.698 856.331 841.364 855.907 824.021 859.621 C 798.268 865.249 774.525 877.762 755.324 895.824 C 725.472 924.442 711.368 962.248 711.397 1003.27 C 711.216 1050.06 711.323 1096.91 711.442 1143.7 C 711.494 1163.8 711.464 1182.27 727.122 1197.6 C 739.477 1209.7 750.288 1211.09 766.434 1210.97 L 766.656 1069.72 C 766.638 1053.18 766.1 1036.62 765.998 1020.09 C 765.872 999.666 771.487 989.808 785.57 976.041 C 790.683 971.85 795.021 968.957 801.048 966.348 C 816.624 959.624 834.24 959.394 849.986 965.709 C 892.052 982.41 888.904 1023.4 887.902 1060.54 C 887.463 1076.8 887.7 1093.61 887.69 1109.89 L 887.93 1373.87 L 887.541 1470.86 C 887.531 1489.17 886.727 1508.53 888.405 1526.69 C 893.834 1585.47 925.998 1622.55 979.136 1643.05 C 981.94 1694.98 991.332 1723.28 1027.78 1760.43 C 1025.2 1760.48 1022.61 1760.5 1020.02 1760.51 C 953.562 1760.62 889.003 1736.62 841.778 1689.23 C 800.103 1646.85 774.593 1591.21 769.681 1531.98 C 767.858 1510.43 768.807 1476.38 768.8 1454.1 L 768.92 1328.98 C 665.077 1330.09 594.01 1256.98 593.128 1153.94 L 593.003 1047.81 C 592.983 1023.96 592.078 993.963 594.325 970.704 C 599.903 913.74 624.732 860.379 664.715 819.422 C 707.085 776.22 762.713 748.468 822.711 740.6 C 840.21 738.434 857.802 738.664 875.432 738.5 z" fill="rgb(41,41,129)" transform="translate(0,0)"></path>
<path d="M 1304.48 1188.43 C 1388.31 1186.89 1461.82 1244.44 1478.74 1327.54 C 1479.66 1332.09 1480.36 1336.77 1481.1 1341.36 C 1510.87 1342.52 1538.04 1348.15 1559.85 1370.01 C 1588.63 1398.87 1590.68 1427.55 1590.9 1465.35 L 1590.93 1575.92 C 1590.89 1632.35 1599.58 1684.91 1555.76 1727.38 C 1515.54 1766.37 1467.23 1760.24 1416.34 1760.17 L 1313.75 1760.12 L 1205.71 1760.07 C 1178.83 1760.12 1136.37 1762.09 1111.62 1755.55 C 1092.97 1750.5 1075.96 1740.65 1062.3 1726.97 C 1037.96 1702.96 1028.2 1675.25 1027.92 1641.53 L 1027.56 1509.61 C 1027.42 1483.8 1024.64 1445.14 1029.89 1420.73 C 1041.08 1368.66 1084.97 1342 1134.76 1342.03 C 1139.7 1284.88 1178.58 1230.58 1230.05 1206.3 C 1255.82 1194.15 1276.46 1189.87 1304.48 1188.43 z" fill="rgb(41,41,129)" transform="translate(0,0)"></path>
<path d="M 1147.07 1463.29 C 1218.15 1462.39 1289.68 1464.81 1360.84 1463.63 C 1397.4 1463.03 1434.87 1462.76 1471.4 1463.55 L 1471.28 1577.68 C 1471.27 1595.75 1472.43 1624.35 1471 1641.36 L 1146.99 1641.51 C 1146.35 1582.1 1146.38 1522.69 1147.07 1463.29 z" fill="rgb(255,255,255)" transform="translate(0,0)"></path>
<path d="M 1298.1 1303.27 C 1330.86 1299.58 1351.54 1311.53 1366.07 1341.06 L 1319.5 1341.1 L 1250.73 1340.96 C 1258.55 1318.1 1275.54 1307.53 1298.1 1303.27 z" fill="rgb(255,255,255)" transform="translate(0,0)"></path>
<path d="M 605.134 289.412 C 613.993 288.573 628.559 288.894 637.71 288.91 L 692.731 289.012 L 870.273 289.028 C 827.273 318.097 793.99 359.404 774.731 407.603 C 737.36 408.473 698.6 406.995 661.095 407.723 C 642.344 408.087 621.349 407.172 602.798 408.848 C 552.117 413.422 504.677 435.741 468.843 471.871 C 423.401 516.825 404.942 571.72 404.445 634.435 L 404.592 1193.1 L 404.676 1346.56 C 404.69 1386.46 402.369 1431.4 410.312 1470.21 C 428.552 1559.31 509.78 1631.76 600.427 1639.74 C 621.06 1641.56 642.397 1640.97 663.233 1641 L 749.649 1641.08 C 759.06 1659.06 765.403 1670.66 776.753 1687.49 C 798.769 1717.28 821.699 1738.65 852.446 1759.36 C 785.879 1761.31 718.553 1759.2 651.938 1760.14 C 633.973 1760.39 615.067 1760.38 597.171 1758.98 C 526.835 1753.49 460.063 1725.79 406.486 1679.89 C 336.066 1620.25 292.72 1534.69 286.282 1442.63 C 284.645 1419.94 285.064 1396.21 285.02 1373.39 L 284.867 1273.64 L 284.789 954.994 L 284.839 720.955 C 284.859 676.158 282.435 609.156 290.224 567.213 C 301.478 508.818 327.761 454.365 366.481 409.227 C 429.1 337.145 509.799 296.086 605.134 289.412 z" fill="rgb(41,41,129)" transform="translate(0,0)"></path>
<path d="M 1184.52 288.696 C 1259.15 290.194 1334.38 288.122 1409.05 288.906 C 1423.98 289.063 1438.51 288.649 1453.47 289.719 C 1512.73 294.421 1569.65 314.915 1618.31 349.068 C 1694.47 402.785 1745.93 484.789 1761.17 576.738 C 1766.14 605.504 1765.28 630.124 1765.26 659.011 L 1765.19 742.158 L 1765.13 1039.82 L 1765.23 1314.71 L 1765.19 1391.22 C 1765.16 1420.44 1766.01 1441.55 1761.32 1470.6 C 1751.67 1530.48 1731.16 1576.63 1696.17 1625.9 C 1678.23 1649.55 1659.84 1669.75 1636.32 1688.08 C 1645.98 1623.1 1638.52 1550.33 1641.22 1484.15 C 1641.79 1469.97 1646.5 1453.86 1646.66 1439.5 C 1647.08 1403.62 1646.91 1367.55 1646.9 1331.67 L 1646.85 1133.08 L 1647.04 629.982 C 1647.01 569.497 1622.61 511.578 1579.34 469.308 C 1543.37 434.114 1491.49 411.366 1441.51 408.383 C 1422.07 407.222 1397.77 407.783 1377.84 407.726 C 1343.97 407.555 1310.09 407.591 1276.22 407.832 C 1251.78 351.481 1230.85 327.732 1184.52 288.696 z" fill="rgb(41,41,129)" transform="translate(0,0)"></path>
<path d="M 1016 287.961 C 1135.72 283.496 1236.42 376.885 1240.97 496.606 C 1245.52 616.328 1152.21 717.092 1032.49 721.727 C 912.65 726.368 811.762 632.935 807.207 513.094 C 802.652 393.253 896.156 292.432 1016 287.961 z" fill="rgb(41,41,129)" transform="translate(0,0)"></path>
<path d="M 1011.71 406.193 C 1066.42 399.161 1116.43 437.901 1123.3 492.627 C 1130.17 547.354 1091.28 597.251 1036.53 603.956 C 982.016 610.632 932.375 571.943 925.536 517.447 C 918.697 462.951 957.238 413.195 1011.71 406.193 z" fill="rgb(255,255,255)" transform="translate(0,0)"></path>
<path d="M 1216.66 962.305 C 1217.6 962.247 1218.55 962.204 1219.49 962.175 C 1235.05 961.725 1251.24 966.131 1262.52 977.368 C 1283.52 998.293 1279.17 1031.08 1279.13 1058.33 L 1279.13 1141.62 C 1249.05 1146.82 1229.97 1151.67 1202.26 1165.4 C 1186.52 1174 1176.26 1180.82 1161.84 1191.01 C 1162.71 1132.87 1159.87 1070.89 1162.86 1012.67 C 1164.28 985.108 1189.83 966.179 1216.66 962.305 z" fill="rgb(41,41,129)" transform="translate(0,0)"></path>
<metadata><recraft-signature>{"signed_by": "recraft", "signature_b64": "iF8qcQe0mi2MjCzBK5dpO3GlnP/UowNZlhnNoHx8CFbPYToQ0cJFWHJP20lcjvKZutnieW1sl4pqwccMyz+gBg==", "signing_algo": "Ed25519", "generation_timestamp": 1772810167, "identifier": "60b50387-5f88-4172-b54d-2cad4ad7f1eb"}</recraft-signature></metadata></svg>