<svg xmlns="http://www.w3.org/2000/svg" height="1024" preserveAspectRatio="none" style="display: block;" version="1.1" viewBox="0 0 2048 2048" width="1024">
<path d="M 0 0 L 2048 0 L 2048 2048 L 0 2048 L 0 0 z" fill="rgb(255,255,255)" transform="translate(0,0)"></path>
<path d="M 882.678 274.458 C 907.479 273.571 936.745 274.151 961.735 274.255 L 1064.01 274.223 C 1113.59 274.248 1176.36 272.52 1224.85 277.094 C 1357.62 290.065 1482.63 345.584 1581.28 435.38 C 1702.43 545.786 1773.69 700.559 1778.8 864.388 C 1779.61 887.686 1779.13 913.066 1779.15 936.496 L 1779.23 1061.3 C 1779.24 1110.43 1781.02 1172.73 1776.82 1220.63 C 1765.09 1354.41 1709.27 1480.51 1618.13 1579.15 C 1528.5 1676.46 1409.62 1741.94 1279.46 1765.68 C 1240.54 1772.63 1211.75 1774.48 1172.9 1775.82 C 1092.14 1776.81 1011.27 1775.98 930.505 1776.16 C 889.157 1776.25 850.496 1776.09 809.269 1771.47 C 679.023 1755.57 557.3 1698.35 461.967 1608.19 C 345.487 1497.95 277.923 1345.7 274.321 1185.36 C 273.545 1161.18 274.044 1135.5 274.042 1111.16 L 273.87 987.576 C 273.798 929.622 272.039 862.993 278.102 806.184 C 291.092 684.474 352.168 557.88 435.881 468.963 C 520.547 378.929 630.301 316.398 750.922 289.471 C 795.956 279.652 836.837 275.853 882.678 274.458 z" fill="rgb(56,69,150)" transform="translate(0,0)"></path>
<path d="M 1294.03 797.5 C 1308.47 795.758 1329.75 796.665 1344.15 798.843 C 1550.59 830.054 1617.17 1083.96 1444.68 1209.23 C 1386.93 1247.77 1330.99 1257.52 1263.34 1245.18 C 1270.29 1213.56 1277.62 1182.14 1282.17 1150 C 1299.61 1026.61 1291.48 923.105 1262.55 802.648 C 1272.45 799.532 1283.74 798.48 1294.03 797.5 z" fill="rgb(255,255,255)" transform="translate(0,0)"></path>
<path d="M 729.301 797.43 C 748.197 796.745 771.195 797.552 789.236 803.66 C 750.669 953.639 748.874 1094.98 788.759 1245.53 C 726.65 1254.18 682.601 1252.17 625.28 1222.06 C 610.735 1213.66 598.457 1205.4 585.739 1194.26 C 540.012 1153.91 512.163 1097.07 508.306 1036.21 C 503.907 960.115 541.786 882.616 604.033 838.772 C 640.647 812.984 684.846 799.771 729.301 797.43 z" fill="rgb(255,255,255)" transform="translate(0,0)"></path>
<path d="M 822.873 1342.19 C 823.659 1342.79 855.871 1398.96 861.647 1407.64 C 882.717 1439.29 908.861 1467.46 934.875 1495.04 C 874.746 1528.26 773.583 1539.31 705.786 1530.75 C 672.959 1527.85 623.624 1515.43 593.208 1503.24 C 612.799 1474.42 635.094 1445.99 655.39 1417.52 C 670.724 1396.01 686.46 1373.61 702.586 1352.77 C 745.031 1358.6 782.019 1353.6 822.873 1342.19 z" fill="rgb(255,255,255)" transform="translate(0,0)"></path>
<path d="M 1226.51 1343.13 C 1273.26 1354.2 1297.26 1357.31 1345.53 1352.72 C 1382.95 1401.01 1418.86 1455.82 1455.39 1505.49 C 1416.51 1518.99 1383.95 1525.69 1343.24 1530.89 C 1259.74 1540.22 1193.09 1528.51 1116.73 1494.95 C 1167.43 1442.57 1194.6 1407.75 1226.51 1343.13 z" fill="rgb(255,255,255)" transform="translate(0,0)"></path>
<path d="M 1280.67 517.437 C 1330.67 515.029 1408.11 526.493 1454.33 545.389 C 1419.08 594.46 1382.91 645.7 1347.06 694.193 C 1323 691.886 1310.38 692.069 1286.77 694.128 C 1264.17 696.983 1249.24 699.756 1227.34 705.574 C 1204.62 662.399 1183.66 628.149 1151.23 591.35 C 1140.39 579.045 1128.82 567.772 1118.29 555.496 C 1167.61 532.143 1226.45 520.47 1280.67 517.437 z" fill="rgb(255,255,255)" transform="translate(0,0)"></path>
<path d="M 739.55 517.424 C 805.659 512.833 874.617 531.311 935.551 555.064 C 905.776 585.464 878.839 616.535 855.64 652.429 C 845.114 668.715 835.335 687.267 825.94 704.372 C 819.135 702.5 809.906 700.792 802.852 699.274 C 765.428 691.904 743.628 691.919 706.383 694.072 C 694.707 676.609 681.405 658.822 669.189 641.618 L 599.83 544.092 C 635.464 528.383 700.928 519.667 739.55 517.424 z" fill="rgb(255,255,255)" transform="translate(0,0)"></path>
<path d="M 1642.38 1074.45 C 1653.14 1074.45 1664.6 1074.89 1675.41 1075.12 C 1674.62 1113.29 1676.41 1154.24 1674.86 1191.8 C 1672.02 1273.46 1647.89 1352.95 1604.86 1422.4 C 1591.43 1443.96 1577.46 1461.45 1562.95 1482.05 C 1553.49 1470.66 1538.09 1447.55 1528.6 1434.57 C 1502.67 1397.4 1475.54 1361.58 1450.49 1323.88 C 1469.39 1313.83 1490.09 1304 1507.5 1291.65 C 1587.3 1235.07 1624.36 1167.39 1642.38 1074.45 z" fill="rgb(255,255,255)" transform="translate(0,0)"></path>
<path d="M 1562.68 569.607 C 1580.28 586.11 1599.69 617.448 1611.91 638.611 C 1659.92 721.768 1677.74 817.298 1675 912.525 C 1674.39 933.662 1674.99 955.868 1674.97 977.135 C 1664.03 977.617 1653.08 977.943 1642.13 978.112 C 1638.4 954.557 1634.63 938.179 1627.03 915.656 C 1626.81 914.988 1626.59 914.322 1626.36 913.659 C 1595.59 826.08 1535.31 763.707 1452.4 723.694 C 1467.8 699.417 1482.95 680.242 1499.86 657.211 C 1521.14 628.253 1542.08 599.05 1562.68 569.607 z" fill="rgb(255,255,255)" transform="translate(0,0)"></path>
<path d="M 488.658 566.518 C 494.934 570.643 590.878 708.069 600.821 722.989 C 515.618 764.501 456.884 823.329 422.392 912.728 C 413.684 935.64 409.97 953.989 406.625 977.922 L 377.606 976.929 C 377.104 951.085 376.94 925.235 377.114 899.386 C 377.118 851.201 378.172 823.933 388.099 776.564 C 405.422 693.911 437.268 632.471 488.658 566.518 z" fill="rgb(255,255,255)" transform="translate(0,0)"></path>
<path d="M 377.704 1074.06 C 387.694 1073.95 396.77 1074.77 406.692 1075.56 C 413.54 1149.04 466.693 1229.54 523.384 1274.81 C 547.485 1294.06 571.356 1308.16 598.613 1322.16 C 577.287 1353.38 554.583 1383.12 533.447 1414.49 C 519.459 1434.35 500.592 1459.61 488.165 1479.87 C 469.701 1460.01 449.118 1427.5 436.171 1403.7 C 404.605 1345.69 385.182 1281.86 379.087 1216.1 C 376.94 1190.11 377.152 1164.54 377.397 1138.51 C 377.598 1117.14 376.796 1095.4 377.704 1074.06 z" fill="rgb(255,255,255)" transform="translate(0,0)"></path>
<path d="M 704.633 412.419 C 744.048 397.51 785.135 387.466 826.983 382.508 C 876.987 376.536 951.242 379.337 1003.5 379.561 L 1113.9 379.682 C 1201.56 379.381 1260.72 379.399 1345.62 411.473 L 1347.97 415.273 C 1246.47 403.125 1113.64 433.57 1026.83 487.36 C 1018.35 482.065 1005.37 475.871 996.395 471.103 C 916.575 428.684 801.669 405.383 711.141 414.516 C 707.659 413.986 707.744 414.085 704.633 412.419 z" fill="rgb(255,255,255)" transform="translate(0,0)"></path>
<path d="M 703.17 1634.8 C 817.72 1646.9 927.857 1619.66 1026.7 1561.83 C 1123.82 1620.33 1237.28 1645.8 1350.09 1634.45 C 1352.06 1635.29 1351.97 1635.31 1353.79 1636.65 C 1272.11 1669 1200.13 1670.24 1114.5 1670.14 L 1005.86 1670.1 C 941.296 1670.14 876.923 1672.95 812.891 1664.78 C 771.366 1659.48 743.457 1649.97 703.885 1637.59 L 703.17 1634.8 z" fill="rgb(255,255,255)" transform="translate(0,0)"></path>
<path d="M 1166.62 847.715 L 1168.41 849.437 C 1198.77 967.022 1192.63 1085.6 1168.26 1203.25 C 1154.67 1191.96 1145.38 1183.6 1133.26 1170.77 C 1130.72 1167.98 1128.27 1165.11 1125.92 1162.16 C 1088.49 1115.76 1074.63 1055.04 1081.35 996.497 C 1088.31 935.864 1119.49 885.425 1166.62 847.715 z" fill="rgb(255,255,255)" transform="translate(0,0)"></path>
<path d="M 883.702 847.565 C 932.652 889.406 962.264 932.479 969.346 998.284 C 976.257 1062.51 959.263 1118.74 918.917 1168.61 C 906.757 1182.98 898.201 1191.06 882.888 1201.83 C 854.55 1061.03 855.685 987.047 883.702 847.565 z" fill="rgb(255,255,255)" transform="translate(0,0)"></path>
<path d="M 1025.92 1191.74 C 1033.12 1199.75 1039.61 1213.67 1046.73 1222.74 C 1073.88 1257.35 1097.66 1277.94 1133.75 1302.39 C 1104.71 1357.95 1074.55 1398.12 1026.83 1438.61 C 1023.23 1437.18 1011.82 1426.19 1008.6 1423.07 C 974.672 1390.17 938.949 1344.34 919.962 1301.25 C 970.9 1266.53 993.165 1243.58 1025.92 1191.74 z" fill="rgb(255,255,255)" transform="translate(0,0)"></path>
<path d="M 1026.03 613.849 C 1031.67 617.654 1041.81 627.596 1047.18 632.747 C 1084.11 668.158 1108.4 702.943 1133.18 747.114 C 1084.87 778.231 1058.14 804.546 1027.96 853.361 L 1027.4 853.728 C 1024.88 852.672 1022.95 848.338 1021.33 845.757 C 1012.81 832.191 1003.15 819.375 992.45 807.449 C 970.2 782.396 948.853 765.253 921.227 746.624 C 953.889 688.152 977.331 658.524 1026.03 613.849 z" fill="rgb(255,255,255)" transform="translate(0,0)"></path>
<path d="M 693.9 416.541 C 697.203 415.116 701.166 413.199 704.633 412.419 C 707.744 414.085 707.659 413.986 711.141 414.516 C 706.188 415.38 698.923 416.072 693.9 416.541 z" fill="rgb(211,214,242)" transform="translate(0,0)"></path>
<path d="M 1345.62 411.473 C 1350.65 413.227 1354.47 414.463 1359.38 416.522 L 1357.5 416.497 C 1354.79 416.539 1350.74 415.682 1347.97 415.273 L 1345.62 411.473 z" fill="rgb(211,214,242)" transform="translate(0,0)"></path>
<path d="M 1350.09 1634.45 C 1351.62 1634.1 1357.93 1633.21 1359.15 1633.72 C 1359.7 1634.8 1354.19 1636.51 1353.79 1636.65 C 1351.97 1635.31 1352.06 1635.29 1350.09 1634.45 z" fill="rgb(211,214,242)" transform="translate(0,0)"></path>
<path d="M 703.885 1637.59 C 702.38 1637.06 696.376 1635.37 695.775 1634.4 L 695.88 1634.34 L 696.149 1634.5 L 696.071 1634.15 L 697.891 1634.03 L 697.885 1633.99 C 700.452 1634.19 700.792 1634.25 703.17 1634.8 L 703.885 1637.59 z" fill="rgb(211,214,242)" transform="translate(0,0)"></path>
<metadata><recraft-signature>{"signed_by": "recraft", "signature_b64": "qWyJ217KHtKCY7scw9ZgcOOSY5vYJvcfjDzRM7aFP+nCfgQ7D5zi33OqHXRJ40KE943bNExQvE8gpAGirSMNDw==", "signing_algo": "Ed25519", "generation_timestamp": 1772810216, "identifier": "bdce06e0-5567-44ca-a7d2-8dad3d710f64"}</recraft-signature></metadata></svg>