<svg xmlns="http://www.w3.org/2000/svg" height="1024" preserveAspectRatio="none" style="display: block;" version="1.1" viewBox="0 0 2048 2048" width="1024">
<path d="M 0 0 L 2048 0 L 2048 2048 L 0 2048 L 0 0 z" fill="rgb(252,252,253)" transform="translate(0,0)"></path>
<path d="M 982.918 370.066 L 1087.1 370.075 C 1115.39 370.091 1143.95 369.778 1172.16 372.217 C 1293.83 383.041 1408.78 432.763 1499.98 514.02 C 1610.76 614.561 1675.27 743.911 1682.42 894.177 C 1647.59 910.692 1602.11 928.519 1565.78 943.74 L 1363.08 1029.27 L 1363.06 1656.27 C 1330.49 1668.06 1311.77 1672.94 1278.09 1680.73 L 1277.37 1233.5 L 1277.71 1070.88 C 1277.91 979.114 1286.93 898.966 1213.05 828.632 L 1212.96 1689.11 L 1130.94 1688.77 C 1129.36 1572.64 1130.32 1453.88 1130.36 1337.64 L 1130.89 781.231 C 1110.11 770.818 1087.86 766.816 1064.97 764.752 L 1064.96 1688.97 L 983.106 1688.89 L 983.078 1620.5 L 983.109 764.739 C 958.544 768.431 941.121 773.269 917.984 781.665 L 918.13 1689.01 L 834.832 1688.61 L 834.866 831.281 C 768.464 898.488 769.704 961.261 769.696 1048.26 L 769.55 1164.59 L 769.109 1679.82 C 736.628 1673.12 718.302 1666.89 686.996 1655.93 L 686.983 1029.89 C 670.841 1024.93 642.569 1012.16 626.556 1005.39 C 589.627 989.849 552.813 974.034 516.117 957.948 C 486.058 944.872 455.904 932.014 425.659 919.374 C 406.795 911.428 385.279 902.879 367.146 893.896 C 370.705 766.084 430.755 632.308 520.038 541.426 C 623.283 434.347 765.056 372.994 913.789 371.027 L 913.119 529.244 C 935.321 528.825 959.667 526.365 982.956 525.743 L 982.918 370.066 z" fill="rgb(50,84,136)" transform="translate(0,0)"></path>
<path d="M 1066.02 455.681 C 1201.83 452.168 1306.2 473.928 1417.36 557.859 C 1507.25 625.728 1571.6 729.552 1586.44 841.945 C 1562.67 852.225 1538.68 861.983 1514.48 871.213 C 1500.09 807.598 1476.9 750.305 1436.62 698.776 C 1360.82 601.809 1258.73 549.048 1137.9 533.572 L 1138.07 620.5 L 1138.14 692.161 C 1118.51 686.922 1103.97 683.016 1083.92 679.828 C 987.367 664.482 883.834 685.712 804.674 744.657 C 740.748 791.446 698.116 861.793 686.223 940.115 C 662.993 929.378 639.104 919.713 615.515 909.694 C 627.58 834.681 658.478 770.665 712.114 716.498 C 738.641 690.184 769.446 668.566 803.213 652.568 C 896.448 607.432 964.57 611.194 1065.87 610.997 L 1066.02 455.681 z" fill="rgb(252,252,253)" transform="translate(0,0)"></path>
<path d="M 827.674 463.164 L 829.084 463.149 C 831.253 466.221 830.174 539.821 830.133 549.846 C 789.371 561.884 750.578 579.791 714.974 603.003 C 638.787 652.537 581.229 725.994 551.357 811.818 C 544.37 831.928 539.899 850.908 535.472 871.655 C 519.217 865.773 500.02 857.182 483.751 850.51 C 475.007 847.322 465.304 843.123 456.596 839.589 C 467.779 781.726 489.913 726.532 521.809 676.976 C 592.095 565.663 699.75 492.057 827.674 463.164 z" fill="rgb(252,252,253)" transform="translate(0,0)"></path>
<path d="M 1226.76 644.802 C 1257.33 654.92 1287.14 672.509 1312.21 692.547 C 1379.3 745.268 1422.49 822.655 1432.14 907.435 C 1425.65 909.871 1419.11 912.467 1412.63 914.977 L 1362.11 936.118 C 1340.3 843.301 1307.01 786.807 1225.91 732.174 C 1226.04 703.561 1225.72 673.265 1226.76 644.802 z" fill="rgb(252,252,253)" transform="translate(0,0)"></path>
<path d="M 367.613 972.398 C 403.325 985.935 443.491 1003.45 478.573 1018.47 L 618.649 1078.18 C 617.39 1098.35 618.141 1124.65 618.131 1145.44 L 618.004 1261.43 L 618.139 1622.7 C 596.241 1611.5 555.157 1580.44 536.334 1564.39 L 536.092 1326.5 L 536.022 1135.05 L 456.071 1100.52 L 455.94 1480.03 C 406.757 1414.34 376.853 1336.24 369.583 1254.49 C 366.68 1219.17 367.603 1169.86 367.701 1133.47 C 367.843 1080.68 366.378 1024.87 367.613 972.398 z" fill="rgb(50,84,136)" transform="translate(0,0)"></path>
<path d="M 1680.9 974 C 1683.34 976.103 1682.41 1010.74 1682.39 1016.31 L 1682.32 1102.52 C 1682.32 1143.79 1683.99 1197.81 1681.59 1237.8 C 1677.2 1306.33 1657.6 1373.03 1624.21 1433.04 C 1615.2 1449.08 1605.32 1463.5 1595.01 1478.76 L 1594.79 1100.85 C 1568.72 1110.92 1533.55 1125.04 1508.62 1137.43 L 1508.29 1327.5 L 1508.05 1569.47 C 1482.5 1591.83 1458.16 1608 1428.79 1624.64 L 1428.49 1080.12 C 1445.86 1073.07 1464.19 1064.7 1481.73 1057.37 L 1680.9 974 z" fill="rgb(50,84,136)" transform="translate(0,0)"></path>
<metadata><recraft-signature>{"signed_by": "recraft", "signature_b64": "Hnm2+nBDGn1kxGq2rdr6os7xLw8n7zgJBsJCwLaPZHWm0j/2vAfD+FOPdFDghSx85Q5jbIGT49k4ZMrsLb33DA==", "signing_algo": "Ed25519", "generation_timestamp": 1772810189, "identifier": "9c6d4ecc-4927-4dcf-a110-68e7558d028f"}</recraft-signature></metadata></svg>