<svg xmlns="http://www.w3.org/2000/svg" height="1024" preserveAspectRatio="none" style="display: block;" version="1.1" viewBox="0 0 2048 2048" width="1024">
<path d="M 0 0 L 2048 0 L 2048 2048 L 0 2048 L 0 0 z" fill="rgb(255,255,255)" transform="translate(0,0)"></path>
<path d="M 846.47 261.416 C 870.346 260.38 900.513 261.266 924.677 261.405 C 965.443 261.695 1006.21 261.724 1046.98 261.493 L 1143.65 261.243 C 1184.67 261.117 1216.52 261.478 1257.34 266.404 C 1539.58 300.466 1767.58 540.767 1784.85 824.996 C 1786.76 856.346 1785.37 887.178 1785.37 918.505 C 1785.76 965.876 1785.88 1013.25 1785.73 1060.62 L 1785.8 1160.64 C 1785.82 1186.35 1786.29 1213.02 1784.02 1238.6 C 1772.19 1371.57 1716.87 1490.76 1628.25 1589.64 C 1520.18 1708.95 1369.04 1780.3 1208.25 1787.93 C 1134.33 1790.33 1055.47 1788.32 981.074 1788.8 C 930.985 1789.13 865.68 1790.32 816.908 1786.12 C 686.223 1774.51 562.834 1720.81 465.278 1633.08 C 347.423 1528.01 275.785 1380.68 265.925 1223.1 C 264.793 1202.33 265.204 1178.94 265.139 1157.97 L 265.865 1003.96 L 265.707 898.8 C 265.587 873.097 264.725 848.093 266.51 822.441 C 275.815 688.452 329.816 561.461 419.865 461.807 C 529.431 340.492 683.146 268.287 846.47 261.416 z" fill="rgb(87,142,252)" transform="translate(0,0)"></path>
<path d="M 873.059 374.492 C 971.619 373.121 1071.49 375.531 1170.04 374.18 C 1308.05 372.288 1433.74 423.354 1531.8 521.402 C 1609.21 598.226 1658.35 698.985 1671.22 807.286 C 1674.63 835.822 1674.81 862.36 1674.82 890.93 L 1674.79 1095.92 C 1674.78 1138.89 1676.29 1194.84 1672.02 1236.65 C 1659.51 1347.98 1609.44 1451.73 1530.06 1530.78 C 1436.86 1623.84 1310.75 1676.43 1179.04 1677.15 L 956.487 1677.03 C 916.931 1677.03 865.07 1678.68 826.346 1675.24 C 709.786 1664.86 606.716 1613.83 522.991 1533.1 C 432.578 1444.98 380.186 1325.01 376.998 1198.8 C 375.698 1126.28 376.928 1050.02 376.903 977.032 L 376.844 892.793 C 376.831 872.509 376.437 851.462 377.937 831.272 C 385.877 716.005 434.48 607.299 515.086 524.52 C 588.518 449.562 683.535 399.419 786.857 381.101 C 818.066 375.863 841.622 375.015 873.059 374.492 z" fill="rgb(0,0,0)" transform="translate(0,0)"></path>
<path d="M 1009.63 476.418 C 1014.13 475.912 1021.13 475.898 1025.83 475.834 C 1099.79 475.49 1170.84 504.622 1223.27 556.789 C 1276.55 608.253 1306.75 679.077 1307.01 753.153 L 1411.94 753.222 C 1423.19 753.224 1477.44 751.568 1484.45 757.287 C 1511.42 779.323 1538.86 807.676 1562.99 833.205 C 1572.47 843.236 1571.09 855.493 1571.14 868.227 L 1571.11 1192.67 L 1571.04 1305.75 C 1571.04 1315.39 1572.29 1379.25 1567.93 1385.22 C 1549.58 1410.38 1518.53 1435.73 1497.27 1459.37 C 1493.04 1463.47 1479.96 1476.48 1474.39 1477.96 C 1454.4 1483.26 1419.43 1480.91 1399.63 1480.96 C 1399.49 1515.8 1399.6 1550.64 1399.95 1585.48 L 1119.58 1585.32 C 1117.99 1553.66 1119.18 1513.14 1119.23 1480.88 C 1094.23 1480.85 1069.22 1480.69 1044.22 1480.4 C 1006.47 1480.32 968.717 1480.48 930.967 1480.91 L 931.052 1585.75 L 652.975 1585.25 L 652.912 1481.08 C 632.233 1480.67 610.112 1483.13 589.681 1480.67 C 585.526 1480.17 580.617 1479.55 576.995 1477.35 C 563.816 1469.35 498.77 1403.37 488.23 1389.29 C 484.032 1383.68 481.825 1376.24 481.321 1369.3 C 480.527 1358.34 481.033 1347.05 481.023 1336.07 L 480.982 1273.27 L 480.931 1078.05 L 480.938 926.323 C 480.948 900.149 480.236 872.224 482.061 846.194 C 482.477 840.259 486.196 834.26 491.248 829.581 C 516.071 806.591 539.943 777.756 566.348 757.361 C 570.87 755.222 578.786 753.579 583.515 753.482 C 637.829 752.366 692.842 755.37 747.087 753.029 C 746.81 687.317 770.076 623.679 812.671 573.64 C 864.177 513.1 931.197 482.606 1009.63 476.418 z" fill="rgb(87,142,252)" transform="translate(0,0)"></path>
<path d="M 1014.29 581.393 C 1017.57 580.962 1024.79 580.838 1028.12 580.816 C 1073.85 580.521 1117.77 598.703 1149.9 631.238 C 1198.36 679.631 1203.08 728.878 1203.07 792.643 L 1203 859.657 L 1464.15 859.237 L 1464.31 962.431 C 1423.11 961.322 1378.44 962.131 1337.07 962.285 L 1174.94 962.119 L 1174.97 1072.03 L 1464.51 1072.18 C 1465.15 1104.21 1464.72 1138.57 1464.28 1170.68 L 1119.63 1170.97 L 1119.85 1280.7 L 1464.54 1280.43 C 1464.52 1301.46 1464.37 1322.49 1464.09 1343.51 L 1454.8 1353.27 L 1436.91 1371.11 C 1393.61 1372.09 1350.3 1372.32 1306.99 1371.81 L 1306.88 1474.07 C 1278.04 1473.8 1248.68 1474.13 1219.81 1474.19 L 1219.95 1371.97 L 835.873 1371.99 L 835.984 1473.77 L 748.306 1473.4 L 747.69 1371.88 L 620.498 1371.96 C 610.729 1363.26 601.128 1353.47 591.777 1344.25 C 591.202 1322.64 591.187 1300.16 591.36 1278.5 C 592.474 1139 589.547 998.894 591.506 859.452 L 850.979 859.671 L 851.044 788.549 C 851.115 730.678 852.544 692.081 891.53 644.133 C 923.655 604.623 964.236 586.518 1014.29 581.393 z" fill="rgb(0,0,0)" transform="translate(0,0)"></path>
<path d="M 1003.1 929.558 C 1006.04 930.677 1071.57 996.036 1079.65 1004.05 C 1041.55 1044.45 997.306 1087.04 957.935 1126.48 C 906.571 1178.42 854.903 1230.06 802.934 1281.39 L 719.492 1200.71 C 695.657 1177.07 666.795 1147.47 641.846 1125.83 C 648.492 1118.14 660.957 1106.35 668.519 1098.78 L 718.571 1048.95 C 746.495 1074.16 772.262 1102.14 801.816 1128.63 C 817.902 1114.17 833.966 1097.81 849.191 1082.36 C 899.882 1030.95 952.631 981.137 1003.1 929.558 z" fill="rgb(87,142,252)" transform="translate(0,0)"></path>
<path d="M 1020.22 688.232 C 1050.67 684.349 1078.47 705.999 1082.15 736.476 C 1085.84 766.953 1064.01 794.606 1033.51 798.098 C 1003.29 801.557 975.94 779.97 972.286 749.769 C 968.632 719.567 990.044 692.08 1020.22 688.232 z" fill="rgb(87,142,252)" transform="translate(0,0)"></path>
<metadata><recraft-signature>{"signed_by": "recraft", "signature_b64": "XJttsaZ5VjHwIfCxiizzzFto7f9vDsN6t0pwrlmVluK15uNVzE5BYABBz9WA/qTZsXHDBzNat53HmlfUP7qSBA==", "signing_algo": "Ed25519", "generation_timestamp": 1772810781, "identifier": "d43f10fd-208e-43dc-9013-bc4df2958b3e"}</recraft-signature></metadata></svg>