<svg xmlns="http://www.w3.org/2000/svg" height="1024" preserveAspectRatio="none" style="display: block;" version="1.1" viewBox="0 0 2048 2048" width="1024">
<path d="M 0 0 L 2048 0 L 2048 2048 L 0 2048 L 0 0 z" fill="rgb(255,255,255)" transform="translate(0,0)"></path>
<path d="M 1153.03 289.496 L 1271.39 289.785 C 1304.19 289.88 1337.74 289.175 1370.38 292.025 C 1474.99 301.157 1565.57 345.005 1639.52 419.325 C 1694.12 474.425 1733.07 543.059 1752.39 618.184 C 1768.82 682.805 1766.62 737.926 1766.19 804.127 L 1765.99 925.304 L 1766.2 1304.58 C 1766.13 1332.6 1766.11 1357.6 1762.62 1385.5 C 1750.46 1481.36 1706.65 1570.42 1638.12 1638.54 C 1564.61 1711.46 1474.5 1755.78 1371.15 1765.71 C 1339.02 1768.8 1311.89 1767.75 1279.61 1767.67 C 1242.47 1767.91 1205.33 1767.87 1168.19 1767.52 L 904.53 1767.15 C 848.184 1766.9 791.838 1767.13 735.496 1767.83 C 617.514 1769.79 503.72 1724.13 419.809 1641.17 C 332.648 1554.74 289.448 1445.81 288.973 1323.58 L 289.014 934.189 L 288.985 796.95 C 288.94 728.428 285.915 683.445 303.082 616.375 C 322.243 543.893 359.831 477.603 412.193 423.947 C 451.882 384.051 477.357 366.06 525.973 339.495 C 637.184 278.726 743.112 290.044 865.7 289.88 L 1153.03 289.496 z" fill="rgb(56,102,241)" transform="translate(0,0)"></path>
<path d="M 1368.84 897.454 C 1384.17 909.474 1406.22 959.516 1413.86 979.924 C 1406.72 1010.63 1383.98 1057.74 1367.53 1084.37 C 1306.11 1183.82 1213.25 1260.64 1098.36 1288.01 C 1017.55 1307.25 933.656 1297.58 856.567 1269.15 C 832.786 1260.37 804.393 1249.4 782.9 1236.2 C 781.979 1216.02 782.779 1195.81 785.291 1175.77 C 786.256 1149.33 801.851 1100.39 815.223 1077.6 C 825.718 1110.64 832.305 1127.88 852.709 1156.94 C 883.363 1201.19 934.032 1235.52 987.71 1244.24 C 1161.32 1272.46 1307.41 1114.34 1354.74 961.562 C 1361.36 940.178 1365.09 919.362 1368.84 897.454 z" fill="rgb(255,255,255)" transform="translate(0,0)"></path>
<path d="M 1025.58 755.434 C 1109.13 751.904 1174.64 772.295 1249.79 805.73 C 1255.17 856.705 1252.89 914.178 1234.15 962.163 C 1205.47 868.097 1107.84 801.699 1010.15 807.911 C 921.609 813.542 843.646 863.49 785.154 927.404 C 727.05 992.553 690.236 1065.35 677.228 1152.29 C 669.914 1142.02 662.614 1133.37 655.434 1122.67 C 643.735 1105.24 636.947 1091.36 628.23 1072.74 C 671.758 926.359 804.361 796.522 953.889 763.837 C 977.138 758.755 1001.88 756.786 1025.58 755.434 z" fill="rgb(255,255,255)" transform="translate(0,0)"></path>
<path d="M 1435.78 1185.76 C 1436.26 1189.71 1434.37 1202.2 1433.7 1206.8 C 1428.74 1240.99 1420.31 1274.43 1407.89 1306.81 C 1401.09 1324.54 1382.76 1369.95 1371.66 1383.53 C 1365.64 1390.89 1321.35 1411.96 1311.39 1416.6 C 1203 1467.08 1086.33 1486.13 967.283 1476.39 C 945.482 1474.61 896.509 1468.77 876.672 1461.54 C 866.356 1448.47 856.432 1435.1 846.912 1421.44 C 835.689 1404.33 830.198 1393.32 821.286 1374.94 C 1058.16 1462.15 1285.44 1385.71 1435.78 1185.76 z" fill="rgb(255,255,255)" transform="translate(0,0)"></path>
<path d="M 1650.92 1269.79 C 1651.65 1273.99 1651.71 1288.83 1651.72 1293.81 C 1651.8 1319.88 1652.39 1346.54 1649.47 1372.47 C 1641.08 1443.35 1609.16 1509.36 1558.8 1559.94 C 1511.93 1607.23 1442.42 1642.74 1376.35 1650.27 C 1349.85 1653.29 1322.05 1652.92 1295.34 1652.97 L 1294.87 1652.68 C 1294.76 1650.69 1307.08 1641.54 1309.29 1639.8 C 1374.39 1588.73 1426.27 1524.58 1466.92 1453.03 C 1468.87 1449.59 1514.22 1417.88 1522.79 1410.84 C 1571.91 1370.07 1615.04 1322.59 1650.92 1269.79 z" fill="rgb(255,255,255)" transform="translate(0,0)"></path>
<path d="M 699.12 403.577 C 716.217 401.801 748.173 402.857 766.228 402.992 C 697.289 455.293 635.047 513.117 590.11 587.872 C 585.759 595.111 576.83 611.092 570.994 616.267 C 556.808 628.846 540.75 639.765 526.283 652.348 C 491.459 682.069 459.755 715.262 431.664 751.413 C 421.966 764.165 412.372 776.877 404.001 790.547 C 403.59 761.893 402.358 731.809 404.197 703.279 C 414.673 540.786 538.053 418.545 699.12 403.577 z" fill="rgb(255,255,255)" transform="translate(0,0)"></path>
<path d="M 1301.36 402.959 C 1314.01 402.572 1331 402.643 1343.67 403.027 C 1427.73 405.576 1507.97 444.088 1565.39 504.989 C 1610.89 552.78 1640.18 613.697 1649.09 679.085 C 1653.47 712.628 1652.9 765.748 1651.88 800.325 C 1649.11 797.86 1630.36 767.715 1626.73 762.451 C 1616.42 747.536 1605.41 733.121 1593.72 719.255 C 1562.94 682.721 1527.19 651.554 1490.02 621.913 C 1486.42 619.046 1475.56 598.077 1472.32 592.399 C 1466.26 581.58 1459.66 571.071 1452.54 560.911 C 1404.29 490.952 1367.95 453.16 1301.36 402.959 z" fill="rgb(255,255,255)" transform="translate(0,0)"></path>
<path d="M 403.037 1274.53 C 405.94 1276.62 427.774 1306.41 431.97 1311.54 C 441.732 1323.41 451.924 1334.92 462.524 1346.05 C 484.05 1368.95 504.848 1389.44 529.259 1409.43 C 543.443 1421.05 562.015 1432.79 574.749 1444.99 C 578.231 1448.32 590.33 1470.67 593.747 1476.38 C 600.685 1487.72 608.019 1498.81 615.736 1509.63 C 657.507 1569.09 701.238 1608.87 757.775 1652.91 C 733.187 1653.01 701.734 1653.61 677.556 1650.22 C 611.436 1640.97 546.7 1608.9 499.267 1562.13 C 446.794 1511.23 413.654 1443.66 405.524 1371.01 C 402.484 1342.51 403.234 1304.07 403.037 1274.53 z" fill="rgb(255,255,255)" transform="translate(0,0)"></path>
<path d="M 991.082 581.57 C 995.892 581.163 1000.96 581.042 1005.8 581.001 C 1056.43 580.564 1109.96 580.728 1159.98 589.16 C 1180.96 611.107 1197.4 640.983 1208.81 668.905 C 1188.8 661.612 1141.73 652.171 1120.26 648.942 C 984.819 628.576 848.103 659.174 737.546 741.219 C 689.132 776.075 650.148 815.926 614.333 863.622 C 619.512 841.424 622.8 821.193 629.405 796.461 C 640.442 755.132 659.169 706.268 682.922 670.475 C 685.953 665.909 714.136 652.539 720.177 649.556 C 805.627 607.362 896.305 587.14 991.082 581.57 z" fill="rgb(255,255,255)" transform="translate(0,0)"></path>
<path d="M 1016.53 922.149 C 1075.13 916.366 1127.38 959.031 1133.43 1017.6 C 1139.49 1076.17 1097.06 1128.62 1038.52 1134.95 C 979.595 1141.31 926.726 1098.55 920.633 1039.59 C 914.54 980.639 957.546 927.969 1016.53 922.149 z" fill="rgb(255,255,255)" transform="translate(0,0)"></path>
<path d="M 504.728 834.95 C 505.482 835.849 499.163 897.746 498.714 913.542 C 497.68 944.484 498.648 975.46 501.612 1006.28 C 504.764 1036.11 511.224 1046.28 505.454 1077.7 C 496.842 1124.59 498.869 1179.96 502.066 1227.06 C 494.485 1212.85 480.946 1193.44 471.914 1178.85 C 442.671 1130.29 426.251 1086.46 410.455 1031.81 C 431.06 961.537 462.896 895.058 504.728 834.95 z" fill="rgb(255,255,255)" transform="translate(0,0)"></path>
<path d="M 1551.92 840.84 C 1556.46 845.834 1566.66 863.268 1570.37 869.632 C 1601.04 921.874 1624.6 977.98 1640.41 1036.46 C 1625.07 1084.82 1604.23 1131.25 1578.3 1174.85 C 1569.83 1190.01 1560.11 1204.69 1550.5 1219.14 C 1551.66 1205.93 1553.56 1192.9 1554.49 1179.66 C 1557.51 1137.37 1556.75 1094.89 1552.21 1052.74 C 1550.55 1038.13 1548.33 1023.59 1545.56 1009.15 C 1544.07 1001.35 1540.02 983.554 1540.12 976.246 C 1540.25 966.249 1545.14 949.514 1546.48 938.991 C 1549.9 912.024 1554.65 866.874 1551.92 840.84 z" fill="rgb(255,255,255)" transform="translate(0,0)"></path>
<path d="M 1324.78 635.545 C 1333.42 637.988 1354.71 654.886 1363.37 660.05 C 1382.6 671.511 1387.55 683.109 1396.82 702.403 C 1412 733.972 1421.64 763.768 1427.39 798.401 C 1424.75 796.258 1420.6 791.5 1417.93 788.881 C 1401.07 772.333 1382.79 758.453 1364.59 743.57 C 1354.69 711.096 1342.83 664.616 1324.78 635.545 z" fill="rgb(255,255,255)" transform="translate(0,0)"></path>
<path d="M 1232.42 1565.16 L 1233.94 1565.15 L 1233.62 1566.48 C 1210.94 1587.8 1169.66 1617.89 1141.56 1631.76 C 1120.86 1627.54 1088.29 1614.9 1068.75 1607.3 L 1035.67 1593.11 C 1095.39 1593.1 1173.94 1578.52 1232.42 1565.16 z" fill="rgb(255,255,255)" transform="translate(0,0)"></path>
<path d="M 619.151 1256.56 C 624.702 1259.6 639.257 1272.79 644.813 1277.48 C 656.458 1287.34 668.345 1296.9 680.465 1306.16 C 684.75 1336.5 699.887 1381.66 710.572 1410.45 C 704.435 1406.48 680.643 1393.54 677.895 1389.66 C 652.253 1353.46 631.742 1297.55 619.151 1256.56 z" fill="rgb(255,255,255)" transform="translate(0,0)"></path>
<path d="M 917.123 430.177 C 935.313 436.597 994.03 458.907 1009.43 469.043 C 977.254 468.826 945.103 470.825 913.202 475.025 C 891.451 477.62 853.775 483.242 833.277 488.79 C 856.985 467.249 889.9 446.726 917.123 430.177 z" fill="rgb(255,255,255)" transform="translate(0,0)"></path>
<metadata><recraft-signature>{"signed_by": "recraft", "signature_b64": "rvRSyn8Omzmg7dUQ0LxC2Kp3Ne5wUX5UVx6nMCkHIPC+xRpctztSVpZhK9PlIA16ftrUdP6Io7LRuFc0oMN0Bg==", "signing_algo": "Ed25519", "generation_timestamp": 1772810738, "identifier": "85b1ba8d-3021-446a-91f3-e231f246ace2"}</recraft-signature></metadata></svg>