<svg xmlns="http://www.w3.org/2000/svg" height="1024" preserveAspectRatio="none" style="display: block;" version="1.1" viewBox="0 0 2048 2048" width="1024">
<path d="M 0 0 L 2048 0 L 2048 2048 L 0 2048 L 0 0 z" fill="rgb(251,251,250)" transform="translate(0,0)"></path>
<path d="M 759.954 288.425 C 761.547 288.268 761.725 288.22 763.092 288.193 C 797.349 287.509 831.817 287.884 866.098 287.866 L 1052.92 287.857 L 1129.99 287.934 C 1143.42 287.885 1174.56 286.355 1185.81 289.646 C 1281.55 317.643 1395.32 381.275 1467.64 447.805 C 1495.66 418.881 1524.02 390.286 1552.71 362.026 C 1595.42 402.882 1636.87 445.811 1679.36 487.192 C 1651.7 515.157 1620.5 544.405 1594.3 573.215 C 1607.35 591.182 1622.34 608.481 1635.76 627.204 C 1682.09 690.768 1718.48 761.011 1743.68 835.523 C 1748.39 849.411 1759.73 880.836 1761.4 894.092 C 1762.7 904.374 1762.11 934.229 1762.14 946.122 L 1762.08 1055.27 L 1761.94 1195.5 C 1761.99 1225.18 1762.13 1254.79 1761.7 1284.47 C 1759.84 1413.92 1704.53 1540.19 1609.35 1629.14 C 1532.16 1701.53 1433.42 1746.71 1328.17 1757.79 C 1292.88 1761.44 1259.3 1760.95 1223.98 1760.94 L 1106.99 1760.86 L 947.137 1760.64 C 914.977 1760.7 878.904 1761.57 847.045 1760.47 C 859.286 1750.74 882.284 1722.46 891.91 1709.7 C 955.165 1625.31 982.425 1519.3 967.726 1414.87 C 963.146 1367.1 936.717 1295.27 908.995 1256.41 L 610.512 1563.62 L 549.234 1627.04 C 530.731 1645.84 511.281 1664.75 493.697 1684.31 C 452.423 1642.54 409.274 1602.31 368.639 1559.82 C 396.802 1529.01 432.708 1494.48 462.231 1464.12 L 693.149 1228.67 L 741.379 1179.29 C 755.425 1165.18 771.341 1149.94 784.661 1135.36 C 774.241 1127.91 758.862 1120.27 747.452 1114.27 C 681.552 1079.62 606.481 1064.68 532.343 1071.21 C 461.735 1077.43 388.109 1108.34 331.813 1151.16 C 317.101 1162.35 300.014 1176.15 288.194 1190.36 L 288.412 922.069 L 288.327 814.192 C 288.409 792.195 288.362 770.389 289.583 748.408 C 304.022 488.437 503.627 305.394 759.954 288.425 z" fill="rgb(56,84,247)" transform="translate(0,0)"></path>
<path d="M 911.703 435.439 C 926.943 433.955 960.76 435.298 976.017 436.174 C 1108.35 444.906 1234.7 494.518 1337.62 578.155 C 1327.34 590.983 1305.37 610.961 1293.19 623.342 C 1259.54 657.534 1223.31 690.689 1190.73 725.85 C 1151.8 688.434 1073.73 646.234 1024.24 624.476 C 1017.33 621.435 1010.39 618.453 1003.43 615.528 C 882.145 565.114 725.791 550.247 597.956 579.53 C 573.945 585.03 550.975 589.445 528.095 598.863 C 536.664 592.684 545.358 584.577 553.534 577.611 C 655.589 490.657 776.828 442.963 911.703 435.439 z" fill="rgb(251,251,250)" transform="translate(0,0)"></path>
<path d="M 1459.93 697.786 C 1468.14 704.529 1487.7 735.502 1494.12 745.9 C 1548.45 833.558 1580.87 933.004 1588.66 1035.84 C 1601.98 1187.15 1561.13 1338.27 1473.4 1462.27 C 1460.79 1480.01 1445.58 1496.98 1431.49 1513.7 C 1434.63 1505.5 1436.51 1500.32 1438.68 1491.88 C 1447.06 1464.15 1454.97 1439.65 1460.02 1411.04 C 1486.65 1255.19 1460.16 1094.92 1384.8 955.924 C 1361.77 913.928 1339.73 885.033 1312.95 846.794 C 1321.98 836.575 1332.69 826.447 1342.36 816.688 C 1359.87 798.936 1377.49 781.294 1395.21 763.764 C 1417.34 741.894 1438.03 719.524 1459.93 697.786 z" fill="rgb(251,251,250)" transform="translate(0,0)"></path>
<path d="M 717.364 749.481 C 853.487 750.678 944.32 781.669 1057.21 857.212 C 1014.89 903.369 961.856 952.631 916.974 998.025 C 836.733 943.37 774.343 914.776 679.217 894.918 C 578.366 875.399 474.105 883.665 377.589 918.831 C 349.97 928.667 325.684 938.582 300.144 952.975 C 307.286 944.838 314.608 936.86 322.102 929.047 C 430.994 814.295 558.037 753.718 717.364 749.481 z" fill="rgb(251,251,250)" transform="translate(0,0)"></path>
<path d="M 1181.42 984.116 C 1189.73 991.254 1206.65 1020 1212.56 1030.47 C 1259.28 1113.77 1283.6 1207.76 1283.12 1303.26 C 1282.49 1461.52 1220.06 1595.47 1108.57 1705.94 L 1112.96 1695.64 C 1132.5 1648.76 1144.78 1608.36 1152.31 1558.21 C 1176.32 1404.64 1137.21 1247.88 1043.85 1123.6 C 1089.61 1078.62 1135.39 1029.84 1181.42 984.116 z" fill="rgb(251,251,250)" transform="translate(0,0)"></path>
<metadata><recraft-signature>{"signed_by": "recraft", "signature_b64": "u19PIbCgrLBifzlYKn7Z+g63a8gdZXWrqLLndu3lmNmAK6B+5kbjmtfWmk453KXI8xQbfwI0pn0lD4W714AkAQ==", "signing_algo": "Ed25519", "generation_timestamp": 1772810760, "identifier": "e1c561ab-db81-49d9-b147-92916c09a033"}</recraft-signature></metadata></svg>