<svg xmlns="http://www.w3.org/2000/svg" height="1024" preserveAspectRatio="none" style="display: block;" version="1.1" viewBox="0 0 2048 2048" width="1024">
<path d="M 0 0 L 555.257 0 L 804.548 0 L 1243.95 0 L 1496.47 0 L 2048 0 L 2048 575.54 L 2048 779.481 L 2048 932.479 L 2048 1112.54 L 2048 1268.39 L 2048 1473.68 L 2048 2048 L 1488.49 2048 L 1243.41 2048 L 804.737 2048 L 563.351 2048 L 0 2048 L 0 1471.57 L 0 1267.27 L 0 1108.81 L 0 938.363 L 0 780.61 L 0 576.128 L 0 0 z" fill="rgb(100,50,225)" transform="translate(0,0)"></path>
<path d="M 1860.96 1359.72 C 1849 1361.62 1836.54 1360.09 1824.54 1359.56 C 1681.65 1353.12 1560.12 1258.3 1518.85 1121.53 C 1453.7 905.642 1613.28 691.398 1837.84 688.588 C 1851.93 688.411 1862.4 687.78 1875.19 695.053 C 1943.74 734.034 1995.86 795.338 2026.91 867.475 C 2035.98 888.537 2041.78 910.579 2048 932.479 L 2048 1112.54 L 2048 1268.39 C 2005.01 1311.04 1936.78 1351.67 1876.53 1357.13 C 1874.64 1356.69 1872.75 1356.27 1870.86 1355.87 C 1869.7 1356.74 1868.8 1357.32 1867.59 1358.1 C 1864.86 1358.63 1863.59 1358.86 1860.96 1359.72 z" fill="rgb(100,50,225)" transform="translate(0,0)"></path>
<path d="M 1870.86 1355.87 C 1876.81 1352.49 1882.73 1349.04 1888.61 1345.54 C 1951.65 1307.34 2005.92 1238.24 2031.45 1169.39 C 2039.17 1148.58 2042.78 1133.82 2048 1112.54 L 2048 1268.39 C 2005.01 1311.04 1936.78 1351.67 1876.53 1357.13 C 1874.64 1356.69 1872.75 1356.27 1870.86 1355.87 z" fill="rgb(253,252,252)" transform="translate(0,0)"></path>
<path d="M 1708.2 893.25 C 1779.89 886.371 1843.61 938.865 1850.58 1010.55 C 1857.55 1082.24 1805.14 1146.02 1733.46 1153.09 C 1661.65 1160.16 1597.73 1107.63 1590.75 1035.82 C 1583.76 964 1636.37 900.142 1708.2 893.25 z" fill="rgb(253,252,252)" transform="translate(0,0)"></path>
<path d="M 764.968 1255.28 C 767.045 1374.24 763.744 1494.29 765.615 1612.95 C 624.308 1754.04 432.985 1833.59 233.302 1834.28 C 198.331 1834.3 161.042 1833.33 126.171 1829.84 C 233.685 1957.12 368.255 2029.78 535.551 2045.54 C 541.762 2046.12 558.303 2046.85 563.351 2048 L 0 2048 L 0 1471.57 C 1.83708 1482.95 2.29426 1497.03 3.68098 1508.95 C 6.72239 1535.54 10.9518 1561.98 16.3564 1588.19 C 51.1987 1599.43 84.2328 1609.95 120.388 1616.71 C 247.04 1640.21 377.912 1620.9 492.379 1561.82 C 617.742 1497.47 712.667 1385.21 764.968 1255.28 z" fill="rgb(253,252,252)" transform="translate(0,0)"></path>
<path d="M 0 0 L 555.257 0 L 554.035 0.188266 C 539.982 2.26152 524.194 2.29205 510.647 4.3863 C 481.691 8.86228 447.981 15.7208 419.94 23.4601 C 314.938 52.4397 194.349 128.212 128.363 215.434 L 127.579 216.486 C 175.587 213.709 220.361 211.569 268.357 213.612 C 445.549 221.156 613.682 296.487 744.88 414.423 C 752.461 421.239 759.564 427.459 765.962 435.645 L 765.582 791.646 C 707.407 648.226 596.184 526.962 452.65 466.436 C 348.754 422.028 233.985 409.574 122.982 430.664 C 85.4362 437.882 53.7739 447.795 17.7914 459.75 C 10.6523 492 3.98992 523.68 1.98943 556.714 C 1.60206 563.11 1.02615 569.807 0 576.128 L 0 0 z" fill="rgb(253,252,252)" transform="translate(0,0)"></path>
<path d="M 1282.66 1613.07 L 1283.24 1255.18 C 1295.45 1282.9 1305.54 1308.01 1320.9 1334.9 C 1362.45 1406.8 1421.47 1472.1 1488.96 1520.54 C 1620.66 1615.08 1787.32 1647.08 1945.34 1613.32 C 1973.85 1607.23 2003.01 1597.64 2030.57 1588.39 C 2041.01 1553.68 2043.56 1509.45 2048 1473.68 L 2048 2048 L 1488.49 2048 C 1500.96 2045.8 1527.93 2044.73 1543.62 2042.65 C 1661.54 2026.5 1771.83 1975.12 1860.05 1895.23 C 1881.34 1876.2 1905.82 1851.47 1923.17 1828.76 C 1884.05 1833.82 1842.68 1834.83 1803.23 1834.21 C 1652.33 1831.14 1505.78 1783.08 1382.39 1696.17 C 1347.17 1671.73 1312.52 1643.91 1282.66 1613.07 z" fill="rgb(253,252,252)" transform="translate(0,0)"></path>
<path d="M 1496.47 0 L 2048 0 L 2048 575.54 C 2046.24 561.686 2045.77 547.537 2044.01 533.622 C 2040.91 509.056 2036.26 483.885 2030.86 459.729 C 2006.73 449.818 1973.91 441.388 1948.39 435.383 C 1831.32 407.832 1709.08 419 1597.9 465.525 C 1458.55 525.433 1347.99 637.235 1289.65 777.247 C 1288.47 780.155 1287.3 783.07 1286.15 785.992 L 1282.65 784.993 C 1283.32 774.042 1282.78 756.91 1282.79 745.597 L 1282.79 667.765 L 1282.94 435.346 C 1304.87 414.789 1316.21 402.314 1340.6 382.942 C 1449.8 294.543 1581.11 237.706 1720.3 218.586 C 1755.83 214.362 1791.6 212.429 1827.38 212.798 C 1855.91 212.827 1893.59 213.894 1922.14 217.174 C 1906.54 195.582 1882.03 171.859 1862.38 153.873 C 1787.7 85.5067 1697.28 38.81 1598.6 15.5839 C 1578.32 11.0149 1557.83 7.4327 1537.2 4.84982 C 1524 3.24232 1509.39 2.3442 1496.47 0 z" fill="rgb(253,252,252)" transform="translate(0,0)"></path>
<path d="M 804.548 0 L 1243.95 0 C 1242.85 136.215 1245.22 273.176 1243.6 409.358 L 907.623 409.576 C 873.613 409.439 838.785 409.863 804.896 409.067 C 804.259 273.021 806.168 135.883 804.548 0 z" fill="rgb(253,252,252)" transform="translate(0,0)"></path>
<path d="M 804.935 1642.54 L 1243.64 1642.68 C 1244.08 1777.31 1244.92 1913.48 1243.41 2048 L 804.737 2048 L 804.935 1642.54 z" fill="rgb(253,252,252)" transform="translate(0,0)"></path>
<path d="M 1861.68 1361.25 C 1808.77 1386.35 1765.17 1399.64 1705.5 1401.07 C 1603.89 1402.99 1505.6 1364.96 1431.74 1295.16 C 1358.91 1225.99 1316.95 1130.45 1315.28 1030.02 C 1313.42 933.786 1351.37 837.798 1416.43 768.984 C 1524.4 654.778 1687.96 617.442 1834.09 674.428 C 1843.88 678.248 1855.37 684.937 1864.9 687.904 C 1878.74 692.213 1893.98 693.679 1908.27 697.86 C 1960.82 713.235 2008.8 741.26 2048 779.481 L 2048 932.479 C 2041.78 910.579 2035.98 888.537 2026.91 867.475 C 1995.86 795.338 1943.74 734.034 1875.19 695.053 C 1862.4 687.78 1851.93 688.411 1837.84 688.588 C 1613.28 691.398 1453.7 905.642 1518.85 1121.53 C 1560.12 1258.3 1681.65 1353.12 1824.54 1359.56 C 1836.54 1360.09 1849 1361.62 1860.96 1359.72 L 1861.68 1361.25 z" fill="rgb(253,252,252)" transform="translate(0,0)"></path>
<path d="M 0 1108.81 C 5.53645 1128.26 9.07512 1147.09 15.9638 1166.34 C 39.829 1231.25 81.9567 1287.89 137.271 1329.41 C 154.078 1341.97 166.232 1348.37 183.525 1359.24 C 167.214 1355.85 141.2 1351.41 126.384 1346.52 C 81.7486 1331.77 31.9272 1301.53 0 1267.27 L 0 1108.81 z" fill="rgb(253,252,252)" transform="translate(0,0)"></path>
<path d="M 0 780.61 C 52.6816 730.512 103.066 703.813 174.712 690.573 L 175.959 694.138 C 157.792 705.087 140.384 715.958 123.832 729.657 C 78.5288 767.152 41.9275 817.406 19.838 871.896 C 11.1603 893.302 5.93609 916.334 0 938.363 L 0 780.61 z" fill="rgb(253,252,252)" transform="translate(0,0)"></path>
<path d="M 174.712 690.573 C 175.962 690.38 180.319 689.319 181.387 690.401 C 181.483 691.66 176.881 693.691 175.959 694.138 L 174.712 690.573 z" fill="rgb(249,242,252)" transform="translate(0,0)"></path>
<path d="M 1860.96 1359.72 C 1863.59 1358.86 1864.86 1358.63 1867.59 1358.1 L 1868.05 1359.15 C 1865.65 1360.14 1864.2 1360.79 1861.68 1361.25 L 1860.96 1359.72 z" fill="rgb(151,103,236)" transform="translate(0,0)"></path>
<path d="M 1282.65 784.993 L 1286.15 785.992 C 1285.71 786.986 1284.52 790.609 1283.51 791.157 L 1283.32 791.081 C 1282.59 790.066 1282.71 786.287 1282.65 784.993 z" fill="rgb(249,242,252)" transform="translate(0,0)"></path>
<path d="M 1867.59 1358.1 C 1868.8 1357.32 1869.7 1356.74 1870.86 1355.87 C 1872.75 1356.27 1874.64 1356.69 1876.53 1357.13 C 1873.42 1357.83 1871.17 1358.22 1868.05 1359.15 L 1867.59 1358.1 z" fill="rgb(249,242,252)" transform="translate(0,0)"></path>
<path d="M 1242.92 475.068 C 1243.4 476.071 1243.13 574.601 1243.17 586.731 L 1243.4 1574.21 C 1207.59 1532.74 1181.7 1499.68 1152.05 1453.72 C 1077.47 1332.4 1035.68 1193.78 1030.8 1051.45 C 1022.75 838.87 1098.99 631.715 1242.92 475.068 z" fill="rgb(253,252,252)" transform="translate(0,0)"></path>
<path d="M 805.29 475.51 C 815.051 480.643 842.74 517.294 850.552 527.531 C 920.065 618.622 969.138 722.474 995.872 833.882 C 1001.69 858.131 1005.74 880.818 1009.39 905.61 C 1031.57 1056.34 1011.24 1210.27 950.691 1350.07 C 935.379 1385.51 917.608 1417.81 897.894 1450.87 C 866.77 1500.08 843.954 1529.39 805.127 1573.54 L 805.193 1047.79 L 805.063 658.318 C 805.118 597.566 804.573 536.201 805.29 475.51 z" fill="rgb(253,252,252)" transform="translate(0,0)"></path>
<path d="M 186.422 688.871 C 202.085 679.14 221.44 671.568 238.981 665.931 C 304.471 644.955 374.456 642.32 441.338 658.312 C 540.187 681.706 625.689 743.423 679.021 829.877 C 729.349 911.22 744.03 1015.26 723.526 1108.3 C 702.439 1203.99 639.226 1290.48 556.418 1342.24 C 472.46 1394.72 368.6 1414.48 271.824 1392.21 C 250.877 1387.43 209.487 1373.38 190.801 1362.6 C 189.803 1362.48 189.48 1362.44 188.484 1362.06 C 186.657 1361.41 186.253 1360.46 186.278 1360.42 C 187.238 1358.71 204.65 1360.2 205.696 1360.33 C 304.244 1355.7 387.14 1327.68 455.219 1252.82 C 515.781 1186.65 547.571 1099.13 543.594 1009.52 C 539.183 917.169 502.216 836.379 433.304 774.426 C 364.152 712.258 278.367 686.332 186.422 688.871 z" fill="rgb(253,252,252)" transform="translate(0,0)"></path>
<path d="M 190.801 1362.6 C 189.803 1362.48 189.48 1362.44 188.484 1362.06 C 186.657 1361.41 186.253 1360.46 186.278 1360.42 C 187.238 1358.71 204.65 1360.2 205.696 1360.33 C 202.2 1363.67 196.714 1359.45 190.801 1362.6 z" fill="rgb(249,242,252)" transform="translate(0,0)"></path>
<path d="M 325.419 892.878 C 397.345 891.38 456.914 948.379 458.587 1020.3 C 460.26 1092.22 403.406 1151.93 331.488 1153.78 C 259.324 1155.63 199.366 1098.54 197.687 1026.37 C 196.008 954.201 253.246 894.382 325.419 892.878 z" fill="rgb(253,252,252)" transform="translate(0,0)"></path>
<metadata><recraft-signature>{"signed_by": "recraft", "signature_b64": "9I7Vu++CoAks83rN6N1RkNhW31byRNy9tDE0p4VrIIXShlxT4BeHk2yeScjCaime1t/rV87kibjpknb/Ay9bCg==", "signing_algo": "Ed25519", "generation_timestamp": 1772810073, "identifier": "73a47603-5966-40e8-9811-abf5b2e740ce"}</recraft-signature></metadata></svg>