<svg xmlns="http://www.w3.org/2000/svg" height="1024" preserveAspectRatio="none" style="display: block;" version="1.1" viewBox="0 0 2048 2048" width="1024">
<path d="M 0 0 L 2048 0 L 2048 2048 L 0 2048 L 0 0 z" fill="rgb(255,255,255)" transform="translate(0,0)"></path>
<path d="M 1157.46 277.206 C 1176.19 276.826 1371.24 275.657 1376.96 277.641 C 1374.63 278.776 1374.36 279.047 1371.85 279.505 C 1304.86 300.273 1249.65 329.422 1195.15 373.265 C 1159.26 402.142 1122.25 441.44 1089.11 474.392 L 919.605 643.007 L 532.985 1028.54 C 483.3 1078.25 433.321 1127.66 383.45 1177.17 C 379.935 1181.38 372.145 1187.16 371.836 1192.93 C 370.35 1220.65 371.063 1248.84 371.062 1276.61 L 371.142 1436.44 C 371.158 1456.81 370.933 1477.3 371.122 1497.66 C 371.263 1512.89 367.237 1520.91 365.035 1535.32 C 289.477 1427.3 278.956 1323.79 278.999 1196.75 L 279.052 1079.44 L 278.982 795.948 C 279.62 516.486 495.798 294.304 773.112 278.824 C 794.16 277.649 814.348 277.705 835.419 277.655 L 922.729 277.563 L 1157.46 277.206 z" fill="rgb(98,30,238)" transform="translate(0,0)"></path>
<path d="M 1157.46 277.206 C 1176.19 276.826 1371.24 275.657 1376.96 277.641 C 1374.63 278.776 1374.36 279.047 1371.85 279.505 C 1362.08 274.374 1187.77 281.669 1157.46 277.206 z" fill="rgb(137,97,216)" transform="translate(0,0)"></path>
<path d="M 1767.73 707.154 L 1771.13 705.947 C 1770.87 712.084 1771.05 718.293 1770.88 724.492 C 1771.83 764.37 1770.84 806.46 1770.63 846.531 L 1770.18 1038.64 L 1770.26 1202.57 C 1770.15 1235.88 1770.89 1270.83 1767.86 1303.85 C 1758.48 1406.04 1722.95 1493.45 1660.15 1573.96 C 1575.99 1680.74 1452.96 1749.84 1317.98 1766.13 C 1277.49 1771.06 1240.22 1770.03 1199.59 1770.05 L 1056.03 1770.08 L 881.923 1770.07 C 844.327 1770.14 802.794 1771.33 765.775 1768.24 C 665.713 1759.9 575.768 1722.53 496.938 1660.8 C 499.817 1659.01 503.872 1656.15 507.169 1655.97 C 540.974 1654.12 575.511 1655.79 609.509 1655.86 C 676.809 1656.03 744.111 1655.82 811.409 1655.24 C 822.184 1655.12 884.624 1657.35 890.122 1652.39 C 914.379 1630.51 939.31 1604.81 962.302 1581.4 L 1044.23 1499.6 L 1285.44 1258.83 L 1555.32 989.016 L 1639.48 904.734 C 1652.18 891.992 1664.93 879.316 1677.4 866.34 C 1719.24 822.764 1746.03 770.431 1766 714.04 C 1766.52 711.594 1767.13 709.568 1767.73 707.154 z" fill="rgb(98,30,238)" transform="translate(0,0)"></path>
<path d="M 1767.73 707.154 L 1771.13 705.947 C 1770.87 712.084 1771.05 718.293 1770.88 724.492 C 1769.86 720.93 1769.95 715.217 1766 714.04 C 1766.52 711.594 1767.13 709.568 1767.73 707.154 z" fill="rgb(121,51,245)" transform="translate(0,0)"></path>
<path d="M 1691.29 605.423 C 1701.98 604.856 1713.49 605.08 1724.26 605.087 C 1722.05 655.884 1702.68 712.926 1676.14 756.199 C 1613.36 858.536 1512.35 913.587 1393.28 918.891 C 1358.95 920.42 1321.88 918.463 1287.14 919.051 C 1250.71 919.463 1214.44 923.903 1178.98 932.291 C 1169.39 934.271 1158.08 937.813 1148.53 940.546 C 1162.51 925.504 1179.01 909.8 1193.64 895.105 C 1220.4 867.996 1247.38 841.093 1274.55 814.4 C 1301.97 787.567 1328.69 759.276 1357.89 734.422 C 1453.77 652.806 1565.83 611.394 1691.29 605.423 z" fill="rgb(98,30,238)" transform="translate(0,0)"></path>
<path d="M 1150.68 496.802 C 1151.48 499.402 1151.17 535.44 1151.12 540.804 C 1150.68 582.267 1152.24 625.294 1150.28 666.592 C 1145.12 775.792 1104.2 883.438 1034.11 967.48 C 1006.61 1000.45 965.819 1038.71 934.482 1069.4 C 910.389 1092.99 878.756 1127.56 853.791 1149.54 C 853.218 1144.86 861.83 1118.74 863.249 1112.15 C 866.588 1096.65 869.606 1081.49 871.881 1065.73 C 875.442 1041.89 877.43 1017.85 877.832 993.751 C 878.237 972.281 877.326 950.506 878.373 929.088 C 883.745 833.49 919.404 742.082 980.188 668.1 C 1002.36 641.612 1037.34 608.366 1062.44 583.774 C 1090.6 556.18 1121.85 522.92 1150.68 496.802 z" fill="rgb(98,30,238)" transform="translate(0,0)"></path>
<path d="M 537.542 1110.92 C 538.869 1113.45 533.471 1153.64 533.129 1160.76 C 531.229 1200.23 532.118 1239.71 532.219 1279.23 L 532.232 1466.25 C 510.355 1490.6 481.81 1516.32 458.563 1540.47 C 482.676 1545.88 499.772 1557.03 507.226 1581.95 C 535.97 1554.14 564.245 1525.17 592.888 1497.71 C 638.596 1497.05 684.31 1496.81 730.022 1496.99 L 958.182 1497.09 C 950.157 1506.84 935.664 1520.52 926.43 1529.76 L 867.206 1589.14 C 827.916 1590.95 777.67 1589.45 737.5 1589.36 L 508.312 1589.34 C 508 1595.73 507.696 1603.5 503.426 1608.48 C 489.478 1624.76 471.379 1642.18 456.228 1657.25 L 401.532 1711.09 C 391.596 1720.96 381.774 1731.57 371.641 1741.11 C 351.882 1721.56 320.58 1691.96 303.74 1671.46 C 346.903 1627.06 393.068 1583.53 437.098 1539.47 C 437.617 1510.54 437.124 1480.68 437.202 1451.68 L 437.093 1210.73 C 440.771 1206.82 444.878 1203.05 448.77 1199.33 C 478.924 1170.48 507.576 1139.93 537.542 1110.92 z" fill="rgb(98,30,238)" transform="translate(0,0)"></path>
<path d="M 822.562 827.848 C 823.314 832.258 814.584 864.907 813.496 873.563 C 809.153 908.094 807.636 942.202 808.315 977 C 810.575 1092.72 777.231 1204.76 702.956 1294.63 C 687.46 1313.38 671.749 1328.35 654.532 1345.6 L 597.602 1402.97 C 596.574 1398.71 596.714 1347.07 596.852 1337.99 C 597.609 1287.97 595.741 1235.79 597.17 1186 C 598.106 1138.16 606.331 1090.73 621.562 1045.36 C 631.783 1015.7 635.96 1011.93 658.771 990.194 C 714.36 937.217 766.693 880.5 822.562 827.848 z" fill="rgb(98,30,238)" transform="translate(0,0)"></path>
<path d="M 1461.92 984.617 C 1465.66 984.212 1467.18 983.388 1470.1 984.693 C 1468.61 989.615 1296.24 1159.11 1276.02 1179.22 L 1154.15 1178.67 C 1061.61 1177.41 986.312 1173.67 896.292 1200.76 C 895.223 1201.01 893.59 1201.22 892.468 1201.39 C 892.637 1197.72 904.292 1187.83 907.361 1184.71 C 919.664 1172.14 932.069 1159.67 944.575 1147.3 C 962.038 1129.74 982.805 1107.58 1001.22 1091.92 C 1075.22 1028.95 1183.89 991.229 1280.45 987.353 C 1342.61 984.857 1397.39 991.308 1461.92 984.617 z" fill="rgb(98,30,238)" transform="translate(0,0)"></path>
<path d="M 1442.32 329.366 C 1446.4 328.914 1444.85 328.351 1447.96 329.796 C 1449.94 333.778 1448.45 368.996 1448.09 376.206 C 1442.7 489.312 1397.86 596.955 1321.35 680.436 C 1298.47 705.383 1267.37 731.618 1242.14 754.614 C 1227.77 767.71 1213.83 781.208 1199.47 794.247 L 1196.6 796.372 L 1195.53 795.667 C 1195.78 788.928 1202.82 766.736 1204.63 757.719 C 1216.16 700.52 1215.49 644.078 1215.32 586.161 L 1214.97 445.29 C 1229.43 432.04 1245.02 417.731 1260.59 405.806 C 1310.94 367.255 1379.43 338.346 1442.32 329.366 z" fill="rgb(98,30,238)" transform="translate(0,0)"></path>
<path d="M 1036.93 1244.46 C 1052.99 1243.87 1068.92 1244.48 1084.98 1244.45 L 1211.29 1244.73 L 1099.87 1355.56 C 1075.59 1379.78 1049.59 1405.04 1026.15 1429.98 C 1005.36 1430.57 982.265 1430.03 961.293 1430.01 L 837.5 1429.91 L 660.186 1429.89 L 711.155 1379.67 C 725.505 1365.62 738.624 1352.26 754.217 1339.54 C 832.844 1275.38 936.938 1248.48 1036.93 1244.46 z" fill="rgb(98,30,238)" transform="translate(0,0)"></path>
<path d="M 1523.19 324.531 C 1589.11 323.15 1658.99 324.025 1725.09 324.15 C 1726.67 395.327 1725.06 472.217 1725.24 543.874 C 1686.72 543.149 1657.39 542.374 1618.76 547.57 C 1567.36 553.573 1506.13 570.092 1459.77 593.335 C 1465.22 579.425 1472.06 565.766 1477.61 551.252 C 1496.63 501.736 1508.93 449.896 1514.19 397.114 C 1516.55 372.245 1515.97 349.804 1517.63 326.025 C 1519.75 324.114 1519.59 324.751 1523.19 324.531 z" fill="rgb(98,30,238)" transform="translate(0,0)"></path>
<path d="M 1767.73 707.154 C 1768.16 705.668 1769.21 700.707 1770.44 699.854 C 1771.36 700.408 1771.11 705.161 1771.13 705.947 L 1767.73 707.154 z" fill="rgb(137,97,216)" transform="translate(0,0)"></path>
<metadata><recraft-signature>{"signed_by": "recraft", "signature_b64": "I7gN5rKwUsoh1tvmNnT7QFI8n/Cu2cSuUu5c+AcTffIObYfVdkDfNpqpRualFz9y6B7EnFr287hrV9ZBrPCZDg==", "signing_algo": "Ed25519", "generation_timestamp": 1772810028, "identifier": "cfbae364-649d-4b03-be7f-837022048444"}</recraft-signature></metadata></svg>