<svg xmlns="http://www.w3.org/2000/svg" height="1024" preserveAspectRatio="none" style="display: block;" version="1.1" viewBox="0 0 2048 2048" width="1024">
<path d="M 0 0 L 2048 0 L 2048 2048 L 0 2048 L 0 0 z" fill="rgb(255,255,255)" transform="translate(0,0)"></path>
<path d="M 1002.63 562.421 C 1059.17 556.708 1126.96 572.385 1177.54 597.216 C 1260.41 638.907 1323.66 711.385 1353.75 799.131 C 1411.24 970.015 1329.49 1160.23 1163.26 1231.8 C 1151.04 1237.06 1138.69 1241.33 1126.06 1245.47 L 1126.08 1377.58 C 1126.1 1397.1 1127.15 1437.12 1124.47 1454.33 C 1122.19 1468.96 1116.94 1482.98 1109.06 1495.52 C 1094.67 1518.26 1072.36 1532.66 1046.38 1538.61 C 1011.44 1545.59 978.416 1536.02 952.883 1510.98 C 939.494 1497.78 930.109 1481.07 925.811 1462.76 C 922.164 1446.56 923.695 1396.7 923.759 1378.09 C 923.91 1333.8 923.718 1289.51 923.185 1245.22 C 874.29 1227.76 838.625 1210.86 798.654 1176.35 C 651.715 1049.49 637.059 827.071 765.044 680.968 C 825.298 611.396 910.812 568.728 1002.63 562.421 z" fill="rgb(145,29,204)" transform="translate(0,0)"></path>
<path d="M 1012.29 714.73 C 1122.18 707.721 1216.99 790.997 1224.23 900.868 C 1231.46 1010.74 1148.38 1105.73 1038.52 1113.18 C 928.347 1120.66 833.028 1037.28 825.775 927.096 C 818.522 816.908 902.09 721.759 1012.29 714.73 z" fill="rgb(255,255,255)" transform="translate(0,0)"></path>
<path d="M 1015.34 824.928 C 1065.22 819.233 1110.25 855.119 1115.82 905.011 C 1121.39 954.903 1085.39 999.839 1035.49 1005.29 C 985.757 1010.72 941.011 974.876 935.457 925.157 C 929.904 875.438 965.638 830.604 1015.34 824.928 z" fill="rgb(145,29,204)" transform="translate(0,0)"></path>
<path d="M 285.613 1314.07 C 304.376 1318.91 321.781 1326.17 339.674 1333.49 C 416.163 1364.09 486.172 1408.89 546.007 1465.51 C 621.423 1536.3 680.006 1623.09 717.442 1719.51 C 720.377 1726.97 732.434 1756.85 732.578 1762.82 C 725.883 1762.89 718.96 1762.9 712.277 1762.73 C 660.433 1761.39 608.035 1764.24 556.285 1762.8 C 481.587 1761.36 410.71 1729.5 360.056 1674.58 C 320.645 1632.66 294.162 1576.37 287.461 1519.09 C 284.228 1491.45 285.075 1453.7 285.168 1425.01 C 285.286 1388.87 284.5 1350.03 285.613 1314.07 z" fill="rgb(145,29,204)" transform="translate(0,0)"></path>
<path d="M 1762.84 1314.18 C 1763.59 1320.69 1763.35 1328.67 1763.36 1335.35 L 1763.13 1444.03 C 1763.06 1465.73 1763.88 1495.13 1761.92 1516.06 C 1755.4 1579.62 1726.99 1638.94 1681.54 1683.85 C 1632.03 1733.07 1564.67 1761.35 1495.15 1761.9 C 1477.55 1762.04 1459.94 1762.32 1442.33 1762.44 L 1317.57 1762.8 C 1316.2 1750.21 1363.65 1649.77 1373.38 1632.44 C 1447.85 1498.64 1565.31 1393.91 1706.74 1335.2 C 1722.38 1328.81 1746.98 1318.61 1762.84 1314.18 z" fill="rgb(145,29,204)" transform="translate(0,0)"></path>
<path d="M 549.624 289.427 C 569.029 288.211 597.015 289.011 617.003 289.01 L 739.281 289.035 C 733.238 302.831 727.692 319.001 721.924 333.224 C 715.915 347.696 709.286 361.903 702.054 375.804 C 638.067 499.338 539.615 601.654 418.635 670.347 C 380.98 692.503 326.757 717.296 285.038 730.964 L 284.757 618.273 C 284.677 593.993 283.283 565.747 285.712 541.964 C 299.929 402.791 410.011 296.94 549.624 289.427 z" fill="rgb(145,29,204)" transform="translate(0,0)"></path>
<path d="M 1311.22 288.328 C 1355.62 289.969 1401.36 288.426 1445.88 288.927 C 1469.13 289.188 1493.69 287.995 1516.7 290.34 C 1579.34 296.812 1637.88 324.552 1682.55 368.938 C 1729.39 414.955 1757.82 476.49 1762.5 541.987 C 1763.93 561.556 1763.05 590.185 1763.05 610.59 L 1763.01 729.639 C 1733.12 718.989 1703.79 706.841 1675.13 693.243 C 1504.99 611.788 1374.12 466.165 1311.22 288.328 z" fill="rgb(145,29,204)" transform="translate(0,0)"></path>
<path d="M 851.766 288.932 L 1196.74 289.059 C 1224.3 378.347 1253.31 438.323 1305.08 516.349 C 1298.14 516.525 1272.57 517.657 1267.97 516.222 C 1256.61 512.68 1236.77 501.256 1225.23 495.745 C 1208.32 487.601 1190.99 480.367 1173.3 474.072 C 1069.51 438.793 956.504 441.965 854.855 483.011 C 843.152 487.665 831.656 492.826 820.401 498.479 C 780.048 519.049 790.788 517.708 743.584 516.661 C 750.667 505.606 758.263 495.053 765.101 483.717 C 802.063 422.69 831.181 357.245 851.766 288.932 z" fill="rgb(145,29,204)" transform="translate(0,0)"></path>
<path d="M 1631.43 791.563 C 1678.47 814.481 1716.12 829.786 1766.64 844.707 C 1767.94 961.675 1766.89 1082.07 1766.28 1199.2 C 1754.63 1201.92 1743.16 1205.26 1731.64 1208.5 C 1709.64 1215.47 1687.84 1223.05 1666.27 1231.24 C 1654.42 1235.87 1643.07 1241.47 1631.22 1245.96 L 1631.14 931.442 C 1631.16 885.281 1630.59 837.633 1631.43 791.563 z" fill="rgb(145,29,204)" transform="translate(0,0)"></path>
<path d="M 415.591 795.007 L 416.52 795.874 C 417.58 803.447 417.022 830.228 417.031 838.844 L 417.077 930.772 L 417.072 1245.45 C 384.902 1232.68 356.163 1219.63 322.478 1210.42 C 311.384 1206.92 296.491 1203.54 285.03 1200.71 C 283.728 1084.03 284.571 963.409 285.17 846.622 C 335.882 830.047 367.605 816.761 415.591 795.007 z" fill="rgb(145,29,204)" transform="translate(0,0)"></path>
<path d="M 532.425 1314.94 L 813.943 1314.98 L 813.989 1508.47 C 814.013 1556.28 813.425 1605.05 814.265 1652.72 L 810.725 1654.16 C 740.703 1506.02 662.682 1412.71 532.425 1314.94 z" fill="rgb(145,29,204)" transform="translate(0,0)"></path>
<path d="M 1237.05 1315.03 L 1517.42 1315.04 C 1419.76 1382.83 1338.58 1471.71 1279.87 1575.09 C 1264.44 1602.05 1254.27 1626.91 1240.71 1652.32 C 1240.39 1655.02 1238.22 1659.38 1237.07 1662.13 C 1237.16 1653.97 1237 1643.78 1237.82 1635.84 C 1236.06 1528.91 1235.81 1421.96 1237.05 1315.03 z" fill="rgb(145,29,204)" transform="translate(0,0)"></path>
<path d="M 1237.82 1635.84 C 1238.77 1643.39 1237.16 1646.47 1240.71 1652.32 C 1240.39 1655.02 1238.22 1659.38 1237.07 1662.13 C 1237.16 1653.97 1237 1643.78 1237.82 1635.84 z" fill="rgb(170,39,218)" transform="translate(0,0)"></path>
<path d="M 1377.81 617.861 C 1395.22 623.432 1445.83 671.602 1462.77 684.659 C 1482.98 700.238 1504.24 715.761 1525.27 730.569 L 1525.54 1204.92 L 1419.5 1205.07 L 1374.48 1205.06 C 1424.76 1146.53 1458.93 1075.91 1473.64 1000.16 C 1494.32 890.611 1475.29 777.275 1419.96 680.486 C 1405.6 655.04 1393.13 640.733 1377.81 617.861 z" fill="rgb(145,29,204)" transform="translate(0,0)"></path>
<path d="M 667.546 620.897 L 668.426 621.55 C 668.216 623.116 650.357 647.732 647.732 651.806 C 553.733 797.663 539.753 985.961 627.528 1138.25 C 641.508 1162.51 658.083 1183.2 675.161 1205.2 L 633.5 1205.1 L 526.344 1205.06 C 525.259 1159.63 526.194 1109.93 526.194 1064.12 L 525.841 729.959 C 550.679 713.034 570.48 698.679 593.617 679.652 C 616.969 660.448 642.312 636.761 667.546 620.897 z" fill="rgb(145,29,204)" transform="translate(0,0)"></path>
<path d="M 924.77 1626.1 C 996.499 1661.45 1052.36 1663.41 1123.91 1626.46 C 1123.43 1663.17 1123.91 1700.74 1123.98 1737.51 L 1124.06 1762.59 C 1057.97 1761.8 990.944 1763.2 924.606 1762.76 L 924.77 1626.1 z" fill="rgb(145,29,204)" transform="translate(0,0)"></path>
<path d="M 810.725 1654.16 L 814.265 1652.72 L 814.253 1656.06 C 814.262 1661.84 811.456 1655.59 810.725 1654.16 z" fill="rgb(170,39,218)" transform="translate(0,0)"></path>
<metadata><recraft-signature>{"signed_by": "recraft", "signature_b64": "TcG5ky4hdXtNQUch10R+J3t0Z7FVFsaoNFvLYM6H54pvkHPAab7Olw09OqpU3dJjx0WHlLj1Fg2CRHMpAh6bCQ==", "signing_algo": "Ed25519", "generation_timestamp": 1772810051, "identifier": "c2ce7eab-96ce-4f7d-81c6-2b58615c9f78"}</recraft-signature></metadata></svg>