<svg xmlns="http://www.w3.org/2000/svg" height="1024" preserveAspectRatio="none" style="display: block;" version="1.1" viewBox="0 0 2048 2048" width="1024">
<path d="M 0 0 L 2048 0 L 2048 2048 L 0 2048 L 0 0 z" fill="rgb(255,255,255)" transform="translate(0,0)"></path>
<path d="M 288.174 932.235 C 287.101 871.072 287.325 809.608 287.793 748.428 C 288.096 708.773 285.608 665.762 288.405 626.442 C 300.985 449.567 449.353 303.374 624.576 286.361 C 653.487 283.553 686.458 284.903 715.729 284.893 L 852.897 284.785 L 1001.72 284.916 C 1023.38 284.893 1056.82 283.463 1076.9 284.975 L 1290.73 285.193 C 1321.48 285.165 1353.07 285.788 1383.75 285.1 C 1488.3 282.756 1583.12 320.926 1657.71 395.294 C 1716.47 454.906 1753.72 532.39 1763.56 615.519 C 1766.43 641.078 1765.75 668.378 1765.77 694.206 L 1765.74 801.939 L 1765.69 829.463 L 1765.74 918.295 C 1765.71 936.674 1766.17 958.215 1765.15 976.273 C 1765.55 981.686 1765.54 987.294 1765.43 992.727 C 1764.93 1018.7 1765.67 1044.67 1765.7 1070.62 L 1764.62 1070.09 C 1763.63 1075.46 1763.43 1080.34 1763.06 1085.77 C 1762.76 1100.01 1758.98 1123.33 1756.95 1137.67 C 1741.04 1250.15 1695.55 1359.43 1629.81 1451.93 C 1611.47 1477.72 1584.34 1513.5 1561.66 1535.41 C 1558.17 1538.75 1554.6 1542 1550.95 1545.17 L 1551.22 1444.34 C 1551.26 1428.88 1552.17 1402.31 1550.38 1387.88 C 1544.76 1355.29 1524.24 1333.13 1495.63 1318.55 C 1435.52 1299.02 1378.64 1325.12 1363.17 1388.29 C 1360.4 1410.56 1362.55 1437.8 1361.11 1460.85 C 1361.06 1471.3 1360.11 1517.59 1362.19 1525.07 C 1359.01 1552.87 1368.93 1580.57 1389.03 1600.03 C 1409.14 1619.49 1437.15 1628.49 1464.83 1624.4 C 1376.67 1688.58 1267.5 1733.24 1160.59 1751.66 C 1141 1755.04 1111.62 1761.43 1091.84 1760.98 L 1087.92 1763.22 C 1083.55 1763.32 1079.17 1763.27 1074.81 1763.07 C 1072.33 1763.36 1068.49 1763.17 1065.87 1763.12 C 1056.62 1764.01 1032.97 1763.34 1022.86 1763.35 L 922.935 1762.9 C 832.687 1762.72 742.066 1763.03 651.799 1763.27 C 553.23 1763.54 462.117 1723.66 393.165 1653.1 C 334.195 1593.57 297.42 1515.61 288.974 1432.24 C 287.145 1412.35 287.496 1391.69 287.47 1371.69 L 287.345 1295.98 L 288.009 1077.56 C 287.964 1032.56 286.012 976.263 288.174 932.235 z" fill="rgb(255,255,255)" transform="translate(0,0)"></path>
<path d="M 288.174 932.235 C 287.101 871.072 287.325 809.608 287.793 748.428 C 288.096 708.773 285.608 665.762 288.405 626.442 C 300.985 449.567 449.353 303.374 624.576 286.361 C 653.487 283.553 686.458 284.903 715.729 284.893 L 852.897 284.785 L 1001.72 284.916 C 1023.38 284.893 1056.82 283.463 1076.9 284.975 L 1290.73 285.193 C 1321.48 285.165 1353.07 285.788 1383.75 285.1 C 1488.3 282.756 1583.12 320.926 1657.71 395.294 C 1716.47 454.906 1753.72 532.39 1763.56 615.519 C 1766.43 641.078 1765.75 668.378 1765.77 694.206 L 1765.74 801.939 L 1765.69 829.463 L 1765.74 918.295 C 1765.71 936.674 1766.17 958.215 1765.15 976.273 C 1765.55 981.686 1765.54 987.294 1765.43 992.727 C 1764.93 1018.7 1765.67 1044.67 1765.7 1070.62 L 1764.62 1070.09 C 1763.63 1075.46 1763.43 1080.34 1763.06 1085.77 C 1762.76 1100.01 1758.98 1123.33 1756.95 1137.67 C 1741.04 1250.15 1695.55 1359.43 1629.81 1451.93 C 1611.47 1477.72 1584.34 1513.5 1561.66 1535.41 C 1558.17 1538.75 1554.6 1542 1550.95 1545.17 L 1551.22 1444.34 C 1551.26 1428.88 1552.17 1402.31 1550.38 1387.88 L 1551.7 1387.03 C 1552.91 1359.75 1552.58 1329.36 1552.74 1301.92 C 1552.9 1276.36 1556.01 1237.64 1542.75 1215.65 C 1552.41 1183.45 1559.89 1150.63 1565.15 1117.42 C 1583.08 1001.08 1565.34 873.486 1512.16 767.749 C 1498.49 741.812 1481.97 715.91 1464.39 692.599 C 1305.52 481.947 1017.32 405.11 780.307 529.227 C 613.404 616.627 512.267 754.254 484.378 940.603 C 483.155 935.275 482.289 929.548 481.178 924.14 C 473.662 887.543 448.269 859.302 411.54 850.604 C 385.226 844.175 357.431 848.617 334.43 862.925 C 308.156 879.555 294.788 902.523 288.174 932.235 z" fill="rgb(9,122,211)" transform="translate(0,0)"></path>
<path d="M 1076.9 284.975 L 1290.73 285.193 C 1321.48 285.165 1353.07 285.788 1383.75 285.1 C 1488.3 282.756 1583.12 320.926 1657.71 395.294 C 1716.47 454.906 1753.72 532.39 1763.56 615.519 C 1766.43 641.078 1765.75 668.378 1765.77 694.206 L 1765.74 801.939 L 1765.69 829.463 L 1765.74 918.295 C 1765.71 936.674 1766.17 958.215 1765.15 976.273 C 1763.78 971.22 1763.52 969.553 1763.08 964.326 C 1763.21 952.334 1758.79 921.634 1756.93 909.117 C 1741.92 810.023 1707.03 714.988 1654.35 629.727 C 1533.03 429.212 1308.92 298.864 1077.94 285.265 C 1077.6 285.168 1077.25 285.072 1076.9 284.975 z" fill="rgb(0,0,0)" transform="translate(0,0)"></path>
<path d="M 1763.08 964.326 L 1763.92 965.1 L 1764.75 964.84 C 1766.16 934.345 1763.9 899.523 1764.83 868.692 C 1765.18 857.35 1764.07 840.105 1765.69 829.463 L 1765.74 918.295 C 1765.71 936.674 1766.17 958.215 1765.15 976.273 C 1763.78 971.22 1763.52 969.553 1763.08 964.326 z" fill="rgb(5,57,112)" transform="translate(0,0)"></path>
<path d="M 288.174 932.235 C 294.788 902.523 308.156 879.555 334.43 862.925 C 357.431 848.617 385.226 844.175 411.54 850.604 C 448.269 859.302 473.662 887.543 481.178 924.14 C 482.289 929.548 483.155 935.275 484.378 940.603 C 482.226 965.437 480.001 987.766 479.85 1012.73 C 479.034 1147.65 520.446 1278.4 607.803 1382.23 C 644.56 1425.92 711.215 1485.36 763.586 1508.58 C 763.998 1508.11 764.544 1507.71 764.76 1507.12 C 768.354 1502.77 781.768 1491.32 786.462 1487.16 L 832.132 1446.84 C 875.342 1408.94 923.547 1364.32 967.886 1328.79 L 967.731 1476.96 C 968.29 1507.76 968.228 1541.83 967.784 1572.71 C 995.07 1576.37 1037.88 1578.08 1065.19 1574.01 L 1065.46 1574.98 C 1136.13 1569.66 1192.95 1554.21 1256.78 1524.91 L 1256.98 1524.26 C 1278.98 1517.4 1315.08 1493.02 1334.4 1479.34 C 1342.92 1473.32 1352.09 1466 1361.11 1460.85 C 1361.06 1471.3 1360.11 1517.59 1362.19 1525.07 C 1359.01 1552.87 1368.93 1580.57 1389.03 1600.03 C 1409.14 1619.49 1437.15 1628.49 1464.83 1624.4 C 1376.67 1688.58 1267.5 1733.24 1160.59 1751.66 C 1141 1755.04 1111.62 1761.43 1091.84 1760.98 L 1087.92 1763.22 C 1083.55 1763.32 1079.17 1763.27 1074.81 1763.07 C 1072.33 1763.36 1068.49 1763.17 1065.87 1763.12 C 1056.62 1764.01 1032.97 1763.34 1022.86 1763.35 L 922.935 1762.9 C 832.687 1762.72 742.066 1763.03 651.799 1763.27 C 553.23 1763.54 462.117 1723.66 393.165 1653.1 C 334.195 1593.57 297.42 1515.61 288.974 1432.24 C 287.145 1412.35 287.496 1391.69 287.47 1371.69 L 287.345 1295.98 L 288.009 1077.56 C 287.964 1032.56 286.012 976.263 288.174 932.235 z" fill="rgb(0,0,0)" transform="translate(0,0)"></path>
<path d="M 288.009 1077.56 C 292.305 1091.17 291.973 1118.53 294.522 1134.08 C 299.685 1165.59 305.435 1196.58 314.035 1227.42 C 364.106 1413.16 499.493 1579.52 666.813 1672.81 C 706.978 1695.21 759.021 1716.72 803.19 1730.31 C 807.453 1731.63 820.19 1735.71 824.016 1735.54 C 838.634 1739.81 846.567 1744.27 862.472 1744.3 C 890.156 1744.59 916.782 1733.68 936.302 1714.05 C 975.076 1674.89 967.05 1623.59 967.018 1573.35 C 968.541 1542.36 966.509 1508.6 967.731 1476.96 C 968.29 1507.76 968.228 1541.83 967.784 1572.71 C 995.07 1576.37 1037.88 1578.08 1065.19 1574.01 L 1065.46 1574.98 C 1136.13 1569.66 1192.95 1554.21 1256.78 1524.91 L 1256.98 1524.26 C 1278.98 1517.4 1315.08 1493.02 1334.4 1479.34 C 1342.92 1473.32 1352.09 1466 1361.11 1460.85 C 1361.06 1471.3 1360.11 1517.59 1362.19 1525.07 C 1359.01 1552.87 1368.93 1580.57 1389.03 1600.03 C 1409.14 1619.49 1437.15 1628.49 1464.83 1624.4 C 1376.67 1688.58 1267.5 1733.24 1160.59 1751.66 C 1141 1755.04 1111.62 1761.43 1091.84 1760.98 L 1087.92 1763.22 C 1083.55 1763.32 1079.17 1763.27 1074.81 1763.07 C 1072.33 1763.36 1068.49 1763.17 1065.87 1763.12 C 1056.62 1764.01 1032.97 1763.34 1022.86 1763.35 L 922.935 1762.9 C 832.687 1762.72 742.066 1763.03 651.799 1763.27 C 553.23 1763.54 462.117 1723.66 393.165 1653.1 C 334.195 1593.57 297.42 1515.61 288.974 1432.24 C 287.145 1412.35 287.496 1391.69 287.47 1371.69 L 287.345 1295.98 L 288.009 1077.56 z" fill="rgb(9,122,211)" transform="translate(0,0)"></path>
<path d="M 1256.78 1524.91 C 1257.46 1546.86 1257.26 1571.64 1257.26 1593.69 C 1257.26 1614.74 1258.74 1648.76 1253.97 1668.03 C 1249.61 1685.3 1240.91 1701.17 1228.71 1714.14 C 1211.91 1731.85 1187.5 1743.47 1162.94 1743.86 C 1137.09 1744.46 1112.11 1734.48 1093.78 1716.24 C 1071.92 1694.68 1065.08 1666.76 1065.08 1637.08 C 1065.17 1624.81 1065.18 1612.54 1065.12 1600.27 C 1065.06 1594.15 1064.65 1580.53 1065.46 1574.98 C 1136.13 1569.66 1192.95 1554.21 1256.78 1524.91 z" fill="rgb(255,255,255)" transform="translate(0,0)"></path>
<path d="M 1084.18 1761.08 C 1086.74 1761.06 1089.29 1761.03 1091.84 1760.98 L 1087.92 1763.22 C 1083.55 1763.32 1079.17 1763.27 1074.81 1763.07 C 1078.04 1762.35 1081.02 1762.1 1084.18 1761.08 z" fill="rgb(5,57,112)" transform="translate(0,0)"></path>
<path d="M 873.951 1747.7 C 877.433 1746.31 879.858 1747.82 884.252 1748.77 C 881.137 1749.06 876.067 1750.38 873.951 1747.7 z" fill="rgb(4,105,196)" transform="translate(0,0)"></path>
<path d="M 765.171 1511.59 C 820.846 1540.67 903.729 1569.73 967.018 1573.35 C 967.05 1623.59 975.076 1674.89 936.302 1714.05 C 916.782 1733.68 890.156 1744.59 862.472 1744.3 C 846.567 1744.27 838.634 1739.81 824.016 1735.54 C 759.232 1696.45 764.849 1654.34 764.926 1587.5 L 765.171 1511.59 z" fill="rgb(255,255,255)" transform="translate(0,0)"></path>
<path d="M 764.76 1507.12 C 765.866 1484.78 765.046 1455.18 765.049 1432.42 L 765.063 1290.25 L 765.044 855.44 L 765.294 715.122 C 765.264 694.975 763.961 656.356 765.754 637.612 C 765.787 669.942 764.412 715.86 766.058 747.015 C 775.137 714.872 788.346 692.497 818.761 675.722 C 841.851 663.123 869.028 660.305 894.212 667.897 C 925.008 677.012 944.03 697.377 957.562 724.567 C 960.186 729.84 961.758 741.751 963.847 744.957 L 964.381 743.212 C 965.663 750.462 965.816 779.116 966.097 788.112 C 967.327 835.328 967.826 882.561 967.595 929.792 L 967.886 1328.79 C 923.547 1364.32 875.342 1408.94 832.132 1446.84 L 786.462 1487.16 C 781.768 1491.32 768.354 1502.77 764.76 1507.12 z" fill="rgb(9,122,211)" transform="translate(0,0)"></path>
<path d="M 1065.99 1057.18 C 1069.71 1046.95 1070.21 1041.29 1075.66 1030.25 C 1087.38 1006.7 1108.01 988.788 1132.98 980.498 C 1176.42 966.34 1221.42 982.467 1245.02 1021.73 C 1252 1033.34 1254.27 1043.67 1258.34 1056.31 C 1260.2 1092.47 1258.97 1137.74 1259.01 1174.51 C 1258.99 1175.97 1258.93 1177.36 1258.86 1178.82 C 1259.41 1202.12 1258.91 1226.87 1259.02 1250.23 C 1259.08 1262.81 1259.45 1293.61 1257.08 1304.36 L 1256.98 1524.26 L 1256.78 1524.91 C 1192.95 1554.21 1136.13 1569.66 1065.46 1574.98 L 1065.19 1574.01 C 1064.36 1559.98 1064.96 1539.66 1064.98 1525.09 L 1065.11 1433.78 L 1065.06 1353.24 C 1065.05 1334.44 1064.61 1315.12 1066.31 1296.44 C 1064.58 1288.44 1064.92 1260.42 1065.01 1250.65 C 1065.21 1227.28 1064.48 1202.5 1065.18 1179.24 C 1064.66 1157.58 1065.14 1134.68 1065.05 1112.93 C 1064.98 1095.69 1064.52 1073.9 1065.99 1057.18 z" fill="rgb(0,0,0)" transform="translate(0,0)"></path>
<path d="M 1065.99 1057.18 C 1069.71 1046.95 1070.21 1041.29 1075.66 1030.25 C 1087.38 1006.7 1108.01 988.788 1132.98 980.498 C 1176.42 966.34 1221.42 982.467 1245.02 1021.73 C 1252 1033.34 1254.27 1043.67 1258.34 1056.31 C 1260.2 1092.47 1258.97 1137.74 1259.01 1174.51 C 1258.82 1173.74 1258.63 1172.97 1258.44 1172.2 C 1257.73 1169.09 1257.98 1169.43 1255.93 1166.87 C 1247.14 1139 1234.91 1120.37 1208.3 1106.37 C 1185.64 1094.25 1159.01 1091.91 1134.59 1099.9 C 1109.64 1107.9 1088.81 1124.63 1076.21 1147.93 C 1072.32 1155.13 1067.3 1176.12 1065.18 1179.24 C 1064.66 1157.58 1065.14 1134.68 1065.05 1112.93 C 1064.98 1095.69 1064.52 1073.9 1065.99 1057.18 z" fill="rgb(0,0,0)" transform="translate(0,0)"></path>
<path d="M 1065.18 1179.24 C 1067.3 1176.12 1072.32 1155.13 1076.21 1147.93 C 1088.81 1124.63 1109.64 1107.9 1134.59 1099.9 C 1159.01 1091.91 1185.64 1094.25 1208.3 1106.37 C 1234.91 1120.37 1247.14 1139 1255.93 1166.87 C 1257.98 1169.43 1257.73 1169.09 1258.44 1172.2 C 1258.63 1172.97 1258.82 1173.74 1259.01 1174.51 C 1258.99 1175.97 1258.93 1177.36 1258.86 1178.82 C 1259.41 1202.12 1258.91 1226.87 1259.02 1250.23 C 1259.08 1262.81 1259.45 1293.61 1257.08 1304.36 C 1255.98 1299.85 1254.95 1292.93 1254.18 1288.17 C 1243.72 1222.94 1167.05 1192.44 1112.19 1227.03 C 1084.2 1244.68 1074.22 1264.18 1066.31 1296.44 C 1064.58 1288.44 1064.92 1260.42 1065.01 1250.65 C 1065.21 1227.28 1064.48 1202.5 1065.18 1179.24 z" fill="rgb(9,122,211)" transform="translate(0,0)"></path>
<path d="M 1255.93 1166.87 C 1257.98 1169.43 1257.73 1169.09 1258.44 1172.2 C 1258.63 1172.97 1258.82 1173.74 1259.01 1174.51 C 1258.99 1175.97 1258.93 1177.36 1258.86 1178.82 C 1256.47 1177.9 1256.51 1170.01 1255.93 1166.87 z" fill="rgb(5,57,112)" transform="translate(0,0)"></path>
<path d="M 765.754 637.612 C 767.797 608.856 778.189 586.502 800.214 567.423 C 820.038 550.095 845.97 541.416 872.231 543.32 C 898.11 545.36 921.636 556.593 938.535 576.47 C 964.017 606.441 962.308 639.821 962.976 676.693 C 963.372 698.564 963.159 721.508 964.381 743.212 L 963.847 744.957 C 961.758 741.751 960.186 729.84 957.562 724.567 C 944.03 697.377 925.008 677.012 894.212 667.897 C 869.028 660.305 841.851 663.123 818.761 675.722 C 788.346 692.497 775.137 714.872 766.058 747.015 C 764.412 715.86 765.787 669.942 765.754 637.612 z" fill="rgb(0,0,0)" transform="translate(0,0)"></path>
<path d="M 1065.99 1057.18 C 1063.36 1045.86 1065.57 965.915 1065.39 948.846 C 1065.13 924.135 1081.2 894.002 1100.95 877.051 C 1120.81 860.002 1146.75 851.763 1172.8 854.227 C 1198.25 856.439 1220.51 867.673 1237.08 887.423 C 1264.38 919.951 1258.63 960.464 1259.16 1000.12 C 1259.34 1014.45 1259.69 1042.67 1258.34 1056.31 C 1254.27 1043.67 1252 1033.34 1245.02 1021.73 C 1221.42 982.467 1176.42 966.34 1132.98 980.498 C 1108.01 988.788 1087.38 1006.7 1075.66 1030.25 C 1070.21 1041.29 1069.71 1046.95 1065.99 1057.18 z" fill="rgb(9,122,211)" transform="translate(0,0)"></path>
<path d="M 1363.17 1388.29 C 1362.27 1367.64 1363.31 1343.1 1363.5 1322.07 C 1364.28 1300.04 1362.83 1277.27 1366.51 1255.49 C 1375.54 1202.09 1428.35 1165.14 1481.52 1175.67 C 1506.43 1180.52 1528.33 1195.21 1542.28 1216.42 C 1534.17 1244.05 1510.6 1293.66 1495.63 1318.55 C 1435.52 1299.02 1378.64 1325.12 1363.17 1388.29 z" fill="rgb(9,122,211)" transform="translate(0,0)"></path>
<path d="M 1763.06 1085.77 C 1763.43 1080.34 1763.63 1075.46 1764.62 1070.09 L 1765.7 1070.62 L 1765.94 1190.87 C 1765.94 1210.48 1766.55 1234.17 1765.75 1253.53 L 1765.82 1356.52 C 1765.78 1382.85 1766.3 1410.16 1763.37 1436.29 C 1753.81 1521.55 1714.83 1596.91 1654.69 1657.37 C 1598.96 1712.96 1526.77 1749.07 1448.85 1760.3 C 1424.06 1763.62 1403.73 1763.36 1378.81 1763.39 L 1087.92 1763.22 L 1091.84 1760.98 C 1111.62 1761.43 1141 1755.04 1160.59 1751.66 C 1267.5 1733.24 1376.67 1688.58 1464.83 1624.4 C 1437.15 1628.49 1409.14 1619.49 1389.03 1600.03 C 1368.93 1580.57 1359.01 1552.87 1362.19 1525.07 C 1360.11 1517.59 1361.06 1471.3 1361.11 1460.85 C 1362.55 1437.8 1360.4 1410.56 1363.17 1388.29 C 1378.64 1325.12 1435.52 1299.02 1495.63 1318.55 C 1524.24 1333.13 1544.76 1355.29 1550.38 1387.88 C 1552.17 1402.31 1551.26 1428.88 1551.22 1444.34 L 1550.95 1545.17 C 1554.6 1542 1558.17 1538.75 1561.66 1535.41 C 1584.34 1513.5 1611.47 1477.72 1629.81 1451.93 C 1695.55 1359.43 1741.04 1250.15 1756.95 1137.67 C 1758.98 1123.33 1762.76 1100.01 1763.06 1085.77 z" fill="rgb(0,0,0)" transform="translate(0,0)"></path>
<path d="M 1362.19 1525.07 C 1367.51 1478.67 1407.41 1444.03 1454.1 1445.3 C 1500.79 1446.56 1538.76 1483.31 1541.55 1529.93 C 1544.35 1576.55 1511.03 1617.57 1464.83 1624.4 C 1437.15 1628.49 1409.14 1619.49 1389.03 1600.03 C 1368.93 1580.57 1359.01 1552.87 1362.19 1525.07 z" fill="rgb(255,255,255)" transform="translate(0,0)"></path>
<path d="M 1763.06 1085.77 C 1763.43 1080.34 1763.63 1075.46 1764.62 1070.09 L 1765.7 1070.62 L 1765.94 1190.87 C 1765.94 1210.48 1766.55 1234.17 1765.75 1253.53 C 1764.63 1247.78 1765.06 1218.36 1765.06 1210.21 L 1764.97 1116.25 C 1764.96 1111.99 1765.26 1087.99 1764.49 1084.77 L 1763.06 1085.77 z" fill="rgb(5,57,112)" transform="translate(0,0)"></path>
<metadata><recraft-signature>{"signed_by": "recraft", "signature_b64": "vf957Qt7/Aki8G4UiQZK/vjgZ00B5Ge4uE6efxJytRvLdvaK2Ok6uQtF0VCSzkZYd+l2p7f2D+QDCHkmEY61Cg==", "signing_algo": "Ed25519", "generation_timestamp": 1772809894, "identifier": "50945f5f-4d8a-48c9-9f70-3f17cadc912f"}</recraft-signature></metadata></svg>