<svg xmlns="http://www.w3.org/2000/svg" height="1024" preserveAspectRatio="none" style="display: block;" version="1.1" viewBox="0 0 2048 2048" width="1024">
<path d="M 0 0 L 2048 0 L 2048 2048 L 0 2048 L 0 0 z" fill="rgb(255,255,255)" transform="translate(0,0)"></path>
<path d="M 1310.89 271.073 C 1569.84 250.755 1784.48 438.207 1803.49 695.22 C 1806.21 731.929 1805.36 769.937 1805.51 806.782 L 1805.32 1014.28 L 1805.25 1223.73 C 1805.4 1292.08 1810.01 1355.04 1795.5 1421.94 C 1779.43 1498.88 1744.34 1570.55 1693.42 1630.42 C 1616.15 1721.68 1505.12 1777.63 1385.8 1785.44 C 1372.02 1786.47 1337.66 1787.49 1324.49 1785.75 C 1295.16 1787.37 1264.85 1786.8 1235.39 1786.72 L 1114.99 1786.66 L 745.557 1786.63 C 617.149 1785.43 498.264 1741.61 407.451 1648.82 C 337.337 1576.96 293.505 1483.55 283.037 1383.69 C 279.145 1345.63 280.268 1301.25 280.235 1262.52 L 280.154 1094.61 C 280.1 970.292 279.979 845.929 280.194 721.578 C 280.399 602.231 325.179 487.166 410.522 402.961 C 473.451 340.872 550.234 301.529 636.185 281.898 C 692.743 268.98 744.78 270.557 802.491 270.763 L 924.862 270.83 C 1052.77 270.788 1183.07 269.581 1310.89 271.073 z" fill="rgb(0,0,0)" transform="translate(0,0)"></path>
<path d="M 1310.89 271.073 C 1569.84 250.755 1784.48 438.207 1803.49 695.22 C 1806.21 731.929 1805.36 769.937 1805.51 806.782 L 1805.32 1014.28 L 1805.25 1223.73 C 1805.4 1292.08 1810.01 1355.04 1795.5 1421.94 C 1779.43 1498.88 1744.34 1570.55 1693.42 1630.42 C 1616.15 1721.68 1505.12 1777.63 1385.8 1785.44 C 1372.02 1786.47 1337.66 1787.49 1324.49 1785.75 C 1340.06 1782.46 1358.87 1780.85 1376.11 1777.31 C 1434.6 1765.6 1490.28 1742.75 1540.13 1709.99 C 1645.33 1640.23 1713.19 1538.54 1738.07 1414.71 C 1749.69 1356.83 1746.93 1301.77 1747.15 1242.98 L 1747.51 1039.76 L 1747.16 822.815 C 1746.92 765.554 1748.72 703.77 1739.09 647.655 C 1728.66 586.35 1705.62 527.879 1671.42 475.946 C 1606.81 379.585 1508.1 311.282 1395.15 284.794 C 1380.77 281.276 1366.15 278.195 1351.49 276.075 C 1338.08 274.137 1324.13 273.983 1310.89 271.073 z" fill="rgb(7,180,215)" transform="translate(0,0)"></path>
<path d="M 727.603 329.445 C 766.827 327.989 812.729 329.228 852.253 329.34 L 1058.14 329.272 L 1210.25 329.182 C 1262.35 329.045 1307.67 326.552 1359.17 336.292 C 1502.5 363.397 1627.58 465.334 1668.37 607.554 C 1675.65 632.934 1682.81 657.406 1684.49 684.361 C 1686.95 723.582 1685.97 763.325 1685.93 802.708 L 1685.86 998.714 L 1685.95 1228.49 C 1685.96 1288.26 1689.6 1359.02 1677.18 1416.7 C 1663.58 1480.12 1634.05 1539.03 1591.39 1587.89 C 1514.49 1677.48 1416.17 1718.06 1300.36 1726.89 C 1257.73 1727.62 1213.88 1727.06 1171.16 1727.07 L 930.58 1727.07 L 801.945 1727.14 C 749.03 1727.24 702.742 1729.3 650.751 1717.49 C 580.304 1701.84 515.198 1667.98 461.937 1619.29 C 388.655 1552 345.202 1458.28 341.188 1358.87 C 339.177 1310.34 340.183 1257.9 340.279 1209.16 L 340.52 975.75 L 340.196 807.988 C 340.046 746.052 337.053 684.117 351.499 623.788 C 366.909 561.704 397.773 504.528 441.219 457.579 C 515.8 376.756 618.452 333.786 727.603 329.445 z" fill="rgb(7,180,215)" transform="translate(0,0)"></path>
<path d="M 990.413 380.438 C 1146.34 375.155 1331.05 404.5 1473.15 471.063 C 1532.86 499.034 1600.13 544.989 1602.94 617.393 C 1603.78 639.203 1603.32 662.045 1603.3 684.122 L 1603.17 800.045 L 1603.2 1146.46 L 1603.28 1350.84 L 1603.29 1411.83 C 1603.26 1426.57 1603.51 1442.43 1601.65 1456.91 C 1598.67 1479.98 1584.89 1505.53 1569 1522.26 C 1482.95 1612.83 1303.17 1652.04 1184.48 1666.81 C 1142.76 1671.86 1100.84 1675.02 1058.83 1676.27 C 1056.76 1676.43 1054.69 1676.55 1052.61 1676.64 C 1026.88 1677.66 996.168 1676.89 969.442 1675.37 C 807.851 1664.83 620.63 1640.73 492.271 1532.64 C 437.913 1486.86 445.095 1434.61 445.092 1371.59 L 445.133 1256.77 L 445.378 899.17 L 445.153 705.635 L 445.028 649.872 C 445.002 634.804 444.344 619.409 446.77 604.493 C 451.257 576.902 466.187 551.069 485.188 530.936 C 590.172 419.699 844.138 384.939 990.413 380.438 z" fill="rgb(0,0,0)" transform="translate(0,0)"></path>
<path d="M 981.563 603.434 C 1110.12 597.778 1362.73 627.459 1473.29 696.902 C 1355.08 755.584 1200.97 777.305 1070.25 783.935 C 923.567 789.21 707.019 765.969 576.02 695.55 C 590.196 685.439 615.086 674.559 631.859 668.048 C 741.357 625.543 864.873 608.893 981.563 603.434 z" fill="rgb(255,255,255)" transform="translate(0,0)"></path>
<path d="M 1397.32 932.062 C 1398.94 931.777 1397.98 931.798 1400.18 932.448 C 1401.67 936.591 1400.85 1028.93 1400.86 1039.23 L 1401.19 1394.55 C 1382.45 1402.31 1354.7 1409.65 1335.1 1414.63 C 1234.08 1440.29 1128.86 1451.02 1024.82 1452.39 C 1024.31 1435.98 1024.74 1417.62 1024.78 1401.07 C 1047.15 1400.41 1058.75 1398.52 1080.23 1392.98 C 1130.38 1379.63 1179.07 1341.43 1206.17 1297.48 C 1237.07 1247.39 1246.77 1187.05 1233.11 1129.8 C 1221.14 1080.56 1192.49 1036.98 1152.04 1006.46 C 1141.56 998.55 1128.06 990.849 1116.68 983.965 C 1211.83 976.852 1305.92 959.449 1397.32 932.062 z" fill="rgb(255,255,255)" transform="translate(0,0)"></path>
<path d="M 1005.35 1023.85 C 1093.08 1015.54 1170.94 1079.92 1179.24 1167.66 C 1187.54 1255.39 1123.15 1333.24 1035.41 1341.52 C 947.698 1349.81 869.872 1285.43 861.571 1197.72 C 853.271 1110.01 917.638 1032.17 1005.35 1023.85 z" fill="rgb(7,180,215)" transform="translate(0,0)"></path>
<path d="M 1013.29 1076.38 C 1072.44 1072.45 1123.58 1117.22 1127.5 1176.37 C 1131.43 1235.52 1086.66 1286.65 1027.51 1290.57 C 968.365 1294.49 917.239 1249.73 913.313 1190.58 C 909.387 1131.44 954.148 1080.31 1013.29 1076.38 z" fill="rgb(0,0,0)" transform="translate(0,0)"></path>
<path d="M 968.695 440.564 C 983.581 439.639 1001.28 439.808 1016.39 439.598 C 1016.03 473.555 1016.92 508.887 1016.99 543.044 C 871.34 543.973 669.631 571.989 542.185 643.895 C 535.601 647.692 528.812 652.253 522.385 656.408 C 459.492 584.731 589.46 523.018 642.484 502.845 C 745.661 463.59 858.657 444.698 968.695 440.564 z" fill="rgb(255,255,255)" transform="translate(0,0)"></path>
<path d="M 506.814 1393.85 C 646.715 1485.89 852.921 1507.24 1016.57 1512.83 C 1016.33 1547.42 1016.94 1582.41 1016.96 1617.09 C 1010.25 1617.14 1003.53 1617.08 996.814 1616.9 C 871.182 1613.64 719.715 1592.23 606.074 1537.97 C 579.028 1525.05 551.042 1508.58 530.527 1486.72 C 500.911 1455.16 505.676 1433.75 506.814 1393.85 z" fill="rgb(255,255,255)" transform="translate(0,0)"></path>
<path d="M 506.83 723.728 C 517.736 732.053 541.708 745.358 554.307 751.673 C 691.362 820.371 865.621 841.201 1016.72 844.156 L 1016.95 931.288 C 1004.47 931.337 991.984 931.263 979.503 931.067 C 860.697 929.013 611.902 896.079 526.71 806.585 C 501.283 779.874 505.999 757.477 506.83 723.728 z" fill="rgb(255,255,255)" transform="translate(0,0)"></path>
<path d="M 1543.91 860.087 C 1545.71 864.783 1544.06 1278.26 1544.53 1318.26 C 1517.74 1342.3 1496.21 1354.44 1464.45 1370.11 L 1463.03 1369.63 C 1460.83 1365.2 1461.92 948.089 1461.91 907.655 C 1471.94 902.421 1483.45 897.796 1493.78 892.428 C 1512.39 882.754 1527.26 872.727 1543.91 860.087 z" fill="rgb(255,255,255)" transform="translate(0,0)"></path>
<path d="M 574.086 910.724 C 583.022 915.081 589.82 917.873 599.011 921.47 C 612.149 925.984 626.433 930.601 639.345 935.497 L 639.626 1239.28 L 639.618 1340.23 C 639.597 1357.15 640.041 1377.13 639.393 1393.85 C 626.395 1388.95 611.116 1381.89 598.948 1377.64 C 592.887 1375.78 579.967 1368.85 573.844 1365.68 C 571.695 1315.58 573.817 1251.4 573.965 1200.89 L 574.086 910.724 z" fill="rgb(255,255,255)" transform="translate(0,0)"></path>
<path d="M 574.086 910.724 C 583.022 915.081 589.82 917.873 599.011 921.47 L 598.333 1215.39 C 598.27 1267.01 597.043 1326.28 598.948 1377.64 C 592.887 1375.78 579.967 1368.85 573.844 1365.68 C 571.695 1315.58 573.817 1251.4 573.965 1200.89 L 574.086 910.724 z" fill="rgb(7,180,215)" transform="translate(0,0)"></path>
<metadata><recraft-signature>{"signed_by": "recraft", "signature_b64": "W0g++6d+nrHxayW/O3wAnbEXbe+ArB9HYkKmBBu8wi+hNHHP3MF+M/YtKQsvw1pblBrobBsQI0of8KPRnS3CBg==", "signing_algo": "Ed25519", "generation_timestamp": 1772809916, "identifier": "443acad1-c2d1-42e5-b015-047605d15203"}</recraft-signature></metadata></svg>