<svg xmlns="http://www.w3.org/2000/svg" height="1024" preserveAspectRatio="none" style="display: block;" version="1.1" viewBox="0 0 2048 2048" width="1024">
<path d="M 0 0 L 2048 0 L 2048 2048 L 0 2048 L 0 0 z" fill="rgb(255,255,255)" transform="translate(0,0)"></path>
<path d="M 1003.55 278.5 C 1005.5 278.434 1007.45 278.383 1009.41 278.347 C 1067.73 277.861 1126.04 280.118 1184.14 285.111 C 1390.46 303.361 1596.78 360.33 1691.62 563.194 C 1754.53 697.764 1771.68 865.102 1773.59 1012.24 C 1774.19 1083.45 1769.84 1154.61 1760.57 1225.21 C 1718.42 1550.62 1592.24 1707.52 1260.37 1757.15 C 1190.13 1767.33 1119.27 1772.75 1048.29 1773.37 C 872.183 1773.68 655.494 1759.4 505.096 1658.64 C 308.797 1527.12 283.336 1255.61 278.15 1040.27 C 276.887 987.852 280.187 925.502 285.025 873.445 C 298.869 724.494 331.133 559.972 438.278 448.193 C 578.599 301.569 811.85 282.169 1003.55 278.5 z" fill="rgb(0,0,0)" transform="translate(0,0)"></path>
<path d="M 1010.77 401.223 C 1355.02 393.05 1640.8 665.334 1649.27 1009.58 C 1657.75 1353.82 1385.71 1639.84 1041.48 1648.62 C 696.811 1657.41 410.361 1384.96 401.876 1040.29 C 393.391 695.615 666.087 409.405 1010.77 401.223 z" fill="rgb(255,255,255)" transform="translate(0,0)"></path>
<path d="M 1022.41 479.406 C 1082.79 479.685 1127 519.186 1143.71 575.581 C 1187.58 585.721 1222.82 600.945 1261.32 623.71 C 1276.46 614.78 1288.95 608.448 1306.36 604.677 C 1337.22 597.78 1369.56 603.626 1396.05 620.891 C 1423.45 638.763 1442.67 666.749 1449.51 698.74 C 1456.7 733.891 1447.97 762.964 1428.77 792.329 C 1452.99 835.992 1463.79 857.053 1475.97 906.563 C 1490.38 910.599 1499.88 913.852 1512.91 921.643 C 1540.36 937.953 1560.13 964.591 1567.79 995.594 C 1575.34 1026.72 1570.23 1059.57 1553.6 1086.93 C 1535.2 1116.86 1509.24 1134.25 1475.55 1142.44 C 1462.61 1188.06 1452.81 1216.03 1427.6 1256.32 C 1438.47 1271.1 1445.93 1288.09 1449.44 1306.09 C 1455.24 1337.43 1448.24 1369.79 1429.99 1395.92 C 1411.94 1421.96 1384.3 1439.78 1353.13 1445.49 C 1319.67 1451.5 1289.22 1443.71 1261.56 1424.64 C 1226.9 1448.67 1185 1465.22 1143.81 1474 C 1137.73 1507.45 1113.74 1538.99 1084.09 1555.16 C 1064.89 1565.63 1047.59 1568.68 1026.1 1569.58 C 969.388 1567.94 921.291 1531.85 909.966 1475.22 C 856.811 1461.92 837.893 1452.25 791.19 1425.68 C 778.308 1434.69 763.766 1441.07 748.406 1444.43 C 715.973 1451.7 683.894 1447.01 655.814 1428.89 C 627.916 1410.62 608.317 1382.11 601.242 1349.52 C 593.988 1314.54 604.257 1284.35 623.32 1255.55 C 600.997 1214.9 590.58 1188.24 578.479 1143.64 C 560.132 1139.02 547.262 1134.78 531.39 1123.88 C 504.255 1105.56 485.851 1076.87 480.497 1044.57 C 474.693 1013.26 481.877 980.947 500.398 955.051 C 519.207 928.444 545.749 912.814 577.525 907.175 C 588.022 860.759 600.6 833.515 623.42 792.656 C 613.339 779.539 605.664 762.151 602.093 746.036 C 595.546 715.794 601.171 684.19 617.75 658.064 C 635.382 630.411 663.377 610.994 695.455 604.168 C 731.172 596.63 761.228 605.017 791.216 624.423 C 814.825 609.942 835.441 598.608 861.871 589.607 C 876.734 584.546 891.64 580.403 906.472 575.323 C 920.85 517.877 963.253 482.861 1022.41 479.406 z" fill="rgb(0,0,0)" transform="translate(0,0)"></path>
<path d="M 963.794 1109.67 C 980.412 1119.8 991.804 1124.58 1011.13 1127.31 C 1010.16 1194.2 1013.13 1267.05 1010.58 1332.98 C 1007.96 1333.29 1005.34 1333.7 1002.75 1334.22 C 965.236 1341.47 942.779 1361.33 922.29 1391.83 C 908.625 1388.23 890.284 1380.36 877.031 1375 C 863.51 1369.64 849.145 1362.54 836.258 1355.78 C 846.078 1321.62 836.055 1285.27 817.005 1256.27 C 825.142 1246.64 851.563 1221.8 861.654 1211.64 C 895.49 1177.44 929.538 1143.45 963.794 1109.67 z" fill="rgb(255,255,255)" transform="translate(0,0)"></path>
<path d="M 920.319 658.993 C 924.673 658.862 933.113 673.856 937.916 678.924 C 960.15 702.389 980.019 710.97 1010.91 716.497 C 1010.6 783.768 1012 851.876 1011.28 918.946 C 990.023 922.283 980.395 928.106 962.229 938.62 C 953.412 929.329 943.511 919.817 934.369 910.746 L 817.231 792.736 C 836.882 758.885 844.029 731.339 836.981 692.767 C 867.924 676.05 887.128 669.603 920.319 658.993 z" fill="rgb(255,255,255)" transform="translate(0,0)"></path>
<path d="M 1132.39 1040.46 C 1141.3 1040.23 1150.69 1040.15 1159.6 1040.27 C 1217.66 1041.08 1276.73 1038.58 1334.68 1040.82 C 1337.95 1077.97 1363.28 1106.69 1392.22 1127.36 C 1382.29 1161.65 1373.33 1179.63 1357.76 1211.82 L 1345.47 1209.56 C 1314.66 1204.89 1283.16 1217.56 1258.53 1235.28 C 1247.4 1222.51 1233.65 1210.47 1221.59 1198.21 C 1185.27 1161.3 1145.22 1124.91 1110.83 1086.35 C 1118.71 1075.55 1122.97 1066.89 1127.56 1054.25 C 1128.94 1050.45 1130.21 1042.17 1132.39 1040.46 z" fill="rgb(255,255,255)" transform="translate(0,0)"></path>
<path d="M 1088.25 1109.1 C 1094.85 1113.18 1122.18 1142.53 1129.92 1150.3 C 1164.91 1185.51 1200.14 1220.48 1235.61 1255.2 C 1234.12 1257.48 1232.67 1259.78 1231.27 1262.12 C 1212.79 1292.6 1207.23 1321 1215.64 1355.56 C 1202.82 1362.74 1189.69 1369.34 1176.28 1375.35 C 1161.14 1381.85 1146.2 1387.76 1130.19 1391.85 C 1127.27 1387.25 1124.19 1382.75 1120.96 1378.36 C 1101.25 1351.67 1075.2 1338.42 1043.06 1333.52 L 1042.96 1126.83 C 1062.37 1123.73 1071.41 1119.03 1088.25 1109.1 z" fill="rgb(255,255,255)" transform="translate(0,0)"></path>
<path d="M 718.137 1039.93 C 726.835 1039.7 736.503 1039.73 745.234 1039.96 C 803.199 1041.46 862.536 1038.19 920.334 1040.37 C 924.869 1061.72 929.633 1068.8 940.684 1087.13 C 906.844 1119.33 871.94 1156.59 838.295 1189.89 C 823.166 1204.73 808.226 1219.77 793.479 1234.99 C 791.684 1233.46 789.82 1232.02 787.893 1230.66 C 759.508 1210.75 728.624 1205.41 694.909 1211.26 C 677.912 1177.8 670.973 1162.82 660.815 1126.32 C 661.5 1125.88 662.179 1125.43 662.853 1124.96 C 695.454 1102.53 710.932 1078.84 718.137 1039.93 z" fill="rgb(255,255,255)" transform="translate(0,0)"></path>
<path d="M 793.958 815.077 C 797.674 817.349 819.952 840.378 825.251 845.508 C 863.938 882.963 901.114 922.269 939.914 959.608 C 930.603 975.133 922.876 989.755 920.681 1007.96 L 806.5 1008.03 L 718.38 1007.94 C 709.472 968.013 694.202 944.615 660.406 921.836 C 670.427 885.379 679.159 870.529 694.044 837.037 C 733.114 843.655 760.964 836.372 793.958 815.077 z" fill="rgb(255,255,255)" transform="translate(0,0)"></path>
<path d="M 1258.88 814.635 C 1262.03 815.818 1271.33 823.474 1276.04 825.665 C 1305.13 839.169 1326.17 842.323 1357.11 837.332 C 1372.83 863.517 1384.59 891.887 1392 921.517 C 1389.91 922.778 1387.86 924.091 1385.84 925.455 C 1354.13 946.939 1340.92 971.097 1333.6 1008.14 L 1249.5 1008.04 L 1130.9 1008.24 C 1126.57 985.735 1123.14 980.433 1111.35 961.079 L 1258.88 814.635 z" fill="rgb(255,255,255)" transform="translate(0,0)"></path>
<path d="M 1128.87 657.611 C 1157.31 663.775 1188.78 680.001 1214.35 693.471 C 1207.83 730.865 1213.76 759.583 1235.08 791.341 C 1198.49 830.43 1157.53 869.471 1119.66 907.754 C 1109.83 917.913 1099.25 928.14 1089.19 938.137 C 1073.32 928.553 1061.45 922.625 1043.07 920.329 C 1042.43 852.614 1043.81 784.267 1043.34 716.334 C 1048.65 715.313 1053.92 714.053 1059.12 712.559 C 1088.76 704.264 1113.87 684.486 1128.87 657.611 z" fill="rgb(255,255,255)" transform="translate(0,0)"></path>
<path d="M 1321.9 1239.51 C 1370.78 1234.29 1414.68 1269.58 1420.09 1318.43 C 1425.5 1367.29 1390.38 1411.33 1341.55 1416.93 C 1292.44 1422.56 1248.11 1387.21 1242.67 1338.08 C 1237.23 1288.96 1272.75 1244.76 1321.9 1239.51 z" fill="rgb(35,177,226)" transform="translate(0,0)"></path>
<path d="M 1322.32 633.984 C 1371.27 628.778 1415.14 664.324 1420.19 713.291 C 1425.25 762.257 1389.57 806.018 1340.59 810.926 C 1291.82 815.813 1248.29 780.321 1243.25 731.564 C 1238.22 682.808 1273.58 639.167 1322.32 633.984 z" fill="rgb(35,177,226)" transform="translate(0,0)"></path>
<path d="M 1448.4 936.447 C 1497 933.906 1538.46 971.26 1540.97 1019.86 C 1543.48 1068.46 1506.1 1109.89 1457.5 1112.37 C 1408.93 1114.85 1367.55 1077.51 1365.04 1028.95 C 1362.53 980.394 1399.85 938.987 1448.4 936.447 z" fill="rgb(35,177,226)" transform="translate(0,0)"></path>
<path d="M 587.181 937.352 C 635.361 930.588 679.896 964.18 686.628 1012.37 C 693.36 1060.55 659.738 1105.06 611.548 1111.76 C 563.404 1118.46 518.942 1084.87 512.216 1036.73 C 505.49 988.593 539.045 944.109 587.181 937.352 z" fill="rgb(35,177,226)" transform="translate(0,0)"></path>
<path d="M 709.395 634.173 C 757.769 628.446 801.595 663.098 807.182 711.488 C 812.768 759.878 777.99 803.604 729.584 809.05 C 681.375 814.474 637.867 779.869 632.303 731.676 C 626.74 683.484 661.219 639.875 709.395 634.173 z" fill="rgb(35,177,226)" transform="translate(0,0)"></path>
<path d="M 1012.44 1365.16 C 1060.34 1357.87 1105.07 1390.83 1112.29 1438.74 C 1119.51 1486.65 1086.48 1531.34 1038.56 1538.48 C 990.736 1545.62 946.173 1512.67 938.967 1464.86 C 931.762 1417.05 964.637 1372.44 1012.44 1365.16 z" fill="rgb(35,177,226)" transform="translate(0,0)"></path>
<path d="M 709.797 1240.01 C 757.613 1234.72 800.755 1268.97 806.454 1316.73 C 812.154 1364.5 778.28 1407.94 730.562 1414.04 C 682.262 1420.23 638.185 1385.85 632.416 1337.5 C 626.647 1289.15 661.399 1245.37 709.797 1240.01 z" fill="rgb(35,177,226)" transform="translate(0,0)"></path>
<path d="M 1020.06 511.485 C 1068.09 507.92 1109.89 544.032 1113.33 592.07 C 1116.78 640.109 1080.56 681.814 1032.51 685.138 C 984.636 688.451 943.11 652.39 939.678 604.521 C 936.246 556.653 972.203 515.036 1020.06 511.485 z" fill="rgb(35,177,226)" transform="translate(0,0)"></path>
<metadata><recraft-signature>{"signed_by": "recraft", "signature_b64": "euFzwQFUFgyKFvxP8mia1MkE2CpmKilFss1+L99aKl54mJDCnPhXQDpM0Anz68zRhx8O6tB1dKIFt6+nyBOkAQ==", "signing_algo": "Ed25519", "generation_timestamp": 1772809938, "identifier": "74d158af-d0b6-4bd4-86cb-8d97f9c49e91"}</recraft-signature></metadata></svg>