<svg xmlns="http://www.w3.org/2000/svg" height="1024" preserveAspectRatio="none" style="display: block;" version="1.1" viewBox="0 0 2048 2048" width="1024">
<path d="M 0 0 L 2048 0 L 2048 2048 L 0 2048 L 0 0 z" fill="rgb(255,255,255)" transform="translate(0,0)"></path>
<path d="M 1443.42 293.772 C 1466.51 293.961 1491.15 293.615 1513.95 296.859 C 1602.32 309.436 1673.85 358.299 1719.23 434.91 C 1763.82 510.186 1756.69 579.108 1756.98 661.965 C 1726.83 675.859 1692.99 688.699 1661.77 699.97 C 1559.37 737.762 1452.77 762.989 1344.29 775.097 C 1303.1 779.617 1260.1 781.18 1218.68 783.021 C 1198.13 802.686 1176.06 826.678 1156.18 847.397 C 1137.14 867.103 1117.94 886.668 1098.6 906.088 C 1089.77 915.007 1070.88 933.325 1064.12 942.758 L 1063.7 1761.01 L 983.851 1761.24 L 984.062 1297.17 C 984.056 1178.25 985.576 1055.06 983.678 936.404 C 950.641 905.31 918.051 873.744 885.92 841.715 C 866.166 822.108 846.949 802.035 826.892 782.725 C 790.09 779.596 754.353 779.499 716.168 775.416 C 569.331 760.538 425.836 722.174 291.164 661.789 C 290.862 552.861 284.073 478.945 363.222 388.619 C 414.501 330.097 483.958 298.902 561.513 294.416 C 576.249 293.586 593.9 293.933 608.862 293.876 C 660.848 440.545 726.564 559.467 829.528 677.916 C 891.196 748.859 957.004 809.189 1024.02 874.363 C 1036.04 861.402 1048.87 849.759 1061.2 837.201 C 1097.94 799.772 1135.56 763.759 1172.13 726.107 C 1296.49 598.063 1382.04 460.967 1443.42 293.772 z" fill="rgb(86,11,163)" transform="translate(0,0)"></path>
<path d="M 907.683 1371.25 C 908.76 1371.09 909.368 1371.34 910.523 1371.55 C 908.748 1375.38 865.951 1412.35 860.026 1417.74 C 819.725 1454.47 781.61 1493.52 745.876 1534.7 C 681.772 1608.78 641.371 1672.34 596.705 1758.95 C 584.974 1758.81 573.026 1758.81 561.33 1758.14 C 481.066 1753.51 415.028 1720.04 361.893 1660.66 C 326.87 1622.06 301.12 1564.32 294.281 1512.86 C 291.393 1491.14 291.38 1467.77 291.259 1445.88 C 291.074 1421.24 291.086 1396.61 291.296 1371.97 C 516.904 1413.63 681.663 1417.98 907.683 1371.25 z" fill="rgb(86,11,163)" transform="translate(0,0)"></path>
<path d="M 1752.72 1371.16 C 1755.18 1370.75 1753.93 1370.72 1756.47 1371.34 C 1757.48 1378.67 1756.76 1400.22 1756.82 1408.5 C 1756.99 1431.33 1756.61 1454.5 1756.69 1477.36 C 1756.94 1554.72 1723.99 1626.65 1668.38 1680.35 C 1622.63 1724.21 1563.43 1751.38 1500.35 1757.45 C 1483.09 1759.11 1468.29 1758.67 1451.01 1758.33 C 1441.67 1735.9 1426.44 1710.61 1414.26 1689.43 C 1385.67 1639.73 1354.06 1597.02 1317.74 1552.69 C 1265.18 1487.84 1199.91 1425.26 1136.39 1371.11 C 1183.65 1383.16 1244.38 1392.35 1293.12 1397.38 C 1446.72 1414.09 1602.02 1405.23 1752.72 1371.16 z" fill="rgb(86,11,163)" transform="translate(0,0)"></path>
<path d="M 291.078 743.507 C 318.368 752.542 344.401 764.374 372.14 773.555 C 503.935 817.177 655.242 850.265 794.795 851.243 C 833.882 889.809 873.622 929.366 913.124 967.23 L 913.05 978.16 C 844.06 976.841 770.614 978.072 701.248 978.07 L 291.003 978.148 L 291.078 743.507 z" fill="rgb(86,11,163)" transform="translate(0,0)"></path>
<path d="M 1754.64 743.886 L 1756.39 744.316 C 1757.36 749.648 1756.76 801.833 1756.77 810.767 L 1756.94 978.038 L 1140.75 978.045 L 1138.69 977.588 C 1137.17 974.586 1137.87 969.93 1138.03 966.374 L 1215.87 887.922 C 1224.23 879.541 1244.31 858.608 1253.02 852.016 C 1417.83 851.475 1602.36 805.487 1754.64 743.886 z" fill="rgb(86,11,163)" transform="translate(0,0)"></path>
<path d="M 1646.81 1054.42 L 1757.03 1054.3 L 1756.59 1293.41 C 1614.17 1333.85 1455.42 1339.33 1308.76 1324.78 C 1302.66 1324.73 1284.46 1322.2 1278.06 1321.41 C 1249.27 1317.81 1220.61 1313.25 1192.12 1307.73 C 1215.52 1299.27 1241.9 1286.28 1264.91 1275.75 C 1340.83 1240.98 1414.76 1202 1486.33 1158.97 C 1515.17 1141.67 1543.63 1123.74 1571.7 1105.19 C 1583 1097.74 1640.86 1056.03 1646.81 1054.42 z" fill="rgb(86,11,163)" transform="translate(0,0)"></path>
<path d="M 291.272 1054.37 C 329.06 1054.13 366.849 1054.25 404.634 1054.73 C 425.555 1071.84 458.948 1093.37 482.231 1108.97 C 550.633 1154.43 621.559 1195.98 694.666 1233.4 C 748.45 1260.6 797.468 1282.13 851.266 1307.36 C 844.39 1309.04 834.435 1310.43 827.259 1311.64 C 771.938 1319.54 723.572 1326.37 667.269 1329.87 C 540.988 1336.99 414.343 1325.74 291.296 1296.47 C 290.115 1217.22 290.908 1133.82 291.272 1054.37 z" fill="rgb(86,11,163)" transform="translate(0,0)"></path>
<path d="M 1063.03 293.151 C 1162.94 294.321 1265.18 293.323 1365.35 293.544 C 1332.39 391.273 1270.79 497.89 1207.24 579.016 C 1163.02 635.187 1114.8 688.092 1062.96 737.316 L 1062.5 458.268 C 1062.53 403.888 1061.66 347.459 1063.03 293.151 z" fill="rgb(86,11,163)" transform="translate(0,0)"></path>
<path d="M 731.731 293.493 L 985.73 293.36 L 985.666 593.713 C 985.537 642.544 985.661 691.376 986.037 740.206 L 964.743 719.189 C 844.848 603.383 737.924 453.707 687.033 293.927 L 731.731 293.493 z" fill="rgb(86,11,163)" transform="translate(0,0)"></path>
<path d="M 532.123 1054.38 C 573.482 1052.85 623.755 1054.22 665.855 1054.26 L 913.166 1054.27 L 913.322 1255.92 C 803.036 1207.4 694.541 1157.35 592.468 1093.31 C 576.696 1083.41 545.018 1066.62 532.123 1054.38 z" fill="rgb(86,11,163)" transform="translate(0,0)"></path>
<path d="M 1233.29 1054.5 L 1518.95 1054.82 C 1453.02 1094.97 1399.78 1127.58 1331.52 1164.08 C 1268.29 1196.22 1203.88 1226.01 1138.43 1253.36 L 1138.67 1054.65 L 1233.29 1054.5 z" fill="rgb(86,11,163)" transform="translate(0,0)"></path>
<path d="M 912.779 1465.93 C 913.641 1470.94 913.337 1490.07 913.32 1496.17 L 913.175 1552.02 L 913.306 1758.92 L 680.243 1758.9 L 680.081 1756.99 C 684.664 1747.56 689.723 1740.93 694.566 1732.12 C 750.473 1630.47 829.9 1545.95 912.779 1465.93 z" fill="rgb(86,11,163)" transform="translate(0,0)"></path>
<path d="M 1138.01 1469.41 C 1143.55 1472.71 1171.06 1500.76 1177.38 1507.04 C 1253.15 1582.36 1319.21 1664.47 1370.1 1758.81 C 1346.88 1759.9 1314.05 1759.01 1290.28 1759 L 1138.3 1758.61 C 1138.69 1662.21 1138.59 1565.81 1138.01 1469.41 z" fill="rgb(86,11,163)" transform="translate(0,0)"></path>
<metadata><recraft-signature>{"signed_by": "recraft", "signature_b64": "GbTgeegs754cuV4C1Sb/sD1RmncnRZP9Oz3opQ3exrFytgwLFLPU2B1i1lKFa9alDpyKRimQRsUvZUL0xfBmAg==", "signing_algo": "Ed25519", "generation_timestamp": 1772809961, "identifier": "cb43a979-ddf4-4151-b3fe-c689c340852f"}</recraft-signature></metadata></svg>