<svg xmlns="http://www.w3.org/2000/svg" height="1024" preserveAspectRatio="none" style="display: block;" version="1.1" viewBox="0 0 2048 2048" width="1024">
<path d="M 0 0 L 2048 0 L 2048 2048 L 0 2048 L 0 0 z" fill="rgb(254,254,254)" transform="translate(0,0)"></path>
<path d="M 714.973 272.419 C 721.197 271.662 736.907 271.8 743.451 271.797 L 792.063 271.838 L 948.604 271.814 L 1197.64 271.91 C 1232.11 271.903 1267.15 272.616 1301.57 271.921 C 1472.96 268.462 1637.56 363.015 1719.87 515.39 C 1747.38 565.879 1765.64 620.879 1773.79 677.796 C 1780.53 725.996 1778.39 782.064 1778.22 831.252 L 1778.19 1019.74 L 1778.24 1220.86 C 1778.35 1308.55 1781.75 1362.98 1756.32 1447.77 C 1719.96 1565.23 1638.97 1663.72 1530.76 1722.09 C 1466.58 1756.51 1393.41 1776.33 1320.59 1778.52 C 1279.06 1779.77 1237.08 1778.42 1195.48 1779.1 C 1178.87 1779.38 1161.57 1779.56 1145.58 1774.59 C 1124.56 1767.92 1107.11 1753.07 1097.16 1733.38 C 1089.43 1718.24 1086.68 1701.05 1089.29 1684.26 C 1091.53 1670.05 1099.21 1651.49 1104.16 1637.54 L 1127.67 1570.21 L 1200.64 1360.65 C 1209.93 1333.72 1219.79 1307.55 1228.6 1280.41 C 1239.61 1249 1250.4 1217.51 1260.95 1185.95 C 1215.44 1185.4 1169.28 1185.76 1123.73 1185.79 C 1118.79 1198.62 1114.41 1213.17 1109.8 1226.35 C 1097.24 1261.82 1084.89 1297.36 1072.76 1332.97 L 993.45 1561.07 C 982.477 1593.68 971.3 1626.23 959.92 1658.7 C 952.203 1681.04 943.132 1712.82 931.029 1732.17 C 914.138 1758.67 876.641 1778.45 845.287 1778.58 C 797.769 1778.77 746.493 1781.01 699.324 1776.56 C 620.999 1768.93 545.823 1741.85 480.633 1697.76 C 376.533 1626.55 305.105 1516.78 282.155 1392.76 C 270.495 1330.57 275.032 1265.68 274.545 1202.54 C 274.394 1182.86 273.005 1135.87 275.817 1118.18 C 278.039 1104.09 283.44 1090.69 291.611 1079 C 322.181 1035.06 355.868 1041.54 400.105 1033.87 C 398.441 1032.5 396.791 1031.11 395.155 1029.71 C 324.958 969.427 282.656 857.565 275.669 766.366 C 267.518 646.056 307.146 527.386 385.952 436.114 C 471.209 337.244 585.089 281.823 714.973 272.419 z" fill="rgb(106,28,242)" transform="translate(0,0)"></path>
<path d="M 1296.52 425.412 C 1349.42 418.801 1419.82 439.477 1465.97 465.538 C 1534.17 504.053 1588.24 571.203 1609.82 646.254 C 1632.7 722.97 1623.77 805.665 1585.03 875.723 C 1544.5 949.193 1476.2 1003.34 1395.42 1026.02 C 1394.54 1014.95 1392.08 1003.47 1389.79 992.595 C 1376.59 926.392 1351.99 870.61 1314 815.241 C 1246.09 717.82 1142.89 650.691 1026.31 628.097 C 1039.05 592.72 1058.2 559.99 1082.79 531.544 C 1138.05 467.106 1212.48 432.063 1296.52 425.412 z" fill="rgb(254,254,254)" transform="translate(0,0)"></path>
<path d="M 1409.45 546.815 C 1458.93 543.916 1501.49 581.454 1504.81 630.91 C 1508.12 680.367 1470.93 723.243 1421.51 726.964 C 1371.49 730.73 1328 693.011 1324.65 642.97 C 1321.3 592.929 1359.38 549.749 1409.45 546.815 z" fill="rgb(106,28,242)" transform="translate(0,0)"></path>
<path d="M 899.81 1185.5 C 920.845 1185.19 941.884 1185.15 962.92 1185.37 C 943.777 1236.31 926.19 1290.66 908.277 1342.2 L 809.232 1625.04 C 762.002 1625.22 721.434 1627.22 674.959 1616.83 C 628.105 1606.35 593.091 1589.91 554.459 1561.82 C 541.352 1552.2 524.041 1536.4 512.75 1524.62 C 493.55 1504.23 477.153 1481.36 463.993 1456.63 C 429.474 1391.91 426.209 1343.22 426.067 1272.29 C 425.929 1243.55 426.202 1214.82 426.887 1186.09 C 583.871 1184.18 742.578 1186.45 899.81 1185.5 z" fill="rgb(254,254,254)" transform="translate(0,0)"></path>
<path d="M 641.408 1311.5 C 691.374 1305.74 736.566 1341.54 742.399 1391.5 C 748.232 1441.45 712.502 1486.7 662.553 1492.6 C 612.503 1498.52 567.148 1462.7 561.303 1412.64 C 555.459 1362.58 591.341 1317.28 641.408 1311.5 z" fill="rgb(106,28,242)" transform="translate(0,0)"></path>
<path d="M 1623.99 1069.96 C 1625.91 1072.16 1625.09 1278.09 1625.21 1294.24 C 1625.37 1313.83 1623.87 1345.79 1619.65 1367.19 C 1607.53 1428.52 1577.46 1485.95 1533.44 1530.24 C 1483.26 1580.72 1419.83 1613.01 1349.15 1622.07 C 1323.48 1625.36 1299.73 1625.02 1274.02 1624.93 L 1272.77 1624.35 C 1271.82 1616.38 1413.14 1219.82 1427.06 1175.65 C 1502.7 1156.09 1566.21 1122.58 1623.99 1069.96 z" fill="rgb(254,254,254)" transform="translate(0,0)"></path>
<path d="M 751.768 424.462 C 825.872 423.981 899.978 423.938 974.083 424.335 C 931.696 470.233 918.742 490.956 892.294 547.131 C 879.992 547.081 864.756 547.955 852.537 548.966 C 724.522 559.875 606.155 621.425 523.702 719.957 C 488.194 761.277 468.651 797.648 443.654 844.998 C 433.842 817.021 427.285 779.476 426.821 750.142 C 423.809 559.478 566.679 428.039 751.768 424.462 z" fill="rgb(254,254,254)" transform="translate(0,0)"></path>
<path d="M 848.783 702.412 C 851.074 701.936 850.915 701.883 853.123 702.62 C 853.93 706.723 852.333 728.276 852.087 733.928 C 851.595 745.594 851.392 757.27 851.479 768.945 C 851.901 856.677 851.774 944.41 851.099 1032.14 L 557.75 1031.82 C 555.156 1031.9 555.224 1032.02 552.812 1031.16 C 551.15 1023.37 554.315 1005.23 555.65 996.798 C 564.89 937.609 588.664 881.635 624.844 833.887 C 677.666 764.188 762.212 714.255 848.783 702.412 z" fill="rgb(254,254,254)" transform="translate(0,0)"></path>
<metadata><recraft-signature>{"signed_by": "recraft", "signature_b64": "UxH070G41Dix2fXNB+r8nsax+XJ0IUM5AEayH/NNDNg8bggbra2lKwnXFo/tQoh2efsmUMBrDY33mC4LdV01Dg==", "signing_algo": "Ed25519", "generation_timestamp": 1772810007, "identifier": "d701a38b-9020-4667-b74c-808285828d7a"}</recraft-signature></metadata></svg>