<svg xmlns="http://www.w3.org/2000/svg" height="1024" preserveAspectRatio="none" style="display: block;" version="1.1" viewBox="0 0 2048 2048" width="1024">
<path d="M 0 0 L 2048 0 L 2048 2048 L 0 2048 L 0 0 z" fill="rgb(251,251,250)" transform="translate(0,0)"></path>
<path d="M 702.608 261.438 C 702.675 261.434 702.741 261.43 702.807 261.427 C 741.326 260.852 779.955 261.301 818.487 261.167 L 1091.23 260.988 L 1257.52 260.952 C 1326.73 260.928 1382.09 257.485 1450 274.203 C 1523.28 292.267 1590.59 329.085 1645.34 381.04 C 1731.34 461.898 1781.1 574.032 1783.33 692.057 C 1784.39 740.783 1783.63 791.017 1783.63 839.892 L 1783.75 1094.62 L 1783.29 1259.23 C 1783.29 1327.67 1787.07 1389.98 1770.43 1457 C 1751.77 1529.08 1715.04 1595.21 1663.71 1649.15 C 1578.94 1737.38 1471.27 1785.78 1348.5 1788.08 C 1299.42 1789.18 1247.2 1788.41 1197.84 1788.41 L 940.596 1788.44 L 787.766 1788.34 C 724.681 1788.34 661.596 1791.18 600.086 1775.19 C 530.609 1757.13 463.039 1720.67 410.322 1672.21 C 324.429 1594.56 272.956 1485.92 267.259 1370.27 C 265.307 1322.42 266.079 1270.09 266.109 1221.93 L 265.977 1003.38 L 266.15 808.881 C 266.255 739.095 262.855 665.695 278.951 597.802 C 296.248 525.287 332.053 458.497 382.87 403.952 C 448.306 332.407 535.625 284.588 631.148 267.985 C 655.962 263.738 677.521 262.455 702.608 261.438 z" fill="rgb(91,18,207)" transform="translate(0,0)"></path>
<path d="M 412.085 1195.71 C 415.865 1199.15 424.827 1213.55 428.215 1218.53 C 533.292 1372.97 726.789 1413.64 888.563 1331.07 C 900.921 1342.07 913.841 1355.92 925.563 1367.85 L 988.549 1432.24 L 1171.68 1618.44 C 1179.39 1625.83 1187.01 1633.31 1194.53 1640.89 C 1158.61 1640.5 1121.99 1641.06 1086 1641.06 L 719.214 1641.01 C 634.892 1640.45 558.8 1610.41 499.469 1550.08 C 450.242 1500.29 419.846 1434.95 413.481 1365.23 C 411.212 1341.44 411.863 1315.53 411.869 1291.5 L 412.085 1195.71 z" fill="rgb(251,251,250)" transform="translate(0,0)"></path>
<path d="M 1307.88 803.403 C 1313.85 802.552 1327.18 802.455 1333.22 802.568 C 1389.19 803.146 1442.51 826.46 1480.95 867.152 C 1520.91 909.236 1542.59 962.869 1540.84 1021.1 C 1538.95 1077.44 1514.91 1130.75 1473.93 1169.46 C 1425.71 1214.69 1374.38 1228.7 1309.75 1226.64 C 1301.08 1233.96 1290.54 1245.1 1282.29 1253.33 C 1268.49 1267.27 1254.3 1280.81 1239.74 1293.95 C 1239 1314.91 1239.69 1338.33 1239.64 1359.5 L 1239.07 1482.37 L 1233.59 1476.34 C 1197.1 1439.15 1160.34 1402.24 1123.31 1365.59 C 1105.15 1347.28 1085.2 1327.62 1068.11 1308.47 C 1076.88 1307.72 1086.47 1306.19 1095.1 1304.27 C 1288 1261.42 1385.27 1036.52 1283 867.038 C 1271.98 848.772 1259.26 833.505 1246.04 817.027 C 1268.17 810.33 1284.55 806.032 1307.88 803.403 z" fill="rgb(251,251,250)" transform="translate(0,0)"></path>
<path d="M 709.572 802.417 C 740.9 800.195 776.995 806.565 806.601 816.611 C 766.707 867.504 739.414 913.448 730.954 979.584 C 722.65 1044.39 736.199 1110.11 769.456 1166.35 C 779.578 1183.48 790.86 1198.26 802.986 1213.96 C 760.995 1225.72 727.967 1230.69 684.523 1223.72 C 649.527 1218.64 610.554 1199.97 583.776 1177.05 C 540.106 1139.62 513.115 1086.35 508.752 1029 C 499.721 909.122 591.325 811.389 709.572 802.417 z" fill="rgb(251,251,250)" transform="translate(0,0)"></path>
<path d="M 1012.49 861.011 C 1096.82 853.14 1171.54 915.199 1179.29 999.547 C 1187.03 1083.9 1124.86 1158.52 1040.5 1166.13 C 956.318 1173.73 881.89 1111.72 874.164 1027.56 C 866.438 943.389 928.334 868.866 1012.49 861.011 z" fill="rgb(251,251,250)" transform="translate(0,0)"></path>
<path d="M 1023.72 505.44 C 1054.31 505.266 1084.71 510.439 1113.52 520.724 C 1166.57 539.436 1212.1 574.878 1243.25 621.712 C 1252.7 636.066 1259.07 649.353 1266.47 664.694 C 1213.56 674.73 1168.46 696.794 1125.28 728.506 C 1092.56 718.093 1068.68 711.907 1033.68 710.93 C 993.966 710.427 965.897 715.034 928.822 728.105 C 891.818 700.655 835.075 669.589 788.509 664.647 C 823.372 576.702 908.317 515.384 1001.68 506.804 C 1008.99 506.132 1016.38 505.788 1023.72 505.44 z" fill="rgb(251,251,250)" transform="translate(0,0)"></path>
<path d="M 1202.65 408.046 L 1298.56 407.663 C 1324.12 407.611 1354.8 406.874 1379.81 409.741 C 1443.44 417.61 1502.75 446.09 1548.67 490.829 C 1611.51 552.466 1637.59 623.67 1638.13 710.78 L 1638.22 836.492 C 1597.1 760.364 1511.53 694.634 1428.82 670.199 C 1423.89 668.771 1418.92 667.496 1413.92 666.378 C 1393.25 573.554 1327.18 485.079 1247.29 434.059 C 1236.04 426.868 1215.73 415.295 1203.67 411.351 C 1200.94 410.123 1195.96 408.15 1202.65 408.046 z" fill="rgb(251,251,250)" transform="translate(0,0)"></path>
<path d="M 1203.67 411.351 C 1200.94 410.123 1195.96 408.15 1202.65 408.046 L 1203.67 411.351 z" fill="rgb(250,230,245)" transform="translate(0,0)"></path>
<path d="M 685.6 408.424 C 705.837 406.786 735.35 407.816 756.198 407.884 C 789.173 407.667 822.15 407.781 855.123 408.224 C 829.38 420.65 815.894 425.532 790.78 442.267 C 715.17 492.65 655.074 578.756 636.338 667.437 C 578.201 684.079 535.924 703.321 488.454 742.234 C 455.215 771.255 433.849 797.763 412.037 835.706 C 412.379 808.156 412.451 780.604 412.25 753.052 C 412.053 727.674 411.185 698.953 413.939 674.093 C 420.52 612.815 445.77 555.039 486.272 508.586 C 537.4 450.841 608.031 413.091 685.6 408.424 z" fill="rgb(251,251,250)" transform="translate(0,0)"></path>
<path d="M 1637.6 1194.68 C 1639.52 1200.75 1638.38 1343.9 1637.64 1355.72 C 1634.54 1410.71 1616.53 1463.82 1585.55 1509.36 C 1536.38 1582.74 1466.98 1624.61 1381.32 1641.47 C 1380.53 1635.55 1380.87 1619.67 1380.86 1613.29 L 1380.84 1558.53 C 1381.15 1495.82 1380.98 1433.1 1380.34 1370.38 C 1384.41 1369.66 1388.47 1368.88 1392.51 1368.04 C 1502.07 1344.96 1576.81 1287.58 1637.6 1194.68 z" fill="rgb(251,251,250)" transform="translate(0,0)"></path>
<metadata><recraft-signature>{"signed_by": "recraft", "signature_b64": "RwzwRj4DdL+VPAeyg5YD6hs3en9n9ArZ113rUKIRSMuVy6z7MipbkHBMTgZceX+p9NYnorKoO8Rn43HZjlFFAw==", "signing_algo": "Ed25519", "generation_timestamp": 1772809984, "identifier": "fad6e59c-af23-4685-bd7a-8e8b5549e2ac"}</recraft-signature></metadata></svg>