<svg xmlns="http://www.w3.org/2000/svg" height="1024" preserveAspectRatio="none" style="display: block;" version="1.1" viewBox="0 0 2048 2048" width="1024">
<path d="M 0 0 L 2048 0 L 2048 2048 L 0 2048 L 0 0 z" fill="rgb(255,255,255)" transform="translate(0,0)"></path>
<path d="M 457.337 1655.56 C 440.548 1641.28 425.797 1628.37 410.621 1612.29 C 333.587 1530.39 286.859 1424.62 278.185 1312.52 C 275.241 1275.95 276.009 1236.14 276.048 1199.17 L 276.464 1023.78 L 276.138 843.831 C 276.17 806.836 275.423 769.806 278.356 733.079 C 297.403 494.586 494.73 300.788 732.412 281.102 C 773.629 277.688 815.618 279.196 857.137 279.279 L 1028.48 279.174 L 1203.57 279.303 C 1237.01 279.304 1278.21 277.856 1310.6 280.301 C 1418.22 288.131 1520.47 330.364 1602.25 400.762 C 1697.87 482.389 1762.17 604.204 1772.69 729.99 C 1775.17 759.591 1774.55 796.363 1774.74 826.67 L 1774.84 1001.14 L 1774.63 1200.6 C 1774.19 1266.83 1777.5 1318.37 1762.47 1383.77 C 1744.87 1460.67 1709.17 1532.25 1658.33 1592.57 C 1637.19 1617.24 1609.54 1644.46 1583.42 1663.85 C 1575.88 1670.89 1551.52 1687.37 1542.48 1693.13 C 1470.56 1738.84 1388.08 1765.28 1302.99 1769.9 C 1268.7 1772.06 1228.44 1771.03 1193.72 1771 L 1016.8 1770.97 L 857.391 1771.04 C 808.489 1771.06 763.605 1772.21 714.877 1766.68 C 626.687 1756.69 524.286 1714.61 457.337 1655.56 z" fill="rgb(13,32,42)" transform="translate(0,0)"></path>
<path d="M 457.337 1655.56 C 440.548 1641.28 425.797 1628.37 410.621 1612.29 C 333.587 1530.39 286.859 1424.62 278.185 1312.52 C 275.241 1275.95 276.009 1236.14 276.048 1199.17 L 276.464 1023.78 L 276.138 843.831 C 276.17 806.836 275.423 769.806 278.356 733.079 C 297.403 494.586 494.73 300.788 732.412 281.102 C 773.629 277.688 815.618 279.196 857.137 279.279 L 1028.48 279.174 L 1203.57 279.303 C 1237.01 279.304 1278.21 277.856 1310.6 280.301 C 1418.22 288.131 1520.47 330.364 1602.25 400.762 C 1697.87 482.389 1762.17 604.204 1772.69 729.99 C 1775.17 759.591 1774.55 796.363 1774.74 826.67 L 1774.84 1001.14 L 1774.63 1200.6 C 1774.19 1266.83 1777.5 1318.37 1762.47 1383.77 C 1744.87 1460.67 1709.17 1532.25 1658.33 1592.57 C 1637.19 1617.24 1609.54 1644.46 1583.42 1663.85 C 1583.73 1659.87 1583.78 1655.42 1583.93 1651.39 L 1567.01 1651.23 L 1566.94 397.469 C 1479.95 398.57 1392.95 399.038 1305.96 398.872 L 911.388 398.687 C 883.026 398.664 853.061 397.694 824.952 400.975 C 655.426 420.763 510.998 548.631 469.483 714.022 C 453.621 777.215 457.028 840.298 457.045 904.891 L 457.132 1074.93 L 457.337 1655.56 z" fill="rgb(250,157,13)" transform="translate(0,0)"></path>
<path d="M 1071.22 590.309 C 1160.71 588.694 1250.65 590.623 1340.18 589.985 C 1351.38 589.905 1362.92 589.851 1374.08 590.575 L 1373.59 1420.04 L 847.5 1420.78 C 824.494 1420.88 801.488 1420.78 778.484 1420.47 C 777.855 1386.8 778.652 1350.6 778.691 1316.75 L 778.901 1105.19 C 800.912 1113.81 823.081 1117.01 846.043 1121.6 L 846.137 1226.95 L 909.038 1226.86 L 909.465 1123.41 C 985.095 1116.01 1054.94 1082.83 1105.81 1025.95 C 1159.87 966.454 1187.77 887.742 1183.25 807.483 C 1179.35 741.519 1153.89 678.661 1110.78 628.577 C 1097.8 613.705 1085.9 603.32 1071.22 590.309 z" fill="rgb(250,157,13)" transform="translate(0,0)"></path>
<path d="M 846.052 1290.94 L 1306.21 1291.1 L 1306.01 1354.79 L 846.132 1354.75 L 846.052 1290.94 z" fill="rgb(13,32,42)" transform="translate(0,0)"></path>
<path d="M 1243.98 655.206 L 1306.09 655.143 C 1307.03 723.05 1307.01 790.967 1306.03 858.874 L 1244.09 858.92 L 1243.98 655.206 z" fill="rgb(13,32,42)" transform="translate(0,0)"></path>
<path d="M 1243.68 1051.89 L 1306.16 1051.67 C 1306.44 1110.09 1306.37 1168.51 1305.94 1226.93 L 1243.72 1226.99 L 1243.68 1051.89 z" fill="rgb(13,32,42)" transform="translate(0,0)"></path>
<path d="M 1243.72 922.903 L 1305.9 922.924 C 1305.89 944.239 1305.75 965.554 1305.48 986.867 C 1289.7 987.911 1260.4 987.097 1243.8 987.084 C 1243.59 965.691 1243.56 944.297 1243.72 922.903 z" fill="rgb(13,32,42)" transform="translate(0,0)"></path>
<path d="M 985.745 461.498 L 1336.84 461.647 C 1392.33 461.58 1447.82 461.804 1503.3 462.319 L 1503.64 1282.59 C 1480.2 1255.98 1466 1244.72 1437.15 1224.96 L 1436.99 527.072 L 1027.75 527.13 L 926.312 527.102 C 901.066 527.107 869.83 526.248 845.482 528.922 C 780.385 536.728 719.672 565.764 672.734 611.539 C 633.585 649.78 605.726 698.066 592.216 751.1 C 585.827 776.957 582.007 812.695 584.058 839.455 C 586.142 866.641 586.772 889.89 586.706 917.226 L 586.266 1227.53 C 555.722 1248.78 542.004 1264.24 520.218 1292.94 C 522.571 1185.99 520.966 1073.54 520.995 966.132 L 521.072 867.959 C 521.164 815.906 520.089 778.227 533.424 726.925 C 549.295 666.539 580.841 611.42 624.869 567.15 C 682.712 508.757 759.103 472.356 840.891 464.213 C 881.166 460.105 943.728 461.646 985.745 461.498 z" fill="rgb(250,157,13)" transform="translate(0,0)"></path>
<path d="M 873.979 712.535 C 935.99 706.632 991.053 752.096 996.993 814.103 C 1002.93 876.109 957.502 931.2 895.499 937.178 C 833.443 943.16 778.295 897.683 772.35 835.623 C 766.405 773.562 811.916 718.442 873.979 712.535 z" fill="rgb(250,157,13)" transform="translate(0,0)"></path>
<path d="M 1059.92 1528.42 C 1081.14 1526.22 1116.04 1530.5 1136.25 1536.31 C 1201.58 1555.09 1250.87 1593.03 1284.58 1651.31 L 1086.67 1650.79 L 860.558 1651.03 C 867.997 1637.09 875.158 1627.03 885.49 1615.1 C 931.85 1561.54 989.52 1533.14 1059.92 1528.42 z" fill="rgb(250,157,13)" transform="translate(0,0)"></path>
<path d="M 649.911 1016.54 C 652.501 1018.59 656.756 1023.25 659.063 1025.82 C 675.851 1044.51 693.506 1058.69 714.159 1072.8 L 714.194 1312.7 C 650.46 1334.08 593.532 1371.97 549.208 1422.52 C 537.082 1436.98 531.061 1445.65 521.243 1461.66 C 522.171 1448.94 525.587 1431.53 528.793 1418.98 C 545.86 1351.51 589.278 1293.7 649.323 1258.51 C 649.764 1178.69 648.178 1096.05 649.911 1016.54 z" fill="rgb(250,157,13)" transform="translate(0,0)"></path>
<path d="M 849.015 591.369 L 850.952 591.373 C 853.238 595.036 852.185 642.847 852.152 650.602 C 773.428 669.081 728.706 716.925 710.342 794.946 L 649.779 794.921 L 647.763 794.439 L 647.011 792.577 C 666.725 684.094 739.42 608.547 849.015 591.369 z" fill="rgb(250,157,13)" transform="translate(0,0)"></path>
<path d="M 646.529 859.092 L 711.426 858.983 C 715.221 883.956 724.87 907.677 739.585 928.208 C 765.45 964.373 808.976 992.342 852.76 999.695 C 852.862 1019.7 852.847 1039.71 852.716 1059.72 C 778.526 1052.47 708.011 1004.18 673.525 938.841 C 660.838 914.807 649.053 886.346 646.529 859.092 z" fill="rgb(250,157,13)" transform="translate(0,0)"></path>
<path d="M 917.6 591.435 C 959.562 596.015 999.377 612.357 1032.46 638.578 C 1082.46 677.609 1110.87 732.388 1118.5 794.817 C 1099.23 795.006 1079.95 794.899 1060.67 794.498 C 1053.83 768.577 1047.65 748.339 1031.99 725.694 C 1005.57 687.502 962.645 659.748 917.087 651.165 C 917.037 637.351 916.12 603.175 917.6 591.435 z" fill="rgb(250,157,13)" transform="translate(0,0)"></path>
<path d="M 1059.56 859.448 C 1079.67 859.414 1099.79 859.544 1119.9 859.84 C 1103.67 948.44 1048.42 1015.25 964.242 1047.12 C 947.342 1052.66 934.623 1055.63 917.347 1059.12 C 917.258 1038.95 917.327 1018.78 917.554 998.605 C 944.379 991.718 963.672 985.681 987.02 969.743 C 1024.97 944.149 1051.09 904.429 1059.56 859.448 z" fill="rgb(250,157,13)" transform="translate(0,0)"></path>
<path d="M 592.654 1472.85 C 594.579 1475.55 594.03 1634.37 594.024 1651.17 L 521.262 1651.26 C 520.525 1649.95 520.317 1649.6 520.325 1648.03 C 520.65 1583.53 549.714 1519.57 592.654 1472.85 z" fill="rgb(250,157,13)" transform="translate(0,0)"></path>
<path d="M 1436.17 1476.58 C 1442.74 1481.27 1453.47 1497.26 1458.13 1504.1 C 1488.6 1548.72 1504.55 1596.93 1504.99 1651.06 L 1436.1 1651.02 C 1436.2 1594.85 1434.41 1532.12 1436.17 1476.58 z" fill="rgb(250,157,13)" transform="translate(0,0)"></path>
<metadata><recraft-signature>{"signed_by": "recraft", "signature_b64": "war8PieDRrspE7bh0ZkSa/QWijju7TOqhcRiuzYraSZDb7jrVHX7z1TDPE2xMJLPN2Nrt6RxxqdfgHF+7/MJBQ==", "signing_algo": "Ed25519", "generation_timestamp": 1772810097, "identifier": "a858fc12-1e4a-4ba5-8d5d-896d5c1eba7b"}</recraft-signature></metadata></svg>