<svg xmlns="http://www.w3.org/2000/svg" height="1024" preserveAspectRatio="none" style="display: block;" version="1.1" viewBox="0 0 2048 2048" width="1024">
<path d="M 0 0 L 2048 0 L 2048 2048 L 0 2048 L 0 0 z" fill="rgb(238,238,237)" transform="translate(0,0)"></path>
<path d="M 861.04 151.465 C 935.624 150.493 1011.18 151.207 1085.84 151.228 C 1125.23 151.239 1171.31 149.803 1209.79 151.356 C 1383.66 158.214 1552.89 201.889 1685.61 320.247 C 1835.38 453.801 1891.31 648.877 1898.8 843.641 C 1899.95 909.401 1900.4 975.351 1899.85 1041.13 C 1899.37 1099.23 1901.51 1159.3 1898.33 1217.22 C 1891.54 1340.63 1865.35 1465.49 1805.73 1574.47 C 1715.46 1739.49 1552.93 1842.03 1370.61 1876.75 C 1311.24 1888.04 1250.41 1893.72 1190.26 1896.89 L 976.182 1896.98 C 936.94 1896.96 887.459 1898.47 849.004 1896.56 C 664.054 1887.39 489.811 1845.92 351.696 1715.11 C 252.722 1621.36 201.531 1510.35 172.313 1379.38 C 158.822 1320.84 151.16 1261.1 149.441 1201.05 C 148.589 1173.45 149.116 1144.2 149.153 1116.46 L 149.083 988.807 C 149.056 935.968 147.337 870.047 150.85 818.194 C 162.177 651.029 208.397 481.752 326.217 357.596 C 473.216 202.692 654.676 157.819 861.04 151.465 z" fill="rgb(255,123,30)" transform="translate(0,0)"></path>
<path d="M 965.511 279.427 C 975.962 278.745 988.609 278.509 999.09 278.827 C 1065.42 280.838 1135.16 275.616 1201.02 280.978 C 1308.2 290.223 1411.14 327.129 1499.78 388.087 C 1450.71 368.846 1390.34 366.73 1339.22 378.401 C 1320.42 382.695 1311.43 389.038 1291.04 389.21 L 1075.42 389.243 C 1027.93 389.116 972.703 387.466 926.306 392.911 C 788.679 410.014 660.459 471.78 561.301 568.74 C 438.348 691.266 370.355 848.869 370.243 1023.07 C 369.214 1163.34 414.778 1299.97 499.787 1411.55 C 612.492 1557.58 786.627 1649.72 971.062 1658.14 C 990.478 1659.02 1011.33 1658.31 1030.92 1658.27 L 1149.07 1658.11 L 1458.97 1658.44 L 1459.12 975.546 L 1459.08 757.023 L 1459.02 687.735 C 1459.01 673.593 1458.68 659.858 1458.4 645.423 C 1457.46 598.443 1400.76 576.822 1367.45 608.883 C 1348.91 626.723 1351.45 655.397 1351.35 679.797 L 1351.44 746.75 L 1351.38 939.709 L 1351.02 1545.92 L 1120.97 1545.87 L 1026.95 1545.94 C 1000.95 1545.99 972.202 1546.6 946.381 1544.01 C 879.131 1537.28 812.758 1515.94 753.415 1484.02 C 632.256 1418.72 541.844 1308.15 501.911 1176.43 C 460.485 1038.24 475.654 899.904 543.946 773.23 C 610.247 651.702 721.695 561.136 854.215 521.096 C 930.172 498.525 974.469 500.995 1051.72 501.065 L 1173 500.929 C 1153.18 534.939 1140.83 572.776 1136.75 611.927 L 994.014 611.873 C 885.198 612.836 784.771 658.827 708.967 736.275 C 632.739 813.657 590.135 918 590.415 1026.62 C 590.811 1136.1 635.231 1240.82 713.672 1317.19 C 778.153 1379.96 867.493 1423.29 957.223 1432.84 C 991.648 1436.51 1040.1 1435.14 1075.73 1435.13 C 1131.37 1435.33 1187.01 1435.17 1242.64 1434.64 C 1243.45 1410.79 1242.99 1384.39 1242.99 1360.45 L 1242.92 1232.23 L 1242.9 834.514 C 1242.92 769.129 1242 702.845 1242.91 637.854 C 1245.08 482.6 1451.76 425.793 1538.72 551.109 C 1565.54 589.758 1565.83 627.026 1565.95 671.496 L 1566.04 739.126 L 1566.05 968.753 L 1566.08 1376.22 C 1566.16 1452.92 1567.59 1536.86 1565.6 1613.24 C 1549.52 1628.66 1531.79 1641.56 1513.73 1654.47 C 1423.66 1720.07 1317 1759.11 1205.86 1767.13 C 1161.09 1769.99 1112.94 1768.9 1067.77 1768.89 C 1017.66 1768.88 965.522 1770.05 915.91 1764.66 C 766.488 1747.15 625.803 1685.04 512.186 1586.43 C 371.027 1461.83 278.877 1295.58 269.213 1106.29 C 265.86 1040.61 265.862 948.913 275.533 885.439 C 296.829 754.081 354.771 631.401 442.694 531.511 C 583.344 373.726 754.834 291.459 965.511 279.427 z" fill="rgb(0,0,0)" transform="translate(0,0)"></path>
<path d="M 974.579 725.411 C 984.209 724.029 1018.32 724.688 1029.46 724.72 L 1134.95 724.731 L 1134.68 1321.05 C 1103.95 1321.47 1073.21 1321.72 1042.48 1321.79 C 977.529 1321.96 945.863 1323.09 883.405 1299.05 C 856.04 1288.14 825.239 1269.42 803.14 1250.7 C 743.63 1200.09 706.422 1128.1 699.558 1050.29 C 690.688 942.571 739.446 839.836 826.969 777.484 C 872.797 744.836 919.031 730.064 974.579 725.411 z" fill="rgb(0,0,0)" transform="translate(0,0)"></path>
<path d="M 992.16 835.42 C 1002.3 834.689 1014.79 834.976 1025.11 834.949 C 1025.83 960.025 1025.81 1085.1 1025.04 1210.18 C 971.343 1210.88 928.374 1205.86 883.487 1172.77 C 880.396 1170.46 877.371 1168.07 874.414 1165.59 C 836.423 1133.65 812.947 1087.72 809.318 1038.22 C 805.248 988.852 821.326 939.937 853.892 902.611 C 890.829 859.709 936.526 839.375 992.16 835.42 z" fill="rgb(255,123,30)" transform="translate(0,0)"></path>
<path d="M 1653.44 536.654 C 1657.56 540.063 1668.84 557.077 1672.11 562 C 1704.2 610.362 1732.27 663.651 1749.58 719.204 C 1760.1 754.038 1767.39 789.769 1771.34 825.941 C 1776.84 880.403 1775.04 958.899 1774.82 1015.38 C 1774.51 1093.38 1779.23 1182.89 1766.27 1258.79 C 1756.17 1314.79 1737.87 1368.99 1711.95 1419.64 C 1700.01 1441.33 1687.65 1462.79 1674.89 1484.02 C 1675.6 1421.43 1675.04 1357.84 1675.05 1295.19 L 1675.01 927.619 L 1675.02 733.82 C 1675.02 659.929 1679.79 607.995 1653.44 536.654 z" fill="rgb(0,0,0)" transform="translate(0,0)"></path>
<metadata><recraft-signature>{"signed_by": "recraft", "signature_b64": "EOMt7pvtmbcE+Ez2XXXTabevtU6Fx/Iuy1PdE+4yiRU1Xw/OZlgXTNsDSVv08QNCqxIeBzPkbrZ8V4IUb6w8Bw==", "signing_algo": "Ed25519", "generation_timestamp": 1772810144, "identifier": "71c05333-855f-4c80-8da1-88b000c6f28c"}</recraft-signature></metadata></svg>