<svg xmlns="http://www.w3.org/2000/svg" height="1024" preserveAspectRatio="none" style="display: block;" version="1.1" viewBox="0 0 2048 2048" width="1024">
<path d="M 0 0 L 2048 0 L 2048 2048 L 0 2048 L 0 0 z" fill="rgb(255,255,255)" transform="translate(0,0)"></path>
<path d="M 563.595 273.424 C 567.371 273.24 571.15 273.151 574.93 273.156 L 1223.31 272.964 L 1396.04 272.95 C 1436.48 272.913 1490.37 270.655 1529.12 278.353 C 1589.55 290 1645.18 319.279 1688.99 362.498 C 1737.16 411.163 1767.69 474.516 1775.75 542.507 C 1777.73 558.946 1777.92 579.572 1777.97 596.106 L 1778.04 1220.09 L 1778.04 1390.85 C 1778.07 1436.4 1780.59 1490.99 1771.32 1534.9 C 1758.56 1593.71 1728.93 1647.52 1686.05 1689.73 C 1646.86 1728.23 1598.12 1755.57 1544.84 1768.93 C 1505.72 1778.53 1474.12 1777.87 1434.49 1777.98 L 1356.58 1778.1 L 1126.5 1777.87 C 1093.38 1777.91 1058.35 1778.51 1025.38 1777.59 C 1016.7 1770.09 1004.07 1756.59 995.782 1748.09 C 978.554 1730.26 961.188 1712.57 943.685 1695 L 741.266 1490.84 C 717.405 1466.86 689.053 1436.76 665.065 1414.01 L 665.041 1777.4 C 641.708 1778.85 616.395 1776.94 592.861 1777.58 C 580.15 1777.93 564.946 1777.49 552.283 1776.35 C 487.317 1770.56 425.911 1744.12 377.063 1700.9 C 316.33 1647.74 279.342 1572.53 274.317 1491.98 C 273.148 1471.39 273.873 1444.52 273.883 1423.44 L 273.95 1302.2 L 273.825 932.59 L 273.711 684.105 C 273.672 635.166 270.962 563.977 279.286 518.002 C 289.302 465.152 313.58 416.047 349.491 375.999 C 404.187 314.441 481.348 277.474 563.595 273.424 z" fill="rgb(25,27,87)" transform="translate(0,0)"></path>
<path d="M 1394.59 764.074 L 1543.91 764.05 C 1574.71 764.015 1607.1 763.528 1637.78 764.546 L 1638.02 1411.94 L 1638.02 1615.56 L 1638.02 1679.63 C 1638.01 1691.65 1637.58 1707.88 1638.62 1719.44 C 1627.13 1726.6 1617.64 1732.22 1605.65 1738.41 C 1527.94 1776.82 1477.29 1770.85 1394.71 1770.83 L 1394.59 764.074 z" fill="rgb(254,146,16)" transform="translate(0,0)"></path>
<path d="M 595.692 764.436 C 610.278 762.985 642.359 763.89 658.007 763.896 L 657.913 1770.27 C 634.619 1771.19 611.089 1770.26 587.866 1770.82 C 553.227 1771.66 525.372 1766.68 492.34 1757.4 C 457.702 1745.16 444.353 1739.53 412.734 1719.78 L 412.918 1162.5 L 412.861 1008.78 C 412.848 979.698 410.605 940.962 415.642 912.986 C 431.268 826.202 511.856 768.601 595.692 764.436 z" fill="rgb(254,146,16)" transform="translate(0,0)"></path>
<path d="M 1023.85 439.817 L 1024.36 440.324 C 1026.15 445.888 1025.23 501.681 1025.26 510.816 L 1025.72 746.067 L 1025.09 1767.68 C 969.059 1708.44 908.386 1649.48 850.978 1590.78 C 821.54 1561.7 793.364 1532.08 764.214 1503.17 C 744.85 1483.92 725.612 1464.54 706.5 1445.04 C 694.801 1433.2 681.386 1420.37 670.425 1408.09 L 732.7 1408.3 C 748.694 1408.33 775.645 1409.45 790.423 1405.47 C 802.438 1402.23 813.385 1395.88 822.159 1387.05 C 852.563 1356.66 845.413 1317.84 845.177 1278.1 C 844.967 1240.69 844.953 1203.27 845.135 1165.85 L 845.044 703.189 C 845.172 659.08 849.122 622.116 879.066 586.563 C 896.481 565.887 916.561 547.51 935.687 528.401 L 1023.85 439.817 z" fill="rgb(254,146,16)" transform="translate(0,0)"></path>
<path d="M 412.954 880.636 C 412.842 846.298 411.328 797.335 414.317 763.975 C 421.66 682.034 461.889 601.086 520.096 543.202 C 594.06 469.646 686.716 433.523 790.456 433.386 C 831.616 433.6 872.776 433.603 913.936 433.395 C 948.359 433.248 984.781 432.594 1019.02 433.458 L 921.225 532.394 C 906.163 547.554 879.225 572.597 867.716 588.775 C 855.352 606.478 846.565 626.425 841.848 647.497 C 836.179 673.489 837.832 727.45 837.956 756.717 L 691.712 756.627 C 650.599 756.461 591.203 753.262 552.929 763.035 C 516.837 772.107 483.955 790.979 457.915 817.567 C 439.376 836.284 424.976 858.686 415.648 883.324 L 412.954 880.636 z" fill="rgb(255,255,255)" transform="translate(0,0)"></path>
<path d="M 1209.7 764.315 C 1230.62 763.648 1253.9 764.122 1275.03 764.08 C 1312.33 763.872 1349.64 763.946 1386.94 764.304 L 1386.95 1241.2 L 1387.01 1353.53 C 1387.02 1359.44 1387.89 1389.86 1385.6 1393.28 C 1327.65 1337.53 1268.02 1277.9 1209.23 1223.47 L 1209.7 764.315 z" fill="rgb(255,255,255)" transform="translate(0,0)"></path>
<path d="M 664.987 764.007 L 837.53 764.006 L 837.806 1219.74 C 809.232 1247.87 780.888 1277.51 752.291 1306 C 723.03 1334.95 693.984 1364.12 665.154 1393.49 L 664.987 764.007 z" fill="rgb(255,255,255)" transform="translate(0,0)"></path>
<path d="M 1038.51 433.482 C 1126.4 431.989 1219.01 433.3 1307.12 433.696 L 1306.98 585.872 C 1306.98 611.257 1306.4 637.138 1307.68 662.408 C 1309.51 698.366 1341.07 718.556 1364.25 741.513 C 1368.88 746.099 1375.55 751.027 1379.32 756.232 L 1378.05 756.838 C 1322.38 756.032 1265.37 757.041 1209.49 756.673 L 1209.41 696.73 C 1209.4 682.624 1209.77 666.418 1208.23 652.563 C 1205.99 631.452 1199.19 611.081 1188.29 592.865 C 1177.39 574.996 1151.42 549.972 1135.92 534.437 L 1078 476.303 C 1072.68 470.927 1037.65 436.661 1036.55 434.168 L 1038.51 433.482 z" fill="rgb(255,255,255)" transform="translate(0,0)"></path>
<path d="M 1314.42 438.511 C 1324.27 446.117 1354.14 478.464 1364.74 489.003 C 1415.19 539.479 1465.18 590.412 1514.71 641.794 L 1593.3 722.182 C 1598.86 727.887 1622.65 751.47 1626 756.614 C 1604.41 757.626 1574.14 756.638 1551.71 756.68 C 1498.41 756.957 1445.11 756.772 1391.81 756.123 C 1373.97 740.688 1356.77 723.721 1339.56 707.933 C 1315.62 685.965 1314 664.763 1314.77 634.164 C 1315.15 619.095 1314.74 602.626 1314.74 587.418 L 1314.42 438.511 z" fill="rgb(254,146,16)" transform="translate(0,0)"></path>
<path d="M 1249.12 1406.32 C 1258.69 1405.01 1281.45 1405.98 1291.79 1405.91 C 1323.29 1405.67 1355.54 1407.06 1387.02 1406.28 C 1346.83 1448.09 1303.76 1489.6 1263 1531.66 C 1240.01 1555.63 1215.36 1579.69 1192.01 1603.58 L 1192.8 1514.4 C 1192.81 1501.43 1191.97 1469.25 1194.22 1457.49 C 1196.12 1447.92 1200.05 1438.86 1205.75 1430.94 C 1216.66 1415.83 1231.26 1409.13 1249.12 1406.32 z" fill="rgb(255,255,255)" transform="translate(0,0)"></path>
<path d="M 837.647 1230.77 C 838.763 1236.8 838.508 1260.46 837.986 1267.47 C 835.074 1306.59 847.782 1353.36 815.462 1383.1 C 790.492 1406.08 758.836 1401.12 728.249 1401.06 C 708.742 1401.16 689.235 1401.02 669.732 1400.62 C 669.691 1398.49 820.13 1248.64 837.647 1230.77 z" fill="rgb(254,146,16)" transform="translate(0,0)"></path>
<path d="M 412.954 880.636 L 415.648 883.324 C 415.32 884.462 414.957 887.02 413.653 887.55 C 412.671 886.999 412.966 881.613 412.954 880.636 z" fill="rgb(244,245,250)" transform="translate(0,0)"></path>
<metadata><recraft-signature>{"signed_by": "recraft", "signature_b64": "/NducvEuqeJTl4Ddb/monxvWvdavCWDOi5PFxji6KgB86KYNvWsHaTAG7zq4ipXp3X6QHynxs3K2yG0NM3qMDw==", "signing_algo": "Ed25519", "generation_timestamp": 1772810122, "identifier": "c480abee-247d-40d8-9b64-7a692dd81c74"}</recraft-signature></metadata></svg>