<svg xmlns="http://www.w3.org/2000/svg" height="1024" preserveAspectRatio="none" style="display: block;" version="1.1" viewBox="0 0 2048 2048" width="1024">
<path d="M 0 0 L 2048 0 L 2048 2048 L 0 2048 L 0 0 z" fill="rgb(255,255,255)" transform="translate(0,0)"></path>
<path d="M 1336.51 272.414 C 1357.63 270.31 1400.51 272.187 1421.67 275.328 C 1534.69 292.102 1625.34 349.401 1693.54 439.633 C 1663 440.199 1630.39 439.57 1599.73 439.526 L 1414.5 439.27 L 1054.34 438.871 C 1118.55 338.072 1216.94 280.349 1336.51 272.414 z" fill="rgb(17,179,90)" transform="translate(0,0)"></path>
<path d="M 666.907 271.427 C 707.915 269.52 748.963 274.221 788.478 285.349 C 871.687 308.997 950.256 362.929 992.865 439.352 L 683.5 439.253 C 574.763 439.347 464.652 440.274 355.991 439.074 C 363.649 428.944 371.673 419.097 380.048 409.551 C 454.889 324.698 554.616 278.403 666.907 271.427 z" fill="rgb(17,179,90)" transform="translate(0,0)"></path>
<path d="M 1384.06 490.403 C 1387.08 490.076 1390.1 490.074 1393.14 490.089 C 1423.7 490.276 1452.92 502.615 1474.37 524.383 C 1515.28 565.883 1507.35 615.012 1507.27 668.395 L 1507.05 797.007 C 1472.17 797.475 1436.45 797.104 1401.5 797.132 L 1277.31 797.181 C 1276.48 738.312 1278.47 678.438 1277.1 619.739 C 1275.51 551.297 1312.3 497 1384.06 490.403 z" fill="rgb(17,179,90)" transform="translate(0,0)"></path>
<path d="M 1563.19 852.734 L 1774.08 852.807 L 1774.62 1157.54 C 1771.07 1158.13 1758.56 1157.88 1754.47 1157.87 L 1711.32 1157.67 L 1562.93 1157.97 L 1563.19 852.734 z" fill="rgb(17,179,90)" transform="translate(0,0)"></path>
<path d="M 1563.2 1211.22 L 1774.01 1211.1 L 1774.07 1308.51 C 1774 1382.25 1773.69 1427.79 1748.45 1498.24 C 1744.78 1507.84 1741.64 1515.93 1737.26 1525.29 C 1679.74 1526.06 1620.64 1525.6 1563.03 1525.34 L 1563.2 1211.22 z" fill="rgb(17,179,90)" transform="translate(0,0)"></path>
<path d="M 276.924 1210.91 L 481.723 1210.72 L 481.959 1526.68 L 313.843 1526.34 C 307.723 1514.66 303.225 1501.93 298.683 1489.6 C 276.041 1428.13 276.794 1375.72 276.816 1311.56 L 276.924 1210.91 z" fill="rgb(17,179,90)" transform="translate(0,0)"></path>
<path d="M 824.311 1209.37 C 835.189 1210.23 846.346 1210.54 857.095 1212.23 C 889.978 1217.41 920.392 1232.81 944.016 1256.27 C 973.827 1286.55 990.374 1327.45 990.011 1369.95 C 989.854 1413.22 973.621 1451.2 942.966 1481.58 C 910.525 1512.89 867.732 1525.75 823.53 1526.89 L 823.928 1320.77 L 823.966 1250.1 C 823.955 1237.66 823.518 1221.54 824.311 1209.37 z" fill="rgb(17,179,90)" transform="translate(0,0)"></path>
<path d="M 822.855 850.871 C 830.521 850.882 838.078 850.818 845.72 851.529 C 978.437 863.872 1034.54 1019.99 942.522 1115.86 C 909.635 1148.69 868.439 1160.64 823.098 1161.22 L 822.855 850.871 z" fill="rgb(17,179,90)" transform="translate(0,0)"></path>
<path d="M 822.729 490.984 C 865.894 490.876 908.677 504.423 940.043 534.939 C 969.657 563.289 986.509 602.434 986.75 643.43 C 987.343 687.086 972.703 724.903 942.289 756.053 C 907.815 789.152 869.644 799.621 822.885 800.649 L 822.729 490.984 z" fill="rgb(17,179,90)" transform="translate(0,0)"></path>
<path d="M 1209.15 1210.39 C 1212.11 1209.94 1219.61 1209.75 1222.93 1209.57 C 1222.58 1314.63 1223.88 1421.6 1222.49 1526.4 C 1180.17 1524.95 1148.81 1514.32 1115.21 1487.54 C 1084.42 1458.68 1067.08 1425.87 1062.35 1383.46 C 1057.39 1342.43 1069.36 1301.16 1095.49 1269.15 C 1124.27 1233.4 1164.17 1215.4 1209.15 1210.39 z" fill="rgb(17,179,90)" transform="translate(0,0)"></path>
<path d="M 1206.66 851.4 C 1210.63 850.821 1218.58 850.907 1222.96 850.827 L 1222.96 1162.66 C 1182.99 1160.35 1150.47 1150.06 1118.99 1125.3 C 1054.41 1071.89 1039.07 975.834 1093.14 909.681 C 1122.99 873.15 1160.27 856.142 1206.66 851.4 z" fill="rgb(17,179,90)" transform="translate(0,0)"></path>
<path d="M 1211.02 491.41 C 1213.93 491.047 1219.81 491.066 1222.96 490.977 L 1222.53 800.949 C 1182.29 801.275 1147.59 788.778 1116.43 763.83 C 1094.2 744.299 1079.78 725.287 1070.81 696.965 C 1037.97 593.287 1105.62 501.08 1211.02 491.41 z" fill="rgb(17,179,90)" transform="translate(0,0)"></path>
<path d="M 1277.69 1210.95 L 1507.17 1210.93 L 1507.06 1403.78 C 1498.61 1397.5 1491.89 1392.86 1483.08 1387.13 C 1466.13 1376.4 1447.17 1369.26 1427.36 1366.13 C 1367.16 1356.55 1325.25 1372.94 1277.75 1407.07 L 1277.69 1210.95 z" fill="rgb(17,179,90)" transform="translate(0,0)"></path>
<path d="M 537.068 852.774 L 767.147 852.862 L 767.017 1042.06 C 760.127 1035.74 752.311 1029.94 744.56 1024.73 C 724.208 1011.91 701.36 1003.58 677.535 1000.28 C 622.149 992.664 580.699 1008.13 537.37 1040.81 L 537.068 852.774 z" fill="rgb(17,179,90)" transform="translate(0,0)"></path>
<path d="M 1277.05 852.735 L 1507.09 852.961 L 1507.13 1011.42 C 1483 1012.59 1452.28 1011.84 1427.78 1011.87 L 1277.04 1011.93 L 1277.05 852.735 z" fill="rgb(17,179,90)" transform="translate(0,0)"></path>
<path d="M 648.017 490.401 C 680.738 487.215 712.41 499.285 735.67 522.365 C 774.231 560.628 768.973 606.921 768.8 656.749 L 658.75 656.704 L 538.099 656.719 C 537.938 611.218 533.912 571.57 564.789 534.271 C 586.836 507.638 613.768 493.769 648.017 490.401 z" fill="rgb(17,179,90)" transform="translate(0,0)"></path>
<path d="M 276.711 852.974 L 481.825 852.772 L 481.384 1033.13 C 475.671 1028.84 472.183 1026.71 466.003 1023.1 C 401.262 988.281 340.095 990.961 277.004 1027.24 L 276.711 852.974 z" fill="rgb(17,179,90)" transform="translate(0,0)"></path>
<path d="M 1662.68 491.354 C 1693.79 487.895 1732.5 495.751 1745.35 530.125 C 1760.79 571.434 1772.3 612.05 1773.11 657.021 L 1674.5 656.711 L 1562.37 656.882 C 1562.8 614.063 1557.4 570.447 1585.24 535.395 C 1605.55 509.832 1630.61 495.586 1662.68 491.354 z" fill="rgb(17,179,90)" transform="translate(0,0)"></path>
<path d="M 366.705 492.412 C 395.263 488.916 429.668 502.908 450.02 522.9 C 487.847 560.059 482.444 608.557 482.366 657.127 L 394.5 656.969 L 276.916 656.943 C 277.048 606.696 291.687 554.867 314.179 510.243 C 329.529 499.333 348.167 494.111 366.705 492.412 z" fill="rgb(17,179,90)" transform="translate(0,0)"></path>
<path d="M 537.937 1210.56 C 567.674 1210.82 597.412 1210.92 627.15 1210.86 L 626.986 1526.97 L 538.221 1526.8 L 537.937 1210.56 z" fill="rgb(17,179,90)" transform="translate(0,0)"></path>
<path d="M 680.455 1210.76 L 769.035 1210.67 C 769.005 1243.75 770.268 1522.03 767.858 1526.45 C 738.581 1526.74 709.303 1526.81 680.026 1526.65 C 680.793 1421.36 680.937 1316.06 680.455 1210.76 z" fill="rgb(17,179,90)" transform="translate(0,0)"></path>
<path d="M 823.542 1575.24 C 884.836 1579.49 933.097 1599.23 966.972 1652.75 C 991.781 1691.94 990.21 1732.49 989.891 1776.75 C 935.327 1777.74 878.501 1776.99 823.762 1777.02 C 824.181 1709.76 824.108 1642.5 823.542 1575.24 z" fill="rgb(17,179,90)" transform="translate(0,0)"></path>
<path d="M 1210.55 1575.39 C 1214.5 1574.79 1221.08 1574.96 1225.29 1574.92 L 1225.24 1776.61 C 1178.01 1778.01 1125.7 1776.85 1078.19 1776.78 L 1060.07 1776.62 C 1059.97 1721.68 1057.46 1682.74 1094.33 1636 C 1123.37 1599.17 1164.23 1580.28 1210.55 1575.39 z" fill="rgb(17,179,90)" transform="translate(0,0)"></path>
<path d="M 1277.04 1065.91 C 1353.51 1065.74 1431.92 1065.1 1508.31 1066.16 C 1508.61 1096.65 1508.73 1127.14 1508.65 1157.63 L 1276.98 1157.11 L 1277.04 1065.91 z" fill="rgb(17,179,90)" transform="translate(0,0)"></path>
<path d="M 538.597 711.287 C 613.98 712.406 692.498 711.406 768.036 711.249 L 767.788 796.84 L 538.192 797.13 C 538.171 769.491 537.511 738.656 538.597 711.287 z" fill="rgb(17,179,90)" transform="translate(0,0)"></path>
<path d="M 1379.98 1419.36 C 1449.99 1413.83 1500.36 1456.13 1510.53 1525.04 C 1477.16 1525.84 1441.09 1525.19 1407.5 1525.23 L 1275.75 1525.13 C 1285.87 1467.47 1320.11 1427.33 1379.98 1419.36 z" fill="rgb(17,179,90)" transform="translate(0,0)"></path>
<path d="M 647.647 1054.43 C 709.925 1050.03 762.176 1094.11 767.529 1156.53 C 733.723 1157.84 693.795 1156.95 659.5 1157.08 L 537.666 1157.03 C 539.298 1133.46 548.529 1111.07 563.972 1093.19 C 585.377 1068.72 615.627 1056.4 647.647 1054.43 z" fill="rgb(17,179,90)" transform="translate(0,0)"></path>
<path d="M 1563.04 711.187 C 1633.02 712.105 1703.92 710.799 1774.14 711.387 C 1774.62 739.598 1774.27 768.789 1774.24 797.041 L 1562.93 797.058 L 1563.04 711.187 z" fill="rgb(17,179,90)" transform="translate(0,0)"></path>
<path d="M 276.942 711.061 L 482.493 711.453 C 482.72 739.934 482.758 768.415 482.606 796.897 C 461.41 797.826 434.173 797.069 412.6 797.098 L 276.96 797.277 L 276.942 711.061 z" fill="rgb(17,179,90)" transform="translate(0,0)"></path>
<path d="M 360.696 1055.37 L 362.493 1055.15 C 403.602 1050.65 443.091 1065.25 467.015 1099.72 C 479.737 1118.04 482.842 1134.19 485.25 1155.93 L 402.5 1156.38 L 276.849 1156.83 L 276.855 1103.21 C 298.737 1075.09 325.612 1059.87 360.696 1055.37 z" fill="rgb(17,179,90)" transform="translate(0,0)"></path>
<path d="M 679.98 1579.88 L 768.933 1580.02 L 768.804 1776.9 C 744.488 1777.76 704.616 1778.24 680.846 1776.38 C 680.99 1710.88 680.701 1645.37 679.98 1579.88 z" fill="rgb(17,179,90)" transform="translate(0,0)"></path>
<path d="M 1277.13 1580.04 L 1364.16 1580.12 L 1364.44 1715.44 C 1364.44 1726.87 1365.12 1766.85 1363.66 1775.71 C 1340.17 1778.35 1301.88 1777.14 1276.95 1777.06 L 1277.13 1580.04 z" fill="rgb(17,179,90)" transform="translate(0,0)"></path>
<path d="M 1428.81 1580.49 C 1455.11 1580.39 1481.41 1580.42 1507.71 1580.58 C 1507.46 1633.92 1508.33 1687.69 1507.35 1740.97 C 1498.39 1745.05 1491.97 1747.35 1482.72 1750.52 C 1460.48 1758.54 1440.97 1763.46 1417.91 1768.27 L 1418.23 1649.19 C 1418.21 1630.51 1417.22 1599.55 1418.56 1581.7 C 1421.34 1580.05 1425.39 1580.49 1428.81 1580.49 z" fill="rgb(17,179,90)" transform="translate(0,0)"></path>
<path d="M 537.648 1580.95 L 627.215 1581.07 C 626.525 1643.01 627.16 1706.01 627.161 1768.07 C 596.529 1761.66 566.644 1752.09 537.982 1739.53 L 537.648 1580.95 z" fill="rgb(17,179,90)" transform="translate(0,0)"></path>
<path d="M 1563.7 1580.5 L 1705.96 1580.91 C 1692.34 1604.29 1667.17 1633.14 1647.28 1651.81 C 1620.88 1675.37 1594.72 1696.27 1563.03 1712.53 L 1563.04 1624.69 C 1563.04 1614.86 1562.46 1588.66 1563.7 1580.5 z" fill="rgb(17,179,90)" transform="translate(0,0)"></path>
<path d="M 343.488 1580.96 L 481.614 1581.04 C 481.429 1624.31 481.515 1667.58 481.872 1710.86 C 474.847 1708.2 459.459 1697.25 452.517 1692.56 C 414.551 1666.91 365.909 1621.39 343.488 1580.96 z" fill="rgb(17,179,90)" transform="translate(0,0)"></path>
<metadata><recraft-signature>{"signed_by": "recraft", "signature_b64": "GWD6XVsNp/b2EwiiLNkwnnJ9o+t/fdwY7imf/VO/AWAhF2AGQoMpcwYLFkOj4DUYhXowcX2vk7Lfn1MIjeOIAg==", "signing_algo": "Ed25519", "generation_timestamp": 1772810477, "identifier": "480d82cd-37fd-4681-b1b0-0cf01eeb538b"}</recraft-signature></metadata></svg>