<svg xmlns="http://www.w3.org/2000/svg" height="1024" preserveAspectRatio="none" style="display: block;" version="1.1" viewBox="0 0 2048 2048" width="1024">
<path d="M 0 0 L 2048 0 L 2048 2048 L 0 2048 L 0 0 z" fill="rgb(246,246,245)" transform="translate(0,0)"></path>
<path d="M 1390.31 1388.14 C 1397.79 1425.51 1410.44 1461.09 1424.35 1496.47 C 1469.3 1613.13 1541.49 1717.36 1634.9 1800.46 C 1649.25 1813.15 1663.93 1824.27 1678.95 1836.08 C 1598.59 1897.74 1521.28 1931.04 1424.33 1956.43 C 1405.97 1960.87 1387.43 1964.49 1368.75 1967.29 C 1305.62 1976.96 1259.4 1976.09 1196.73 1975.88 L 1057.46 1975.69 L 866.86 1975.91 C 825.049 1975.94 778.275 1977.04 737.136 1974.07 C 698.233 1971.05 659.634 1964.91 621.71 1955.72 C 526.352 1932.79 448.432 1893.84 370.028 1836.23 C 378.571 1828.22 389.421 1820.32 398.413 1812.45 C 413.498 1799.23 428.584 1785.85 443.167 1772.09 C 472.355 1744.55 494.301 1715.16 518.247 1683.61 C 570.403 1671.92 610.435 1652.6 644.657 1610.7 C 681.083 1564.94 697.756 1508.99 679.786 1452.04 C 675.337 1437.94 663.487 1402.18 662.562 1389.01 C 686.355 1401.72 725.559 1417.44 751.223 1426.27 C 960.885 1498.79 1190.76 1485.07 1390.31 1388.14 z" fill="rgb(4,167,90)" transform="translate(0,0)"></path>
<path d="M 777.695 72.5048 C 818.209 71.6464 859.937 72.2786 900.5 72.3481 L 1070.82 72.184 L 1201.82 72.0142 C 1234.63 72.0162 1268.51 71.6166 1301.21 73.4712 C 1389.85 78.006 1476.76 99.8091 1557.05 137.657 C 1595.58 155.521 1645.46 183.912 1677.98 211.331 C 1654.53 226.95 1628.96 250.958 1608.31 270.311 C 1499.64 372.133 1428.9 497.491 1384.94 639.013 C 1364.6 630.937 1340.34 623.111 1319.43 615.708 L 1211.5 576.997 L 1115.63 542.955 C 1040.58 516.535 1028.73 508.487 951.72 536.614 C 931.728 544.005 911.677 551.234 891.568 558.3 C 814.682 584.173 738.256 611.397 662.327 639.958 C 616.369 499.855 554.418 383.078 448.077 279.093 C 422.873 254.447 399.647 231.348 369.671 211.538 C 487.426 119.732 629.364 75.4278 777.695 72.5048 z" fill="rgb(4,167,90)" transform="translate(0,0)"></path>
<path d="M 1780.91 301.74 C 1783.8 303.592 1787.7 307.584 1790.04 310.157 C 1903.43 434.577 1969.98 599.107 1976.62 767.238 C 1977.52 790.265 1976.89 813.543 1976.87 836.433 L 1976.83 961.89 C 1976.84 1062.13 1977.55 1161.75 1976.8 1262.81 C 1975.64 1418.91 1918.71 1576.87 1821.9 1699.29 C 1809.23 1715.31 1796.04 1730.86 1781.49 1745.01 C 1720.93 1701.12 1681.14 1657.62 1635.53 1599.58 C 1579.46 1522.76 1540.66 1437.74 1518.55 1345.71 C 1515.49 1333 1512.6 1319.39 1508.84 1306.95 C 1562.51 1248.03 1552.94 1193.3 1552.12 1118.97 C 1582.57 1107.72 1614.94 1096.74 1644.76 1084.43 C 1678.67 1070.42 1705.63 1040 1718.3 1005.39 C 1722.13 994.766 1724.61 983.703 1725.69 972.461 C 1728.55 945.307 1725.94 914.845 1726.87 887.389 C 1727.34 873.484 1727.12 856.081 1725.14 842.457 C 1723.18 828.718 1719.23 815.338 1713.4 802.742 C 1699.83 773.897 1671.75 746.013 1642.97 732.611 C 1627.09 725.221 1605.95 718.576 1588.96 712.641 L 1512.98 686.091 C 1516.8 677.292 1520.83 664.318 1524.13 654.818 C 1530.37 636.257 1537.33 617.945 1544.99 599.923 C 1586.23 504.624 1643.19 421.099 1720.52 351.539 C 1741.15 332.984 1760.42 319.091 1780.91 301.74 z" fill="rgb(4,167,90)" transform="translate(0,0)"></path>
<path d="M 1011.31 668.226 C 1028.77 666.971 1044.45 668.219 1060.7 675.365 C 1082.98 685.184 1100.36 703.573 1108.91 726.373 C 1118.11 750.584 1117.25 777.467 1106.53 801.042 C 1096.51 823.521 1077.83 840.997 1054.73 849.501 C 1023.21 861.217 988.673 854.136 964.213 831.689 C 947.831 816.655 942.385 806.825 934.907 786.323 C 903.881 796.163 876.346 807.118 845.949 818.144 L 688.597 874.869 C 652.242 888.193 610.316 904.622 574.021 916.359 C 585.761 922.075 600.966 926.472 613.566 931.109 L 713.125 966.68 C 816.636 1005.06 920.413 1042.71 1024.45 1079.65 C 1086.75 1054.97 1157.6 1031.21 1221.06 1008.32 L 1592.37 874.337 L 1592.93 969.219 C 1572.64 976.654 1551.88 983.039 1531.6 990.436 C 1493.42 1004.37 1455.36 1018.41 1416.92 1031.63 L 1416.88 1212.33 C 1401.3 1229.38 1371.9 1248.95 1351.75 1260.3 C 1265.47 1308.91 1169.03 1331.98 1070.75 1338.27 C 1057.56 1339.59 1037.15 1339.33 1023.61 1339.5 C 895.043 1341.11 727.969 1302.41 634.208 1208.84 C 633.804 1149.92 634.011 1091 634.83 1032.09 C 593.014 1019.45 544.249 1000.16 502.196 985.299 C 501.439 1007.76 502.282 1035.35 502.279 1058.15 L 502.209 1208.37 C 543.303 1230.66 557.926 1281.97 526.343 1319.73 C 521.776 1325.19 516.06 1329.3 510.339 1333.51 C 519.449 1369.78 531.561 1407.43 541.39 1443.76 C 546.964 1464.35 555.629 1487.35 559.727 1508.11 C 551.79 1525.92 540.661 1538.66 523.598 1548.28 C 500.254 1561.26 472.727 1564.49 447.009 1557.28 C 420.153 1549.7 405.358 1534.46 392.345 1510.91 C 395.576 1493.59 405.201 1464.11 410.359 1446.47 L 442.937 1333.03 C 428.873 1324.01 419.743 1312.65 414.147 1296.8 C 408.035 1279.14 409.133 1259.79 417.202 1242.93 C 425.507 1226.19 440.114 1213.42 457.819 1207.42 L 457.235 874.421 C 473.983 881.465 489.471 886.606 506.755 892.071 C 515.699 889.992 537.627 881.165 547.224 877.605 C 572.969 868.026 598.769 858.593 624.621 849.306 C 727.926 812.128 832.455 772.757 935.886 736.959 C 946.482 698.512 972.137 675.649 1011.31 668.226 z" fill="rgb(4,167,90)" transform="translate(0,0)"></path>
<path d="M 721.828 1062.44 C 737.791 1070.03 763.071 1078.22 780.3 1084.46 L 859.151 1113.59 L 971.635 1153.77 C 989.115 1160.04 1007.44 1167.49 1024.97 1173.14 C 1047.18 1166.04 1073.13 1155.17 1095.85 1147.16 L 1329.61 1062.97 C 1330.63 1088.67 1329.94 1119.18 1330 1145.25 L 1330.04 1166.87 C 1175.72 1278.96 875.446 1280.36 721.389 1167.13 C 720.362 1135.47 721.703 1094.85 721.828 1062.44 z" fill="rgb(246,246,245)" transform="translate(0,0)"></path>
<path d="M 266.739 301.607 C 273.073 303.894 305.435 332.111 312.357 337.923 C 399.475 411.079 465.978 509.861 508.35 614.974 C 517.709 638.191 527.512 662.913 534.26 686.967 C 509.609 694.378 482.909 705.013 458.52 713.57 C 438.172 721.311 413.756 727.482 394.721 737.679 C 357.258 757.825 326.023 802.06 322.584 845 C 319.873 878.838 321.179 917.917 321.229 952.437 C 321.566 1020.59 321.471 1088.74 320.945 1156.89 C 275.286 1220.14 270.44 1282.16 300.476 1353.77 C 293.697 1382.86 283.643 1413.9 276.41 1443.13 C 271.602 1462.57 265.125 1481.16 263.824 1501.48 C 262.96 1517.17 264.741 1532.89 269.092 1547.99 C 282.894 1597.36 311.966 1631.01 355.918 1655.91 L 365.245 1660.63 C 329.992 1693.42 302.918 1714.7 266.129 1744.8 C 148.319 1620.3 79.7048 1457.27 73.0328 1286 C 71.6189 1246.66 72.5053 1201.06 72.6346 1161.44 L 72.7502 970.899 L 72.5497 833.79 C 72.5163 805.667 71.7904 773.525 73.6626 745.717 C 83.9321 579.615 152.276 422.411 266.739 301.607 z" fill="rgb(4,167,90)" transform="translate(0,0)"></path>
<metadata><recraft-signature>{"signed_by": "recraft", "signature_b64": "PV3EGOffOfFLTRqEU3BRM4Pth7NjbEZ1HU/Yj2L67DYO3vaoQiD5Ssf7z8QXvD/U2OYeiezHa/0i4ZwZDrflBg==", "signing_algo": "Ed25519", "generation_timestamp": 1772810452, "identifier": "bd0d86be-71cf-425f-bbc0-38a891b28131"}</recraft-signature></metadata></svg>