<svg xmlns="http://www.w3.org/2000/svg" height="1024" preserveAspectRatio="none" style="display: block;" version="1.1" viewBox="0 0 2048 2048" width="1024">
<path d="M 0 0 L 2048 0 L 2048 2048 L 0 2048 L 0 0 z" fill="rgb(255,255,255)" transform="translate(0,0)"></path>
<path d="M 840.345 1762.84 C 792.707 1763.13 743.683 1765.38 696.248 1761.06 C 598.457 1752.16 496.847 1709.51 426.488 1640.03 C 326.457 1541.24 284.523 1431.56 283.85 1291.74 L 283.921 949.509 L 283.932 811.959 C 283.906 778.251 282.702 737.611 285.589 704.661 C 294.031 598.693 339.555 499.092 414.161 423.366 C 488.856 347.984 587.506 301.017 693.112 290.559 C 737.559 286.091 801.152 287.315 847.107 287.23 L 1143.86 287.958 L 1261.37 287.748 C 1357.93 287.742 1422.18 290.874 1511.79 334.714 C 1557.03 356.769 1598.21 386.296 1633.62 422.054 C 1724.59 512.569 1766.59 631.421 1766.87 758.465 L 1765.99 1098.23 L 1765.97 1241.69 C 1765.91 1314.18 1768.32 1358.64 1749.65 1429.76 C 1730.04 1503.73 1691.4 1571.28 1637.57 1625.68 C 1535.36 1728.18 1416.94 1768.57 1273.72 1762.92 C 1226.91 1761.08 1177.41 1764.78 1130.3 1762.84 C 1121.39 1763.32 1111.87 1763.06 1102.91 1762.99 C 1107.04 1761.51 1107.6 1760.99 1112.2 1760.36 C 1175.88 1745.28 1228.43 1717.84 1276.14 1672.15 C 1341.07 1609.99 1382.53 1520.09 1384.2 1429.87 C 1423.18 1403.02 1471.94 1356.06 1501.71 1319.15 C 1604.55 1191.33 1652.96 1028.17 1636.47 864.947 C 1617.65 691.131 1535.82 545.849 1400.02 436.625 C 1274.36 336.901 1114.33 291.009 954.92 308.991 C 797.117 326.247 645.911 413.827 547.121 537.369 C 441.916 668.123 394.003 835.835 414.257 1002.43 C 429.669 1135.06 487.697 1259.11 579.625 1355.94 C 610.581 1388.12 631.206 1403.62 664.724 1430.39 C 666.104 1515.8 704.127 1600.58 763.037 1661.54 C 812.804 1713.05 870.149 1743.68 939.072 1760.4 C 942.346 1760.85 945.181 1760.74 947.651 1762.41 C 939.732 1764.08 849.292 1763.89 840.345 1762.84 z" fill="rgb(5,186,91)" transform="translate(0,0)"></path>
<path d="M 939.072 1760.4 C 942.346 1760.85 945.181 1760.74 947.651 1762.41 C 939.732 1764.08 849.292 1763.89 840.345 1762.84 C 855.161 1758.45 929.309 1766.27 939.072 1760.4 z" fill="rgb(75,205,140)" transform="translate(0,0)"></path>
<path d="M 1102.91 1762.99 C 1107.04 1761.51 1107.6 1760.99 1112.2 1760.36 C 1117.47 1763.3 1123.56 1762.05 1130.3 1762.84 C 1121.39 1763.32 1111.87 1763.06 1102.91 1762.99 z" fill="rgb(75,205,140)" transform="translate(0,0)"></path>
<path d="M 578.681 868.921 C 579.138 857.656 583.302 837.282 586.049 825.854 C 601.725 762.15 630.219 702.308 669.791 649.983 C 742.15 554.825 848.922 491.818 967.202 474.477 C 1084.05 457.563 1200.13 492.66 1293.71 563.221 C 1388.34 635.825 1451.06 742.353 1468.63 860.325 C 1411.28 838.809 1373.71 793.782 1364.65 732.895 C 1363.15 731.868 1363.36 732.486 1362.23 733.759 C 1352.08 806.359 1290.66 861.804 1218.56 869.966 L 1219.03 871.974 C 1251.88 874.219 1293.41 894.546 1316.86 917.598 C 1338.16 938.528 1364.4 982.05 1364.93 1012.63 L 1367.24 1017.32 C 1373.21 974.046 1396.04 934.882 1430.75 908.356 C 1443.37 898.906 1457.52 890.683 1472.73 886.242 C 1476.27 941.241 1474.71 977.597 1461.31 1031.88 C 1444.64 1044.01 1418.89 1054.26 1398.51 1056.15 L 1398.15 1057.86 C 1416.58 1059.16 1434.81 1060.59 1452.93 1064.51 C 1439.45 1107.94 1419.63 1144.82 1395.26 1183.22 C 1383.72 1168.62 1363.51 1124.99 1366.19 1106.31 C 1365.5 1104.64 1364.78 1102.97 1364.02 1101.32 C 1354.58 1172.09 1298.28 1230.78 1227.8 1242.92 L 1227.17 1244.93 C 1256.56 1246.14 1288.5 1259.09 1314.13 1272.8 C 1297.18 1287.59 1278.24 1302.46 1259.28 1314.61 C 1219.59 1340.03 1219.83 1373.5 1220.5 1415.57 L 1210.16 1415.54 C 1208.62 1376.17 1202.91 1337.82 1198.16 1298.79 C 1197.64 1294.54 1196.96 1288.49 1197.05 1284.36 L 1194.99 1286.03 C 1190.15 1327.63 1165.9 1370.69 1132.9 1396.38 C 1110.62 1413.71 1085.9 1423.12 1058.7 1429.25 L 1059.7 1432.06 C 1112.65 1432.93 1165.61 1433.23 1218.56 1432.94 C 1209.65 1487.97 1189.48 1528.56 1143.44 1562.71 C 1140.08 1565.21 1137.49 1566.88 1133.69 1568.73 C 1096.83 1557.93 1063.09 1529.19 1044.62 1495.66 C 1036.32 1480.81 1030.6 1464.66 1027.68 1447.9 C 1026.63 1447.54 1026.41 1447.46 1025.31 1447.26 C 1023.67 1457.53 1017.66 1475.65 1012.81 1484.94 C 990.398 1527.8 960.584 1553.84 915.721 1569.42 C 911.896 1566.74 908.114 1563.99 904.375 1561.19 C 862.119 1529.32 839.165 1484.23 831.951 1432.44 C 887.299 1431.93 941.005 1433.03 996.636 1432 C 998.021 1430.89 998.86 1431.07 998.099 1429.32 C 923.086 1419.8 858.172 1352.25 853.776 1276.64 C 853.468 1276.4 853.161 1276.15 852.853 1275.91 C 851.939 1276.12 851.371 1284.87 851.102 1286.52 C 851.284 1303.6 849.274 1327.63 848.314 1345.13 C 846.972 1369.55 846.625 1391.14 846.519 1415.56 L 830.213 1415.8 C 830.258 1379.94 830.534 1342.85 798.487 1319.98 C 777.021 1304.67 757.443 1290.66 736.533 1274.33 C 758.532 1261.64 794.812 1247.35 819.759 1245.9 C 823.864 1245.15 827.135 1245.11 831.238 1244 C 806.926 1239.01 789.87 1234.75 768.596 1221.62 C 718.829 1190.92 701.127 1156.27 687.898 1101.95 L 686.477 1101.7 C 681.387 1134.92 675.603 1155.99 655.603 1183.69 C 631.78 1156.77 606.953 1099.64 595.912 1065.46 C 616.839 1062.28 639.901 1058.39 660.998 1058.05 L 661.837 1056.12 C 637.599 1053.98 605.635 1042.1 586.702 1026.68 C 574.249 983.267 572.536 923.354 576.801 878.836 C 591.325 884.408 605.066 891.838 617.68 900.942 C 656.106 928.517 678.476 965.082 686.196 1011.61 C 687.227 1013.16 687.052 1013.21 688.728 1013.73 C 694.572 945.351 764.135 876.515 832.983 873.048 L 834.356 870.971 C 804.973 868.253 776.815 857.883 752.688 840.893 C 714.737 814.495 692.04 774.591 684.053 729.578 C 682.704 734.59 682.886 736.242 682.093 741.266 C 682.269 751.217 681.1 768.263 680.805 778.914 C 679.831 808.838 679.161 838.772 678.795 868.71 C 646.622 869.637 611.103 868.938 578.681 868.921 z" fill="rgb(5,186,91)" transform="translate(0,0)"></path>
<path d="M 851.102 1286.52 C 850.676 1281.93 850.54 1255.85 852.208 1252.93 C 852.518 1252.76 852.372 1252.78 852.646 1252.83 L 852.625 1253.08 L 853.084 1253.86 L 852.574 1254.17 L 853.288 1255.03 C 853.561 1258.53 854.336 1273.99 853.776 1276.64 C 853.468 1276.4 853.161 1276.15 852.853 1275.91 C 851.939 1276.12 851.371 1284.87 851.102 1286.52 z" fill="rgb(75,205,140)" transform="translate(0,0)"></path>
<path d="M 1194.99 1286.03 C 1194.74 1282.92 1195.35 1255.96 1195.82 1253.36 L 1195.85 1253.36 C 1196.03 1252.83 1195.89 1253.06 1196.25 1252.65 C 1196.56 1253.35 1197.25 1282.21 1197.05 1284.36 L 1194.99 1286.03 z" fill="rgb(75,205,140)" transform="translate(0,0)"></path>
<path d="M 682.093 741.266 C 681.829 738.066 681.303 719.469 682.837 718.082 C 684.681 718.142 684.271 728.163 684.053 729.578 C 682.704 734.59 682.886 736.242 682.093 741.266 z" fill="rgb(75,205,140)" transform="translate(0,0)"></path>
<path d="M 831.238 1244 C 835.584 1243.27 842.189 1244.51 846.716 1245.07 C 836.863 1246.12 829.804 1246.67 819.759 1245.9 C 823.864 1245.15 827.135 1245.11 831.238 1244 z" fill="rgb(75,205,140)" transform="translate(0,0)"></path>
<path d="M 998.099 1429.32 C 1001.09 1429.15 1003.8 1429.91 1006.84 1430.2 L 1005.95 1432.33 C 1002.84 1431.99 999.763 1432.06 996.636 1432 C 998.021 1430.89 998.86 1431.07 998.099 1429.32 z" fill="rgb(134,227,183)" transform="translate(0,0)"></path>
<path d="M 834.356 870.971 C 835.346 870.916 847.418 870.642 848.368 870.878 C 848.364 870.992 848.36 871.106 848.356 871.22 C 844.05 871.922 837.076 873.097 832.983 873.048 L 834.356 870.971 z" fill="rgb(75,205,140)" transform="translate(0,0)"></path>
<path d="M 1226.1 1245.31 C 1224.24 1245.62 1214.02 1246.88 1212.81 1245.38 C 1212.85 1243.71 1219.42 1243.89 1220.57 1243.97 C 1222.42 1244.4 1224.26 1244.84 1226.1 1245.31 z" fill="rgb(75,205,140)" transform="translate(0,0)"></path>
<path d="M 1364.02 1101.32 C 1363.77 1099.27 1363.23 1096.25 1364.59 1094.45 C 1366.59 1094.43 1366.2 1104.87 1366.19 1106.31 C 1365.5 1104.64 1364.78 1102.97 1364.02 1101.32 z" fill="rgb(75,205,140)" transform="translate(0,0)"></path>
<path d="M 1393.96 1058.58 C 1392.06 1058.26 1384.48 1057.89 1383.76 1057.41 L 1383.86 1057.38 L 1384.09 1057.06 C 1387.29 1056.3 1393.18 1055.95 1396.44 1055.94 C 1395.69 1056.61 1394.62 1057.85 1393.96 1058.58 z" fill="rgb(75,205,140)" transform="translate(0,0)"></path>
<path d="M 1052.73 1430.08 C 1054.93 1429.89 1056.55 1429.53 1058.7 1429.25 L 1059.7 1432.06 C 1056.62 1432.07 1053.91 1432.06 1050.8 1432.21 L 1052.73 1430.08 z" fill="rgb(199,251,236)" transform="translate(0,0)"></path>
<path d="M 1219.03 871.974 C 1214.51 872.183 1210.9 871.554 1206.47 871.499 C 1209.94 871.388 1213.47 869.926 1218.56 869.966 L 1219.03 871.974 z" fill="rgb(75,205,140)" transform="translate(0,0)"></path>
<path d="M 1363.91 723.837 C 1364.06 727.014 1364.59 730.085 1364.65 732.895 C 1363.15 731.868 1363.36 732.486 1362.23 733.759 C 1362.01 732.342 1361.95 731.933 1361.91 730.493 C 1362.64 728.227 1363.29 726.137 1363.91 723.837 z" fill="rgb(134,227,183)" transform="translate(0,0)"></path>
<path d="M 686.196 1011.61 C 687.227 1013.16 687.052 1013.21 688.728 1013.73 C 688.833 1015.44 688.953 1016.88 688.727 1018.59 L 687.833 1019.1 L 688.377 1019.6 C 686.575 1020.65 686.257 1012.35 686.196 1011.61 z" fill="rgb(134,227,183)" transform="translate(0,0)"></path>
<path d="M 661.837 1056.12 C 663.637 1056.02 667.693 1055.7 669.19 1056.84 C 669.533 1058.37 661.711 1058.05 660.998 1058.05 L 661.837 1056.12 z" fill="rgb(134,227,183)" transform="translate(0,0)"></path>
<path d="M 1025.31 1447.26 C 1025.21 1445.02 1025.06 1442.75 1026.26 1440.89 L 1026.19 1440.75 L 1026.33 1440.57 C 1027.15 1440.56 1027.61 1447.1 1027.68 1447.9 C 1026.63 1447.54 1026.41 1447.46 1025.31 1447.26 z" fill="rgb(134,227,183)" transform="translate(0,0)"></path>
<path d="M 1364.93 1012.63 L 1367.24 1017.32 C 1367.13 1019.35 1367.26 1019.5 1366.66 1021.31 C 1364.69 1022.74 1364.93 1012.9 1364.93 1012.63 z" fill="rgb(75,205,140)" transform="translate(0,0)"></path>
<path d="M 1361.91 730.493 C 1361.93 728.442 1361.5 722.223 1363.2 720.684 C 1363.31 720.724 1363.41 720.764 1363.51 720.804 C 1363.95 721.851 1363.85 722.592 1363.91 723.837 C 1363.29 726.137 1362.64 728.227 1361.91 730.493 z" fill="rgb(75,205,140)" transform="translate(0,0)"></path>
<path d="M 685.881 1098.55 C 685.881 1098.55 685.923 1093.3 687.136 1094.16 C 687.986 1094.77 688.341 1099.15 688.559 1100.33 L 685.881 1098.55 z" fill="rgb(75,205,140)" transform="translate(0,0)"></path>
<path d="M 1050.8 1432.21 C 1049.74 1432.17 1045.49 1432.3 1044.8 1431.51 C 1045.79 1430.91 1051.36 1430.26 1052.73 1430.08 L 1050.8 1432.21 z" fill="rgb(75,205,140)" transform="translate(0,0)"></path>
<path d="M 1220.57 1243.97 C 1222.97 1243.57 1225.38 1243.22 1227.8 1242.92 L 1227.17 1244.93 L 1226.1 1245.31 C 1224.26 1244.84 1222.42 1244.4 1220.57 1243.97 z" fill="rgb(134,227,183)" transform="translate(0,0)"></path>
<path d="M 1006.84 1430.2 C 1007.69 1430.25 1009.76 1430.12 1010.42 1430.98 C 1010.52 1432.1 1006.49 1432.26 1005.95 1432.33 L 1006.84 1430.2 z" fill="rgb(75,205,140)" transform="translate(0,0)"></path>
<path d="M 1396.44 1055.94 L 1398.51 1056.15 L 1398.15 1057.86 L 1393.96 1058.58 C 1394.62 1057.85 1395.69 1056.61 1396.44 1055.94 z" fill="rgb(134,227,183)" transform="translate(0,0)"></path>
<path d="M 685.881 1098.55 L 688.559 1100.33 L 687.898 1101.95 L 686.477 1101.7 L 685.881 1098.55 z" fill="rgb(134,227,183)" transform="translate(0,0)"></path>
<path d="M 918.398 572.242 C 969.929 567.006 1015.95 604.521 1021.22 656.049 C 1026.48 707.577 988.991 753.623 937.466 758.914 C 885.901 764.21 839.812 726.686 834.544 675.117 C 829.277 623.549 866.827 577.481 918.398 572.242 z" fill="rgb(255,255,255)" transform="translate(0,0)"></path>
<path d="M 858.139 913.274 C 864.726 958.411 886.097 996.452 922.83 1024.37 C 942.609 1039.4 979.272 1055.65 1004.34 1056.09 C 1004.82 1056.54 1005.33 1057 1005.82 1057.43 C 1005.63 1057.9 1004.17 1058.65 1003.7 1058.97 C 982.543 1059.76 952.964 1072.38 935.22 1083.42 C 896.21 1107.69 863.883 1153.94 859.34 1200.1 L 857.241 1199.85 C 850.81 1144.06 810.495 1092.69 759.387 1071.12 C 744.752 1064.95 724.903 1058.85 709.025 1057.99 L 709.865 1055.98 C 734.618 1055.22 768.053 1042.05 787.884 1027.21 C 826.42 998.38 848.83 962.326 856.275 915.169 L 858.139 913.274 z" fill="rgb(255,255,255)" transform="translate(0,0)"></path>
<path d="M 1195.22 908.128 C 1197.32 919.335 1199.06 933.263 1202.51 943.79 C 1213.16 976.193 1234.68 1006.97 1262.98 1026.2 C 1284.1 1040.56 1316.03 1056.01 1341.87 1056.1 L 1341.07 1057.97 C 1298.68 1062.37 1259.74 1083.32 1232.71 1116.27 C 1215.06 1137.73 1198.62 1170.71 1196.23 1198.7 L 1194.21 1197.92 C 1192.69 1176.79 1181.34 1146.58 1168.62 1129.82 C 1135.66 1086.4 1101.21 1066.98 1049.15 1057.87 L 1050.55 1056.3 C 1089.08 1049.6 1114.36 1041.02 1143.6 1013.19 C 1176.44 981.935 1188.98 952.471 1195.22 908.128 z" fill="rgb(255,255,255)" transform="translate(0,0)"></path>
<path d="M 1026.72 1106.24 C 1037.32 1156.98 1056.13 1190.83 1100.42 1220.82 C 1117.48 1232.38 1144.18 1242.34 1164.79 1244.28 L 1165.51 1245.55 C 1133.03 1252.76 1106.73 1261.29 1081.42 1284.4 C 1054.39 1309.08 1033.27 1341.22 1027.76 1377.94 L 1025.32 1378.44 C 1025.43 1371.59 1022.52 1362.12 1020.76 1355.47 C 1008.05 1307.4 947.685 1251.57 897.045 1247.21 L 892.926 1244.32 C 913.265 1242.06 943.084 1229.58 959.32 1217.32 C 999.027 1187.33 1017.02 1154.44 1025.13 1106.85 L 1026.72 1106.24 z" fill="rgb(255,255,255)" transform="translate(0,0)"></path>
<path d="M 1135.71 870.149 C 1147.08 869.325 1168.28 869.911 1179.78 870.301 C 1175 871.489 1171.65 872.354 1166.64 872.665 C 1122.41 879.446 1082.81 903.89 1056.93 940.402 C 1043.21 959.556 1030.48 987.229 1027.92 1010.89 L 1025.98 1012.03 C 1022.73 987.46 1013.72 964.011 999.675 943.593 C 975.68 908.538 936.266 882.099 894.526 874.112 L 894.442 870.908 C 922.168 869.557 952.254 870.158 980.178 870.048 C 1032.02 869.766 1083.87 869.799 1135.71 870.149 z" fill="rgb(255,255,255)" transform="translate(0,0)"></path>
<path d="M 1135.71 870.149 C 1147.08 869.325 1168.28 869.911 1179.78 870.301 C 1175 871.489 1171.65 872.354 1166.64 872.665 C 1166.32 870.073 1140.25 870.686 1135.71 870.149 z" fill="rgb(75,205,140)" transform="translate(0,0)"></path>
<path d="M 946.511 507.139 C 953.478 506.768 960.867 506.97 967.882 506.815 C 1033.47 505.37 1099.34 507.041 1164.91 505.973 C 1167.21 506.527 1170.41 506.271 1170.63 508.741 C 1129.65 513.031 1088.19 535.643 1062.08 567.573 C 1044.06 589.652 1032.17 616.084 1027.6 644.215 C 1026.4 645.248 1026.43 645.132 1025.16 644.18 C 1023.51 622.325 1012.3 593.955 999.201 576.567 C 969.806 537.561 935.623 517.463 888.044 509.625 C 885.265 509.476 883.032 509.073 880.114 508.968 L 880.014 506.89 C 901.791 507.294 924.969 506.382 946.511 507.139 z" fill="rgb(255,255,255)" transform="translate(0,0)"></path>
<path d="M 880.014 506.89 C 901.791 507.294 924.969 506.382 946.511 507.139 C 933.365 509.002 894.284 505.985 888.044 509.625 C 885.265 509.476 883.032 509.073 880.114 508.968 L 880.014 506.89 z" fill="rgb(199,251,236)" transform="translate(0,0)"></path>
<path d="M 1192.99 549.962 L 1195.03 549.988 C 1200.18 615.314 1261.04 676.723 1324.76 687.329 C 1328.85 687.933 1329.77 687.385 1332.58 689.54 C 1327.45 690.317 1297.51 690.355 1290.36 690.093 C 1272.81 689.448 1243.34 691.593 1226.8 689.841 L 1188.83 689.658 C 1188.63 640.665 1191.76 597.749 1192.99 549.962 z" fill="rgb(255,255,255)" transform="translate(0,0)"></path>
<path d="M 1324.76 687.329 C 1328.85 687.933 1329.77 687.385 1332.58 689.54 C 1327.45 690.317 1297.51 690.355 1290.36 690.093 C 1272.81 689.448 1243.34 691.593 1226.8 689.841 C 1248.75 688.075 1276.89 690.185 1299.49 689.097 C 1307.46 688.713 1316.02 689.627 1324.01 688.677 L 1324.76 687.329 z" fill="rgb(75,205,140)" transform="translate(0,0)"></path>
<path d="M 1164.91 505.973 C 1174.58 505.765 1181.28 506.055 1190.77 507.004 C 1184.9 507.805 1176.33 509.148 1170.63 508.741 C 1170.41 506.271 1167.21 506.527 1164.91 505.973 z" fill="rgb(134,227,183)" transform="translate(0,0)"></path>
<path d="M 1004.34 1056.09 C 1008.99 1055.57 1015.76 1056.48 1020.68 1056.86 C 1015.75 1057.53 1008.42 1059.05 1003.7 1058.97 C 1004.17 1058.65 1005.63 1057.9 1005.82 1057.43 C 1005.33 1057 1004.82 1056.54 1004.34 1056.09 z" fill="rgb(75,205,140)" transform="translate(0,0)"></path>
<path d="M 1341.87 1056.1 C 1344.32 1055.85 1353.49 1056.06 1355.95 1056.61 L 1356.06 1056.74 C 1355.37 1058.12 1342.81 1058.07 1341.07 1057.97 L 1341.87 1056.1 z" fill="rgb(75,205,140)" transform="translate(0,0)"></path>
<path d="M 866.678 507.464 C 871.756 506.217 874.935 506.277 880.014 506.89 L 880.114 508.968 C 875.04 508.816 871.689 508.139 866.678 507.464 z" fill="rgb(134,227,183)" transform="translate(0,0)"></path>
<path d="M 884.293 870.842 C 887.844 871.012 890.98 870.79 894.442 870.908 L 894.526 874.112 C 891.189 873.412 890.159 873.099 886.795 873.086 L 884.293 870.842 z" fill="rgb(199,251,236)" transform="translate(0,0)"></path>
<path d="M 855.627 913.088 C 855.755 911.483 856.126 903.436 857.299 902.772 L 857.436 902.827 C 858.001 903.736 858.145 906.637 858.308 907.802 L 858.139 913.274 L 856.275 915.169 L 855.627 913.088 z" fill="rgb(75,205,140)" transform="translate(0,0)"></path>
<path d="M 855.627 913.088 C 856.542 911.337 857.435 909.575 858.308 907.802 L 858.139 913.274 L 856.275 915.169 L 855.627 913.088 z" fill="rgb(134,227,183)" transform="translate(0,0)"></path>
<path d="M 1044.97 1058.61 C 1044.4 1058.48 1040.3 1057.86 1039.91 1057.33 C 1040.58 1056 1046.36 1055.7 1047.95 1055.43 L 1050.55 1056.3 L 1049.15 1057.87 L 1044.97 1058.61 z" fill="rgb(75,205,140)" transform="translate(0,0)"></path>
<path d="M 1047.95 1055.43 L 1050.55 1056.3 L 1049.15 1057.87 L 1044.97 1058.61 C 1045.89 1057.6 1046.98 1056.32 1047.95 1055.43 z" fill="rgb(134,227,183)" transform="translate(0,0)"></path>
<path d="M 1025.16 644.18 C 1026.43 645.132 1026.4 645.248 1027.6 644.215 C 1027.03 653.179 1024.33 652.031 1025.16 644.18 z" fill="rgb(134,227,183)" transform="translate(0,0)"></path>
<path d="M 1192.99 549.962 C 1192.91 548.323 1191.88 541.544 1193.35 540.885 C 1193.45 540.959 1193.54 541.034 1193.64 541.108 L 1193.22 541.581 L 1194.04 542.261 C 1194.32 545.044 1194.89 547.131 1195.03 549.988 L 1192.99 549.962 z" fill="rgb(75,205,140)" transform="translate(0,0)"></path>
<path d="M 886.795 873.086 C 885.945 873.059 877.411 873.093 877.784 871.485 C 878.651 870.699 883.124 870.878 884.293 870.842 L 886.795 873.086 z" fill="rgb(75,205,140)" transform="translate(0,0)"></path>
<path d="M 897.045 1247.21 C 895.319 1247 888.167 1246.14 886.903 1245.46 C 887.002 1245.35 887.101 1245.23 887.2 1245.11 C 889.767 1244.5 890.334 1244.37 892.926 1244.32 L 897.045 1247.21 z" fill="rgb(134,227,183)" transform="translate(0,0)"></path>
<path d="M 709.025 1057.99 C 708.036 1058 703.484 1058.48 702.848 1057.32 C 703.952 1055.59 708.098 1055.98 709.865 1055.98 L 709.025 1057.99 z" fill="rgb(75,205,140)" transform="translate(0,0)"></path>
<path d="M 1027.76 1377.94 C 1027.75 1379.27 1027.92 1381.84 1026.54 1382.51 C 1025.6 1381.87 1025.53 1379.42 1025.32 1378.44 L 1027.76 1377.94 z" fill="rgb(134,227,183)" transform="translate(0,0)"></path>
<path d="M 1024.54 1102.02 C 1024.72 1100.59 1024.73 1098.02 1025.4 1096.84 L 1025.54 1096.76 C 1026.24 1097.22 1027.38 1102.21 1027.79 1103.38 L 1024.54 1102.02 z" fill="rgb(75,205,140)" transform="translate(0,0)"></path>
<path d="M 857.241 1199.85 L 859.34 1200.1 C 859.22 1201.26 859.159 1204.58 858.44 1205.33 L 858.316 1205.29 C 857.178 1204.04 857.257 1201.44 857.241 1199.85 z" fill="rgb(134,227,183)" transform="translate(0,0)"></path>
<path d="M 1024.54 1102.02 L 1027.79 1103.38 L 1026.72 1106.24 L 1025.13 1106.85 C 1024.92 1105.24 1024.73 1103.63 1024.54 1102.02 z" fill="rgb(134,227,183)" transform="translate(0,0)"></path>
<path d="M 1194.21 1197.92 L 1196.23 1198.7 C 1196.06 1199.53 1196.08 1201.41 1194.98 1201.68 C 1193.81 1200.93 1194.18 1199.08 1194.21 1197.92 z" fill="rgb(134,227,183)" transform="translate(0,0)"></path>
<path d="M 1027.92 1010.89 L 1027.64 1014.72 L 1026.55 1015.43 L 1025.98 1012.03 L 1027.92 1010.89 z" fill="rgb(134,227,183)" transform="translate(0,0)"></path>
<path d="M 1164.79 1244.28 C 1165.75 1244.31 1167.41 1244.09 1167.85 1245.14 C 1167.42 1245.81 1165.98 1245.55 1165.51 1245.55 L 1164.79 1244.28 z" fill="rgb(134,227,183)" transform="translate(0,0)"></path>
<path d="M 1026.55 1015.43 L 1027.64 1014.72 L 1027.59 1015.84 C 1027.57 1017.31 1026.42 1018.94 1026.55 1015.43 z" fill="rgb(75,205,140)" transform="translate(0,0)"></path>
<path d="M 919.035 1571.08 C 949.17 1570.08 985.503 1570.78 1016.03 1570.99 L 1016 1600.89 C 1008.66 1600.87 1001.74 1600.28 994.495 1599.12 C 967.594 1595.41 941.834 1585.84 919.035 1571.08 z" fill="rgb(5,186,91)" transform="translate(0,0)"></path>
<path d="M 1033.9 1570.95 L 1093.26 1571 C 1100.48 1570.98 1118.61 1571.27 1125.04 1570.25 L 1125.67 1574.42 C 1119.91 1576.69 1113.13 1581.15 1107.17 1583.85 C 1083.92 1594.39 1059.66 1600.54 1034.07 1601.03 L 1033.9 1570.95 z" fill="rgb(5,186,91)" transform="translate(0,0)"></path>
<path d="M 1125.04 1570.25 L 1127.03 1570.57 C 1130.77 1571.78 1130.01 1571.52 1125.67 1574.42 L 1125.04 1570.25 z" fill="rgb(75,205,140)" transform="translate(0,0)"></path>
<metadata><recraft-signature>{"signed_by": "recraft", "signature_b64": "qmg0C6EwdUgPj0TLWGgunSgIA/GuCoKFGDEEip85FoZkN/2OHjwbJFiFPgYXikljTtwpVucmvMBONXbKbRYtCA==", "signing_algo": "Ed25519", "generation_timestamp": 1772810501, "identifier": "16a1dc04-b7e9-4bc8-8060-21c1386c9001"}</recraft-signature></metadata></svg>