<svg xmlns="http://www.w3.org/2000/svg" height="1024" preserveAspectRatio="none" style="display: block;" version="1.1" viewBox="0 0 2048 2048" width="1024">
<path d="M 0 0 L 2048 0 L 2048 2048 L 0 2048 L 0 0 z" fill="rgb(255,255,255)" transform="translate(0,0)"></path>
<path d="M 951.707 537.197 C 999.068 534.53 1050.44 538.2 1098.17 537.283 C 1108.98 537.075 1122.7 545.069 1127.56 554.888 C 1139.03 578.081 1144.45 604.289 1153.45 628.773 C 1178.02 637.949 1194.12 645.065 1217.63 656.18 C 1231.57 647.44 1262.48 623.565 1274.15 619.478 C 1284.11 615.94 1295.06 616.492 1304.61 621.013 C 1316.44 626.712 1375.58 689.11 1389.99 703.019 C 1400.92 714.52 1414.11 725.234 1424.39 737.211 C 1440.16 755.584 1431.7 779.607 1418.89 796.614 C 1410.78 807.388 1402.54 820.02 1396.54 831.599 C 1404.7 852.949 1415.41 877.459 1424.59 898.496 C 1444.86 906.981 1467.36 910.931 1487.64 919.38 C 1500.42 924.705 1510.93 940.386 1511 954.231 C 1510.96 1000.47 1511.69 1046.93 1510.73 1093.15 C 1510.1 1123.82 1478.49 1131.56 1455.58 1138.05 C 1445.38 1140.9 1435.22 1143.91 1425.1 1147.05 C 1415.37 1169.24 1406.08 1193.19 1396.74 1215.69 C 1404.84 1230.79 1426.01 1260.9 1430.08 1273.84 C 1433.55 1284.77 1432.43 1296.63 1426.97 1306.7 C 1425.72 1309.01 1423.59 1311.89 1421.69 1313.7 C 1384.75 1348.86 1348.57 1385.24 1311.99 1420.71 C 1294.13 1438.02 1269.56 1429.44 1252.09 1417 C 1241.03 1409.14 1227.04 1400.66 1215.09 1394.53 C 1192.61 1404.19 1173.36 1411.41 1150.38 1419.69 C 1147.32 1428.9 1144.85 1438.59 1141.98 1447.87 C 1133.34 1475.83 1131.04 1504.37 1096.76 1510.91 C 1072.08 1511.07 955.755 1513.9 940.448 1508.13 C 933.073 1505.36 927.391 1499.93 923.265 1493.32 C 911.746 1474.85 906.394 1441.39 896.567 1419.74 C 875.609 1410.87 854.783 1403.24 833.321 1393.92 C 819.862 1401.82 784.225 1426.05 772.898 1429.39 C 762.815 1432.41 751.94 1431.23 742.74 1426.12 C 721.277 1414.24 671.96 1353.39 649.524 1336.16 C 640.723 1326.77 619.642 1308.93 617.031 1296.34 C 611.847 1271.36 641.198 1236.39 654.002 1217.06 C 652.444 1212.77 650.075 1207.77 648.122 1203.61 C 639.466 1185.19 632.285 1166.61 625.142 1147.55 C 605.294 1139.8 583.158 1136.82 563.98 1127.71 C 552.878 1122.43 544.658 1114.77 540.721 1102.9 C 537.265 1092.48 537.579 965.528 539.13 950.168 C 539.588 945.634 540.773 941.887 542.917 937.858 C 546.406 931.299 551.485 926.087 557.767 922.159 C 574.411 911.749 606.832 905.037 626.195 899.304 C 634.699 876.521 643.737 853.941 653.301 831.582 C 644.635 819.531 624.028 784.897 617.838 770.787 C 615.045 764.42 615.895 749.671 620.421 743.595 C 640.169 715.828 673.348 692.018 695.889 667.591 C 760.77 597.283 760.833 608.26 834.017 653.969 C 846.801 647.679 885.797 631.132 898.711 627.483 C 904.258 614.276 908.66 598.755 912.695 584.882 C 919.676 560.882 925.124 544.527 951.707 537.197 z" fill="rgb(39,60,176)" transform="translate(0,0)"></path>
<path d="M 991.604 618.999 L 1061.11 619 C 1070.35 646.925 1078.8 675.416 1087.85 703.495 C 1134.41 710.129 1175.65 730.155 1215.09 754.516 C 1237.46 742.801 1264.25 725.512 1287.23 712.509 C 1302.18 728.864 1322.24 745.39 1338.46 762.12 C 1323.78 785.525 1310.12 808.663 1294.98 832.305 C 1302.74 845.76 1310.92 858.242 1318.17 872.158 C 1333.95 902.454 1342.2 931.52 1349.62 964.437 C 1368.66 972.129 1408.42 984.226 1428.69 990.039 L 1428.99 1057.2 C 1412.62 1061.19 1364.53 1076.71 1349.5 1082.96 C 1337.98 1139.92 1323.89 1165.92 1294.25 1214.56 C 1308.66 1238.78 1322.92 1263.1 1337.03 1287.5 L 1285.26 1335.96 C 1266.58 1323.51 1232.36 1304.44 1212.16 1292.93 C 1171.39 1318.49 1134.01 1335.26 1086.46 1344.58 C 1077.44 1373.16 1068.06 1401.62 1058.32 1429.96 C 1035.81 1429.16 1012.93 1429.48 990.383 1429.6 C 981.771 1401.13 972.494 1372.86 962.56 1344.82 C 911.71 1334.59 879.177 1320.43 835.252 1293.88 C 811.274 1306.62 784.893 1322.69 761.338 1336.6 C 745.956 1323.27 726.209 1301.69 711.658 1286.62 C 722.54 1264.75 741.714 1235.26 754.154 1213 C 731.596 1183.46 704.551 1118.56 700.68 1081.98 C 674.328 1074.02 648.06 1065.78 621.881 1057.27 C 621.432 1035.49 621.864 1012.04 621.881 990.129 C 648.065 981.338 674.499 974.036 700.685 964.566 C 712.375 911.483 726.089 879.121 755.014 833.112 C 742.821 815.375 721.726 779.792 712.633 761.02 C 728.279 743.627 745.668 728.322 762.906 712.531 C 785.945 724.496 814.038 741.498 836.37 755.17 C 882.013 727.983 912.319 714.044 965.287 703.467 C 973.807 675.233 982.58 647.076 991.604 618.999 z" fill="rgb(255,255,255)" transform="translate(0,0)"></path>
<path d="M 1015.73 937.952 C 1063.58 932.808 1106.49 967.558 1111.41 1015.43 C 1116.33 1063.31 1081.37 1106.06 1033.47 1110.74 C 985.894 1115.4 943.499 1080.73 938.616 1033.18 C 933.733 985.622 968.198 943.062 1015.73 937.952 z" fill="rgb(39,60,176)" transform="translate(0,0)"></path>
<path d="M 1016.76 993.256 C 1027.79 990.275 1039.56 993.515 1047.51 1001.72 C 1055.46 1009.92 1058.34 1021.79 1055.01 1032.72 C 1051.69 1043.65 1042.7 1051.91 1031.53 1054.3 C 1014.88 1057.86 998.429 1047.51 994.426 1030.97 C 990.423 1014.42 1000.33 997.699 1016.76 993.256 z" fill="rgb(255,255,255)" transform="translate(0,0)"></path>
<path d="M 1017.99 777.419 L 1029.61 777.294 C 1022.38 811.847 1015.63 846.5 1009.37 881.241 C 980.796 885.26 965.994 890.708 941.996 906.914 C 935.824 898.341 925.631 886.8 918.595 878.426 C 904.177 861.455 889.445 842.747 875.285 825.408 C 922.254 795.071 961.306 780.785 1017.99 777.419 z" fill="rgb(39,60,176)" transform="translate(0,0)"></path>
<path d="M 1108 1141.95 C 1111.01 1144.24 1124.97 1161.93 1127.97 1165.62 L 1174.24 1222.42 C 1145.65 1244.48 1115.65 1255.46 1081.4 1264.52 C 1059.45 1268.95 1042.67 1270.79 1020.34 1270.39 C 1026.1 1237.29 1036.36 1202.17 1041.69 1168.88 C 1071 1162.49 1083.3 1158.55 1108 1141.95 z" fill="rgb(39,60,176)" transform="translate(0,0)"></path>
<path d="M 1262.28 1033.43 L 1273.12 1033.12 C 1271.56 1085.53 1255.84 1127.57 1227.27 1170.9 C 1215.74 1160.74 1204.11 1150.68 1192.39 1140.74 L 1148.6 1100.67 C 1161.53 1078.38 1165.8 1064.42 1170.19 1039.29 C 1197.53 1035.72 1234.26 1034.76 1262.28 1033.43 z" fill="rgb(39,60,176)" transform="translate(0,0)"></path>
<path d="M 823.216 877.956 C 827.844 881.186 839.687 892.57 844.59 896.827 C 863.761 913.475 882.489 930.385 900.635 948.156 C 889.57 964.038 882.383 988.022 880.664 1007.05 C 871.169 1008.29 858.781 1008.68 849.023 1009.15 C 827.045 1011.49 799.013 1013.32 776.907 1014.24 C 780.462 961.831 793.25 921.463 823.216 877.956 z" fill="rgb(39,60,176)" transform="translate(0,0)"></path>
<path d="M 1098.07 787.69 C 1125.76 795.631 1157.53 812.22 1180.02 830.125 C 1166.77 847.971 1141.34 874.766 1125.75 891.589 C 1121.09 896.758 1115.82 903.432 1111.29 908.863 C 1092.91 896.227 1082.16 890.878 1061.01 884.366 C 1073.92 852.356 1086.27 820.126 1098.07 787.69 z" fill="rgb(39,60,176)" transform="translate(0,0)"></path>
<path d="M 881.82 1058.3 C 882.522 1058.3 883.754 1058.24 884.048 1059.09 C 887.496 1069.12 891.253 1079.08 895.791 1088.66 C 897.695 1092.69 899.672 1096.64 901.662 1100.61 C 891.419 1111.45 877.862 1122.56 866.434 1132.52 C 852.373 1144.77 837.876 1158.15 823.485 1169.9 C 820.432 1165.66 817.811 1160.99 815.137 1156.49 C 800.857 1133.5 790.431 1107.14 783.267 1081.14 C 813.567 1072.75 850.954 1064.51 881.82 1058.3 z" fill="rgb(39,60,176)" transform="translate(0,0)"></path>
<path d="M 939.418 1140.18 C 956.425 1152.01 967.389 1157.56 986.478 1164.96 C 976.666 1195.16 959.732 1229.66 951.358 1259.39 L 927.79 1251.13 C 904.986 1242.43 890.3 1232.65 870.784 1217.93 C 877.355 1208.25 893.434 1190.84 901.638 1181.67 C 913.152 1168.8 927.286 1151.73 939.418 1140.18 z" fill="rgb(39,60,176)" transform="translate(0,0)"></path>
<path d="M 1226.97 878.768 C 1241.24 887.18 1262.74 948.255 1267.87 965.478 C 1240.42 972.081 1212.86 978.228 1185.21 983.917 L 1166.67 988.714 C 1162.52 974.475 1157.24 958.289 1147.74 946.66 C 1151.89 942.477 1157.01 938.121 1161.61 934.371 C 1183.56 916.473 1204.61 896.016 1226.97 878.768 z" fill="rgb(39,60,176)" transform="translate(0,0)"></path>
<path d="M 338.492 936.072 L 339.996 936.371 C 341.807 940.325 340.639 1134.31 340.616 1155.26 L 340.615 1273.43 C 340.639 1305.69 339.862 1340.54 344.181 1372.33 C 355.45 1455.26 399.294 1536.9 458.191 1595.76 C 523.819 1661.55 610.327 1702.42 702.829 1711.31 C 725.026 1713.28 748.206 1712.88 770.52 1712.86 L 859.383 1712.8 L 1113.65 1712.96 C 1102.18 1752.28 1094.11 1772.47 1078.01 1809.71 C 1058.04 1810.24 1035.87 1809.89 1015.75 1809.96 L 819.812 1809.96 C 779.592 1809.95 730.81 1811.28 691.302 1807.79 C 586.793 1798.34 487.941 1756.11 408.858 1687.14 C 317.151 1606.83 258.803 1495.13 245.289 1373.98 C 240.649 1331.67 241.99 1281.16 241.916 1238 L 241.772 1070.93 C 241.863 1041.72 243.274 1000.36 241.347 972.44 C 271.495 956.864 305.902 945.214 338.492 936.072 z" fill="rgb(39,60,176)" transform="translate(0,0)"></path>
<path d="M 1254.73 240.288 L 1286 240.129 C 1312.91 240.054 1338.06 240.137 1364.83 243.1 C 1478.03 255 1583.87 304.866 1665.12 384.579 C 1747.82 467.956 1798.18 578.029 1807.18 695.121 C 1810.51 735.635 1808.69 797.524 1808.68 839.322 L 1808.79 1077.33 C 1790.7 1085.15 1772.36 1092.36 1753.78 1098.95 C 1739.18 1104.2 1724.44 1109.06 1709.58 1113.52 L 1709.73 816.25 C 1709.8 782.914 1710.93 733.656 1708 701.121 C 1699.38 605.472 1658.14 521.705 1590.51 454.002 C 1522.07 386.412 1431.85 345.317 1335.94 338.038 C 1301.3 335.278 1247.98 336.916 1212.01 336.94 C 1218.06 312.371 1243.05 263.76 1254.73 240.288 z" fill="rgb(39,60,176)" transform="translate(0,0)"></path>
<path d="M 725.976 240.449 C 758.984 238.771 803.478 240.043 837.743 240.013 C 903.858 239.862 969.973 240.073 1036.09 240.647 C 1024.45 272.093 1014.88 304.266 1007.45 336.962 L 843.388 337.014 C 763.786 336.974 686.083 331.253 609.899 359.04 C 502.479 398.219 424.122 470.47 374.637 572.689 C 351.459 626.778 339.071 668.535 338.887 728.518 C 305.301 734.856 275.417 741.316 243.046 751.949 C 242.768 733.794 242.193 713.261 243.456 695.179 C 251.131 583.999 297.081 478.909 373.492 397.783 C 467.887 296.261 588.558 245.535 725.976 240.449 z" fill="rgb(39,60,176)" transform="translate(0,0)"></path>
<path d="M 1807.01 1296.22 C 1813.59 1306.41 1802.91 1397.63 1799.72 1413.83 C 1759.77 1617.04 1592.45 1773.44 1388.56 1804.76 C 1356.7 1809.65 1326.38 1810.04 1294.31 1809.88 L 1293.87 1809.49 C 1293.15 1806.06 1300 1790.08 1301.53 1784.8 C 1308.26 1761.47 1314.17 1737.15 1317.4 1713.1 C 1417.59 1710.52 1513.18 1670.49 1585.3 1600.9 C 1663.12 1525.83 1708.44 1427.88 1710.26 1319.47 C 1743.81 1314.74 1774.64 1305.21 1807.01 1296.22 z" fill="rgb(39,60,176)" transform="translate(0,0)"></path>
<path d="M 1577.31 1324.39 C 1602.68 1323.99 1628.06 1323.84 1653.44 1323.94 C 1653.97 1375.39 1636.25 1433.79 1610.71 1478.53 C 1563.42 1561.75 1484.7 1622.51 1392.21 1647.18 C 1367.61 1653.01 1351.56 1654.55 1326.78 1656.18 C 1326.42 1631.21 1326.74 1605.44 1326.74 1580.41 C 1390.83 1578.35 1447.01 1554.1 1493.44 1509.82 C 1544.97 1461.64 1575.15 1394.9 1577.31 1324.39 z" fill="rgb(39,60,176)" transform="translate(0,0)"></path>
<path d="M 396.171 1324.22 C 421.262 1323.67 447.813 1324.16 472.945 1324.36 C 472.937 1382.76 493.731 1439.26 531.6 1483.72 C 583.437 1545.19 644.632 1573.87 723.633 1580.87 C 722.65 1604.02 723.321 1632.4 723.261 1655.93 C 645.457 1652.11 571.361 1621.54 513.5 1569.38 C 440.479 1504.27 401.721 1421.36 396.171 1324.22 z" fill="rgb(39,60,176)" transform="translate(0,0)"></path>
<path d="M 713.045 394.409 L 723.056 393.972 L 723.246 468.046 C 654.488 473.231 603.695 494.052 553.289 542.205 C 503.472 589.636 474.89 655.153 474.01 723.932 L 404.907 724.084 L 394.929 724.298 C 396.955 648.447 428.053 575.396 476.747 517.76 C 535.932 446.802 620.99 402.4 713.045 394.409 z" fill="rgb(39,60,176)" transform="translate(0,0)"></path>
<path d="M 1326.46 393.33 C 1410.08 398.608 1488.95 434.046 1548.43 493.068 C 1609.79 553.729 1652.42 636.535 1653.01 723.956 C 1627.75 723.943 1602.49 724.069 1577.23 724.333 C 1576.46 588.894 1461.67 472.026 1326.41 468.156 C 1326.27 447.11 1325.11 413.241 1326.46 393.33 z" fill="rgb(39,60,176)" transform="translate(0,0)"></path>
<path d="M 1207.84 1459.91 C 1211.35 1460.18 1218.8 1465.33 1222.12 1467.37 C 1237.35 1476.71 1251.69 1482.54 1269.21 1485.9 L 1269.17 1594.43 C 1269.14 1610.87 1269.24 1627.43 1268.95 1643.86 C 1267.96 1700.78 1253.74 1756.59 1234 1809.77 L 1198.5 1809.86 C 1177.91 1809.88 1155.91 1810.26 1135.44 1809.45 C 1141.2 1799.82 1149.44 1776.89 1153.58 1766.26 C 1177.14 1705.67 1185.08 1650.7 1183.4 1585.96 C 1182.79 1562.55 1182.74 1528.89 1184.38 1505.65 C 1184.59 1502.74 1194.29 1471.71 1196.01 1465.31 C 1199.78 1463.39 1203.95 1461.64 1207.84 1459.91 z" fill="rgb(39,60,176)" transform="translate(0,0)"></path>
<path d="M 399.213 780.427 C 413.753 779.124 440.169 779.816 455.462 779.792 L 561.346 779.945 C 564.675 799.614 575.427 820.44 586.373 836.895 C 584.535 842.173 582.785 848.073 581.067 853.443 C 571.915 855.706 541.584 866.73 535.646 867.021 C 487.575 869.381 438.891 865.368 390.761 869.394 C 354.548 872.346 317.141 881.495 283.1 893.967 C 269.294 899.026 255.798 905.269 242.028 910.032 L 242.07 850.834 C 242.067 838.777 242.418 823.798 241.102 812.027 C 296.317 792.733 340.313 783.647 399.213 780.427 z" fill="rgb(39,60,176)" transform="translate(0,0)"></path>
<path d="M 1807.9 1137.11 C 1809.53 1140.09 1808.64 1223.47 1808.68 1236.19 C 1725.84 1263.97 1676.54 1267.83 1590.97 1267.87 L 1488.16 1268.01 C 1486.97 1261.63 1485.06 1255.4 1483.28 1249.15 C 1476.34 1231.22 1470.78 1224.22 1461.74 1208.3 L 1468.84 1193.5 C 1502.58 1182.08 1515.53 1180.18 1550.74 1181.04 C 1578.64 1181.72 1609.44 1181.41 1637.44 1180.79 C 1697.9 1179.44 1752.89 1160.96 1807.9 1137.11 z" fill="rgb(39,60,176)" transform="translate(0,0)"></path>
<path d="M 1098.69 240.456 C 1129.45 239.626 1163.07 240.097 1194.03 240.273 C 1154.71 316.83 1132.31 386.089 1129.35 472.379 L 1129.52 486.801 C 1106.26 477.896 1078.1 481.744 1052.38 481.665 C 1051.18 403.556 1058.56 332.89 1089.01 260.167 C 1090.99 255.445 1094.82 243.157 1098.69 240.456 z" fill="rgb(39,60,176)" transform="translate(0,0)"></path>
<path d="M 1483.1 1324.93 L 1521.83 1324.83 C 1518.24 1417.57 1452.03 1499.88 1361.24 1520.84 C 1349.8 1523.09 1338.14 1523.8 1326.54 1524.46 L 1326.23 1481.16 C 1353.55 1466.71 1385.3 1429.44 1408.39 1406.98 C 1432.52 1383.51 1465.89 1353.25 1483.1 1324.93 z" fill="rgb(39,60,176)" transform="translate(0,0)"></path>
<path d="M 1326.77 524.375 C 1339.1 524.828 1350.49 525.561 1362.54 528.43 C 1447.63 548.691 1523.63 634.623 1521.75 723.488 C 1509.05 723.794 1495.74 723.446 1482.98 723.291 C 1471.67 700.238 1456.67 687.994 1438.58 670.412 C 1423.79 655.807 1408.9 641.294 1393.92 626.875 C 1374.01 607.607 1351.01 579.931 1326.62 567.728 C 1326.48 553.277 1326.53 538.825 1326.77 524.375 z" fill="rgb(39,60,176)" transform="translate(0,0)"></path>
<path d="M 710.688 525.411 C 713.3 525.025 720.127 524.976 723.072 524.871 L 723.228 567.08 C 699.129 580.334 679.846 603.628 660 622.907 C 643.176 639.164 626.482 655.554 609.918 672.077 C 592.669 689.255 578.519 701.708 566.971 723.46 L 546.5 723.317 L 530.842 723.131 C 530.64 624.593 612.457 533.605 710.688 525.411 z" fill="rgb(39,60,176)" transform="translate(0,0)"></path>
<path d="M 530.28 1325.03 L 566.652 1324.93 C 569.931 1332.15 575.104 1341.37 580.733 1347.06 C 620.461 1387.24 660.647 1427.23 701.211 1466.57 C 706.96 1472.15 716.23 1477.03 723.232 1480.64 C 723.471 1495.27 723.449 1509.9 723.166 1524.52 C 623.116 1518.62 540.107 1440.47 531.042 1339.02 C 530.629 1334.41 530.496 1329.66 530.28 1325.03 z" fill="rgb(39,60,176)" transform="translate(0,0)"></path>
<path d="M 840.123 1458.97 C 844.672 1460.74 849.03 1462.66 853.503 1464.6 C 855.902 1483.31 864.724 1497.46 866.24 1512.59 C 867.558 1525.74 866.93 1548.76 866.912 1562.5 L 866.744 1656.92 L 809.25 1656.73 L 780.146 1656.79 C 779.993 1600.27 780.185 1543.75 780.725 1487.23 C 807.295 1480.44 817.649 1473.77 840.123 1458.97 z" fill="rgb(39,60,176)" transform="translate(0,0)"></path>
<path d="M 780.631 393.335 L 866.537 393.179 C 866.273 425.915 866.262 458.652 866.506 491.387 C 866.573 500.886 867.458 532.334 866.227 540.631 C 865.625 544.684 857.008 571.634 855.16 578.757 C 854.951 580.75 854.837 580.747 854.219 582.684 C 850.108 586.007 844.997 587.365 839.931 589.189 C 820.601 574.924 803.01 567.287 780.081 561.221 C 780.975 505.284 780.106 449.211 780.631 393.335 z" fill="rgb(39,60,176)" transform="translate(0,0)"></path>
<path d="M 1488.76 779.993 L 1653.18 779.85 L 1653.34 867.545 L 1629.5 867.49 C 1605.09 867.325 1580.68 867.357 1556.27 867.585 C 1546.39 867.629 1520.66 868.414 1512.12 866.198 C 1497.8 862.483 1485.44 856.665 1469.68 853.037 C 1468.53 848.964 1465.47 841.96 1463.8 837.808 C 1474.92 817.799 1483.28 802.421 1488.76 779.993 z" fill="rgb(39,60,176)" transform="translate(0,0)"></path>
<path d="M 396.231 1181.05 L 493.416 1180.95 C 503.299 1180.92 531.874 1179.91 539.895 1181.42 C 550.003 1183.33 569.349 1190.75 581.763 1193.9 C 583.542 1199.1 585.901 1203.71 588.289 1208.64 C 578.859 1221.68 573.872 1232.42 567.871 1247.26 C 565.419 1254.92 563.656 1260.05 562.362 1267.94 L 396.839 1267.66 C 396.909 1238.79 396.707 1209.92 396.231 1181.05 z" fill="rgb(39,60,176)" transform="translate(0,0)"></path>
<path d="M 1185.92 393.054 L 1269.13 393.16 L 1269.93 560.366 C 1262.72 562.221 1256.81 564.218 1249.75 566.623 C 1233.68 573.222 1223.39 580.378 1208.95 589.785 L 1197.02 583.359 L 1196.84 582.423 C 1194.36 570.412 1187.57 553.977 1186.44 543.437 C 1184.85 528.592 1185.97 508.921 1186.01 493.592 L 1185.92 393.054 z" fill="rgb(39,60,176)" transform="translate(0,0)"></path>
<path d="M 1124.91 1561.13 C 1127 1560.86 1127.98 1560.8 1127.95 1563.43 C 1127.49 1594.76 1127.74 1626.12 1127.5 1657.45 C 1103.76 1657.86 1079.54 1657.4 1055.75 1657.44 C 1052.07 1657.2 1052.2 1656.62 1052.17 1653.01 C 1051.97 1624.33 1052.12 1595.64 1052 1566.95 C 1082.62 1567.01 1095.14 1569.5 1124.91 1561.13 z" fill="rgb(39,60,176)" transform="translate(0,0)"></path>
<path d="M 922.841 1561.26 C 950.746 1569.24 968.29 1566.61 996.986 1566.81 L 996.727 1657.26 C 972.515 1657.7 947.036 1656.94 922.579 1656.99 C 922.436 1625.08 922.523 1593.17 922.841 1561.26 z" fill="rgb(39,60,176)" transform="translate(0,0)"></path>
<path d="M 923.248 392.977 C 948.577 392.798 973.906 392.774 999.235 392.906 C 998.854 396.262 998.507 398.191 998.025 403.001 C 995.489 428.288 997.69 454.937 996.478 480.305 C 996.454 480.812 994.566 481.071 994.244 481.134 C 967.51 481.012 948.279 478.667 923.015 487.698 C 923.011 456.282 922.823 424.364 923.248 392.977 z" fill="rgb(39,60,176)" transform="translate(0,0)"></path>
<path d="M 1562.44 923.327 L 1653.37 923.107 C 1653.06 948.127 1653.48 973.247 1653.13 998.221 C 1624.85 997.618 1595.39 997.947 1567.03 997.985 C 1566.94 974.487 1569.11 945.009 1562.44 923.327 z" fill="rgb(39,60,176)" transform="translate(0,0)"></path>
<path d="M 396.979 1051.99 C 425.601 1051.71 454.225 1051.7 482.847 1051.94 C 482.773 1076.02 480.007 1103.42 488.399 1125.95 L 396.934 1125.96 L 396.979 1051.99 z" fill="rgb(39,60,176)" transform="translate(0,0)"></path>
<path d="M 399.272 924.471 C 426.819 922.914 459.537 923.489 487.354 923.813 C 479.924 948.236 482.807 971.731 482.608 997.578 C 479.586 998.316 462.141 997.917 457.843 997.891 C 437.622 997.77 417.143 998.069 396.946 997.789 C 396.778 980.314 396.604 944.458 397.169 925.592 C 397.185 925.06 398.837 924.615 399.272 924.471 z" fill="rgb(39,60,176)" transform="translate(0,0)"></path>
<path d="M 1567.02 1052.07 L 1653.21 1051.86 C 1653.21 1074.92 1653.07 1097.98 1653.1 1121.03 C 1653.1 1125.3 1649.38 1124.23 1645.35 1124.73 C 1617.53 1126.09 1589.67 1126.33 1561.84 1125.44 C 1569.39 1102.82 1566.92 1076.25 1567.02 1052.07 z" fill="rgb(39,60,176)" transform="translate(0,0)"></path>
<metadata><recraft-signature>{"signed_by": "recraft", "signature_b64": "7kYQKbszIW3uSkdLoRA195044XEoMg+KMMN6b0Rq7H++2X32stKasgTYfGZrtF43TcroaT3vBhgdsyx7deC8Aw==", "signing_algo": "Ed25519", "generation_timestamp": 1772809743, "identifier": "ba204c08-0bfd-42b4-acc7-462cf484c37c"}</recraft-signature></metadata></svg>