<svg xmlns="http://www.w3.org/2000/svg" height="1024" preserveAspectRatio="none" style="display: block;" version="1.1" viewBox="0 0 2048 2048" width="1024">
<path d="M 0 0 L 2048 0 L 2048 2048 L 0 2048 L 0 0 z" fill="rgb(255,255,255)" transform="translate(0,0)"></path>
<path d="M 1232.74 289.524 C 1235.37 296.177 1233.08 529.632 1232.99 560.598 L 1326.17 560.584 C 1327.32 471.488 1326 379.534 1326.2 290.098 C 1363.73 290.047 1403.52 289.051 1440.77 291.476 C 1456.22 292.482 1477.95 297.337 1493.34 300.565 L 1493.8 560.082 C 1514.94 560.451 1536.09 560.588 1557.24 560.491 C 1572 560.49 1590.56 560.065 1604.99 561.477 C 1643.63 565.295 1679.85 582.029 1707.81 608.975 C 1741.48 641.73 1753.32 678.767 1753.83 724.662 L 1754.27 952.338 L 1754.86 1038.74 C 1754.97 1060.86 1756.11 1088.18 1751.77 1109.48 C 1740.66 1164.05 1696.88 1208.56 1641.98 1219.28 C 1621.79 1223.22 1603.87 1222.77 1583.29 1222.84 C 1582.9 1173.2 1583.17 1123.24 1583.56 1073.59 C 1583.63 1064.93 1586.43 1055.3 1586.43 1047.01 C 1586.42 1000.98 1586.25 954.847 1586.19 908.838 C 1586.64 846.827 1586.61 784.814 1586.12 722.804 C 1516.07 720.968 1440.19 722.507 1369.64 722.559 L 990.051 722.02 C 960.491 860.678 865.178 951.785 728.503 983.591 L 728.962 1311.85 L 1326.07 1311.9 L 1326.03 1220.21 C 1308.85 1220.01 1290.53 1220.2 1273.37 1220.36 C 1210.37 1220.93 1162.21 1225.28 1113.92 1177.13 C 1060.85 1124.23 1071.73 1061.79 1071.86 993.265 L 1071.97 812.145 L 1493.08 811.934 L 1493.8 1311.59 C 1520.33 1312.51 1548.99 1311.38 1575.52 1311.81 C 1632.98 1313.25 1688.53 1311.34 1738 1277.76 C 1742.2 1274.91 1749.84 1267.08 1754.44 1267.69 L 1754.84 1270.75 L 1754.97 1387.34 C 1755.01 1427.24 1757.45 1473.13 1747.43 1511.17 C 1729.03 1580.94 1682.82 1643.74 1625.98 1687.28 C 1612.28 1697.78 1598.43 1706.22 1583.67 1715.17 L 1583.49 1471.98 C 1468.4 1470.58 1349.85 1471.79 1234.56 1471.92 C 1233.04 1532.08 1241.55 1577.49 1214.2 1634.37 C 1204.75 1654.05 1192.16 1672.04 1176.9 1687.65 C 1077.25 1789.83 912.486 1771.59 842.8 1647.27 C 810.516 1589.68 816.523 1534.28 816.546 1471.73 C 779.745 1470.87 739.524 1471.77 702.438 1471.8 L 471.964 1471.96 L 471.968 1716.91 C 434.404 1697.44 412.675 1681.24 383.355 1650.89 C 362.973 1629.83 345.574 1606.08 331.646 1580.29 C 296.598 1515.72 294.155 1469.16 294.139 1398.73 C 294.063 1369.82 294.293 1340.9 294.829 1311.99 L 563.036 1312.14 L 563.76 1098.01 C 563.813 1061.24 564.736 1019.88 563.548 983.454 C 528.491 974.255 504.601 966.826 472.173 948.476 C 391.53 901.867 332.311 825.569 307.168 735.883 C 282.2 647.032 294.27 551.858 340.627 472.053 C 388.875 387.634 468.9 326.035 562.854 300.994 C 721.253 257.884 894.387 342.241 964.923 488.759 C 976.099 511.974 983.232 535.591 989.936 560.363 C 1018.44 560.216 1046.94 560.219 1075.44 560.371 C 1066.82 485.341 1020.76 397.023 970.17 341.972 C 952.712 322.976 933.881 306.36 914.121 289.878 C 947.218 288.879 985.428 289.676 1018.75 289.768 C 1090.08 290.172 1161.41 290.09 1232.74 289.524 z" fill="rgb(48,59,188)" transform="translate(0,0)"></path>
<path d="M 630.683 452.912 C 734.773 443.518 826.759 520.308 836.109 624.402 C 845.458 728.495 768.629 820.449 664.531 829.754 C 560.496 839.054 468.611 762.28 459.266 658.25 C 449.922 554.219 526.656 462.3 630.683 452.912 z" fill="rgb(255,255,255)" transform="translate(0,0)"></path>
<path d="M 642.55 543.725 C 697.108 540.565 743.934 582.151 747.242 636.7 C 750.55 691.248 709.092 738.187 654.552 741.644 C 599.802 745.113 552.643 703.461 549.322 648.702 C 546.002 593.943 587.782 546.897 642.55 543.725 z" fill="rgb(48,59,188)" transform="translate(0,0)"></path>
<path d="M 978.99 1472.02 C 1009.29 1471.98 1040.82 1471.54 1071.01 1472.33 L 1071.08 1514.89 C 1071.1 1539.73 1073.64 1553.32 1057.21 1573.02 C 1039.33 1591.61 1009.39 1591.67 992.219 1573.57 C 972.569 1552.86 978.888 1499.58 978.99 1472.02 z" fill="rgb(255,255,255)" transform="translate(0,0)"></path>
<path d="M 1234.19 968.272 C 1264.43 967.51 1299.34 967.774 1329.64 968.09 C 1329.92 998.549 1329.79 1029.01 1329.25 1059.47 C 1299.86 1059.62 1263.21 1060.53 1234.37 1059.13 C 1233.73 1029.79 1233.79 997.662 1234.19 968.272 z" fill="rgb(255,255,255)" transform="translate(0,0)"></path>
<path d="M 294.851 908.729 C 298.526 912.074 304.156 919.179 307.489 923.387 C 352.867 980.689 405.915 1015.04 471.204 1045.74 C 471.649 1104.71 471.612 1163.68 471.091 1222.65 C 412.152 1223.35 353.206 1223.16 294.273 1222.08 C 293.446 1197.69 293.741 1171.1 294.058 1146.65 C 295.08 1067.66 292.769 987.63 294.851 908.729 z" fill="rgb(48,59,188)" transform="translate(0,0)"></path>
<path d="M 1327.18 1562.09 L 1493.09 1562.31 C 1493.9 1624.05 1493.07 1687.57 1493.02 1749.45 C 1457.73 1757.93 1431.29 1759.08 1395.5 1758.88 L 1228.23 1758.35 C 1288.15 1706.02 1316.89 1639.51 1327.18 1562.09 z" fill="rgb(48,59,188)" transform="translate(0,0)"></path>
<path d="M 563.135 1562.5 L 727.65 1562.3 C 731.89 1625.07 757.01 1679.83 795.981 1729.13 C 800.698 1735.09 820.567 1754.29 821.591 1758.49 C 794.788 1759.97 755.648 1758.68 727.73 1758.79 C 668.875 1759.02 620.853 1761.39 562.823 1750.55 L 562.534 1631.39 C 562.512 1610.6 561.784 1582.69 563.135 1562.5 z" fill="rgb(48,59,188)" transform="translate(0,0)"></path>
<path d="M 977.724 936.75 C 979.127 941.938 978.245 979.987 978.252 987.542 C 978.341 1088.43 972.306 1135.52 1034.05 1222.12 C 981.539 1222.78 929.02 1223.07 876.5 1222.98 L 819.083 1222.91 L 819.062 1048.19 C 885.088 1020.41 928.038 987.158 977.724 936.75 z" fill="rgb(48,59,188)" transform="translate(0,0)"></path>
<path d="M 1585.8 335.424 C 1655.15 368.692 1721.31 449.176 1744.61 522.227 C 1690.34 483.177 1650.75 474.353 1585.87 473.436 C 1585.62 427.981 1584.81 380.731 1585.8 335.424 z" fill="rgb(48,59,188)" transform="translate(0,0)"></path>
<metadata><recraft-signature>{"signed_by": "recraft", "signature_b64": "UZLEkpklV2NZ/VyDrU+3WOSoZVgJdBsf2RLZ6uSn92ankW+52EzLOzPzoulxYI1qd093FF37XDCRleeRJM3SCQ==", "signing_algo": "Ed25519", "generation_timestamp": 1772809793, "identifier": "7ca1668c-1417-4268-828f-b2b1bf2510cb"}</recraft-signature></metadata></svg>