<svg xmlns="http://www.w3.org/2000/svg" height="1024" preserveAspectRatio="none" style="display: block;" version="1.1" viewBox="0 0 2048 2048" width="1024">
<path d="M 0 0 L 2048 0 L 2048 2048 L 0 2048 L 0 0 z" fill="rgb(252,253,253)" transform="translate(0,0)"></path>
<path d="M 694.74 256.491 C 806.888 255.25 920.849 256.875 1033.24 256.622 L 1273.03 256.562 L 1358.87 256.696 C 1378.78 256.742 1399.89 256.372 1419.67 257.968 C 1516.11 265.465 1606.63 307.437 1674.66 376.204 C 1735.43 436.426 1774.91 514.826 1787.09 599.511 C 1790.48 623.876 1790.99 646.305 1791 670.782 L 1790.95 1149.82 L 1790.94 1305.4 C 1790.97 1371.95 1794.58 1435.2 1776.71 1499.76 C 1757.72 1568.35 1722.34 1626.34 1672.31 1676.29 C 1606.32 1741.2 1520.1 1781.58 1427.99 1790.72 C 1403.33 1793.33 1380.2 1792.99 1355.5 1792.96 L 877.757 1792.87 L 732.577 1792.96 C 676.747 1793.02 627.636 1795.38 572.716 1782.84 C 500.755 1766.48 434.592 1730.88 381.297 1679.83 C 303.639 1605.32 259.403 1502.58 258.643 1394.95 L 258.054 904.433 L 258.096 736.235 C 258.122 703.389 257.234 669.304 258.914 636.587 C 263.855 540.385 304.541 448.196 371.885 379.753 C 437.704 312.034 525.115 269.44 619.007 259.333 C 645.11 256.414 668.558 256.688 694.74 256.491 z" fill="rgb(40,85,187)" transform="translate(0,0)"></path>
<path d="M 817.193 1044.93 L 1235.95 1045.78 C 1236.54 1151.08 1236.54 1256.38 1235.97 1361.68 C 1141.13 1363.91 1055.05 1340.68 976.414 1286.02 C 897.752 1231.35 833.348 1140.46 817.193 1044.93 z" fill="rgb(252,253,253)" transform="translate(0,0)"></path>
<path d="M 814.564 685.471 C 924.453 680.119 1031.99 718.481 1113.69 792.173 C 1163.61 836.792 1201.38 893.363 1223.46 956.578 C 1227.35 967.632 1233.86 987.853 1234.43 998.848 L 814.76 998.776 C 814.172 927.404 813.985 856.029 814.2 784.655 L 813.959 719.335 C 813.942 711.841 813.501 691.842 814.564 685.471 z" fill="rgb(252,253,253)" transform="translate(0,0)"></path>
<path d="M 827.948 1402 L 1234.26 1402.02 L 1233.85 1727.07 C 1092.21 1726.9 949.687 1644.57 876.599 1523.98 C 855.362 1488.94 834.619 1442.4 827.948 1402 z" fill="rgb(252,253,253)" transform="translate(0,0)"></path>
<path d="M 814.74 321.061 C 891.747 320.807 975.747 349.487 1040.57 389.879 C 1132.21 447.865 1197.55 539.377 1222.64 644.877 L 814.784 645.052 L 814.74 321.061 z" fill="rgb(252,253,253)" transform="translate(0,0)"></path>
<path d="M 1278.87 679.055 L 1665.75 678.987 C 1654.18 758.005 1606.73 836.529 1550.4 891.914 C 1467.83 967.917 1390.23 999.034 1278.88 1006.88 C 1278.1 897.608 1278.1 788.33 1278.87 679.055 z" fill="rgb(252,253,253)" transform="translate(0,0)"></path>
<path d="M 763.839 1042.44 C 767.406 1042.26 765.954 1041.71 768.702 1043.18 C 769.716 1050.81 769.348 1070.16 769.37 1078.58 L 769.329 1147.55 L 769.111 1366.45 C 730.456 1366.86 690.598 1366.16 651.843 1366.1 C 564.709 1365.78 477.574 1365.93 390.443 1366.53 C 388.072 1366.47 387.436 1366.36 385.094 1366.02 C 382.69 1361.76 389.365 1339.74 390.833 1333.76 C 422.754 1203.62 525.631 1099.96 653.089 1061.36 C 691.117 1049.84 724.125 1044.8 763.839 1042.44 z" fill="rgb(252,253,253)" transform="translate(0,0)"></path>
<path d="M 1278.77 1042.05 L 1667.45 1042.36 C 1646.4 1127.63 1615.86 1185.14 1553.85 1248.4 C 1476.24 1322.64 1386.02 1360.48 1278.76 1363.36 C 1277.88 1256.26 1277.88 1149.15 1278.77 1042.05 z" fill="rgb(252,253,253)" transform="translate(0,0)"></path>
<path d="M 1278.2 1402.04 L 1663.77 1402.05 C 1661.45 1417.17 1655.45 1433.77 1650.58 1448.34 C 1631.17 1506.33 1592.62 1567.86 1547.3 1609.67 C 1473.39 1678.42 1379.68 1722.69 1278.06 1727.22 C 1277.25 1620.48 1277.01 1508.61 1278.2 1402.04 z" fill="rgb(252,253,253)" transform="translate(0,0)"></path>
<path d="M 762.747 684.451 C 765.338 684.183 765.295 683.998 767.66 684.958 C 770.52 691.245 768.839 708.614 768.858 716.578 L 768.984 787.687 L 769.177 999.986 L 391.75 1000.08 C 388.792 1000.19 388.387 1000.48 385.715 999.402 C 384.31 993.76 390.289 974.836 392.225 968.165 C 408.6 910.645 438.124 857.719 478.465 813.568 C 551.847 732.997 654.719 689.64 762.747 684.451 z" fill="rgb(252,253,253)" transform="translate(0,0)"></path>
<path d="M 755.075 323.59 C 759.689 323.07 765.153 322.902 769.856 322.632 L 769.274 644.08 L 401.2 644.529 L 386.235 644.271 C 401.707 580.56 423.933 530.238 465.095 478.339 C 518.945 411.456 592.034 362.722 674.48 338.725 C 702.528 330.665 726.261 326.879 755.075 323.59 z" fill="rgb(252,253,253)" transform="translate(0,0)"></path>
<metadata><recraft-signature>{"signed_by": "recraft", "signature_b64": "qGBNmBs8cccdq16IHST0H5wP/ItCwWifsJvMjfaC07ilf+VtiSA1xd/ooEadwn8iC/5i4YU3P4KwrjLAq51uCQ==", "signing_algo": "Ed25519", "generation_timestamp": 1772809765, "identifier": "fda84d05-81e7-4663-865b-c8ca5c7127e5"}</recraft-signature></metadata></svg>