<svg xmlns="http://www.w3.org/2000/svg" height="1024" preserveAspectRatio="none" style="display: block;" version="1.1" viewBox="0 0 2048 2048" width="1024">
<path d="M 0 0 L 2048 0 L 2048 2048 L 0 2048 L 0 0 z" fill="rgb(254,254,254)" transform="translate(0,0)"></path>
<path d="M 328.305 1499.78 C 266.955 1390.86 262.174 1297.08 262.358 1176.63 L 262.078 1047.76 L 262.07 878.904 C 262.093 844.727 261.204 806.031 263.389 772.361 C 273.914 629.042 339.902 495.475 447.335 400.034 C 542.781 316.602 653.784 270.853 780.321 261.43 C 810.899 259.153 842.823 259.975 873.595 260.002 L 1011.3 260.075 L 1172.8 260.072 C 1205.43 260.108 1242.9 259.396 1275.09 261.636 C 1421.6 272.048 1557.93 340.423 1653.89 451.628 C 1689.07 492.5 1715.17 530.711 1737.72 580.207 C 1755.22 618.601 1765.58 647.696 1775.88 689.064 C 1782.67 725.108 1786.68 754.094 1787.81 791.053 C 1788.62 817.267 1786.72 848.82 1788.4 874.365 C 1789.05 919.205 1787.89 965.555 1787.88 1010.6 C 1787.9 1072.74 1788.27 1134.87 1788.98 1197.01 C 1789.11 1237.41 1789.83 1269.45 1784.89 1309.83 C 1769.47 1428.15 1715.43 1538.09 1631.15 1622.57 C 1527.71 1726.57 1391.06 1788.52 1243.5 1788.89 L 1206.01 1788.79 C 1185.89 1790 1153.17 1788.93 1132.12 1788.95 L 983.522 1789.04 L 854.561 1789.07 C 812.619 1789.06 775.844 1790.22 734.041 1783.66 C 658.741 1770.62 592.444 1748.99 526.986 1708.79 C 514.169 1700.92 498.44 1691.12 486.672 1681.82 C 472.455 1673.03 423.01 1630.71 415.17 1618.22 C 406.404 1610.23 396.285 1597.58 388.619 1588.37 C 364.447 1559.33 346.145 1532.92 328.305 1499.78 z" fill="rgb(6,70,34)" transform="translate(0,0)"></path>
<path d="M 328.305 1499.78 C 266.955 1390.86 262.174 1297.08 262.358 1176.63 L 262.078 1047.76 L 262.07 878.904 C 262.093 844.727 261.204 806.031 263.389 772.361 C 273.914 629.042 339.902 495.475 447.335 400.034 C 542.781 316.602 653.784 270.853 780.321 261.43 C 810.899 259.153 842.823 259.975 873.595 260.002 L 1011.3 260.075 L 1172.8 260.072 C 1205.43 260.108 1242.9 259.396 1275.09 261.636 C 1421.6 272.048 1557.93 340.423 1653.89 451.628 C 1592.49 524.396 1520.47 592.272 1457.31 664.107 L 1304.32 833.313 C 1302.62 828.977 1297.38 808.495 1295.75 802.9 L 1097.14 802.613 C 1088.57 802.612 1030.3 803.174 1025.19 802.016 L 1025.1 877.801 C 1025.09 888.12 1025.66 908.4 1024.74 918.102 L 972.787 875.37 C 957.623 863.111 936.822 846.756 922.713 833.591 L 527.304 1275.59 L 412.33 1405.01 C 384.005 1436.75 355.715 1467.21 328.305 1499.78 z" fill="rgb(34,199,117)" transform="translate(0,0)"></path>
<path d="M 1013.22 478.438 C 1016.7 478.427 1019.69 476.908 1025.73 477.199 C 1024.92 585.469 1024.74 693.743 1025.19 802.016 L 1025.1 877.801 C 1025.09 888.12 1025.66 908.4 1024.74 918.102 L 972.787 875.37 C 957.623 863.111 936.822 846.756 922.713 833.591 L 527.304 1275.59 C 485.616 1194.2 471.728 1121.29 469.442 1031.1 C 468.969 1008.6 470.152 986.107 472.981 963.789 C 492.83 811.856 563.94 686.206 685.365 592.86 C 764.938 532.024 859.304 493.523 958.724 481.33 C 971.735 479.793 1000.73 476.804 1013.22 478.438 z" fill="rgb(254,254,254)" transform="translate(0,0)"></path>
<path d="M 469.442 1031.1 C 468.969 1008.6 470.152 986.107 472.981 963.789 C 492.83 811.856 563.94 686.206 685.365 592.86 C 764.938 532.024 859.304 493.523 958.724 481.33 C 971.735 479.793 1000.73 476.804 1013.22 478.438 C 941.174 495.395 881.536 565.105 844.432 625.905 C 772.94 743.053 736.978 894.623 736.927 1030.97 C 648.431 1031.06 557.647 1032.31 469.442 1031.1 z" fill="rgb(6,70,34)" transform="translate(0,0)"></path>
<path d="M 1025.73 477.199 C 1029.87 477.664 1036.99 478.748 1040.85 478.451 C 1117.08 495.848 1175.8 563.177 1215.81 626.872 C 1240.07 666.045 1260.68 707.358 1277.39 750.294 C 1284.04 767.638 1289.43 785.524 1295.75 802.9 L 1097.14 802.613 C 1088.57 802.612 1030.3 803.174 1025.19 802.016 C 1024.74 693.743 1024.92 585.469 1025.73 477.199 z" fill="rgb(6,70,34)" transform="translate(0,0)"></path>
<path d="M 1040.85 478.451 C 1056.15 476.393 1080.79 479.48 1096.41 480.93 C 1231.8 493.493 1364.54 565.993 1457.31 664.107 L 1304.32 833.313 C 1302.62 828.977 1297.38 808.495 1295.75 802.9 C 1289.43 785.524 1284.04 767.638 1277.39 750.294 C 1260.68 707.358 1240.07 666.045 1215.81 626.872 C 1175.8 563.177 1117.08 495.848 1040.85 478.451 z" fill="rgb(254,254,254)" transform="translate(0,0)"></path>
<path d="M 1557.09 1198.02 C 1582.44 1196.35 1615.87 1197.16 1641.85 1197.12 L 1788.98 1197.01 C 1789.11 1237.41 1789.83 1269.45 1784.89 1309.83 C 1769.47 1428.15 1715.43 1538.09 1631.15 1622.57 C 1527.71 1726.57 1391.06 1788.52 1243.5 1788.89 L 1206.01 1788.79 C 1198.85 1788.12 1189.39 1788.29 1181.99 1788.25 C 1180.64 1712.94 1180.7 1637.61 1182.18 1562.3 C 1167.19 1565.54 1152.63 1569.39 1137.49 1572.24 C 1100.62 1579.1 1063.22 1582.62 1025.73 1582.76 C 1025.08 1506.23 1024.92 1429.7 1025.23 1353.16 C 1026.01 1343.63 1025.74 1331.96 1025.77 1322.25 C 1082.85 1322.75 1139.94 1322.92 1197.02 1322.76 C 1221.66 1322.71 1261.74 1321.02 1284.83 1323.27 C 1291.09 1318.46 1310.32 1298.64 1319.21 1290.81 C 1394.28 1231.4 1461.92 1205.53 1557.09 1198.02 z" fill="rgb(6,70,34)" transform="translate(0,0)"></path>
<path d="M 1557.09 1198.02 C 1540.45 1247.57 1523.16 1280.65 1498.36 1325.73 C 1395.56 1345.51 1327.95 1405.47 1309.64 1510.18 C 1262.65 1533.53 1232.48 1545.8 1182.89 1561.94 C 1185.89 1476.69 1224.65 1383.78 1284.83 1323.27 C 1291.09 1318.46 1310.32 1298.64 1319.21 1290.81 C 1394.28 1231.4 1461.92 1205.53 1557.09 1198.02 z" fill="rgb(254,254,254)" transform="translate(0,0)"></path>
<path d="M 803.171 1321.89 C 876.28 1322.01 952.412 1320.47 1025.11 1321.94 C 1025.12 1331.7 1024.85 1343.57 1025.23 1353.16 C 1024.92 1429.7 1025.08 1506.23 1025.73 1582.76 C 1063.22 1582.62 1100.62 1579.1 1137.49 1572.24 C 1152.63 1569.39 1167.19 1565.54 1182.18 1562.3 C 1180.7 1637.61 1180.64 1712.94 1181.99 1788.25 C 1189.39 1788.29 1198.85 1788.12 1206.01 1788.79 C 1185.89 1790 1153.17 1788.93 1132.12 1788.95 L 983.522 1789.04 L 854.561 1789.07 C 812.619 1789.06 775.844 1790.22 734.041 1783.66 C 658.741 1770.62 592.444 1748.99 526.986 1708.79 C 514.169 1700.92 498.44 1691.12 486.672 1681.82 C 491.07 1677.52 495.14 1672.31 499.385 1667.79 C 560.427 1602.76 619.724 1535.41 681.419 1471.06 C 696.8 1483.08 718.56 1496.77 735.797 1505.93 C 736.62 1470.39 735.748 1432.33 735.769 1396.51 C 740.544 1390.32 781.183 1344.68 784.642 1343.19 C 786.587 1339.06 799.306 1326.01 803.171 1321.89 z" fill="rgb(6,70,34)" transform="translate(0,0)"></path>
<path d="M 735.234 1505.73 C 806.298 1544.25 878.748 1571.1 959.632 1579.06 C 973.032 1580.38 994.093 1582.17 1007.01 1581.51 L 1007.82 1580.35 C 1011.84 1580.92 1022.16 1582.65 1025.73 1582.76 C 1063.22 1582.62 1100.62 1579.1 1137.49 1572.24 C 1152.63 1569.39 1167.19 1565.54 1182.18 1562.3 C 1180.7 1637.61 1180.64 1712.94 1181.99 1788.25 C 1189.39 1788.29 1198.85 1788.12 1206.01 1788.79 C 1185.89 1790 1153.17 1788.93 1132.12 1788.95 L 983.522 1789.04 L 854.561 1789.07 C 812.619 1789.06 775.844 1790.22 734.041 1783.66 C 736.142 1776.13 734.976 1725.27 734.998 1714.73 L 735.234 1505.73 z" fill="rgb(34,199,117)" transform="translate(0,0)"></path>
<path d="M 803.171 1321.89 C 876.28 1322.01 952.412 1320.47 1025.11 1321.94 C 1025.12 1331.7 1024.85 1343.57 1025.23 1353.16 C 1024.92 1429.7 1025.08 1506.23 1025.73 1582.76 C 1022.16 1582.65 1011.84 1580.92 1007.82 1580.35 C 999.553 1578.76 991.445 1576.42 983.601 1573.36 C 887.155 1536.64 824.664 1432.91 784.642 1343.19 C 786.587 1339.06 799.306 1326.01 803.171 1321.89 z" fill="rgb(254,254,254)" transform="translate(0,0)"></path>
<path d="M 1317.87 1033.43 C 1317.94 1060.41 1316.26 1284.13 1319.21 1290.81 C 1310.32 1298.64 1291.09 1318.46 1284.83 1323.27 C 1261.74 1321.02 1221.66 1322.71 1197.02 1322.76 C 1139.94 1322.92 1082.85 1322.75 1025.77 1322.25 C 1025.74 1331.96 1026.01 1343.63 1025.23 1353.16 C 1024.85 1343.57 1025.12 1331.7 1025.11 1321.94 C 1026.04 1304.79 1025.56 1284.49 1025.52 1267.15 L 1025.33 1169.5 C 1025.3 1150.05 1024.86 1128.7 1025.77 1109.43 C 1067.85 1143.31 1111.82 1177.91 1152.91 1212.93 C 1207.36 1157.93 1265.66 1091.09 1317.87 1033.43 z" fill="rgb(34,199,117)" transform="translate(0,0)"></path>
<path d="M 1788.4 874.365 C 1789.05 919.205 1787.89 965.555 1787.88 1010.6 C 1787.9 1072.74 1788.27 1134.87 1788.98 1197.01 L 1641.85 1197.12 C 1615.87 1197.16 1582.44 1196.35 1557.09 1198.02 C 1572.97 1155.71 1582.27 1089.08 1583.77 1043.72 C 1650.26 987.628 1720.67 928.947 1788.4 874.365 z" fill="rgb(34,199,117)" transform="translate(0,0)"></path>
<path d="M 938.712 1037.87 C 956.023 1053.46 985.725 1076.26 1004.66 1091.77 C 957.784 1146.98 907.466 1200.32 860.775 1255.76 C 843.496 1276.28 818.332 1300.59 803.171 1321.89 C 799.306 1326.01 786.587 1339.06 784.642 1343.19 C 781.183 1344.68 740.544 1390.32 735.769 1396.51 C 735.748 1432.33 736.62 1470.39 735.797 1505.93 C 718.56 1496.77 696.8 1483.08 681.419 1471.06 C 678.132 1467.93 672.685 1463.61 668.941 1460.74 C 646.131 1443.25 629.586 1422.41 610.647 1401.21 C 616.519 1393.11 634.977 1373.71 642.143 1365.8 L 711.596 1289.43 L 938.712 1037.87 z" fill="rgb(34,199,117)" transform="translate(0,0)"></path>
<path d="M 1025.19 802.016 C 1030.3 803.174 1088.57 802.612 1097.14 802.613 L 1295.75 802.9 C 1297.38 808.495 1302.62 828.977 1304.32 833.313 C 1289.73 850.851 1272.49 869.452 1256.73 886.043 C 1217.24 927.618 1179.94 973.176 1140.04 1014.14 C 1114.1 989.974 1085.31 968.387 1058.03 945.796 C 1052.48 941.205 1028.52 922.318 1024.74 918.102 C 1025.66 908.4 1025.09 888.12 1025.1 877.801 L 1025.19 802.016 z" fill="rgb(34,199,117)" transform="translate(0,0)"></path>
<path d="M 1535.8 796.091 C 1545.64 809.89 1558.11 851.178 1561.75 868.296 C 1576.48 921.256 1583.91 975.982 1583.81 1030.95 L 1320.18 1031.02 C 1334.74 1014.28 1352.22 996.19 1367.41 979.755 L 1437.72 903.243 C 1470.25 868.067 1503.01 830.475 1535.8 796.091 z" fill="rgb(254,254,254)" transform="translate(0,0)"></path>
<path d="M 610.647 1401.21 C 629.586 1422.41 646.131 1443.25 668.941 1460.74 C 672.685 1463.61 678.132 1467.93 681.419 1471.06 C 619.724 1535.41 560.427 1602.76 499.385 1667.79 C 495.14 1672.31 491.07 1677.52 486.672 1681.82 C 472.455 1673.03 423.01 1630.71 415.17 1618.22 C 421.118 1612.24 428.085 1603.85 433.96 1597.46 L 487.791 1537.86 L 610.647 1401.21 z" fill="rgb(254,254,254)" transform="translate(0,0)"></path>
<path d="M 1737.72 580.207 C 1755.22 618.601 1765.58 647.696 1775.88 689.064 C 1766.35 695.063 1743.6 716.479 1733.03 725.199 L 1607.09 830.601 C 1598.89 837.539 1568.89 864.48 1561.75 868.296 C 1558.11 851.178 1545.64 809.89 1535.8 796.091 C 1540.43 788.847 1561.6 768.121 1568.5 760.716 C 1582.86 745.303 1597.68 729.367 1612.14 714.026 L 1700.88 619.239 C 1712.52 606.913 1725.71 591.69 1737.72 580.207 z" fill="rgb(34,199,117)" transform="translate(0,0)"></path>
<metadata><recraft-signature>{"signed_by": "recraft", "signature_b64": "vRjaMvxiRlmVTE/rLZiI9bN5amCxht15qWt0Q1M9CzYi/exybtjSBzFa2VGIzl2LVfaSnVzDNWRvHQU3a9dnDw==", "signing_algo": "Ed25519", "generation_timestamp": 1772810261, "identifier": "ace7ab27-32c6-4362-81e8-7f485b6b0baf"}</recraft-signature></metadata></svg>