<svg xmlns="http://www.w3.org/2000/svg" height="1024" preserveAspectRatio="none" style="display: block;" version="1.1" viewBox="0 0 2048 2048" width="1024">
<path d="M 0 0 L 2048 0 L 2048 2048 L 0 2048 L 0 0 z" fill="rgb(255,255,255)" transform="translate(0,0)"></path>
<path d="M 1044.35 286.5 C 1099.2 285.853 1154.76 286.93 1209.81 286.542 C 1253.28 286.236 1304.19 285.789 1346.75 290.557 C 1451.9 302.054 1550.04 348.906 1625.1 423.446 C 1693.75 492.376 1739.32 580.917 1755.5 676.847 C 1760.73 709.345 1761.84 741.796 1761.92 774.649 L 1761.97 1106.7 L 1761.92 1239.58 C 1761.86 1281.93 1762.73 1325.23 1756.23 1367.09 C 1740.8 1466.44 1695.38 1556.19 1624.52 1627.18 C 1548.12 1703.16 1447.62 1750.13 1340.32 1760 C 1301.23 1763.55 1250.11 1762.02 1209.67 1762.02 L 1009.75 1762 L 833.523 1762.16 C 795.366 1762.16 755.576 1763.12 717.726 1759.97 C 606.134 1750.67 505.307 1705.82 425.627 1626.62 C 393.249 1594.05 366.009 1556.75 344.84 1516 C 314.615 1459.33 296.452 1397.02 291.496 1332.98 C 289.484 1304.66 290.172 1271.04 290.12 1242.42 L 290.388 1097.73 L 290.039 759.404 C 289.1 512.996 469.012 311.429 715.096 289.45 C 757.211 285.688 799.539 286.953 841.799 286.787 L 1044.35 286.5 z" fill="rgb(3,171,91)" transform="translate(0,0)"></path>
<path d="M 1027.05 815.022 C 1048.82 831.768 1062.07 841.682 1089.71 849.415 C 1132.24 861.216 1177.72 855.654 1216.16 833.951 C 1183.29 902.894 1190.88 968.227 1243.18 1025.44 C 1192.04 1077 1183.78 1149.18 1214.52 1213.61 C 1155.35 1183.74 1089.67 1186.86 1037.09 1226.99 C 1034.35 1229.07 1028.34 1234.42 1025.38 1234.51 C 985.131 1196.45 920.908 1183.62 868.865 1200.94 C 857.574 1204.7 846.71 1209.29 835.732 1213.86 C 846.358 1194.57 853 1175.68 854.657 1153.66 C 858.808 1098.49 842.863 1065.68 808.576 1025.11 C 860.824 973.294 868.749 896.804 834.615 832.962 C 863.713 847.956 880.321 854.681 913.5 855.238 C 960.937 856.036 989.677 841.867 1027.05 815.022 z" fill="rgb(255,255,255)" transform="translate(0,0)"></path>
<path d="M 1143.36 415.13 L 1221.48 414.644 C 1249.09 414.305 1280.46 413.365 1307.9 415.907 C 1389.07 422.853 1465.43 457.285 1524.37 513.514 C 1652.88 638.34 1632.78 761.51 1633.22 923.303 L 1629.53 922.27 C 1620.75 893.817 1591.41 851.471 1569.89 830.536 C 1560.28 821.189 1547.47 810.546 1536.91 801.825 C 1537.02 786.642 1536.52 773.173 1535.41 758.027 C 1527.71 653.587 1450.54 563.57 1353.9 528.38 C 1320.47 516.208 1288.3 514.182 1253.15 513.615 C 1245.19 505.932 1236.4 494.3 1227.62 485.562 C 1198.3 456.685 1163.38 434.115 1125 419.239 C 1123.12 418.668 1121.23 418.142 1119.32 417.662 C 1116.53 416.963 1115.29 416.815 1112.56 415.657 L 1110.61 414.876 C 1121.02 415.082 1133.47 414.551 1143.36 415.13 z" fill="rgb(255,255,255)" transform="translate(0,0)"></path>
<path d="M 1110.61 414.876 C 1121.02 415.082 1133.47 414.551 1143.36 415.13 C 1137.96 415.928 1131.35 416.308 1125.9 415.681 L 1125 419.239 C 1123.12 418.668 1121.23 418.142 1119.32 417.662 C 1116.53 416.963 1115.29 416.815 1112.56 415.657 L 1110.61 414.876 z" fill="rgb(120,219,174)" transform="translate(0,0)"></path>
<path d="M 1119.32 417.662 C 1120.13 415.523 1121.79 415.971 1124.02 415.866 L 1125.9 415.681 L 1125 419.239 C 1123.12 418.668 1121.23 418.142 1119.32 417.662 z" fill="rgb(234,252,244)" transform="translate(0,0)"></path>
<path d="M 416.908 922.232 C 415.964 873.524 417.498 824.526 416.625 775.89 C 414.913 680.511 453.009 585.51 521.325 518.14 C 581.884 458.945 661.201 422.737 745.597 415.762 C 788.254 412.097 853.892 414.696 898.808 415.126 C 902.417 414.95 934.974 414.29 935.522 416.038 L 935.435 416.021 C 934.398 417.188 933.344 417.091 931.836 417.374 C 877.162 436.653 836.05 468.283 799.998 513.4 C 721.014 512.002 654.82 532.43 596.917 588.586 C 544.605 639.905 514.856 709.925 514.23 783.204 C 514.194 788.609 514.214 794.014 514.292 799.418 C 472.221 829.128 441.185 874.97 420.359 921.271 L 416.908 922.232 z" fill="rgb(255,255,255)" transform="translate(0,0)"></path>
<path d="M 898.808 415.126 C 902.417 414.95 934.974 414.29 935.522 416.038 L 935.435 416.021 C 934.398 417.188 933.344 417.091 931.836 417.374 C 927.071 414.832 908.071 416.671 898.808 415.126 z" fill="rgb(120,219,174)" transform="translate(0,0)"></path>
<path d="M 1631.58 1123.09 C 1631.85 1121.94 1631.99 1121.21 1632.51 1120.15 L 1633.45 1119.57 C 1634.06 1120.48 1633.97 1167.86 1633.78 1172.55 C 1633.91 1217 1635.49 1270.74 1632.23 1314.17 C 1626.08 1395.88 1586.73 1472.81 1529.12 1530.8 C 1472.5 1587.76 1397.95 1623.42 1318.08 1631.73 C 1288.97 1634.76 1256.76 1633.49 1227.37 1634 C 1193.99 1634.57 1160.18 1632.66 1126.86 1633.12 L 1125.15 1630.08 C 1175.89 1613.24 1220.03 1577.9 1251.34 1535.06 L 1259.67 1535.21 C 1334.88 1536.24 1403 1509.96 1456.75 1457.34 C 1474.21 1440.19 1489.13 1420.64 1501.08 1399.28 C 1531.09 1346.6 1536.03 1306.45 1536.79 1248.07 C 1579.37 1220.48 1612.62 1169.43 1631.58 1123.09 z" fill="rgb(255,255,255)" transform="translate(0,0)"></path>
<path d="M 1631.58 1123.09 C 1631.85 1121.94 1631.99 1121.21 1632.51 1120.15 L 1633.45 1119.57 C 1634.06 1120.48 1633.97 1167.86 1633.78 1172.55 C 1631.5 1161.34 1634.39 1128.77 1631.58 1123.09 z" fill="rgb(192,233,211)" transform="translate(0,0)"></path>
<path d="M 416.765 1128.06 L 419.575 1126.12 C 445.38 1186.02 464.487 1207.24 513.45 1249.7 C 513.182 1367.55 566.21 1465.75 677.446 1514.48 C 717.539 1532.05 754.772 1535.01 797.932 1535.12 C 834.012 1579.25 874.82 1612.86 930.049 1630.46 L 929.067 1633.17 C 876.296 1631.61 819.585 1634.26 766.185 1633.09 C 670.077 1631.87 578.547 1591.84 512.4 1522.1 C 458.607 1465.45 425.355 1392.4 417.959 1314.63 C 415.172 1285.65 416.438 1254.37 416.314 1225.26 C 416.177 1192.78 416.03 1160.55 416.765 1128.06 z" fill="rgb(255,255,255)" transform="translate(0,0)"></path>
<path d="M 537.25 902.746 C 571.859 965.851 588.754 982.933 645.119 1025.12 C 610.689 1047.06 584.837 1072.91 561.824 1106.51 C 551.999 1121.87 546.05 1132.69 538.282 1149.06 C 491.827 1093.52 480.45 1019.07 506.793 951.404 C 514.16 932.483 524.388 918.279 537.25 902.746 z" fill="rgb(255,255,255)" transform="translate(0,0)"></path>
<path d="M 1025.51 1402.1 C 1027.17 1403.77 1031.93 1411.69 1033.5 1413.99 C 1054.44 1444.8 1083.19 1471.82 1114.86 1491.32 C 1125.56 1497.91 1137.26 1503.24 1148.14 1509.77 C 1115.54 1539.15 1070.55 1553.44 1027.15 1554.6 C 983.618 1553.04 934.172 1541.08 902.603 1509.14 C 958.247 1482.96 991.662 1453.2 1025.51 1402.1 z" fill="rgb(255,255,255)" transform="translate(0,0)"></path>
<path d="M 1012.23 496.397 C 1012.57 496.36 1012.9 496.323 1013.24 496.286 C 1062.46 492.584 1111.21 508.052 1149.29 539.458 C 1096.27 563.098 1068.45 593.183 1034.28 637.737 L 1026.19 648.426 C 991.922 599.347 959.864 566.354 905.072 539.014 C 937.789 513.278 970.475 500.221 1012.23 496.397 z" fill="rgb(255,255,255)" transform="translate(0,0)"></path>
<path d="M 1511.35 900.68 C 1530.53 921.9 1547.49 961.92 1551.35 989.999 C 1559.85 1051.66 1548.16 1096.16 1512.5 1145.44 C 1504.46 1129.16 1499.41 1119.69 1489.07 1104.74 C 1461.18 1065.52 1445.29 1053.05 1407.33 1024.55 C 1416.03 1017.12 1426.98 1009.85 1436.36 1001.84 C 1471.25 972.031 1491.91 941.388 1511.35 900.68 z" fill="rgb(255,255,255)" transform="translate(0,0)"></path>
<path d="M 766.758 1282.07 C 767.974 1284.05 764.868 1288.57 763.706 1291.16 C 760.351 1298.58 757.539 1306.23 755.292 1314.06 C 742.473 1357.54 743.886 1397.65 755.386 1441.12 C 716.007 1433.96 686.903 1418.36 658.226 1390.95 C 631.681 1364.77 613.619 1331.21 606.382 1294.64 L 607.474 1294.98 C 662.54 1312.15 715.593 1308.86 766.758 1282.07 z" fill="rgb(255,255,255)" transform="translate(0,0)"></path>
<path d="M 750.62 606.981 L 752.517 606.974 C 755.355 609.667 751.932 616.49 751.062 620.398 C 739.816 670.883 747.633 719.457 768.916 766.814 C 728.822 747.103 692.097 740.423 647.944 744.261 C 632.298 746.296 622.042 749.249 607.07 753.635 C 624.522 677.057 676.789 629.182 750.62 606.981 z" fill="rgb(255,255,255)" transform="translate(0,0)"></path>
<path d="M 1281.55 1280.48 C 1298.81 1287.69 1311.3 1295.4 1330.04 1299.74 C 1368.28 1308.6 1402.42 1307.06 1439.39 1296.11 C 1430.33 1333.1 1416.35 1362.57 1389.8 1389.99 C 1362.23 1417.07 1336.68 1430.91 1299.17 1440.47 C 1312.38 1382.88 1311.46 1332.6 1281.55 1280.48 z" fill="rgb(255,255,255)" transform="translate(0,0)"></path>
<path d="M 1299.9 608.65 C 1369.98 627.081 1427.66 678.974 1439.82 752.476 C 1425.44 747.74 1419.22 746.12 1404.24 744.249 C 1359.91 739.024 1322.33 747.48 1282.72 767.15 C 1308.57 720.836 1314.08 659.217 1299.9 608.65 z" fill="rgb(255,255,255)" transform="translate(0,0)"></path>
<path d="M 663.72 837.418 C 712.886 832.341 760.787 862.779 760.129 916.71 C 759.862 938.579 747.544 954.868 731.685 968.982 C 728.733 966.901 725.243 964.975 722.107 963.121 C 666.504 931.773 637.265 910.301 615.053 848.599 C 633.225 842.216 644.579 839.118 663.72 837.418 z" fill="rgb(255,255,255)" transform="translate(0,0)"></path>
<path d="M 1319.4 1079.6 C 1323 1080.27 1339.7 1091.07 1343.79 1093.39 C 1389.1 1119.13 1417.03 1152.69 1434.85 1201.5 C 1424.98 1205.14 1414.88 1208.15 1404.63 1210.5 C 1352.44 1218.72 1292.7 1199.14 1291.35 1135.82 C 1290.86 1112.68 1303.17 1095.33 1319.4 1079.6 z" fill="rgb(255,255,255)" transform="translate(0,0)"></path>
<path d="M 1125.82 1289.34 C 1181.66 1285.37 1216.17 1333.27 1213.36 1385.71 C 1212.44 1402.85 1209.42 1415.56 1204.63 1432.03 C 1194.71 1428.59 1187.19 1425.26 1177.72 1420.95 C 1142.02 1403.94 1116.43 1375.73 1095.8 1342.83 C 1089.86 1333.35 1083.79 1324.87 1078.95 1314.65 C 1092.44 1299.89 1105.94 1292.06 1125.82 1289.34 z" fill="rgb(255,255,255)" transform="translate(0,0)"></path>
<path d="M 730.16 1079.87 C 734.569 1080.9 741.866 1089.41 744.937 1093.08 C 770.359 1123.5 764.154 1168.95 733.003 1192.91 C 707.313 1212.66 683.534 1214.62 652.522 1211.25 C 639.302 1208.93 631.014 1205.38 618.579 1200.52 C 644.149 1136.78 673.895 1116.13 730.16 1079.87 z" fill="rgb(255,255,255)" transform="translate(0,0)"></path>
<path d="M 1363.61 836.351 C 1387.75 833.065 1409.39 840.66 1431.56 848.547 C 1412.56 898.048 1389.25 923.622 1346.07 952.866 C 1337.35 958.229 1328.78 963.843 1320.38 969.702 C 1262.96 923.194 1294.55 845.636 1363.61 836.351 z" fill="rgb(255,255,255)" transform="translate(0,0)"></path>
<path d="M 1204.1 616.986 C 1205.71 618.427 1205.44 617.783 1206.01 619.522 C 1215.85 649.427 1218.08 683.409 1204.64 712.487 C 1191.03 741.908 1163.54 760.661 1130.87 759.327 C 1118.58 758.825 1110.44 756.403 1099.41 751.192 C 1091.29 746.447 1086.45 742.168 1079.9 735.619 C 1115.83 673.775 1138.09 646.41 1204.1 616.986 z" fill="rgb(255,255,255)" transform="translate(0,0)"></path>
<path d="M 847.9 616.481 C 896.372 639.319 917.4 653.442 949.086 700.064 C 956.432 710.874 963.231 724.251 970.658 734.658 L 971.436 735.731 C 965.567 741.482 960.696 745.506 953.836 749.935 C 914.661 771.433 866.165 755.178 847.24 714.911 C 832.777 684.136 836.823 647.603 847.9 616.481 z" fill="rgb(255,255,255)" transform="translate(0,0)"></path>
<path d="M 909.06 1289.33 C 933.397 1286.25 953.124 1296.72 970.444 1312.57 C 943.43 1357.65 929.069 1384.84 882.451 1414.38 C 867.864 1422.95 862.124 1425.98 845.836 1431.33 C 836.756 1396.16 832.085 1358.62 852.464 1326.26 C 865.955 1304.83 884.197 1293.11 909.06 1289.33 z" fill="rgb(255,255,255)" transform="translate(0,0)"></path>
<path d="M 1633.22 923.303 C 1633.25 924.494 1633.73 928.713 1633.19 929.578 C 1631.75 929.955 1630.03 923.541 1629.53 922.27 L 1633.22 923.303 z" fill="rgb(234,252,244)" transform="translate(0,0)"></path>
<path d="M 930.049 1630.46 C 931.937 1630.87 934.077 1631.15 935.48 1632.45 L 935.497 1632.56 C 934.824 1633.41 930.075 1633.16 929.067 1633.17 L 930.049 1630.46 z" fill="rgb(234,252,244)" transform="translate(0,0)"></path>
<path d="M 1125.15 1630.08 L 1126.86 1633.12 C 1126.16 1633.13 1120.41 1633.59 1119.92 1632.59 C 1120.79 1631.59 1123.87 1630.6 1125.15 1630.08 z" fill="rgb(234,252,244)" transform="translate(0,0)"></path>
<path d="M 416.908 922.232 L 420.359 921.271 C 419.965 922.21 418.118 927.837 416.879 927.376 C 416.286 926.475 416.825 923.164 416.908 922.232 z" fill="rgb(234,252,244)" transform="translate(0,0)"></path>
<path d="M 416.765 1128.06 C 416.807 1127.26 416.754 1122.3 417.531 1121.81 C 418.584 1122.57 419.158 1124.9 419.575 1126.12 L 416.765 1128.06 z" fill="rgb(234,252,244)" transform="translate(0,0)"></path>
<metadata><recraft-signature>{"signed_by": "recraft", "signature_b64": "r54ss2LDox5pU6JyZbjH0055pVQIaHpC5tlLMyvL35OeJHz5qYJ5VJzBl39XjGIJJdWJ3Vcmr/HgKnU+2uuiCQ==", "signing_algo": "Ed25519", "generation_timestamp": 1772810238, "identifier": "4ffdb505-c995-4996-aa39-bc91a35b482b"}</recraft-signature></metadata></svg>