<svg xmlns="http://www.w3.org/2000/svg" height="1024" preserveAspectRatio="none" style="display: block;" version="1.1" viewBox="0 0 2048 2048" width="1024">
<path d="M 0 0 L 2048 0 L 2048 2048 L 0 2048 L 0 0 z" fill="rgb(255,255,255)" transform="translate(0,0)"></path>
<path d="M 1180.02 215.887 L 1299.33 215.18 C 1303.24 343.97 1353.04 467.124 1439.76 562.421 C 1544.81 678.129 1679.5 734.702 1834 741.878 L 1834.68 866.768 C 1781.39 864.255 1741.74 861.043 1689.97 849.191 C 1689.86 886.755 1689.97 924.318 1690.31 961.88 L 1834.02 962.047 L 1834.23 1085.05 L 1690.09 1085.48 L 1690.27 1201.93 C 1745.25 1190.4 1776.55 1184.58 1834.2 1182.25 L 1834.36 1304.49 C 1806.71 1305.73 1784.5 1307.09 1756.93 1311.71 C 1662.23 1328.22 1573.35 1368.8 1498.83 1429.54 C 1397.44 1512.31 1328.45 1628.16 1303.98 1756.74 C 1298.61 1786.56 1299.92 1804.09 1297.4 1831.64 C 1294.66 1833.45 1291.67 1832.89 1288.21 1832.82 L 1179.28 1833 C 1180.14 1769.42 1188.1 1731.63 1202.08 1671.14 L 1084.64 1671.21 L 1084.16 1832.83 L 964.82 1832.91 L 965.251 1671.15 L 848.563 1671.29 C 862.041 1718.59 868.257 1783.99 869.408 1832.83 L 753.377 1832.56 C 748.216 1702.25 696.561 1578.1 607.767 1482.59 C 506.389 1373.24 365.25 1309.32 216.193 1305.25 L 216.016 1181.63 C 272.248 1183.31 304.466 1188.18 359.059 1199.57 L 359.063 1085.49 C 313.51 1084.13 261.657 1084.86 215.995 1085.51 L 215.88 961.302 C 256.878 963.326 317.471 962.414 359.077 961.572 L 358.94 846.593 C 318.463 857.425 257.997 863.897 216.091 864.952 L 216.017 741.318 C 340.285 738.993 474.425 684.655 566.841 601.903 C 678.419 503.616 745.364 364.28 752.37 215.752 L 768.01 215.485 C 801.951 215.257 835.895 215.304 869.836 215.625 C 868.436 263.656 859.794 328.803 846.485 374.993 L 965.084 375.066 L 965.184 215.297 C 1004.73 215.742 1044.74 215.436 1084.32 215.339 L 1084.47 375.121 L 1202.34 374.999 C 1189.3 323.293 1180.63 269.279 1180.02 215.887 z" fill="rgb(5,163,52)" transform="translate(0,0)"></path>
<path d="M 1143.4 1085.51 L 1292.99 1085.3 L 1292.83 1250.84 L 1233.5 1250.91 L 1084.94 1250.56 L 1084.92 1085.64 L 1143.4 1085.51 z" fill="rgb(255,255,255)" transform="translate(0,0)"></path>
<path d="M 757.455 1085.17 C 826.2 1084.54 896.282 1085.26 965.084 1085.58 L 965.067 1190.88 C 965.035 1209.52 965.533 1231.68 964.64 1250.09 C 898.944 1251.8 823.41 1252.07 757.846 1250.63 C 757.177 1195.48 757.047 1140.33 757.455 1085.17 z" fill="rgb(255,255,255)" transform="translate(0,0)"></path>
<path d="M 1084.98 795.942 L 1292.52 795.944 C 1293.44 849.595 1292.05 907.378 1292 961.447 C 1222.98 962.068 1153.96 962.2 1084.94 961.843 C 1084.62 906.543 1084.64 851.241 1084.98 795.942 z" fill="rgb(255,255,255)" transform="translate(0,0)"></path>
<path d="M 757.26 796.182 C 824.183 795.448 898.037 795.118 964.855 796.632 L 964.92 961.62 C 897.597 963.243 825.595 962.002 757.935 962.017 C 757.203 906.742 756.978 851.461 757.26 796.182 z" fill="rgb(255,255,255)" transform="translate(0,0)"></path>
<path d="M 1113.78 1374.49 C 1173.31 1374.24 1232.84 1374.38 1292.36 1374.9 L 1291.97 1477.59 C 1278 1498.5 1267.42 1516.34 1254.87 1538.09 L 1250.46 1545.6 L 1084.85 1545.48 L 1084.84 1374.94 L 1113.78 1374.49 z" fill="rgb(255,255,255)" transform="translate(0,0)"></path>
<path d="M 812.033 1374.5 C 862.115 1374.34 915.128 1373.35 964.89 1374.7 L 965.138 1545.51 L 907.75 1545.66 L 801.803 1545.36 C 791.434 1521.66 772.016 1492.41 757.309 1471.1 C 756.771 1439.52 757.265 1406.41 757.396 1374.72 L 812.033 1374.5 z" fill="rgb(255,255,255)" transform="translate(0,0)"></path>
<path d="M 802.536 500.935 L 964.965 501.771 L 965.108 670.978 L 920.5 671.081 L 757.283 671.538 C 757.142 638.654 757.208 605.77 757.482 572.887 C 764.218 561.92 772.569 551.011 779.616 540.055 C 787.857 527.242 795.141 514.245 802.536 500.935 z" fill="rgb(255,255,255)" transform="translate(0,0)"></path>
<path d="M 1084.38 501.071 L 1246.88 501.267 C 1249.14 505.257 1251.43 509.9 1253.46 514.036 C 1264.51 536.553 1278.35 556.938 1292.27 577.758 L 1292.61 671.056 L 1084.87 671.183 C 1084.34 614.481 1084.18 557.776 1084.38 501.071 z" fill="rgb(255,255,255)" transform="translate(0,0)"></path>
<path d="M 483.165 1085.5 C 516.941 1084.63 551.194 1085.63 585.022 1085.13 C 602.062 1084.88 620.011 1084.81 637.02 1085.53 C 637.044 1167.41 637.486 1249.29 637.281 1331.16 C 636.947 1331.6 636.613 1332.04 636.279 1332.48 L 634.082 1331.16 C 578.424 1288.4 540.919 1268.12 477.083 1239.58 L 477.148 1140.28 C 477.156 1126.54 476.429 1099.92 477.726 1087.15 C 479.704 1085.2 479.648 1085.84 483.165 1085.5 z" fill="rgb(255,255,255)" transform="translate(0,0)"></path>
<path d="M 1413.04 714.273 C 1420.24 717.679 1445.4 737.764 1454.17 743.555 C 1486.81 765.094 1534.8 794.781 1571.84 806.594 C 1571.97 858.252 1571.72 909.91 1571.1 961.565 C 1557.08 962.426 1535.04 961.841 1520.61 961.871 L 1412.98 961.951 L 1413.04 714.273 z" fill="rgb(255,255,255)" transform="translate(0,0)"></path>
<path d="M 493.133 796.5 C 539.881 795.462 590.131 796.063 637.003 796.033 L 637.117 961.943 L 621.353 962.016 L 477.198 961.727 C 476.854 906.734 477.152 851.739 478.092 796.752 L 493.133 796.5 z" fill="rgb(255,255,255)" transform="translate(0,0)"></path>
<path d="M 1412.95 1085.34 C 1464.12 1084.21 1520.06 1085.18 1571.18 1086.01 L 1571.4 1197.9 C 1571.41 1208.79 1572.08 1241.27 1570.5 1249.87 C 1555 1251.51 1529.19 1250.87 1512.75 1250.91 L 1412.93 1250.85 C 1412.86 1196.1 1412.17 1139.98 1412.95 1085.34 z" fill="rgb(255,255,255)" transform="translate(0,0)"></path>
<path d="M 1538.56 215.504 C 1566.21 215.188 1602.21 214.077 1628.93 216.911 C 1680.55 222.837 1728.73 245.744 1765.92 282.032 C 1801.96 316.921 1827.45 369.593 1832.67 419.428 C 1835.15 443.107 1834.15 478.077 1834.17 503.062 C 1834.06 542.068 1834.16 581.074 1834.48 620.079 C 1799.8 620.09 1763.55 612.718 1730.03 604.655 C 1664.47 587.388 1604.13 554.335 1554.29 508.38 C 1471.43 433.052 1422.29 327.618 1417.87 215.728 C 1457.47 215.003 1498.64 215.877 1538.56 215.504 z" fill="rgb(5,163,52)" transform="translate(0,0)"></path>
<path d="M 1816.48 1428.42 C 1821.32 1427.98 1829.14 1428 1834.21 1427.85 C 1834.29 1430.06 1834.33 1432.28 1834.35 1434.5 L 1834.17 1544.57 C 1834.16 1569.46 1835.32 1597.87 1833.34 1622.32 C 1825.39 1720.6 1751.98 1806.52 1655.08 1826.83 C 1618.52 1834.49 1588.35 1832.97 1551.51 1832.94 L 1437 1832.79 L 1418.92 1832.88 C 1418.52 1807.89 1422.46 1781.83 1428.04 1757.47 C 1444.97 1683.59 1477.58 1623.83 1527.91 1567.55 C 1602.05 1485.02 1705.73 1435.03 1816.48 1428.42 z" fill="rgb(5,163,52)" transform="translate(0,0)"></path>
<path d="M 215.972 1427.86 C 321.692 1431.78 404.876 1463.12 485.436 1532.12 C 556.325 1593.14 605.013 1675.91 623.897 1767.52 C 628.851 1791.84 630.111 1808.25 631.985 1832.84 C 630.953 1832.87 629.922 1832.89 628.89 1832.89 L 507.671 1833 C 486.652 1833 465.528 1833.16 444.559 1832.83 C 385.048 1831.91 326.68 1809.44 284.337 1767.16 C 236.417 1719.31 212.902 1656.02 215.998 1588.63 C 216.594 1575.66 215.952 1560.49 215.945 1547.3 L 215.972 1427.86 z" fill="rgb(5,163,52)" transform="translate(0,0)"></path>
<path d="M 510.237 215.5 C 550.525 215.327 590.813 215.356 631.101 215.587 C 630.694 313.774 583.324 417.217 515.753 487.699 C 460.499 545.333 397.257 582.217 320.983 604.162 C 279.687 614.644 258.298 618.059 216.015 620.862 L 215.952 502.922 C 215.933 477.213 214.918 443.535 217.202 418.633 C 221.601 370.674 247.829 318.16 281.635 283.992 C 319.067 246.41 368.266 222.817 421.007 217.157 C 445.445 214.657 484.539 215.599 510.237 215.5 z" fill="rgb(5,163,52)" transform="translate(0,0)"></path>
<metadata><recraft-signature>{"signed_by": "recraft", "signature_b64": "t5CqH5MpojkEZez9FsoJGtBoZi7ofe7SnSS/1KkKXnhfDvMuRCpJ7oUTgLZ4L+IwPY2Zjq3o9rCz4KAQe/UGAw==", "signing_algo": "Ed25519", "generation_timestamp": 1772810289, "identifier": "bb1e3a31-7a13-49a3-9d7c-35259e8c55fa"}</recraft-signature></metadata></svg>