<svg xmlns="http://www.w3.org/2000/svg" height="1024" preserveAspectRatio="none" style="display: block;" version="1.1" viewBox="0 0 2048 2048" width="1024">
<path d="M 0 0 L 2048 0 L 2048 2048 L 0 2048 L 0 0 z" fill="rgb(251,252,252)" transform="translate(0,0)"></path>
<path d="M 918.74 259.456 C 962.613 257.971 1010.86 258.84 1055.09 258.952 C 1161.26 258.313 1267.4 262.996 1373.11 272.984 C 1478.11 283.773 1576.21 297.394 1656.89 372.409 C 1744.87 454.212 1765.78 561.391 1778.36 675.82 C 1784.95 740.398 1789 805.21 1790.51 870.107 C 1794.5 984.545 1794.09 1099.09 1789.27 1213.5 C 1786.1 1293.45 1780.79 1370.18 1767.47 1449.26 C 1753.53 1532 1728.89 1602.78 1670.09 1665.31 C 1579.68 1761.44 1452.09 1773.14 1327.62 1782.36 C 1263.1 1787.21 1198.47 1790.36 1133.8 1791.81 C 988.069 1793.14 843.567 1793.65 698.262 1779.69 C 645.907 1774.66 565.797 1766.22 515.855 1749.73 C 470.259 1734.78 428.463 1710.09 393.369 1677.37 C 296.551 1585.96 281.748 1466.45 270.285 1340.5 C 263.986 1268.36 260.105 1196.03 258.65 1123.63 C 255.457 1011.94 257.2 900.152 263.872 788.608 C 269.971 691.303 277.871 581.51 313.484 490.557 C 328.707 452.265 351.125 417.243 379.525 387.385 C 409.875 355.403 446.477 330.003 487.058 312.764 C 546.778 287.534 608.619 280.48 672.31 273.347 C 755.185 264.066 835.583 261.707 918.74 259.456 z" fill="rgb(0,0,0)" transform="translate(0,0)"></path>
<path d="M 792.286 510.409 C 884.889 504.69 945.749 527.299 1024.98 568.916 C 1038.86 564.374 1064.48 550.18 1079.31 543.53 C 1128.15 521.481 1181.15 510.149 1234.73 510.296 C 1335.51 510.341 1432.07 550.818 1502.75 622.656 C 1572.95 692.97 1614.56 786.02 1614.36 885.895 C 1614.02 950.969 1595.82 1014.7 1561.74 1070.14 C 1537.04 1110.98 1509.48 1136.98 1476.18 1170.23 L 1406.8 1239.58 L 1174 1472.27 C 1125.19 1522.12 1074.6 1570.78 1025.98 1620.65 C 992.42 1589.13 955.896 1550.35 922.818 1517.3 L 707.109 1301.68 L 597.342 1192.46 C 560.873 1156.42 520.48 1120.27 492.876 1077.21 C 461.525 1028.29 443.773 972.956 439.414 915.194 C 431.586 816.726 463.404 719.209 527.799 644.305 C 594.373 565.928 689.707 517.665 792.286 510.409 z" fill="rgb(250,46,70)" transform="translate(0,0)"></path>
<path d="M 719.7 1129.93 C 643.962 1049.79 567.573 1005.58 569.986 877.73 C 571.152 815.979 603.844 750.564 648.853 708.823 C 694.754 666.255 759.91 640.384 822.819 642.483 C 863.511 643.841 900.202 655.739 937.262 671.73 C 969.116 685.475 982.786 697.079 1019.42 699.606 C 1063.82 702.668 1085.17 683.615 1123.65 668.176 C 1147.49 658.612 1178.44 648.931 1203.72 645.444 C 1283.46 634.981 1363.32 663.933 1417.83 723.072 C 1461.69 770.298 1483.52 835.298 1481 899.404 C 1476.72 1008.83 1398.35 1058.4 1330.45 1130.34 L 1329.6 1131.38 C 1291.92 1167.26 1254.11 1207.47 1217.2 1244.38 L 1158.71 1302.72 C 1149.73 1311.67 1137.15 1323.45 1128.94 1332.55 C 1128.41 1333.17 1127.89 1333.81 1127.35 1334.41 C 1119.7 1340.38 1106.23 1355.2 1098.75 1362.36 C 1074.45 1385.62 1050.22 1412.85 1025.27 1435.2 C 945.003 1352.69 861.488 1272.77 780.642 1190.81 C 761.033 1170.93 741.312 1150.67 721.048 1131.49 C 720.599 1130.97 720.149 1130.45 719.7 1129.93 z" fill="rgb(250,46,70)" transform="translate(0,0)"></path>
<path d="M 719.7 1129.93 C 643.962 1049.79 567.573 1005.58 569.986 877.73 C 571.152 815.979 603.844 750.564 648.853 708.823 C 694.754 666.255 759.91 640.384 822.819 642.483 C 863.511 643.841 900.202 655.739 937.262 671.73 C 969.116 685.475 982.786 697.079 1019.42 699.606 C 1063.82 702.668 1085.17 683.615 1123.65 668.176 C 1147.49 658.612 1178.44 648.931 1203.72 645.444 C 1283.46 634.981 1363.32 663.933 1417.83 723.072 C 1461.69 770.298 1483.52 835.298 1481 899.404 C 1476.72 1008.83 1398.35 1058.4 1330.45 1130.34 C 1329.37 1122.49 1329.91 1092.9 1329.9 1084.14 L 1329.85 1006.81 C 1329.83 991.225 1330.2 972.221 1329.16 956.972 L 1329.09 923.038 L 1128.28 923.087 C 1127.83 854.926 1128.01 786.763 1128.82 718.606 L 922.663 718.783 C 922.971 784.064 924.566 858.057 922.56 922.959 L 809.097 923.408 C 781.08 923.304 749.342 922.491 721.453 923.624 C 720.878 988.219 719.852 1060.96 721.361 1125.04 C 720.751 1127.54 720.705 1127.66 719.7 1129.93 z" fill="rgb(0,0,0)" transform="translate(0,0)"></path>
<path d="M 726.467 1130.78 L 845.539 1130.9 C 870.23 1130.88 897.849 1131.33 922.44 1130.41 C 922.887 1175.42 923.002 1220.44 922.787 1265.45 C 922.707 1284.78 921.687 1312.97 922.682 1331.59 C 942.776 1333.79 985.513 1333.25 1006.48 1333 C 1045.16 1332.55 1088.65 1333.94 1126.76 1331.86 L 1127.35 1334.41 C 1119.7 1340.38 1106.23 1355.2 1098.75 1362.36 C 1074.45 1385.62 1050.22 1412.85 1025.27 1435.2 C 945.003 1352.69 861.488 1272.77 780.642 1190.81 C 761.033 1170.93 741.312 1150.67 721.048 1131.49 L 726.467 1130.78 z" fill="rgb(0,0,0)" transform="translate(0,0)"></path>
<path d="M 1128.68 1130.67 L 1248.59 1130.79 C 1272.31 1130.8 1298.72 1131.42 1322.16 1130.64 L 1329.6 1131.38 C 1291.92 1167.26 1254.11 1207.47 1217.2 1244.38 L 1158.71 1302.72 C 1149.73 1311.67 1137.15 1323.45 1128.94 1332.55 C 1128.41 1333.17 1127.89 1333.81 1127.35 1334.41 L 1126.76 1331.86 C 1127.08 1330.8 1126.99 1331.02 1127.57 1330.04 C 1129.07 1314.12 1128.17 1278.15 1128.18 1261.01 C 1128.07 1217.56 1128.24 1174.12 1128.68 1130.67 z" fill="rgb(0,0,0)" transform="translate(0,0)"></path>
<path d="M 1127.57 1330.04 L 1128.94 1332.55 C 1128.41 1333.17 1127.89 1333.81 1127.35 1334.41 L 1126.76 1331.86 C 1127.08 1330.8 1126.99 1331.02 1127.57 1330.04 z" fill="rgb(83,15,20)" transform="translate(0,0)"></path>
<path d="M 1329.16 956.972 C 1330.2 972.221 1329.83 991.225 1329.85 1006.81 L 1329.9 1084.14 C 1329.91 1092.9 1329.37 1122.49 1330.45 1130.34 L 1329.6 1131.38 L 1322.16 1130.64 C 1324.37 1130.26 1326.26 1129.84 1328.43 1129.36 C 1329.56 1124 1329 1093.47 1328.98 1086.51 L 1328.83 1004.23 C 1328.81 989.394 1328.28 971.373 1329.16 956.972 z" fill="rgb(161,30,39)" transform="translate(0,0)"></path>
<path d="M 721.361 1125.04 C 721.907 1129.88 721.735 1129.59 726.467 1130.78 L 721.048 1131.49 C 720.599 1130.97 720.149 1130.45 719.7 1129.93 C 720.705 1127.66 720.751 1127.54 721.361 1125.04 z" fill="rgb(83,15,20)" transform="translate(0,0)"></path>
<metadata><recraft-signature>{"signed_by": "recraft", "signature_b64": "1YxJ346qqnyUsjsN7QIv7q+5BBHQbsOssOs+qg5Tl7UmCE7YTuJEUlPCbQWTkY+Bp85Q4eadKD5ivjfDwhmMDA==", "signing_algo": "Ed25519", "generation_timestamp": 1772810523, "identifier": "07163f2a-7c44-4388-b1fc-0aac17e70ccc"}</recraft-signature></metadata></svg>