<svg xmlns="http://www.w3.org/2000/svg" height="1024" preserveAspectRatio="none" style="display: block;" version="1.1" viewBox="0 0 2048 2048" width="1024">
<path d="M 0 0 L 2048 0 L 2048 2048 L 0 2048 L 0 0 z" fill="rgb(255,255,255)" transform="translate(0,0)"></path>
<path d="M 850.139 269.426 C 872.882 268.067 901.923 268.723 925.007 268.71 L 1052.85 268.691 L 1145.6 268.663 C 1168.25 268.643 1192.21 268.214 1214.72 269.874 C 1348.95 279.767 1468.55 332.004 1570.54 418.899 C 1689.59 520.276 1764.11 664.32 1778.08 820.063 C 1780.44 849.621 1780.07 882.1 1780.14 911.919 L 1780.17 1044.44 L 1780.4 1144.45 C 1780.48 1169.35 1780.99 1194.81 1779.19 1219.61 C 1769.5 1353.2 1717.77 1467.31 1631.5 1568.34 C 1522.91 1693.75 1368.75 1770.61 1203.25 1781.87 C 1175.15 1783.36 1146.59 1783.03 1118.41 1783.05 L 995.078 1782.89 L 902.387 1782.46 C 877.842 1782.28 852.779 1782.33 828.329 1780.15 C 695.939 1767.43 571.121 1712.57 472.22 1623.65 C 354.846 1520 283.132 1374.2 272.666 1217.96 C 270.815 1186.45 271.175 1154.53 271.168 1122.95 L 271.251 995.178 L 271.3 900.644 C 271.285 872.155 270.726 842.084 273.592 813.78 C 286.599 685.307 340.299 568.636 425.652 472.77 C 534.427 351.171 687.212 277.982 850.139 269.426 z" fill="rgb(245,19,45)" transform="translate(0,0)"></path>
<path d="M 969.392 1252.85 C 1003.79 1263.32 1046.98 1262.1 1081.63 1253.14 C 1090.02 1306.27 1097.95 1359.47 1105.41 1412.74 C 1111.95 1456.79 1111.95 1493.26 1140.57 1529.89 C 1166.22 1562.16 1203.6 1582.96 1244.55 1587.74 C 1298.07 1594.03 1350.34 1569.88 1380.86 1525.76 C 1402.75 1494.13 1404.5 1463.06 1409.69 1426.34 C 1413.66 1398.57 1417.19 1370.74 1420.29 1342.87 C 1479.47 1373.63 1544.02 1392.74 1610.42 1399.15 C 1604.49 1408.22 1598.73 1420.86 1592.59 1430.87 C 1574.63 1460.06 1553.5 1487.18 1529.59 1511.74 C 1430.62 1614.63 1295.71 1672.64 1153.82 1667.54 C 1133.13 1666.8 1111.34 1667.42 1090.57 1667.82 L 953.062 1667.78 C 853.586 1667.64 793.035 1670.35 697.49 1631.9 C 605.501 1594.01 526.409 1530.37 469.719 1448.62 C 459.481 1433.95 446.657 1415.56 439.746 1399.3 C 455.912 1396.98 472.447 1396.9 488.986 1393.78 C 539.829 1384.17 584.773 1367.39 630.012 1343.13 C 634.268 1372.34 637.011 1402.53 640.858 1431.84 C 643.147 1449.28 644.291 1469.47 649.485 1486.07 C 654.603 1501.92 662.51 1516.73 672.833 1529.8 C 697.392 1562.04 734.049 1582.86 774.32 1587.44 C 814.141 1592.06 854.164 1580.65 885.57 1555.74 C 929.865 1520.68 935.515 1483.56 943.32 1431.52 C 947.316 1404.34 951.12 1377.13 954.731 1349.89 C 959.219 1318.16 965.759 1284.03 969.392 1252.85 z" fill="rgb(255,255,255)" transform="translate(0,0)"></path>
<path d="M 1021.38 1494.71 C 1050.63 1492.54 1076.18 1514.3 1078.69 1543.52 C 1081.19 1572.75 1059.71 1598.54 1030.52 1601.37 C 1011.34 1603.22 992.649 1594.63 981.57 1578.88 C 970.491 1563.12 968.735 1542.62 976.972 1525.2 C 985.21 1507.79 1002.17 1496.15 1021.38 1494.71 z" fill="rgb(245,19,45)" transform="translate(0,0)"></path>
<path d="M 865.746 382.436 C 880.643 381.308 902.503 381.859 917.769 381.878 L 1005.25 381.859 L 1116.29 381.916 C 1186.49 382.064 1226.39 380.963 1295.81 399.174 C 1410.93 429.617 1511.43 500.111 1579.25 597.994 C 1590.49 613.921 1599.21 629.11 1609.01 645.925 C 1536.46 650.442 1485.23 669.356 1420.56 700.499 C 1418.56 680.729 1415.12 660.184 1412.53 640.394 C 1406.77 596.532 1407.11 562.491 1379.98 524.705 C 1357.39 492.608 1322.78 471.013 1284.02 464.836 C 1242.86 458.163 1200.76 468.453 1167.33 493.357 C 1118.19 529.419 1115.66 570.341 1108 624.021 L 1096.34 703.003 C 1092.16 730.909 1088.2 758.849 1084.47 786.818 C 1043.39 776.553 1007.4 777.192 966.396 786.818 L 946.582 645.107 C 943.347 623.071 938.477 584.015 932.281 563.539 C 928.127 549.369 921.499 536.045 912.705 524.183 C 889.187 492.072 855.114 470.144 815.572 464.339 C 774.002 458.259 731.734 469.169 698.299 494.608 C 671.185 514.86 652.221 544.155 644.844 577.184 C 641.94 590.523 640.051 610.828 638.417 624.73 C 635.628 649.985 632.513 675.202 629.071 700.376 C 571.696 670.71 507.674 647.012 442.197 646.925 C 455.656 616.722 486.567 576.763 508.814 551.971 C 604.084 445.8 724.145 390.426 865.746 382.436 z" fill="rgb(255,255,255)" transform="translate(0,0)"></path>
<path d="M 1021.74 446.6 C 1051.38 444.619 1076.99 467.106 1078.86 496.756 C 1080.72 526.407 1058.14 551.928 1028.48 553.681 C 998.986 555.425 973.632 532.988 971.776 503.498 C 969.919 474.009 992.258 448.569 1021.74 446.6 z" fill="rgb(245,19,45)" transform="translate(0,0)"></path>
<path d="M 1254.05 575.245 C 1263.43 574.778 1272.7 577.423 1280.42 582.768 C 1292.04 590.935 1294.36 600.648 1296.2 613.862 C 1304.19 671.306 1310.74 728.933 1321.64 785.919 C 1271.43 845.312 1237.15 922.979 1232.2 1000.87 C 1225.89 1096.21 1258.19 1190.08 1321.84 1261.34 C 1309.97 1323.49 1304.17 1384.15 1294.71 1445.92 C 1290.01 1471.23 1260.15 1482.53 1238.22 1468.76 C 1228.54 1462.81 1221.73 1453.12 1219.42 1441.98 C 1215.45 1422.81 1211.86 1388.79 1209.14 1368.75 L 1192.33 1251.08 L 1175.64 1138.62 C 1168.69 1090.89 1162.65 1043.52 1166.36 995.242 C 1168.84 962.859 1173.37 931.384 1177.82 899.242 L 1203.84 721.144 L 1214.81 642.219 C 1219.01 612.45 1217.51 582.042 1254.05 575.245 z" fill="rgb(255,255,255)" transform="translate(0,0)"></path>
<path d="M 784.954 576.248 C 789.43 575.943 793.847 575.661 798.308 576.363 C 809.091 578.061 818.168 583.894 824.27 592.924 C 834.221 607.649 843.155 696.506 846.502 719.546 L 868.057 868.181 C 874.615 911.391 883.037 962.371 884.907 1005.94 C 887.693 1070.84 872.923 1142.63 863.965 1207.54 L 844.831 1341.11 C 840.374 1372.62 835.972 1404.26 830.891 1435.69 C 828.648 1449.56 825.58 1458.95 813.255 1467.36 C 804.665 1473.22 791.234 1476.06 781.042 1473.37 C 769.23 1470.25 764.902 1465.53 758.957 1455.95 C 754.603 1445.32 749.114 1390.72 747.029 1375.72 C 741.639 1336.97 736.643 1298.5 728.96 1259.91 C 773.356 1210.72 802.824 1149.9 813.918 1084.57 C 827.56 1001.05 811.627 915.384 768.866 842.351 C 757.119 822.078 743.113 803.865 729.554 784.797 C 735.438 747.95 740.886 711.035 745.898 674.059 C 748.875 651.866 751.458 629.601 754.811 607.468 C 757.527 589.546 767.948 580.306 784.954 576.248 z" fill="rgb(255,255,255)" transform="translate(0,0)"></path>
<path d="M 1633.74 756.443 C 1639.09 756.079 1646.25 756.128 1651.75 755.998 C 1666.58 817.871 1666.29 878.29 1665.66 941.377 C 1665.57 949.961 1665.44 958.418 1665.04 966.995 C 1600.93 967.413 1572.53 972.018 1518.78 927.806 C 1486.56 902.024 1459.31 856 1446.86 817.171 C 1501.9 778.249 1566.92 759.604 1633.74 756.443 z" fill="rgb(255,255,255)" transform="translate(0,0)"></path>
<path d="M 400.507 755.378 C 471.289 756.875 546.009 775.552 604.622 816.252 C 591.876 855.379 569.897 890.861 540.543 919.7 C 485.493 970.878 454.092 967.346 385.989 967.102 C 384.262 912.453 382.454 805.093 400.507 755.378 z" fill="rgb(255,255,255)" transform="translate(0,0)"></path>
<path d="M 385.384 1079.13 C 426.099 1078.69 457.037 1076.18 494.262 1095.91 C 544.474 1122.53 587.174 1174.76 604.22 1228.6 C 591.652 1236.02 578.908 1243.13 565.997 1249.92 C 513.943 1275.72 456.62 1289.11 398.524 1289.04 C 381.157 1224.25 384.93 1146.49 385.384 1079.13 z" fill="rgb(255,255,255)" transform="translate(0,0)"></path>
<path d="M 1620.74 1079.42 C 1629.13 1078.22 1655.38 1079.06 1665.07 1079.2 C 1666.47 1157.17 1669.96 1213.37 1652.07 1289.56 C 1610.67 1289.06 1560.71 1278.41 1521.73 1264.57 C 1496.35 1255.72 1470.19 1241.42 1446.71 1228.55 C 1454.14 1205.33 1476.72 1168.11 1492.29 1150.02 C 1530.05 1106.16 1563.41 1084.47 1620.74 1079.42 z" fill="rgb(255,255,255)" transform="translate(0,0)"></path>
<path d="M 681.206 915.61 C 683.735 919.269 687.132 928.054 688.785 932.341 C 714.495 999.025 710.898 1067.83 681.321 1132.56 C 670.423 1116.66 664.763 1105.01 651.957 1088.65 C 634.874 1067.04 607.007 1041.37 584.966 1024.84 C 628.866 993.801 654.593 961.399 681.206 915.61 z" fill="rgb(255,255,255)" transform="translate(0,0)"></path>
<path d="M 1370.28 916.678 C 1373.66 920.306 1388.06 945.226 1393.42 952.348 C 1414.05 979.749 1439.57 1004.08 1466.71 1024.82 C 1438.9 1044.53 1420.44 1061.9 1399.11 1088.42 C 1386.86 1103.4 1379.79 1114.51 1369.21 1130.83 C 1368.57 1129.43 1367.95 1128.01 1367.36 1126.59 C 1336.57 1051.25 1338.99 990.541 1370.28 916.678 z" fill="rgb(255,255,255)" transform="translate(0,0)"></path>
<path d="M 1009.53 891.361 C 1025.04 888.844 1049.96 892.281 1065.1 895.55 C 1061.84 913.911 1058.18 948.314 1056.69 967.096 L 1044.84 967.095 C 1027.41 967.349 1009.98 967.432 992.547 967.343 C 989.767 943.637 988.186 919.397 985.625 895.532 C 993.975 894.048 1001.05 892.528 1009.53 891.361 z" fill="rgb(255,255,255)" transform="translate(0,0)"></path>
<path d="M 995.203 1079.04 C 1015.86 1078.86 1036.51 1078.85 1057.16 1079.02 C 1060.2 1100.51 1061.01 1122.63 1064.11 1144.25 C 1062.25 1144.67 1060.41 1145.01 1058.52 1145.31 L 1055.8 1145.83 C 1030.38 1151.17 1012.7 1149.12 987.599 1144.76 C 989.097 1124.59 991.58 1098.94 995.203 1079.04 z" fill="rgb(255,255,255)" transform="translate(0,0)"></path>
<metadata><recraft-signature>{"signed_by": "recraft", "signature_b64": "5SZSJGUUoUpteXT9oM846avqfErXJtzGf97c94hM5fXKJulte7ZIcYCPJ9v3TRp8GOJgUJRByRmdFwiC4xZaAg==", "signing_algo": "Ed25519", "generation_timestamp": 1772810572, "identifier": "96f1b63f-ffdd-4540-9625-0c6867072f3f"}</recraft-signature></metadata></svg>