<svg xmlns="http://www.w3.org/2000/svg" height="1024" preserveAspectRatio="none" style="display: block;" version="1.1" viewBox="0 0 2048 2048" width="1024">
<path d="M 0 0 L 2048 0 L 2048 2048 L 0 2048 L 0 0 z" fill="rgb(255,255,255)" transform="translate(0,0)"></path>
<path d="M 811.578 267.066 C 834.937 264.946 879.07 266.183 903.997 266.13 L 1087.71 266.104 L 1187.95 266.224 C 1198.57 266.242 1228.62 265.631 1237.49 267.08 C 1250 266.601 1262.52 266.298 1275.04 266.171 C 1410.05 266.409 1539.46 320.167 1634.9 415.66 C 1649.05 429.725 1662.65 446.508 1675.07 462.126 C 1745.88 551.153 1781.12 658.717 1783.3 772.199 C 1783.6 785.306 1783.22 797.53 1782.81 810.636 L 1783.45 1124.13 L 1783.51 1241.12 C 1783.47 1264.41 1784.06 1293.24 1782.21 1316.12 C 1772.65 1436.09 1720.82 1548.77 1635.95 1634.1 C 1567.36 1701.8 1488.88 1747.67 1395.14 1770.86 C 1369.77 1777.14 1337.62 1782.97 1311.38 1782.89 C 1310.56 1782.89 1309.73 1782.88 1308.91 1782.86 C 1291.24 1784.97 1260.7 1784.06 1241.76 1784.06 L 1125.36 1784.05 C 1009.1 1784.05 889.81 1785.65 773.885 1783.88 L 765.745 1783.76 C 680.12 1785.52 582.448 1754.48 510.307 1709.66 C 366.738 1620.47 279.525 1472.64 269.633 1304.85 C 268.936 1297.89 269.108 1288.2 269.03 1281 C 268.963 1271.38 269.009 1261.76 269.168 1252.13 C 268.354 1227.11 268.683 1199.26 268.512 1174.03 L 268.614 956.008 L 268.567 819.464 C 268.575 792.233 267.882 760.774 269.785 734.003 C 278.957 604.973 343.814 475.56 442.349 391.368 C 522.013 322.131 621.164 279.266 726.177 268.664 C 746.438 266.642 777.786 265.163 798.081 266.749 L 811.578 267.066 z" fill="rgb(237,37,61)" transform="translate(0,0)"></path>
<path d="M 773.885 1783.88 C 773.309 1712.87 773.32 1641.86 773.916 1570.85 C 774.02 1536.96 771.891 1469.36 778.619 1439.32 C 785.197 1409.83 799.406 1382.6 819.821 1360.33 C 851.073 1325.72 896.925 1302.04 943.88 1301.28 C 978.664 1300.71 1013.78 1301.03 1048.59 1301.02 L 1253.75 1301.07 L 1372.25 1301.15 C 1394.29 1301.13 1418.05 1300.36 1439.85 1302.26 C 1450.64 1303.19 1460.79 1308.53 1468.66 1316.03 C 1479.13 1325.92 1485.2 1339.59 1485.52 1353.99 C 1485.99 1377.84 1469.52 1405.26 1444.77 1407.55 C 1417.71 1410.05 1387.93 1408.97 1360.66 1408.96 L 1187.66 1408.98 C 1187.59 1415.05 1187.73 1421.38 1187.77 1427.47 C 1208.15 1428.37 1231.96 1427.91 1252.62 1427.95 L 1367.33 1428.02 C 1403.26 1427.94 1450.66 1417.36 1468.24 1460.29 C 1478.96 1486.48 1464.52 1528.49 1434.87 1533.01 C 1410.76 1536.69 1377.22 1534.82 1351.62 1534.76 L 1188.57 1534.61 C 1188.35 1539.27 1188.45 1544.51 1188.43 1549.22 C 1232.05 1550.34 1277.65 1548.67 1321.49 1549.54 C 1340.25 1550.16 1359.78 1547.74 1378.35 1550.53 C 1404.02 1554.38 1419.52 1579.05 1419.9 1603.51 C 1420.02 1618.12 1414.24 1632.16 1403.88 1642.46 C 1397.73 1648.59 1388.56 1654.12 1380.03 1655.34 C 1359.75 1658.22 1334.38 1657.05 1313.67 1657.02 L 1187.91 1656.78 L 1187.97 1675.15 L 1259.55 1675.09 C 1271.22 1675.06 1291.48 1674.44 1302.58 1675.93 C 1308.79 1676.72 1314.83 1678.51 1320.47 1681.22 C 1363.44 1702.24 1357.86 1767.42 1308.91 1782.86 C 1291.24 1784.97 1260.7 1784.06 1241.76 1784.06 L 1125.36 1784.05 C 1009.1 1784.05 889.81 1785.65 773.885 1783.88 z" fill="rgb(0,0,0)" transform="translate(0,0)"></path>
<path d="M 1291.15 772.798 L 1783.3 772.199 C 1783.6 785.306 1783.22 797.53 1782.81 810.636 C 1770.91 948.723 1704.48 1076.38 1598.22 1165.36 C 1520.7 1229.85 1427.79 1271.02 1327.06 1280.04 C 1300.98 1282.37 1265.98 1281.55 1239.19 1281.51 L 1100.4 1281.09 C 1080.51 1281.05 1056.91 1280.39 1037.28 1281.01 C 1034.76 1280.46 1030.12 1280.75 1031.77 1278.38 C 1083.34 1269.47 1142.08 1240.66 1179.07 1203.6 C 1242.89 1139.66 1267.7 1073.61 1268.66 984.403 L 1416.87 984.313 C 1408.42 971.461 1400.1 958.008 1392.67 944.561 C 1360.61 886.572 1323.07 830.726 1291.15 772.798 z" fill="rgb(0,0,0)" transform="translate(0,0)"></path>
<path d="M 269.168 1252.13 C 272.157 1222.4 274.883 1200.52 281.715 1171.44 C 307.157 1063.14 371.745 959.64 457.016 888.433 C 540.542 818.684 660.253 769.476 770.323 770.985 C 771.469 846.732 770.808 924.296 770.85 1000.18 L 770.663 1280.99 L 437.158 1281.1 C 382.88 1281.09 322.946 1282.38 269.03 1281 C 268.963 1271.38 269.009 1261.76 269.168 1252.13 z" fill="rgb(0,0,0)" transform="translate(0,0)"></path>
<path d="M 269.633 1304.85 C 269.694 1300.93 269.137 1299.84 270.928 1296.8 C 279.462 1295.73 306.773 1301.47 316.199 1303.58 C 398.717 1322.12 476.092 1358.74 542.739 1410.81 C 642.761 1488.32 721.602 1601.28 753.265 1724.19 C 757.671 1741.29 763.016 1762 765.243 1779.47 C 765.425 1780.9 765.592 1782.33 765.745 1783.76 C 680.12 1785.52 582.448 1754.48 510.307 1709.66 C 366.738 1620.47 279.525 1472.64 269.633 1304.85 z" fill="rgb(0,0,0)" transform="translate(0,0)"></path>
<path d="M 773.888 266.654 L 798.081 266.749 L 811.578 267.066 C 826.393 269.683 841.387 270.586 856.258 273.377 C 915.509 284.327 972.742 304.251 1025.98 332.462 C 1005.07 344.564 983.241 357.413 963.84 371.893 C 878.534 435.288 816.934 525.442 788.879 627.956 C 784.26 645.272 776.243 679.136 775.935 696.997 L 774.058 695.119 C 772.741 643.923 773.359 589.82 773.303 538.527 L 773.888 266.654 z" fill="rgb(0,0,0)" transform="translate(0,0)"></path>
<path d="M 1237.49 267.08 C 1250 266.601 1262.52 266.298 1275.04 266.171 L 1277.42 267.372 C 1279.02 274.003 1278.09 292.661 1278.06 300.49 L 1278.1 351.595 C 1278.18 425.799 1280.07 507.972 1277.85 581.506 C 1276.01 597.686 1278.54 682.345 1275.36 687.819 C 1272.99 670.053 1269.58 652.443 1265.13 635.08 C 1239.38 534.217 1173.37 437.457 1090.96 374.572 C 1069.56 358.242 1049.7 346.153 1026.54 332.415 C 1078.52 305.292 1134.09 285.697 1191.59 274.219 C 1206.82 271.11 1222.19 270.058 1237.49 267.08 z" fill="rgb(0,0,0)" transform="translate(0,0)"></path>
<path d="M 1275.36 687.819 C 1278.54 682.345 1276.01 597.686 1277.85 581.506 C 1278.7 618.159 1275.94 664.32 1278.21 699.63 L 1276.75 700.051 C 1276.14 696.087 1275.78 691.83 1275.36 687.819 z" fill="rgb(92,9,16)" transform="translate(0,0)"></path>
<path d="M 1024.26 1278.96 C 1027.35 1278.9 1028.87 1278.55 1031.77 1278.38 C 1030.12 1280.75 1034.76 1280.46 1037.28 1281.01 C 1031.47 1281.08 1026.89 1280.8 1021.06 1281.39 C 1022.14 1280.58 1023.21 1279.8 1024.26 1278.96 z" fill="rgb(92,9,16)" transform="translate(0,0)"></path>
<path d="M 1278.21 699.63 C 1280.29 709.012 1277.09 717.148 1276.75 700.051 L 1278.21 699.63 z" fill="rgb(175,19,37)" transform="translate(0,0)"></path>
<path d="M 776.087 700.014 C 776.075 700.805 776.433 707.755 774.723 707.588 C 773.649 706.815 773.986 702.745 773.976 701.749 L 776.087 700.014 z" fill="rgb(175,19,37)" transform="translate(0,0)"></path>
<path d="M 1021.06 1281.39 C 1020.2 1281.3 1017.97 1281.38 1017.33 1280.59 C 1017.84 1279.26 1023.11 1279.07 1024.26 1278.96 C 1023.21 1279.8 1022.14 1280.58 1021.06 1281.39 z" fill="rgb(175,19,37)" transform="translate(0,0)"></path>
<path d="M 774.058 695.119 L 775.935 696.997 L 776.087 700.014 L 773.976 701.749 C 774.031 699.54 774.058 697.329 774.058 695.119 z" fill="rgb(92,9,16)" transform="translate(0,0)"></path>
<path d="M 1363.47 655.685 C 1384.34 650.863 1405.15 663.947 1409.86 684.849 C 1414.56 705.75 1401.36 726.488 1380.43 731.072 C 1359.67 735.619 1339.13 722.546 1334.47 701.811 C 1329.8 681.077 1342.76 660.467 1363.47 655.685 z" fill="rgb(0,0,0)" transform="translate(0,0)"></path>
<metadata><recraft-signature>{"signed_by": "recraft", "signature_b64": "1hp/3RkpR7JMVib5unSWF8xjwik86MX9Z4d2ubvEA7ZIxKljtZWwUWJch7QekZm7B7cLqX7wlj+uByAnNCAyCg==", "signing_algo": "Ed25519", "generation_timestamp": 1772810548, "identifier": "5a32aa44-aa35-40c8-973e-162a9d7e9fdd"}</recraft-signature></metadata></svg>