<svg xmlns="http://www.w3.org/2000/svg" height="1024" preserveAspectRatio="none" style="display: block;" version="1.1" viewBox="0 0 2048 2048" width="1024">
<path d="M 0 0 L 2048 0 L 2048 2048 L 0 2048 L 0 0 z" fill="rgb(255,255,255)" transform="translate(0,0)"></path>
<path d="M 418.801 417.302 C 422.241 412.887 428.84 407.296 432.935 403.295 C 503.638 334.217 606.987 285.1 705.78 276.494 C 755.523 272.161 824.444 273.398 876.189 273.503 L 998.673 273.647 C 1021.58 273.522 1045.49 272.328 1068.32 273.223 L 1228.42 273.802 C 1251.96 273.832 1275.82 273.658 1299.13 273.961 C 1413.21 275.441 1526.47 318.241 1611.19 395.018 C 1619.36 402.431 1627.49 410.234 1635.54 417.879 C 1662.18 446.121 1685.91 473.919 1706.59 506.913 C 1744.82 567.927 1771.93 646.879 1777.78 718.823 C 1780.64 754.037 1780.3 805.224 1779.89 841.377 C 1779.23 900.07 1781.14 961.51 1779.87 1019.89 C 1779.84 1020.98 1779.81 1022.06 1779.76 1023.15 L 1779.73 1205.46 C 1779.73 1241.74 1781.24 1288.27 1778.11 1323.42 C 1767.85 1440.52 1716.27 1550.16 1632.58 1632.71 L 1631.61 1633.68 C 1619.85 1646.34 1597.78 1664.47 1584.07 1675.14 C 1504.37 1738.23 1406.57 1774.16 1304.99 1777.7 C 1255.06 1779.55 1197.94 1778.04 1147.51 1778.15 L 1069.59 1778.37 C 1058.06 1778.39 1039.2 1778.84 1028.01 1778.12 C 1003.74 1777.04 970.726 1777.95 945.998 1777.93 L 767.611 1777.76 C 633.204 1776.74 512.489 1728.43 417.705 1632.24 C 412.55 1627.35 407.106 1621.55 402.257 1616.31 C 327.926 1536.14 282.812 1433.25 274.21 1324.26 C 272.529 1302.16 273.04 1279.1 273.049 1256.85 L 273.118 1161.7 L 273.106 1029.18 C 273.051 1004.85 272.298 976.68 273.228 952.743 C 274.177 903.346 272.64 852.552 273.335 803.012 C 273.716 775.867 272.844 749.835 274.875 722.53 C 281.512 631.15 314.878 543.739 370.818 471.178 C 386.317 451.121 401.185 435.602 418.801 417.302 z" fill="rgb(255,255,255)" transform="translate(0,0)"></path>
<path d="M 531.757 1517.48 C 598.011 1584.15 682.165 1610.61 774.287 1610.88 L 1028.03 1610.94 L 1028.01 1778.12 C 1003.74 1777.04 970.726 1777.95 945.998 1777.93 L 767.611 1777.76 C 633.204 1776.74 512.489 1728.43 417.705 1632.24 C 455.407 1593.68 493.426 1555.42 531.757 1517.48 z" fill="rgb(0,0,0)" transform="translate(0,0)"></path>
<path d="M 1068.32 273.223 L 1228.42 273.802 C 1251.96 273.832 1275.82 273.658 1299.13 273.961 C 1413.21 275.441 1526.47 318.241 1611.19 395.018 C 1619.36 402.431 1627.49 410.234 1635.54 417.879 C 1604.47 450.591 1570.33 481.626 1539.16 514.418 C 1533.66 520.209 1526.23 527.336 1520.08 532.443 C 1519.87 532.233 1519.67 532.023 1519.46 531.813 C 1467.04 480.531 1398.69 448.681 1325.71 441.534 C 1289.44 438.024 1242.17 439.469 1204.77 439.439 L 1024.76 439.128 L 1024.73 273.837 C 1039.05 273.782 1054.07 273.939 1068.32 273.223 z" fill="rgb(0,0,0)" transform="translate(0,0)"></path>
<path d="M 418.801 417.302 L 490.634 489.393 C 498.726 497.53 527.678 527.183 535.482 531.68 C 492.798 575.793 464.118 622.111 448.397 681.978 C 435.626 730.609 438.11 780.59 438.144 830.394 L 438.254 958.977 C 438.272 981.288 438.805 1005.95 438.159 1028 L 273.718 1027.95 C 273.87 1004.15 274.272 976.32 273.228 952.743 C 274.177 903.346 272.64 852.552 273.335 803.012 C 273.716 775.867 272.844 749.835 274.875 722.53 C 281.512 631.15 314.878 543.739 370.818 471.178 C 386.317 451.121 401.185 435.602 418.801 417.302 z" fill="rgb(0,0,0)" transform="translate(0,0)"></path>
<path d="M 1615.68 1023 L 1722.41 1022.95 C 1739.78 1022.93 1762.79 1022.27 1779.76 1023.15 L 1779.73 1205.46 C 1779.73 1241.74 1781.24 1288.27 1778.11 1323.42 C 1767.85 1440.52 1716.27 1550.16 1632.58 1632.71 L 1631.61 1633.68 C 1619.74 1624.43 1602.93 1606.04 1592.13 1595.27 C 1566.77 1569.96 1541.03 1544.42 1517.22 1517.7 C 1518.07 1516.96 1518.89 1516.19 1519.68 1515.39 C 1574.75 1459.85 1608.36 1386.59 1614.52 1308.62 C 1617.2 1276.15 1615.5 1228.38 1615.42 1194.62 L 1615.68 1023 z" fill="rgb(0,0,0)" transform="translate(0,0)"></path>
<path d="M 418.801 417.302 C 422.241 412.887 428.84 407.296 432.935 403.295 C 503.638 334.217 606.987 285.1 705.78 276.494 C 755.523 272.161 824.444 273.398 876.189 273.503 L 998.673 273.647 C 1021.58 273.522 1045.49 272.328 1068.32 273.223 C 1054.07 273.939 1039.05 273.782 1024.73 273.837 L 1024.76 439.128 L 846.478 438.887 C 816.413 438.886 768.15 437.443 739.175 439.828 C 662.756 446.191 590.843 478.618 535.482 531.68 C 527.678 527.183 498.726 497.53 490.634 489.393 L 418.801 417.302 z" fill="rgb(219,182,75)" transform="translate(0,0)"></path>
<path d="M 1517.22 1517.7 C 1541.03 1544.42 1566.77 1569.96 1592.13 1595.27 C 1602.93 1606.04 1619.74 1624.43 1631.61 1633.68 C 1619.85 1646.34 1597.78 1664.47 1584.07 1675.14 C 1504.37 1738.23 1406.57 1774.16 1304.99 1777.7 C 1255.06 1779.55 1197.94 1778.04 1147.51 1778.15 L 1069.59 1778.37 C 1058.06 1778.39 1039.2 1778.84 1028.01 1778.12 L 1028.03 1610.94 L 1209.01 1610.79 C 1240.93 1610.83 1282.58 1612.07 1313.83 1609.65 C 1373.99 1604.7 1431.66 1583.5 1480.71 1548.31 C 1493.47 1539.06 1505.5 1528.26 1517.22 1517.7 z" fill="rgb(219,182,75)" transform="translate(0,0)"></path>
<path d="M 1635.54 417.879 C 1662.18 446.121 1685.91 473.919 1706.59 506.913 C 1744.82 567.927 1771.93 646.879 1777.78 718.823 C 1780.64 754.037 1780.3 805.224 1779.89 841.377 C 1779.23 900.07 1781.14 961.51 1779.87 1019.89 C 1779.84 1020.98 1779.81 1022.06 1779.76 1023.15 C 1762.79 1022.27 1739.78 1022.93 1722.41 1022.95 L 1615.68 1023 C 1614.51 1005.79 1615.4 977.887 1615.41 960.136 L 1615.79 822.188 C 1615.86 795.432 1616.54 762.424 1614.17 735.773 C 1609.11 679.045 1587.29 622.52 1555.88 575.263 C 1547.92 563.294 1529.96 543.283 1520.08 532.443 C 1526.23 527.336 1533.66 520.209 1539.16 514.418 C 1570.33 481.626 1604.47 450.591 1635.54 417.879 z" fill="rgb(219,182,75)" transform="translate(0,0)"></path>
<path d="M 273.228 952.743 C 274.272 976.32 273.87 1004.15 273.718 1027.95 L 438.159 1028 C 437.604 1088.18 437.484 1148.35 437.799 1208.52 C 437.869 1265.82 433.934 1322.14 449.757 1377.88 C 465.947 1434.92 492.294 1474.67 531.757 1517.48 C 493.426 1555.42 455.407 1593.68 417.705 1632.24 C 412.55 1627.35 407.106 1621.55 402.257 1616.31 C 327.926 1536.14 282.812 1433.25 274.21 1324.26 C 272.529 1302.16 273.04 1279.1 273.049 1256.85 L 273.118 1161.7 L 273.106 1029.18 C 273.051 1004.85 272.298 976.68 273.228 952.743 z" fill="rgb(219,182,75)" transform="translate(0,0)"></path>
<path d="M 740.066 656.146 C 826.999 653.711 913.124 610.265 972.365 547.517 C 992.928 525.998 1011.17 502.373 1026.78 477.034 C 1032.94 486.568 1039.03 496.274 1045.61 505.516 C 1109.75 595.531 1203.3 649.478 1313.61 655.519 C 1367.53 656.16 1412.79 646.373 1462.81 626.234 C 1462.21 669.439 1462.2 712.651 1462.79 755.856 L 1462.86 868.578 C 1462.95 927.081 1463.97 976.503 1448.81 1033.83 C 1442.3 1058.44 1433.79 1076.02 1425.89 1099.28 C 1384.47 1076.28 1343.42 1052.61 1302.76 1028.29 C 1306.78 1008.74 1310.94 988.096 1312.3 968.126 C 1313.91 944.693 1313.3 919.787 1313.21 896.19 C 1313 858.788 1313.03 821.386 1313.29 783.985 C 1286.51 782.853 1265.55 781.613 1239.03 776.67 C 1158.24 761.111 1084.01 721.571 1026.02 663.206 C 954.118 738.222 845.199 781.77 741.827 783.929 L 739.922 783.961 C 739.254 744.153 739.156 695.796 740.066 656.146 z" fill="rgb(0,0,0)" transform="translate(0,0)"></path>
<path d="M 1313.61 655.519 C 1367.53 656.16 1412.79 646.373 1462.81 626.234 C 1462.21 669.439 1462.2 712.651 1462.79 755.856 C 1460.34 754.385 1441.71 763.2 1437.19 764.722 C 1394.9 778.964 1357.63 782.972 1313.6 783.088 C 1314.46 742.045 1314.26 696.608 1313.61 655.519 z" fill="rgb(219,182,75)" transform="translate(0,0)"></path>
<path d="M 591.072 626.398 C 648.415 648.227 678.048 655.23 740.066 656.146 C 739.156 695.796 739.254 744.153 739.922 783.961 L 739.868 934.505 C 739.836 952.561 738.566 1002.35 741.553 1017.71 C 739.466 1029.46 740.023 1048.09 740.085 1060.52 L 740.29 1119.91 L 740.426 1216.59 C 740.45 1232.6 739.892 1252.36 740.727 1267.85 C 734.079 1262.55 726.054 1254.79 719.963 1248.71 C 646.293 1174.53 601.359 1076.59 593.168 972.357 C 589.669 932.324 591.071 879.205 591.078 838.115 L 591.072 626.398 z" fill="rgb(219,182,75)" transform="translate(0,0)"></path>
<path d="M 740.727 1267.85 C 739.892 1252.36 740.45 1232.6 740.426 1216.59 L 740.29 1119.91 L 740.085 1060.52 C 740.023 1048.09 739.466 1029.46 741.553 1017.71 C 763.824 1102.29 812.715 1162.83 887.562 1207.88 C 921.998 1228.61 981.849 1249.72 1021.95 1248.08 C 1023.43 1248.45 1026.84 1248.94 1026.86 1249.89 C 1027.46 1282.77 1027.99 1345.23 1027.27 1375.93 C 921.596 1377.04 819.349 1338.47 740.727 1267.85 z" fill="rgb(0,0,0)" transform="translate(0,0)"></path>
<path d="M 1174.12 999.93 C 1190.22 1007.45 1215.48 1022.87 1231.91 1032.17 L 1348.01 1098.44 L 1418.35 1138.06 C 1441.03 1151.06 1464.24 1160.7 1474.32 1186.48 C 1480.37 1201.58 1479.94 1218.51 1473.13 1233.29 C 1465.63 1249.65 1453.81 1259.02 1437.29 1265.22 C 1404.5 1273.91 1399.24 1266.24 1374.65 1247.23 C 1357.17 1233.74 1339.77 1220.15 1322.45 1206.46 L 1134.47 1059.59 C 1147.65 1039.14 1160.66 1021.54 1174.12 999.93 z" fill="rgb(0,0,0)" transform="translate(0,0)"></path>
<path d="M 968.59 798.64 C 991.529 815.014 1019.25 831.923 1043.01 847.273 C 1071.12 865.639 1099.11 884.178 1126.98 902.887 L 1063.15 995.744 C 1051.79 1012.38 1032.68 1041.71 1020.03 1056.96 C 1012.38 1052.77 1002.81 1046.57 995.589 1041.61 C 952.072 1011.7 903.167 983.932 861.116 952.323 C 897.567 901.536 933.394 850.304 968.59 798.64 z" fill="rgb(0,0,0)" transform="translate(0,0)"></path>
<path d="M 1221.13 1170.54 C 1238.17 1182.99 1254.74 1197.44 1271.31 1210.62 C 1288.83 1224.56 1306.81 1238.16 1324.04 1252.41 C 1238.07 1334.82 1146.65 1373.95 1027.27 1375.93 C 1027.99 1345.23 1027.46 1282.77 1026.86 1249.89 C 1026.84 1248.94 1023.43 1248.45 1021.95 1248.08 C 1102.66 1248.58 1161.17 1222.83 1221.13 1170.54 z" fill="rgb(219,182,75)" transform="translate(0,0)"></path>
<path d="M 897.61 1407.97 C 980.604 1406.78 1067.24 1408.08 1150.71 1407.84 C 1151.51 1451.81 1150.56 1498.28 1150.23 1542.41 L 897.113 1542.11 C 897.518 1497.54 896.393 1452.5 897.61 1407.97 z" fill="rgb(0,0,0)" transform="translate(0,0)"></path>
<path d="M 815.992 969.225 C 838.35 967.644 875.966 999.157 895.001 1011.8 C 918.237 1027.1 941.392 1042.52 964.464 1058.06 C 980.291 1068.72 1008.06 1083.41 1013 1102.42 C 1015.24 1111.08 1013.91 1120.27 1009.31 1127.94 C 1003.46 1137.54 996.226 1140.55 986.07 1143.03 C 978.821 1143.35 973.495 1142.65 967.326 1138.88 C 935.925 1119.68 902.638 1098.13 872.035 1077.86 C 854.847 1066.48 811.833 1040.32 798.129 1028.14 C 793.06 1023.58 789.434 1017.63 787.699 1011.03 C 785.356 1001.92 786.95 992.253 792.093 984.383 C 798.407 974.668 805.429 971.547 815.992 969.225 z" fill="rgb(0,0,0)" transform="translate(0,0)"></path>
<path d="M 1004.61 718.217 C 1027.72 716.069 1043.08 730.605 1061.14 743.136 L 1111.1 777.748 C 1125.02 787.339 1139.16 796.684 1153.04 806.301 C 1165.79 815.135 1183.3 824.513 1188.49 839.842 C 1191.36 848.307 1190.7 857.573 1186.66 865.547 C 1181.86 874.914 1174.84 879.852 1165.11 883.012 C 1145.61 883.995 1141.27 876.984 1125.56 866.754 L 1075.02 833.654 L 1024.45 800.453 C 1010.82 791.547 985.833 778.179 980.356 762.841 C 977.214 753.824 977.887 743.915 982.221 735.405 C 987.606 724.97 994.242 721.373 1004.61 718.217 z" fill="rgb(0,0,0)" transform="translate(0,0)"></path>
<path d="M 716.609 1494.43 C 760.005 1493.21 813.271 1493.91 856.967 1494.68 L 857.025 1542.05 L 819.5 1542.02 L 678.049 1541.85 C 676.927 1514.06 687.508 1497.09 716.609 1494.43 z" fill="rgb(0,0,0)" transform="translate(0,0)"></path>
<path d="M 1301.2 1494.5 C 1308.1 1494.34 1314.99 1494.26 1321.88 1494.26 C 1356.04 1494.58 1367.75 1509.76 1367.13 1542.21 C 1330.83 1541.54 1292.93 1542.08 1256.5 1542.07 L 1191.43 1542.05 C 1191.78 1526.28 1191.7 1510.52 1191.2 1494.76 L 1301.2 1494.5 z" fill="rgb(0,0,0)" transform="translate(0,0)"></path>
<path d="M 1119.25 964.584 C 1132.58 973.021 1145.35 981.629 1158.83 989.836 C 1149.25 1001.17 1143.01 1012.31 1135.28 1024.88 C 1130.39 1032.82 1124.19 1041.22 1119.85 1049.36 C 1106.3 1040.61 1093.19 1030.95 1079.75 1022.54 C 1085.03 1015.44 1089.47 1007.78 1094.47 1000.47 C 1102.66 988.51 1111.33 976.709 1119.25 964.584 z" fill="rgb(0,0,0)" transform="translate(0,0)"></path>
<metadata><recraft-signature>{"signed_by": "recraft", "signature_b64": "1T4NwMqWdIJYNRwle7vmytYXvbUBPFJFJHAfPm2PLGcDp4fYSqZNbKFFcAZpgj4n8n4cFo9kPstp5Mh0+3/PDw==", "signing_algo": "Ed25519", "generation_timestamp": 1772810641, "identifier": "70f72f8b-fd18-4b95-8524-995bd99c160e"}</recraft-signature></metadata></svg>