<svg xmlns="http://www.w3.org/2000/svg" height="1024" preserveAspectRatio="none" style="display: block;" version="1.1" viewBox="0 0 2048 2048" width="1024">
<path d="M 0 0 L 2048 0 L 2048 2048 L 0 2048 L 0 0 z" fill="rgb(255,255,255)" transform="translate(0,0)"></path>
<path d="M 791.486 1769.11 L 684.422 1769.19 C 601.084 1769.22 547.859 1768.3 470.625 1728.33 C 440.06 1712.56 412.029 1692.3 387.466 1668.23 C 329.535 1611.5 292.868 1536.58 283.613 1456.04 C 281.3 1435.07 281.453 1410.85 281.446 1389.49 L 281.434 848.867 L 281.671 695.008 C 281.833 647.804 279.402 605.272 289.584 558.851 C 303.707 494.11 335.966 434.726 382.589 387.64 C 433.055 337.133 486.165 307.266 555.977 290.33 C 606.502 278.074 660.022 280.979 712.067 280.998 L 861.042 281.024 L 1398.98 281.021 C 1505.26 281.132 1592.5 311.741 1668.48 388.045 C 1714.26 434.402 1746.23 492.583 1760.82 556.076 C 1772.66 608.427 1769.66 664.827 1769.64 718.674 L 1769.7 876.781 L 1769.26 1409.49 C 1769.21 1425.2 1769.03 1439.37 1767.5 1455.02 C 1751.66 1616.97 1615.89 1751.04 1454.31 1766.8 C 1425.59 1769.6 1397.04 1769.1 1368.19 1769.12 L 1259.12 1769.01 L 791.486 1769.11 z" fill="rgb(0,0,0)" transform="translate(0,0)"></path>
<path d="M 710.542 1137.43 C 708.982 1101.11 711 1061.63 710.57 1025.04 C 710.333 1004.89 710.275 981.179 711.357 960.998 C 711.611 956.267 719.547 942.535 723.024 938.404 C 767.574 885.477 856.589 868.355 920.706 859.97 C 928.1 871.762 939.598 893.66 945.833 906.13 C 896.095 913.168 835.916 921.633 793.363 951.544 C 787.774 955.473 781.496 961.879 780.772 968.92 C 780.298 973.54 782.773 979.462 786.066 982.477 C 826.147 1019.18 924.013 1032.13 975.4 1034.65 C 1056.29 1038.62 1143.25 1035.04 1219.47 1008.03 C 1235.09 1002.3 1250.96 994.662 1263.76 984.09 C 1272.93 976.521 1273.3 963.841 1264.07 956.615 C 1221.48 923.283 1136.44 904.794 1083.96 903.921 C 1080.59 903.17 1081.05 903.967 1079.49 902.107 L 1082.53 899.765 C 1105.96 889.295 1129.01 873.998 1151.95 862.237 C 1200.6 867.037 1321.54 900.2 1338.63 959.829 C 1340.75 967.257 1339.59 1003.95 1339.62 1013.88 L 1339.89 1138.11 C 1321.09 1165.4 1289.34 1181.63 1258.98 1192.96 L 1259.12 1769.01 L 791.486 1769.11 C 792.808 1692.75 791.732 1613.92 791.728 1537.4 L 791.646 1191.84 C 761.802 1182.08 727.721 1164.7 710.542 1137.43 z" fill="rgb(223,167,76)" transform="translate(0,0)"></path>
<path d="M 1159.13 1369.03 C 1171.66 1368.51 1184.2 1368.18 1196.75 1368.05 L 1196.69 1454.9 C 1188.55 1463.95 1180.61 1471.9 1172.01 1480.5 C 1149.33 1502.81 1122.12 1528.36 1100.86 1551.46 C 1066.95 1518.41 1033.19 1483.67 999.772 1450.04 L 855.401 1449.93 C 854.675 1423.37 855.057 1395.28 855.062 1368.66 L 870.703 1368.49 C 925.171 1368.14 987.327 1366.98 1041.27 1368.81 C 1060.27 1388.84 1079.8 1408.36 1099.83 1427.35 C 1120.28 1408.13 1139.91 1389.56 1159.13 1369.03 z" fill="rgb(0,0,0)" transform="translate(0,0)"></path>
<path d="M 950.284 1514.67 C 952.041 1515.25 1044.58 1607.24 1052.38 1615.01 L 1196.7 1615.03 L 1196.58 1696.05 L 1043.5 1695.95 C 1032.62 1696.01 1022.8 1695.99 1011.9 1695.46 C 992.933 1676.51 971.568 1655.58 952.254 1637.08 C 932.762 1657.04 912.914 1676.66 892.72 1695.91 L 854.792 1696.17 L 854.476 1609.96 L 950.284 1514.67 z" fill="rgb(0,0,0)" transform="translate(0,0)"></path>
<path d="M 775.681 1043.76 C 872.241 1118.62 1178.83 1120.83 1273.97 1044.53 L 1274.61 1115.67 C 1254.9 1131.55 1199.25 1148 1173.53 1153.82 C 1063.06 1178.79 873.781 1176.3 775.313 1114.79 L 775.681 1043.76 z" fill="rgb(0,0,0)" transform="translate(0,0)"></path>
<path d="M 853.953 1212.83 C 870.863 1218.26 903.704 1223.88 921.504 1226.28 C 1018.75 1239.41 1100.29 1234.14 1195.12 1213.52 C 1195.66 1237.77 1195.14 1264 1195.09 1288.4 L 1195.03 1306.99 L 853.965 1306.88 C 853.794 1275.53 853.79 1244.18 853.953 1212.83 z" fill="rgb(0,0,0)" transform="translate(0,0)"></path>
<path d="M 1066.79 462.846 C 1069.45 463.975 1168.61 649.774 1176.29 666.033 C 1111.7 702.438 1045.02 741.395 979.476 775.954 C 968.762 754.626 957.575 733.54 945.922 712.71 C 926.002 721.801 895.833 739.335 876.466 750.259 L 786.042 800.577 C 687.151 854.802 588.629 909.698 490.484 965.262 C 469.704 977.237 448.152 988.906 427.177 1000.64 C 415.444 978.924 400.48 953.08 389.93 931.221 L 755.255 727.48 L 850.796 674.251 C 868.141 664.638 890.071 653.214 906.533 642.772 C 894.455 619.474 882.169 596.284 869.675 573.207 L 1066.79 462.846 z" fill="rgb(223,167,76)" transform="translate(0,0)"></path>
<path d="M 1242.76 671.829 C 1246.41 674.275 1276.34 731.536 1281.76 740.569 C 1255.17 756.808 1223.7 773.384 1196.24 788.824 L 993.997 902.11 C 990.41 899.472 958.975 839.277 955.826 832.015 C 976.83 819.171 1005.18 804.459 1027.07 792.327 L 1170.01 712.888 C 1194.35 699.278 1218.88 686.251 1242.76 671.829 z" fill="rgb(223,167,76)" transform="translate(0,0)"></path>
<path d="M 1049.26 339.06 C 1052.72 341.267 1083.52 399.826 1087.88 408.383 C 1070.55 419.057 1049.58 429.221 1031.64 439.731 C 959.05 482.249 881.451 521.306 809.435 564.556 L 807.797 564.32 C 802.305 557.647 775.32 504.733 771.735 495.315 C 862.131 441.627 958.884 392.537 1049.26 339.06 z" fill="rgb(223,167,76)" transform="translate(0,0)"></path>
<metadata><recraft-signature>{"signed_by": "recraft", "signature_b64": "knCPli1ok6oabts/VWYUKyEnjHmME10N/50JBwv3+6npogwJfO6wiG5DxzmCMErAvWbG+Q4n5vwKUSfqXKzHCg==", "signing_algo": "Ed25519", "generation_timestamp": 1772810617, "identifier": "54b70fc6-2705-4d24-b507-d4d4baaea6be"}</recraft-signature></metadata></svg>