<svg xmlns="http://www.w3.org/2000/svg" height="1024" preserveAspectRatio="none" style="display: block;" version="1.1" viewBox="0 0 2048 2048" width="1024">
<path d="M 0 0 L 2048 0 L 2048 2048 L 0 2048 L 0 0 z" fill="rgb(255,255,255)" transform="translate(0,0)"></path>
<path d="M 873.902 251.37 C 875.875 250.405 1067.76 248.867 1080.49 249.22 C 1154.19 248.989 1224.56 246.512 1297.75 256.421 C 1304.46 257.799 1333.34 263.349 1338.56 265.606 C 1455.68 290.081 1556.4 351.524 1638.1 437.648 C 1667.54 466.363 1708.05 525.799 1727.21 562.095 C 1737.08 578.804 1745.15 597.962 1752.76 615.834 C 1781.39 683.138 1793.29 750.158 1796.34 823.211 C 1797.96 828.64 1796.73 879.704 1796.71 888.128 C 1795.98 953.331 1796.01 1018.54 1796.78 1083.74 C 1796.98 1137.74 1799.13 1216.72 1794.09 1268.52 C 1789.82 1313.07 1780.41 1356.98 1766.06 1399.38 C 1757.43 1425.72 1744.56 1458.78 1730.98 1482.73 C 1707.17 1526.08 1676.1 1573.19 1639.74 1607.14 C 1612.85 1636.05 1560.18 1682.48 1525.95 1703.2 C 1463.64 1746.07 1373.97 1782.44 1299.04 1793.94 C 1245.72 1803.59 1195.65 1802.78 1142.03 1802.43 L 1023 1801.98 L 897.225 1802.24 C 859.28 1802.28 821.774 1802.87 784.037 1798.35 C 733.599 1792.32 680.516 1781.13 633.101 1762.63 C 526.367 1720.98 434.155 1647.41 367.006 1554.9 C 351.643 1533.74 333.897 1507.52 323.328 1483.75 C 287.923 1417.29 262.452 1334.93 257.222 1259.53 C 254.857 1225.44 256.243 1183.52 256.145 1148.8 C 254.935 1044.36 255.219 935.588 256.075 831.148 C 255.656 819.173 257.287 800.234 258.408 788.214 C 266.332 708.369 289.92 630.869 327.824 560.149 L 328.497 558.785 C 365.646 488.304 417.195 426.417 479.8 377.14 C 497.995 362.716 513.65 351.013 533.746 339.482 C 535.087 338.533 536.45 337.617 537.835 336.734 C 618.052 286.122 726.878 255.072 821.302 251.331 C 830.71 250.958 860.217 250.251 868.214 252.065 C 870.105 251.79 872.001 251.558 873.902 251.37 z" fill="rgb(224,188,87)" transform="translate(0,0)"></path>
<path d="M 1338.56 265.606 C 1455.68 290.081 1556.4 351.524 1638.1 437.648 C 1667.54 466.363 1708.05 525.799 1727.21 562.095 C 1737.08 578.804 1745.15 597.962 1752.76 615.834 C 1781.39 683.138 1793.29 750.158 1796.34 823.211 C 1797.96 828.64 1796.73 879.704 1796.71 888.128 C 1795.98 953.331 1796.01 1018.54 1796.78 1083.74 C 1796.98 1137.74 1799.13 1216.72 1794.09 1268.52 C 1789.82 1313.07 1780.41 1356.98 1766.06 1399.38 C 1757.43 1425.72 1744.56 1458.78 1730.98 1482.73 C 1707.17 1526.08 1676.1 1573.19 1639.74 1607.14 C 1612.85 1636.05 1560.18 1682.48 1525.95 1703.2 C 1507.9 1687 1488.13 1665.49 1471.12 1647.81 C 1450.09 1625.93 1428.81 1604.3 1407.27 1582.92 C 1363.8 1539.19 1321.14 1494.68 1277.63 1451.09 C 1258.57 1435.1 1241.23 1418.43 1222.95 1401.66 C 1142.68 1328 1100.97 1245.2 1100.73 1133.18 C 1165.68 1113.68 1211.86 1083.92 1253.09 1028.98 C 1313.17 948.906 1316.49 837.577 1301.76 741.852 L 1211.76 742.03 L 1211.75 662.386 C 1270.03 660.396 1333.09 662.217 1391.97 661.659 C 1356.8 615.678 1343.66 597.739 1302.18 557.667 C 1337.49 550.435 1368.28 529.682 1391.24 502.374 C 1448.42 434.369 1437.34 330.954 1364.73 278.876 C 1359.54 275.155 1340.43 267.818 1338.56 265.606 z" fill="rgb(0,0,0)" transform="translate(0,0)"></path>
<path d="M 1796.34 823.211 C 1797.96 828.64 1796.73 879.704 1796.71 888.128 C 1795.98 953.331 1796.01 1018.54 1796.78 1083.74 C 1785.35 1070.15 1760.54 1047.3 1746.88 1033.42 L 1615.48 900.072 L 1574.88 859.12 C 1565.84 850.061 1555.67 840.654 1547.51 830.967 C 1606.03 829.342 1667.25 832.057 1725.97 830.91 C 1740.05 830.635 1783.35 831.967 1795.01 830.394 C 1796.98 827.621 1796.26 827.401 1796.34 823.211 z" fill="rgb(224,188,87)" transform="translate(0,0)"></path>
<path d="M 1571.46 1482.3 C 1624.63 1482.81 1677.81 1482.95 1730.98 1482.73 C 1707.17 1526.08 1676.1 1573.19 1639.74 1607.14 C 1638.99 1606.22 1639.35 1606.56 1638.38 1605.82 C 1598.19 1575.26 1573.85 1533.92 1571.46 1482.3 z" fill="rgb(224,188,87)" transform="translate(0,0)"></path>
<path d="M 1638.1 437.648 C 1667.54 466.363 1708.05 525.799 1727.21 562.095 L 1571.16 562.01 C 1575.1 514.852 1595.72 463.079 1638.1 437.648 z" fill="rgb(224,188,87)" transform="translate(0,0)"></path>
<path d="M 1392.26 661.988 C 1424.75 661.969 1463.64 658.135 1490.97 676.514 C 1516.36 693.587 1526.58 713.944 1532.78 742.807 L 1427.27 742.996 C 1436.38 779.029 1437.53 792.673 1437.05 829.545 C 1465.06 828.025 1503.6 829.213 1532.02 829.324 L 1628.88 1031.35 L 1660.58 1096.61 C 1666.42 1108.68 1673.17 1122.06 1677.81 1134.58 C 1679.36 1138.74 1678.77 1149.09 1678.38 1153.7 C 1675.82 1182.69 1667.24 1210.82 1653.17 1236.3 C 1627.5 1283.7 1586.56 1315.18 1535.26 1330.23 C 1486.86 1341.48 1443.61 1339.01 1398.64 1316.31 C 1351.65 1292.71 1316.2 1251.1 1300.36 1200.96 C 1295.44 1185.76 1288.7 1154.91 1291.67 1138.88 C 1292.97 1131.81 1302.92 1111.96 1306.65 1104.17 L 1336.53 1042.78 C 1369.57 973.902 1403.66 898.218 1438.29 830.815 C 1431.53 830.92 1424.87 830.618 1418.11 830.373 C 1413.81 826.51 1409.74 822.576 1405.75 818.389 C 1381.24 792.694 1355.58 768.019 1331.04 742.383 C 1362.06 741.64 1396.1 742.14 1427.19 742.737 C 1418.6 714.757 1407.78 686.818 1392.26 661.988 z" fill="rgb(224,188,87)" transform="translate(0,0)"></path>
<path d="M 1485.63 865.652 C 1488.67 868.864 1506.21 907.799 1509.41 914.361 C 1546.05 989.598 1579.36 1068.55 1617.15 1143.07 C 1573.51 1143.72 1528.26 1143.08 1484.5 1143.02 L 1351.83 1143.02 C 1359.89 1129.12 1372.08 1100.49 1379.78 1084.66 L 1452.95 933.372 C 1462.84 912.951 1474.95 884.814 1485.63 865.652 z" fill="rgb(0,0,0)" transform="translate(0,0)"></path>
<path d="M 533.746 339.482 L 691.603 500.099 C 710.123 519.133 733.92 542.018 751.362 561.221 C 715.183 591.343 686.468 622.349 661.175 662.068 C 718.673 661.94 778.553 662.658 835.914 661.373 L 836.207 742.373 C 765.405 742.963 694.601 743.077 623.798 742.715 C 631.267 717.34 645.493 683.93 660.715 662.028 C 618.544 662.051 575.426 656.578 544.065 689.041 C 528.258 705.404 521.645 720.733 517.513 742.861 L 623.672 742.923 C 614.786 778.166 613.059 793.616 613.117 830.044 L 518.049 829.936 L 429.469 1016.56 C 416.534 1042.52 403.926 1068.65 391.648 1094.94 C 387.532 1103.54 373.203 1132.35 372.099 1139.48 C 369.302 1157.55 377.637 1190.75 383.814 1207.69 C 401.538 1256.3 436.06 1296.52 483.181 1318.48 C 530.303 1340.91 584.554 1343.07 633.308 1324.45 C 710.946 1295.47 754.838 1223.96 758.997 1143.07 C 819.831 1142.94 888.698 1141.27 949.053 1143.26 C 948.169 1162.7 946.831 1181.5 943.298 1200.69 C 929.822 1273.44 893.286 1339.92 839.095 1390.3 C 759.602 1463.08 662.818 1492.23 555.79 1478.99 C 402.644 1460.05 284.095 1333.6 260.582 1183.59 C 258.771 1172.04 257.873 1160.18 256.145 1148.8 C 254.935 1044.36 255.219 935.588 256.075 831.148 C 255.656 819.173 257.287 800.234 258.408 788.214 C 266.332 708.369 289.92 630.869 327.824 560.149 L 328.497 558.785 C 365.646 488.304 417.195 426.417 479.8 377.14 C 497.995 362.716 513.65 351.013 533.746 339.482 z" fill="rgb(0,0,0)" transform="translate(0,0)"></path>
<path d="M 327.824 560.149 C 342.755 560.128 493.046 559.518 495.599 560.919 L 495.736 561.647 C 420.588 579.627 372.278 653.196 391.169 728.956 C 399.93 764.709 422.687 795.444 454.328 814.257 C 465.91 821.217 478.657 826.022 491.951 828.439 C 487.309 831.549 435.136 830.232 426.685 830.212 L 303.399 829.802 C 296.478 829.776 260.971 829.128 257.027 830.64 L 256.075 831.148 C 255.656 819.173 257.287 800.234 258.408 788.214 C 266.332 708.369 289.92 630.869 327.824 560.149 z" fill="rgb(224,188,87)" transform="translate(0,0)"></path>
<path d="M 491.951 828.439 L 506.472 830.344 C 483.362 832.339 442.844 831.054 418.336 831.033 L 257.027 830.64 C 260.971 829.128 296.478 829.776 303.399 829.802 L 426.685 830.212 C 435.136 830.232 487.309 831.549 491.951 828.439 z" fill="rgb(139,117,81)" transform="translate(0,0)"></path>
<path d="M 328.497 558.785 C 343.236 559.735 364.302 559.189 379.544 559.209 C 405.074 559.449 430.606 559.497 456.136 559.352 C 471.023 559.208 488.346 558.552 503.025 559.33 L 503.369 560.053 C 499.709 561.373 499.461 561.286 495.736 561.647 L 495.599 560.919 C 493.046 559.518 342.755 560.128 327.824 560.149 L 328.497 558.785 z" fill="rgb(139,117,81)" transform="translate(0,0)"></path>
<path d="M 323.328 1483.75 C 328.261 1482.39 364.568 1483.19 371.648 1483.22 L 455.506 1483.15 L 651.782 1682.39 C 683.159 1714.19 717.408 1747.65 748.042 1779.79 C 748.254 1686.95 750.42 1587.03 747.994 1494.77 L 1042.34 1792.53 C 1046.05 1774.86 1048.53 1758.11 1054.11 1740.79 C 1088.36 1634.53 1188.64 1560.54 1299 1554 L 1299.04 1793.94 C 1245.72 1803.59 1195.65 1802.78 1142.03 1802.43 L 1023 1801.98 L 897.225 1802.24 C 859.28 1802.28 821.774 1802.87 784.037 1798.35 C 733.599 1792.32 680.516 1781.13 633.101 1762.63 C 526.367 1720.98 434.155 1647.41 367.006 1554.9 C 351.643 1533.74 333.897 1507.52 323.328 1483.75 z" fill="rgb(0,0,0)" transform="translate(0,0)"></path>
<path d="M 873.902 251.37 C 941.405 244.698 1001.71 293.575 1009.16 360.995 C 1016.62 428.416 968.441 489.285 901.111 497.517 C 833.781 505.749 772.359 458.281 763.349 391.05 C 754.338 323.82 801.093 261.853 868.214 252.065 C 870.105 251.79 872.001 251.558 873.902 251.37 z" fill="rgb(0,0,0)" transform="translate(0,0)"></path>
<path d="M 1080.49 249.22 C 1154.19 248.989 1224.56 246.512 1297.75 256.421 C 1298.87 285.25 1297.8 321.51 1297.83 351.055 L 1298.01 542.321 C 1284.67 529.603 1272.21 516.153 1259.21 503.106 L 1150.7 392.519 C 1105.54 346.199 1055.25 297.015 1011.62 249.848 C 1034.29 249.174 1057.86 250.401 1080.49 249.22 z" fill="rgb(0,0,0)" transform="translate(0,0)"></path>
<path d="M 908.538 515.316 C 919.001 513.727 936.106 514.554 947.008 514.611 L 1013.92 515.02 L 1093.31 514.744 C 1107.57 514.691 1131.2 513.919 1144.5 516.227 C 1159.14 518.756 1172.92 524.865 1184.62 534.01 C 1207.14 551.451 1216.32 571.818 1219.77 599.445 C 1198.08 599.992 1175 599.534 1153.22 599.469 L 1153.29 882.897 L 1142.5 882.972 L 894.894 882.919 L 894.413 600.27 C 872.634 599.719 849.354 600.041 827.47 600.006 C 831.593 554.072 863.395 522.258 908.538 515.316 z" fill="rgb(0,0,0)" transform="translate(0,0)"></path>
<path d="M 829.014 943.165 C 957.834 941.854 1089.28 942.823 1218.23 943.142 C 1213.66 969.646 1205.21 988.398 1180.04 1000.84 C 1162.73 1009.4 1146.63 1008.12 1127.97 1008.1 L 1090.65 1008.1 C 1089.65 1027.04 1089.89 1048.2 1089.78 1067.37 L 1089.91 1189.65 L 1089.47 1508.5 L 1089.72 1547.94 C 1089.92 1573.12 1091.32 1595.29 1072.2 1614.88 C 1059.97 1627.47 1043.22 1634.66 1025.66 1634.85 C 993.711 1635.15 964.06 1611.99 960.732 1579.63 C 958.513 1558.05 959.472 1535.31 959.537 1513.52 L 959.777 1396.88 L 959.164 1007.96 C 898.968 1006.42 842.064 1020.54 829.014 943.165 z" fill="rgb(0,0,0)" transform="translate(0,0)"></path>
<path d="M 567.041 866.552 L 625.29 988.429 C 649.345 1039.25 674.135 1093.12 698.942 1143.26 C 655.892 1144.15 608.887 1143.11 565.5 1143.03 L 432.615 1143.14 C 456.842 1091.35 483.101 1039.41 507.949 987.851 C 527.431 947.43 546.292 906.28 567.041 866.552 z" fill="rgb(0,0,0)" transform="translate(0,0)"></path>
<path d="M 617.66 830.494 C 660.323 829.824 707.653 829.714 750.257 830.596 C 750.978 906.569 751.082 1035.43 749.957 1116.04 C 749.564 1116.53 749.171 1117.03 748.778 1117.52 C 742.56 1105.95 735.906 1090.64 730.238 1078.56 L 695.792 1005.2 C 680.226 972.305 663.494 939.085 648.762 905.849 C 644.225 895.613 614.727 836.142 615.698 830.918 L 617.66 830.494 z" fill="rgb(0,0,0)" transform="translate(0,0)"></path>
<metadata><recraft-signature>{"signed_by": "recraft", "signature_b64": "iOpCEw6b1HeUUzSAiBCBY94yjO2BGCGU4m+/q+5+BieXv9pkRWN8jVQ23KgZRIJol3DISqEzEe/LQI/hiM80Bg==", "signing_algo": "Ed25519", "generation_timestamp": 1772810594, "identifier": "6e11834c-665d-4b37-ac31-c5a9bbe724dc"}</recraft-signature></metadata></svg>