<svg xmlns="http://www.w3.org/2000/svg" height="1024" preserveAspectRatio="none" style="display: block;" version="1.1" viewBox="0 0 2048 2048" width="1024">
<path d="M 0 0 L 2048 0 L 2048 2048 L 0 2048 L 0 0 z" fill="rgb(248,247,248)" transform="translate(0,0)"></path>
<path d="M 406.142 407.448 C 468.435 344.408 549.048 299.905 636.149 281.791 C 662.756 276.258 690.51 274.729 717.58 273.012 C 758.924 273.046 804.407 272.227 845.445 273.24 L 977.865 272.987 L 977.835 274.972 C 962.7 275.003 946.491 278.278 931.544 279.168 C 860.694 289.411 806.739 303.318 740.362 330.091 L 764.421 391.348 C 767.325 398.788 773.715 416.595 776.976 423.043 L 778.211 423.323 C 778.534 427.775 790.495 457.383 793.269 464.576 L 847.477 602.137 C 869.12 595.343 918.778 576.057 939.328 575.752 C 960.499 570.735 992.194 568.2 1013.87 567.866 C 1017.52 567.994 1022.07 567.63 1025.02 569.156 L 1025.91 569.3 C 1048.01 572.703 1073.23 572.255 1099.07 576.487 C 1175.77 589.096 1247.97 621.134 1308.79 669.551 C 1324.13 681.889 1340.08 697.5 1354.38 711.211 C 1363.28 712.402 1387.24 749.378 1394.55 755.118 C 1393.5 752.866 1393.11 751.492 1392.59 749.054 C 1406.72 766.504 1429.59 802.758 1438.49 823.101 C 1441.72 828.915 1446.31 838.945 1449.25 843.642 C 1465.64 834.355 1485.96 827.761 1503.43 820.252 C 1541.07 804.071 1583.53 789.238 1620.3 771.859 L 1623.28 772.659 C 1654.63 860.04 1672.45 929.152 1671.72 1024.02 L 1776.61 1023.91 C 1775.2 1106.97 1765.39 1178.71 1738.03 1257.65 C 1732.34 1274.08 1724.97 1297.46 1717.71 1312.88 C 1737.43 1323.04 1756.65 1330.98 1777.16 1339.52 C 1775.11 1432.6 1739.86 1527.18 1681.74 1599.5 C 1670.99 1612.86 1659.46 1625.19 1647.63 1637.59 C 1565.05 1721.92 1455.87 1775.69 1336.78 1777.94 C 1334 1767.7 1317.86 1726.31 1313.28 1717.75 C 1400.02 1683.59 1493.76 1619.54 1557.42 1551.35 C 1532.16 1528.65 1507.2 1505.63 1482.52 1482.29 C 1454.62 1506.69 1437.11 1524.44 1406.65 1546.56 C 1290.21 1631.11 1167.45 1667.83 1024.94 1668.24 L 1024.95 1776.9 C 940.5 1776.14 868.001 1766.49 787.702 1738.9 C 773.156 1733.91 749.727 1725.98 735.968 1719.28 C 729.444 1737.18 719.134 1759.47 711.398 1777.25 C 603.769 1776.75 487.241 1723.66 411.598 1648.4 C 323.581 1560.82 276.746 1460.65 275.004 1336.68 L 275.144 1146.02 C 276.119 1135.76 274.851 1104.16 276.868 1098 L 279.639 1096.83 C 289.047 1181.95 303.088 1231.96 332.346 1310.72 C 362.742 1297.36 396.7 1284.26 427.629 1271.51 C 394.909 1185.9 379.613 1115.11 378.159 1023.97 L 274.95 1023.88 C 273.183 925.199 293.006 827.322 333.029 737.102 L 332.329 733.943 L 273.118 707.019 C 276.097 678.387 276.615 660.271 282.705 630.747 C 299.354 550.029 345.83 463.895 406.142 407.448 z" fill="rgb(0,0,0)" transform="translate(0,0)"></path>
<path d="M 406.142 407.448 C 468.435 344.408 549.048 299.905 636.149 281.791 C 662.756 276.258 690.51 274.729 717.58 273.012 C 758.924 273.046 804.407 272.227 845.445 273.24 L 977.865 272.987 L 977.835 274.972 C 962.7 275.003 946.491 278.278 931.544 279.168 C 860.694 289.411 806.739 303.318 740.362 330.091 L 764.421 391.348 C 767.325 398.788 773.715 416.595 776.976 423.043 L 778.211 423.323 C 778.534 427.775 790.495 457.383 793.269 464.576 L 847.477 602.137 C 869.12 595.343 918.778 576.057 939.328 575.752 C 928.279 579.226 916.384 582.151 905.143 585.28 C 786.873 618.207 680.878 702.114 624.032 811.247 C 595.248 866.56 576.938 926.716 570.025 988.685 C 569.074 997.512 567.237 1014.71 568.549 1022.88 L 569.252 1023.82 L 569.411 1024.74 C 570.816 1033.29 571.367 1047.73 572.062 1057.02 C 573.172 1071.71 574.931 1086.34 577.335 1100.88 C 592.622 1194.34 637.766 1280.34 706.011 1346 L 702.441 1350.06 C 709.436 1356.5 716.646 1362.42 723.946 1368.49 C 770.437 1407.07 809.91 1431.36 866.808 1453.48 C 869.466 1454.18 872.074 1455.09 874.626 1456.1 C 883.085 1458.42 898.938 1464.66 906.487 1465.94 C 939.905 1478.19 989.729 1481.84 1025.08 1484.11 C 1024.97 1545.15 1025.69 1607.39 1024.94 1668.24 L 1024.95 1776.9 C 940.5 1776.14 868.001 1766.49 787.702 1738.9 C 773.156 1733.91 749.727 1725.98 735.968 1719.28 C 729.444 1737.18 719.134 1759.47 711.398 1777.25 C 603.769 1776.75 487.241 1723.66 411.598 1648.4 C 323.581 1560.82 276.746 1460.65 275.004 1336.68 L 275.144 1146.02 C 276.119 1135.76 274.851 1104.16 276.868 1098 L 279.639 1096.83 C 289.047 1181.95 303.088 1231.96 332.346 1310.72 C 362.742 1297.36 396.7 1284.26 427.629 1271.51 C 394.909 1185.9 379.613 1115.11 378.159 1023.97 L 274.95 1023.88 C 273.183 925.199 293.006 827.322 333.029 737.102 L 332.329 733.943 L 273.118 707.019 C 276.097 678.387 276.615 660.271 282.705 630.747 C 299.354 550.029 345.83 463.895 406.142 407.448 z" fill="rgb(252,101,88)" transform="translate(0,0)"></path>
<path d="M 378.159 1023.97 C 437.46 1023.51 503.933 1022.34 562.949 1023.65 C 563.328 1084.98 575.603 1145.66 599.095 1202.33 L 477.745 1251.33 C 465.96 1256.1 438.787 1268.44 427.896 1271.83 C 437.579 1290.95 446.492 1311.5 456.685 1330.1 C 483.511 1379.04 529.664 1443.04 571.561 1480.25 C 576.2 1473.53 618.9 1431.98 626.995 1424.55 C 652.558 1401.09 677.539 1373.11 702.441 1350.06 C 709.436 1356.5 716.646 1362.42 723.946 1368.49 C 770.437 1407.07 809.91 1431.36 866.808 1453.48 C 869.466 1454.18 872.074 1455.09 874.626 1456.1 C 883.085 1458.42 898.938 1464.66 906.487 1465.94 C 939.905 1478.19 989.729 1481.84 1025.08 1484.11 C 1024.97 1545.15 1025.69 1607.39 1024.94 1668.24 L 1024.95 1776.9 C 940.5 1776.14 868.001 1766.49 787.702 1738.9 C 773.156 1733.91 749.727 1725.98 735.968 1719.28 C 729.444 1737.18 719.134 1759.47 711.398 1777.25 C 603.769 1776.75 487.241 1723.66 411.598 1648.4 C 323.581 1560.82 276.746 1460.65 275.004 1336.68 L 275.144 1146.02 C 276.119 1135.76 274.851 1104.16 276.868 1098 L 279.639 1096.83 C 289.047 1181.95 303.088 1231.96 332.346 1310.72 C 362.742 1297.36 396.7 1284.26 427.629 1271.51 C 394.909 1185.9 379.613 1115.11 378.159 1023.97 z" fill="rgb(0,0,0)" transform="translate(0,0)"></path>
<path d="M 702.441 1350.06 C 709.436 1356.5 716.646 1362.42 723.946 1368.49 C 770.437 1407.07 809.91 1431.36 866.808 1453.48 C 869.466 1454.18 872.074 1455.09 874.626 1456.1 C 883.085 1458.42 898.938 1464.66 906.487 1465.94 C 939.905 1478.19 989.729 1481.84 1025.08 1484.11 C 1024.97 1545.15 1025.69 1607.39 1024.94 1668.24 C 851.343 1668.61 695.462 1600.22 571.561 1480.25 C 576.2 1473.53 618.9 1431.98 626.995 1424.55 C 652.558 1401.09 677.539 1373.11 702.441 1350.06 z" fill="rgb(248,247,248)" transform="translate(0,0)"></path>
<path d="M 275.004 1336.68 C 292.49 1327.82 313.748 1319.39 332.027 1311.83 C 338.541 1328.71 348.738 1348.41 356.957 1364.78 C 417.119 1485.76 509.287 1587.94 623.444 1660.21 C 647.211 1675.07 671.765 1688.64 696.998 1700.85 C 707.422 1705.97 727.11 1714.27 735.968 1719.28 C 729.444 1737.18 719.134 1759.47 711.398 1777.25 C 603.769 1776.75 487.241 1723.66 411.598 1648.4 C 323.581 1560.82 276.746 1460.65 275.004 1336.68 z" fill="rgb(252,101,88)" transform="translate(0,0)"></path>
<path d="M 406.142 407.448 C 468.435 344.408 549.048 299.905 636.149 281.791 C 662.756 276.258 690.51 274.729 717.58 273.012 C 758.924 273.046 804.407 272.227 845.445 273.24 L 977.865 272.987 L 977.835 274.972 C 962.7 275.003 946.491 278.278 931.544 279.168 C 860.694 289.411 806.739 303.318 740.362 330.091 L 764.421 391.348 C 767.325 398.788 773.715 416.595 776.976 423.043 C 771.783 426.832 751.943 435.787 744.904 439.416 C 726.342 449.001 708.135 459.258 690.319 470.168 C 660.433 488.865 631.982 509.762 605.201 532.686 C 593.036 543.126 580.298 555.839 568.401 565.725 C 521.652 615.596 488.847 656.705 456.252 718.085 C 449.812 730.437 443.778 742.996 438.159 755.742 C 435.671 761.322 431.428 771.882 428.66 776.897 C 413.308 768.441 394.6 760.506 378.431 753.369 C 365.019 747.449 349.001 739.972 335.453 735.117 L 334.761 732.818 L 332.329 733.943 L 273.118 707.019 C 276.097 678.387 276.615 660.271 282.705 630.747 C 299.354 550.029 345.83 463.895 406.142 407.448 z" fill="rgb(0,0,0)" transform="translate(0,0)"></path>
<path d="M 406.142 407.448 C 468.435 344.408 549.048 299.905 636.149 281.791 C 662.756 276.258 690.51 274.729 717.58 273.012 C 724.741 291.416 733.522 311.572 740.157 329.597 C 665.233 356.009 549.511 435.306 495.339 493.274 L 437.288 437.344 C 427.231 427.705 415.62 417.374 406.142 407.448 z" fill="rgb(252,101,88)" transform="translate(0,0)"></path>
<path d="M 496.01 494.648 C 520.785 517.675 544.925 541.376 568.401 565.725 C 521.652 615.596 488.847 656.705 456.252 718.085 C 449.812 730.437 443.778 742.996 438.159 755.742 C 435.671 761.322 431.428 771.882 428.66 776.897 C 413.308 768.441 394.6 760.506 378.431 753.369 C 365.019 747.449 349.001 739.972 335.453 735.117 L 334.761 732.818 C 335.784 728.081 346.231 706.868 348.901 701.166 C 385.629 624.34 435.403 554.465 496.01 494.648 z" fill="rgb(248,247,248)" transform="translate(0,0)"></path>
<path d="M 845.445 273.24 L 977.865 272.987 L 977.835 274.972 C 962.7 275.003 946.491 278.278 931.544 279.168 C 931.439 276.169 931.7 277.635 930.007 274.845 C 923.218 273.328 916.073 274.375 909.621 274.031 C 894.458 273.221 858.482 275.923 845.445 273.24 z" fill="rgb(71,16,11)" transform="translate(0,0)"></path>
<path d="M 334.761 732.818 L 335.453 735.117 C 349.001 739.972 365.019 747.449 378.431 753.369 C 394.6 760.506 413.308 768.441 428.66 776.897 C 398.293 854.861 375.683 939.613 378.159 1023.97 L 274.95 1023.88 C 273.183 925.199 293.006 827.322 333.029 737.102 L 332.329 733.943 L 334.761 732.818 z" fill="rgb(0,0,0)" transform="translate(0,0)"></path>
<path d="M 334.761 732.818 L 335.453 735.117 C 334.645 735.779 333.837 736.44 333.029 737.102 L 332.329 733.943 L 334.761 732.818 z" fill="rgb(83,61,61)" transform="translate(0,0)"></path>
<path d="M 1434.62 826.068 C 1434.79 818.01 1409.72 775.534 1402.92 768.282 C 1415.32 777.665 1431.84 819.999 1438.49 823.101 C 1441.72 828.915 1446.31 838.945 1449.25 843.642 C 1465.64 834.355 1485.96 827.761 1503.43 820.252 C 1541.07 804.071 1583.53 789.238 1620.3 771.859 L 1623.28 772.659 C 1654.63 860.04 1672.45 929.152 1671.72 1024.02 L 1776.61 1023.91 C 1775.2 1106.97 1765.39 1178.71 1738.03 1257.65 C 1732.34 1274.08 1724.97 1297.46 1717.71 1312.88 C 1737.43 1323.04 1756.65 1330.98 1777.16 1339.52 C 1775.11 1432.6 1739.86 1527.18 1681.74 1599.5 C 1670.99 1612.86 1659.46 1625.19 1647.63 1637.59 C 1565.05 1721.92 1455.87 1775.69 1336.78 1777.94 C 1334 1767.7 1317.86 1726.31 1313.28 1717.75 C 1400.02 1683.59 1493.76 1619.54 1557.42 1551.35 C 1532.16 1528.65 1507.2 1505.63 1482.52 1482.29 C 1454.62 1506.69 1437.11 1524.44 1406.65 1546.56 C 1290.21 1631.11 1167.45 1667.83 1024.94 1668.24 C 1025.69 1607.39 1024.97 1545.15 1025.08 1484.11 L 1029.8 1483.93 C 1035.81 1480.46 1034.98 1482.19 1041.61 1480.29 C 1056.63 1478.99 1071.85 1478.8 1087.01 1476.28 C 1091.59 1475.52 1094.89 1475.08 1099.54 1475.23 C 1103.11 1473.42 1116.91 1471.42 1122.12 1470.2 C 1135.25 1467.13 1148.27 1463.57 1161.14 1459.53 C 1233.34 1436.49 1298.52 1395.53 1350.6 1340.48 C 1429.99 1256.76 1483.97 1140.42 1480.84 1023.79 C 1481.69 968.619 1471.71 913.814 1451.47 862.482 C 1446.66 850.521 1439.86 838.071 1434.62 826.068 z" fill="rgb(0,0,0)" transform="translate(0,0)"></path>
<path d="M 1434.62 826.068 C 1434.79 818.01 1409.72 775.534 1402.92 768.282 C 1415.32 777.665 1431.84 819.999 1438.49 823.101 C 1441.72 828.915 1446.31 838.945 1449.25 843.642 C 1465.64 834.355 1485.96 827.761 1503.43 820.252 C 1541.07 804.071 1583.53 789.238 1620.3 771.859 L 1623.28 772.659 C 1654.63 860.04 1672.45 929.152 1671.72 1024.02 C 1667.12 1171.46 1629.75 1289.45 1541.81 1410.37 C 1523.67 1435.32 1502.52 1458.4 1481.91 1481.34 C 1453.41 1450.82 1419.52 1420.86 1390.24 1390.65 C 1377.3 1377.29 1358.6 1361.86 1347.23 1347.64 C 1326.65 1369.9 1302.86 1389.11 1275.78 1407.53 C 1227.46 1440.41 1167.9 1465.79 1109.83 1475.9 C 1109.28 1475.92 1108.72 1475.94 1108.17 1475.95 C 1103.8 1476.35 1102.69 1477.29 1099.54 1475.23 C 1103.11 1473.42 1116.91 1471.42 1122.12 1470.2 C 1135.25 1467.13 1148.27 1463.57 1161.14 1459.53 C 1233.34 1436.49 1298.52 1395.53 1350.6 1340.48 C 1429.99 1256.76 1483.97 1140.42 1480.84 1023.79 C 1481.69 968.619 1471.71 913.814 1451.47 862.482 C 1446.66 850.521 1439.86 838.071 1434.62 826.068 z" fill="rgb(252,101,88)" transform="translate(0,0)"></path>
<path d="M 1620.3 771.859 L 1623.28 772.659 C 1654.63 860.04 1672.45 929.152 1671.72 1024.02 C 1611.41 1024.87 1548.25 1024.28 1487.83 1024.09 C 1488.14 952.047 1476.77 908.879 1449.25 843.642 C 1465.64 834.355 1485.96 827.761 1503.43 820.252 C 1541.07 804.071 1583.53 789.238 1620.3 771.859 z" fill="rgb(0,0,0)" transform="translate(0,0)"></path>
<path d="M 1717.71 1312.88 C 1737.43 1323.04 1756.65 1330.98 1777.16 1339.52 C 1775.11 1432.6 1739.86 1527.18 1681.74 1599.5 C 1670.99 1612.86 1659.46 1625.19 1647.63 1637.59 C 1636.33 1625.7 1620.95 1611.39 1609.11 1599.96 C 1592.42 1583.57 1575.58 1567.34 1558.58 1551.27 C 1633.93 1475.92 1673.58 1407.65 1717.71 1312.88 z" fill="rgb(252,101,88)" transform="translate(0,0)"></path>
<path d="M 1041.61 1480.29 C 1056.63 1478.99 1071.85 1478.8 1087.01 1476.28 C 1091.59 1475.52 1094.89 1475.08 1099.54 1475.23 C 1102.69 1477.29 1103.8 1476.35 1108.17 1475.95 C 1089.6 1481 1048.51 1484.18 1029.8 1483.93 C 1035.81 1480.46 1034.98 1482.19 1041.61 1480.29 z" fill="rgb(226,91,83)" transform="translate(0,0)"></path>
<path d="M 1319 1023.76 L 1480.84 1023.79 C 1483.97 1140.42 1429.99 1256.76 1350.6 1340.48 C 1298.52 1395.53 1233.34 1436.49 1161.14 1459.53 C 1148.27 1463.57 1135.25 1467.13 1122.12 1470.2 C 1116.91 1471.42 1103.11 1473.42 1099.54 1475.23 C 1094.89 1475.08 1091.59 1475.52 1087.01 1476.28 C 1071.85 1478.8 1056.63 1478.99 1041.61 1480.29 C 1037.2 1480.34 1028.77 1480.81 1024.99 1479.15 L 1024.81 1318.82 L 1025.99 1318.83 C 1102.21 1318.64 1175.34 1288.71 1229.82 1235.42 C 1286.6 1179.59 1318.71 1103.39 1319 1023.76 z" fill="rgb(248,247,248)" transform="translate(0,0)"></path>
<path d="M 939.328 575.752 C 960.499 570.735 992.194 568.2 1013.87 567.866 C 1017.52 567.994 1022.07 567.63 1025.02 569.156 C 1024.8 622.496 1024.88 675.837 1025.27 729.176 C 868.329 726.853 733.225 860.211 731.03 1016.89 C 730.998 1019.2 730.988 1021.51 730.999 1023.82 L 569.252 1023.82 L 568.549 1022.88 C 567.237 1014.71 569.074 997.512 570.025 988.685 C 576.938 926.716 595.248 866.56 624.032 811.247 C 680.878 702.114 786.873 618.207 905.143 585.28 C 916.384 582.151 928.279 579.226 939.328 575.752 z" fill="rgb(248,247,248)" transform="translate(0,0)"></path>
<path d="M 1025.08 730.07 C 1045.67 731.588 1064.79 732.786 1085 736.972 C 1149.75 750.385 1206.36 785.155 1248.9 835.465 C 1295.23 890.263 1316.57 953.037 1319 1023.76 L 1149.58 1023.84 C 1149.44 992.876 1138.04 963.023 1117.5 939.854 C 1092.89 911.833 1061.46 900.234 1024.96 897.866 C 1024.6 843.294 1024.12 784.551 1025.08 730.07 z" fill="rgb(248,247,248)" transform="translate(0,0)"></path>
<path d="M 731.495 1023.98 L 899 1023.79 C 904.331 1088.69 939.957 1135.69 1007.93 1146.77 C 1011.92 1147.42 1023.68 1147.33 1025.5 1150.75 C 1024.23 1168.09 1024.85 1194.22 1024.86 1212 L 1024.98 1318.14 C 982.089 1314.24 945.589 1308.59 905.921 1289.96 C 796.996 1238.82 735.802 1143.51 731.495 1023.98 z" fill="rgb(248,247,248)" transform="translate(0,0)"></path>
<path d="M 1024.96 897.866 C 1061.46 900.234 1092.89 911.833 1117.5 939.854 C 1138.04 963.023 1149.44 992.876 1149.58 1023.84 C 1146.79 1087.7 1104.85 1138.18 1040.99 1147.26 C 1038.09 1147.67 1026.53 1148.5 1025.5 1150.75 C 1023.68 1147.33 1011.92 1147.42 1007.93 1146.77 C 939.957 1135.69 904.331 1088.69 899 1023.79 C 902.039 989.242 910.105 964.437 934.12 938.092 C 958.333 911.53 989.32 899.286 1024.96 897.866 z" fill="rgb(252,101,88)" transform="translate(0,0)"></path>
<path d="M 706.011 1346 C 713.046 1352.36 720.298 1359.14 727.604 1365.13 C 771.26 1401.78 813.984 1427.85 867.473 1448.55 L 866.808 1453.48 C 809.91 1431.36 770.437 1407.07 723.946 1368.49 C 716.646 1362.42 709.436 1356.5 702.441 1350.06 L 706.011 1346 z" fill="rgb(240,101,97)" transform="translate(0,0)"></path>
<path d="M 906.487 1465.94 C 906.524 1463.48 897.437 1462.01 894.711 1460.54 C 896.801 1459.72 925.185 1469 930.172 1467.93 C 930.513 1467.86 933.704 1468.11 934.287 1468.14 C 944.995 1469.59 955.735 1472.46 966.236 1473.82 C 985.332 1476.3 1005.75 1478.17 1024.99 1479.15 C 1028.77 1480.81 1037.2 1480.34 1041.61 1480.29 C 1034.98 1482.19 1035.81 1480.46 1029.8 1483.93 L 1025.08 1484.11 C 989.729 1481.84 939.905 1478.19 906.487 1465.94 z" fill="rgb(240,101,97)" transform="translate(0,0)"></path>
<path d="M 1354.38 711.211 C 1363.28 712.402 1387.24 749.378 1394.55 755.118 C 1393.5 752.866 1393.11 751.492 1392.59 749.054 C 1406.72 766.504 1429.59 802.758 1438.49 823.101 C 1431.84 819.999 1415.32 777.665 1402.92 768.282 C 1409.72 775.534 1434.79 818.01 1434.62 826.068 C 1431.83 821.844 1428.66 815.4 1426.35 810.815 C 1407.49 773.311 1382.22 742.402 1354.38 711.211 z" fill="rgb(240,101,97)" transform="translate(0,0)"></path>
<path d="M 867.473 1448.55 C 871.467 1450.13 875.492 1451.64 879.547 1453.06 C 890.389 1457.33 912.166 1462.72 923.461 1465.29 L 927.48 1466.24 C 929.771 1466.8 932.041 1467.43 934.287 1468.14 C 933.704 1468.11 930.513 1467.86 930.172 1467.93 C 925.185 1469 896.801 1459.72 894.711 1460.54 C 897.437 1462.01 906.524 1463.48 906.487 1465.94 C 898.938 1464.66 883.085 1458.42 874.626 1456.1 C 872.074 1455.09 869.466 1454.18 866.808 1453.48 L 867.473 1448.55 z" fill="rgb(226,91,83)" transform="translate(0,0)"></path>
<path d="M 1339.57 271.892 C 1428.81 271.219 1522.76 309.473 1593.38 362.189 C 1612.32 376.332 1629.62 392.505 1647.01 408.481 C 1666.6 428.6 1684.12 448.622 1700.33 471.6 C 1746.29 536.717 1777.95 627.856 1777 708.253 L 1776.96 710.205 C 1770.57 712.09 1720.89 731.8 1716.54 734.783 L 1715.81 734.602 C 1704.38 738.398 1685.89 746.757 1673.81 751.652 C 1662.25 756.335 1634.71 765.935 1624.73 771.321 L 1623.28 772.659 L 1620.3 771.859 C 1583.53 789.238 1541.07 804.071 1503.43 820.252 C 1485.96 827.761 1465.64 834.355 1449.25 843.642 C 1446.31 838.945 1441.72 828.915 1438.49 823.101 C 1429.59 802.758 1406.72 766.504 1392.59 749.054 C 1393.11 751.492 1393.5 752.866 1394.55 755.118 C 1387.24 749.378 1363.28 712.402 1354.38 711.211 C 1340.08 697.5 1324.13 681.889 1308.79 669.551 C 1247.97 621.134 1175.77 589.096 1099.07 576.487 C 1073.23 572.255 1048.01 572.703 1025.91 569.3 L 1025.02 569.156 C 1022.07 567.63 1017.52 567.994 1013.87 567.866 C 992.194 568.2 960.499 570.735 939.328 575.752 C 918.778 576.057 869.12 595.343 847.477 602.137 L 793.269 464.576 C 790.495 457.383 778.534 427.775 778.211 423.323 C 792.664 419.112 815.617 408.256 832.835 402.675 C 898.005 381.547 956.67 373.022 1024.85 372.673 C 1024.56 339.501 1024.63 306.327 1025.07 273.157 C 1120.54 271.334 1226.57 290.072 1313.72 330.071 C 1323.2 311.795 1331.64 290.981 1339.57 271.892 z" fill="rgb(0,0,0)" transform="translate(0,0)"></path>
<path d="M 1314.39 329.92 C 1404.29 372.039 1487.07 419.412 1556.48 491.946 C 1533.47 512.575 1505.15 541.442 1482.9 563.396 C 1540.74 625.441 1590.23 690.01 1621.28 770.091 L 1620.3 771.859 C 1583.53 789.238 1541.07 804.071 1503.43 820.252 C 1485.96 827.761 1465.64 834.355 1449.25 843.642 C 1446.31 838.945 1441.72 828.915 1438.49 823.101 C 1429.59 802.758 1406.72 766.504 1392.59 749.054 C 1388.71 740.66 1353.89 702.707 1346.18 694.71 C 1353.44 689.188 1358.87 683.493 1365.44 677.231 C 1404.81 639.723 1443.02 600.977 1482.33 563.429 C 1422.61 504.024 1351.75 456.996 1273.81 425.044 C 1287.39 393.092 1301.12 362.088 1314.39 329.92 z" fill="rgb(248,247,248)" transform="translate(0,0)"></path>
<path d="M 1024.82 373.042 C 1105.88 376.757 1200.18 388.47 1273.76 425.056 C 1254.83 463.047 1241.07 507.705 1221.99 546.298 C 1214.08 562.278 1207.75 581.263 1200.29 597.853 C 1227.98 612.658 1255.19 623.255 1282.15 641.593 C 1306.28 658.009 1324.54 675.224 1346.18 694.71 C 1353.89 702.707 1388.71 740.66 1392.59 749.054 C 1393.11 751.492 1393.5 752.866 1394.55 755.118 C 1387.24 749.378 1363.28 712.402 1354.38 711.211 C 1340.08 697.5 1324.13 681.889 1308.79 669.551 C 1247.97 621.134 1175.77 589.096 1099.07 576.487 C 1073.23 572.255 1048.01 572.703 1025.91 569.3 L 1025.02 569.156 C 1022.07 567.63 1017.52 567.994 1013.87 567.866 C 1016.85 567.66 1021.63 567.726 1023.89 566.24 C 1025.57 552.252 1024.73 517.494 1024.72 501.712 L 1024.82 373.042 z" fill="rgb(252,101,88)" transform="translate(0,0)"></path>
<path d="M 1647.01 408.481 C 1666.6 428.6 1684.12 448.622 1700.33 471.6 C 1746.29 536.717 1777.95 627.856 1777 708.253 L 1776.96 710.205 C 1770.57 712.09 1720.89 731.8 1716.54 734.783 L 1715.81 734.602 C 1715.85 734.329 1715.89 734.056 1715.94 733.783 C 1700.41 682.782 1671.26 637.133 1641.75 593.248 C 1616.88 556.275 1588.77 526.153 1558.99 493.451 C 1587.48 468.741 1619.74 435.427 1647.01 408.481 z" fill="rgb(252,101,88)" transform="translate(0,0)"></path>
<path d="M 1621.28 770.091 L 1624.73 771.321 L 1623.28 772.659 L 1620.3 771.859 L 1621.28 770.091 z" fill="rgb(71,16,11)" transform="translate(0,0)"></path>
<path d="M 1068.52 1774.95 C 1079.86 1775.46 1108.79 1771.28 1120.36 1769.55 C 1172.9 1761.83 1224.64 1749.4 1274.95 1732.41 C 1287.61 1728.2 1300.36 1722.18 1313.28 1717.75 C 1317.86 1726.31 1334 1767.7 1336.78 1777.94 C 1293.29 1778.76 1246.46 1777.74 1202.5 1777.82 C 1171.67 1779.34 1135.96 1777.4 1104.48 1778.06 C 1094.12 1778.27 1052.36 1778.35 1045.51 1776.95 C 1050.43 1775.3 1062.88 1775.11 1068.52 1774.95 z" fill="rgb(252,101,88)" transform="translate(0,0)"></path>
<path d="M 1202.5 1777.82 C 1171.67 1779.34 1135.96 1777.4 1104.48 1778.06 C 1094.12 1778.27 1052.36 1778.35 1045.51 1776.95 C 1050.43 1775.3 1062.88 1775.11 1068.52 1774.95 C 1066.04 1775.6 1065.36 1775.29 1064.01 1776.67 C 1096.08 1777.74 1128.6 1776.94 1160.69 1777.23 C 1172.57 1777.34 1191.06 1776.85 1202.5 1777.82 z" fill="rgb(234,175,169)" transform="translate(0,0)"></path>
<path d="M 1716.54 734.783 C 1720.89 731.8 1770.57 712.09 1776.96 710.205 L 1776.8 725.455 C 1778.27 812.659 1775.79 901.252 1777.07 988.62 L 1774.96 985.826 C 1774.85 980.849 1774.62 975.875 1774.28 970.909 C 1767.25 895.119 1748.66 804.407 1716.54 734.783 z" fill="rgb(0,0,0)" transform="translate(0,0)"></path>
<path d="M 1774.28 970.909 C 1777.41 966.817 1775.92 909.527 1775.88 899.031 L 1775.9 780.268 C 1775.9 769.529 1775.26 734.235 1776.8 725.455 C 1778.27 812.659 1775.79 901.252 1777.07 988.62 L 1774.96 985.826 C 1774.85 980.849 1774.62 975.875 1774.28 970.909 z" fill="rgb(83,61,61)" transform="translate(0,0)"></path>
<path d="M 275.144 1146.02 C 273.306 1117.58 275.382 1072.24 275.44 1043.09 C 274.823 1049.67 276.547 1049.93 276.684 1053.39 C 277.261 1068.04 278.358 1082.25 279.639 1096.83 L 276.868 1098 C 274.851 1104.16 276.119 1135.76 275.144 1146.02 z" fill="rgb(83,61,61)" transform="translate(0,0)"></path>
<path d="M 1774.96 985.826 L 1777.07 988.62 C 1777.14 990.673 1777.26 1008.43 1776.29 1009.03 C 1774.71 1008.11 1774.89 988.587 1774.96 985.826 z" fill="rgb(149,144,151)" transform="translate(0,0)"></path>
<path d="M 977.865 272.987 C 984.745 272.502 989.581 273.257 995.98 272.935 L 995.965 273.999 C 994.206 274.01 992.447 274.047 990.689 274.109 C 989.598 274.901 989.608 274.716 988.037 274.629 C 984.382 274.856 981.529 275.005 977.835 274.972 L 977.865 272.987 z" fill="rgb(169,121,109)" transform="translate(0,0)"></path>
<path d="M 988.037 274.629 C 989.279 273.896 989.197 273.984 990.689 274.109 C 989.598 274.901 989.608 274.716 988.037 274.629 z" fill="rgb(229,217,217)" transform="translate(0,0)"></path>
<path d="M 995.98 272.935 C 1011.91 271.097 1011.39 275.588 995.965 273.999 L 995.98 272.935 z" fill="rgb(229,217,217)" transform="translate(0,0)"></path>
<metadata><recraft-signature>{"signed_by": "recraft", "signature_b64": "TpHhoCwNlFsnYlBtxu0QLRGwJvXHpakEfzNrKt9cg+fJ91ELn7c5Frsn1v/Q3nKa5r+dgyYJm59HymmrWd2kDw==", "signing_algo": "Ed25519", "generation_timestamp": 1772810406, "identifier": "2fff682e-95bc-425b-bc91-31a741a0915e"}</recraft-signature></metadata></svg>