<svg xmlns="http://www.w3.org/2000/svg" height="1024" preserveAspectRatio="none" style="display: block;" version="1.1" viewBox="0 0 2048 2048" width="1024">
<path d="M 0 0 L 2048 0 L 2048 2048 L 0 2048 L 0 0 z" fill="rgb(252,253,253)" transform="translate(0,0)"></path>
<path d="M 953.132 253.211 C 981.069 252.444 1009.02 252.059 1036.96 252.055 C 1056.39 252.242 1076.86 253.516 1095.96 253.497 L 1103.05 254.027 C 1302.18 268.726 1504.67 293.215 1642.09 454.806 C 1678.88 498.069 1714.7 556.506 1733.4 611.509 C 1812.7 844.772 1813.95 1118.33 1759.04 1357.51 C 1753.07 1383.49 1743.44 1407.3 1736.18 1432.04 C 1705.79 1507.41 1675.37 1562.71 1617.32 1620.99 C 1576.25 1660.71 1543.85 1685.78 1492.03 1712.17 C 1450.01 1734.22 1402 1750.07 1356.24 1761.84 C 1347.29 1764.14 1327.15 1769.95 1318.33 1770.9 C 1130 1810.63 920.738 1807.84 732.274 1771.15 C 670.493 1758.95 617.424 1738.12 560.222 1712.88 C 513.613 1689.42 470.993 1658.77 433.934 1622.04 C 392.789 1580.86 363.974 1539.19 338.334 1486.88 C 329.177 1468.19 321.77 1453.1 315.27 1433.08 C 306.985 1409.2 298.378 1385.4 292.539 1360.79 C 278.112 1299.97 267.154 1236.09 261.773 1173.8 C 258.726 1140.47 256.543 1107.06 255.226 1073.62 C 250.791 925.269 267.716 729.815 324.629 593.043 C 344.236 544.885 371.152 500.037 404.427 460.081 C 516.833 326.765 664.985 284.416 833.252 263.298 C 870.52 258.621 908.41 257.098 945.769 253.921 C 948.068 253.536 950.774 253.404 953.132 253.211 z" fill="rgb(15,24,36)" transform="translate(0,0)"></path>
<path d="M 1103.05 254.027 C 1302.18 268.726 1504.67 293.215 1642.09 454.806 C 1678.88 498.069 1714.7 556.506 1733.4 611.509 C 1812.7 844.772 1813.95 1118.33 1759.04 1357.51 C 1753.07 1383.49 1743.44 1407.3 1736.18 1432.04 C 1723.88 1411.89 1699.9 1383.51 1685.06 1362.52 C 1645.35 1306.63 1607.02 1249.77 1570.09 1191.99 C 1424.41 959.103 1297.44 715.024 1190.37 462.052 C 1172.51 421.507 1154.97 380.826 1137.73 340.014 C 1127.23 315.422 1111.27 279.094 1103.05 254.027 z" fill="rgb(15,24,36)" transform="translate(0,0)"></path>
<path d="M 315.27 1433.08 C 306.985 1409.2 298.378 1385.4 292.539 1360.79 C 278.112 1299.97 267.154 1236.09 261.773 1173.8 C 258.726 1140.47 256.543 1107.06 255.226 1073.62 C 250.791 925.269 267.716 729.815 324.629 593.043 C 344.236 544.885 371.152 500.037 404.427 460.081 C 516.833 326.765 664.985 284.416 833.252 263.298 C 870.52 258.621 908.41 257.098 945.769 253.921 C 942.085 266.59 931.454 289.263 926.159 302.555 C 908.411 347.837 889.891 392.812 870.607 437.461 C 761.22 696.581 631.977 946.864 484.032 1186.07 C 448.816 1242.53 412.012 1297.97 373.664 1352.34 C 361.455 1369.73 349.014 1386.95 336.346 1404.01 C 330.251 1412.25 320.106 1424.66 315.27 1433.08 z" fill="rgb(15,24,36)" transform="translate(0,0)"></path>
<path d="M 1095.96 253.497 L 1103.05 254.027 C 1111.27 279.094 1127.23 315.422 1137.73 340.014 C 1154.97 380.826 1172.51 421.507 1190.37 462.052 C 1297.44 715.024 1424.41 959.103 1570.09 1191.99 C 1607.02 1249.77 1645.35 1306.63 1685.06 1362.52 C 1699.9 1383.51 1723.88 1411.89 1736.18 1432.04 C 1705.79 1507.41 1675.37 1562.71 1617.32 1620.99 L 1614.07 1616.59 C 1601 1598.98 1588.24 1581.52 1573.97 1564.84 C 1474.72 1446.94 1340.85 1363.31 1191.38 1325.81 C 1159.54 1317.89 1127.98 1313.29 1095.59 1308.49 C 1094.52 1276.97 1095.94 1239.42 1095.84 1207.2 C 1095.36 1122.67 1095.32 1038.13 1095.73 953.599 L 1095.96 253.497 z" fill="rgb(253,95,95)" transform="translate(0,0)"></path>
<path d="M 945.769 253.921 C 948.068 253.536 950.774 253.404 953.132 253.211 C 952.392 291.224 953.002 330.918 953.03 369.112 L 953.037 574.352 L 952.971 1308.66 C 760.598 1330.83 584.857 1428.36 464.259 1579.86 C 453.855 1593.03 442.783 1607.79 433.934 1622.04 C 392.789 1580.86 363.974 1539.19 338.334 1486.88 C 329.177 1468.19 321.77 1453.1 315.27 1433.08 C 320.106 1424.66 330.251 1412.25 336.346 1404.01 C 349.014 1386.95 361.455 1369.73 373.664 1352.34 C 412.012 1297.97 448.816 1242.53 484.032 1186.07 C 631.977 946.864 761.22 696.581 870.607 437.461 C 889.891 392.812 908.411 347.837 926.159 302.555 C 931.454 289.263 942.085 266.59 945.769 253.921 z" fill="rgb(253,95,95)" transform="translate(0,0)"></path>
<path d="M 1096.02 1465.45 C 1096.31 1465.48 1096.59 1465.51 1096.88 1465.55 C 1223.97 1482.76 1341.43 1542.69 1429.95 1635.5 C 1456.66 1663.62 1468.93 1682.35 1492.03 1712.17 C 1450.01 1734.22 1402 1750.07 1356.24 1761.84 C 1347.29 1764.14 1327.15 1769.95 1318.33 1770.9 C 1305.06 1758.5 1294.44 1745.53 1279.85 1732.53 C 1227.81 1686.04 1164.46 1654.06 1096.15 1639.8 L 1096.02 1465.45 z" fill="rgb(253,95,95)" transform="translate(0,0)"></path>
<path d="M 560.222 1712.88 C 641.699 1579.27 798.795 1485.04 952.978 1465.51 L 953.155 1640.35 C 936.38 1642.79 914.175 1649.96 898.141 1655.81 C 831.088 1680.31 779.459 1717.74 732.274 1771.15 C 670.493 1758.95 617.424 1738.12 560.222 1712.88 z" fill="rgb(253,95,95)" transform="translate(0,0)"></path>
<metadata><recraft-signature>{"signed_by": "recraft", "signature_b64": "FEmbohZnJrmxrjcyzZobBRJTNTVTL1RT1aCNiFtALK2iZ1cQzl8nNNojM7nlaUXYEV1gFwezrT+s/SMvbAzMBw==", "signing_algo": "Ed25519", "generation_timestamp": 1772810428, "identifier": "033908e0-f6a5-4905-a321-1acd1c06c0af"}</recraft-signature></metadata></svg>