<svg xmlns="http://www.w3.org/2000/svg" height="1024" preserveAspectRatio="none" style="display: block;" version="1.1" viewBox="0 0 2048 2048" width="1024">
<path d="M 0 0 L 2048 0 L 2048 2048 L 0 2048 L 0 0 z" fill="rgb(255,255,255)" transform="translate(0,0)"></path>
<path d="M 557.158 1732.18 C 443.123 1680.97 356.928 1593.39 312.257 1475.97 C 298.647 1440.37 289.889 1403.09 286.22 1365.15 C 282.513 1325.75 283.977 1274.27 283.987 1233.69 L 284.056 1019.92 L 284.073 816.554 C 284.081 773.663 282.743 728.603 286.986 685.998 C 303.64 518.78 420.224 368.059 577.587 308.617 C 618.255 292.862 660.946 282.935 704.393 279.133 C 741.524 275.756 796.572 278.014 835.596 278.106 L 1062.63 278.275 L 1243.82 278.774 C 1277.46 278.804 1323.82 277.349 1356.13 280.903 C 1405.52 285.853 1453.8 298.686 1499.13 318.913 C 1657.73 390.722 1765.09 548.807 1766.47 723.556 C 1766.68 750.7 1766.81 777.815 1766.8 804.962 C 1766.26 870.785 1766.16 936.61 1766.52 1002.43 L 1766.52 1211.18 C 1766.86 1241.58 1766.87 1271.98 1766.54 1302.38 C 1766.33 1327.11 1766.44 1349.97 1763.51 1374.61 C 1757.92 1419.49 1745.47 1463.24 1726.62 1504.34 C 1676.55 1615.08 1584.15 1701.11 1470.12 1743.15 C 1392.19 1772.23 1330.99 1771.04 1249.75 1771.01 L 1122.03 1770.99 L 1011 1770.97 C 994.322 1770.97 971.302 1771.71 955.218 1770.86 C 951.367 1770.95 947.826 1771.01 943.96 1770.97 C 925.699 1770.64 906.601 1771.44 888.461 1770.85 C 857.489 1771.55 826.042 1770.12 795.194 1771.09 C 713.51 1773.68 632.364 1768.48 557.158 1732.18 z" fill="rgb(252,94,111)" transform="translate(0,0)"></path>
<path d="M 557.271 1584.89 C 492.804 1541.18 440.324 1459.81 426.439 1383.45 C 417.504 1334.32 419.942 1279.12 419.565 1228.73 L 419.284 975.59 L 419.847 802.973 C 419.898 769.821 418.386 718.163 423.2 687.141 C 430.282 639.513 447.995 594.091 475.026 554.242 C 523.663 483.053 598.279 433.776 682.848 416.996 C 724.98 408.909 793.087 411.26 838.429 411.219 L 1070.4 411.301 L 1241.76 411.233 C 1281.42 411.164 1323.61 409.131 1362.52 414.975 C 1407.25 421.693 1455.12 440.005 1492.59 465.669 C 1562.46 512.949 1610.13 586.592 1624.66 669.701 C 1633.04 715.113 1631.08 763.947 1631.03 810.27 L 1630.36 998.712 L 1631.04 1231.72 C 1631.04 1277.84 1633.5 1332.01 1626.4 1376.91 C 1606.46 1503.01 1500 1609.45 1374.41 1631.1 C 1337.1 1637.54 1300.2 1636.43 1262.75 1636.49 L 1138.68 1636.54 L 1035.29 1636.52 C 997.481 1636.69 959.644 1638.4 922.374 1631.37 C 877.051 1622.55 834.038 1604.47 796.029 1578.26 C 726.382 1529.25 688.966 1462.75 674.109 1379.85 C 668.103 1346.34 668.785 1309.18 669.371 1274.95 L 817.066 1278.49 C 817.039 1312.45 816.138 1347.33 819.521 1380.51 C 825.59 1440.05 876.258 1496.8 935.092 1508.39 C 971.79 1515.63 1023.96 1512.96 1062.35 1512.96 L 1253.89 1513.05 C 1331.98 1512.93 1398.87 1519.2 1458.76 1458.6 C 1512.59 1404.12 1509.52 1346.69 1509.34 1277.38 L 1509.23 1154.04 L 1509.55 716.559 C 1509.08 663.059 1494 621.619 1456.31 583.12 C 1404.52 530.233 1348.03 534.078 1281.16 534.013 L 1154.97 534.087 C 1024.28 534.389 893.569 533.525 762.896 534.383 C 743.963 534.507 715.824 534.366 697.76 537.227 C 658.467 543.451 619.271 564.123 591.934 592.922 C 530.244 657.913 539.932 724.467 539.544 804.935 C 461.958 874.303 452.971 926.824 456.906 1026.72 C 457.842 1050.48 455.572 1072.57 459.074 1097.01 C 467.251 1154.05 494.702 1195.11 538.922 1230.42 C 539.034 1262.55 540.083 1296.07 539.416 1328.15 C 535.311 1525.37 677.506 1706.8 867.647 1755.53 C 889.495 1761.13 910.401 1764.89 932.729 1768.28 C 936.482 1768.55 939.42 1769.05 943.244 1769.02 L 943.96 1770.97 C 925.699 1770.64 906.601 1771.44 888.461 1770.85 C 857.489 1771.55 826.042 1770.12 795.194 1771.09 C 713.51 1773.68 632.364 1768.48 557.158 1732.18 L 557.271 1584.89 z" fill="rgb(0,0,0)" transform="translate(0,0)"></path>
<path d="M 932.729 1768.28 C 936.482 1768.55 939.42 1769.05 943.244 1769.02 L 943.96 1770.97 C 925.699 1770.64 906.601 1771.44 888.461 1770.85 C 895.396 1769.6 932.205 1771.06 932.729 1768.28 z" fill="rgb(36,19,21)" transform="translate(0,0)"></path>
<path d="M 943.244 1769.02 C 949.437 1768.89 949.755 1768.73 955.218 1770.86 C 951.367 1770.95 947.826 1771.01 943.96 1770.97 L 943.244 1769.02 z" fill="rgb(191,60,74)" transform="translate(0,0)"></path>
<path d="M 1329.61 657.162 C 1360.05 655.365 1380.99 678.023 1381.19 707.708 C 1381.46 745.852 1381.09 784.015 1381.13 822.164 L 1381.3 1054.8 L 1381.15 1238.96 C 1381.2 1272.6 1381.38 1306.06 1380.98 1339.84 C 1380.66 1365.88 1354.89 1393.7 1328.33 1379.8 C 1318.6 1374.71 1308.87 1366.51 1300 1359.8 C 1287.03 1349.89 1273.92 1340.17 1260.68 1330.64 C 1219.12 1300.84 1175.98 1273.32 1131.44 1248.2 C 1077.72 1217.64 1004.63 1188.42 945.003 1172.06 L 944.872 871.219 C 1024.14 847.251 1115.8 802.365 1185.51 757.072 C 1204.77 744.371 1223.79 731.326 1242.58 717.944 C 1258.39 706.477 1274.12 694.899 1289.76 683.212 C 1301.31 674.473 1316.02 661.096 1329.61 657.162 z" fill="rgb(0,0,0)" transform="translate(0,0)"></path>
<path d="M 665.985 885.381 C 682.863 884.575 702.756 885.036 719.805 885.041 C 750.894 884.827 781.984 885.177 813.059 886.093 L 813.151 1148.94 L 733.5 1148.93 C 693.958 1149.03 645.932 1154.89 614.857 1129.33 C 599.692 1117.76 586.179 1092.75 585.999 1073.28 C 585.338 1001.79 566.135 896.04 665.985 885.381 z" fill="rgb(0,0,0)" transform="translate(0,0)"></path>
<path d="M 732.339 659.393 C 778.286 658.131 828.593 658.935 874.899 658.917 L 1115.44 659.388 C 1083.93 678.135 1044.3 695.375 1010.75 710.494 C 978.199 725.038 929.057 745.295 894.435 755.221 C 884.779 757.989 839.096 755.994 826.729 755.985 L 671.362 755.955 C 671.019 731.444 667.686 700.978 684.185 681.979 C 697.818 666.28 712.434 661.173 732.339 659.393 z" fill="rgb(0,0,0)" transform="translate(0,0)"></path>
<path d="M 944.505 1304.58 C 1003.82 1324.74 1062.42 1353.53 1117.81 1382.7 C 1118.44 1382.94 1120.84 1383.61 1120.81 1384.64 C 1120.15 1385.15 1054.9 1384.99 1048.84 1384.76 L 1046.93 1384.83 C 1032.14 1385.21 1012.72 1384.03 998.493 1385.11 C 934.203 1390.02 944.171 1354.39 944.505 1304.58 z" fill="rgb(0,0,0)" transform="translate(0,0)"></path>
<path d="M 1117.81 1382.7 C 1118.44 1382.94 1120.84 1383.61 1120.81 1384.64 C 1120.15 1385.15 1054.9 1384.99 1048.84 1384.76 C 1056.82 1381.45 1111.92 1385.84 1117.81 1382.7 z" fill="rgb(36,19,21)" transform="translate(0,0)"></path>
<metadata><recraft-signature>{"signed_by": "recraft", "signature_b64": "RTCTo/THx56e17t9VsN9ttQXxvRt9QxAqDsHaO+AXaghuzW9IrzeTapU2wcHNZTQkpkdiEhuJdr8o21LKdZxDQ==", "signing_algo": "Ed25519", "generation_timestamp": 1772810384, "identifier": "016b27da-30c3-4064-85ca-dbb05e2ad259"}</recraft-signature></metadata></svg>