<svg xmlns="http://www.w3.org/2000/svg" height="1024" preserveAspectRatio="none" style="display: block;" version="1.1" viewBox="0 0 2048 2048" width="1024">
<path d="M 0 0 L 2048 0 L 2048 2048 L 0 2048 L 0 0 z" fill="rgb(249,249,249)" transform="translate(0,0)"></path>
<path d="M 606.61 281.428 C 623.038 279.725 645.857 280.975 662.777 280.99 L 760.162 280.973 L 1078.88 281.015 L 1327.73 280.971 L 1400.8 280.909 C 1433.32 280.883 1458.26 280.215 1490.6 286.126 C 1548.8 296.594 1603.27 322.054 1648.63 359.996 C 1717.32 417.57 1760.18 500.19 1767.69 589.506 C 1769.63 613.316 1769.07 638.89 1769.07 662.93 L 1769.06 770.357 L 1769.04 1108.5 L 1769.07 1337.65 C 1769.1 1381.74 1771.53 1446.24 1764.23 1487.78 C 1753.68 1547.24 1727.61 1602.86 1688.64 1649 C 1624.56 1723.69 1541.5 1761.53 1444.43 1768.78 C 1379.4 1770.58 1309.41 1769.14 1244 1769.05 L 897.5 1769.05 L 707.936 1769.06 C 660.66 1769.04 601.407 1771.55 555.975 1762.53 C 496.223 1751.26 440.645 1724 395.157 1683.65 C 328.411 1623.8 287.936 1540.06 282.502 1450.58 C 281.396 1432.33 281.795 1411.75 281.78 1393.28 L 281.646 1305.73 L 281.868 981.945 L 281.579 734.031 L 281.421 655.937 C 281.375 619.601 280.978 588.802 287.993 552.858 C 299.942 494.399 326.987 440.087 366.438 395.323 C 429.41 324.319 512.68 287.125 606.61 281.428 z" fill="rgb(0,0,0)" transform="translate(0,0)"></path>
<path d="M 1013.73 797.382 C 1017.65 796.728 1032.15 796.468 1036.14 796.558 C 1083.37 797.67 1128.21 817.512 1160.8 851.712 C 1209.15 902.951 1225.24 975.144 1197.62 1040.84 C 1191.84 1057.91 1171.8 1082.8 1170.58 1100.57 C 1167.09 1151.57 1170.24 1206.31 1168.59 1257.34 C 1102.03 1257.84 1035.46 1257.75 968.897 1257.07 C 968.835 1212.23 972.485 1216.2 1004.06 1186.7 C 1029.38 1161.28 1038.3 1139.65 1047.13 1105.93 C 1038.98 1120.21 1032.32 1129.69 1021.01 1141.66 C 992.408 1171.94 950.561 1186.85 909.48 1187.66 C 899.266 1187.86 888.136 1185.67 880.712 1177.97 C 877.482 1174.66 875.189 1170.55 874.065 1166.06 C 871.821 1156.85 872.862 1092.62 872.915 1078.9 C 854.829 1078.52 837.073 1079.16 818.909 1078.24 C 825.617 1062.54 832.63 1046.96 839.946 1031.53 C 844.881 1020.91 852.094 1006.34 855.238 995.425 C 858.078 983.75 856.83 970.673 857.61 958.666 C 863.235 872.087 928.692 807.352 1013.73 797.382 z" fill="rgb(245,143,159)" transform="translate(0,0)"></path>
<path d="M 413.123 710.258 C 412.711 621.296 403.917 544.632 473.077 475.154 C 528.885 419.089 575.42 411.87 650.258 411.876 L 716.568 411.726 C 700.632 427.883 685.919 441.215 670.357 458.506 C 633.561 499.388 610.129 539.443 583.264 586.545 C 596.506 581.928 616.974 571.663 632.027 565.978 C 681.33 547.357 718.873 543.123 770.588 538.973 C 726.391 595.008 713.416 619.848 688.954 686.502 C 758.018 667.523 800.458 672.358 871.503 673.53 C 912.019 673.923 952.53 674.702 993.031 675.867 L 992.826 677.995 C 977.496 678.394 961.979 681.648 947.144 685.35 C 881.244 701.795 821.625 734.864 774.626 784.237 C 721.316 840.151 687.974 912.112 679.784 988.931 C 677.055 987.824 677.788 981.897 677.15 978.461 C 677.097 882.981 659.999 777.808 689.496 686.205 C 622.642 709.316 591.936 724.798 537.003 770.221 C 536.218 700.715 552.819 648.65 582.817 587.333 C 513.271 619.439 466.731 657.335 413.123 710.258 z" fill="rgb(245,143,159)" transform="translate(0,0)"></path>
<path d="M 1366.42 1362.36 C 1408.47 1346.24 1438.59 1334.03 1475.91 1307.29 C 1488.9 1297.99 1502.13 1286.2 1514.26 1277.65 C 1516.33 1343.97 1496.31 1401.32 1468.4 1460.28 C 1537.74 1425.63 1584.06 1391.81 1637.85 1335.64 C 1637.99 1427.75 1648.2 1501.73 1576.11 1574.52 C 1530.28 1620.8 1477.26 1636.24 1413.51 1636.09 C 1387 1635.91 1360.49 1635.87 1333.97 1636 C 1395.07 1575.54 1425.49 1538.75 1467.37 1461.39 C 1408.53 1493.31 1346.79 1510.92 1279.53 1511.04 C 1320.52 1463.53 1341.06 1425.2 1362.57 1366.19 C 1361.76 1365.55 1360.96 1364.92 1360.16 1364.27 C 1362.07 1363.22 1362.15 1362.98 1363.31 1361.13 L 1366.42 1362.36 z" fill="rgb(245,143,159)" transform="translate(0,0)"></path>
<path d="M 1363.31 1361.13 L 1366.42 1362.36 C 1364.08 1363.81 1363.77 1363.81 1362.57 1366.19 C 1361.76 1365.55 1360.96 1364.92 1360.16 1364.27 C 1362.07 1363.22 1362.15 1362.98 1363.31 1361.13 z" fill="rgb(26,13,17)" transform="translate(0,0)"></path>
<path d="M 1332.24 411.105 C 1355.76 411.483 1379.28 411.683 1402.79 411.706 C 1475.9 411.827 1514.05 418.702 1571.18 468.641 C 1648.02 542.229 1637.95 615.815 1638.12 711.353 C 1625.4 700.224 1613.17 686.406 1600.75 675.438 C 1564.02 643.004 1510.77 604.786 1465.38 585.794 C 1496.88 641.665 1513.24 704.795 1512.83 768.932 C 1475.74 737.418 1444.19 717.448 1398.47 699.213 C 1390.35 695.973 1372.38 689.157 1364.3 687.315 C 1342.76 623.044 1322.03 590.128 1279.14 538.802 C 1348.39 543.694 1402.2 555.319 1465.87 585.66 C 1453.18 563.907 1443.89 544.765 1429.83 522.987 C 1402.05 479.962 1369.73 445.562 1332.24 411.105 z" fill="rgb(245,143,159)" transform="translate(0,0)"></path>
<path d="M 1097.04 1638.5 C 1172.89 1637.28 1253.77 1640.99 1329.14 1638.41 C 1319.36 1648.68 1301.43 1662.78 1289.8 1671.21 C 1190.44 1743.33 1082.18 1778.09 959.752 1758.65 C 888.446 1747.25 817.859 1715.26 760.066 1672.34 C 746.923 1662.58 732.106 1649.73 719.578 1638.95 L 1097.04 1638.5 z" fill="rgb(245,143,159)" transform="translate(0,0)"></path>
<path d="M 676.944 1060.56 C 677.715 1057.75 677.136 1055.81 679.803 1054.97 C 695.843 1210.2 802.329 1333.85 956.964 1368.33 C 965.479 1370.23 981.972 1373.07 990.643 1373.03 L 992.036 1375.13 C 967.604 1374.72 941.48 1376.03 916.939 1376.62 C 891.998 1377.06 867.055 1377.34 842.11 1377.47 C 783.717 1378.29 745.539 1379.75 688.361 1362.97 C 706.114 1420.12 730.84 1466.26 770.787 1511.21 C 708.394 1509.37 639.761 1494.21 585.473 1462.4 C 584.202 1460.86 582.732 1459.42 581.269 1458.06 C 549.649 1401.75 538.347 1342.71 537.962 1278.85 C 576.175 1314.8 637.614 1348.03 688.003 1362.99 C 669.278 1307.94 671.396 1256.61 673.13 1199.76 C 674.539 1153.61 676.835 1106.68 676.944 1060.56 z" fill="rgb(245,143,159)" transform="translate(0,0)"></path>
<path d="M 409.465 722.665 C 411.09 726.605 410.114 834.436 410.133 846.868 L 410.812 1327.51 C 390.185 1304.64 373.425 1283.41 357.157 1257.44 C 314.724 1187.57 286.276 1116.45 284.42 1033.05 C 282.077 927.688 335.68 797.895 409.465 722.665 z" fill="rgb(245,143,159)" transform="translate(0,0)"></path>
<path d="M 1639.84 719.524 C 1647.92 726.41 1659.4 742.219 1666.16 750.786 C 1708.11 803.642 1735.6 864.186 1752.94 928.925 C 1783.51 1043.02 1754.2 1155.17 1694.23 1254.65 C 1674.16 1286.84 1663.02 1299.27 1639.91 1328.09 C 1638.95 1304.97 1639.59 1278.67 1639.68 1255.34 L 1640.17 1126.02 L 1639.84 719.524 z" fill="rgb(245,143,159)" transform="translate(0,0)"></path>
<path d="M 1007.47 285.409 C 1007.84 285.363 1008.22 285.317 1008.6 285.272 C 1087.34 280.953 1170.54 306.811 1238.92 344.34 C 1269.63 361.201 1304.86 387.912 1330.58 409.701 L 1045.81 409.446 L 719.665 409.668 C 799.451 337.925 900.535 294.282 1007.47 285.409 z" fill="rgb(245,143,159)" transform="translate(0,0)"></path>
<path d="M 770.805 1511.11 L 1279.06 1511.18 C 1258.34 1535.52 1241.86 1549.24 1216.5 1568 C 1155.78 1611.43 1092.71 1633.54 1017.44 1631.99 C 920.95 1630.01 833.376 1583.15 770.805 1511.11 z" fill="rgb(245,143,159)" transform="translate(0,0)"></path>
<path d="M 1513.17 770.594 C 1521.38 776.22 1534.11 791.211 1541.28 798.938 C 1650.09 916.195 1664.99 1079.93 1571.66 1211.51 C 1551.36 1239.04 1537.51 1253.31 1513.12 1276.93 C 1512.25 1193.46 1513.2 1108.29 1513.24 1024.66 L 1513.17 770.594 z" fill="rgb(245,143,159)" transform="translate(0,0)"></path>
<path d="M 1014.83 417.436 C 1020.38 417.324 1025.95 417.291 1031.51 417.335 C 1094.99 418.252 1163.59 444.279 1215.31 480.995 C 1237.93 497.052 1259.1 517.447 1278.38 537.26 C 1243.82 538.249 1207.86 537.668 1173.19 537.519 L 1035.62 537.449 L 771.836 537.785 C 838.316 465.547 915.481 422.695 1014.83 417.436 z" fill="rgb(245,143,159)" transform="translate(0,0)"></path>
<path d="M 536.679 772.052 C 537.664 777.719 537.272 808.353 537.272 815.671 L 537.257 911.791 L 537.24 1276.73 C 514.469 1255.91 497.895 1239.6 479.826 1214.12 C 435.327 1149.8 411.905 1073.43 419.236 994.969 C 426.987 912.016 472.405 825.306 536.679 772.052 z" fill="rgb(245,143,159)" transform="translate(0,0)"></path>
<path d="M 413.3 1335.93 C 468.775 1390.24 509.326 1424.08 580.6 1459.16 L 581.269 1458.06 C 582.732 1459.42 584.202 1460.86 585.473 1462.4 L 584.896 1463.88 C 609.46 1520.31 669.098 1596.03 715.651 1635.54 C 685.449 1636.4 654.45 1635.63 624.212 1635.81 C 567.334 1636.14 512.651 1614.59 472.707 1573.28 C 439.704 1539.48 419.009 1495.58 413.94 1448.61 C 412.27 1432.05 412.774 1413.39 412.836 1396.56 C 412.857 1376.35 413.012 1356.14 413.3 1335.93 z" fill="rgb(245,143,159)" transform="translate(0,0)"></path>
<path d="M 581.269 1458.06 C 582.732 1459.42 584.202 1460.86 585.473 1462.4 L 584.896 1463.88 C 583.473 1462.28 581.938 1460.84 580.6 1459.16 L 581.269 1458.06 z" fill="rgb(223,121,142)" transform="translate(0,0)"></path>
<path d="M 1372.22 1057 C 1372.01 1054.94 1373.1 1040.98 1373.83 1040.47 C 1373.98 1040.5 1374.19 1040.5 1374.21 1040.64 C 1375.28 1048.03 1375.29 1065.56 1374.84 1072.53 C 1374.72 1114.54 1377.31 1159.79 1377.55 1202.42 C 1377.9 1264.3 1381.62 1300.58 1363.31 1361.13 C 1362.15 1362.98 1362.07 1363.22 1360.16 1364.27 C 1305.9 1379.58 1266.01 1378.19 1210.1 1377.45 L 1125.16 1376.8 C 1108.93 1376.57 1089.43 1375.5 1073.53 1375.84 C 1068.44 1374.99 1066.02 1375.95 1061.73 1373.32 C 1125.13 1369.64 1196.9 1335.25 1245.69 1295.34 C 1318.1 1236.06 1363.68 1150.19 1372.22 1057 z" fill="rgb(245,143,159)" transform="translate(0,0)"></path>
<path d="M 1372.22 1057 C 1372.01 1054.94 1373.1 1040.98 1373.83 1040.47 C 1373.98 1040.5 1374.19 1040.5 1374.21 1040.64 C 1375.28 1048.03 1375.29 1065.56 1374.84 1072.53 C 1374.14 1068.28 1375.07 1057.91 1372.22 1057 z" fill="rgb(96,56,62)" transform="translate(0,0)"></path>
<path d="M 1073.47 675.902 C 1149.29 675.819 1227.42 668.894 1303.16 674.858 C 1323.14 676.431 1344.72 682.867 1364.3 687.315 C 1366.48 698.319 1369.25 709.216 1371.6 720.18 C 1380.13 759.844 1378.4 799.832 1377.88 840.157 C 1377.29 886.862 1374.93 933.872 1374.92 980.637 C 1374.62 982.327 1374.2 988.056 1373.38 989.259 C 1373.22 989.16 1372.41 988.655 1372.12 988.436 C 1371.95 976.463 1368.44 961.793 1365.9 949.951 C 1335.67 808.966 1212.66 695.173 1068.49 678.787 C 1070.81 677.214 1070.99 676.973 1073.47 675.902 z" fill="rgb(245,143,159)" transform="translate(0,0)"></path>
<path d="M 1073.53 1375.84 C 1069.78 1376.11 1043.49 1376.54 1041.74 1374.88 C 1041.75 1374.82 1041.76 1374.75 1041.77 1374.69 C 1044.51 1374.28 1059.8 1372.99 1061.73 1373.32 C 1066.02 1375.95 1068.44 1374.99 1073.53 1375.84 z" fill="rgb(96,56,62)" transform="translate(0,0)"></path>
<path d="M 1049.84 676.067 C 1056.99 676.513 1065.89 675.705 1073.47 675.902 C 1070.99 676.973 1070.81 677.214 1068.49 678.787 C 1061.78 679.15 1055.21 677.414 1047.47 678.204 L 1049.84 676.067 z" fill="rgb(132,77,84)" transform="translate(0,0)"></path>
<path d="M 677.15 978.461 C 677.788 981.897 677.055 987.824 679.784 988.931 C 679.943 990.539 678.774 1004.59 678.321 1005.35 L 677.978 1005.3 C 676.623 1002.15 676.872 983.008 677.15 978.461 z" fill="rgb(96,56,62)" transform="translate(0,0)"></path>
<path d="M 1372.12 988.436 C 1372.41 988.655 1373.22 989.16 1373.38 989.259 C 1374.2 988.056 1374.62 982.327 1374.92 980.637 C 1375.2 986.012 1374.71 991.84 1375.04 996.415 C 1374.98 999.008 1375 1003.92 1373.68 1006.16 C 1373.6 1006.16 1373.52 1006.17 1373.43 1006.17 C 1372.96 1005.21 1373.03 1004.25 1372.97 1003.13 C 1373.15 996.993 1372 992.301 1372.12 988.436 z" fill="rgb(96,56,62)" transform="translate(0,0)"></path>
<path d="M 1372.97 1003.13 C 1373.64 1000.76 1374.24 998.745 1375.04 996.415 C 1374.98 999.008 1375 1003.92 1373.68 1006.16 C 1373.6 1006.16 1373.52 1006.17 1373.43 1006.17 C 1372.96 1005.21 1373.03 1004.25 1372.97 1003.13 z" fill="rgb(26,13,17)" transform="translate(0,0)"></path>
<path d="M 676.944 1060.56 C 676.887 1058.19 676.569 1040.95 677.857 1040.44 L 678.303 1040.86 L 678.195 1040.59 C 678.943 1041.51 679.883 1053.58 679.803 1054.97 C 677.136 1055.81 677.715 1057.75 676.944 1060.56 z" fill="rgb(96,56,62)" transform="translate(0,0)"></path>
<path d="M 993.031 675.867 C 998.18 675.731 1002.89 676.105 1008.04 676.092 C 1009.34 676.128 1010.13 675.993 1011.23 676.477 C 1011.26 676.583 1011.28 676.688 1011.31 676.794 C 1009.77 678.331 1002.5 678.028 1000.44 677.971 C 997.922 677.802 995.387 677.99 992.826 677.995 L 993.031 675.867 z" fill="rgb(132,77,84)" transform="translate(0,0)"></path>
<path d="M 1008.04 676.092 C 1009.34 676.128 1010.13 675.993 1011.23 676.477 C 1011.26 676.583 1011.28 676.688 1011.31 676.794 C 1009.77 678.331 1002.5 678.028 1000.44 677.971 C 1003.22 677.182 1005.22 676.668 1008.04 676.092 z" fill="rgb(26,13,17)" transform="translate(0,0)"></path>
<path d="M 996.42 1373 C 1000.84 1372.93 1013.86 1375.06 1004.04 1374.93 C 999.979 1374.92 996.065 1375.13 992.036 1375.13 L 990.643 1373.03 L 996.42 1373 z" fill="rgb(132,77,84)" transform="translate(0,0)"></path>
<path d="M 996.42 1373 C 1000.84 1372.93 1013.86 1375.06 1004.04 1374.93 C 1001.13 1374.34 999.261 1373.85 996.42 1373 z" fill="rgb(52,33,35)" transform="translate(0,0)"></path>
<path d="M 1047.47 678.204 C 1047.92 678.232 1041.03 678.141 1042.55 676.789 C 1043.79 675.686 1048.27 676.038 1049.84 676.067 L 1047.47 678.204 z" fill="rgb(52,33,35)" transform="translate(0,0)"></path>
<metadata><recraft-signature>{"signed_by": "recraft", "signature_b64": "8hgrVyS/5ihhp9wZxPCOwxctxfi/g1YIicQ0E5B62oQw9k7J0u/dn7eeN/zsPJOwM7agdg3QRL/1xM0qDGtTBQ==", "signing_algo": "Ed25519", "generation_timestamp": 1772810691, "identifier": "5571d78c-97fc-49f4-a878-d092299f33fe"}</recraft-signature></metadata></svg>