<svg xmlns="http://www.w3.org/2000/svg" height="1024" preserveAspectRatio="none" style="display: block;" version="1.1" viewBox="0 0 2048 2048" width="1024">
<path d="M 0 0 L 2048 0 L 2048 2048 L 0 2048 L 0 0 z" fill="rgb(255,255,255)" transform="translate(0,0)"></path>
<path d="M 534.943 1723.65 C 510.368 1709.02 482.759 1691.11 460.583 1673.4 C 375.375 1605.31 312.701 1513.09 280.761 1408.8 C 268.623 1368.96 260.885 1327.92 257.685 1286.4 C 255.2 1256.25 255.869 1223.12 255.81 1192.68 L 255.958 1040.88 L 255.909 876.367 C 255.915 816.029 253.987 774.585 263.566 714.823 C 273.617 653.813 293.802 594.913 323.286 540.563 C 392.877 411.657 510.722 315.589 651.007 273.404 C 686.228 262.705 722.432 255.564 759.078 252.089 C 796.697 248.827 837.505 249.794 875.484 249.886 L 1030.17 249.978 L 1175.02 249.968 C 1226.59 249.739 1276.56 248.056 1327.7 256.517 C 1420.7 271.905 1506.04 308.549 1580.51 366.447 C 1672.23 436.902 1739.21 534.671 1771.77 645.652 C 1782.39 680.904 1789.27 717.172 1792.31 753.862 C 1795.67 793.006 1794.98 829.715 1794.99 868.926 L 1795.03 1015.3 L 1794.98 1170.62 C 1794.74 1318.09 1790.35 1392.78 1718.39 1524.57 C 1711.06 1538.34 1691.85 1565.34 1681.95 1578.32 C 1625.73 1651.12 1552.52 1709.04 1468.73 1747.01 C 1453.55 1753.91 1436.45 1760.01 1420.78 1765.81 C 1364.52 1783.67 1316.79 1793.34 1257.03 1795.87 C 1208.97 1797.9 1154.59 1793.91 1107.3 1797 C 1082.66 1799.01 1055.61 1796.72 1031.11 1797.91 C 1007.24 1796.54 970.658 1797.53 945.878 1797.5 L 786.884 1797 C 723.423 1795.28 650.522 1776.85 592.478 1752.09 C 573.489 1743.99 553.349 1733.28 534.943 1723.65 z" fill="rgb(255,255,255)" transform="translate(0,0)"></path>
<path d="M 1027.92 740.996 C 1106.54 741.032 1189.71 739.71 1268.08 741.182 C 1256.35 860.322 1181.82 944.905 1063.86 968.288 C 1070.07 971.644 1082.1 968.104 1092.59 970.807 C 1140.72 972.841 1185.61 978.571 1230.82 995.835 C 1253.99 1004.68 1275.59 1016.36 1297.57 1027.76 C 1344.42 992.487 1397.67 976.173 1456.14 984.517 C 1512.32 992.473 1562.98 1022.63 1596.74 1068.25 C 1624.45 1106.02 1638.97 1151.86 1638.08 1198.7 C 1635.54 1234.14 1629.6 1262.43 1612.18 1293.99 C 1582.89 1347.06 1530.04 1384.09 1471.1 1397.33 C 1467.66 1397.52 1460.4 1398.47 1457.92 1401.01 L 1458.63 1401.07 L 1459.64 1401.27 C 1476.73 1404.53 1492.3 1405.34 1510.78 1409.09 C 1584.22 1424 1669.7 1466.39 1718.39 1524.57 C 1711.06 1538.34 1691.85 1565.34 1681.95 1578.32 C 1625.73 1651.12 1552.52 1709.04 1468.73 1747.01 C 1453.55 1753.91 1436.45 1760.01 1420.78 1765.81 C 1364.52 1783.67 1316.79 1793.34 1257.03 1795.87 C 1208.97 1797.9 1154.59 1793.91 1107.3 1797 C 1082.66 1799.01 1055.61 1796.72 1031.11 1797.91 C 1007.24 1796.54 970.658 1797.53 945.878 1797.5 L 786.884 1797 C 723.423 1795.28 650.522 1776.85 592.478 1752.09 C 573.489 1743.99 553.349 1733.28 534.943 1723.65 C 534.958 1695.79 534.258 1665.7 536.767 1638.12 C 541.907 1581.6 569.293 1531.47 606.282 1489.43 C 650.822 1438.8 718.275 1404.76 785.883 1400.58 C 785.111 1371.4 785.728 1339.18 785.638 1309.78 L 785.342 1120.5 L 785.365 1020.77 C 785.375 1006.29 784.676 980.242 786.147 966.732 C 801.476 968.587 822.508 967.758 838.223 967.514 C 892.623 966.667 947.365 968.749 1001.71 967.77 C 1008.5 968.317 1020.69 967.864 1027.87 967.817 L 1027.92 740.996 z" fill="rgb(0,0,0)" transform="translate(0,0)"></path>
<path d="M 786.781 1400.82 L 1028.21 1400.94 L 1028.39 1627.78 C 1028.28 1681.31 1028.15 1734.96 1027.67 1788.49 C 1027.64 1791.45 1027.52 1794.79 1029.12 1797.17 L 1031.11 1797.91 C 1007.24 1796.54 970.658 1797.53 945.878 1797.5 L 786.884 1797 L 786.839 1565.15 C 786.88 1510.7 787.449 1455.21 786.781 1400.82 z" fill="rgb(235,59,120)" transform="translate(0,0)"></path>
<path d="M 1049.53 969.954 C 1053.37 969.381 1059.98 968.517 1063.86 968.288 C 1070.07 971.644 1082.1 968.104 1092.59 970.807 C 1140.72 972.841 1185.61 978.571 1230.82 995.835 C 1253.99 1004.68 1275.59 1016.36 1297.57 1027.76 C 1250.14 1069.64 1222.67 1113.95 1218.46 1178.21 C 1214.65 1233.84 1233.22 1288.68 1270.03 1330.56 C 1299.8 1364.77 1340.33 1387.82 1384.94 1395.93 L 1385.23 1399.07 C 1267.39 1400.45 1147.44 1398.21 1029.01 1398.86 L 1028.99 970.866 C 1036.12 970.335 1042.38 970.092 1049.53 969.954 z" fill="rgb(235,59,120)" transform="translate(0,0)"></path>
<path d="M 1049.53 969.954 C 1053.37 969.381 1059.98 968.517 1063.86 968.288 C 1070.07 971.644 1082.1 968.104 1092.59 970.807 C 1083 970.993 1057.55 971.716 1049.53 969.954 z" fill="rgb(254,215,241)" transform="translate(0,0)"></path>
<path d="M 1107.3 1797 C 1108.69 1761.33 1110.83 1733.99 1119.66 1698.91 C 1146.13 1593.66 1213.67 1503.35 1305.64 1446.27 C 1325.09 1434.2 1399.56 1397 1418.26 1401.6 C 1421.07 1408.74 1418.69 1676.07 1419.57 1704.78 C 1419.92 1716.02 1418.77 1750.97 1420.34 1764.59 C 1420.49 1764.99 1420.63 1765.4 1420.78 1765.81 C 1364.52 1783.67 1316.79 1793.34 1257.03 1795.87 C 1208.97 1797.9 1154.59 1793.91 1107.3 1797 z" fill="rgb(235,59,120)" transform="translate(0,0)"></path>
<path d="M 1638.08 1198.7 C 1635.54 1234.14 1629.6 1262.43 1612.18 1293.99 C 1582.89 1347.06 1530.04 1384.09 1471.1 1397.33 C 1467.66 1397.52 1460.4 1398.47 1457.92 1401.01 C 1447.11 1401.53 1430.55 1400.62 1419.32 1400.31 L 1420.02 1198.33 L 1638.08 1198.7 z" fill="rgb(235,59,120)" transform="translate(0,0)"></path>
<path d="M 1384.94 1395.93 C 1388.58 1396.61 1390.01 1396.82 1393.62 1397.07 L 1394.04 1399.21 C 1390.96 1399.06 1388.3 1399.06 1385.23 1399.07 L 1384.94 1395.93 z" fill="rgb(198,52,107)" transform="translate(0,0)"></path>
<path d="M 1393.62 1397.07 C 1395.72 1397.22 1397.7 1397.62 1399.77 1398.01 L 1399.47 1397.94 C 1400.11 1398.13 1400.75 1398.31 1401.38 1398.49 C 1400.84 1398.63 1400.3 1398.78 1399.75 1398.92 L 1400.34 1398.79 L 1399.19 1398.91 C 1397.45 1399.06 1395.78 1399.14 1394.04 1399.21 L 1393.62 1397.07 z" fill="rgb(96,38,55)" transform="translate(0,0)"></path>
<path d="M 534.943 1723.65 C 510.368 1709.02 482.759 1691.11 460.583 1673.4 C 375.375 1605.31 312.701 1513.09 280.761 1408.8 C 268.623 1368.96 260.885 1327.92 257.685 1286.4 C 255.2 1256.25 255.869 1223.12 255.81 1192.68 L 255.958 1040.88 L 255.909 876.367 C 255.915 816.029 253.987 774.585 263.566 714.823 C 273.617 653.813 293.802 594.913 323.286 540.563 C 392.877 411.657 510.722 315.589 651.007 273.404 C 686.228 262.705 722.432 255.564 759.078 252.089 C 796.697 248.827 837.505 249.794 875.484 249.886 L 1030.17 249.978 L 1175.02 249.968 C 1226.59 249.739 1276.56 248.056 1327.7 256.517 C 1420.7 271.905 1506.04 308.549 1580.51 366.447 C 1672.23 436.902 1739.21 534.671 1771.77 645.652 C 1782.39 680.904 1789.27 717.172 1792.31 753.862 C 1795.67 793.006 1794.98 829.715 1794.99 868.926 L 1795.03 1015.3 L 1794.98 1170.62 C 1794.74 1318.09 1790.35 1392.78 1718.39 1524.57 C 1669.7 1466.39 1584.22 1424 1510.78 1409.09 C 1492.3 1405.34 1476.73 1404.53 1459.64 1401.27 L 1458.63 1401.07 L 1457.92 1401.01 C 1460.4 1398.47 1467.66 1397.52 1471.1 1397.33 C 1475.86 1399.98 1486.98 1398.48 1494.27 1399.13 C 1580.86 1399.72 1667.45 1399.78 1754.04 1399.31 L 1754.58 840.589 C 1754.54 804.815 1754.82 775.115 1750.39 739.629 C 1736.43 627.87 1685.73 523.919 1606.26 444.108 C 1516.57 354.008 1397.03 299.811 1270.16 291.723 C 1246.3 290.027 1218.94 290.647 1194.88 290.771 L 1099.12 290.919 L 806.617 290.758 C 671.445 291.093 538.914 349.694 444 445.356 C 358.005 533.371 306.677 649.474 299.457 772.315 C 298.3 790.087 298.897 813.887 298.925 832.033 L 299.036 933.556 L 298.661 1203.8 C 303.238 1195.8 307.483 1187.64 312.31 1179.8 C 383.727 1062.94 515.598 979.912 652.225 967.706 C 670.161 966.104 770.68 962.425 786.147 966.732 C 784.676 980.242 785.375 1006.29 785.365 1020.77 L 785.342 1120.5 L 785.638 1309.78 C 785.728 1339.18 785.111 1371.4 785.883 1400.58 C 718.275 1404.76 650.822 1438.8 606.282 1489.43 C 569.293 1531.47 541.907 1581.6 536.767 1638.12 C 534.258 1665.7 534.958 1695.79 534.943 1723.65 z" fill="rgb(235,59,120)" transform="translate(0,0)"></path>
<path d="M 1457.92 1401.01 C 1460.4 1398.47 1467.66 1397.52 1471.1 1397.33 C 1475.86 1399.98 1486.98 1398.48 1494.27 1399.13 C 1483.69 1400.66 1470.81 1399.78 1458.63 1401.07 L 1457.92 1401.01 z" fill="rgb(254,215,241)" transform="translate(0,0)"></path>
<path d="M 1001.71 967.77 C 1001.12 965.536 993.359 965.326 990.602 964.882 C 938.605 956.52 888.736 931.631 851.534 894.24 C 807.241 849.23 782.541 788.533 782.82 725.386 C 783.63 661.937 809.277 601.333 854.258 556.577 C 902.307 509.664 961.591 484.349 1029.05 485.482 C 1094.19 486.793 1156.04 514.321 1200.61 561.835 C 1247.12 610.559 1269.91 674.214 1268.08 741.182 C 1189.71 739.71 1106.54 741.032 1027.92 740.996 L 1027.87 967.817 C 1020.69 967.864 1008.5 968.317 1001.71 967.77 z" fill="rgb(235,59,120)" transform="translate(0,0)"></path>
<metadata><recraft-signature>{"signed_by": "recraft", "signature_b64": "nxIwY+jI13CKXEY1DlO+pgFh+X6m7hIJN3Wiw4KfoGb9hcP/UUcxAiN+anm3Bga6tlA4awq7hk8OU6zofkM7AQ==", "signing_algo": "Ed25519", "generation_timestamp": 1772810668, "identifier": "7a8ea730-ebae-439c-90df-98eeaf2057d3"}</recraft-signature></metadata></svg>