<svg xmlns="http://www.w3.org/2000/svg" height="1024" preserveAspectRatio="none" style="display: block;" version="1.1" viewBox="0 0 2048 2048" width="1024">
<path d="M 0 0 L 2048 0 L 2048 2048 L 0 2048 L 0 0 z" fill="rgb(255,255,255)" transform="translate(0,0)"></path>
<path d="M 631.169 302.641 C 713.866 270.629 784.775 270.15 871.415 270.119 L 1023.75 270.154 L 1173 270.151 C 1266.53 270.151 1326.86 269.774 1415.95 302.367 C 1456.71 316.839 1496.32 338.193 1532.13 362.334 C 1635.35 428.776 1718.47 547.485 1745.76 667.164 C 1755.22 716.338 1759.26 739.771 1759.04 790.535 C 1759.03 831.939 1760.4 881.305 1759.06 922.022 C 1757.29 938.045 1757.79 958.943 1757.81 975.306 L 1757.92 1052.07 L 1757.2 1211.58 C 1757.25 1251.67 1758.83 1292.82 1754.12 1332.51 C 1740.07 1445.31 1687.91 1549.94 1606.29 1629.06 C 1524.38 1708.57 1418.76 1759.19 1305.48 1773.26 C 1264.09 1778.37 1221.98 1777.45 1180.31 1777.54 L 1038.05 1777.5 C 1035.77 1777.49 1033.5 1777.42 1031.22 1777.28 L 1016.87 1777.29 C 993.899 1777.63 970.778 1777.56 947.792 1777.6 L 851.778 1777.74 C 818.067 1777.77 788.701 1778.01 754.999 1774.79 C 635.67 1763.01 524.1 1710.28 439.25 1625.55 C 356.908 1544.69 305.16 1437.77 292.829 1323.02 C 289.13 1287.02 290.113 1238.37 289.917 1201.53 L 289.065 1051.62 L 289.161 963.278 C 289.176 953.466 289.763 929.376 288.446 920.699 C 287.403 907.516 287.964 886.729 287.953 873.221 L 287.922 789.601 C 287.978 741.331 293.171 712.101 303.301 665.923 C 331.488 544.614 411.613 430.603 515.85 362.519 C 554.891 336.388 587.21 319.479 631.169 302.641 z" fill="rgb(254,52,130)" transform="translate(0,0)"></path>
<path d="M 631.169 302.641 C 713.866 270.629 784.775 270.15 871.415 270.119 L 1023.75 270.154 L 1173 270.151 C 1266.53 270.151 1326.86 269.774 1415.95 302.367 C 1456.71 316.839 1496.32 338.193 1532.13 362.334 C 1635.35 428.776 1718.47 547.485 1745.76 667.164 C 1755.22 716.338 1759.26 739.771 1759.04 790.535 C 1759.03 831.939 1760.4 881.305 1759.06 922.022 C 1744.74 914.057 1726.1 907.026 1710.21 902.26 C 1620.61 875.389 1518.79 878.393 1429.48 903.791 C 1285.79 945.285 1164.53 1042.28 1092.49 1173.36 C 1061.01 1229.97 1039.19 1295.1 1029.95 1359.05 C 1028.23 1370.93 1024.73 1391.03 1024.92 1402.73 C 1024.06 1406.26 1023.7 1409.02 1023.06 1412.55 C 1022.43 1402.81 1021.81 1393.02 1020.92 1383.31 C 992.517 1073 688.549 832.43 379.355 892.258 C 346.927 898.533 319.159 909.069 288.446 920.699 C 287.403 907.516 287.964 886.729 287.953 873.221 L 287.922 789.601 C 287.978 741.331 293.171 712.101 303.301 665.923 C 331.488 544.614 411.613 430.603 515.85 362.519 C 554.891 336.388 587.21 319.479 631.169 302.641 z" fill="rgb(254,52,130)" transform="translate(0,0)"></path>
<path d="M 676.013 547.247 C 719.714 579.847 742.84 591.333 791.161 615.102 L 791.547 844.641 C 896.134 908.05 951.367 958.153 1024.14 1054.73 C 1087.4 967.877 1162.15 897.136 1256.92 845.313 L 1256.8 692.973 C 1256.77 670.758 1257.78 636.24 1256.41 615.229 C 1302.25 593.335 1329.34 578.811 1371.48 548.561 C 1373.26 609.348 1371.3 672.072 1372.32 733.046 C 1372.65 752.796 1371.94 773.499 1372.62 793.101 C 1397.5 786.344 1423.09 779.214 1448.32 774.155 C 1526.09 758.567 1606.11 757.872 1684.14 772.108 C 1701.72 775.237 1742.68 784.13 1759.04 790.535 C 1759.03 831.939 1760.4 881.305 1759.06 922.022 C 1744.74 914.057 1726.1 907.026 1710.21 902.26 C 1620.61 875.389 1518.79 878.393 1429.48 903.791 C 1285.79 945.285 1164.53 1042.28 1092.49 1173.36 C 1061.01 1229.97 1039.19 1295.1 1029.95 1359.05 C 1028.23 1370.93 1024.73 1391.03 1024.92 1402.73 C 1024.06 1406.26 1023.7 1409.02 1023.06 1412.55 C 1022.43 1402.81 1021.81 1393.02 1020.92 1383.31 C 992.517 1073 688.549 832.43 379.355 892.258 C 346.927 898.533 319.159 909.069 288.446 920.699 C 287.403 907.516 287.964 886.729 287.953 873.221 L 287.922 789.601 C 322.685 780.985 349.905 773.713 386.029 768.352 C 483.14 754.886 582.04 763.627 675.283 793.917 C 676.517 760.31 676.057 725.574 675.96 691.862 C 675.699 643.658 675.717 595.452 676.013 547.247 z" fill="rgb(23,25,58)" transform="translate(0,0)"></path>
<path d="M 631.169 302.641 C 713.866 270.629 784.775 270.15 871.415 270.119 L 1023.75 270.154 L 1173 270.151 C 1266.53 270.151 1326.86 269.774 1415.95 302.367 C 1410.74 315.498 1396.9 338.603 1389.02 350.373 C 1345.6 415.482 1285.69 467.915 1215.41 502.332 C 1110.77 552.769 990.444 559.83 880.626 521.977 C 783.517 487.783 701.358 420.82 648.278 332.604 C 642.673 323.278 635.867 312.335 631.169 302.641 z" fill="rgb(23,25,58)" transform="translate(0,0)"></path>
<path d="M 303.301 665.923 C 331.488 544.614 411.613 430.603 515.85 362.519 C 534.434 395.788 543.228 410.39 565.867 440.655 C 565.076 509.848 565.821 580.236 565.921 649.509 C 503.219 640.476 439.522 640.807 376.917 650.493 C 369.883 651.571 302.774 665.754 303.301 665.923 z" fill="rgb(23,25,58)" transform="translate(0,0)"></path>
<path d="M 1532.13 362.334 C 1635.35 428.776 1718.47 547.485 1745.76 667.164 C 1742.27 666.759 1728.41 662.744 1724.43 661.668 C 1710.88 657.999 1698.5 655.036 1684.67 652.597 C 1618.04 640.901 1549.98 639.765 1482.99 649.229 C 1482.8 580.136 1483.28 509.957 1482.23 440.974 C 1502.95 413.304 1516.21 392.984 1532.13 362.334 z" fill="rgb(23,25,58)" transform="translate(0,0)"></path>
<path d="M 289.065 1051.62 C 306.218 1070.49 329.075 1091.52 347.593 1110 L 479.044 1240.65 L 854.085 1614.48 C 907.399 1667.86 965.2 1723.18 1016.87 1777.29 C 993.899 1777.63 970.778 1777.56 947.792 1777.6 L 851.778 1777.74 C 818.067 1777.77 788.701 1778.01 754.999 1774.79 C 635.67 1763.01 524.1 1710.28 439.25 1625.55 C 356.908 1544.69 305.16 1437.77 292.829 1323.02 C 289.13 1287.02 290.113 1238.37 289.917 1201.53 L 289.065 1051.62 z" fill="rgb(23,25,58)" transform="translate(0,0)"></path>
<path d="M 1757.92 1052.07 L 1757.2 1211.58 C 1757.25 1251.67 1758.83 1292.82 1754.12 1332.51 C 1740.07 1445.31 1687.91 1549.94 1606.29 1629.06 C 1524.38 1708.57 1418.76 1759.19 1305.48 1773.26 C 1264.09 1778.37 1221.98 1777.45 1180.31 1777.54 L 1038.05 1777.5 C 1035.77 1777.49 1033.5 1777.42 1031.22 1777.28 C 1092.43 1713.93 1157.34 1650.94 1219.9 1588.72 L 1579.51 1230.15 C 1639.34 1171.15 1698.81 1111.79 1757.92 1052.07 z" fill="rgb(23,25,58)" transform="translate(0,0)"></path>
<path d="M 1024.92 1402.73 C 1025.14 1407.35 1025.05 1427.71 1023.38 1431.59 C 1023.21 1427.55 1022.33 1416.12 1023.06 1412.55 C 1023.7 1409.02 1024.06 1406.26 1024.92 1402.73 z" fill="rgb(169,26,90)" transform="translate(0,0)"></path>
<metadata><recraft-signature>{"signed_by": "recraft", "signature_b64": "dtKNXpRkPrCWaNgHuEYJFilwForeEs6buhASzNBqe88QLX/e3kN0QnS/rSeR/qGUgkmcB+waJJkAbD3cN/pmDA==", "signing_algo": "Ed25519", "generation_timestamp": 1772810716, "identifier": "d70e9930-085c-40d6-b5b6-866cfe630549"}</recraft-signature></metadata></svg>