<svg xmlns="http://www.w3.org/2000/svg" height="1024" preserveAspectRatio="none" style="display: block;" version="1.1" viewBox="0 0 2048 2048" width="1024">
<path d="M 0 0 L 2048 0 L 2048 2048 L 0 2048 L 0 0 z" fill="rgb(253,253,253)" transform="translate(0,0)"></path>
<path d="M 819.765 260.471 C 851.415 259.677 885.144 260.158 916.906 260.136 L 1083.7 260.062 L 1190.94 260.254 C 1215.78 260.334 1243.27 259.989 1267.92 262.017 C 1398.8 272.982 1521.89 328.748 1616.43 419.911 C 1724.86 522.721 1787.33 664.858 1789.74 814.259 C 1790.64 851.365 1790.05 890.232 1789.98 927.491 L 1789.97 1089.12 L 1789.95 1185.43 C 1789.99 1211.32 1790.56 1236.21 1788.63 1262.07 C 1778.05 1403.9 1724.2 1517.92 1626.92 1620.06 C 1523.54 1726.75 1382.09 1788.13 1233.55 1790.75 L 951.557 1790.78 L 853.405 1790.68 C 843.863 1790.65 834.118 1790.39 824.632 1790.43 C 522.879 1791.84 266.348 1538.5 261.121 1237.26 C 260.59 1206.68 261.04 1176.05 261.046 1145.49 L 261.059 970.62 C 261.042 908.189 258.465 826.684 264.292 766.676 C 277.265 642.319 331.511 525.889 418.378 435.96 C 523.406 326.261 667.916 263.08 819.765 260.471 z" fill="rgb(254,66,1)" transform="translate(0,0)"></path>
<path d="M 889.21 1302.28 C 916.813 1301.76 946.259 1302.31 973.985 1302.34 L 1159.08 1302.22 L 1159.03 1450 L 1601.82 1450.24 C 1577.2 1493.75 1539.31 1534.08 1500.73 1565.51 C 1433.93 1620.38 1352.46 1654.36 1266.47 1663.22 C 1242.31 1665.54 1219.18 1665.02 1194.96 1664.96 C 1173.51 1571.97 1104.83 1488.89 1019.56 1447 C 979.948 1427.53 933.153 1413.54 889.006 1412.96 C 888.887 1376.07 888.955 1339.17 889.21 1302.28 z" fill="rgb(253,253,253)" transform="translate(0,0)"></path>
<path d="M 630.706 919.376 C 688.594 918.398 748.518 919.05 806.505 918.997 C 923.87 918.632 1041.24 918.925 1158.6 919.876 L 1158.78 1110.85 C 1158.81 1119.13 1159.81 1175.25 1157.72 1178.92 L 889.202 1178.98 C 888.621 1132.59 888.948 1085.53 888.927 1039.08 C 802.989 1038.86 716.362 1039.78 630.516 1038.56 C 630.051 999.242 630.483 958.693 630.706 919.376 z" fill="rgb(253,253,253)" transform="translate(0,0)"></path>
<path d="M 759.739 391.36 L 764.047 390.879 C 764.795 391.209 765.543 391.54 766.291 391.87 C 767.01 399.363 767.768 406.879 768.746 414.34 C 772.938 446.312 784.418 476.96 799.872 505.14 C 803.859 512.408 808.569 519.278 813.253 526.127 C 743.215 525.622 675.206 549.63 621.007 593.994 C 557.587 646.416 517.12 721.512 508.211 803.309 C 477.962 811.631 439.671 832.665 414.503 850.78 C 404.088 858.332 393.927 866.228 384.037 874.455 C 384.914 845.397 382.515 813.523 385.547 784.785 C 406.259 588.474 564.836 420.687 759.739 391.36 z" fill="rgb(253,253,253)" transform="translate(0,0)"></path>
<path d="M 1284.08 389.747 C 1299.18 390.731 1327.82 397.481 1342.03 401.757 C 1407.95 421.289 1468.54 455.617 1519.18 502.123 C 1598.85 575.162 1657.34 686.063 1662.15 794.855 L 1612.5 794.833 L 1542.4 794.877 C 1539.64 731.714 1502.93 657.866 1458.37 614.291 C 1395.26 552.571 1320.25 526.774 1233.91 526.136 C 1263.69 478.855 1277.88 446.591 1284.08 389.747 z" fill="rgb(253,253,253)" transform="translate(0,0)"></path>
<path d="M 1660.9 1141.01 C 1664.07 1146.57 1661.69 1264.66 1660.66 1277.7 C 1659.15 1295.39 1656.63 1312.98 1653.12 1330.39 L 1281.29 1329.84 C 1279.11 1326.86 1280.4 1218.32 1280.42 1205.79 C 1349.25 1204.54 1420.58 1208.12 1489.19 1204.45 C 1551.87 1201.1 1608.75 1174.92 1660.9 1141.01 z" fill="rgb(253,253,253)" transform="translate(0,0)"></path>
<path d="M 889.029 647.757 C 978.21 647.586 1069.76 647.272 1158.8 648.392 L 1158.74 794.71 C 1069.76 795.881 978.439 794.621 889.18 794.928 L 889.029 647.757 z" fill="rgb(253,253,253)" transform="translate(0,0)"></path>
<path d="M 710.439 1160.5 C 729.659 1160.26 748.882 1160.25 768.103 1160.46 L 768.306 1413.35 C 741.039 1412.97 713.769 1412.84 686.5 1412.94 L 630.268 1413.02 L 630.605 1160.79 L 710.439 1160.5 z" fill="rgb(253,253,253)" transform="translate(0,0)"></path>
<path d="M 887.773 385.036 L 1162.51 385.121 C 1161.33 418.112 1142.26 452.269 1120.32 476.139 C 1068.67 529.51 997.944 535.718 940.452 487.719 C 906.811 459.632 890.849 428.419 887.773 385.036 z" fill="rgb(253,253,253)" transform="translate(0,0)"></path>
<path d="M 506.836 939.018 L 507.397 939.571 C 509.437 946.023 508.331 999.411 508.33 1009.2 L 508.532 1179.02 L 386.251 1179.01 C 384.596 1175.21 385.228 1164.71 385.076 1160.05 C 382.058 1068 421.475 981.875 506.836 939.018 z" fill="rgb(253,253,253)" transform="translate(0,0)"></path>
<path d="M 1280.56 919.224 C 1326.49 918.654 1373.7 919.328 1419.77 919.333 L 1420.03 1079 L 1280.01 1079.28 C 1279.59 1025.92 1279.77 972.571 1280.56 919.224 z" fill="rgb(253,253,253)" transform="translate(0,0)"></path>
<path d="M 683.25 1536.5 C 710.93 1536.18 740.773 1536.01 768.365 1536.78 L 768.24 1661.26 C 718.958 1654.01 689.039 1645.03 644.218 1623.98 C 601.71 1604.56 554.117 1571.01 522.109 1536.92 L 683.25 1536.5 z" fill="rgb(253,253,253)" transform="translate(0,0)"></path>
<path d="M 889.393 1537.15 C 969.085 1545.97 1039.18 1588.83 1070.02 1665.07 L 889.286 1664.9 C 889.038 1622.32 889.073 1579.73 889.393 1537.15 z" fill="rgb(253,253,253)" transform="translate(0,0)"></path>
<path d="M 1280.44 650.958 C 1354.1 668.316 1407.56 718.625 1419.59 794.816 C 1373.58 795.481 1326.04 794.886 1279.9 794.86 C 1279.65 746.892 1279.83 698.923 1280.44 650.958 z" fill="rgb(253,253,253)" transform="translate(0,0)"></path>
<path d="M 766.948 655.303 C 768.561 657.388 767.985 780.911 768.005 794.641 L 637.08 794.999 L 636.213 794.277 C 633.152 782.283 647.708 749.1 654.285 738.479 C 682.963 692.167 715.82 669.055 766.948 655.303 z" fill="rgb(253,253,253)" transform="translate(0,0)"></path>
<path d="M 1544.23 919.323 L 1661.56 919.838 C 1657.45 957.169 1638.13 991.714 1613.96 1019.72 C 1593.31 1042.42 1572.56 1055.66 1544.92 1067.68 L 1544.23 919.323 z" fill="rgb(253,253,253)" transform="translate(0,0)"></path>
<path d="M 392.192 1302.2 C 430.249 1301.47 469.87 1302.01 508.045 1302 L 508.275 1413.11 C 481.556 1412.94 454.836 1412.97 428.118 1413.21 C 409.78 1372.47 401.669 1345.12 392.192 1302.2 z" fill="rgb(253,253,253)" transform="translate(0,0)"></path>
<metadata><recraft-signature>{"signed_by": "recraft", "signature_b64": "ISp6GXRx/5IxIZ8+3hU9TeCzobuG+585j8855EkZRtdBNcdgHcacoyJdtT0IWM4uvUApgXM18RsM+VkuhbXzDg==", "signing_algo": "Ed25519", "generation_timestamp": 1772810313, "identifier": "556fff62-69d7-4ed9-8211-11dd4663177b"}</recraft-signature></metadata></svg>