<svg xmlns="http://www.w3.org/2000/svg" height="1024" preserveAspectRatio="none" style="display: block;" version="1.1" viewBox="0 0 2048 2048" width="1024">
<path d="M 0 0 L 2048 0 L 2048 2048 L 0 2048 L 0 0 z" fill="rgb(255,255,255)" transform="translate(0,0)"></path>
<path d="M 1027.22 318.023 C 1046.64 339.831 1072.72 363.296 1093.54 384.691 C 1138.99 431.407 1186.27 476.957 1230.85 524.504 C 1210.46 542.598 1182.64 573.428 1162.57 594.178 C 1129.36 563.423 1099.28 532.426 1067 500.803 C 1067.26 580.39 1066.02 661.56 1067.2 740.875 C 1090.05 751.624 1108.46 769.974 1119.29 792.792 C 1133.59 823.405 1130.99 848.119 1119.71 878.667 C 1214.96 787.832 1308.39 693.032 1402.57 600.791 C 1417.43 614.138 1436.09 633.512 1450.2 647.808 C 1438.53 658.336 1425.64 672.006 1414.39 683.4 L 1339.35 760.237 L 1119.11 981.691 C 1133.76 1011.53 1130.7 1039.38 1118.85 1069.08 C 1131.4 1082.59 1146.41 1096.14 1159.67 1109.22 L 1227.8 1177.41 C 1301.32 1251.66 1375.28 1325.46 1449.69 1398.82 C 1433.66 1414.02 1417.37 1431.49 1401.89 1447.5 C 1351.83 1397.44 1301.35 1347.81 1250.45 1298.61 C 1207.31 1256.32 1165.73 1214.11 1121.2 1173.12 C 1136.36 1208.83 1128.39 1251.87 1102.33 1280.55 C 1091.85 1292.09 1080.13 1299.49 1067.26 1307.98 C 1066.45 1335.98 1066.98 1366.28 1066.99 1394.41 L 1067.1 1550.14 L 1162.61 1453.41 L 1230.06 1522.53 C 1205.6 1549.54 1177.16 1578.15 1151.6 1604.39 C 1111.4 1645.37 1071.42 1686.56 1031.66 1727.95 C 1029.43 1730.05 1030.72 1729.59 1028.03 1730.06 C 1016.7 1720.09 1006.33 1708.17 995.335 1697.44 C 950.967 1654.13 907.875 1609.38 863.118 1566.42 C 850.343 1554.16 836.388 1538.24 823.51 1527.02 C 843.438 1504.4 871.868 1476.07 893.249 1454.32 C 902.252 1461.93 917.202 1477.62 925.937 1486.37 C 946.419 1506.76 966.711 1527.35 986.81 1548.12 C 985.97 1468.35 986.802 1387.51 986.958 1307.66 C 963.091 1293.23 944.185 1280.39 932.723 1254.05 C 920.061 1224.95 920.624 1202.21 931.42 1173.23 C 897.06 1201.66 849.406 1251.97 816.178 1284.99 C 764.397 1336.45 702.552 1393.65 653.831 1447.53 C 639.356 1432.27 618.812 1413.44 603.284 1398.1 C 645.584 1355.88 687.332 1312.64 729.6 1270.66 C 796.779 1203.94 867.992 1136.41 932.862 1067.68 C 919.411 1034.86 921.931 1014.63 934.338 982.441 C 899.406 947.676 865.249 911.634 830.872 876.474 L 715.716 760.328 C 693.56 738.048 671.257 715.916 648.808 693.932 C 634.079 679.629 615.391 662.501 602.116 647.571 L 651.476 599.598 L 813.485 758.752 L 879.264 822.86 C 897.666 840.699 915.667 857.486 933.06 876.39 C 919.327 839.088 922.364 803.149 947.625 771.4 C 959.461 756.524 970.877 749.984 986.954 740.741 L 986.536 502.662 C 956.969 534.055 925.423 564.939 895.005 595.655 C 872.089 574.067 847.274 548.498 824.409 526.164 C 869.778 478.262 915.76 430.942 962.342 384.217 C 982.311 363.993 1006.78 336.691 1027.22 318.023 z" fill="rgb(253,67,25)" transform="translate(0,0)"></path>
<path d="M 1020.63 992.398 C 1040.52 988.947 1059.41 1002.36 1062.7 1022.28 C 1065.99 1042.19 1052.42 1060.97 1032.48 1064.1 C 1012.77 1067.2 994.243 1053.82 990.989 1034.13 C 987.735 1014.44 1000.97 995.811 1020.63 992.398 z" fill="rgb(255,255,255)" transform="translate(0,0)"></path>
<path d="M 1018.94 1177.45 C 1038.19 1173.12 1057.33 1185.12 1061.82 1204.34 C 1066.3 1223.55 1054.44 1242.78 1035.26 1247.41 C 1015.88 1252.09 996.387 1240.08 991.855 1220.66 C 987.324 1201.23 999.485 1181.84 1018.94 1177.45 z" fill="rgb(255,255,255)" transform="translate(0,0)"></path>
<path d="M 1021.82 799.754 C 1040.84 796.847 1058.61 809.882 1061.56 828.89 C 1064.51 847.899 1051.51 865.705 1032.51 868.69 C 1013.45 871.684 995.58 858.64 992.625 839.576 C 989.67 820.512 1002.75 802.67 1021.82 799.754 z" fill="rgb(255,255,255)" transform="translate(0,0)"></path>
<path d="M 1247.75 289.5 L 1336.7 289.573 C 1358.53 289.68 1380.82 289.357 1402.57 290.549 C 1495.79 295.656 1588.53 340.033 1653.56 405.92 C 1715.41 468.968 1753.35 551.596 1760.87 639.593 C 1764.35 678.575 1762.9 729.421 1762.9 769.255 L 1762.71 972.521 C 1735.92 944.561 1708.34 917.832 1680.91 890.5 L 1658.06 867.534 L 1657.99 736.764 C 1657.97 708.501 1658.95 673.53 1656.11 646.029 C 1649.07 581.803 1620.32 521.903 1574.6 476.247 C 1530.65 432.46 1473.15 404.866 1411.5 397.97 C 1381.95 394.868 1346.41 395.855 1316.14 395.81 C 1274.02 395.492 1231.9 395.397 1189.78 395.526 C 1179.21 386.841 1156.54 362.879 1146.73 352.685 C 1126.43 331.521 1105.94 310.538 1085.27 289.739 C 1138.48 290.702 1194.42 289.727 1247.75 289.5 z" fill="rgb(253,67,25)" transform="translate(0,0)"></path>
<path d="M 293.874 1086.33 C 299.133 1089.57 321.476 1113.52 327.742 1119.87 L 398.172 1190.53 C 399.041 1233.32 398.07 1277 398.52 1319.85 C 398.79 1345.49 397.587 1374.06 399.837 1399.37 C 405.448 1462.47 433.706 1525.97 478.649 1570.97 C 525.197 1618.35 586.981 1647.77 653.105 1654.05 C 676.275 1656.2 709.436 1655.32 733.354 1655.32 L 863.394 1655.17 C 874.278 1664.69 968.299 1759.69 968.455 1760.92 L 690.183 1761.8 C 576.122 1761.05 482.631 1725.7 402.024 1643.88 C 339.809 1579.94 301.871 1496.28 294.759 1407.36 C 291.806 1370.49 293.713 1313.16 293.857 1274.59 L 293.874 1086.33 z" fill="rgb(253,67,25)" transform="translate(0,0)"></path>
<path d="M 1761.08 1088.63 L 1762.52 1089.37 C 1763.82 1100.61 1762.81 1137.66 1762.82 1151.5 L 1762.91 1286.95 C 1762.88 1326.71 1763.94 1368.07 1760.88 1407.47 C 1746.37 1594.52 1590.93 1748.07 1403.73 1760.33 C 1366.27 1762.79 1326.2 1761.26 1288.43 1761.22 L 1085.02 1761.04 L 1084.14 1760.27 C 1085.31 1756.81 1178.49 1665.94 1189.47 1655.13 C 1248.7 1655.09 1309.02 1654.98 1368.67 1655.83 C 1517.38 1657.96 1641.91 1547.68 1656.48 1399.54 C 1659.37 1370.17 1658.1 1338.91 1658.1 1309.1 C 1658.22 1270.15 1658.15 1231.19 1657.88 1192.23 C 1666.73 1181.31 1688.81 1161.23 1699.68 1150.57 C 1720.27 1130.05 1740.74 1109.4 1761.08 1088.63 z" fill="rgb(253,67,25)" transform="translate(0,0)"></path>
<path d="M 655.681 290.421 C 662.639 289.504 679.718 289.853 687.354 289.864 L 741.418 289.803 C 816.677 289.506 892.706 290.886 967.873 289.674 C 942.324 317.506 914.117 343.581 887.476 370.409 C 879.002 378.943 869.978 387.589 860.98 395.521 C 852.082 395.688 842.172 395.286 833.106 395.271 L 728.985 395.4 C 700.029 395.451 670.761 394.898 642 398.392 C 580.967 405.987 524.172 433.593 480.492 476.892 C 434.533 522.01 406.054 581.958 400.116 646.088 C 396.876 678.343 398.027 725.501 398.135 758.25 C 398.413 793.772 398.479 829.296 398.331 864.819 C 374.738 886.381 353.026 910.976 329.934 933.168 C 317.825 944.805 305.722 956.434 293.927 968.393 L 293.853 764.005 C 293.858 726.957 292.222 676.583 295.138 640.67 C 301.9 561.609 333.295 486.661 384.902 426.386 C 453.336 346.663 550.866 297.691 655.681 290.421 z" fill="rgb(253,67,25)" transform="translate(0,0)"></path>
<path d="M 528.862 818.795 C 552.943 840.14 574.677 864.138 597.972 886.317 C 565.941 918.83 536.231 954.211 502.979 986.8 C 569.27 987.249 635.563 987.221 701.853 986.715 C 734.594 921.345 826.802 915.338 865.174 978.968 C 898.083 1033.54 866.283 1101.4 805.783 1116.08 C 762.207 1126.66 723.331 1104.27 701.778 1066.64 C 672.282 1065.39 639.766 1065.98 610.159 1066.01 C 574.743 1066.12 539.326 1065.81 503.917 1065.08 C 515.634 1078.62 529.155 1091.51 541.838 1104.25 C 560.636 1123.13 579.599 1142.95 599.106 1161.04 C 584.787 1175.43 570.383 1189.73 555.896 1203.94 C 548.128 1211.62 536.902 1223.44 528.541 1229.77 C 514.141 1216.02 499.487 1201.93 485.653 1187.61 C 432.219 1132.32 373.374 1080.83 319.86 1025.78 C 352.976 989.996 395.093 952.223 430.053 917.527 C 449.43 898.256 468.672 878.851 487.779 859.313 C 500.614 846.247 515.237 830.788 528.862 818.795 z" fill="rgb(253,67,25)" transform="translate(0,0)"></path>
<path d="M 779.222 998.745 C 794.357 995.116 809.57 1004.44 813.212 1019.57 C 816.854 1034.7 807.546 1049.92 792.417 1053.58 C 777.27 1057.23 762.027 1047.91 758.381 1032.76 C 754.735 1017.61 764.069 1002.38 779.222 998.745 z" fill="rgb(255,255,255)" transform="translate(0,0)"></path>
<path d="M 1523.74 820.734 C 1527.34 823.485 1538.96 835.24 1543.1 839.215 L 1582.34 876.651 C 1633.11 925.418 1683.37 974.713 1733.12 1024.53 C 1713.94 1045.4 1691.29 1066.4 1670.88 1086.15 L 1605.75 1150.21 C 1582.1 1173.23 1548.32 1209.45 1524.52 1229.96 C 1502.69 1207.61 1479.52 1186.8 1457.71 1163.96 C 1465.35 1155.65 1474.69 1146.8 1482.7 1138.44 C 1505.58 1114.42 1528.27 1090.23 1550.77 1065.86 L 1440.5 1065.92 L 1349.01 1065.91 C 1334.98 1086.16 1326.27 1099.2 1303.19 1110.04 C 1281.31 1120.36 1256.22 1121.51 1233.48 1113.25 C 1211.47 1105.16 1191.18 1087.36 1181.41 1065.91 C 1170.84 1042.79 1169.93 1016.4 1178.89 992.61 C 1187.74 969.502 1204.89 952.078 1227.51 942.146 C 1250.46 932.091 1276.46 931.533 1299.83 940.593 C 1321.24 948.978 1340.36 965.731 1349.53 987.031 C 1417.16 986.479 1485.06 987.721 1552.71 986.786 C 1520.99 954.526 1489.05 916.717 1457.52 885.912 C 1475.85 866.259 1503.53 838.626 1523.74 820.734 z" fill="rgb(253,67,25)" transform="translate(0,0)"></path>
<path d="M 1264.52 997.602 C 1279.92 996.88 1293.07 1008.59 1294.14 1023.97 C 1295.21 1039.34 1283.8 1052.76 1268.46 1054.17 C 1258.21 1055.12 1248.26 1050.44 1242.45 1041.96 C 1236.64 1033.47 1235.88 1022.51 1240.46 1013.3 C 1245.04 1004.09 1254.25 998.083 1264.52 997.602 z" fill="rgb(255,255,255)" transform="translate(0,0)"></path>
<path d="M 929.044 641.193 C 931.085 640.744 929.968 640.811 932.402 641.198 C 933.232 646.855 932.802 659.393 932.767 665.88 L 932.477 712.13 C 903.962 720.403 886.455 727.991 861.048 742.554 L 839.646 721.365 L 813.291 695.801 C 849.537 670.682 886.047 651.845 929.044 641.193 z" fill="rgb(253,67,25)" transform="translate(0,0)"></path>
<path d="M 1120.05 639.617 C 1162.94 648.053 1203.48 671.847 1239.48 695.228 L 1216.18 717.781 L 1191.97 742.334 C 1169.43 727.732 1145.44 719.087 1120.37 710.245 C 1119.81 687.148 1120.09 662.815 1120.05 639.617 z" fill="rgb(253,67,25)" transform="translate(0,0)"></path>
<path d="M 862.757 1307.8 C 884.51 1321.8 908.297 1332.36 933.275 1339.1 L 933.801 1409.91 C 921.571 1406.79 909.476 1403.16 897.548 1399.03 C 871.954 1389.03 837.137 1371.81 815.803 1354.75 C 829.73 1339.47 847.84 1322.5 862.757 1307.8 z" fill="rgb(253,67,25)" transform="translate(0,0)"></path>
<path d="M 1191.26 1308.12 C 1206.26 1322.92 1221.32 1338.71 1236.06 1353.86 C 1216.18 1370.95 1182.09 1388 1157.7 1398 C 1145.64 1402.58 1135.42 1406 1123.09 1409.81 L 1122.99 1339.81 C 1152.5 1329.69 1164.81 1322.88 1191.26 1308.12 z" fill="rgb(253,67,25)" transform="translate(0,0)"></path>
<path d="M 1358.63 811.098 C 1362.17 814.648 1369.16 825.522 1371.96 829.977 C 1390.57 859.63 1403.75 888.943 1410.84 923.275 L 1365.03 923.136 L 1341.29 923.336 C 1333.01 898.461 1326.09 880.636 1311.17 858.233 C 1324.92 844.582 1344.84 822.855 1358.63 811.098 z" fill="rgb(253,67,25)" transform="translate(0,0)"></path>
<path d="M 695.245 810.958 C 710.548 826.208 725.722 842.24 741.522 856.884 C 726.677 883.376 720.192 894.529 709.908 923.072 L 687.837 923.078 L 640.102 923.149 C 651.366 876.328 668.109 849.365 695.245 810.958 z" fill="rgb(253,67,25)" transform="translate(0,0)"></path>
<path d="M 1343.68 1129.35 C 1364.96 1128.48 1389.65 1129.15 1411.18 1129.23 C 1399.89 1171.61 1390.82 1193.68 1366.1 1230.43 C 1363.52 1234.12 1360.95 1237.2 1358.12 1240.67 L 1310.8 1194.54 C 1320.71 1181.7 1328.69 1167.47 1334.49 1152.32 C 1336.78 1146.42 1340.78 1134.21 1343.68 1129.35 z" fill="rgb(253,67,25)" transform="translate(0,0)"></path>
<path d="M 642.699 1129.9 C 665.4 1129.54 689.112 1129.89 711.891 1129.96 C 717.127 1151.23 728.359 1177.44 742.133 1194.54 C 734.808 1203.09 727.539 1210.19 719.566 1218.11 C 711.872 1225.41 704.181 1233.58 696.751 1241.22 C 670.378 1216.41 652.584 1163.98 642.699 1129.9 z" fill="rgb(253,67,25)" transform="translate(0,0)"></path>
<metadata><recraft-signature>{"signed_by": "recraft", "signature_b64": "4BdJTiXuoqdpBUSgfeH7ZPGceHVr6jbSUsnx2FnkTuOvD52ATCgorXReTNt7dI81INnmaCqXLtRiPQ/WQqknCg==", "signing_algo": "Ed25519", "generation_timestamp": 1772810362, "identifier": "7d920cc4-60b1-4d68-9256-e613fb280461"}</recraft-signature></metadata></svg>