<svg xmlns="http://www.w3.org/2000/svg" height="1024" preserveAspectRatio="none" style="display: block;" version="1.1" viewBox="0 0 2048 2048" width="1024">
<path d="M 0 0 L 2048 0 L 2048 2048 L 0 2048 L 0 0 z" fill="rgb(252,252,253)" transform="translate(0,0)"></path>
<path d="M 777.189 266.416 C 807.506 264.637 845.102 265.747 876.012 265.773 L 1045.14 265.763 L 1185.93 265.832 C 1221.77 265.777 1259.16 264.743 1294.68 268.137 C 1408.94 278.924 1516.85 325.64 1602.91 401.578 C 1711.96 497.363 1778.3 632.681 1787.25 777.548 C 1789.19 810.291 1788.15 849.359 1788.08 882.514 L 1788.33 1039.5 L 1788.26 1189.5 C 1788.15 1228.27 1788.98 1266.48 1784.61 1305.07 C 1771.68 1414.84 1725.6 1518.05 1652.52 1600.97 C 1555.91 1711 1419.4 1777.94 1273.25 1786.95 C 1241.27 1789 1203.45 1788.12 1170.91 1788.1 L 1005.79 1787.99 L 867.653 1787.94 C 838.19 1787.97 806.088 1788.75 776.958 1787.07 C 705.607 1782.9 635.829 1764.39 571.794 1732.64 C 529.294 1712.05 489.629 1686.07 453.785 1655.32 C 341.415 1558.81 272.558 1421.19 262.701 1273.39 C 260.432 1240.66 261.533 1201.65 261.597 1168.22 L 261.316 1013.7 C 261.135 962.291 261.213 910.879 261.55 859.468 C 261.683 827.682 260.525 796.866 263.507 765.165 C 274.249 649.613 321.057 540.364 397.308 452.879 C 494.218 342.833 630.854 275.766 777.189 266.416 z" fill="rgb(252,92,27)" transform="translate(0,0)"></path>
<path d="M 1004.55 825.924 C 1128.52 814.097 1238.5 905.284 1249.83 1029.3 C 1261.16 1153.32 1169.54 1262.93 1045.47 1273.77 C 922.109 1284.55 813.25 1193.55 801.981 1070.23 C 790.712 946.906 881.275 837.685 1004.55 825.924 z" fill="rgb(0,0,0)" transform="translate(0,0)"></path>
<path d="M 1013.78 947.274 C 1070.33 940.709 1121.54 981.095 1128.34 1037.61 C 1135.13 1094.13 1094.96 1145.51 1038.47 1152.54 C 981.651 1159.61 929.906 1119.15 923.068 1062.3 C 916.229 1005.45 956.903 953.877 1013.78 947.274 z" fill="rgb(252,92,27)" transform="translate(0,0)"></path>
<path d="M 887.859 605.759 C 923.105 626.267 960.246 634.009 1000.79 633.457 C 986.226 685.717 966.845 738.169 952.301 790.682 C 917.063 787.441 870.997 784.589 835.637 782.922 C 824.39 821.284 810.89 860.934 800.456 899.127 C 741.132 893.631 680.723 891.814 621.235 887.559 C 601.015 886.113 580.056 884.762 559.832 884.7 L 707.803 991.411 C 723.262 1002.38 743.763 1018.92 758.856 1028.28 C 743.915 1065.49 730.375 1104.01 715.294 1141.72 L 690.495 1124.8 C 580.957 1047.75 472.04 969.82 363.754 891.021 C 377.301 848.323 391.086 800.154 403.682 756.9 C 442.317 757.147 494.495 762.064 533.798 764.677 L 735.629 777.288 C 765.734 779.229 805.421 782.981 834.596 783.12 C 853.521 725.306 870.775 664.242 887.859 605.759 z" fill="rgb(0,0,0)" transform="translate(0,0)"></path>
<path d="M 1124.48 1297.84 C 1130.16 1298.88 1315.14 1438.15 1333.32 1452.2 C 1371.86 1423.68 1388.57 1416.76 1437.06 1410.13 C 1453.4 1454.91 1472.94 1501.84 1490 1547.03 C 1455.67 1571.3 1409.35 1605.42 1374.5 1627.25 C 1352.83 1613.34 1326.06 1591.79 1304.6 1576.1 L 1160.38 1470.02 C 1117.55 1438.49 1070.32 1402.07 1026.75 1372.21 C 1008.6 1388.35 977.675 1409.73 957.342 1424.53 C 924.824 1448.57 892.043 1472.25 859.007 1495.58 C 843.203 1461.32 815.061 1428 786.162 1403.78 C 799.393 1393.23 815.757 1381.79 829.514 1371.7 C 862.657 1347.61 895.63 1323.29 928.43 1298.74 C 960.175 1321.12 993.898 1347.56 1024.85 1371.3 C 1052.77 1349.43 1095.37 1318 1124.48 1297.84 z" fill="rgb(0,0,0)" transform="translate(0,0)"></path>
<path d="M 1646.67 756.44 C 1649.63 755.988 1649.65 755.75 1652.43 756.638 C 1656.17 766.352 1662.37 792.135 1665.46 803.412 L 1689.83 889.491 L 1450.19 1063.34 C 1414.39 1089.26 1369.88 1119.43 1336.05 1146.55 C 1340.03 1162.06 1353.87 1195.87 1360.01 1211.88 C 1374.99 1250.6 1389.48 1289.52 1403.47 1328.61 C 1382.39 1333.8 1356.51 1341.1 1336.76 1350.29 C 1326.25 1355.19 1314.31 1364.34 1302.71 1369.39 C 1300.14 1367.83 1300.61 1367.23 1299.16 1363.79 C 1281.14 1314.79 1259.57 1262.61 1240.37 1213.64 C 1253.15 1205.27 1266.8 1194.86 1279.33 1185.86 C 1297.84 1172.82 1316.27 1159.67 1334.62 1146.4 C 1322.95 1107.24 1304.73 1069.91 1290.9 1031.29 C 1319.13 1011.79 1347.92 990.821 1375.71 970.547 C 1419.86 938.343 1466.05 906.183 1509.56 873.357 C 1492.8 833.098 1489.01 810.574 1490.89 766.637 L 1646.67 756.44 z" fill="rgb(0,0,0)" transform="translate(0,0)"></path>
<path d="M 984.02 374.508 C 1022.4 374.294 1060.79 374.297 1099.17 374.517 C 1110.67 419.124 1125.22 467.224 1137.94 511.571 L 1190.49 696.593 C 1198.85 725.791 1207.49 753.285 1215.33 782.862 C 1191.76 783.277 1162.96 785.834 1139.24 787.758 C 1125.51 788.79 1111.35 789.348 1097.56 790.042 C 1092.62 771.643 1085.71 751.729 1080.14 733.292 L 1051.52 636.908 C 1043.16 609.519 1033.97 573.056 1024.3 546.888 C 981.785 552.82 947.256 545.395 912.301 521.006 C 918.271 503.819 924.24 481.725 929.566 463.914 L 956.587 374.91 L 984.02 374.508 z" fill="rgb(0,0,0)" transform="translate(0,0)"></path>
<path d="M 715.316 1142.19 C 717.771 1143.36 734.563 1155.55 738.046 1158 C 762.905 1175.55 787.524 1193.43 811.896 1211.65 C 803.865 1232.1 795.976 1257.74 788.297 1279.01 L 722.525 1462.05 C 759.588 1493.7 769.241 1502.97 789.004 1547.75 C 780.025 1553.34 766.304 1564.15 757.458 1570.66 C 740.385 1583.23 723.213 1595.65 705.944 1607.94 L 680.429 1627.28 C 642.01 1602.15 601.714 1573.17 563.044 1547.14 C 569.524 1526.98 581.41 1498.73 589.089 1478.16 C 606.868 1429.48 625.094 1380.96 643.764 1332.62 L 686.213 1219.89 C 695.742 1194.04 704.843 1167.63 715.316 1142.19 z" fill="rgb(0,0,0)" transform="translate(0,0)"></path>
<path d="M 1399.59 772.451 L 1400.81 772.36 C 1404.8 774.178 1403.37 782.901 1403.57 788.593 C 1404.8 822.309 1409.83 855.833 1423.63 886.906 C 1383.46 888.687 1341.11 893.562 1300.66 895.553 C 1285.51 896.299 1266.26 899.145 1251.6 898.993 C 1248.95 896.746 1249.71 896.939 1248.57 892.873 C 1237.84 859.914 1224.89 816.844 1215.78 783.548 C 1275.53 782.094 1339.56 775.597 1399.59 772.451 z" fill="rgb(0,0,0)" transform="translate(0,0)"></path>
<metadata><recraft-signature>{"signed_by": "recraft", "signature_b64": "QCxx4h+E8sxv4pGHqB3PbuYMsBb95ZbIXuQu7HA1vHG3qsGrLclTnrT8he/Kg8/lotDjnDwbbM35BX2zCAvtAQ==", "signing_algo": "Ed25519", "generation_timestamp": 1772810336, "identifier": "86113107-3d68-4002-98ef-6c4eff2e2e31"}</recraft-signature></metadata></svg>