<svg xmlns="http://www.w3.org/2000/svg" height="1024" preserveAspectRatio="none" style="display: block;" version="1.1" viewBox="0 0 2048 2048" width="1024">
<path d="M 0 0 L 2048 0 L 2048 2048 L 0 2048 L 0 0 z" fill="rgb(255,255,255)" transform="translate(0,0)"></path>
<path d="M 1010.75 502.507 C 1299.33 494.862 1539.54 722.459 1547.45 1011.03 C 1555.37 1299.6 1327.99 1540.02 1039.43 1548.2 C 750.487 1556.4 509.681 1328.66 501.757 1039.71 C 493.832 750.756 721.795 510.162 1010.75 502.507 z" fill="rgb(8,129,150)" transform="translate(0,0)"></path>
<path d="M 1002.72 566.303 C 1256.41 554.359 1471.63 750.564 1483.14 1004.27 C 1494.64 1257.97 1298.07 1472.85 1044.35 1483.93 C 791.242 1494.97 576.993 1298.98 565.513 1045.89 C 554.033 792.804 749.658 578.218 1002.72 566.303 z" fill="rgb(255,255,255)" transform="translate(0,0)"></path>
<path d="M 1020.61 590.345 C 1085.65 586.316 1125.5 682.784 1142.97 732.934 C 1186.73 714.403 1259.31 688.725 1304.62 704.711 C 1376.88 730.209 1328.63 857.183 1310.1 906.584 C 1328.42 912.116 1346.34 918.87 1363.75 926.799 C 1394.74 940.879 1440.63 969.457 1451.42 1003.05 C 1476.84 1082.19 1363.44 1122.66 1310.13 1141.47 C 1325.96 1185.11 1346.44 1237.27 1343.04 1284.1 C 1335.29 1390.92 1200.96 1338.65 1142.82 1316.94 C 1123.1 1368.48 1090.57 1455.61 1027.25 1461.78 C 961.079 1463.86 925.864 1366.93 907.489 1316.55 C 707.439 1397.16 665.883 1323.6 740.56 1141.23 C 716.493 1132.76 693.351 1124.23 671.691 1113.47 C 552.993 1054.5 583.907 968.393 692.468 923.497 C 707.364 917.337 724.606 909.872 740.923 904.685 C 724.959 861.747 693.63 785.121 709.335 740.98 C 714.508 726.142 725.44 714.014 739.663 707.335 C 785.059 686.128 864.145 715.902 909.438 732.215 C 924.962 680.976 960.389 596.869 1020.61 590.345 z" fill="rgb(8,129,150)" transform="translate(0,0)"></path>
<path d="M 1002.29 883.43 C 1039.4 882.428 1070.65 885.265 1107.73 888.199 C 1127.12 905.721 1147.52 925.2 1164.85 944.72 C 1167.15 993.446 1170.9 1040 1166.3 1088.92 C 1164.8 1104.84 1159.85 1109.34 1149.33 1120.7 C 1135.43 1135.72 1121.64 1150.99 1106.11 1164.27 C 1088.26 1166.8 1070.28 1168.37 1052.25 1168.96 C 1017.7 1169.85 980.833 1169.19 946.526 1164.67 C 928.33 1149.66 902.61 1122.54 886.605 1105.29 C 882.993 1062.97 882.51 1020.45 885.158 978.057 C 885.821 967.693 886.471 953.624 888.253 943.576 C 901.537 928.73 931.248 900.786 946.951 887.273 C 961.704 884.879 986.675 884.21 1002.29 883.43 z" fill="rgb(255,255,255)" transform="translate(0,0)"></path>
<path d="M 1017.66 927.362 C 1071.68 923.261 1118.79 963.729 1122.89 1017.75 C 1126.99 1071.77 1086.52 1118.88 1032.5 1122.98 C 978.483 1127.08 931.371 1086.61 927.271 1032.59 C 923.172 978.577 963.638 931.463 1017.66 927.362 z" fill="rgb(8,129,150)" transform="translate(0,0)"></path>
<path d="M 889.737 740.107 C 894.078 742.604 898.368 745.187 902.605 747.855 C 889.132 793.663 881.118 823.09 872.425 869.806 C 833.151 877.219 801.093 883.96 763.756 897.524 C 758.813 899.65 754.521 902.237 751.057 896.6 C 750.972 894.455 750.902 894.218 751.606 892.156 C 780.074 808.814 812.522 776.909 889.737 740.107 z" fill="rgb(255,255,255)" transform="translate(0,0)"></path>
<path d="M 754.138 1145.38 C 792.519 1159.95 832.138 1171.02 872.511 1178.46 C 874.669 1200.56 881.738 1222.66 886.174 1244.03 C 887.705 1251.4 902.128 1299.37 901.258 1302.52 L 898.118 1303.94 C 891.037 1307.21 889.698 1307.64 882.408 1304.48 C 817.034 1276.11 777.515 1227.98 753.02 1161.99 C 750.283 1154.62 750.907 1152.35 754.138 1145.38 z" fill="rgb(255,255,255)" transform="translate(0,0)"></path>
<path d="M 1304.71 920.245 C 1310.34 921.568 1315.89 923.786 1321.32 925.793 C 1361.46 992.049 1354.02 1056.72 1321.34 1123.17 C 1316.59 1124.25 1307.55 1128.12 1303.86 1127 L 1302.76 1124.71 C 1288.1 1090.87 1271.59 1057.86 1253.32 1025.82 C 1274.27 990.279 1290.19 958.869 1304.71 920.245 z" fill="rgb(255,255,255)" transform="translate(0,0)"></path>
<path d="M 1157.88 740.799 C 1164.44 741.314 1170.89 745.35 1176.53 748.197 C 1230.42 775.425 1273.49 818.527 1293.23 876.423 C 1295.2 882.212 1301.75 896.384 1296.08 900.741 L 1292.78 899.988 C 1251.47 886.613 1220.78 877.856 1177.92 869.586 C 1172.22 829.782 1158.44 784.706 1148.11 745.824 C 1151.13 744.445 1154.86 742.363 1157.88 740.799 z" fill="rgb(255,255,255)" transform="translate(0,0)"></path>
<path d="M 1295.9 1147 C 1297.07 1147.66 1297.54 1148.62 1298.49 1149.82 C 1300.11 1155.77 1289.29 1179.93 1286.04 1187.89 C 1264.09 1241.67 1218.39 1282.36 1165.82 1305.34 C 1161.29 1307.32 1159.76 1307.09 1155.53 1305.1 L 1147.9 1300.96 C 1160.19 1262.37 1172.9 1218.75 1177.57 1178.44 C 1214.7 1171.11 1260.43 1160.37 1295.9 1147 z" fill="rgb(255,255,255)" transform="translate(0,0)"></path>
<path d="M 1016.94 696.428 C 1055.14 695.108 1088.02 704.881 1121.71 722.293 C 1124.05 726.232 1127.22 733.856 1129.22 738.341 C 1092.76 753.046 1062.66 769.218 1029.58 789.961 C 1025.85 793.045 1020.33 787.563 1016.07 785.126 C 985.646 767.699 952.897 749.961 920.059 737.662 C 922.125 733.44 924.202 727.976 926.025 723.551 C 954.302 706.629 984.211 698.214 1016.94 696.428 z" fill="rgb(255,255,255)" transform="translate(0,0)"></path>
<path d="M 744.908 922.185 C 747.578 923.415 756.09 944.474 758.193 948.726 C 770.16 972.924 783.423 1002.7 797.561 1025.43 C 781.463 1045.34 758.226 1095.22 749.411 1119.51 C 748.23 1123.57 748.974 1123.43 746.309 1125.67 C 740.802 1126.04 733.777 1122.89 728.267 1121.18 C 694.954 1051.25 692.391 995.292 730.503 926.267 L 744.908 922.185 z" fill="rgb(255,255,255)" transform="translate(0,0)"></path>
<path d="M 1026.51 1258.19 C 1029.3 1258.83 1038.5 1265.19 1041.68 1267.12 C 1067.69 1282.89 1098.83 1298.45 1126.69 1310.78 L 1122.48 1325.57 C 1091.74 1342.49 1059.78 1352.79 1024.51 1353.07 C 989.862 1352.59 955.982 1342.78 926.441 1324.67 C 924.671 1320.69 923.093 1316.08 921.575 1311.96 C 961.166 1296.46 990.026 1277.76 1026.51 1258.19 z" fill="rgb(255,255,255)" transform="translate(0,0)"></path>
<path d="M 894.33 1181.59 L 929.502 1187.08 C 953.914 1208.52 976.846 1224.98 1003.13 1243.95 C 992.505 1250.78 981.944 1257.71 971.446 1264.73 C 953.319 1276.41 936.764 1285.69 917.799 1295.99 C 908.187 1256.84 901.763 1221.1 894.33 1181.59 z" fill="rgb(255,255,255)" transform="translate(0,0)"></path>
<path d="M 1131.16 752.896 L 1132.35 753.545 C 1136.09 763.704 1138.71 777.728 1141.3 788.331 C 1147.61 814.284 1151.65 839.126 1155.21 865.525 C 1143.25 862.844 1128.34 860.793 1116.21 859.272 C 1109.46 853.444 1101.82 847.487 1094.85 841.833 C 1079.68 829.244 1063.97 817.301 1047.78 806.038 C 1075.58 787.704 1103.29 770.898 1131.16 752.896 z" fill="rgb(255,255,255)" transform="translate(0,0)"></path>
<path d="M 1153.7 1182.47 L 1154.36 1182.77 C 1157.01 1189.75 1136.77 1280.1 1133.36 1295.66 C 1120.21 1289.68 1095.69 1273.73 1082.59 1265.7 C 1074.22 1260.85 1055.35 1248.38 1048.86 1241.93 C 1077.03 1222.81 1095.6 1208.05 1121.69 1186.33 C 1131.07 1184.66 1144 1183.57 1153.7 1182.47 z" fill="rgb(255,255,255)" transform="translate(0,0)"></path>
<path d="M 917.228 753.339 C 947.696 770.797 974.794 786.548 1003.84 806.363 C 986.662 816.786 973.902 826.572 957.924 838.781 C 925.997 862.074 940.27 859.014 895.736 865.295 C 900.842 831.42 907.992 785.926 917.228 753.339 z" fill="rgb(255,255,255)" transform="translate(0,0)"></path>
<path d="M 1182.43 896.778 C 1203.42 897.525 1267.89 911.916 1290.21 917.165 C 1279.46 933.681 1268.23 953.278 1257.91 970.407 C 1251.27 981.023 1244.77 991.772 1237.4 1001.89 C 1224.12 981.232 1202.86 948.988 1185.97 932.182 C 1184.44 919.914 1183.07 909.13 1182.43 896.778 z" fill="rgb(255,255,255)" transform="translate(0,0)"></path>
<path d="M 1239.59 1050.09 C 1250.05 1060.28 1281.05 1116.48 1289.77 1131.33 C 1269.03 1137.51 1245.43 1142.39 1224.18 1147.07 C 1210.22 1149.98 1195.53 1153 1181.39 1154.61 L 1185.31 1120.99 C 1206.32 1098.9 1222.14 1074.89 1239.59 1050.09 z" fill="rgb(255,255,255)" transform="translate(0,0)"></path>
<path d="M 863.558 895.375 C 865.959 895.029 865.076 895.081 867.554 895.657 C 868.871 899.635 864.769 923.773 863.958 930.328 C 848.196 949.031 822.919 980.421 811.589 1001.46 C 806.669 992.402 801.159 983.354 795.899 974.464 C 784.74 955.954 772.486 935.616 762.179 916.735 C 793.778 909.201 831.719 899.772 863.558 895.375 z" fill="rgb(255,255,255)" transform="translate(0,0)"></path>
<path d="M 811.505 1047.98 C 815.223 1051.83 860.746 1115.46 861.535 1117.35 C 865.841 1127.63 866.095 1141.96 867.491 1153.03 L 825.955 1145.34 C 804.36 1140.89 782.369 1136.46 761.133 1130.54 C 778.043 1104.59 793.339 1072.65 811.505 1047.98 z" fill="rgb(255,255,255)" transform="translate(0,0)"></path>
<path d="M 1066.82 1189.41 C 1067.93 1189.38 1073.16 1189.04 1073.85 1189.58 C 1074.68 1192.41 1031.96 1223.61 1026.77 1227.43 C 1019.55 1222.83 1010.06 1216.39 1003.48 1210.78 C 994.343 1204.05 985.425 1197.01 976.742 1189.7 C 1008.23 1190.65 1035.3 1191.31 1066.82 1189.41 z" fill="rgb(255,255,255)" transform="translate(0,0)"></path>
<path d="M 1026.41 821.152 C 1040.98 831.17 1058.92 846.107 1073.01 857.115 C 1057.4 856.686 1043.51 855.939 1027.75 855.898 C 1012.28 855.782 996.813 856.147 981.367 856.993 C 995.874 845.709 1012.29 831.764 1026.41 821.152 z" fill="rgb(255,255,255)" transform="translate(0,0)"></path>
<path d="M 1189.12 979.46 C 1192.85 982.27 1216.9 1017.3 1221.32 1023.46 C 1214.48 1033.88 1210.03 1040.99 1202.6 1051.5 C 1198.26 1057.21 1193.11 1065.1 1189.07 1071.15 L 1189.12 979.46 z" fill="rgb(255,255,255)" transform="translate(0,0)"></path>
<path d="M 859.505 982.722 C 860.318 986.716 859.869 991.912 859.641 996.026 C 858.289 1020.45 859.469 1044.93 859.031 1069.35 C 854.977 1063.6 851.584 1057.91 847.303 1052.07 C 841.604 1043.45 835.067 1034.62 829.14 1025.95 C 839.492 1008.84 847.311 998.433 859.505 982.722 z" fill="rgb(255,255,255)" transform="translate(0,0)"></path>
<path d="M 890.773 1147.58 C 893.077 1149.13 900.439 1156.57 903.629 1159.28 C 891.121 1157.87 892.14 1159.37 890.773 1147.58 z" fill="rgb(255,255,255)" transform="translate(0,0)"></path>
<path d="M 1150.64 892.74 C 1159.49 893.386 1158.92 891.763 1160.02 901.089 C 1157.2 898.829 1153.95 895.467 1150.64 892.74 z" fill="rgb(213,238,242)" transform="translate(0,0)"></path>
<path d="M 895.318 891.435 C 900.367 892.834 895.736 894.586 892.656 897.092 C 887.348 896.524 894.128 892.182 895.318 891.435 z" fill="rgb(213,238,242)" transform="translate(0,0)"></path>
<path d="M 1158.6 1151.76 C 1159.74 1157.05 1159.48 1157.41 1154.97 1159.6 C 1153.96 1156.12 1156.4 1154.92 1158.6 1151.76 z" fill="rgb(132,181,193)" transform="translate(0,0)"></path>
<path d="M 494.838 1263.41 C 493.922 1254.14 494.104 1236.89 494.062 1227.33 C 494.003 1213.87 493.487 1197.32 494.039 1183.97 L 494.131 1182.06 L 494.085 1182.6 L 494.456 1180.3 L 494.579 1180.32 C 495.856 1181.54 496.338 1185.56 496.585 1187.17 C 533.787 1321.25 637.479 1443.87 757.609 1512.26 C 781.812 1526.04 834.277 1549.77 860.463 1556.64 L 861.047 1560.19 C 752.958 1556.6 642.57 1583.54 557.194 1496.93 C 488.189 1426.93 494.541 1352.52 494.838 1263.41 z" fill="rgb(8,129,150)" transform="translate(0,0)"></path>
<path d="M 494.838 1263.41 C 493.922 1254.14 494.104 1236.89 494.062 1227.33 C 494.003 1213.87 493.487 1197.32 494.039 1183.97 L 494.131 1182.06 L 494.085 1182.6 L 494.456 1180.3 L 494.579 1180.32 C 495.856 1181.54 496.338 1185.56 496.585 1187.17 C 493.028 1194.53 495.957 1248.9 494.838 1263.41 z" fill="rgb(99,158,174)" transform="translate(0,0)"></path>
<path d="M 1181.21 492.676 C 1180.51 492.603 1172.43 490.531 1175.38 490.438 C 1190.89 489.949 1208.85 489.073 1224.25 490.155 L 1300.5 490.023 C 1319.74 490.028 1344.22 489.78 1363.15 491.949 C 1410.81 497.307 1455.34 518.336 1489.76 551.735 C 1532.93 594.342 1554.58 646.49 1556.08 706.979 C 1557.77 724.4 1556.99 751.829 1556.98 770.024 C 1557.05 805.153 1556.93 840.282 1556.61 875.41 C 1555.47 870.17 1554.17 864.688 1553.31 859.417 C 1503.04 692.944 1374.38 562.212 1211.05 502.191 C 1201.27 498.597 1191.24 495.48 1181.21 492.676 z" fill="rgb(8,129,150)" transform="translate(0,0)"></path>
<path d="M 1556.08 706.979 C 1557.77 724.4 1556.99 751.829 1556.98 770.024 C 1557.05 805.153 1556.93 840.282 1556.61 875.41 C 1555.47 870.17 1554.17 864.688 1553.31 859.417 C 1553.73 859.052 1554.2 858.735 1554.57 858.321 C 1557.67 854.883 1555.38 721.19 1556.08 706.979 z" fill="rgb(99,158,174)" transform="translate(0,0)"></path>
<path d="M 1181.21 492.676 C 1180.51 492.603 1172.43 490.531 1175.38 490.438 C 1190.89 489.949 1208.85 489.073 1224.25 490.155 C 1218.52 490.778 1182.46 489.765 1181.21 492.676 z" fill="rgb(132,181,193)" transform="translate(0,0)"></path>
<path d="M 1554.34 1182.3 C 1555.01 1179.74 1554.75 1178.69 1556.39 1177.41 C 1557.38 1183.23 1557.39 1224.04 1557.11 1231.8 C 1556.37 1252.63 1558.33 1281.81 1556.84 1301.46 C 1557.09 1378.52 1549.57 1435.7 1493.1 1494.52 C 1421.27 1569.34 1340.07 1560.6 1246.15 1560.79 L 1224.37 1560.83 C 1219.09 1561.23 1178.06 1561.51 1176.55 1560.47 C 1176.54 1560.4 1176.53 1560.33 1176.53 1560.26 C 1177.39 1559.17 1179.17 1558.97 1180.44 1558.74 L 1182.2 1558.37 C 1217.62 1549.51 1274.61 1523.08 1305.89 1504.43 C 1426.1 1432.74 1518.66 1318.12 1554.34 1182.3 z" fill="rgb(8,129,150)" transform="translate(0,0)"></path>
<path d="M 1554.34 1182.3 C 1555.01 1179.74 1554.75 1178.69 1556.39 1177.41 C 1557.38 1183.23 1557.39 1224.04 1557.11 1231.8 C 1556.37 1252.63 1558.33 1281.81 1556.84 1301.46 C 1554.27 1275.83 1557.09 1240.72 1556.2 1214.32 C 1555.88 1204.88 1556.98 1191.87 1555.59 1183 L 1554.34 1182.3 z" fill="rgb(132,181,193)" transform="translate(0,0)"></path>
<path d="M 1224.37 1560.83 C 1219.09 1561.23 1178.06 1561.51 1176.55 1560.47 C 1176.54 1560.4 1176.53 1560.33 1176.53 1560.26 C 1177.39 1559.17 1179.17 1558.97 1180.44 1558.74 L 1182.2 1558.37 C 1182.91 1561.4 1218.54 1560.26 1224.37 1560.83 z" fill="rgb(132,181,193)" transform="translate(0,0)"></path>
<path d="M 782.504 490.837 C 791.014 489.933 804.712 490.28 813.826 490.195 C 834.12 490.013 854.414 489.965 874.708 490.049 C 871.591 491.077 870.202 491.845 866.812 492.554 C 722.755 538.084 603.711 633.568 533.587 768.179 C 518.065 797.989 505.692 829.337 496.67 861.714 C 495.945 864.608 496.272 865.331 494.501 867.216 C 493.326 860.008 494.417 817.637 494.405 806.778 L 494.053 738.944 C 493.992 728.632 493.383 708.104 494.875 698.654 C 495.3 649.699 522.577 588.291 557.931 554.352 C 630.099 485.074 692.951 490.439 782.504 490.837 z" fill="rgb(8,129,150)" transform="translate(0,0)"></path>
<path d="M 496.67 861.714 C 495.945 864.608 496.272 865.331 494.501 867.216 C 493.326 860.008 494.417 817.637 494.405 806.778 L 494.053 738.944 C 493.992 728.632 493.383 708.104 494.875 698.654 C 495.159 714.369 494.446 858.551 496.152 861.626 L 496.67 861.714 z" fill="rgb(132,181,193)" transform="translate(0,0)"></path>
<path d="M 782.504 490.837 C 791.014 489.933 804.712 490.28 813.826 490.195 C 834.12 490.013 854.414 489.965 874.708 490.049 C 871.591 491.077 870.202 491.845 866.812 492.554 C 861.097 489.593 795.961 491.855 782.504 490.837 z" fill="rgb(99,158,174)" transform="translate(0,0)"></path>
<path d="M 860.463 1556.64 C 861.871 1557.11 868.604 1559.04 869.156 1559.54 L 868.912 1559.66 L 868.864 1559.47 C 866.202 1560.26 863.844 1560.13 861.047 1560.19 L 860.463 1556.64 z" fill="rgb(99,158,174)" transform="translate(0,0)"></path>
<metadata><recraft-signature>{"signed_by": "recraft", "signature_b64": "WQzjOVngJagaF/04jaDqhdUTC8iqLwHZkQQZj0PxeuO3I/C9WLu83/ghEApyF/beFEWKXeSCnCpZa0FstxShCA==", "signing_algo": "Ed25519", "generation_timestamp": 1772809817, "identifier": "60bd903e-928f-45d5-bca5-e821cde3ca03"}</recraft-signature></metadata></svg>