<svg xmlns="http://www.w3.org/2000/svg" height="1024" preserveAspectRatio="none" style="display: block;" version="1.1" viewBox="0 0 2048 2048" width="1024">
<defs>
	<linearGradient gradientUnits="userSpaceOnUse" id="Gradient1" x1="393.496" x2="-14.899" y1="1892.32" y2="1853.29">
		<stop class="stop0" offset="0" stop-color="rgb(211,216,217)" stop-opacity="1"></stop>
		<stop class="stop1" offset="1" stop-color="rgb(252,252,251)" stop-opacity="1"></stop>
	</linearGradient>
</defs>
<path d="M 0 0 L 435.059 0 L 693.989 0 L 1023.82 0 L 1354.74 0 L 1365.49 0 L 1609.77 0 L 2048 0 L 2048 431.423 L 2048 684.503 L 2048 1369.82 L 2048 1614.72 L 2048 2048 L 1612.54 2048 L 1375.45 2048 L 1023.63 2048 L 436.38 2048 L 0 2048 L 0 1612.59 L 0 1355.74 L 0 1030.33 L 0 429.22 L 0 0 z" fill="rgb(253,253,253)" transform="translate(0,0)"></path>
<path d="M 0 0 L 435.059 0 L 693.989 0 L 1023.82 0 L 1023.95 161.092 C 1024.16 215.66 1024.03 270.23 1023.55 324.796 C 949.042 326.582 869.895 360.83 818.292 414.866 C 811.579 421.982 805.116 429.329 798.914 436.893 C 786.994 440.47 772.468 441.483 760.032 443.918 C 640.254 467.363 541.479 549.73 511.113 669.677 C 496.532 679.533 484.09 687.915 470.183 698.866 C 351.794 792.09 337.991 972.846 436.394 1085.53 C 439.57 1089.17 443.613 1094.41 446.441 1098.42 C 432.499 1110.78 420.533 1121.23 408.04 1135.12 C 356.19 1192.72 325.343 1266.17 320.512 1343.52 C 308.528 1540.48 464.168 1701.5 657.992 1712.71 C 669.981 1713.28 681.983 1713.54 693.986 1713.47 L 694.348 1822.5 C 694.44 1839.62 695.36 1866.62 694.099 1883.15 L 912.192 1883.05 L 983.601 1883.17 C 995.72 1883.18 1012.28 1883.67 1023.94 1882.96 C 1024.28 1937.97 1024.17 1992.99 1023.63 2048 L 436.38 2048 L 0 2048 L 0 1612.59 L 0 1355.74 L 0 1030.33 L 0 429.22 L 0 0 z" fill="rgb(1,149,132)" transform="translate(0,0)"></path>
<path d="M 159.046 1030.27 L 159.064 1235.11 C 159.124 1279.43 157.644 1333.13 161.989 1376.31 C 175.636 1501.92 231.963 1619.05 321.565 1708.13 C 421.742 1807.83 553.406 1869.69 694.099 1883.15 L 912.192 1883.05 L 983.601 1883.17 C 995.72 1883.18 1012.28 1883.67 1023.94 1882.96 C 1024.28 1937.97 1024.17 1992.99 1023.63 2048 L 436.38 2048 L 0 2048 L 0 1612.59 L 0 1355.74 L 0 1030.33 L 90.8384 1030.62 C 112.885 1030.51 137.211 1029.77 159.046 1030.27 z" fill="rgb(253,253,253)" transform="translate(0,0)"></path>
<path d="M 0 1355.74 L 0.187686 1356.74 C 2.44357 1369.26 3.58693 1387.25 5.28528 1400.6 C 8.48236 1427.55 13.3772 1454.27 19.9406 1480.61 C 60.5173 1651.83 162.052 1802.42 305.569 1904.23 C 399.858 1970.46 497.813 2014.29 611.715 2034.84 C 639.001 2039.76 666.219 2044.03 693.973 2045.49 L 693.759 1937.69 C 693.755 1923.39 692.931 1896.41 694.099 1883.15 L 912.192 1883.05 L 983.601 1883.17 C 995.72 1883.18 1012.28 1883.67 1023.94 1882.96 C 1024.28 1937.97 1024.17 1992.99 1023.63 2048 L 436.38 2048 L 0 2048 L 0 1612.59 L 0 1355.74 z" fill="rgb(1,149,132)" transform="translate(0,0)"></path>
<path d="M 0 1612.59 L 0.195892 1613.76 C 2.25467 1626.63 3.16157 1644 4.35043 1657.26 C 5.83715 1674.41 8.23965 1691.47 11.5477 1708.36 C 31.8567 1812.45 92.3302 1901.97 177.696 1964.19 C 234.336 2005.99 300.669 2032.72 370.47 2041.86 C 382.013 2043.35 392.89 2044.43 404.442 2045.33 C 412.209 2045.94 429.507 2046.08 436.38 2048 L 0 2048 L 0 1612.59 z" fill="url(#Gradient1)" transform="translate(0,0)"></path>
<path d="M 159.046 1030.27 L 159.045 836.206 C 159.044 794.238 157.251 735.461 161.094 695.006 C 175.089 559.791 235.198 433.514 331.319 337.392 C 414.213 254.64 519.778 192.659 635.119 169.225 C 646.709 166.87 680.915 160.353 692.575 161.49 C 693.381 162.884 693.287 162.256 693.305 163.25 L 693.526 332.243 C 578.517 347.415 485.481 398.621 412.567 490.782 C 358.103 559.621 329.868 641.066 324.58 728.258 C 322.77 758.105 323.749 795.815 323.688 826.445 L 323.306 947.76 C 323.378 975.207 324.082 1002.62 323.745 1030.08 C 269.374 1031.5 213.67 1030.09 159.046 1030.27 z" fill="rgb(253,253,253)" transform="translate(0,0)"></path>
<path d="M 693.989 0 L 1023.82 0 L 1023.95 161.092 C 984.826 161.69 944.321 161.122 905.126 161.073 L 694.102 160.992 L 693.989 0 z" fill="rgb(253,253,253)" transform="translate(0,0)"></path>
<path d="M 0 0 L 435.059 0 C 403.939 4.60901 379.716 3.93407 345.46 10.7219 C 240.618 31.4301 147.202 90.3331 83.3248 176.009 C 31.4505 245.845 7.72613 321.528 2.48233 407.737 C 2.07471 414.438 1.27967 422.652 0 429.22 L 0 0 z" fill="rgb(253,253,253)" transform="translate(0,0)"></path>
<path d="M 1354.74 0 L 1365.49 0 L 1609.77 0 L 2048 0 L 2048 431.423 L 2048 684.503 L 2048 1369.82 L 2048 1614.72 L 2048 2048 L 1612.54 2048 L 1375.45 2048 L 1023.63 2048 C 1024.17 1992.99 1024.28 1937.97 1023.94 1882.96 C 1036.16 1881.82 1051.86 1882.12 1064.29 1882.1 L 1128.63 1881.99 L 1273.73 1882.01 C 1304.83 1882.1 1341.31 1883.27 1371.71 1880.56 C 1474.28 1870.76 1572.13 1832.74 1654.42 1770.73 C 1775.13 1680.73 1860 1549.12 1883.3 1399.2 C 1891.47 1346.59 1890.12 1295.21 1890.21 1242.16 L 1890.37 1070 L 1890.48 851.201 C 1890.46 769.545 1893.8 689.658 1875.24 609.727 C 1826.35 399.278 1654.01 234.032 1447.39 178.326 C 1416.33 169.951 1386.7 165.528 1354.89 160.823 C 1356.23 110.092 1354.81 51.3961 1354.74 0 z" fill="rgb(253,253,253)" transform="translate(0,0)"></path>
<path d="M 1365.49 0 L 1609.77 0 L 2048 0 L 2048 431.423 L 2048 684.503 C 2046.76 679.606 2044.82 656.12 2044.22 649.827 C 2042.68 633.534 2040.51 620.654 2037.41 604.541 C 2019.55 513.078 1985.06 425.669 1935.65 346.658 C 1821.41 167.464 1634.12 45.7562 1424.52 8.69674 C 1405.11 5.26444 1384.75 4.22635 1365.49 0 z" fill="rgb(1,149,132)" transform="translate(0,0)"></path>
<path d="M 1609.77 0 L 2048 0 L 2048 431.423 C 2047.04 427.573 2046.25 413.208 2045.97 408.51 C 2045.46 396.056 2043.68 383.35 2042.35 371.055 C 2022.83 188.788 1873.55 39.3372 1694.13 10.22 C 1681.19 8.11945 1668.99 6.32852 1655.88 4.88786 C 1640.7 3.21867 1624.8 2.30008 1609.77 0 z" fill="rgb(253,253,253)" transform="translate(0,0)"></path>
<path d="M 2048 1369.82 L 2048 1614.72 L 2048 2048 L 1612.54 2048 L 1375.45 2048 C 1381.4 2046.38 1388.52 2045.54 1394.7 2044.77 C 1419.07 2041.72 1442.95 2037.15 1466.9 2031.62 C 1563.21 2008.62 1654.22 1967.39 1735.02 1910.15 C 1757.96 1893.73 1779.68 1877.17 1800.86 1858.59 C 1930.16 1745.17 2017.83 1584.42 2042.65 1414.19 C 2044.79 1399.52 2045.58 1384.42 2048 1369.82 z" fill="rgb(1,149,132)" transform="translate(0,0)"></path>
<path d="M 2048 1614.72 L 2048 2048 L 1612.54 2048 C 1618.78 2046.83 1630.91 2046.29 1637.76 2045.75 C 1651.96 2044.75 1666.12 2043.31 1680.23 2041.43 C 1855.33 2017.72 2003.89 1880.27 2037.16 1706.34 C 2043.03 1675.61 2042.94 1645.48 2047.84 1615.65 L 2048 1614.72 z" fill="rgb(253,253,253)" transform="translate(0,0)"></path>
<path d="M 1354.89 160.823 C 1386.7 165.528 1416.33 169.951 1447.39 178.326 C 1654.01 234.032 1826.35 399.278 1875.24 609.727 C 1893.8 689.658 1890.46 769.545 1890.48 851.201 L 1890.37 1070 L 1890.21 1242.16 C 1890.12 1295.21 1891.47 1346.59 1883.3 1399.2 C 1860 1549.12 1775.13 1680.73 1654.42 1770.73 C 1572.13 1832.74 1474.28 1870.76 1371.71 1880.56 C 1341.31 1883.27 1304.83 1882.1 1273.73 1882.01 L 1128.63 1881.99 L 1064.29 1882.1 C 1051.86 1882.12 1036.16 1881.82 1023.94 1882.96 C 1023.14 1866.15 1023.53 1844.56 1023.43 1827.41 L 1023.38 1705.21 L 1000.46 1705.16 C 969.555 1702.23 774.489 1708.65 763.249 1703.52 C 799.297 1693.27 833.845 1678.33 866.008 1659.1 C 945.033 1610.17 1001.57 1532.05 1023.34 1441.69 C 1037.28 1501.74 1072.32 1564.19 1115.95 1607.51 C 1184.83 1675.54 1277.87 1713.49 1374.68 1713.05 C 1469.88 1711.64 1560.73 1672.89 1627.66 1605.16 C 1681.94 1550.38 1716.35 1479.03 1725.43 1402.45 C 1730.2 1359.91 1728.35 1293.3 1728.38 1248.95 L 1728.03 1030.66 C 1702.07 1030.23 1676.12 1030.1 1650.16 1030.24 C 1665.81 997.817 1677.09 970.464 1681.29 933.813 C 1688.93 864.146 1668.53 794.304 1624.59 739.7 L 1725.2 738.99 C 1726.19 535.38 1575.85 366.275 1376.25 334.092 C 1369.15 332.948 1361.97 332.099 1354.83 331.211 C 1354.85 275.379 1353.81 216.397 1354.89 160.823 z" fill="rgb(1,149,132)" transform="translate(0,0)"></path>
<path d="M 1023.82 0 L 1354.74 0 C 1354.81 51.3961 1356.23 110.092 1354.89 160.823 L 1023.95 161.092 L 1023.82 0 z" fill="rgb(1,149,132)" transform="translate(0,0)"></path>
<path d="M 1354.83 331.211 L 1354.97 460.885 C 1314.53 445.156 1291.66 438.314 1247.84 433.918 C 1207.03 380.594 1164.3 358.806 1104.25 334.739 C 1109.54 331.958 1113.24 332.506 1119.02 331.88 C 1197.63 332.146 1276.23 331.923 1354.83 331.211 z" fill="rgb(1,149,132)" transform="translate(0,0)"></path>
<path d="M 763.249 1703.52 C 774.489 1708.65 969.555 1702.23 1000.46 1705.16 C 986.897 1706.48 962.33 1705.8 948.261 1705.79 L 856.711 1705.76 L 795.443 1705.84 C 786.651 1705.9 767.855 1706.56 759.979 1705.53 L 759.592 1704.58 L 763.249 1703.52 z" fill="rgb(109,174,165)" transform="translate(0,0)"></path>
<path d="M 1092.75 331.215 C 1099.06 331.275 1113.31 331.238 1119.02 331.88 C 1113.24 332.506 1109.54 331.958 1104.25 334.739 C 1100.95 334.231 1096.14 332.328 1092.75 331.215 z" fill="rgb(37,137,134)" transform="translate(0,0)"></path>
<path d="M 842 515.6 C 857.644 486.287 879.932 461.043 907.081 441.89 C 950.622 411.108 1004.56 398.782 1057.15 407.6 C 1126.98 419.793 1169.97 457.912 1208.96 513.73 C 1339.5 509.189 1452.65 591.499 1469.4 724.414 C 1497.25 734.325 1519.07 746.741 1540.81 767.221 C 1577.32 801.344 1598.38 848.85 1599.16 898.82 C 1600.59 962.619 1578.47 1006.18 1535.12 1051.54 C 1512.65 1039.03 1493.18 1031.5 1468.63 1024.62 C 1465.14 1024.04 1455.71 1023.51 1464.89 1019.45 C 1565.55 946.981 1544.29 800.066 1413.53 781.445 C 1408.78 780.799 1404.01 780.257 1399.24 779.817 C 1399.32 749.788 1399.01 721.733 1387.16 693.464 C 1357.04 621.576 1288.52 585.037 1212.61 584.845 C 1194.74 584.731 1176.89 586.107 1159.25 588.957 C 1141.33 535.217 1111.79 502.12 1058.21 480.991 C 1057.74 544.009 1057.93 607.03 1058.76 670.045 C 1102.68 651.87 1138.84 646.267 1185.19 661.864 C 1240.47 680.465 1273.61 719.6 1295.29 772.642 C 1384.29 780.031 1443.23 850.955 1434.21 939.341 C 1431.58 965.168 1423.5 994.398 1406.97 1014.95 L 1279.59 1014.89 C 1255.35 1014.88 1228.09 1015.5 1204.09 1014.4 C 1199.16 973.787 1184.21 933.056 1146.68 912.065 C 1114.06 893.821 1088.53 901.366 1057.98 918.259 L 1058.03 1039.54 C 1069.88 1038.22 1241.19 1037.85 1244.51 1038.98 C 1243.52 1040.96 1241.47 1041.43 1239.25 1041.76 C 1124.63 1092.56 1054.67 1165.01 1022.93 1289.28 C 1018.42 1271.63 1015.92 1260.24 1009.24 1242.8 C 981.761 1170.06 930.753 1108.58 864.325 1068.14 C 845.493 1056.93 824.881 1048.18 804.846 1039.24 C 865.724 1038.27 928.899 1038.87 990.047 1038.53 L 989.889 920.083 C 935.138 877.988 873.553 912.826 853.858 972.77 C 849.055 987.389 847.136 999.236 844.595 1014.36 C 777.063 1015.68 709.7 1014.55 642.226 1015.02 C 599.344 957.53 599.79 877.906 648.479 823.986 C 675.274 794.579 712.608 776.956 752.342 774.96 C 775.325 694.512 857.278 641.817 939.893 654.978 C 958.292 657.909 973.003 663.678 990.252 670.222 C 991.235 608.477 990.009 543.246 989.998 481.236 C 980.509 484.399 971.335 488.438 962.594 493.3 C 924.296 514.575 900.258 548.294 888.519 589.991 C 865.843 585.215 842.612 583.628 819.497 585.276 C 711.145 592.238 642.05 673.111 648.943 780.792 C 567.742 781.424 505.703 853.131 522.253 933.714 C 531.244 977.49 553.396 999.855 589.091 1024.13 C 558.379 1034.06 541.392 1041.03 512.452 1054.96 C 481.62 1024.57 464.389 997.807 453.288 954.785 C 440.616 904.446 448.485 851.134 475.159 806.602 C 495.417 772.735 539.668 733.895 578.314 724.294 C 586.779 675.981 596.218 646.223 627.113 607.203 C 682.428 537.338 755.738 513.409 842 515.6 z" fill="rgb(1,149,132)" transform="translate(0,0)"></path>
<path d="M 1058.03 1039.54 C 1069.88 1038.22 1241.19 1037.85 1244.51 1038.98 C 1243.52 1040.96 1241.47 1041.43 1239.25 1041.76 C 1231.89 1037.11 1079.69 1041.59 1058.03 1039.54 z" fill="rgb(37,137,134)" transform="translate(0,0)"></path>
<path d="M 1468.63 1024.62 C 1465.14 1024.04 1455.71 1023.51 1464.89 1019.45 C 1466.12 1021.25 1467.37 1022.86 1468.63 1024.62 z" fill="rgb(37,137,134)" transform="translate(0,0)"></path>
<path d="M 908.362 725.398 C 942.755 722.083 968.601 738.327 989.105 764.369 C 990.879 778.548 990.011 820.399 990.041 836.819 C 963.179 828.267 934.526 827.015 907.021 833.193 C 897.247 835.268 888.566 838.551 879.326 842.242 C 863.44 821.07 847.099 806.059 824.184 792.492 C 833.641 754.967 870.846 728.833 908.362 725.398 z" fill="rgb(253,253,253)" transform="translate(0,0)"></path>
<path d="M 1124.14 725.351 C 1170.82 720.811 1207.06 749.76 1223.75 791.579 C 1202.68 800.652 1179.18 823.591 1167.43 842.96 C 1163.77 841.149 1159.5 839.37 1155.72 837.694 C 1119.62 826.189 1093.72 827.353 1057.99 837.391 C 1057.89 812.84 1057.94 788.288 1058.14 763.737 L 1059.36 762.12 C 1076.59 739.467 1096.31 729.192 1124.14 725.351 z" fill="rgb(253,253,253)" transform="translate(0,0)"></path>
<path d="M 1280.71 847.257 C 1287.16 846.817 1292.81 846.773 1299.23 847.542 C 1331.08 851.412 1356.62 877.704 1362.47 908.793 C 1364.83 921.336 1363.75 931.434 1361.94 943.894 C 1345.69 944.323 1328.8 944.095 1312.5 944.087 L 1257.97 944.071 C 1250.67 923.438 1238.69 904.758 1226.41 886.822 C 1228.77 882.769 1231.3 878.816 1233.98 874.971 C 1245.91 857.795 1260.79 850.797 1280.71 847.257 z" fill="rgb(253,253,253)" transform="translate(0,0)"></path>
<path d="M 747.518 847.21 C 783.142 844.56 804.237 855.47 821.31 886.773 C 805.932 905.406 797.616 921.956 790.177 944.576 L 762.162 944.211 L 687.342 943.912 C 680.464 898.147 698.737 856.433 747.518 847.21 z" fill="rgb(253,253,253)" transform="translate(0,0)"></path>
<path d="M 660.749 1092.86 C 810.806 1084.9 938.904 1200.09 946.88 1350.15 C 954.856 1500.2 839.69 1628.32 689.636 1636.32 C 539.548 1644.32 411.397 1529.12 403.42 1379.03 C 395.442 1228.94 510.658 1100.81 660.749 1092.86 z" fill="rgb(1,149,132)" transform="translate(0,0)"></path>
<path d="M 655.871 1169.9 C 763.656 1159.29 859.599 1238.15 870.05 1345.95 C 880.501 1453.75 801.495 1549.58 693.679 1559.87 C 586.088 1570.14 490.505 1491.34 480.076 1383.76 C 469.646 1276.18 548.311 1180.49 655.871 1169.9 z" fill="rgb(253,253,253)" transform="translate(0,0)"></path>
<path d="M 664.9 1248.17 C 729.628 1242.03 786.987 1289.74 792.732 1354.51 C 798.477 1419.27 750.412 1476.34 685.614 1481.69 C 621.373 1486.99 564.903 1439.43 559.207 1375.22 C 553.512 1311.01 600.728 1254.25 664.9 1248.17 z" fill="rgb(1,149,132)" transform="translate(0,0)"></path>
<path d="M 666.423 1323.07 C 689.569 1318.4 712.082 1333.5 716.555 1356.68 C 721.028 1379.86 705.747 1402.25 682.527 1406.53 C 659.578 1410.76 637.51 1395.7 633.089 1372.78 C 628.668 1349.87 643.547 1327.68 666.423 1323.07 z" fill="rgb(253,253,253)" transform="translate(0,0)"></path>
<path d="M 1353.81 1093.03 C 1503.58 1082.97 1633.17 1196.16 1643.35 1345.93 C 1653.52 1495.69 1540.43 1625.37 1390.67 1635.66 C 1240.76 1645.96 1110.91 1532.71 1100.72 1382.79 C 1090.54 1232.87 1203.88 1103.1 1353.81 1093.03 z" fill="rgb(1,149,132)" transform="translate(0,0)"></path>
<path d="M 1352.43 1169.8 C 1460.15 1159.28 1555.95 1238.19 1566.26 1345.92 C 1576.57 1453.66 1497.48 1549.31 1389.72 1559.41 C 1282.27 1569.48 1186.94 1490.65 1176.66 1383.21 C 1166.38 1275.78 1245.02 1180.3 1352.43 1169.8 z" fill="rgb(253,253,253)" transform="translate(0,0)"></path>
<path d="M 1364.13 1247.83 C 1428.58 1243.23 1484.61 1291.62 1489.44 1356.06 C 1494.26 1420.49 1446.07 1476.69 1381.65 1481.74 C 1316.92 1486.82 1260.38 1438.33 1255.53 1373.58 C 1250.68 1308.82 1299.36 1252.45 1364.13 1247.83 z" fill="rgb(1,149,132)" transform="translate(0,0)"></path>
<path d="M 1363.31 1323.22 C 1386.15 1318.4 1408.58 1333.03 1413.35 1355.89 C 1418.13 1378.75 1403.44 1401.14 1380.57 1405.86 C 1357.77 1410.58 1335.47 1395.94 1330.71 1373.16 C 1325.95 1350.37 1340.53 1328.03 1363.31 1323.22 z" fill="rgb(253,253,253)" transform="translate(0,0)"></path>
<metadata><recraft-signature>{"signed_by": "recraft", "signature_b64": "C441ZTXfJmBI3YvOObY+p7sOLwMJcZT+kKFpsk0npbBBJXGRHLBAWtqDpzdK/D2l/t/tOPq8OXAA96SEbz1FCg==", "signing_algo": "Ed25519", "generation_timestamp": 1772809872, "identifier": "dca49757-8e13-4bcd-9ddd-592ea3987c11"}</recraft-signature></metadata></svg>