<svg xmlns="http://www.w3.org/2000/svg" height="1024" preserveAspectRatio="none" style="display: block;" version="1.1" viewBox="0 0 2048 2048" width="1024">
<path d="M 0 0 L 2048 0 L 2048 2048 L 0 2048 L 0 0 z" fill="rgb(250,250,249)" transform="translate(0,0)"></path>
<path d="M 636.526 268.456 C 684.247 267.305 735.966 268.371 784.091 268.315 L 1120.31 268.329 L 1314.97 268.52 C 1385.35 268.636 1454.62 263.583 1522.56 286.258 C 1570.27 302.181 1614.87 327.887 1652.72 360.975 C 1728.34 426.762 1774.38 520.167 1780.48 620.217 C 1781.63 638.217 1781.23 659.904 1781.32 678.238 L 1781.54 781.834 L 1781.43 1084.11 L 1781.4 1313.7 C 1781.28 1365.78 1783.99 1434.63 1773.75 1483.56 C 1759.99 1547.32 1729.98 1606.43 1686.63 1655.17 C 1616.49 1734 1526.67 1775.55 1421.89 1781.8 C 1361.87 1783.28 1298.51 1782.41 1238.36 1782.31 L 943.71 1782.19 L 739 1782.29 C 677.638 1782.18 617.963 1785.96 557.844 1772.01 C 398.782 1735.1 274.812 1590.28 270.495 1425.81 C 268.983 1368.21 270.204 1309.36 270.23 1251.67 L 270.243 925.238 L 270.153 726.094 C 270.175 672.37 266.596 615.807 278.125 563.351 C 316.342 389.466 461.128 274.404 636.526 268.456 z" fill="rgb(4,181,159)" transform="translate(0,0)"></path>
<path d="M 686.93 378.507 C 722.611 377.476 759.906 378.015 795.668 378.085 L 958.587 378.156 L 1213.75 378.468 C 1263.39 378.082 1313.04 378.213 1362.68 378.86 L 1362.55 448.47 C 1325.58 449.359 1299.98 457.001 1271.71 482.348 C 1246.73 504.973 1234.68 536.368 1234.38 569.641 C 1233.76 639.729 1234.18 709.605 1234.36 779.676 C 1234.41 796.851 1234.42 814.244 1235.97 831.332 C 1245.04 925.544 1285.63 1013.94 1351.17 1082.23 C 1413.14 1147.46 1502.38 1191.22 1590.88 1205.43 C 1619.02 1209.95 1643.94 1210.89 1672.22 1211.63 C 1673.25 1262.29 1671.8 1314.06 1672.73 1364.51 C 1674.35 1452.46 1649.18 1528.73 1585.63 1592.16 C 1542.42 1635.19 1486.47 1663.11 1426.11 1671.77 C 1401.17 1675.14 1377.45 1674.93 1352.39 1674.93 C 1343.89 1635.99 1328.54 1598.86 1307.04 1565.29 C 1266.55 1502.91 1206.56 1455.67 1136.42 1430.93 C 1114.23 1423.27 1093.95 1419.24 1071.1 1414.38 L 1071.08 1303 C 1149.43 1279.61 1197.56 1213.59 1197.01 1132.19 C 1195.47 1107.39 1188.98 1083.15 1177.91 1060.9 C 1158.6 1022.27 1119.47 988.653 1078.54 975.205 C 1033.97 960.913 985.539 964.908 943.908 986.311 C 904.126 1007 874.119 1042.56 860.411 1085.25 C 829.763 1182.06 882.23 1272.85 977.525 1303.02 C 976.685 1339.02 977.302 1379.55 977.796 1415.55 C 929.961 1420.74 873.904 1444.19 834.155 1470.54 C 763.451 1518.24 714.031 1591.53 696.316 1674.96 C 673.371 1674.85 649.221 1674.99 626.516 1671.73 C 559.981 1662.17 507.311 1636.48 459.894 1589.17 C 414.667 1543.48 386.138 1483.89 378.902 1420.01 C 375.982 1392.43 376.997 1359.22 377.033 1330.89 L 377.077 1210.99 C 484.936 1211.67 586.729 1180.04 669.397 1108.75 C 753.654 1036.05 805.638 932.908 813.944 821.936 C 815.436 801.394 815.14 779.545 815.176 758.865 L 815.238 671.873 L 815.168 605.713 C 815.131 594.627 815.057 583.426 814.873 572.482 C 813.955 518.037 780.324 469.686 727.345 454.308 C 713.029 450.152 701.616 449.34 686.839 448.37 C 686.747 426.115 686.117 400.567 686.93 378.507 z" fill="rgb(250,250,249)" transform="translate(0,0)"></path>
<path d="M 1013.31 660.492 C 1074.06 654.437 1128.3 698.606 1134.66 759.33 C 1141.03 820.053 1097.14 874.511 1036.45 881.19 C 975.316 887.918 920.375 843.637 913.961 782.471 C 907.548 721.304 952.11 666.591 1013.31 660.492 z" fill="rgb(4,181,159)" transform="translate(0,0)"></path>
<path d="M 551.418 726.487 C 622.284 717.701 686.925 767.843 696.036 838.669 C 705.147 909.494 655.301 974.364 584.518 983.799 C 513.275 993.296 447.891 943.055 438.721 871.769 C 429.551 800.483 480.09 735.33 551.418 726.487 z" fill="rgb(250,250,249)" transform="translate(0,0)"></path>
<metadata><recraft-signature>{"signed_by": "recraft", "signature_b64": "U+XiTmSGvzBqy7dm1fHwNkh381fDUrkeDCqheKa8iFJ3gPcDUgkxKRUviAZNUELd4fzfh2/Z6dN214Lr+qWiCw==", "signing_algo": "Ed25519", "generation_timestamp": 1772809847, "identifier": "ae95d1fa-c49b-4ba9-9653-42a9d2b21a42"}</recraft-signature></metadata></svg>