<svg xmlns="http://www.w3.org/2000/svg" height="1024" preserveAspectRatio="none" style="display: block;" version="1.1" viewBox="0 0 2048 2048" width="1024">
<path d="M 0 0 L 2048 0 L 2048 2048 L 0 2048 L 0 0 z" fill="rgb(252,251,251)" transform="translate(0,0)"></path>
<path d="M 1020.87 294.017 L 1383.53 294.269 L 1383.8 679.241 C 1509.95 680.297 1636.1 680.413 1762.25 679.589 L 1762 823.955 L 1021.12 823.979 C 1021.28 791.696 1021.2 759.413 1020.86 727.131 C 1020.26 722.814 1021.65 712.793 1018.28 712.214 C 1006.45 812.706 955.377 904.449 876.193 967.447 C 829.304 1004.62 774.117 1029.89 715.342 1041.1 C 706.538 1042.81 688.58 1045.94 679.888 1046.04 C 677.939 1046.03 675.989 1046 674.04 1045.94 L 671.9 1048.16 L 637.914 1047.98 C 635.945 1047.95 633.976 1047.95 632.006 1047.99 C 626.751 1047.99 621.475 1048.93 617.042 1048.74 C 617.223 1047.12 617.322 1047.22 616.501 1045.98 L 290.017 1045.76 L 290.082 695.111 C 289.416 490.699 433.953 320.856 640.317 296.269 C 685.849 290.844 741.653 293.964 788.268 293.991 L 1020.2 293.953 L 1020.87 294.017 z" fill="rgb(40,25,148)" transform="translate(0,0)"></path>
<path d="M 1021.1 321.654 C 1032.81 487.309 1136.38 623.625 1300.06 667.405 C 1320.18 672.785 1341.36 675.392 1361.97 678.127 C 1351.94 680.235 1318.72 679.201 1306.89 679.172 L 1196.66 679.238 C 1181.17 679.267 1152.14 678.511 1137.56 679.838 C 1126.18 678.721 1091.93 679.69 1079.24 679.697 L 952.511 679.826 C 943.995 678.7 915.403 679.2 905.262 679.167 L 759.292 678.996 C 747.588 678.996 685.642 680.012 681.139 677.294 C 694.633 676.374 712.655 672.515 725.935 669.167 C 786.519 654.183 842.522 624.617 889.068 583.043 C 949.333 529.857 991.491 459.184 1009.66 380.885 C 1013.62 364.402 1018.11 344.159 1019 327.227 L 1021.1 321.654 z" fill="rgb(252,251,251)" transform="translate(0,0)"></path>
<path d="M 669.732 677.995 C 673.529 677.689 677.333 677.456 681.139 677.294 C 685.642 680.012 747.588 678.996 759.292 678.996 L 905.262 679.167 C 915.403 679.2 943.995 678.7 952.511 679.826 C 928.706 680.769 901.163 680.101 877.137 680.069 L 745.436 679.935 C 724.498 679.908 688.379 678.693 668.826 680.317 L 669.732 677.995 z" fill="rgb(154,140,211)" transform="translate(0,0)"></path>
<path d="M 1361.97 678.127 L 1363.96 677.863 C 1366.97 677.494 1367.75 677.71 1370.72 678.159 L 1371.14 678.85 C 1362.92 681.096 1329.1 680.35 1318.94 680.341 L 1223.04 680.248 L 1168.07 680.354 C 1160.32 680.368 1144.72 680.781 1137.56 679.838 C 1152.14 678.511 1181.17 679.267 1196.66 679.238 L 1306.89 679.172 C 1318.72 679.201 1351.94 680.235 1361.97 678.127 z" fill="rgb(80,63,171)" transform="translate(0,0)"></path>
<path d="M 637.168 1046.12 C 645.418 1045.88 666.261 1045.63 674.04 1045.94 L 671.9 1048.16 L 637.914 1047.98 L 637.168 1046.12 z" fill="rgb(80,63,171)" transform="translate(0,0)"></path>
<path d="M 1021.03 698.229 C 1020.75 707.833 1021.28 717.382 1020.86 727.131 C 1020.26 722.814 1021.65 712.793 1018.28 712.214 C 1018.38 707.889 1019.03 705.192 1018.95 700.395 L 1021.03 698.229 z" fill="rgb(223,214,241)" transform="translate(0,0)"></path>
<path d="M 616.501 1045.98 C 621.333 1045.93 626.082 1046.1 630.927 1045.99 L 632.006 1047.99 C 626.751 1047.99 621.475 1048.93 617.042 1048.74 C 617.223 1047.12 617.322 1047.22 616.501 1045.98 z" fill="rgb(223,214,241)" transform="translate(0,0)"></path>
<path d="M 1020.2 293.953 L 1020.87 294.017 C 1021 297.971 1021.49 307.042 1020.91 310.449 C 1020.24 313.722 1019.73 316.904 1019.02 320.174 C 1018.82 314.379 1019.17 299.345 1020.2 293.953 z" fill="rgb(80,63,171)" transform="translate(0,0)"></path>
<path d="M 1020.24 683.471 C 1021.05 688.835 1021.14 692.844 1021.03 698.229 L 1018.95 700.395 C 1019.02 694.595 1019.64 689.223 1020.24 683.471 z" fill="rgb(119,100,195)" transform="translate(0,0)"></path>
<path d="M 1019.02 320.174 C 1019.73 316.904 1020.24 313.722 1020.91 310.449 C 1020.96 314.193 1021.17 317.928 1021.1 321.654 L 1019 327.227 L 1019.02 320.174 z" fill="rgb(154,140,211)" transform="translate(0,0)"></path>
<path d="M 630.927 1045.99 C 633.06 1046 635.034 1046.03 637.168 1046.12 L 637.914 1047.98 C 635.945 1047.95 633.976 1047.95 632.006 1047.99 L 630.927 1045.99 z" fill="rgb(154,140,211)" transform="translate(0,0)"></path>
<path d="M 668.826 680.317 C 667.333 680.093 665.734 680.027 664.36 679.408 C 663.902 679.202 663.697 678.971 663.966 678.638 C 664.276 678.254 665.678 678.185 666.029 678.168 L 669.732 677.995 L 668.826 680.317 z" fill="rgb(80,63,171)" transform="translate(0,0)"></path>
<path d="M 318.15 678.822 C 370.468 679.85 423.328 678.854 475.586 679.4 C 492.426 679.575 534.022 678.064 548.07 679.835 C 582.788 679.102 620.69 679.317 655.505 679.652 C 655.953 736.107 656.11 792.564 655.976 849.02 C 656.006 891.401 656.81 936.281 655.828 978.452 C 656.293 991.293 655.868 1004.78 656.185 1017.82 C 655.402 1018.4 655.164 1018.21 654.189 1017.91 C 653.992 1014.11 653.269 1009.19 653.254 1005.83 C 644.312 942.607 619.673 882.63 581.587 831.379 C 517.082 744.426 432.869 697.511 326.985 681.654 L 317.935 681.042 L 316.598 679.151 L 318.15 678.822 z" fill="rgb(252,251,251)" transform="translate(0,0)"></path>
<path d="M 318.15 678.822 C 370.468 679.85 423.328 678.854 475.586 679.4 C 492.426 679.575 534.022 678.064 548.07 679.835 C 519.837 682.563 332.657 677.623 326.985 681.654 L 317.935 681.042 L 316.598 679.151 L 318.15 678.822 z" fill="rgb(223,214,241)" transform="translate(0,0)"></path>
<path d="M 653.254 1005.83 C 655.65 1005.08 654.872 983.32 655.828 978.452 C 656.293 991.293 655.868 1004.78 656.185 1017.82 C 655.402 1018.4 655.164 1018.21 654.189 1017.91 C 653.992 1014.11 653.269 1009.19 653.254 1005.83 z" fill="rgb(223,214,241)" transform="translate(0,0)"></path>
<path d="M 294.078 678.854 C 300.986 678.389 311.821 677.027 318.15 678.822 L 316.598 679.151 L 317.935 681.042 C 314.668 680.825 312.501 680.295 309.298 679.778 C 303.391 680.545 300.112 680.023 294.078 678.854 z" fill="rgb(80,63,171)" transform="translate(0,0)"></path>
<path d="M 309.298 679.778 C 312.54 678.925 313.28 679.025 316.598 679.151 L 317.935 681.042 C 314.668 680.825 312.501 680.295 309.298 679.778 z" fill="rgb(154,140,211)" transform="translate(0,0)"></path>
<path d="M 656.185 1017.82 C 657.11 1020.17 657.486 1029.35 656.649 1031.31 C 655.024 1035.14 654.125 1017.37 654.189 1017.91 C 655.164 1018.21 655.402 1018.4 656.185 1017.82 z" fill="rgb(119,100,195)" transform="translate(0,0)"></path>
<path d="M 674.04 1045.94 C 675.989 1046 677.939 1046.03 679.888 1046.04 L 678.072 1047.91 C 693.195 1048.31 709.887 1051.48 724.814 1054.36 C 800.668 1068.32 870.035 1106.27 922.701 1162.62 C 985.399 1228.86 1020.54 1316.48 1021 1407.68 C 1046.96 1410.38 1073.74 1412.71 1099.17 1418.41 C 1179.52 1436.83 1251.54 1481.27 1304.04 1544.83 C 1354.02 1606.45 1378.38 1671.95 1386.91 1750.12 L 1389.04 1746.38 C 1389.03 1746.12 1389.01 1745.87 1389 1745.61 C 1402.66 1582.86 1528.78 1445.56 1687.51 1411.69 C 1705.85 1407.77 1722.33 1404.18 1739.25 1404.04 L 1743.47 1401.93 C 1746.7 1401.88 1749.74 1402.09 1752.95 1402 C 1756.08 1402.03 1758.95 1402.13 1762.08 1402.27 C 1762 1407.62 1762.05 1410.05 1761.08 1415.2 C 1759.34 1474.53 1728.86 1547.68 1696.2 1596.29 C 1633.16 1690.14 1527.39 1759.8 1414.09 1772.18 C 1392.36 1774.55 1368.84 1773.8 1347 1773.78 L 1254.89 1773.73 L 1021.76 1773.68 L 1021.9 1653.16 C 1021.87 1635.8 1020.93 1611.12 1021.8 1594.52 C 1020.59 1584.63 1021.01 1562.49 1020.98 1551.51 L 1020.91 1473.56 C 1020.91 1467.1 1021.39 1443.96 1020.47 1439.02 L 1019.17 1439.49 C 1019.04 1447.72 1017.31 1457.76 1016.07 1466.08 C 992.262 1625.46 855.584 1752.58 696.38 1771.58 C 604.279 1782.57 512.572 1755.47 437.806 1698.7 C 359.506 1639.83 308.026 1552.08 294.852 1455.01 C 281.891 1361.32 307.17 1266.36 364.992 1191.51 C 426.995 1110.81 516.601 1061.82 617.042 1048.74 C 621.475 1048.93 626.751 1047.99 632.006 1047.99 C 633.976 1047.95 635.945 1047.95 637.914 1047.98 L 671.9 1048.16 L 674.04 1045.94 z" fill="rgb(40,25,148)" transform="translate(0,0)"></path>
<path d="M 1019.17 1439.49 C 1019.04 1436.68 1019.98 1419.22 1021.33 1417.8 C 1022.31 1423.18 1021.47 1470.34 1021.51 1479.42 L 1022.06 1553.8 C 1022.15 1564.29 1022.79 1584.53 1021.8 1594.52 C 1020.59 1584.63 1021.01 1562.49 1020.98 1551.51 L 1020.91 1473.56 C 1020.91 1467.1 1021.39 1443.96 1020.47 1439.02 L 1019.17 1439.49 z" fill="rgb(119,100,195)" transform="translate(0,0)"></path>
<path d="M 1752.95 1402 C 1756.08 1402.03 1758.95 1402.13 1762.08 1402.27 C 1762 1407.62 1762.05 1410.05 1761.08 1415.2 C 1760.09 1401.99 1764.53 1403.88 1751.08 1403.96 L 1752.95 1402 z" fill="rgb(80,63,171)" transform="translate(0,0)"></path>
<path d="M 1743.47 1401.93 C 1746.7 1401.88 1749.74 1402.09 1752.95 1402 L 1751.08 1403.96 C 1747.26 1403.76 1743.18 1404.05 1739.25 1404.04 L 1743.47 1401.93 z" fill="rgb(154,140,211)" transform="translate(0,0)"></path>
<path d="M 1389.04 1746.38 C 1389.03 1748.07 1389.06 1749.5 1389.13 1751.17 C 1387.98 1754.58 1387.76 1755.49 1387.13 1759.03 C 1387.1 1756.04 1386.97 1753.1 1386.91 1750.12 L 1389.04 1746.38 z" fill="rgb(154,140,211)" transform="translate(0,0)"></path>
<path d="M 1389.13 1751.17 C 1389.08 1753.43 1388.79 1759.68 1387.68 1761.51 C 1387.58 1761.52 1387.48 1761.54 1387.38 1761.55 C 1386.99 1760.96 1387.13 1759.62 1387.13 1759.03 C 1387.76 1755.49 1387.98 1754.58 1389.13 1751.17 z" fill="rgb(80,63,171)" transform="translate(0,0)"></path>
<path d="M 674.04 1045.94 C 675.989 1046 677.939 1046.03 679.888 1046.04 L 678.072 1047.91 C 676.016 1048.02 673.958 1048.1 671.9 1048.16 L 674.04 1045.94 z" fill="rgb(154,140,211)" transform="translate(0,0)"></path>
<path d="M 640.471 1260.9 C 722.869 1252.65 796.31 1312.87 804.362 1395.28 C 812.413 1477.7 752.013 1551 669.576 1558.85 C 587.423 1566.67 514.438 1506.52 506.415 1424.39 C 498.392 1342.26 558.357 1269.12 640.471 1260.9 z" fill="rgb(252,251,251)" transform="translate(0,0)"></path>
<path d="M 642.904 1321.93 C 690.88 1315.59 734.944 1349.26 741.425 1397.22 C 747.906 1445.18 714.36 1489.34 666.422 1495.95 C 618.288 1502.6 573.91 1468.89 567.403 1420.74 C 560.896 1372.58 594.734 1328.3 642.904 1321.93 z" fill="rgb(40,25,148)" transform="translate(0,0)"></path>
<path d="M 1383.67 1401.39 C 1370.18 1400.2 1338.93 1401.15 1324.45 1401.16 L 1203.61 1401.25 C 1182.06 1401.27 1151.45 1403.16 1131.19 1397.58 C 1066.47 1379.74 1020.57 1320.22 1021.81 1252.82 C 1022.58 1211.45 1021.29 1171.14 1021.93 1130.2 C 1022.83 1072.97 1011.86 1018.52 1057.6 974.061 C 1097.55 935.247 1129.66 931.909 1182.37 931.795 L 1238.06 931.647 C 1282.02 931.367 1311.57 940.669 1343.96 971.522 C 1393.42 1018.64 1383.58 1089.02 1383.48 1150.64 L 1383.16 1336.49 C 1383.89 1342.42 1382.94 1382.25 1385.72 1382.72 C 1385.78 1385.89 1384.93 1397.32 1384.7 1401.02 L 1383.67 1401.39 z" fill="rgb(40,25,148)" transform="translate(0,0)"></path>
<path d="M 1383.16 1336.49 C 1383.89 1342.42 1382.94 1382.25 1385.72 1382.72 C 1385.78 1385.89 1384.93 1397.32 1384.7 1401.02 L 1383.67 1401.39 C 1382.72 1394.09 1382.67 1345.18 1383.16 1336.49 z" fill="rgb(154,140,211)" transform="translate(0,0)"></path>
<path d="M 1385.72 1382.72 C 1398.41 1273.41 1447.7 1183.53 1533.88 1115.27 C 1598.77 1063.94 1679.27 1036.35 1762 1037.09 L 1762.08 1402.27 C 1758.95 1402.13 1756.08 1402.03 1752.95 1402 C 1749.74 1402.09 1746.7 1401.88 1743.47 1401.93 C 1625.78 1399.74 1502.64 1400.85 1384.7 1401.02 C 1384.93 1397.32 1385.78 1385.89 1385.72 1382.72 z" fill="rgb(40,25,148)" transform="translate(0,0)"></path>
<path d="M 1547.59 400.661 C 1606.2 396.852 1656.68 441.547 1659.99 500.184 C 1663.3 558.821 1618.18 608.917 1559.52 611.733 C 1501.55 614.516 1452.18 570.048 1448.91 512.109 C 1445.64 454.17 1489.68 404.425 1547.59 400.661 z" fill="rgb(40,25,148)" transform="translate(0,0)"></path>
<metadata><recraft-signature>{"signed_by": "recraft", "signature_b64": "uDLq+MPFPk89JHfQNPHLNatJUhmx5mf4OzClcBjkny/1hHnIRZJ/UR/KKjcDyuSYThxvnUmrk1ql+1x3y+gJDg==", "signing_algo": "Ed25519", "generation_timestamp": 1772809718, "identifier": "b6b934f5-427b-4b9d-bf21-0f1a9aea8abf"}</recraft-signature></metadata></svg>