<svg xmlns="http://www.w3.org/2000/svg" height="1024" preserveAspectRatio="none" style="display: block;" version="1.1" viewBox="0 0 2048 2048" width="1024">
<path d="M 0 0 L 765.138 0 L 793.805 0 L 2048 0 L 2048 30.1037 L 2048 58.3504 L 2048 205.104 L 2048 232.212 L 2048 263.829 L 2048 290.29 L 2048 669.117 L 2048 697.059 L 2048 727.557 L 2048 755.814 L 2048 1309.94 L 2048 1338.56 L 2048 1369.09 L 2048 1396.04 L 2048 1485.05 L 2048 1512.12 L 2048 2007.78 L 2048 2037.8 L 2048 2048 L 0 2048 L 0 146.539 L 0 119.104 L 0 0 z" fill="rgb(248,247,247)" transform="translate(0,0)"></path>
<path d="M 765.138 0 L 793.805 0 L 793.731 28.5811 C 783.824 28.2855 775.588 28.6142 765.727 28.775 L 765.629 27.3284 C 764.953 18.2499 765.134 9.10589 765.138 0 z" fill="rgb(247,247,247)" transform="translate(0,0)"></path>
<path d="M 0 119.104 C 9.08191 118.931 18.7543 119.131 27.867 119.197 C 27.7593 128.23 27.6539 136.926 27.1445 145.951 C 17.9842 146.036 9.08966 146.386 0 146.539 L 0 119.104 z" fill="rgb(247,247,247)" transform="translate(0,0)"></path>
<path d="M 2028.1 2007.89 L 2048 2007.78 L 2048 2037.8 C 2041.35 2037.74 2034.71 2037.74 2028.06 2037.81 C 2027.78 2027.63 2028.03 2018.06 2028.1 2007.89 z" fill="rgb(247,247,247)" transform="translate(0,0)"></path>
<path d="M 2048 30.1037 L 2048 58.3504 C 2041.34 58.0658 2034.83 58.1338 2028.2 57.9232 C 2027.71 48.6697 2028 39.7354 2028.18 30.4819 C 2035.07 30.0812 2041.12 30.1606 2048 30.1037 z" fill="rgb(247,247,247)" transform="translate(0,0)"></path>
<path d="M 2028.25 1310.08 C 2034.83 1309.95 2041.42 1309.9 2048 1309.94 L 2048 1338.56 C 2044.33 1338.42 2040.67 1338.36 2037 1338.38 C 2034.22 1338.39 2031.86 1338.33 2029.09 1338.24 C 2028.05 1327.31 2028.54 1320.74 2028.25 1310.08 z" fill="rgb(247,247,247)" transform="translate(0,0)"></path>
<path d="M 2048 727.557 L 2048 755.814 C 2041.62 755.636 2035.38 755.742 2029.02 755.493 C 2028.49 746.306 2028.41 737.179 2028.26 727.961 C 2035.51 727.61 2040.68 727.543 2048 727.557 z" fill="rgb(247,247,247)" transform="translate(0,0)"></path>
<path d="M 2048 669.117 L 2048 697.059 L 2028.38 696.866 C 2027.9 687.915 2028.14 678.454 2028.19 669.444 C 2035.3 669.06 2040.87 669.114 2048 669.117 z" fill="rgb(247,247,247)" transform="translate(0,0)"></path>
<path d="M 2048 205.104 L 2048 232.212 C 2041.42 232.209 2035.24 232.316 2028.67 232.446 C 2028.36 223.233 2028.65 214.723 2028.38 205.633 C 2035.78 205.054 2040.69 205.196 2048 205.104 z" fill="rgb(247,247,247)" transform="translate(0,0)"></path>
<path d="M 2028.65 1485.27 C 2035.29 1485.04 2041.38 1485.07 2048 1485.05 L 2048 1512.12 C 2041.53 1511.96 2035.57 1512.1 2029.13 1512.13 C 2028.45 1502.26 2028.84 1494.98 2028.65 1485.27 z" fill="rgb(247,247,247)" transform="translate(0,0)"></path>
<path d="M 2028.16 263.8 L 2048 263.829 L 2048 290.29 C 2041.53 290.029 2035.27 290.049 2028.81 289.803 C 2027.97 280.436 2028.16 273.149 2028.16 263.8 z" fill="rgb(247,247,247)" transform="translate(0,0)"></path>
<path d="M 2048 1369.09 L 2048 1396.04 C 2041.72 1395.95 2035.37 1396.04 2029.07 1396.02 C 2028.52 1387.5 2028.63 1378.61 2028.43 1369.97 C 2036.3 1369.11 2039.87 1369.09 2048 1369.09 z" fill="rgb(247,247,247)" transform="translate(0,0)"></path>
<path d="M 565.501 268.336 C 607.366 267.978 650.564 268.702 692.551 268.84 L 692.923 324.217 C 720.03 345.153 749.005 361.373 776.692 380.621 C 858.656 437.602 942.403 491.346 1024.18 548.589 C 1040 539.006 1059.45 524.667 1075.22 514.086 L 1188.1 438.132 C 1243.93 400.263 1303.05 362.961 1357.57 323.632 C 1358.24 306.26 1357.74 286.245 1357.71 268.681 L 1444.15 268.411 C 1480.49 268.361 1485.5 265.503 1519.35 281.601 C 1570.54 306.378 1617.17 339.646 1657.25 379.993 C 1741.18 463.452 1778.54 562.294 1778.99 679.917 C 1754.01 694.565 1729.63 712.103 1704.82 727.249 C 1672.83 746.788 1642.4 769.134 1611.07 789.635 C 1591.82 786 1546.4 775.058 1528.22 769.091 C 1547.79 754.679 1575.52 737.871 1596.35 724.274 L 1714.52 646.441 C 1713.33 626.198 1710.55 606.079 1706.22 586.269 C 1691.44 594.737 1669.89 609.994 1654.76 619.957 L 1553.84 686.386 L 1228.7 901.117 C 1194.33 923.465 1159.45 947.526 1124.78 968.969 C 1124.27 1003.58 1124.74 1039.25 1124.78 1073.95 L 1707.34 1454.15 C 1712.76 1432.91 1715.21 1411.72 1716.11 1389.86 C 1702.65 1379.02 1668.27 1358.83 1651.8 1348.47 L 1523.19 1267.23 L 1311.13 1132.18 C 1281.42 1112.75 1251.61 1093.49 1221.7 1074.38 C 1209.1 1066.18 1197.31 1057.14 1184.43 1049.46 C 1195.31 1040.77 1214.53 1026.25 1223.53 1016.82 C 1227.45 1016.79 1244.04 1016.41 1246.71 1017.81 C 1265.61 1027.68 1290.52 1045.08 1308.5 1056.62 C 1374.16 1100.01 1440.51 1140.87 1507.08 1182.72 L 1617.98 1253.76 L 1723.57 1319.67 C 1741.79 1331.24 1761.68 1343.4 1778.98 1356.04 L 1779.1 1374.36 C 1780.19 1546.03 1669.82 1699.6 1513.26 1766.49 C 1478.42 1781.38 1477.49 1778.24 1440.43 1777.87 C 1412.98 1777.65 1385.53 1777.58 1358.08 1777.68 L 1357.98 1720.38 C 1322.89 1695.77 1283.04 1669.94 1247.14 1645.72 L 1024.13 1495.34 C 1004.9 1510.15 970.884 1530.95 948.995 1545.78 L 766.165 1668.33 C 741.465 1685.07 717.017 1700.72 692.884 1718.34 L 692.79 1777.88 L 687.459 1777.93 L 608.557 1778.07 C 571.002 1778.13 570.099 1780.3 535.259 1765.53 C 402.914 1709.43 296.369 1579.53 276.633 1436.04 C 272.855 1408.57 272.859 1382.65 272.747 1355.11 L 626.262 1130.62 L 736.42 1060.85 C 752.563 1050.66 782.514 1033.18 796.54 1022.19 C 783.928 1012.53 766.815 1002.09 753.386 993.269 C 721.22 972.143 687.89 952.333 655.551 931.503 L 425.523 783.325 C 375.452 751.507 320.951 718.612 272.103 685.48 C 270.819 586.135 292.644 504.4 352.759 423.572 C 396.725 363.566 455.167 315.667 522.639 284.342 C 534.014 279.056 553.754 270.051 565.501 268.336 z" fill="rgb(32,21,89)" transform="translate(0,0)"></path>
<path d="M 410.428 455.579 C 413.458 459.667 412.597 486.734 412.645 493.582 C 429.325 505.849 447.352 516.833 464.347 528.632 C 515.144 563.901 567.895 596.185 619.29 630.462 L 921.616 829.637 C 956.416 852.627 991.378 875.371 1026.5 897.867 C 1059.1 877.823 1092.74 855.042 1124.65 833.817 L 1267.77 738.731 L 1638.34 491.628 C 1638.17 479.837 1638.37 467.647 1638.43 455.819 C 1655.6 481.698 1668.99 497.449 1682.89 527.022 L 1060.98 937.883 L 1061.33 1105.1 C 1071.97 1112.58 1083.98 1119.87 1094.94 1127.26 C 1136.78 1155.64 1178.94 1183.54 1221.41 1210.96 L 1552.1 1427.56 C 1595.9 1456.1 1641.4 1484.35 1684.78 1513.29 C 1674.63 1535.1 1655.44 1567.98 1639.81 1586.48 L 1638.57 1585.71 L 1638.45 1549.26 C 1584.38 1514.26 1530.56 1478.87 1477.02 1443.08 L 1160.75 1235.08 L 1071.25 1176.37 C 1055.83 1166.25 1038.92 1154.61 1023.18 1145.3 C 972.578 1177.04 918.523 1213.56 868.618 1246.53 L 626.517 1407.02 L 476.073 1507.21 C 457.187 1519.93 431.03 1535.9 413.873 1549.15 C 413.994 1562.48 413.987 1575.81 413.852 1589.13 C 398.92 1571.21 374.481 1535.54 365.916 1514.05 L 988.494 1104.2 L 988.021 936.326 C 965.667 920.761 940.006 904.782 917.05 889.717 C 868.346 857.124 819.23 825.151 769.713 793.805 L 539.107 643.391 C 481.604 605.854 422.903 568.294 365.927 530.062 C 376.585 503.95 394.576 478.952 410.428 455.579 z" fill="rgb(247,247,247)" transform="translate(0,0)"></path>
<path d="M 344.793 591.219 C 351.789 594.079 389.141 619.506 397.156 624.87 L 496.474 690.296 C 591.3 751.071 685.768 812.402 779.874 874.287 C 825.065 903.703 882.059 938.315 925.014 969.223 C 924.796 1004.22 924.764 1039.22 924.919 1074.22 C 918.093 1078.22 910.984 1083.02 904.328 1087.37 C 842.576 1127.73 780.367 1167.97 718.62 1208.29 C 602.776 1282.85 487.547 1358.37 372.947 1434.83 C 363.31 1441.2 353.725 1447.65 344.192 1454.18 C 339.819 1430.49 336.843 1412.71 336.907 1388.4 C 355.94 1376.97 374.526 1364.33 393.408 1352.51 L 626.509 1204.05 C 676.684 1172.56 726.581 1140.63 776.192 1108.27 C 802.021 1091.75 840.809 1068.74 863.954 1050.89 L 864.001 990.835 C 833.186 969.835 796.343 947.754 764.591 927.827 L 662.544 862.4 L 336.158 653.312 C 337.272 632.407 340.161 611.635 344.793 591.219 z" fill="rgb(247,247,247)" transform="translate(0,0)"></path>
<path d="M 1023.95 1219.77 C 1040.01 1228.23 1076.06 1253.16 1093.15 1264.38 L 1233.69 1357.4 L 1581.36 1586.38 C 1581.96 1607.74 1582.15 1629.12 1581.92 1650.49 C 1568.33 1664.04 1548.67 1676.84 1531.94 1686.15 C 1531.98 1665.23 1532.12 1640.64 1530.84 1619.96 C 1506.73 1602.96 1481.19 1586.99 1456.6 1570.56 C 1397.99 1531.01 1339.08 1491.89 1279.88 1453.22 C 1257.55 1438.46 1235.3 1422.66 1212.99 1407.63 C 1150.95 1365.51 1088.43 1324.1 1025.44 1283.41 C 1018.8 1283.92 557.508 1593.33 518.88 1620.89 L 519.064 1687.66 C 502.33 1676.57 485.939 1664.96 469.915 1652.86 L 470.066 1585.02 C 496.577 1566.99 525.382 1549.14 552.335 1531.31 C 626.023 1481.59 700.081 1432.42 774.504 1383.8 C 828.12 1347.55 882.096 1311.83 936.424 1276.65 C 965.349 1257.62 994.171 1237.34 1023.95 1219.77 z" fill="rgb(247,247,247)" transform="translate(0,0)"></path>
<path d="M 517.747 357.88 C 519.961 360.145 519.165 414.364 519.207 423.388 C 571.998 460.649 628.805 497.621 682.624 533.679 C 796.576 610.635 911.296 686.447 1026.77 761.104 C 1059.69 737.083 1099.74 712.507 1134.41 689.063 L 1412.97 501.717 C 1439.13 484.136 1465.39 466.688 1491.73 449.373 C 1499.68 444.163 1525.64 427.964 1531.59 422.481 C 1531.35 401.911 1531.33 381.338 1531.54 360.768 C 1548.18 372.227 1564.67 382.067 1581.11 394.239 L 1581.27 455.743 L 1574.42 460.002 C 1533.09 486.658 1490.74 516.085 1449.56 543.381 L 1191.7 714.177 C 1138.69 749.587 1079.48 791.316 1025.56 824.478 C 1018.72 818.733 993.291 802.187 984.771 796.66 C 945.373 771.104 906.46 746.226 867.319 720.162 L 470.269 457.644 C 470.124 435.57 470.128 413.495 470.28 391.42 C 481.705 381.486 504.84 365.287 517.747 357.88 z" fill="rgb(247,247,247)" transform="translate(0,0)"></path>
<path d="M 629.972 316.464 C 631.724 318.557 630.951 352.012 630.917 357.093 C 642.74 365.666 656.598 374.405 668.855 382.696 L 758.032 442.647 L 1026.22 622.766 C 1055.59 600.504 1098.61 573.666 1130.14 552.644 L 1312.41 430.198 C 1346.8 407.029 1387.06 381.189 1419.95 356.82 C 1419.37 343.407 1419.17 329.979 1419.37 316.555 C 1435.92 317.926 1453.4 321.455 1468.46 328.566 C 1468.69 349.044 1468.78 369.524 1468.73 390.003 L 1446.12 405.58 C 1353.53 466.027 1261.32 529.598 1169.17 590.954 C 1123.04 621.666 1069.18 655.776 1025.03 687.747 C 983.667 661.145 940.25 630.891 898.986 603.378 L 581.965 392.073 L 581.985 326.935 C 598.276 321.907 612.983 317.982 629.972 316.464 z" fill="rgb(247,247,247)" transform="translate(0,0)"></path>
<path d="M 1024.5 1356.86 C 1029.54 1358.76 1057.57 1378.14 1064.15 1382.57 C 1095.47 1403.25 1126.61 1424.21 1157.54 1445.46 C 1260.87 1515.09 1366.53 1582.95 1468.8 1653.79 C 1468.7 1674.08 1468.74 1694.37 1468.93 1714.67 C 1448.27 1723.11 1441.18 1724.13 1419.26 1727.31 C 1419.08 1713.9 1419.23 1700.17 1419.23 1686.73 C 1396.45 1670.78 1373.19 1656.19 1350.24 1640.48 L 1025.52 1421.26 C 1020.28 1421.66 661.691 1663.95 630.071 1685.57 C 630.808 1699.42 630.64 1713.31 630.622 1727.18 C 610.388 1725.45 600.924 1722.74 581.888 1715.38 C 581.707 1694.34 581.707 1673.29 581.888 1652.25 C 596.245 1641.25 618.566 1627.29 633.98 1616.98 L 740.226 1546.3 L 1024.5 1356.86 z" fill="rgb(247,247,247)" transform="translate(0,0)"></path>
<path d="M 1777.97 745.158 C 1779.17 747.788 1778.2 812.939 1778.17 820.382 L 1460.99 1018.69 C 1474.11 1028.5 1494.56 1040.75 1508.54 1049.63 C 1539.76 1069.37 1571.11 1088.89 1602.61 1108.19 C 1661.21 1144.04 1720.05 1181.95 1778.93 1216.7 L 1778.88 1290.65 C 1762 1281.93 1732.98 1263.28 1716.45 1252.92 L 1358.54 1030.16 L 1358.25 1010.57 C 1385.03 991.466 1417.69 972.212 1445.88 954.387 C 1491.6 924.885 1537.59 895.813 1583.85 867.174 C 1648.03 827.475 1713.71 783.739 1777.97 745.158 z" fill="rgb(32,21,89)" transform="translate(0,0)"></path>
<path d="M 378.091 818.559 L 686.154 1013.63 L 686.052 1030.49 C 649.023 1050.74 599.177 1084.92 562.956 1107.83 C 487.746 1155.59 412.229 1202.86 336.409 1249.65 C 314.923 1262.39 293.798 1275.73 273.06 1289.65 C 272.879 1265.05 272.852 1240.44 272.976 1215.84 C 296.216 1199.65 329.418 1179.98 354.017 1164.48 L 429.701 1117.66 C 447.834 1106.26 465.239 1094.36 483.658 1083.19 L 539.642 1049.57 C 552.894 1041.6 570.487 1031.24 582.378 1021.52 C 574.976 1016.09 566.881 1011.21 559.171 1006.22 C 499.755 967.755 437.489 931.864 378.645 892.612 L 378.091 818.559 z" fill="rgb(32,21,89)" transform="translate(0,0)"></path>
<path d="M 736.704 268.882 L 820.111 268.773 C 849.156 288.36 878.041 308.18 906.766 328.233 C 946.269 355.148 985.631 382.271 1024.85 409.601 C 1052.57 389.82 1083.81 369.684 1112.17 350.389 C 1152.04 322.702 1192.25 295.51 1232.8 268.821 L 1313.72 268.963 L 1313.64 290.224 C 1302.98 296.81 1291.42 305.026 1280.97 312.157 C 1247.92 334.048 1215.09 356.263 1182.48 378.797 L 1024.97 484.594 C 928.425 419.56 832.361 353.812 736.788 287.356 L 736.704 268.882 z" fill="rgb(32,21,89)" transform="translate(0,0)"></path>
<path d="M 1024.46 1559.84 C 1029.95 1561.72 1087.09 1601.22 1097.12 1608.21 C 1150.38 1644.66 1203.24 1681.7 1255.68 1719.32 C 1268.63 1728.54 1298.68 1748.22 1308.61 1757.5 L 1309.04 1776.49 C 1283.17 1775.48 1254.63 1776.24 1228.33 1775.85 C 1211 1765.53 1186.16 1747.09 1169.22 1735.11 L 1066.43 1662.21 C 1060.6 1658.09 1028.65 1634.18 1023.49 1633.97 C 956.537 1682.63 886.462 1728.58 818.689 1776.07 L 735.232 1775.95 L 735.6 1756.14 C 832.975 1693.41 926.995 1623.07 1024.46 1559.84 z" fill="rgb(32,21,89)" transform="translate(0,0)"></path>
<path d="M 274.845 1646.33 C 274.368 1641.88 273.447 1598.77 274.752 1597.91 C 275.717 1598.6 275.661 1599.35 275.683 1600.48 L 278.261 1606 C 308.499 1666.55 345.533 1711.16 402.129 1749.25 C 417.467 1759.58 432.984 1766.46 447.19 1775.43 C 448.325 1775.73 448.325 1775.62 449.161 1776.25 L 449.223 1776.42 C 448.556 1777.32 378.135 1777.17 371.526 1776.11 C 348.183 1776.33 322.966 1762.86 306.679 1746.64 C 277.671 1717.76 274.759 1685.05 274.845 1646.33 z" fill="rgb(32,21,89)" transform="translate(0,0)"></path>
<path d="M 447.19 1775.43 C 448.325 1775.73 448.325 1775.62 449.161 1776.25 L 449.223 1776.42 C 448.556 1777.32 378.135 1777.17 371.526 1776.11 C 387.499 1774.38 411.901 1776.5 428.5 1775.62 C 434.593 1775.3 441.415 1776.48 447.19 1775.43 z" fill="rgb(50,39,106)" transform="translate(0,0)"></path>
<path d="M 274.845 1646.33 C 274.368 1641.88 273.447 1598.77 274.752 1597.91 C 275.717 1598.6 275.661 1599.35 275.683 1600.48 C 275.435 1602.37 275.221 1604.26 275.041 1606.16 C 275.333 1616.58 275.585 1636.31 274.845 1646.33 z" fill="rgb(121,112,154)" transform="translate(0,0)"></path>
<path d="M 1775.28 1600.89 C 1776 1599.92 1776.39 1599.04 1777.38 1598.67 C 1778.35 1599.14 1778.05 1601.11 1778.07 1601.91 C 1778.12 1603.09 1778.18 1604.26 1778.26 1605.43 L 1778.18 1606.47 C 1774.89 1656.85 1787.92 1708.64 1742.96 1749.4 C 1714.09 1775.58 1689.3 1777.47 1653.03 1776.86 C 1648.34 1777.13 1603.99 1777.31 1602.88 1776.49 C 1603.27 1775.32 1605.99 1774.86 1606.98 1774.65 L 1610.65 1773.03 C 1618.58 1768.5 1626.46 1763.88 1634.31 1759.2 C 1687.49 1727.55 1725.24 1691.14 1757.17 1637.64 C 1763.32 1627.34 1772.36 1612.39 1775.28 1600.89 z" fill="rgb(32,21,89)" transform="translate(0,0)"></path>
<path d="M 1653.03 1776.86 C 1648.34 1777.13 1603.99 1777.31 1602.88 1776.49 C 1603.27 1775.32 1605.99 1774.86 1606.98 1774.65 C 1609.15 1775.82 1609.41 1775.8 1611.95 1776.48 C 1618.88 1775.53 1646.05 1776.02 1653.03 1776.86 z" fill="rgb(121,112,154)" transform="translate(0,0)"></path>
<path d="M 1775.28 1600.89 C 1776 1599.92 1776.39 1599.04 1777.38 1598.67 C 1778.35 1599.14 1778.05 1601.11 1778.07 1601.91 C 1778.12 1603.09 1778.18 1604.26 1778.26 1605.43 C 1777.25 1603.92 1776.26 1602.41 1775.28 1600.89 z" fill="rgb(50,39,106)" transform="translate(0,0)"></path>
<path d="M 274.834 425.858 C 273.593 411.794 274.978 395.307 274.328 380.979 C 273.168 355.428 281.028 327.469 297.324 307.146 C 306.507 295.625 318.137 286.29 331.372 279.816 C 371.852 259.91 401.24 273.579 441.139 268.378 L 441.979 272.204 C 366.27 312.891 314.37 358.863 277.576 438.224 C 277.191 439.402 276.422 442.877 274.955 443.37 C 273.603 443.085 274.639 427.826 274.834 425.858 z" fill="rgb(32,21,89)" transform="translate(0,0)"></path>
<path d="M 274.834 425.858 C 275.648 432.328 274.069 434.917 277.576 438.224 C 277.191 439.402 276.422 442.877 274.955 443.37 C 273.603 443.085 274.639 427.826 274.834 425.858 z" fill="rgb(50,39,106)" transform="translate(0,0)"></path>
<path d="M 1609.05 272.289 L 1605.15 270.136 L 1605.28 269.11 L 1609.83 268.298 C 1631.06 271.629 1658.95 267.268 1681.1 269.218 C 1710.21 271.582 1736.95 286.18 1754.68 309.385 C 1771.82 331.64 1777.85 358.714 1777.56 386.2 C 1777.36 406.067 1778.43 426.446 1777.63 446.281 C 1745.54 367.843 1684.3 309.284 1609.05 272.289 z" fill="rgb(32,21,89)" transform="translate(0,0)"></path>
<path d="M 1646.12 1688.19 C 1655.62 1688.02 1664.93 1687.68 1674.5 1687.61 C 1674.62 1697.88 1674.35 1705.19 1673.74 1715.46 C 1664.96 1716.04 1655.11 1715.83 1646.21 1715.81 C 1645.92 1706.14 1645.72 1697.97 1646.12 1688.19 z" fill="rgb(247,247,247)" transform="translate(0,0)"></path>
<path d="M 441.139 268.378 L 443.068 268.439 C 449.836 268.153 445.402 270.438 441.979 272.204 L 441.139 268.378 z" fill="rgb(50,39,106)" transform="translate(0,0)"></path>
<metadata><recraft-signature>{"signed_by": "recraft", "signature_b64": "/XAx0uPg8kWcETUQrtvCA4AHCbT8CcPDUio5AdhUqJ0lI9mF5O/X3SUUYw6oWSrY8iQABWXy762YPxODdyULBQ==", "signing_algo": "Ed25519", "generation_timestamp": 1772809673, "identifier": "89c686b8-46f3-461b-baf2-23715b73b1e5"}</recraft-signature></metadata></svg>