<svg xmlns="http://www.w3.org/2000/svg" height="1024" preserveAspectRatio="none" style="display: block;" version="1.1" viewBox="0 0 2048 2048" width="1024">
<path d="M 0 0 L 2048 0 L 2048 2048 L 0 2048 L 0 0 z" fill="rgb(253,253,253)" transform="translate(0,0)"></path>
<path d="M 356.251 1649.15 C 338.434 1627.39 323.192 1607.59 309.336 1583.04 C 239.754 1459.78 217.375 1317.63 205.953 1178.4 C 196.362 1067.71 196.785 956.382 207.219 845.768 C 220.487 713.049 246.469 560.332 320.1 446.554 C 345.435 407.404 376.081 373.945 412.131 344.452 C 597.792 192.558 992.289 185.02 1221.56 208.316 C 1282.19 214.476 1341.35 223.898 1400.64 238.164 C 1513.34 265.282 1622.08 310.361 1697.23 402.464 C 1729.61 442.15 1754.39 484.629 1773.83 532.023 C 1852.76 724.463 1860.32 1022.89 1839.03 1229.92 C 1827.13 1345.59 1800.03 1480.23 1741.13 1581.34 C 1715.22 1626.22 1681.44 1666.06 1641.41 1698.97 C 1614.78 1720.62 1585.96 1739.43 1555.41 1755.08 C 1363.99 1850.99 1036.79 1861.98 826.534 1839.48 C 682.238 1824.04 518.095 1790.03 403.618 1695.69 L 405.187 1691.24 C 423.51 1697.92 464.732 1695.43 485.763 1695.35 L 606.873 1695.08 L 1012.89 1695.19 C 1013.11 1647.08 1013.07 1598.98 1012.77 1550.87 C 975.333 1549.27 933.986 1550.02 896.311 1550.05 L 714.333 1550.12 L 647.481 1550.14 C 618.941 1550.13 600.514 1552.38 573.764 1540.45 C 538.071 1524.53 513.306 1497.16 503.353 1458.93 C 499.106 1442.62 499.458 1426.65 499.34 1410.18 L 499.467 1149.04 C 499.466 1099.86 496.958 1033.68 500.787 986.13 C 510.704 862.929 563.777 747.179 650.657 659.267 C 748.404 558.79 882.331 501.662 1022.51 500.653 C 1159.61 500.248 1291.37 553.828 1389.28 649.805 C 1467.52 727.416 1517.93 816.251 1540.18 924.646 C 1545.38 950.002 1550.96 985.414 1551.05 1011.06 L 1694.48 1011.15 C 1694.73 934.069 1674.71 839.488 1644.31 768.44 C 1573.08 599.734 1436.82 466.885 1266.37 399.956 C 1111.45 338.016 925.852 338.469 772.342 404.636 C 726.337 423.957 682.469 448.015 641.446 476.421 C 534.267 551.899 451.119 656.676 401.964 778.2 C 377.425 841.01 361.68 906.91 355.177 974.03 C 351.391 1010.84 352.763 1053.18 352.843 1090.59 L 352.877 1259.24 L 352.623 1480.57 C 352.451 1526.72 352.364 1573.41 353.069 1619.59 C 353.221 1629.55 355.619 1638.13 359.541 1647.22 L 356.251 1649.15 z" fill="rgb(63,15,223)" transform="translate(0,0)"></path>
<path d="M 1155.07 1151.47 L 1695 1151.44 L 1694.9 1287.87 L 1386.35 1287.71 C 1396.06 1297.91 1406.44 1307.3 1416.37 1317.28 C 1443.61 1345.1 1471.23 1372.55 1499.21 1399.63 L 1605.53 1505.01 C 1591.03 1519.81 1576.38 1534.46 1561.57 1548.96 C 1542.16 1568.3 1522.9 1587.81 1502.73 1606.36 C 1432.01 1538.99 1364.05 1468.29 1293.86 1400.76 L 1294.03 1695.28 L 1154.91 1695.64 L 1155.07 1151.47 z" fill="rgb(253,253,253)" transform="translate(0,0)"></path>
<path d="M 391.616 1685.18 C 396.142 1687.19 400.717 1689.11 405.187 1691.24 L 403.618 1695.69 C 398.708 1691.97 395.956 1689.49 391.616 1685.18 z" fill="rgb(105,51,203)" transform="translate(0,0)"></path>
<path d="M 359.541 1647.22 C 360.962 1649.7 362.187 1651.74 363.719 1654.16 L 364.495 1655.41 L 362.733 1656.32 C 360.377 1653.77 358.445 1651.9 356.251 1649.15 L 359.541 1647.22 z" fill="rgb(105,51,203)" transform="translate(0,0)"></path>
<path d="M 364.495 1655.41 C 365.047 1656.18 367.063 1658.33 366.545 1659.43 C 365.456 1659.78 363.285 1656.9 362.733 1656.32 L 364.495 1655.41 z" fill="rgb(138,103,189)" transform="translate(0,0)"></path>
<metadata><recraft-signature>{"signed_by": "recraft", "signature_b64": "BbB5xWK7yab/Zuovp+kIdIqvxftdpLDDSfbAAukWZHhakUHmwhFYXWVvz/UdHPRmculsk8UCl/cWP1XfTjL4CA==", "signing_algo": "Ed25519", "generation_timestamp": 1772809695, "identifier": "a78da11d-ae2a-495f-9c8a-78b3d6231fea"}</recraft-signature></metadata></svg>