<svg xmlns="http://www.w3.org/2000/svg" height="1024" preserveAspectRatio="none" style="display: block;" version="1.1" viewBox="0 0 2048 2048" width="1024">
<path d="M 0 0 L 2048 0 L 2048 2048 L 0 2048 L 0 0 z" fill="rgb(255,255,255)" transform="translate(0,0)"></path>
<path d="M 1500.86 413.279 C 1590.03 486.082 1663.98 570.97 1715.9 674.494 C 1791.44 822.867 1816.8 991.741 1788.2 1155.76 C 1781.89 1192.51 1774.34 1226.17 1762.55 1261.57 C 1698 1460.85 1555.8 1625.67 1368.13 1718.73 C 1184.67 1808.95 973.148 1823.63 778.986 1759.61 C 583.203 1693.89 421.803 1552.66 330.691 1367.32 C 239.431 1183.79 224.928 971.487 290.383 777.247 C 347.95 607.736 462.186 463.248 613.843 368.126 C 634.642 355.099 651.697 344.712 673.702 333.81 C 836.054 251.959 1021.84 229.184 1199.15 269.396 C 1232.26 276.9 1261.98 287.004 1294 297.811 L 1294.06 652.744 L 1294.04 761.812 C 1294.03 779.46 1294.72 806.316 1293.22 823.218 C 1345.61 821.486 1396.56 840.548 1434.94 876.244 C 1473.05 912.119 1495.18 958.617 1496.52 1011.1 C 1498.24 1064.67 1478.1 1116.64 1440.71 1155.05 C 1406.13 1190.93 1355.28 1215.35 1305.08 1216.08 L 1303.45 1216.1 C 1299.72 1216.54 1297.54 1216.26 1294.68 1218.14 C 1297.3 1377.53 1209.24 1526.6 1062.08 1591.49 C 1050.04 1596.8 1037.64 1599.5 1025.83 1604.25 C 1026.9 1620.73 1026.1 1649.6 1026.11 1667.01 L 1025.95 1794.25 C 1051.5 1792.15 1081.4 1785.56 1106.02 1778.42 C 1188.06 1755.11 1262.91 1711.49 1323.65 1651.61 C 1420.1 1558.13 1482.23 1426.4 1499.74 1293.7 C 1503.1 1268.24 1503.79 1243.64 1504.19 1217.99 C 1552.8 1215.1 1592.6 1198.31 1628.63 1165.12 C 1668.55 1128.36 1692.19 1077.22 1694.34 1023 C 1697.44 940.452 1655.44 869.289 1578.44 837.628 C 1551.87 826.702 1529.21 824.165 1500.9 823.06 L 1500.86 413.279 z" fill="rgb(56,23,244)" transform="translate(0,0)"></path>
<path d="M 1293.22 823.218 C 1345.61 821.486 1396.56 840.548 1434.94 876.244 C 1473.05 912.119 1495.18 958.617 1496.52 1011.1 C 1498.24 1064.67 1478.1 1116.64 1440.71 1155.05 C 1406.13 1190.93 1355.28 1215.35 1305.08 1216.08 L 1303.45 1216.1 C 1299.72 1216.54 1297.54 1216.26 1294.68 1218.14 C 1297.3 1377.53 1209.24 1526.6 1062.08 1591.49 C 1050.04 1596.8 1037.64 1599.5 1025.83 1604.25 C 968.409 1622.28 912.929 1628.68 852.828 1622.21 C 750.957 1611.32 655.027 1568.9 578.422 1500.87 C 566.772 1490.43 549.236 1473.94 539.533 1461.93 C 540.874 1462.01 542.216 1462.07 543.559 1462.12 C 622.116 1464.93 689.856 1441.39 747.509 1387.56 C 722.787 1388.52 695.807 1388.09 670.863 1388.09 L 538.727 1387.9 C 538.569 1370.17 538.859 1352.01 538.945 1334.24 L 710.748 1334.4 L 760.227 1334.26 C 770.494 1334.31 787.047 1336.9 795.293 1330.05 C 807.072 1320.27 801.32 1297.58 784.761 1297.31 C 702.672 1295.98 620.428 1297.84 538.316 1297 C 538.139 1270.19 538.387 1243.37 539.063 1216.56 C 478.787 1216.99 410.038 1229 388.116 1155.93 C 383.784 1141.7 383.787 1126.5 388.125 1112.27 C 392.531 1097.59 402.953 1079.33 410.338 1065.34 C 418.836 1049.26 427.209 1033.11 435.457 1016.9 C 457.781 973.055 480.406 929.361 503.331 885.824 C 514.065 865.045 524.049 843.824 535.2 823.296 C 536.452 824.771 537.717 826.236 538.994 827.689 C 595.897 892.375 669.277 931.831 755.959 937.242 L 756.465 937.121 C 759.862 936.34 759.783 936.318 761.999 933.649 C 709.119 915.206 668.502 882.497 664.2 823.278 L 822.831 823.183 C 852.294 823.22 884.559 824.183 913.728 823.287 C 909.586 881.648 862.043 920.879 808.255 935.421 C 811.82 937.177 816.571 936.583 821.343 937.088 C 822.412 937.113 823.481 937.094 824.547 937.032 C 893.179 933.713 962.398 899.147 1009.98 850.185 C 1018.18 841.749 1025.96 832.683 1033.87 823.956 C 1089.14 823.3 1144.41 823.076 1199.68 823.283 C 1228.42 823.358 1265.12 824.746 1293.22 823.218 z" fill="rgb(255,255,255)" transform="translate(0,0)"></path>
<path d="M 1293.22 823.218 C 1345.61 821.486 1396.56 840.548 1434.94 876.244 C 1473.05 912.119 1495.18 958.617 1496.52 1011.1 C 1498.24 1064.67 1478.1 1116.64 1440.71 1155.05 C 1406.13 1190.93 1355.28 1215.35 1305.08 1216.08 L 1303.45 1216.1 C 1299.72 1216.54 1297.54 1216.26 1294.68 1218.14 C 1297.3 1377.53 1209.24 1526.6 1062.08 1591.49 C 1050.04 1596.8 1037.64 1599.5 1025.83 1604.25 C 1024.69 1596.86 1025.1 1573 1025.1 1564.89 L 1025.09 1489.68 L 1025.61 1216.68 C 1082.74 1217 1139.87 1216.94 1197 1216.5 C 1224.5 1216.4 1256.87 1215.54 1283.95 1216.86 L 1292.6 1215.99 L 1292.7 936.392 C 1292.92 900.274 1291.79 858.789 1293.22 823.218 z" fill="rgb(56,23,244)" transform="translate(0,0)"></path>
<path d="M 761.999 933.649 C 766.4 934.589 771.563 935.93 776.104 936.979 L 770.348 938.328 C 765.103 937.82 761.394 938.038 755.959 937.242 L 756.465 937.121 C 759.862 936.34 759.783 936.318 761.999 933.649 z" fill="rgb(109,59,244)" transform="translate(0,0)"></path>
<path d="M 802.316 936.278 C 804.353 935.942 806.19 935.657 808.255 935.421 C 811.82 937.177 816.571 936.583 821.343 937.088 C 815.023 938.239 810.192 937.967 803.777 938.346 C 802.66 937.386 802.485 937.489 802.316 936.278 z" fill="rgb(109,59,244)" transform="translate(0,0)"></path>
<path d="M 803.777 938.346 C 798.648 940.097 787.864 938.204 802.316 936.278 C 802.485 937.489 802.66 937.386 803.777 938.346 z" fill="rgb(180,159,236)" transform="translate(0,0)"></path>
<path d="M 776.104 936.979 C 778.926 936.84 779.323 936.555 781.673 937.523 L 781.563 937.777 L 781.74 937.622 C 781.612 940.084 771.777 938.511 770.348 938.328 L 776.104 936.979 z" fill="rgb(200,196,228)" transform="translate(0,0)"></path>
<path d="M 630.882 1157.36 C 645.901 1155.82 661.075 1156.98 675.686 1160.78 C 707.859 1169.34 730.059 1187.92 746.471 1216.43 L 658.602 1216.78 C 619.606 1216.96 580.609 1216.82 541.615 1216.34 C 545.028 1210.1 548.941 1204.14 553.317 1198.53 C 572.641 1174.22 600.321 1160.91 630.882 1157.36 z" fill="rgb(56,23,244)" transform="translate(0,0)"></path>
<path d="M 1018.73 256.396 C 1022.05 255.885 1022.01 255.9 1025.36 256.291 C 1027.18 261.513 1025.45 377.354 1025.42 393.066 L 1025.34 822.966 L 914.232 822.927 C 909.469 767.436 859.772 730.014 807.206 723.14 C 770.615 718.026 733.504 727.83 704.212 750.347 C 679.643 769.508 667.484 792.385 663.658 822.949 L 647.926 822.934 L 536.893 822.761 C 537.617 692.663 581.294 566.447 661.135 463.727 C 679.935 439.578 700.578 416.922 722.88 395.964 C 802.057 322.938 911.359 268.898 1018.73 256.396 z" fill="rgb(255,255,255)" transform="translate(0,0)"></path>
<metadata><recraft-signature>{"signed_by": "recraft", "signature_b64": "3ZAGpRCId6KKWRbIeGYjuwY38vFbMPqgSbVfi+bv8G7WD7QeWnfilhn5g7Ukc6fEKaTPJLPvSYT27XtcH3xeDA==", "signing_algo": "Ed25519", "generation_timestamp": 1772810804, "identifier": "2fd44e4d-c84e-4f71-bd8b-aec09a9fd4e2"}</recraft-signature></metadata></svg>