<svg xmlns="http://www.w3.org/2000/svg" height="1024" preserveAspectRatio="none" style="display: block;" version="1.1" viewBox="0 0 2048 2048" width="1024">
<path d="M 0 0 L 2048 0 L 2048 2048 L 0 2048 L 0 0 z" fill="rgb(255,255,255)" transform="translate(0,0)"></path>
<path d="M 653.202 363.352 C 659.515 361.516 675.357 351.383 682.066 347.905 C 726.577 324.826 773.75 306.469 821.805 292.652 C 1013.37 238.86 1218.46 263.574 1391.76 361.33 L 1389.62 363.463 C 1330.87 345.929 1270.55 356.585 1217.24 385.383 C 1188.83 400.73 1152.71 431.726 1137.02 460.148 C 1140.55 462.146 1144.38 463.93 1146.52 467.526 C 1180.45 524.588 1211.69 583.918 1245.33 641.06 C 1362.7 842.645 1478.96 1044.88 1594.1 1247.74 C 1655.17 1236.23 1705.61 1201.31 1740.35 1150.12 C 1759.35 1122.13 1772.27 1090.47 1778.28 1057.17 C 1779.04 1051.11 1779.64 1047.41 1780.98 1041.43 C 1781.04 1048.99 1781.32 1059.91 1780.13 1067.29 C 1776.39 1261.41 1687.68 1439.55 1549.14 1572.95 C 1521.29 1599.56 1491.29 1623.84 1459.44 1645.52 C 1452.88 1650 1441.47 1658.1 1434.7 1661.81 C 1471.69 1601.61 1488.65 1533.54 1472.16 1463.46 C 1468.86 1449.18 1464.15 1435.26 1458.1 1421.91 C 1448.51 1401.3 1428.11 1368.36 1416 1347.59 C 1399.5 1319.3 1380.22 1281.6 1362.38 1255.09 L 1127.74 1255.11 L 1127.44 1408.04 C 1127.36 1443.57 1125.12 1501.33 1132.93 1533.66 C 1141.44 1569.32 1159.66 1601.93 1185.57 1627.88 C 1243.4 1685.65 1322.84 1701.34 1400.61 1682.08 C 1378.25 1697.41 1345.36 1713.04 1320.61 1723.92 C 1184.9 1783.06 1034.55 1800.09 889.043 1772.79 C 827.545 1761.65 767.738 1742.63 711.098 1716.2 C 691.572 1706.99 669.531 1693.42 652.146 1685.53 C 653.37 1684.83 654.585 1684.12 655.794 1683.39 C 671.258 1688.2 695.942 1690.6 711.953 1690.23 C 771.451 1688.85 826.029 1667.4 867.311 1624.19 C 891.223 1598.82 908.018 1567.58 915.999 1533.64 C 924.18 1499.26 921.792 1442.46 921.806 1404.81 C 922.141 1354.96 921.936 1305.1 921.194 1255.25 L 775.238 1255.03 C 746.434 1255.01 714.747 1254.39 686.196 1255.5 C 674.44 1273.34 654.163 1309.91 643.556 1329.03 C 619.32 1372.73 581.998 1425.94 573.638 1474.39 C 561.252 1546.19 575.917 1602.77 615.547 1662.07 C 573.954 1639.62 511.386 1585.39 478.405 1551.85 C 370.164 1441.79 297.203 1296.4 276.057 1143.32 C 273.045 1121.51 269.825 1093.46 270.138 1071.49 C 271.288 1068.82 271.431 1068.47 272.94 1066.12 C 295.369 1163.62 358.358 1224.18 454.519 1248.49 C 465.827 1227.62 479.704 1205.04 491.726 1184.33 L 552.396 1078.94 L 725.303 776.893 L 835.748 584.395 C 851.017 557.271 866.48 530.258 882.138 503.357 C 889.214 491.058 896.694 476.296 904.321 464.816 C 907.65 463.302 911.81 461.838 915.283 460.505 C 889.22 421.738 862.915 397.124 819.813 377.163 C 779.568 358.526 738.708 352.282 694.837 357.409 C 681.704 358.944 667.825 360.642 655.236 365.374 L 653.202 363.352 z" fill="rgb(42,33,140)" transform="translate(0,0)"></path>
<path d="M 1778.28 1057.17 C 1779.04 1051.11 1779.64 1047.41 1780.98 1041.43 C 1781.04 1048.99 1781.32 1059.91 1780.13 1067.29 C 1779.94 1064.5 1780.85 1057.78 1778.28 1057.17 z" fill="rgb(144,141,179)" transform="translate(0,0)"></path>
<path d="M 1127.78 839.504 C 1134.08 846.146 1155.58 886.462 1161.25 896.295 L 1215.5 990.713 C 1223.28 1004.46 1236.73 1026.71 1242.63 1040.64 C 1204.39 1040.44 1166.14 1040.52 1127.9 1040.87 L 1127.78 839.504 z" fill="rgb(255,255,255)" transform="translate(0,0)"></path>
<path d="M 920.542 839.705 C 921.709 845.049 921.251 887.727 921.282 895.493 C 921.758 943.836 921.866 992.182 921.606 1040.53 C 884.654 1040.69 847.701 1040.6 810.75 1040.27 C 809.012 1040.16 809.504 1040.15 807.816 1039.35 C 808.16 1035.07 909.496 859.017 920.542 839.705 z" fill="rgb(255,255,255)" transform="translate(0,0)"></path>
<path d="M 1441.92 392.922 C 1470.16 408.72 1498.76 432.316 1523.18 453.324 C 1635.03 547.909 1715.85 673.939 1755.16 815.048 C 1766.94 856.789 1779.76 920.65 1779.09 964.474 C 1780.29 971.619 1779.9 977.027 1780.43 984.187 C 1779.88 985.012 1779.34 985.84 1778.8 986.671 C 1778.47 983.274 1777.83 981.068 1777.4 977.851 C 1769.54 949.545 1763.87 932.599 1748.49 906.663 C 1714.56 850.444 1659.91 809.793 1596.3 793.459 C 1517.99 773.519 1451.81 794.695 1385.04 834.053 L 1382.88 831.841 C 1397.13 820.593 1410.39 804.096 1423.3 791.229 C 1475.29 739.391 1508.63 684.969 1516.74 610.04 C 1525.61 528.111 1496.18 460.46 1445.72 397.266 C 1444.51 395.765 1443.25 394.316 1441.92 392.922 z" fill="rgb(42,33,140)" transform="translate(0,0)"></path>
<path d="M 1779.09 964.474 C 1780.29 971.619 1779.9 977.027 1780.43 984.187 C 1779.88 985.012 1779.34 985.84 1778.8 986.671 C 1778.47 983.274 1777.83 981.068 1777.4 977.851 C 1779.53 974.174 1778.6 969.143 1779.09 964.474 z" fill="rgb(76,69,164)" transform="translate(0,0)"></path>
<path d="M 270.901 955.655 C 271.233 928.275 276.84 893.691 282.058 866.793 C 310.903 721.52 383.392 588.509 489.84 485.529 C 519.361 456.666 571.493 413.048 607.454 393.059 C 553.493 461.706 525.016 533.828 534.373 622.492 C 544.867 721.938 601.884 774.785 673.264 835.427 C 594.893 796.142 522.959 768.752 434.187 798.496 C 372.315 819.123 321.148 863.445 291.907 921.742 C 282.447 940.778 277.596 954.296 272.624 974.757 C 272.362 976.924 272.029 978.513 271.598 980.643 L 269.759 979.846 C 270.012 972.186 269.772 963.069 270.901 955.655 z" fill="rgb(42,33,140)" transform="translate(0,0)"></path>
<path d="M 269.759 979.846 C 270.012 972.186 269.772 963.069 270.901 955.655 C 271.606 961.853 270.608 970.802 272.624 974.757 C 272.362 976.924 272.029 978.513 271.598 980.643 L 269.759 979.846 z" fill="rgb(76,69,164)" transform="translate(0,0)"></path>
<path d="M 269.832 1069.67 C 269.319 1066.88 267.99 1048.49 270.338 1048.14 C 271.166 1049.44 271.517 1056.23 271.736 1058.1 C 272.222 1060.95 272.78 1063.24 272.94 1066.12 C 271.431 1068.47 271.288 1068.82 270.138 1071.49 L 269.832 1069.67 z" fill="rgb(172,173,196)" transform="translate(0,0)"></path>
<path d="M 269.832 1069.67 C 270.016 1066.31 268.792 1059.24 271.736 1058.1 C 272.222 1060.95 272.78 1063.24 272.94 1066.12 C 271.431 1068.47 271.288 1068.82 270.138 1071.49 L 269.832 1069.67 z" fill="rgb(76,69,164)" transform="translate(0,0)"></path>
<path d="M 269.759 979.846 L 271.598 980.643 L 271.53 981.17 C 271.302 982.825 271.11 989.11 270.304 989.735 C 268.262 991.319 269.329 981.291 269.759 979.846 z" fill="rgb(172,173,196)" transform="translate(0,0)"></path>
<path d="M 1382.88 831.841 L 1385.04 834.053 C 1377.38 839.89 1376.31 837.954 1382.88 831.841 z" fill="rgb(102,97,167)" transform="translate(0,0)"></path>
<path d="M 1391.76 361.33 C 1393.62 362.279 1395.6 363.262 1397.41 364.294 L 1396.72 363.865 L 1398.03 365.152 L 1398.35 365.001 C 1399.26 367.084 1391.04 363.772 1389.62 363.463 L 1391.76 361.33 z" fill="rgb(102,97,167)" transform="translate(0,0)"></path>
<path d="M 652.146 1685.53 C 652.264 1685.57 647.528 1683.82 648.928 1683.21 C 650.872 1682.36 653.772 1683.13 655.794 1683.39 C 654.585 1684.12 653.37 1684.83 652.146 1685.53 z" fill="rgb(76,69,164)" transform="translate(0,0)"></path>
<path d="M 1780.43 984.187 C 1782.1 989.874 1779.09 993.957 1778.8 986.671 C 1779.34 985.84 1779.88 985.012 1780.43 984.187 z" fill="rgb(172,173,196)" transform="translate(0,0)"></path>
<path d="M 655.236 365.374 L 653.676 365.787 C 652.903 365.999 650.258 367.065 649.509 366.372 C 649.42 365.147 652.326 363.868 653.202 363.352 L 655.236 365.374 z" fill="rgb(144,141,179)" transform="translate(0,0)"></path>
<metadata><recraft-signature>{"signed_by": "recraft", "signature_b64": "tTB/qnzPYzrHrwm77nrRZf/eTcMRPpsyMlXXaNQ2oSD4+Noh2yTu3Ye+UeSx8ATUuSl+tAn9DCgGYyUO/9XXDg==", "signing_algo": "Ed25519", "generation_timestamp": 1772810827, "identifier": "d0691477-2b29-40c5-a648-07a91cc08270"}</recraft-signature></metadata></svg>