<svg xmlns="http://www.w3.org/2000/svg" height="1024" preserveAspectRatio="none" style="display: block;" version="1.1" viewBox="0 0 2048 2048" width="1024">
<path d="M 0 0 L 2048 0 L 2048 2048 L 0 2048 L 0 0 z" fill="rgb(255,255,255)" transform="translate(0,0)"></path>
<path d="M 465.189 1557.94 C 434.896 1524.35 406.892 1490.47 381.762 1452.71 C 317.223 1355.73 271.156 1232.71 258.545 1116.72 C 233.861 908.177 294.537 698.509 426.781 535.375 C 553.237 379.695 735.88 280.034 935.227 257.934 C 1147.93 235.222 1347.52 291.198 1514.18 426.244 C 1672.95 555.618 1773.6 742.945 1793.83 946.747 C 1811.06 1120.12 1769.6 1294.26 1676.1 1441.28 C 1658.24 1468.87 1638.85 1495.44 1618.01 1520.86 C 1607.33 1533.79 1595.6 1545.71 1585.01 1558.76 C 1583.2 1512.6 1584.68 1456.28 1584.71 1409.52 L 1584.53 1088.44 C 1584.37 1048.11 1585.63 1006.53 1584.57 966.309 C 1584.63 958.655 1584.56 928.379 1582.6 921.858 C 1572.93 848.296 1547.32 777.731 1507.56 715.088 C 1420.82 581.19 1292.56 491.088 1136.14 459.805 C 993.223 431.224 837.204 460.066 715.332 539.412 C 610.49 606.749 531.159 707.194 489.946 824.785 C 481.675 849.13 476.839 871.439 471.511 896.57 L 473.516 898.559 C 482.134 862.419 497.944 828.386 520.003 798.489 C 564.689 737.479 625.299 704.374 698.93 692.798 C 702.95 692.033 705.183 691.912 709.313 691.571 C 710.563 692.163 710.618 692.411 711.767 693.543 C 709.968 694.024 708.631 694.333 706.781 694.675 C 693.589 699.609 681.7 704.169 669.847 712.058 C 615.706 748.094 593.287 815.539 616.198 876.438 C 629.171 911.157 655.419 939.293 689.155 954.642 C 697.432 958.409 706.059 961.354 714.912 963.434 C 716.649 963.552 717.836 963.742 719.54 963.975 L 720.993 964.162 L 719.649 966.208 C 701.198 964.844 677.328 966.892 657.905 965.837 L 465.788 965.916 C 465.419 1001.57 466.024 1037.43 466.021 1073.16 L 466.132 1361.25 L 465.839 1491.21 C 465.819 1505.83 464.964 1543.24 466.624 1556.19 L 465.189 1557.94 z" fill="rgb(44,28,140)" transform="translate(0,0)"></path>
<path d="M 714.912 963.434 C 716.649 963.552 717.836 963.742 719.54 963.975 L 720.993 964.162 L 719.649 966.208 C 701.198 964.844 677.328 966.892 657.905 965.837 C 667.898 964.788 709.683 966.443 714.912 963.434 z" fill="rgb(103,75,165)" transform="translate(0,0)"></path>
<path d="M 468.635 924.336 C 467.685 917.974 470.233 903.346 471.511 896.57 L 473.516 898.559 C 472.593 905.081 470.913 911.244 469.801 917.611 L 468.635 924.336 z" fill="rgb(168,151,201)" transform="translate(0,0)"></path>
<path d="M 709.313 691.571 C 710.563 692.163 710.618 692.411 711.767 693.543 C 709.968 694.024 708.631 694.333 706.781 694.675 C 703.832 693.121 702.358 693.264 698.93 692.798 C 702.95 692.033 705.183 691.912 709.313 691.571 z" fill="rgb(78,46,161)" transform="translate(0,0)"></path>
<path d="M 468.763 1561 L 1198.94 1561.08 C 1293.73 1561.67 1388.53 1561.76 1483.33 1561.34 C 1504.61 1561.18 1525.9 1561.18 1547.19 1561.36 C 1557.44 1561.41 1572.34 1562 1582.19 1561.38 C 1560.62 1581.82 1536.61 1606.07 1513.75 1624.51 C 1371.66 1741.07 1192.31 1802.5 1008.6 1797.54 C 810.381 1792.23 632.644 1719.84 489.75 1582.6 C 483.149 1576.26 475.346 1568.06 468.437 1562.29 L 468.763 1561 z" fill="rgb(44,28,140)" transform="translate(0,0)"></path>
<path d="M 949.791 1008.5 C 972.701 1008.18 995.614 1008.19 1018.52 1008.55 C 1011.31 1049.46 1000.91 1081.63 978.783 1117.21 C 939.242 1180.8 875.88 1226.7 802.149 1241.86 C 722.917 1258.14 653.448 1242.14 586.234 1199.14 C 519.168 1153.18 483.092 1087.1 468.432 1008.75 L 949.791 1008.5 z" fill="rgb(44,28,140)" transform="translate(0,0)"></path>
<path d="M 1031.71 1008.43 L 1580.1 1008.51 C 1571.97 1070.85 1544.98 1122.41 1501.53 1167.26 C 1454.54 1214.38 1391.95 1242.72 1325.54 1246.95 C 1192.04 1254.99 1076.4 1174.64 1039.59 1046.01 C 1036.24 1034.3 1032.44 1020.46 1031.71 1008.43 z" fill="rgb(44,28,140)" transform="translate(0,0)"></path>
<path d="M 1039.25 965.83 C 1035.88 965.927 1031.87 966.588 1029.34 964.793 C 1028.83 962.944 1028.42 961.228 1028.45 959.277 C 1030.69 818.78 1139.28 697.844 1282.54 691.077 L 1282.97 693.034 C 1248.9 699.797 1218.91 719.814 1199.6 748.683 C 1177.39 781.216 1169.67 817.002 1177.28 855.809 C 1184.37 892.391 1205.81 924.616 1236.8 945.304 C 1251.27 954.959 1263.36 959.337 1280.02 963.384 L 1285.53 963.733 L 1286.29 966.471 C 1274.76 965.001 1231.13 966.033 1217.4 966.04 L 1103.63 966.07 C 1082.88 966.072 1059.85 966.548 1039.25 965.83 z" fill="rgb(44,28,140)" transform="translate(0,0)"></path>
<path d="M 1280.02 963.384 L 1285.53 963.733 L 1286.29 966.471 C 1274.76 965.001 1231.13 966.033 1217.4 966.04 L 1103.63 966.07 C 1082.88 966.072 1059.85 966.548 1039.25 965.83 C 1043.04 964.799 1081.42 965.134 1087.71 965.142 L 1212.59 965.205 C 1222.26 965.221 1275 966.544 1280.02 963.384 z" fill="rgb(103,75,165)" transform="translate(0,0)"></path>
<path d="M 789.379 692.963 C 800.65 693.645 816.549 697.423 827.329 700.593 C 874.979 714.468 917.698 741.615 950.493 778.864 C 986.959 819.105 1010.64 869.275 1018.54 923.004 C 1019.74 931.389 1021.3 944.358 1021.12 952.746 C 1021.67 957.767 1021.94 960.949 1021.94 965.986 C 937.344 966.014 849.353 964.769 765.07 966.067 L 764.776 963.701 L 770.245 963.381 C 779.346 961.473 788.21 958.576 796.681 954.739 C 828.463 940.4 856.861 908.677 869.048 876.005 C 881.953 841.827 880.473 803.881 864.944 770.812 C 846.901 731.875 818.132 709.212 778.599 694.805 C 782.554 692.514 784.553 693.74 789.379 692.963 z" fill="rgb(44,28,140)" transform="translate(0,0)"></path>
<path d="M 1021.12 952.746 C 1021.67 957.767 1021.94 960.949 1021.94 965.986 C 937.344 966.014 849.353 964.769 765.07 966.067 L 764.776 963.701 L 770.245 963.381 C 774.602 965.562 997.827 966.258 1019.8 964.711 C 1021.14 962.011 1020.99 956.043 1021.12 952.746 z" fill="rgb(103,75,165)" transform="translate(0,0)"></path>
<path d="M 1351.92 692.525 C 1421.98 701.767 1485.33 738.986 1527.5 795.698 C 1555.7 832.869 1573.88 876.663 1580.3 922.881 C 1581.06 922.54 1581.83 922.199 1582.6 921.858 C 1584.56 928.379 1584.63 958.655 1584.57 966.309 C 1556.7 964.258 1516.44 968.281 1489.16 965.862 C 1440.89 966.985 1389.15 965.816 1340.41 966.025 L 1336.11 963.411 C 1383.2 951.775 1419.22 922.29 1435.76 875.869 C 1448.41 840.427 1446.29 801.387 1429.86 767.529 C 1412.46 731.165 1383.66 707.991 1346.17 694.814 C 1348.83 693.303 1348.95 693.349 1351.92 692.525 z" fill="rgb(44,28,140)" transform="translate(0,0)"></path>
<path d="M 1582.6 921.858 C 1584.56 928.379 1584.63 958.655 1584.57 966.309 C 1556.7 964.258 1516.44 968.281 1489.16 965.862 C 1493.85 965.11 1513.64 965.491 1519.5 965.491 L 1583.29 965.49 C 1583 949.748 1582.1 938.589 1580.3 922.881 C 1581.06 922.54 1581.83 922.199 1582.6 921.858 z" fill="rgb(131,112,185)" transform="translate(0,0)"></path>
<path d="M 853.328 1303.73 C 857.156 1305.26 866.643 1313.3 870.981 1316.15 C 887.379 1326.94 905.932 1338.45 924.09 1345.8 C 1023.43 1386.06 1112.56 1367.05 1196.44 1303.78 L 1242.49 1353.12 C 1230.4 1362.92 1216.93 1372.3 1204.18 1381.18 C 1189.42 1391.42 1174.53 1398.97 1158.39 1406.35 C 1060.38 1451.17 944.243 1443.26 853.161 1385.84 C 836.72 1375.48 821.442 1366.02 806.884 1352.52 C 816.757 1340.51 841.439 1316.24 853.328 1303.73 z" fill="rgb(44,28,140)" transform="translate(0,0)"></path>
<path d="M 758.531 690.999 C 766.309 690.9 773.399 690.451 781.064 691.9 C 784.983 692.028 785.621 692.105 789.379 692.963 C 784.553 693.74 782.554 692.514 778.599 694.805 C 776.329 694.763 774.512 694.127 772.333 693.54 C 766.036 692.491 765.132 692.61 758.531 690.999 z" fill="rgb(78,46,161)" transform="translate(0,0)"></path>
<path d="M 758.531 690.999 C 766.309 690.9 773.399 690.451 781.064 691.9 C 778.408 692.076 772.639 691.076 772.333 693.54 C 766.036 692.491 765.132 692.61 758.531 690.999 z" fill="rgb(103,75,165)" transform="translate(0,0)"></path>
<path d="M 709.313 691.571 C 711.941 690.708 717.355 690.904 720.288 690.846 L 721.715 691.966 C 718.663 692.491 714.56 692.949 711.767 693.543 C 710.618 692.411 710.563 692.163 709.313 691.571 z" fill="rgb(131,112,185)" transform="translate(0,0)"></path>
<path d="M 1342.76 691.514 C 1345.95 691.826 1348.76 691.942 1351.92 692.525 C 1348.95 693.349 1348.83 693.303 1346.17 694.814 C 1343.88 694.461 1342.5 694.054 1340.28 693.434 L 1342.76 691.514 z" fill="rgb(78,46,161)" transform="translate(0,0)"></path>
<path d="M 1332.68 690.626 C 1335.33 690.821 1340.41 690.836 1342.76 691.514 L 1340.28 693.434 C 1336.95 692.872 1333.62 692.377 1330.28 691.95 C 1331.08 691.509 1331.88 691.068 1332.68 690.626 z" fill="rgb(131,112,185)" transform="translate(0,0)"></path>
<path d="M 1331.05 964.168 C 1332.86 963.858 1334.29 963.628 1336.11 963.411 L 1340.41 966.025 C 1337.13 966.055 1334.47 966.01 1331.16 965.816 L 1331.05 964.168 z" fill="rgb(103,75,165)" transform="translate(0,0)"></path>
<path d="M 1284.22 690.723 C 1285.6 690.337 1289.26 689.282 1290.35 690.622 C 1289.96 691.804 1288.05 692.074 1287.06 692.388 C 1285.79 692.568 1284.19 692.744 1282.97 693.034 L 1282.54 691.077 L 1284.22 690.723 z" fill="rgb(194,183,210)" transform="translate(0,0)"></path>
<path d="M 1284.22 690.723 L 1287.06 692.388 C 1285.79 692.568 1284.19 692.744 1282.97 693.034 L 1282.54 691.077 L 1284.22 690.723 z" fill="rgb(131,112,185)" transform="translate(0,0)"></path>
<path d="M 466.624 1556.19 C 467.802 1558.48 466.887 1558.79 468.763 1561 L 468.437 1562.29 C 466.819 1560.51 466.485 1560.01 465.189 1557.94 L 466.624 1556.19 z" fill="rgb(239,239,243)" transform="translate(0,0)"></path>
<path d="M 1330.28 691.95 C 1329.55 691.856 1328.3 691.948 1327.68 691.383 C 1327.68 691.254 1327.68 691.125 1327.67 690.995 C 1329.19 689.952 1330.99 689.945 1332.68 690.626 C 1331.88 691.068 1331.08 691.509 1330.28 691.95 z" fill="rgb(194,183,210)" transform="translate(0,0)"></path>
<path d="M 720.993 964.162 C 721.921 964.262 724.825 964.338 725.371 965.436 C 724.942 966.138 720.499 966.151 719.649 966.208 L 720.993 964.162 z" fill="rgb(168,151,201)" transform="translate(0,0)"></path>
<path d="M 765.07 966.067 C 765.009 966.064 762.404 965.93 762.343 965.919 C 761.924 965.846 761.11 965.832 760.814 965.466 L 760.848 965.317 C 761.642 964.538 763.732 964.03 764.776 963.701 L 765.07 966.067 z" fill="rgb(168,151,201)" transform="translate(0,0)"></path>
<path d="M 720.288 690.846 C 721.217 690.406 723.444 689.612 724.009 690.981 C 723.838 691.929 722.35 691.862 721.715 691.966 L 720.288 690.846 z" fill="rgb(194,183,210)" transform="translate(0,0)"></path>
<path d="M 1285.53 963.733 C 1286.76 963.997 1289.76 964.412 1290.49 965.372 C 1290.18 966.119 1286.97 966.35 1286.29 966.471 L 1285.53 963.733 z" fill="rgb(168,151,201)" transform="translate(0,0)"></path>
<path d="M 1331.16 965.816 C 1330.5 965.833 1327.28 966.254 1327.42 965.175 C 1328.5 964.302 1329.69 964.328 1331.05 964.168 L 1331.16 965.816 z" fill="rgb(194,183,210)" transform="translate(0,0)"></path>
<metadata><recraft-signature>{"signed_by": "recraft", "signature_b64": "Kgh1/uemY0x45tsszwOKmMhK/JTL+5apY0NvzRfInPOmpviGGUXhSsoeomZ/xJsXPfu/XRgz4lPOzXsIbzmPBg==", "signing_algo": "Ed25519", "generation_timestamp": 1772810850, "identifier": "94f41782-c1ca-41e2-a331-a2603577ed56"}</recraft-signature></metadata></svg>